%TF.GenerationSoftware,KiCad,Pcbnew,9.0.6*%
%TF.CreationDate,2026-03-26T20:22:34+01:00*%
%TF.ProjectId,proto_70x100_unconnected,70726f74-6f5f-4373-9078-3130305f756e,rev?*%
%TF.SameCoordinates,Original*%
%TF.FileFunction,Drillmap*%
%TF.FilePolarity,Positive*%
%FSLAX45Y45*%
G04 Gerber Fmt 4.5, Leading zero omitted, Abs format (unit mm)*
G04 Created by KiCad (PCBNEW 9.0.6) date 2026-03-26 20:22:34*
%MOMM*%
%LPD*%
G01*
G04 APERTURE LIST*
%ADD10C,0.100000*%
%ADD11C,0.200000*%
G04 APERTURE END LIST*
D10*
X400000Y0D02*
X6600000Y0D01*
X7000000Y-400000D02*
X7000000Y-9600000D01*
X400000Y-10000000D02*
G75*
G02*
X0Y-9600000I0J400000D01*
G01*
X6600000Y0D02*
G75*
G02*
X7000000Y-400000I0J-400000D01*
G01*
X0Y-400000D02*
G75*
G02*
X400000Y0I400000J0D01*
G01*
X6600000Y-10000000D02*
X400000Y-10000000D01*
X0Y-9600000D02*
X0Y-400000D01*
X7000000Y-9600000D02*
G75*
G02*
X6600000Y-10000000I-400000J0D01*
G01*
D11*
D10*
X464000Y-8281000D02*
X494000Y-8311000D01*
X494000Y-8281000D02*
X464000Y-8311000D01*
X464000Y-8535000D02*
X494000Y-8565000D01*
X494000Y-8535000D02*
X464000Y-8565000D01*
X664000Y-8281000D02*
X694000Y-8311000D01*
X694000Y-8281000D02*
X664000Y-8311000D01*
X664000Y-8535000D02*
X694000Y-8565000D01*
X694000Y-8535000D02*
X664000Y-8565000D01*
X718000Y-8281000D02*
X748000Y-8311000D01*
X748000Y-8281000D02*
X718000Y-8311000D01*
X718000Y-8535000D02*
X748000Y-8565000D01*
X748000Y-8535000D02*
X718000Y-8565000D01*
X918000Y-8281000D02*
X948000Y-8311000D01*
X948000Y-8281000D02*
X918000Y-8311000D01*
X918000Y-8535000D02*
X948000Y-8565000D01*
X948000Y-8535000D02*
X918000Y-8565000D01*
X972000Y-8281000D02*
X1002000Y-8311000D01*
X1002000Y-8281000D02*
X972000Y-8311000D01*
X972000Y-8535000D02*
X1002000Y-8565000D01*
X1002000Y-8535000D02*
X972000Y-8565000D01*
X1172000Y-8281000D02*
X1202000Y-8311000D01*
X1202000Y-8281000D02*
X1172000Y-8311000D01*
X1172000Y-8535000D02*
X1202000Y-8565000D01*
X1202000Y-8535000D02*
X1172000Y-8565000D01*
X5798000Y-8281000D02*
X5828000Y-8311000D01*
X5828000Y-8281000D02*
X5798000Y-8311000D01*
X5798000Y-8535000D02*
X5828000Y-8565000D01*
X5828000Y-8535000D02*
X5798000Y-8565000D01*
X5998000Y-8281000D02*
X6028000Y-8311000D01*
X6028000Y-8281000D02*
X5998000Y-8311000D01*
X5998000Y-8535000D02*
X6028000Y-8565000D01*
X6028000Y-8535000D02*
X5998000Y-8565000D01*
X6052000Y-8281000D02*
X6082000Y-8311000D01*
X6082000Y-8281000D02*
X6052000Y-8311000D01*
X6052000Y-8535000D02*
X6082000Y-8565000D01*
X6082000Y-8535000D02*
X6052000Y-8565000D01*
X6252000Y-8281000D02*
X6282000Y-8311000D01*
X6282000Y-8281000D02*
X6252000Y-8311000D01*
X6252000Y-8535000D02*
X6282000Y-8565000D01*
X6282000Y-8535000D02*
X6252000Y-8565000D01*
X6306000Y-8281000D02*
X6336000Y-8311000D01*
X6336000Y-8281000D02*
X6306000Y-8311000D01*
X6306000Y-8535000D02*
X6336000Y-8565000D01*
X6336000Y-8535000D02*
X6306000Y-8565000D01*
X6506000Y-8281000D02*
X6536000Y-8311000D01*
X6536000Y-8281000D02*
X6506000Y-8311000D01*
X6506000Y-8535000D02*
X6536000Y-8565000D01*
X6536000Y-8535000D02*
X6506000Y-8565000D01*
X473000Y-9200000D02*
G75*
G02*
X433000Y-9200000I-20000J0D01*
G01*
X433000Y-9200000D02*
G75*
G02*
X473000Y-9200000I20000J0D01*
G01*
X584300Y-8931300D02*
G75*
G02*
X544300Y-8931300I-20000J0D01*
G01*
X544300Y-8931300D02*
G75*
G02*
X584300Y-8931300I20000J0D01*
G01*
X584300Y-9468700D02*
G75*
G02*
X544300Y-9468700I-20000J0D01*
G01*
X544300Y-9468700D02*
G75*
G02*
X584300Y-9468700I20000J0D01*
G01*
X853000Y-8820000D02*
G75*
G02*
X813000Y-8820000I-20000J0D01*
G01*
X813000Y-8820000D02*
G75*
G02*
X853000Y-8820000I20000J0D01*
G01*
X853000Y-9580000D02*
G75*
G02*
X813000Y-9580000I-20000J0D01*
G01*
X813000Y-9580000D02*
G75*
G02*
X853000Y-9580000I20000J0D01*
G01*
X1121700Y-8931300D02*
G75*
G02*
X1081700Y-8931300I-20000J0D01*
G01*
X1081700Y-8931300D02*
G75*
G02*
X1121700Y-8931300I20000J0D01*
G01*
X1121700Y-9468700D02*
G75*
G02*
X1081700Y-9468700I-20000J0D01*
G01*
X1081700Y-9468700D02*
G75*
G02*
X1121700Y-9468700I20000J0D01*
G01*
X1233000Y-9200000D02*
G75*
G02*
X1193000Y-9200000I-20000J0D01*
G01*
X1193000Y-9200000D02*
G75*
G02*
X1233000Y-9200000I20000J0D01*
G01*
X5807000Y-9200000D02*
G75*
G02*
X5767000Y-9200000I-20000J0D01*
G01*
X5767000Y-9200000D02*
G75*
G02*
X5807000Y-9200000I20000J0D01*
G01*
X5918300Y-8931300D02*
G75*
G02*
X5878300Y-8931300I-20000J0D01*
G01*
X5878300Y-8931300D02*
G75*
G02*
X5918300Y-8931300I20000J0D01*
G01*
X5918300Y-9468700D02*
G75*
G02*
X5878300Y-9468700I-20000J0D01*
G01*
X5878300Y-9468700D02*
G75*
G02*
X5918300Y-9468700I20000J0D01*
G01*
X6187000Y-8820000D02*
G75*
G02*
X6147000Y-8820000I-20000J0D01*
G01*
X6147000Y-8820000D02*
G75*
G02*
X6187000Y-8820000I20000J0D01*
G01*
X6187000Y-9580000D02*
G75*
G02*
X6147000Y-9580000I-20000J0D01*
G01*
X6147000Y-9580000D02*
G75*
G02*
X6187000Y-9580000I20000J0D01*
G01*
X6455700Y-8931300D02*
G75*
G02*
X6415700Y-8931300I-20000J0D01*
G01*
X6415700Y-8931300D02*
G75*
G02*
X6455700Y-8931300I20000J0D01*
G01*
X6455700Y-9468700D02*
G75*
G02*
X6415700Y-9468700I-20000J0D01*
G01*
X6415700Y-9468700D02*
G75*
G02*
X6455700Y-9468700I20000J0D01*
G01*
X6567000Y-9200000D02*
G75*
G02*
X6527000Y-9200000I-20000J0D01*
G01*
X6527000Y-9200000D02*
G75*
G02*
X6567000Y-9200000I20000J0D01*
G01*
X579000Y-505000D02*
X579000Y-605000D01*
X529000Y-555000D02*
X629000Y-555000D01*
X579000Y-759000D02*
X579000Y-859000D01*
X529000Y-809000D02*
X629000Y-809000D01*
X579000Y-1013000D02*
X579000Y-1113000D01*
X529000Y-1063000D02*
X629000Y-1063000D01*
X579000Y-1267000D02*
X579000Y-1367000D01*
X529000Y-1317000D02*
X629000Y-1317000D01*
X579000Y-1521000D02*
X579000Y-1621000D01*
X529000Y-1571000D02*
X629000Y-1571000D01*
X579000Y-1775000D02*
X579000Y-1875000D01*
X529000Y-1825000D02*
X629000Y-1825000D01*
X579000Y-2029000D02*
X579000Y-2129000D01*
X529000Y-2079000D02*
X629000Y-2079000D01*
X579000Y-2283000D02*
X579000Y-2383000D01*
X529000Y-2333000D02*
X629000Y-2333000D01*
X579000Y-2537000D02*
X579000Y-2637000D01*
X529000Y-2587000D02*
X629000Y-2587000D01*
X579000Y-2791000D02*
X579000Y-2891000D01*
X529000Y-2841000D02*
X629000Y-2841000D01*
X579000Y-3045000D02*
X579000Y-3145000D01*
X529000Y-3095000D02*
X629000Y-3095000D01*
X579000Y-3299000D02*
X579000Y-3399000D01*
X529000Y-3349000D02*
X629000Y-3349000D01*
X579000Y-3553000D02*
X579000Y-3653000D01*
X529000Y-3603000D02*
X629000Y-3603000D01*
X579000Y-3807000D02*
X579000Y-3907000D01*
X529000Y-3857000D02*
X629000Y-3857000D01*
X579000Y-4061000D02*
X579000Y-4161000D01*
X529000Y-4111000D02*
X629000Y-4111000D01*
X579000Y-4315000D02*
X579000Y-4415000D01*
X529000Y-4365000D02*
X629000Y-4365000D01*
X579000Y-4569000D02*
X579000Y-4669000D01*
X529000Y-4619000D02*
X629000Y-4619000D01*
X579000Y-4823000D02*
X579000Y-4923000D01*
X529000Y-4873000D02*
X629000Y-4873000D01*
X579000Y-5077000D02*
X579000Y-5177000D01*
X529000Y-5127000D02*
X629000Y-5127000D01*
X579000Y-5331000D02*
X579000Y-5431000D01*
X529000Y-5381000D02*
X629000Y-5381000D01*
X579000Y-5585000D02*
X579000Y-5685000D01*
X529000Y-5635000D02*
X629000Y-5635000D01*
X579000Y-5839000D02*
X579000Y-5939000D01*
X529000Y-5889000D02*
X629000Y-5889000D01*
X579000Y-6093000D02*
X579000Y-6193000D01*
X529000Y-6143000D02*
X629000Y-6143000D01*
X579000Y-6347000D02*
X579000Y-6447000D01*
X529000Y-6397000D02*
X629000Y-6397000D01*
X579000Y-6601000D02*
X579000Y-6701000D01*
X529000Y-6651000D02*
X629000Y-6651000D01*
X579000Y-6855000D02*
X579000Y-6955000D01*
X529000Y-6905000D02*
X629000Y-6905000D01*
X579000Y-7109000D02*
X579000Y-7209000D01*
X529000Y-7159000D02*
X629000Y-7159000D01*
X579000Y-7363000D02*
X579000Y-7463000D01*
X529000Y-7413000D02*
X629000Y-7413000D01*
X579000Y-7617000D02*
X579000Y-7717000D01*
X529000Y-7667000D02*
X629000Y-7667000D01*
X579000Y-7871000D02*
X579000Y-7971000D01*
X529000Y-7921000D02*
X629000Y-7921000D01*
X579000Y-8246000D02*
X579000Y-8346000D01*
X529000Y-8296000D02*
X629000Y-8296000D01*
X579000Y-8500000D02*
X579000Y-8600000D01*
X529000Y-8550000D02*
X629000Y-8550000D01*
X833000Y-505000D02*
X833000Y-605000D01*
X783000Y-555000D02*
X883000Y-555000D01*
X833000Y-759000D02*
X833000Y-859000D01*
X783000Y-809000D02*
X883000Y-809000D01*
X833000Y-1013000D02*
X833000Y-1113000D01*
X783000Y-1063000D02*
X883000Y-1063000D01*
X833000Y-1267000D02*
X833000Y-1367000D01*
X783000Y-1317000D02*
X883000Y-1317000D01*
X833000Y-1521000D02*
X833000Y-1621000D01*
X783000Y-1571000D02*
X883000Y-1571000D01*
X833000Y-1775000D02*
X833000Y-1875000D01*
X783000Y-1825000D02*
X883000Y-1825000D01*
X833000Y-2029000D02*
X833000Y-2129000D01*
X783000Y-2079000D02*
X883000Y-2079000D01*
X833000Y-2283000D02*
X833000Y-2383000D01*
X783000Y-2333000D02*
X883000Y-2333000D01*
X833000Y-2537000D02*
X833000Y-2637000D01*
X783000Y-2587000D02*
X883000Y-2587000D01*
X833000Y-2791000D02*
X833000Y-2891000D01*
X783000Y-2841000D02*
X883000Y-2841000D01*
X833000Y-3045000D02*
X833000Y-3145000D01*
X783000Y-3095000D02*
X883000Y-3095000D01*
X833000Y-3299000D02*
X833000Y-3399000D01*
X783000Y-3349000D02*
X883000Y-3349000D01*
X833000Y-3553000D02*
X833000Y-3653000D01*
X783000Y-3603000D02*
X883000Y-3603000D01*
X833000Y-3807000D02*
X833000Y-3907000D01*
X783000Y-3857000D02*
X883000Y-3857000D01*
X833000Y-4061000D02*
X833000Y-4161000D01*
X783000Y-4111000D02*
X883000Y-4111000D01*
X833000Y-4315000D02*
X833000Y-4415000D01*
X783000Y-4365000D02*
X883000Y-4365000D01*
X833000Y-4569000D02*
X833000Y-4669000D01*
X783000Y-4619000D02*
X883000Y-4619000D01*
X833000Y-4823000D02*
X833000Y-4923000D01*
X783000Y-4873000D02*
X883000Y-4873000D01*
X833000Y-5077000D02*
X833000Y-5177000D01*
X783000Y-5127000D02*
X883000Y-5127000D01*
X833000Y-5331000D02*
X833000Y-5431000D01*
X783000Y-5381000D02*
X883000Y-5381000D01*
X833000Y-5585000D02*
X833000Y-5685000D01*
X783000Y-5635000D02*
X883000Y-5635000D01*
X833000Y-5839000D02*
X833000Y-5939000D01*
X783000Y-5889000D02*
X883000Y-5889000D01*
X833000Y-6093000D02*
X833000Y-6193000D01*
X783000Y-6143000D02*
X883000Y-6143000D01*
X833000Y-6347000D02*
X833000Y-6447000D01*
X783000Y-6397000D02*
X883000Y-6397000D01*
X833000Y-6601000D02*
X833000Y-6701000D01*
X783000Y-6651000D02*
X883000Y-6651000D01*
X833000Y-6855000D02*
X833000Y-6955000D01*
X783000Y-6905000D02*
X883000Y-6905000D01*
X833000Y-7109000D02*
X833000Y-7209000D01*
X783000Y-7159000D02*
X883000Y-7159000D01*
X833000Y-7363000D02*
X833000Y-7463000D01*
X783000Y-7413000D02*
X883000Y-7413000D01*
X833000Y-7617000D02*
X833000Y-7717000D01*
X783000Y-7667000D02*
X883000Y-7667000D01*
X833000Y-7871000D02*
X833000Y-7971000D01*
X783000Y-7921000D02*
X883000Y-7921000D01*
X833000Y-8246000D02*
X833000Y-8346000D01*
X783000Y-8296000D02*
X883000Y-8296000D01*
X833000Y-8500000D02*
X833000Y-8600000D01*
X783000Y-8550000D02*
X883000Y-8550000D01*
X1087000Y-505000D02*
X1087000Y-605000D01*
X1037000Y-555000D02*
X1137000Y-555000D01*
X1087000Y-759000D02*
X1087000Y-859000D01*
X1037000Y-809000D02*
X1137000Y-809000D01*
X1087000Y-1013000D02*
X1087000Y-1113000D01*
X1037000Y-1063000D02*
X1137000Y-1063000D01*
X1087000Y-1267000D02*
X1087000Y-1367000D01*
X1037000Y-1317000D02*
X1137000Y-1317000D01*
X1087000Y-1521000D02*
X1087000Y-1621000D01*
X1037000Y-1571000D02*
X1137000Y-1571000D01*
X1087000Y-1775000D02*
X1087000Y-1875000D01*
X1037000Y-1825000D02*
X1137000Y-1825000D01*
X1087000Y-2029000D02*
X1087000Y-2129000D01*
X1037000Y-2079000D02*
X1137000Y-2079000D01*
X1087000Y-2283000D02*
X1087000Y-2383000D01*
X1037000Y-2333000D02*
X1137000Y-2333000D01*
X1087000Y-2537000D02*
X1087000Y-2637000D01*
X1037000Y-2587000D02*
X1137000Y-2587000D01*
X1087000Y-2791000D02*
X1087000Y-2891000D01*
X1037000Y-2841000D02*
X1137000Y-2841000D01*
X1087000Y-3045000D02*
X1087000Y-3145000D01*
X1037000Y-3095000D02*
X1137000Y-3095000D01*
X1087000Y-3299000D02*
X1087000Y-3399000D01*
X1037000Y-3349000D02*
X1137000Y-3349000D01*
X1087000Y-3553000D02*
X1087000Y-3653000D01*
X1037000Y-3603000D02*
X1137000Y-3603000D01*
X1087000Y-3807000D02*
X1087000Y-3907000D01*
X1037000Y-3857000D02*
X1137000Y-3857000D01*
X1087000Y-4061000D02*
X1087000Y-4161000D01*
X1037000Y-4111000D02*
X1137000Y-4111000D01*
X1087000Y-4315000D02*
X1087000Y-4415000D01*
X1037000Y-4365000D02*
X1137000Y-4365000D01*
X1087000Y-4569000D02*
X1087000Y-4669000D01*
X1037000Y-4619000D02*
X1137000Y-4619000D01*
X1087000Y-4823000D02*
X1087000Y-4923000D01*
X1037000Y-4873000D02*
X1137000Y-4873000D01*
X1087000Y-5077000D02*
X1087000Y-5177000D01*
X1037000Y-5127000D02*
X1137000Y-5127000D01*
X1087000Y-5331000D02*
X1087000Y-5431000D01*
X1037000Y-5381000D02*
X1137000Y-5381000D01*
X1087000Y-5585000D02*
X1087000Y-5685000D01*
X1037000Y-5635000D02*
X1137000Y-5635000D01*
X1087000Y-5839000D02*
X1087000Y-5939000D01*
X1037000Y-5889000D02*
X1137000Y-5889000D01*
X1087000Y-6093000D02*
X1087000Y-6193000D01*
X1037000Y-6143000D02*
X1137000Y-6143000D01*
X1087000Y-6347000D02*
X1087000Y-6447000D01*
X1037000Y-6397000D02*
X1137000Y-6397000D01*
X1087000Y-6601000D02*
X1087000Y-6701000D01*
X1037000Y-6651000D02*
X1137000Y-6651000D01*
X1087000Y-6855000D02*
X1087000Y-6955000D01*
X1037000Y-6905000D02*
X1137000Y-6905000D01*
X1087000Y-7109000D02*
X1087000Y-7209000D01*
X1037000Y-7159000D02*
X1137000Y-7159000D01*
X1087000Y-7363000D02*
X1087000Y-7463000D01*
X1037000Y-7413000D02*
X1137000Y-7413000D01*
X1087000Y-7617000D02*
X1087000Y-7717000D01*
X1037000Y-7667000D02*
X1137000Y-7667000D01*
X1087000Y-7871000D02*
X1087000Y-7971000D01*
X1037000Y-7921000D02*
X1137000Y-7921000D01*
X1087000Y-8246000D02*
X1087000Y-8346000D01*
X1037000Y-8296000D02*
X1137000Y-8296000D01*
X1087000Y-8500000D02*
X1087000Y-8600000D01*
X1037000Y-8550000D02*
X1137000Y-8550000D01*
X1341000Y-505000D02*
X1341000Y-605000D01*
X1291000Y-555000D02*
X1391000Y-555000D01*
X1341000Y-759000D02*
X1341000Y-859000D01*
X1291000Y-809000D02*
X1391000Y-809000D01*
X1341000Y-1013000D02*
X1341000Y-1113000D01*
X1291000Y-1063000D02*
X1391000Y-1063000D01*
X1341000Y-1267000D02*
X1341000Y-1367000D01*
X1291000Y-1317000D02*
X1391000Y-1317000D01*
X1341000Y-1521000D02*
X1341000Y-1621000D01*
X1291000Y-1571000D02*
X1391000Y-1571000D01*
X1341000Y-1775000D02*
X1341000Y-1875000D01*
X1291000Y-1825000D02*
X1391000Y-1825000D01*
X1341000Y-2029000D02*
X1341000Y-2129000D01*
X1291000Y-2079000D02*
X1391000Y-2079000D01*
X1341000Y-2283000D02*
X1341000Y-2383000D01*
X1291000Y-2333000D02*
X1391000Y-2333000D01*
X1341000Y-2537000D02*
X1341000Y-2637000D01*
X1291000Y-2587000D02*
X1391000Y-2587000D01*
X1341000Y-2791000D02*
X1341000Y-2891000D01*
X1291000Y-2841000D02*
X1391000Y-2841000D01*
X1341000Y-3045000D02*
X1341000Y-3145000D01*
X1291000Y-3095000D02*
X1391000Y-3095000D01*
X1341000Y-3299000D02*
X1341000Y-3399000D01*
X1291000Y-3349000D02*
X1391000Y-3349000D01*
X1341000Y-3553000D02*
X1341000Y-3653000D01*
X1291000Y-3603000D02*
X1391000Y-3603000D01*
X1341000Y-3807000D02*
X1341000Y-3907000D01*
X1291000Y-3857000D02*
X1391000Y-3857000D01*
X1341000Y-4061000D02*
X1341000Y-4161000D01*
X1291000Y-4111000D02*
X1391000Y-4111000D01*
X1341000Y-4315000D02*
X1341000Y-4415000D01*
X1291000Y-4365000D02*
X1391000Y-4365000D01*
X1341000Y-4569000D02*
X1341000Y-4669000D01*
X1291000Y-4619000D02*
X1391000Y-4619000D01*
X1341000Y-4823000D02*
X1341000Y-4923000D01*
X1291000Y-4873000D02*
X1391000Y-4873000D01*
X1341000Y-5077000D02*
X1341000Y-5177000D01*
X1291000Y-5127000D02*
X1391000Y-5127000D01*
X1341000Y-5331000D02*
X1341000Y-5431000D01*
X1291000Y-5381000D02*
X1391000Y-5381000D01*
X1341000Y-5585000D02*
X1341000Y-5685000D01*
X1291000Y-5635000D02*
X1391000Y-5635000D01*
X1341000Y-5839000D02*
X1341000Y-5939000D01*
X1291000Y-5889000D02*
X1391000Y-5889000D01*
X1341000Y-6093000D02*
X1341000Y-6193000D01*
X1291000Y-6143000D02*
X1391000Y-6143000D01*
X1341000Y-6347000D02*
X1341000Y-6447000D01*
X1291000Y-6397000D02*
X1391000Y-6397000D01*
X1341000Y-6601000D02*
X1341000Y-6701000D01*
X1291000Y-6651000D02*
X1391000Y-6651000D01*
X1341000Y-6855000D02*
X1341000Y-6955000D01*
X1291000Y-6905000D02*
X1391000Y-6905000D01*
X1341000Y-7109000D02*
X1341000Y-7209000D01*
X1291000Y-7159000D02*
X1391000Y-7159000D01*
X1341000Y-7363000D02*
X1341000Y-7463000D01*
X1291000Y-7413000D02*
X1391000Y-7413000D01*
X1341000Y-7617000D02*
X1341000Y-7717000D01*
X1291000Y-7667000D02*
X1391000Y-7667000D01*
X1341000Y-7871000D02*
X1341000Y-7971000D01*
X1291000Y-7921000D02*
X1391000Y-7921000D01*
X1595000Y-505000D02*
X1595000Y-605000D01*
X1545000Y-555000D02*
X1645000Y-555000D01*
X1595000Y-759000D02*
X1595000Y-859000D01*
X1545000Y-809000D02*
X1645000Y-809000D01*
X1595000Y-1013000D02*
X1595000Y-1113000D01*
X1545000Y-1063000D02*
X1645000Y-1063000D01*
X1595000Y-1267000D02*
X1595000Y-1367000D01*
X1545000Y-1317000D02*
X1645000Y-1317000D01*
X1595000Y-1521000D02*
X1595000Y-1621000D01*
X1545000Y-1571000D02*
X1645000Y-1571000D01*
X1595000Y-1775000D02*
X1595000Y-1875000D01*
X1545000Y-1825000D02*
X1645000Y-1825000D01*
X1595000Y-2029000D02*
X1595000Y-2129000D01*
X1545000Y-2079000D02*
X1645000Y-2079000D01*
X1595000Y-2283000D02*
X1595000Y-2383000D01*
X1545000Y-2333000D02*
X1645000Y-2333000D01*
X1595000Y-2537000D02*
X1595000Y-2637000D01*
X1545000Y-2587000D02*
X1645000Y-2587000D01*
X1595000Y-2791000D02*
X1595000Y-2891000D01*
X1545000Y-2841000D02*
X1645000Y-2841000D01*
X1595000Y-3045000D02*
X1595000Y-3145000D01*
X1545000Y-3095000D02*
X1645000Y-3095000D01*
X1595000Y-3299000D02*
X1595000Y-3399000D01*
X1545000Y-3349000D02*
X1645000Y-3349000D01*
X1595000Y-3553000D02*
X1595000Y-3653000D01*
X1545000Y-3603000D02*
X1645000Y-3603000D01*
X1595000Y-3807000D02*
X1595000Y-3907000D01*
X1545000Y-3857000D02*
X1645000Y-3857000D01*
X1595000Y-4061000D02*
X1595000Y-4161000D01*
X1545000Y-4111000D02*
X1645000Y-4111000D01*
X1595000Y-4315000D02*
X1595000Y-4415000D01*
X1545000Y-4365000D02*
X1645000Y-4365000D01*
X1595000Y-4569000D02*
X1595000Y-4669000D01*
X1545000Y-4619000D02*
X1645000Y-4619000D01*
X1595000Y-4823000D02*
X1595000Y-4923000D01*
X1545000Y-4873000D02*
X1645000Y-4873000D01*
X1595000Y-5077000D02*
X1595000Y-5177000D01*
X1545000Y-5127000D02*
X1645000Y-5127000D01*
X1595000Y-5331000D02*
X1595000Y-5431000D01*
X1545000Y-5381000D02*
X1645000Y-5381000D01*
X1595000Y-5585000D02*
X1595000Y-5685000D01*
X1545000Y-5635000D02*
X1645000Y-5635000D01*
X1595000Y-5839000D02*
X1595000Y-5939000D01*
X1545000Y-5889000D02*
X1645000Y-5889000D01*
X1595000Y-6093000D02*
X1595000Y-6193000D01*
X1545000Y-6143000D02*
X1645000Y-6143000D01*
X1595000Y-6347000D02*
X1595000Y-6447000D01*
X1545000Y-6397000D02*
X1645000Y-6397000D01*
X1595000Y-6601000D02*
X1595000Y-6701000D01*
X1545000Y-6651000D02*
X1645000Y-6651000D01*
X1595000Y-6855000D02*
X1595000Y-6955000D01*
X1545000Y-6905000D02*
X1645000Y-6905000D01*
X1595000Y-7109000D02*
X1595000Y-7209000D01*
X1545000Y-7159000D02*
X1645000Y-7159000D01*
X1595000Y-7363000D02*
X1595000Y-7463000D01*
X1545000Y-7413000D02*
X1645000Y-7413000D01*
X1595000Y-7617000D02*
X1595000Y-7717000D01*
X1545000Y-7667000D02*
X1645000Y-7667000D01*
X1595000Y-7871000D02*
X1595000Y-7971000D01*
X1545000Y-7921000D02*
X1645000Y-7921000D01*
X1849000Y-505000D02*
X1849000Y-605000D01*
X1799000Y-555000D02*
X1899000Y-555000D01*
X1849000Y-759000D02*
X1849000Y-859000D01*
X1799000Y-809000D02*
X1899000Y-809000D01*
X1849000Y-1013000D02*
X1849000Y-1113000D01*
X1799000Y-1063000D02*
X1899000Y-1063000D01*
X1849000Y-1267000D02*
X1849000Y-1367000D01*
X1799000Y-1317000D02*
X1899000Y-1317000D01*
X1849000Y-1521000D02*
X1849000Y-1621000D01*
X1799000Y-1571000D02*
X1899000Y-1571000D01*
X1849000Y-1775000D02*
X1849000Y-1875000D01*
X1799000Y-1825000D02*
X1899000Y-1825000D01*
X1849000Y-2029000D02*
X1849000Y-2129000D01*
X1799000Y-2079000D02*
X1899000Y-2079000D01*
X1849000Y-2283000D02*
X1849000Y-2383000D01*
X1799000Y-2333000D02*
X1899000Y-2333000D01*
X1849000Y-2537000D02*
X1849000Y-2637000D01*
X1799000Y-2587000D02*
X1899000Y-2587000D01*
X1849000Y-2791000D02*
X1849000Y-2891000D01*
X1799000Y-2841000D02*
X1899000Y-2841000D01*
X1849000Y-3045000D02*
X1849000Y-3145000D01*
X1799000Y-3095000D02*
X1899000Y-3095000D01*
X1849000Y-3299000D02*
X1849000Y-3399000D01*
X1799000Y-3349000D02*
X1899000Y-3349000D01*
X1849000Y-3553000D02*
X1849000Y-3653000D01*
X1799000Y-3603000D02*
X1899000Y-3603000D01*
X1849000Y-3807000D02*
X1849000Y-3907000D01*
X1799000Y-3857000D02*
X1899000Y-3857000D01*
X1849000Y-4061000D02*
X1849000Y-4161000D01*
X1799000Y-4111000D02*
X1899000Y-4111000D01*
X1849000Y-4315000D02*
X1849000Y-4415000D01*
X1799000Y-4365000D02*
X1899000Y-4365000D01*
X1849000Y-4569000D02*
X1849000Y-4669000D01*
X1799000Y-4619000D02*
X1899000Y-4619000D01*
X1849000Y-4823000D02*
X1849000Y-4923000D01*
X1799000Y-4873000D02*
X1899000Y-4873000D01*
X1849000Y-5077000D02*
X1849000Y-5177000D01*
X1799000Y-5127000D02*
X1899000Y-5127000D01*
X1849000Y-5331000D02*
X1849000Y-5431000D01*
X1799000Y-5381000D02*
X1899000Y-5381000D01*
X1849000Y-5585000D02*
X1849000Y-5685000D01*
X1799000Y-5635000D02*
X1899000Y-5635000D01*
X1849000Y-5839000D02*
X1849000Y-5939000D01*
X1799000Y-5889000D02*
X1899000Y-5889000D01*
X1849000Y-6093000D02*
X1849000Y-6193000D01*
X1799000Y-6143000D02*
X1899000Y-6143000D01*
X1849000Y-6347000D02*
X1849000Y-6447000D01*
X1799000Y-6397000D02*
X1899000Y-6397000D01*
X1849000Y-6601000D02*
X1849000Y-6701000D01*
X1799000Y-6651000D02*
X1899000Y-6651000D01*
X1849000Y-6855000D02*
X1849000Y-6955000D01*
X1799000Y-6905000D02*
X1899000Y-6905000D01*
X1849000Y-7109000D02*
X1849000Y-7209000D01*
X1799000Y-7159000D02*
X1899000Y-7159000D01*
X1849000Y-7363000D02*
X1849000Y-7463000D01*
X1799000Y-7413000D02*
X1899000Y-7413000D01*
X1849000Y-7617000D02*
X1849000Y-7717000D01*
X1799000Y-7667000D02*
X1899000Y-7667000D01*
X1849000Y-7871000D02*
X1849000Y-7971000D01*
X1799000Y-7921000D02*
X1899000Y-7921000D01*
X2103000Y-505000D02*
X2103000Y-605000D01*
X2053000Y-555000D02*
X2153000Y-555000D01*
X2103000Y-759000D02*
X2103000Y-859000D01*
X2053000Y-809000D02*
X2153000Y-809000D01*
X2103000Y-1013000D02*
X2103000Y-1113000D01*
X2053000Y-1063000D02*
X2153000Y-1063000D01*
X2103000Y-1267000D02*
X2103000Y-1367000D01*
X2053000Y-1317000D02*
X2153000Y-1317000D01*
X2103000Y-1521000D02*
X2103000Y-1621000D01*
X2053000Y-1571000D02*
X2153000Y-1571000D01*
X2103000Y-1775000D02*
X2103000Y-1875000D01*
X2053000Y-1825000D02*
X2153000Y-1825000D01*
X2103000Y-2029000D02*
X2103000Y-2129000D01*
X2053000Y-2079000D02*
X2153000Y-2079000D01*
X2103000Y-2283000D02*
X2103000Y-2383000D01*
X2053000Y-2333000D02*
X2153000Y-2333000D01*
X2103000Y-2537000D02*
X2103000Y-2637000D01*
X2053000Y-2587000D02*
X2153000Y-2587000D01*
X2103000Y-2791000D02*
X2103000Y-2891000D01*
X2053000Y-2841000D02*
X2153000Y-2841000D01*
X2103000Y-3045000D02*
X2103000Y-3145000D01*
X2053000Y-3095000D02*
X2153000Y-3095000D01*
X2103000Y-3299000D02*
X2103000Y-3399000D01*
X2053000Y-3349000D02*
X2153000Y-3349000D01*
X2103000Y-3553000D02*
X2103000Y-3653000D01*
X2053000Y-3603000D02*
X2153000Y-3603000D01*
X2103000Y-3807000D02*
X2103000Y-3907000D01*
X2053000Y-3857000D02*
X2153000Y-3857000D01*
X2103000Y-4061000D02*
X2103000Y-4161000D01*
X2053000Y-4111000D02*
X2153000Y-4111000D01*
X2103000Y-4315000D02*
X2103000Y-4415000D01*
X2053000Y-4365000D02*
X2153000Y-4365000D01*
X2103000Y-4569000D02*
X2103000Y-4669000D01*
X2053000Y-4619000D02*
X2153000Y-4619000D01*
X2103000Y-4823000D02*
X2103000Y-4923000D01*
X2053000Y-4873000D02*
X2153000Y-4873000D01*
X2103000Y-5077000D02*
X2103000Y-5177000D01*
X2053000Y-5127000D02*
X2153000Y-5127000D01*
X2103000Y-5331000D02*
X2103000Y-5431000D01*
X2053000Y-5381000D02*
X2153000Y-5381000D01*
X2103000Y-5585000D02*
X2103000Y-5685000D01*
X2053000Y-5635000D02*
X2153000Y-5635000D01*
X2103000Y-5839000D02*
X2103000Y-5939000D01*
X2053000Y-5889000D02*
X2153000Y-5889000D01*
X2103000Y-6093000D02*
X2103000Y-6193000D01*
X2053000Y-6143000D02*
X2153000Y-6143000D01*
X2103000Y-6347000D02*
X2103000Y-6447000D01*
X2053000Y-6397000D02*
X2153000Y-6397000D01*
X2103000Y-6601000D02*
X2103000Y-6701000D01*
X2053000Y-6651000D02*
X2153000Y-6651000D01*
X2103000Y-6855000D02*
X2103000Y-6955000D01*
X2053000Y-6905000D02*
X2153000Y-6905000D01*
X2103000Y-7109000D02*
X2103000Y-7209000D01*
X2053000Y-7159000D02*
X2153000Y-7159000D01*
X2103000Y-7363000D02*
X2103000Y-7463000D01*
X2053000Y-7413000D02*
X2153000Y-7413000D01*
X2103000Y-7617000D02*
X2103000Y-7717000D01*
X2053000Y-7667000D02*
X2153000Y-7667000D01*
X2103000Y-7871000D02*
X2103000Y-7971000D01*
X2053000Y-7921000D02*
X2153000Y-7921000D01*
X2357000Y-505000D02*
X2357000Y-605000D01*
X2307000Y-555000D02*
X2407000Y-555000D01*
X2357000Y-759000D02*
X2357000Y-859000D01*
X2307000Y-809000D02*
X2407000Y-809000D01*
X2357000Y-1013000D02*
X2357000Y-1113000D01*
X2307000Y-1063000D02*
X2407000Y-1063000D01*
X2357000Y-1267000D02*
X2357000Y-1367000D01*
X2307000Y-1317000D02*
X2407000Y-1317000D01*
X2357000Y-1521000D02*
X2357000Y-1621000D01*
X2307000Y-1571000D02*
X2407000Y-1571000D01*
X2357000Y-1775000D02*
X2357000Y-1875000D01*
X2307000Y-1825000D02*
X2407000Y-1825000D01*
X2357000Y-2029000D02*
X2357000Y-2129000D01*
X2307000Y-2079000D02*
X2407000Y-2079000D01*
X2357000Y-2283000D02*
X2357000Y-2383000D01*
X2307000Y-2333000D02*
X2407000Y-2333000D01*
X2357000Y-2537000D02*
X2357000Y-2637000D01*
X2307000Y-2587000D02*
X2407000Y-2587000D01*
X2357000Y-2791000D02*
X2357000Y-2891000D01*
X2307000Y-2841000D02*
X2407000Y-2841000D01*
X2357000Y-3045000D02*
X2357000Y-3145000D01*
X2307000Y-3095000D02*
X2407000Y-3095000D01*
X2357000Y-3299000D02*
X2357000Y-3399000D01*
X2307000Y-3349000D02*
X2407000Y-3349000D01*
X2357000Y-3553000D02*
X2357000Y-3653000D01*
X2307000Y-3603000D02*
X2407000Y-3603000D01*
X2357000Y-3807000D02*
X2357000Y-3907000D01*
X2307000Y-3857000D02*
X2407000Y-3857000D01*
X2357000Y-4061000D02*
X2357000Y-4161000D01*
X2307000Y-4111000D02*
X2407000Y-4111000D01*
X2357000Y-4315000D02*
X2357000Y-4415000D01*
X2307000Y-4365000D02*
X2407000Y-4365000D01*
X2357000Y-4569000D02*
X2357000Y-4669000D01*
X2307000Y-4619000D02*
X2407000Y-4619000D01*
X2357000Y-4823000D02*
X2357000Y-4923000D01*
X2307000Y-4873000D02*
X2407000Y-4873000D01*
X2357000Y-5077000D02*
X2357000Y-5177000D01*
X2307000Y-5127000D02*
X2407000Y-5127000D01*
X2357000Y-5331000D02*
X2357000Y-5431000D01*
X2307000Y-5381000D02*
X2407000Y-5381000D01*
X2357000Y-5585000D02*
X2357000Y-5685000D01*
X2307000Y-5635000D02*
X2407000Y-5635000D01*
X2357000Y-5839000D02*
X2357000Y-5939000D01*
X2307000Y-5889000D02*
X2407000Y-5889000D01*
X2357000Y-6093000D02*
X2357000Y-6193000D01*
X2307000Y-6143000D02*
X2407000Y-6143000D01*
X2357000Y-6347000D02*
X2357000Y-6447000D01*
X2307000Y-6397000D02*
X2407000Y-6397000D01*
X2357000Y-6601000D02*
X2357000Y-6701000D01*
X2307000Y-6651000D02*
X2407000Y-6651000D01*
X2357000Y-6855000D02*
X2357000Y-6955000D01*
X2307000Y-6905000D02*
X2407000Y-6905000D01*
X2357000Y-7109000D02*
X2357000Y-7209000D01*
X2307000Y-7159000D02*
X2407000Y-7159000D01*
X2357000Y-7363000D02*
X2357000Y-7463000D01*
X2307000Y-7413000D02*
X2407000Y-7413000D01*
X2357000Y-7617000D02*
X2357000Y-7717000D01*
X2307000Y-7667000D02*
X2407000Y-7667000D01*
X2357000Y-7871000D02*
X2357000Y-7971000D01*
X2307000Y-7921000D02*
X2407000Y-7921000D01*
X2611000Y-505000D02*
X2611000Y-605000D01*
X2561000Y-555000D02*
X2661000Y-555000D01*
X2611000Y-759000D02*
X2611000Y-859000D01*
X2561000Y-809000D02*
X2661000Y-809000D01*
X2611000Y-1013000D02*
X2611000Y-1113000D01*
X2561000Y-1063000D02*
X2661000Y-1063000D01*
X2611000Y-1267000D02*
X2611000Y-1367000D01*
X2561000Y-1317000D02*
X2661000Y-1317000D01*
X2611000Y-1521000D02*
X2611000Y-1621000D01*
X2561000Y-1571000D02*
X2661000Y-1571000D01*
X2611000Y-1775000D02*
X2611000Y-1875000D01*
X2561000Y-1825000D02*
X2661000Y-1825000D01*
X2611000Y-2029000D02*
X2611000Y-2129000D01*
X2561000Y-2079000D02*
X2661000Y-2079000D01*
X2611000Y-2283000D02*
X2611000Y-2383000D01*
X2561000Y-2333000D02*
X2661000Y-2333000D01*
X2611000Y-2537000D02*
X2611000Y-2637000D01*
X2561000Y-2587000D02*
X2661000Y-2587000D01*
X2611000Y-2791000D02*
X2611000Y-2891000D01*
X2561000Y-2841000D02*
X2661000Y-2841000D01*
X2611000Y-3045000D02*
X2611000Y-3145000D01*
X2561000Y-3095000D02*
X2661000Y-3095000D01*
X2611000Y-3299000D02*
X2611000Y-3399000D01*
X2561000Y-3349000D02*
X2661000Y-3349000D01*
X2611000Y-3553000D02*
X2611000Y-3653000D01*
X2561000Y-3603000D02*
X2661000Y-3603000D01*
X2611000Y-3807000D02*
X2611000Y-3907000D01*
X2561000Y-3857000D02*
X2661000Y-3857000D01*
X2611000Y-4061000D02*
X2611000Y-4161000D01*
X2561000Y-4111000D02*
X2661000Y-4111000D01*
X2611000Y-4315000D02*
X2611000Y-4415000D01*
X2561000Y-4365000D02*
X2661000Y-4365000D01*
X2611000Y-4569000D02*
X2611000Y-4669000D01*
X2561000Y-4619000D02*
X2661000Y-4619000D01*
X2611000Y-4823000D02*
X2611000Y-4923000D01*
X2561000Y-4873000D02*
X2661000Y-4873000D01*
X2611000Y-5077000D02*
X2611000Y-5177000D01*
X2561000Y-5127000D02*
X2661000Y-5127000D01*
X2611000Y-5331000D02*
X2611000Y-5431000D01*
X2561000Y-5381000D02*
X2661000Y-5381000D01*
X2611000Y-5585000D02*
X2611000Y-5685000D01*
X2561000Y-5635000D02*
X2661000Y-5635000D01*
X2611000Y-5839000D02*
X2611000Y-5939000D01*
X2561000Y-5889000D02*
X2661000Y-5889000D01*
X2611000Y-6093000D02*
X2611000Y-6193000D01*
X2561000Y-6143000D02*
X2661000Y-6143000D01*
X2611000Y-6347000D02*
X2611000Y-6447000D01*
X2561000Y-6397000D02*
X2661000Y-6397000D01*
X2611000Y-6601000D02*
X2611000Y-6701000D01*
X2561000Y-6651000D02*
X2661000Y-6651000D01*
X2611000Y-6855000D02*
X2611000Y-6955000D01*
X2561000Y-6905000D02*
X2661000Y-6905000D01*
X2611000Y-7109000D02*
X2611000Y-7209000D01*
X2561000Y-7159000D02*
X2661000Y-7159000D01*
X2611000Y-7363000D02*
X2611000Y-7463000D01*
X2561000Y-7413000D02*
X2661000Y-7413000D01*
X2611000Y-7617000D02*
X2611000Y-7717000D01*
X2561000Y-7667000D02*
X2661000Y-7667000D01*
X2611000Y-7871000D02*
X2611000Y-7971000D01*
X2561000Y-7921000D02*
X2661000Y-7921000D01*
X2865000Y-505000D02*
X2865000Y-605000D01*
X2815000Y-555000D02*
X2915000Y-555000D01*
X2865000Y-759000D02*
X2865000Y-859000D01*
X2815000Y-809000D02*
X2915000Y-809000D01*
X2865000Y-1013000D02*
X2865000Y-1113000D01*
X2815000Y-1063000D02*
X2915000Y-1063000D01*
X2865000Y-1267000D02*
X2865000Y-1367000D01*
X2815000Y-1317000D02*
X2915000Y-1317000D01*
X2865000Y-1521000D02*
X2865000Y-1621000D01*
X2815000Y-1571000D02*
X2915000Y-1571000D01*
X2865000Y-1775000D02*
X2865000Y-1875000D01*
X2815000Y-1825000D02*
X2915000Y-1825000D01*
X2865000Y-2029000D02*
X2865000Y-2129000D01*
X2815000Y-2079000D02*
X2915000Y-2079000D01*
X2865000Y-2283000D02*
X2865000Y-2383000D01*
X2815000Y-2333000D02*
X2915000Y-2333000D01*
X2865000Y-2537000D02*
X2865000Y-2637000D01*
X2815000Y-2587000D02*
X2915000Y-2587000D01*
X2865000Y-2791000D02*
X2865000Y-2891000D01*
X2815000Y-2841000D02*
X2915000Y-2841000D01*
X2865000Y-3045000D02*
X2865000Y-3145000D01*
X2815000Y-3095000D02*
X2915000Y-3095000D01*
X2865000Y-3299000D02*
X2865000Y-3399000D01*
X2815000Y-3349000D02*
X2915000Y-3349000D01*
X2865000Y-3553000D02*
X2865000Y-3653000D01*
X2815000Y-3603000D02*
X2915000Y-3603000D01*
X2865000Y-3807000D02*
X2865000Y-3907000D01*
X2815000Y-3857000D02*
X2915000Y-3857000D01*
X2865000Y-4061000D02*
X2865000Y-4161000D01*
X2815000Y-4111000D02*
X2915000Y-4111000D01*
X2865000Y-4315000D02*
X2865000Y-4415000D01*
X2815000Y-4365000D02*
X2915000Y-4365000D01*
X2865000Y-4569000D02*
X2865000Y-4669000D01*
X2815000Y-4619000D02*
X2915000Y-4619000D01*
X2865000Y-4823000D02*
X2865000Y-4923000D01*
X2815000Y-4873000D02*
X2915000Y-4873000D01*
X2865000Y-5077000D02*
X2865000Y-5177000D01*
X2815000Y-5127000D02*
X2915000Y-5127000D01*
X2865000Y-5331000D02*
X2865000Y-5431000D01*
X2815000Y-5381000D02*
X2915000Y-5381000D01*
X2865000Y-5585000D02*
X2865000Y-5685000D01*
X2815000Y-5635000D02*
X2915000Y-5635000D01*
X2865000Y-5839000D02*
X2865000Y-5939000D01*
X2815000Y-5889000D02*
X2915000Y-5889000D01*
X2865000Y-6093000D02*
X2865000Y-6193000D01*
X2815000Y-6143000D02*
X2915000Y-6143000D01*
X2865000Y-6347000D02*
X2865000Y-6447000D01*
X2815000Y-6397000D02*
X2915000Y-6397000D01*
X2865000Y-6601000D02*
X2865000Y-6701000D01*
X2815000Y-6651000D02*
X2915000Y-6651000D01*
X2865000Y-6855000D02*
X2865000Y-6955000D01*
X2815000Y-6905000D02*
X2915000Y-6905000D01*
X2865000Y-7109000D02*
X2865000Y-7209000D01*
X2815000Y-7159000D02*
X2915000Y-7159000D01*
X2865000Y-7363000D02*
X2865000Y-7463000D01*
X2815000Y-7413000D02*
X2915000Y-7413000D01*
X2865000Y-7617000D02*
X2865000Y-7717000D01*
X2815000Y-7667000D02*
X2915000Y-7667000D01*
X2865000Y-7871000D02*
X2865000Y-7971000D01*
X2815000Y-7921000D02*
X2915000Y-7921000D01*
X3119000Y-505000D02*
X3119000Y-605000D01*
X3069000Y-555000D02*
X3169000Y-555000D01*
X3119000Y-759000D02*
X3119000Y-859000D01*
X3069000Y-809000D02*
X3169000Y-809000D01*
X3119000Y-1013000D02*
X3119000Y-1113000D01*
X3069000Y-1063000D02*
X3169000Y-1063000D01*
X3119000Y-1267000D02*
X3119000Y-1367000D01*
X3069000Y-1317000D02*
X3169000Y-1317000D01*
X3119000Y-1521000D02*
X3119000Y-1621000D01*
X3069000Y-1571000D02*
X3169000Y-1571000D01*
X3119000Y-1775000D02*
X3119000Y-1875000D01*
X3069000Y-1825000D02*
X3169000Y-1825000D01*
X3119000Y-2029000D02*
X3119000Y-2129000D01*
X3069000Y-2079000D02*
X3169000Y-2079000D01*
X3119000Y-2283000D02*
X3119000Y-2383000D01*
X3069000Y-2333000D02*
X3169000Y-2333000D01*
X3119000Y-2537000D02*
X3119000Y-2637000D01*
X3069000Y-2587000D02*
X3169000Y-2587000D01*
X3119000Y-2791000D02*
X3119000Y-2891000D01*
X3069000Y-2841000D02*
X3169000Y-2841000D01*
X3119000Y-3045000D02*
X3119000Y-3145000D01*
X3069000Y-3095000D02*
X3169000Y-3095000D01*
X3119000Y-3299000D02*
X3119000Y-3399000D01*
X3069000Y-3349000D02*
X3169000Y-3349000D01*
X3119000Y-3553000D02*
X3119000Y-3653000D01*
X3069000Y-3603000D02*
X3169000Y-3603000D01*
X3119000Y-3807000D02*
X3119000Y-3907000D01*
X3069000Y-3857000D02*
X3169000Y-3857000D01*
X3119000Y-4061000D02*
X3119000Y-4161000D01*
X3069000Y-4111000D02*
X3169000Y-4111000D01*
X3119000Y-4315000D02*
X3119000Y-4415000D01*
X3069000Y-4365000D02*
X3169000Y-4365000D01*
X3119000Y-4569000D02*
X3119000Y-4669000D01*
X3069000Y-4619000D02*
X3169000Y-4619000D01*
X3119000Y-4823000D02*
X3119000Y-4923000D01*
X3069000Y-4873000D02*
X3169000Y-4873000D01*
X3119000Y-5077000D02*
X3119000Y-5177000D01*
X3069000Y-5127000D02*
X3169000Y-5127000D01*
X3119000Y-5331000D02*
X3119000Y-5431000D01*
X3069000Y-5381000D02*
X3169000Y-5381000D01*
X3119000Y-5585000D02*
X3119000Y-5685000D01*
X3069000Y-5635000D02*
X3169000Y-5635000D01*
X3119000Y-5839000D02*
X3119000Y-5939000D01*
X3069000Y-5889000D02*
X3169000Y-5889000D01*
X3119000Y-6093000D02*
X3119000Y-6193000D01*
X3069000Y-6143000D02*
X3169000Y-6143000D01*
X3119000Y-6347000D02*
X3119000Y-6447000D01*
X3069000Y-6397000D02*
X3169000Y-6397000D01*
X3119000Y-6601000D02*
X3119000Y-6701000D01*
X3069000Y-6651000D02*
X3169000Y-6651000D01*
X3119000Y-6855000D02*
X3119000Y-6955000D01*
X3069000Y-6905000D02*
X3169000Y-6905000D01*
X3119000Y-7109000D02*
X3119000Y-7209000D01*
X3069000Y-7159000D02*
X3169000Y-7159000D01*
X3119000Y-7363000D02*
X3119000Y-7463000D01*
X3069000Y-7413000D02*
X3169000Y-7413000D01*
X3119000Y-7617000D02*
X3119000Y-7717000D01*
X3069000Y-7667000D02*
X3169000Y-7667000D01*
X3119000Y-7871000D02*
X3119000Y-7971000D01*
X3069000Y-7921000D02*
X3169000Y-7921000D01*
X3373000Y-505000D02*
X3373000Y-605000D01*
X3323000Y-555000D02*
X3423000Y-555000D01*
X3373000Y-759000D02*
X3373000Y-859000D01*
X3323000Y-809000D02*
X3423000Y-809000D01*
X3373000Y-1013000D02*
X3373000Y-1113000D01*
X3323000Y-1063000D02*
X3423000Y-1063000D01*
X3373000Y-1267000D02*
X3373000Y-1367000D01*
X3323000Y-1317000D02*
X3423000Y-1317000D01*
X3373000Y-1521000D02*
X3373000Y-1621000D01*
X3323000Y-1571000D02*
X3423000Y-1571000D01*
X3373000Y-1775000D02*
X3373000Y-1875000D01*
X3323000Y-1825000D02*
X3423000Y-1825000D01*
X3373000Y-2029000D02*
X3373000Y-2129000D01*
X3323000Y-2079000D02*
X3423000Y-2079000D01*
X3373000Y-2283000D02*
X3373000Y-2383000D01*
X3323000Y-2333000D02*
X3423000Y-2333000D01*
X3373000Y-2537000D02*
X3373000Y-2637000D01*
X3323000Y-2587000D02*
X3423000Y-2587000D01*
X3373000Y-2791000D02*
X3373000Y-2891000D01*
X3323000Y-2841000D02*
X3423000Y-2841000D01*
X3373000Y-3045000D02*
X3373000Y-3145000D01*
X3323000Y-3095000D02*
X3423000Y-3095000D01*
X3373000Y-3299000D02*
X3373000Y-3399000D01*
X3323000Y-3349000D02*
X3423000Y-3349000D01*
X3373000Y-3553000D02*
X3373000Y-3653000D01*
X3323000Y-3603000D02*
X3423000Y-3603000D01*
X3373000Y-3807000D02*
X3373000Y-3907000D01*
X3323000Y-3857000D02*
X3423000Y-3857000D01*
X3373000Y-4061000D02*
X3373000Y-4161000D01*
X3323000Y-4111000D02*
X3423000Y-4111000D01*
X3373000Y-4315000D02*
X3373000Y-4415000D01*
X3323000Y-4365000D02*
X3423000Y-4365000D01*
X3373000Y-4569000D02*
X3373000Y-4669000D01*
X3323000Y-4619000D02*
X3423000Y-4619000D01*
X3373000Y-4823000D02*
X3373000Y-4923000D01*
X3323000Y-4873000D02*
X3423000Y-4873000D01*
X3373000Y-5077000D02*
X3373000Y-5177000D01*
X3323000Y-5127000D02*
X3423000Y-5127000D01*
X3373000Y-5331000D02*
X3373000Y-5431000D01*
X3323000Y-5381000D02*
X3423000Y-5381000D01*
X3373000Y-5585000D02*
X3373000Y-5685000D01*
X3323000Y-5635000D02*
X3423000Y-5635000D01*
X3373000Y-5839000D02*
X3373000Y-5939000D01*
X3323000Y-5889000D02*
X3423000Y-5889000D01*
X3373000Y-6093000D02*
X3373000Y-6193000D01*
X3323000Y-6143000D02*
X3423000Y-6143000D01*
X3373000Y-6347000D02*
X3373000Y-6447000D01*
X3323000Y-6397000D02*
X3423000Y-6397000D01*
X3373000Y-6601000D02*
X3373000Y-6701000D01*
X3323000Y-6651000D02*
X3423000Y-6651000D01*
X3373000Y-6855000D02*
X3373000Y-6955000D01*
X3323000Y-6905000D02*
X3423000Y-6905000D01*
X3373000Y-7109000D02*
X3373000Y-7209000D01*
X3323000Y-7159000D02*
X3423000Y-7159000D01*
X3373000Y-7363000D02*
X3373000Y-7463000D01*
X3323000Y-7413000D02*
X3423000Y-7413000D01*
X3373000Y-7617000D02*
X3373000Y-7717000D01*
X3323000Y-7667000D02*
X3423000Y-7667000D01*
X3373000Y-7871000D02*
X3373000Y-7971000D01*
X3323000Y-7921000D02*
X3423000Y-7921000D01*
X3627000Y-505000D02*
X3627000Y-605000D01*
X3577000Y-555000D02*
X3677000Y-555000D01*
X3627000Y-759000D02*
X3627000Y-859000D01*
X3577000Y-809000D02*
X3677000Y-809000D01*
X3627000Y-1013000D02*
X3627000Y-1113000D01*
X3577000Y-1063000D02*
X3677000Y-1063000D01*
X3627000Y-1267000D02*
X3627000Y-1367000D01*
X3577000Y-1317000D02*
X3677000Y-1317000D01*
X3627000Y-1521000D02*
X3627000Y-1621000D01*
X3577000Y-1571000D02*
X3677000Y-1571000D01*
X3627000Y-1775000D02*
X3627000Y-1875000D01*
X3577000Y-1825000D02*
X3677000Y-1825000D01*
X3627000Y-2029000D02*
X3627000Y-2129000D01*
X3577000Y-2079000D02*
X3677000Y-2079000D01*
X3627000Y-2283000D02*
X3627000Y-2383000D01*
X3577000Y-2333000D02*
X3677000Y-2333000D01*
X3627000Y-2537000D02*
X3627000Y-2637000D01*
X3577000Y-2587000D02*
X3677000Y-2587000D01*
X3627000Y-2791000D02*
X3627000Y-2891000D01*
X3577000Y-2841000D02*
X3677000Y-2841000D01*
X3627000Y-3045000D02*
X3627000Y-3145000D01*
X3577000Y-3095000D02*
X3677000Y-3095000D01*
X3627000Y-3299000D02*
X3627000Y-3399000D01*
X3577000Y-3349000D02*
X3677000Y-3349000D01*
X3627000Y-3553000D02*
X3627000Y-3653000D01*
X3577000Y-3603000D02*
X3677000Y-3603000D01*
X3627000Y-3807000D02*
X3627000Y-3907000D01*
X3577000Y-3857000D02*
X3677000Y-3857000D01*
X3627000Y-4061000D02*
X3627000Y-4161000D01*
X3577000Y-4111000D02*
X3677000Y-4111000D01*
X3627000Y-4315000D02*
X3627000Y-4415000D01*
X3577000Y-4365000D02*
X3677000Y-4365000D01*
X3627000Y-4569000D02*
X3627000Y-4669000D01*
X3577000Y-4619000D02*
X3677000Y-4619000D01*
X3627000Y-4823000D02*
X3627000Y-4923000D01*
X3577000Y-4873000D02*
X3677000Y-4873000D01*
X3627000Y-5077000D02*
X3627000Y-5177000D01*
X3577000Y-5127000D02*
X3677000Y-5127000D01*
X3627000Y-5331000D02*
X3627000Y-5431000D01*
X3577000Y-5381000D02*
X3677000Y-5381000D01*
X3627000Y-5585000D02*
X3627000Y-5685000D01*
X3577000Y-5635000D02*
X3677000Y-5635000D01*
X3627000Y-5839000D02*
X3627000Y-5939000D01*
X3577000Y-5889000D02*
X3677000Y-5889000D01*
X3627000Y-6093000D02*
X3627000Y-6193000D01*
X3577000Y-6143000D02*
X3677000Y-6143000D01*
X3627000Y-6347000D02*
X3627000Y-6447000D01*
X3577000Y-6397000D02*
X3677000Y-6397000D01*
X3627000Y-6601000D02*
X3627000Y-6701000D01*
X3577000Y-6651000D02*
X3677000Y-6651000D01*
X3627000Y-6855000D02*
X3627000Y-6955000D01*
X3577000Y-6905000D02*
X3677000Y-6905000D01*
X3627000Y-7109000D02*
X3627000Y-7209000D01*
X3577000Y-7159000D02*
X3677000Y-7159000D01*
X3627000Y-7363000D02*
X3627000Y-7463000D01*
X3577000Y-7413000D02*
X3677000Y-7413000D01*
X3627000Y-7617000D02*
X3627000Y-7717000D01*
X3577000Y-7667000D02*
X3677000Y-7667000D01*
X3627000Y-7871000D02*
X3627000Y-7971000D01*
X3577000Y-7921000D02*
X3677000Y-7921000D01*
X3881000Y-505000D02*
X3881000Y-605000D01*
X3831000Y-555000D02*
X3931000Y-555000D01*
X3881000Y-759000D02*
X3881000Y-859000D01*
X3831000Y-809000D02*
X3931000Y-809000D01*
X3881000Y-1013000D02*
X3881000Y-1113000D01*
X3831000Y-1063000D02*
X3931000Y-1063000D01*
X3881000Y-1267000D02*
X3881000Y-1367000D01*
X3831000Y-1317000D02*
X3931000Y-1317000D01*
X3881000Y-1521000D02*
X3881000Y-1621000D01*
X3831000Y-1571000D02*
X3931000Y-1571000D01*
X3881000Y-1775000D02*
X3881000Y-1875000D01*
X3831000Y-1825000D02*
X3931000Y-1825000D01*
X3881000Y-2029000D02*
X3881000Y-2129000D01*
X3831000Y-2079000D02*
X3931000Y-2079000D01*
X3881000Y-2283000D02*
X3881000Y-2383000D01*
X3831000Y-2333000D02*
X3931000Y-2333000D01*
X3881000Y-2537000D02*
X3881000Y-2637000D01*
X3831000Y-2587000D02*
X3931000Y-2587000D01*
X3881000Y-2791000D02*
X3881000Y-2891000D01*
X3831000Y-2841000D02*
X3931000Y-2841000D01*
X3881000Y-3045000D02*
X3881000Y-3145000D01*
X3831000Y-3095000D02*
X3931000Y-3095000D01*
X3881000Y-3299000D02*
X3881000Y-3399000D01*
X3831000Y-3349000D02*
X3931000Y-3349000D01*
X3881000Y-3553000D02*
X3881000Y-3653000D01*
X3831000Y-3603000D02*
X3931000Y-3603000D01*
X3881000Y-3807000D02*
X3881000Y-3907000D01*
X3831000Y-3857000D02*
X3931000Y-3857000D01*
X3881000Y-4061000D02*
X3881000Y-4161000D01*
X3831000Y-4111000D02*
X3931000Y-4111000D01*
X3881000Y-4315000D02*
X3881000Y-4415000D01*
X3831000Y-4365000D02*
X3931000Y-4365000D01*
X3881000Y-4569000D02*
X3881000Y-4669000D01*
X3831000Y-4619000D02*
X3931000Y-4619000D01*
X3881000Y-4823000D02*
X3881000Y-4923000D01*
X3831000Y-4873000D02*
X3931000Y-4873000D01*
X3881000Y-5077000D02*
X3881000Y-5177000D01*
X3831000Y-5127000D02*
X3931000Y-5127000D01*
X3881000Y-5331000D02*
X3881000Y-5431000D01*
X3831000Y-5381000D02*
X3931000Y-5381000D01*
X3881000Y-5585000D02*
X3881000Y-5685000D01*
X3831000Y-5635000D02*
X3931000Y-5635000D01*
X3881000Y-5839000D02*
X3881000Y-5939000D01*
X3831000Y-5889000D02*
X3931000Y-5889000D01*
X3881000Y-6093000D02*
X3881000Y-6193000D01*
X3831000Y-6143000D02*
X3931000Y-6143000D01*
X3881000Y-6347000D02*
X3881000Y-6447000D01*
X3831000Y-6397000D02*
X3931000Y-6397000D01*
X3881000Y-6601000D02*
X3881000Y-6701000D01*
X3831000Y-6651000D02*
X3931000Y-6651000D01*
X3881000Y-6855000D02*
X3881000Y-6955000D01*
X3831000Y-6905000D02*
X3931000Y-6905000D01*
X3881000Y-7109000D02*
X3881000Y-7209000D01*
X3831000Y-7159000D02*
X3931000Y-7159000D01*
X3881000Y-7363000D02*
X3881000Y-7463000D01*
X3831000Y-7413000D02*
X3931000Y-7413000D01*
X3881000Y-7617000D02*
X3881000Y-7717000D01*
X3831000Y-7667000D02*
X3931000Y-7667000D01*
X3881000Y-7871000D02*
X3881000Y-7971000D01*
X3831000Y-7921000D02*
X3931000Y-7921000D01*
X4135000Y-505000D02*
X4135000Y-605000D01*
X4085000Y-555000D02*
X4185000Y-555000D01*
X4135000Y-759000D02*
X4135000Y-859000D01*
X4085000Y-809000D02*
X4185000Y-809000D01*
X4135000Y-1013000D02*
X4135000Y-1113000D01*
X4085000Y-1063000D02*
X4185000Y-1063000D01*
X4135000Y-1267000D02*
X4135000Y-1367000D01*
X4085000Y-1317000D02*
X4185000Y-1317000D01*
X4135000Y-1521000D02*
X4135000Y-1621000D01*
X4085000Y-1571000D02*
X4185000Y-1571000D01*
X4135000Y-1775000D02*
X4135000Y-1875000D01*
X4085000Y-1825000D02*
X4185000Y-1825000D01*
X4135000Y-2029000D02*
X4135000Y-2129000D01*
X4085000Y-2079000D02*
X4185000Y-2079000D01*
X4135000Y-2283000D02*
X4135000Y-2383000D01*
X4085000Y-2333000D02*
X4185000Y-2333000D01*
X4135000Y-2537000D02*
X4135000Y-2637000D01*
X4085000Y-2587000D02*
X4185000Y-2587000D01*
X4135000Y-2791000D02*
X4135000Y-2891000D01*
X4085000Y-2841000D02*
X4185000Y-2841000D01*
X4135000Y-3045000D02*
X4135000Y-3145000D01*
X4085000Y-3095000D02*
X4185000Y-3095000D01*
X4135000Y-3299000D02*
X4135000Y-3399000D01*
X4085000Y-3349000D02*
X4185000Y-3349000D01*
X4135000Y-3553000D02*
X4135000Y-3653000D01*
X4085000Y-3603000D02*
X4185000Y-3603000D01*
X4135000Y-3807000D02*
X4135000Y-3907000D01*
X4085000Y-3857000D02*
X4185000Y-3857000D01*
X4135000Y-4061000D02*
X4135000Y-4161000D01*
X4085000Y-4111000D02*
X4185000Y-4111000D01*
X4135000Y-4315000D02*
X4135000Y-4415000D01*
X4085000Y-4365000D02*
X4185000Y-4365000D01*
X4135000Y-4569000D02*
X4135000Y-4669000D01*
X4085000Y-4619000D02*
X4185000Y-4619000D01*
X4135000Y-4823000D02*
X4135000Y-4923000D01*
X4085000Y-4873000D02*
X4185000Y-4873000D01*
X4135000Y-5077000D02*
X4135000Y-5177000D01*
X4085000Y-5127000D02*
X4185000Y-5127000D01*
X4135000Y-5331000D02*
X4135000Y-5431000D01*
X4085000Y-5381000D02*
X4185000Y-5381000D01*
X4135000Y-5585000D02*
X4135000Y-5685000D01*
X4085000Y-5635000D02*
X4185000Y-5635000D01*
X4135000Y-5839000D02*
X4135000Y-5939000D01*
X4085000Y-5889000D02*
X4185000Y-5889000D01*
X4135000Y-6093000D02*
X4135000Y-6193000D01*
X4085000Y-6143000D02*
X4185000Y-6143000D01*
X4135000Y-6347000D02*
X4135000Y-6447000D01*
X4085000Y-6397000D02*
X4185000Y-6397000D01*
X4135000Y-6601000D02*
X4135000Y-6701000D01*
X4085000Y-6651000D02*
X4185000Y-6651000D01*
X4135000Y-6855000D02*
X4135000Y-6955000D01*
X4085000Y-6905000D02*
X4185000Y-6905000D01*
X4135000Y-7109000D02*
X4135000Y-7209000D01*
X4085000Y-7159000D02*
X4185000Y-7159000D01*
X4135000Y-7363000D02*
X4135000Y-7463000D01*
X4085000Y-7413000D02*
X4185000Y-7413000D01*
X4135000Y-7617000D02*
X4135000Y-7717000D01*
X4085000Y-7667000D02*
X4185000Y-7667000D01*
X4135000Y-7871000D02*
X4135000Y-7971000D01*
X4085000Y-7921000D02*
X4185000Y-7921000D01*
X4389000Y-505000D02*
X4389000Y-605000D01*
X4339000Y-555000D02*
X4439000Y-555000D01*
X4389000Y-759000D02*
X4389000Y-859000D01*
X4339000Y-809000D02*
X4439000Y-809000D01*
X4389000Y-1013000D02*
X4389000Y-1113000D01*
X4339000Y-1063000D02*
X4439000Y-1063000D01*
X4389000Y-1267000D02*
X4389000Y-1367000D01*
X4339000Y-1317000D02*
X4439000Y-1317000D01*
X4389000Y-1521000D02*
X4389000Y-1621000D01*
X4339000Y-1571000D02*
X4439000Y-1571000D01*
X4389000Y-1775000D02*
X4389000Y-1875000D01*
X4339000Y-1825000D02*
X4439000Y-1825000D01*
X4389000Y-2029000D02*
X4389000Y-2129000D01*
X4339000Y-2079000D02*
X4439000Y-2079000D01*
X4389000Y-2283000D02*
X4389000Y-2383000D01*
X4339000Y-2333000D02*
X4439000Y-2333000D01*
X4389000Y-2537000D02*
X4389000Y-2637000D01*
X4339000Y-2587000D02*
X4439000Y-2587000D01*
X4389000Y-2791000D02*
X4389000Y-2891000D01*
X4339000Y-2841000D02*
X4439000Y-2841000D01*
X4389000Y-3045000D02*
X4389000Y-3145000D01*
X4339000Y-3095000D02*
X4439000Y-3095000D01*
X4389000Y-3299000D02*
X4389000Y-3399000D01*
X4339000Y-3349000D02*
X4439000Y-3349000D01*
X4389000Y-3553000D02*
X4389000Y-3653000D01*
X4339000Y-3603000D02*
X4439000Y-3603000D01*
X4389000Y-3807000D02*
X4389000Y-3907000D01*
X4339000Y-3857000D02*
X4439000Y-3857000D01*
X4389000Y-4061000D02*
X4389000Y-4161000D01*
X4339000Y-4111000D02*
X4439000Y-4111000D01*
X4389000Y-4315000D02*
X4389000Y-4415000D01*
X4339000Y-4365000D02*
X4439000Y-4365000D01*
X4389000Y-4569000D02*
X4389000Y-4669000D01*
X4339000Y-4619000D02*
X4439000Y-4619000D01*
X4389000Y-4823000D02*
X4389000Y-4923000D01*
X4339000Y-4873000D02*
X4439000Y-4873000D01*
X4389000Y-5077000D02*
X4389000Y-5177000D01*
X4339000Y-5127000D02*
X4439000Y-5127000D01*
X4389000Y-5331000D02*
X4389000Y-5431000D01*
X4339000Y-5381000D02*
X4439000Y-5381000D01*
X4389000Y-5585000D02*
X4389000Y-5685000D01*
X4339000Y-5635000D02*
X4439000Y-5635000D01*
X4389000Y-5839000D02*
X4389000Y-5939000D01*
X4339000Y-5889000D02*
X4439000Y-5889000D01*
X4389000Y-6093000D02*
X4389000Y-6193000D01*
X4339000Y-6143000D02*
X4439000Y-6143000D01*
X4389000Y-6347000D02*
X4389000Y-6447000D01*
X4339000Y-6397000D02*
X4439000Y-6397000D01*
X4389000Y-6601000D02*
X4389000Y-6701000D01*
X4339000Y-6651000D02*
X4439000Y-6651000D01*
X4389000Y-6855000D02*
X4389000Y-6955000D01*
X4339000Y-6905000D02*
X4439000Y-6905000D01*
X4389000Y-7109000D02*
X4389000Y-7209000D01*
X4339000Y-7159000D02*
X4439000Y-7159000D01*
X4389000Y-7363000D02*
X4389000Y-7463000D01*
X4339000Y-7413000D02*
X4439000Y-7413000D01*
X4389000Y-7617000D02*
X4389000Y-7717000D01*
X4339000Y-7667000D02*
X4439000Y-7667000D01*
X4389000Y-7871000D02*
X4389000Y-7971000D01*
X4339000Y-7921000D02*
X4439000Y-7921000D01*
X4643000Y-505000D02*
X4643000Y-605000D01*
X4593000Y-555000D02*
X4693000Y-555000D01*
X4643000Y-759000D02*
X4643000Y-859000D01*
X4593000Y-809000D02*
X4693000Y-809000D01*
X4643000Y-1013000D02*
X4643000Y-1113000D01*
X4593000Y-1063000D02*
X4693000Y-1063000D01*
X4643000Y-1267000D02*
X4643000Y-1367000D01*
X4593000Y-1317000D02*
X4693000Y-1317000D01*
X4643000Y-1521000D02*
X4643000Y-1621000D01*
X4593000Y-1571000D02*
X4693000Y-1571000D01*
X4643000Y-1775000D02*
X4643000Y-1875000D01*
X4593000Y-1825000D02*
X4693000Y-1825000D01*
X4643000Y-2029000D02*
X4643000Y-2129000D01*
X4593000Y-2079000D02*
X4693000Y-2079000D01*
X4643000Y-2283000D02*
X4643000Y-2383000D01*
X4593000Y-2333000D02*
X4693000Y-2333000D01*
X4643000Y-2537000D02*
X4643000Y-2637000D01*
X4593000Y-2587000D02*
X4693000Y-2587000D01*
X4643000Y-2791000D02*
X4643000Y-2891000D01*
X4593000Y-2841000D02*
X4693000Y-2841000D01*
X4643000Y-3045000D02*
X4643000Y-3145000D01*
X4593000Y-3095000D02*
X4693000Y-3095000D01*
X4643000Y-3299000D02*
X4643000Y-3399000D01*
X4593000Y-3349000D02*
X4693000Y-3349000D01*
X4643000Y-3553000D02*
X4643000Y-3653000D01*
X4593000Y-3603000D02*
X4693000Y-3603000D01*
X4643000Y-3807000D02*
X4643000Y-3907000D01*
X4593000Y-3857000D02*
X4693000Y-3857000D01*
X4643000Y-4061000D02*
X4643000Y-4161000D01*
X4593000Y-4111000D02*
X4693000Y-4111000D01*
X4643000Y-4315000D02*
X4643000Y-4415000D01*
X4593000Y-4365000D02*
X4693000Y-4365000D01*
X4643000Y-4569000D02*
X4643000Y-4669000D01*
X4593000Y-4619000D02*
X4693000Y-4619000D01*
X4643000Y-4823000D02*
X4643000Y-4923000D01*
X4593000Y-4873000D02*
X4693000Y-4873000D01*
X4643000Y-5077000D02*
X4643000Y-5177000D01*
X4593000Y-5127000D02*
X4693000Y-5127000D01*
X4643000Y-5331000D02*
X4643000Y-5431000D01*
X4593000Y-5381000D02*
X4693000Y-5381000D01*
X4643000Y-5585000D02*
X4643000Y-5685000D01*
X4593000Y-5635000D02*
X4693000Y-5635000D01*
X4643000Y-5839000D02*
X4643000Y-5939000D01*
X4593000Y-5889000D02*
X4693000Y-5889000D01*
X4643000Y-6093000D02*
X4643000Y-6193000D01*
X4593000Y-6143000D02*
X4693000Y-6143000D01*
X4643000Y-6347000D02*
X4643000Y-6447000D01*
X4593000Y-6397000D02*
X4693000Y-6397000D01*
X4643000Y-6601000D02*
X4643000Y-6701000D01*
X4593000Y-6651000D02*
X4693000Y-6651000D01*
X4643000Y-6855000D02*
X4643000Y-6955000D01*
X4593000Y-6905000D02*
X4693000Y-6905000D01*
X4643000Y-7109000D02*
X4643000Y-7209000D01*
X4593000Y-7159000D02*
X4693000Y-7159000D01*
X4643000Y-7363000D02*
X4643000Y-7463000D01*
X4593000Y-7413000D02*
X4693000Y-7413000D01*
X4643000Y-7617000D02*
X4643000Y-7717000D01*
X4593000Y-7667000D02*
X4693000Y-7667000D01*
X4643000Y-7871000D02*
X4643000Y-7971000D01*
X4593000Y-7921000D02*
X4693000Y-7921000D01*
X4897000Y-505000D02*
X4897000Y-605000D01*
X4847000Y-555000D02*
X4947000Y-555000D01*
X4897000Y-759000D02*
X4897000Y-859000D01*
X4847000Y-809000D02*
X4947000Y-809000D01*
X4897000Y-1013000D02*
X4897000Y-1113000D01*
X4847000Y-1063000D02*
X4947000Y-1063000D01*
X4897000Y-1267000D02*
X4897000Y-1367000D01*
X4847000Y-1317000D02*
X4947000Y-1317000D01*
X4897000Y-1521000D02*
X4897000Y-1621000D01*
X4847000Y-1571000D02*
X4947000Y-1571000D01*
X4897000Y-1775000D02*
X4897000Y-1875000D01*
X4847000Y-1825000D02*
X4947000Y-1825000D01*
X4897000Y-2029000D02*
X4897000Y-2129000D01*
X4847000Y-2079000D02*
X4947000Y-2079000D01*
X4897000Y-2283000D02*
X4897000Y-2383000D01*
X4847000Y-2333000D02*
X4947000Y-2333000D01*
X4897000Y-2537000D02*
X4897000Y-2637000D01*
X4847000Y-2587000D02*
X4947000Y-2587000D01*
X4897000Y-2791000D02*
X4897000Y-2891000D01*
X4847000Y-2841000D02*
X4947000Y-2841000D01*
X4897000Y-3045000D02*
X4897000Y-3145000D01*
X4847000Y-3095000D02*
X4947000Y-3095000D01*
X4897000Y-3299000D02*
X4897000Y-3399000D01*
X4847000Y-3349000D02*
X4947000Y-3349000D01*
X4897000Y-3553000D02*
X4897000Y-3653000D01*
X4847000Y-3603000D02*
X4947000Y-3603000D01*
X4897000Y-3807000D02*
X4897000Y-3907000D01*
X4847000Y-3857000D02*
X4947000Y-3857000D01*
X4897000Y-4061000D02*
X4897000Y-4161000D01*
X4847000Y-4111000D02*
X4947000Y-4111000D01*
X4897000Y-4315000D02*
X4897000Y-4415000D01*
X4847000Y-4365000D02*
X4947000Y-4365000D01*
X4897000Y-4569000D02*
X4897000Y-4669000D01*
X4847000Y-4619000D02*
X4947000Y-4619000D01*
X4897000Y-4823000D02*
X4897000Y-4923000D01*
X4847000Y-4873000D02*
X4947000Y-4873000D01*
X4897000Y-5077000D02*
X4897000Y-5177000D01*
X4847000Y-5127000D02*
X4947000Y-5127000D01*
X4897000Y-5331000D02*
X4897000Y-5431000D01*
X4847000Y-5381000D02*
X4947000Y-5381000D01*
X4897000Y-5585000D02*
X4897000Y-5685000D01*
X4847000Y-5635000D02*
X4947000Y-5635000D01*
X4897000Y-5839000D02*
X4897000Y-5939000D01*
X4847000Y-5889000D02*
X4947000Y-5889000D01*
X4897000Y-6093000D02*
X4897000Y-6193000D01*
X4847000Y-6143000D02*
X4947000Y-6143000D01*
X4897000Y-6347000D02*
X4897000Y-6447000D01*
X4847000Y-6397000D02*
X4947000Y-6397000D01*
X4897000Y-6601000D02*
X4897000Y-6701000D01*
X4847000Y-6651000D02*
X4947000Y-6651000D01*
X4897000Y-6855000D02*
X4897000Y-6955000D01*
X4847000Y-6905000D02*
X4947000Y-6905000D01*
X4897000Y-7109000D02*
X4897000Y-7209000D01*
X4847000Y-7159000D02*
X4947000Y-7159000D01*
X4897000Y-7363000D02*
X4897000Y-7463000D01*
X4847000Y-7413000D02*
X4947000Y-7413000D01*
X4897000Y-7617000D02*
X4897000Y-7717000D01*
X4847000Y-7667000D02*
X4947000Y-7667000D01*
X4897000Y-7871000D02*
X4897000Y-7971000D01*
X4847000Y-7921000D02*
X4947000Y-7921000D01*
X5151000Y-505000D02*
X5151000Y-605000D01*
X5101000Y-555000D02*
X5201000Y-555000D01*
X5151000Y-759000D02*
X5151000Y-859000D01*
X5101000Y-809000D02*
X5201000Y-809000D01*
X5151000Y-1013000D02*
X5151000Y-1113000D01*
X5101000Y-1063000D02*
X5201000Y-1063000D01*
X5151000Y-1267000D02*
X5151000Y-1367000D01*
X5101000Y-1317000D02*
X5201000Y-1317000D01*
X5151000Y-1521000D02*
X5151000Y-1621000D01*
X5101000Y-1571000D02*
X5201000Y-1571000D01*
X5151000Y-1775000D02*
X5151000Y-1875000D01*
X5101000Y-1825000D02*
X5201000Y-1825000D01*
X5151000Y-2029000D02*
X5151000Y-2129000D01*
X5101000Y-2079000D02*
X5201000Y-2079000D01*
X5151000Y-2283000D02*
X5151000Y-2383000D01*
X5101000Y-2333000D02*
X5201000Y-2333000D01*
X5151000Y-2537000D02*
X5151000Y-2637000D01*
X5101000Y-2587000D02*
X5201000Y-2587000D01*
X5151000Y-2791000D02*
X5151000Y-2891000D01*
X5101000Y-2841000D02*
X5201000Y-2841000D01*
X5151000Y-3045000D02*
X5151000Y-3145000D01*
X5101000Y-3095000D02*
X5201000Y-3095000D01*
X5151000Y-3299000D02*
X5151000Y-3399000D01*
X5101000Y-3349000D02*
X5201000Y-3349000D01*
X5151000Y-3553000D02*
X5151000Y-3653000D01*
X5101000Y-3603000D02*
X5201000Y-3603000D01*
X5151000Y-3807000D02*
X5151000Y-3907000D01*
X5101000Y-3857000D02*
X5201000Y-3857000D01*
X5151000Y-4061000D02*
X5151000Y-4161000D01*
X5101000Y-4111000D02*
X5201000Y-4111000D01*
X5151000Y-4315000D02*
X5151000Y-4415000D01*
X5101000Y-4365000D02*
X5201000Y-4365000D01*
X5151000Y-4569000D02*
X5151000Y-4669000D01*
X5101000Y-4619000D02*
X5201000Y-4619000D01*
X5151000Y-4823000D02*
X5151000Y-4923000D01*
X5101000Y-4873000D02*
X5201000Y-4873000D01*
X5151000Y-5077000D02*
X5151000Y-5177000D01*
X5101000Y-5127000D02*
X5201000Y-5127000D01*
X5151000Y-5331000D02*
X5151000Y-5431000D01*
X5101000Y-5381000D02*
X5201000Y-5381000D01*
X5151000Y-5585000D02*
X5151000Y-5685000D01*
X5101000Y-5635000D02*
X5201000Y-5635000D01*
X5151000Y-5839000D02*
X5151000Y-5939000D01*
X5101000Y-5889000D02*
X5201000Y-5889000D01*
X5151000Y-6093000D02*
X5151000Y-6193000D01*
X5101000Y-6143000D02*
X5201000Y-6143000D01*
X5151000Y-6347000D02*
X5151000Y-6447000D01*
X5101000Y-6397000D02*
X5201000Y-6397000D01*
X5151000Y-6601000D02*
X5151000Y-6701000D01*
X5101000Y-6651000D02*
X5201000Y-6651000D01*
X5151000Y-6855000D02*
X5151000Y-6955000D01*
X5101000Y-6905000D02*
X5201000Y-6905000D01*
X5151000Y-7109000D02*
X5151000Y-7209000D01*
X5101000Y-7159000D02*
X5201000Y-7159000D01*
X5151000Y-7363000D02*
X5151000Y-7463000D01*
X5101000Y-7413000D02*
X5201000Y-7413000D01*
X5151000Y-7617000D02*
X5151000Y-7717000D01*
X5101000Y-7667000D02*
X5201000Y-7667000D01*
X5151000Y-7871000D02*
X5151000Y-7971000D01*
X5101000Y-7921000D02*
X5201000Y-7921000D01*
X5405000Y-505000D02*
X5405000Y-605000D01*
X5355000Y-555000D02*
X5455000Y-555000D01*
X5405000Y-759000D02*
X5405000Y-859000D01*
X5355000Y-809000D02*
X5455000Y-809000D01*
X5405000Y-1013000D02*
X5405000Y-1113000D01*
X5355000Y-1063000D02*
X5455000Y-1063000D01*
X5405000Y-1267000D02*
X5405000Y-1367000D01*
X5355000Y-1317000D02*
X5455000Y-1317000D01*
X5405000Y-1521000D02*
X5405000Y-1621000D01*
X5355000Y-1571000D02*
X5455000Y-1571000D01*
X5405000Y-1775000D02*
X5405000Y-1875000D01*
X5355000Y-1825000D02*
X5455000Y-1825000D01*
X5405000Y-2029000D02*
X5405000Y-2129000D01*
X5355000Y-2079000D02*
X5455000Y-2079000D01*
X5405000Y-2283000D02*
X5405000Y-2383000D01*
X5355000Y-2333000D02*
X5455000Y-2333000D01*
X5405000Y-2537000D02*
X5405000Y-2637000D01*
X5355000Y-2587000D02*
X5455000Y-2587000D01*
X5405000Y-2791000D02*
X5405000Y-2891000D01*
X5355000Y-2841000D02*
X5455000Y-2841000D01*
X5405000Y-3045000D02*
X5405000Y-3145000D01*
X5355000Y-3095000D02*
X5455000Y-3095000D01*
X5405000Y-3299000D02*
X5405000Y-3399000D01*
X5355000Y-3349000D02*
X5455000Y-3349000D01*
X5405000Y-3553000D02*
X5405000Y-3653000D01*
X5355000Y-3603000D02*
X5455000Y-3603000D01*
X5405000Y-3807000D02*
X5405000Y-3907000D01*
X5355000Y-3857000D02*
X5455000Y-3857000D01*
X5405000Y-4061000D02*
X5405000Y-4161000D01*
X5355000Y-4111000D02*
X5455000Y-4111000D01*
X5405000Y-4315000D02*
X5405000Y-4415000D01*
X5355000Y-4365000D02*
X5455000Y-4365000D01*
X5405000Y-4569000D02*
X5405000Y-4669000D01*
X5355000Y-4619000D02*
X5455000Y-4619000D01*
X5405000Y-4823000D02*
X5405000Y-4923000D01*
X5355000Y-4873000D02*
X5455000Y-4873000D01*
X5405000Y-5077000D02*
X5405000Y-5177000D01*
X5355000Y-5127000D02*
X5455000Y-5127000D01*
X5405000Y-5331000D02*
X5405000Y-5431000D01*
X5355000Y-5381000D02*
X5455000Y-5381000D01*
X5405000Y-5585000D02*
X5405000Y-5685000D01*
X5355000Y-5635000D02*
X5455000Y-5635000D01*
X5405000Y-5839000D02*
X5405000Y-5939000D01*
X5355000Y-5889000D02*
X5455000Y-5889000D01*
X5405000Y-6093000D02*
X5405000Y-6193000D01*
X5355000Y-6143000D02*
X5455000Y-6143000D01*
X5405000Y-6347000D02*
X5405000Y-6447000D01*
X5355000Y-6397000D02*
X5455000Y-6397000D01*
X5405000Y-6601000D02*
X5405000Y-6701000D01*
X5355000Y-6651000D02*
X5455000Y-6651000D01*
X5405000Y-6855000D02*
X5405000Y-6955000D01*
X5355000Y-6905000D02*
X5455000Y-6905000D01*
X5405000Y-7109000D02*
X5405000Y-7209000D01*
X5355000Y-7159000D02*
X5455000Y-7159000D01*
X5405000Y-7363000D02*
X5405000Y-7463000D01*
X5355000Y-7413000D02*
X5455000Y-7413000D01*
X5405000Y-7617000D02*
X5405000Y-7717000D01*
X5355000Y-7667000D02*
X5455000Y-7667000D01*
X5405000Y-7871000D02*
X5405000Y-7971000D01*
X5355000Y-7921000D02*
X5455000Y-7921000D01*
X5659000Y-505000D02*
X5659000Y-605000D01*
X5609000Y-555000D02*
X5709000Y-555000D01*
X5659000Y-759000D02*
X5659000Y-859000D01*
X5609000Y-809000D02*
X5709000Y-809000D01*
X5659000Y-1013000D02*
X5659000Y-1113000D01*
X5609000Y-1063000D02*
X5709000Y-1063000D01*
X5659000Y-1267000D02*
X5659000Y-1367000D01*
X5609000Y-1317000D02*
X5709000Y-1317000D01*
X5659000Y-1521000D02*
X5659000Y-1621000D01*
X5609000Y-1571000D02*
X5709000Y-1571000D01*
X5659000Y-1775000D02*
X5659000Y-1875000D01*
X5609000Y-1825000D02*
X5709000Y-1825000D01*
X5659000Y-2029000D02*
X5659000Y-2129000D01*
X5609000Y-2079000D02*
X5709000Y-2079000D01*
X5659000Y-2283000D02*
X5659000Y-2383000D01*
X5609000Y-2333000D02*
X5709000Y-2333000D01*
X5659000Y-2537000D02*
X5659000Y-2637000D01*
X5609000Y-2587000D02*
X5709000Y-2587000D01*
X5659000Y-2791000D02*
X5659000Y-2891000D01*
X5609000Y-2841000D02*
X5709000Y-2841000D01*
X5659000Y-3045000D02*
X5659000Y-3145000D01*
X5609000Y-3095000D02*
X5709000Y-3095000D01*
X5659000Y-3299000D02*
X5659000Y-3399000D01*
X5609000Y-3349000D02*
X5709000Y-3349000D01*
X5659000Y-3553000D02*
X5659000Y-3653000D01*
X5609000Y-3603000D02*
X5709000Y-3603000D01*
X5659000Y-3807000D02*
X5659000Y-3907000D01*
X5609000Y-3857000D02*
X5709000Y-3857000D01*
X5659000Y-4061000D02*
X5659000Y-4161000D01*
X5609000Y-4111000D02*
X5709000Y-4111000D01*
X5659000Y-4315000D02*
X5659000Y-4415000D01*
X5609000Y-4365000D02*
X5709000Y-4365000D01*
X5659000Y-4569000D02*
X5659000Y-4669000D01*
X5609000Y-4619000D02*
X5709000Y-4619000D01*
X5659000Y-4823000D02*
X5659000Y-4923000D01*
X5609000Y-4873000D02*
X5709000Y-4873000D01*
X5659000Y-5077000D02*
X5659000Y-5177000D01*
X5609000Y-5127000D02*
X5709000Y-5127000D01*
X5659000Y-5331000D02*
X5659000Y-5431000D01*
X5609000Y-5381000D02*
X5709000Y-5381000D01*
X5659000Y-5585000D02*
X5659000Y-5685000D01*
X5609000Y-5635000D02*
X5709000Y-5635000D01*
X5659000Y-5839000D02*
X5659000Y-5939000D01*
X5609000Y-5889000D02*
X5709000Y-5889000D01*
X5659000Y-6093000D02*
X5659000Y-6193000D01*
X5609000Y-6143000D02*
X5709000Y-6143000D01*
X5659000Y-6347000D02*
X5659000Y-6447000D01*
X5609000Y-6397000D02*
X5709000Y-6397000D01*
X5659000Y-6601000D02*
X5659000Y-6701000D01*
X5609000Y-6651000D02*
X5709000Y-6651000D01*
X5659000Y-6855000D02*
X5659000Y-6955000D01*
X5609000Y-6905000D02*
X5709000Y-6905000D01*
X5659000Y-7109000D02*
X5659000Y-7209000D01*
X5609000Y-7159000D02*
X5709000Y-7159000D01*
X5659000Y-7363000D02*
X5659000Y-7463000D01*
X5609000Y-7413000D02*
X5709000Y-7413000D01*
X5659000Y-7617000D02*
X5659000Y-7717000D01*
X5609000Y-7667000D02*
X5709000Y-7667000D01*
X5659000Y-7871000D02*
X5659000Y-7971000D01*
X5609000Y-7921000D02*
X5709000Y-7921000D01*
X5913000Y-505000D02*
X5913000Y-605000D01*
X5863000Y-555000D02*
X5963000Y-555000D01*
X5913000Y-759000D02*
X5913000Y-859000D01*
X5863000Y-809000D02*
X5963000Y-809000D01*
X5913000Y-1013000D02*
X5913000Y-1113000D01*
X5863000Y-1063000D02*
X5963000Y-1063000D01*
X5913000Y-1267000D02*
X5913000Y-1367000D01*
X5863000Y-1317000D02*
X5963000Y-1317000D01*
X5913000Y-1521000D02*
X5913000Y-1621000D01*
X5863000Y-1571000D02*
X5963000Y-1571000D01*
X5913000Y-1775000D02*
X5913000Y-1875000D01*
X5863000Y-1825000D02*
X5963000Y-1825000D01*
X5913000Y-2029000D02*
X5913000Y-2129000D01*
X5863000Y-2079000D02*
X5963000Y-2079000D01*
X5913000Y-2283000D02*
X5913000Y-2383000D01*
X5863000Y-2333000D02*
X5963000Y-2333000D01*
X5913000Y-2537000D02*
X5913000Y-2637000D01*
X5863000Y-2587000D02*
X5963000Y-2587000D01*
X5913000Y-2791000D02*
X5913000Y-2891000D01*
X5863000Y-2841000D02*
X5963000Y-2841000D01*
X5913000Y-3045000D02*
X5913000Y-3145000D01*
X5863000Y-3095000D02*
X5963000Y-3095000D01*
X5913000Y-3299000D02*
X5913000Y-3399000D01*
X5863000Y-3349000D02*
X5963000Y-3349000D01*
X5913000Y-3553000D02*
X5913000Y-3653000D01*
X5863000Y-3603000D02*
X5963000Y-3603000D01*
X5913000Y-3807000D02*
X5913000Y-3907000D01*
X5863000Y-3857000D02*
X5963000Y-3857000D01*
X5913000Y-4061000D02*
X5913000Y-4161000D01*
X5863000Y-4111000D02*
X5963000Y-4111000D01*
X5913000Y-4315000D02*
X5913000Y-4415000D01*
X5863000Y-4365000D02*
X5963000Y-4365000D01*
X5913000Y-4569000D02*
X5913000Y-4669000D01*
X5863000Y-4619000D02*
X5963000Y-4619000D01*
X5913000Y-4823000D02*
X5913000Y-4923000D01*
X5863000Y-4873000D02*
X5963000Y-4873000D01*
X5913000Y-5077000D02*
X5913000Y-5177000D01*
X5863000Y-5127000D02*
X5963000Y-5127000D01*
X5913000Y-5331000D02*
X5913000Y-5431000D01*
X5863000Y-5381000D02*
X5963000Y-5381000D01*
X5913000Y-5585000D02*
X5913000Y-5685000D01*
X5863000Y-5635000D02*
X5963000Y-5635000D01*
X5913000Y-5839000D02*
X5913000Y-5939000D01*
X5863000Y-5889000D02*
X5963000Y-5889000D01*
X5913000Y-6093000D02*
X5913000Y-6193000D01*
X5863000Y-6143000D02*
X5963000Y-6143000D01*
X5913000Y-6347000D02*
X5913000Y-6447000D01*
X5863000Y-6397000D02*
X5963000Y-6397000D01*
X5913000Y-6601000D02*
X5913000Y-6701000D01*
X5863000Y-6651000D02*
X5963000Y-6651000D01*
X5913000Y-6855000D02*
X5913000Y-6955000D01*
X5863000Y-6905000D02*
X5963000Y-6905000D01*
X5913000Y-7109000D02*
X5913000Y-7209000D01*
X5863000Y-7159000D02*
X5963000Y-7159000D01*
X5913000Y-7363000D02*
X5913000Y-7463000D01*
X5863000Y-7413000D02*
X5963000Y-7413000D01*
X5913000Y-7617000D02*
X5913000Y-7717000D01*
X5863000Y-7667000D02*
X5963000Y-7667000D01*
X5913000Y-7871000D02*
X5913000Y-7971000D01*
X5863000Y-7921000D02*
X5963000Y-7921000D01*
X5913000Y-8246000D02*
X5913000Y-8346000D01*
X5863000Y-8296000D02*
X5963000Y-8296000D01*
X5913000Y-8500000D02*
X5913000Y-8600000D01*
X5863000Y-8550000D02*
X5963000Y-8550000D01*
X6167000Y-505000D02*
X6167000Y-605000D01*
X6117000Y-555000D02*
X6217000Y-555000D01*
X6167000Y-759000D02*
X6167000Y-859000D01*
X6117000Y-809000D02*
X6217000Y-809000D01*
X6167000Y-1013000D02*
X6167000Y-1113000D01*
X6117000Y-1063000D02*
X6217000Y-1063000D01*
X6167000Y-1267000D02*
X6167000Y-1367000D01*
X6117000Y-1317000D02*
X6217000Y-1317000D01*
X6167000Y-1521000D02*
X6167000Y-1621000D01*
X6117000Y-1571000D02*
X6217000Y-1571000D01*
X6167000Y-1775000D02*
X6167000Y-1875000D01*
X6117000Y-1825000D02*
X6217000Y-1825000D01*
X6167000Y-2029000D02*
X6167000Y-2129000D01*
X6117000Y-2079000D02*
X6217000Y-2079000D01*
X6167000Y-2283000D02*
X6167000Y-2383000D01*
X6117000Y-2333000D02*
X6217000Y-2333000D01*
X6167000Y-2537000D02*
X6167000Y-2637000D01*
X6117000Y-2587000D02*
X6217000Y-2587000D01*
X6167000Y-2791000D02*
X6167000Y-2891000D01*
X6117000Y-2841000D02*
X6217000Y-2841000D01*
X6167000Y-3045000D02*
X6167000Y-3145000D01*
X6117000Y-3095000D02*
X6217000Y-3095000D01*
X6167000Y-3299000D02*
X6167000Y-3399000D01*
X6117000Y-3349000D02*
X6217000Y-3349000D01*
X6167000Y-3553000D02*
X6167000Y-3653000D01*
X6117000Y-3603000D02*
X6217000Y-3603000D01*
X6167000Y-3807000D02*
X6167000Y-3907000D01*
X6117000Y-3857000D02*
X6217000Y-3857000D01*
X6167000Y-4061000D02*
X6167000Y-4161000D01*
X6117000Y-4111000D02*
X6217000Y-4111000D01*
X6167000Y-4315000D02*
X6167000Y-4415000D01*
X6117000Y-4365000D02*
X6217000Y-4365000D01*
X6167000Y-4569000D02*
X6167000Y-4669000D01*
X6117000Y-4619000D02*
X6217000Y-4619000D01*
X6167000Y-4823000D02*
X6167000Y-4923000D01*
X6117000Y-4873000D02*
X6217000Y-4873000D01*
X6167000Y-5077000D02*
X6167000Y-5177000D01*
X6117000Y-5127000D02*
X6217000Y-5127000D01*
X6167000Y-5331000D02*
X6167000Y-5431000D01*
X6117000Y-5381000D02*
X6217000Y-5381000D01*
X6167000Y-5585000D02*
X6167000Y-5685000D01*
X6117000Y-5635000D02*
X6217000Y-5635000D01*
X6167000Y-5839000D02*
X6167000Y-5939000D01*
X6117000Y-5889000D02*
X6217000Y-5889000D01*
X6167000Y-6093000D02*
X6167000Y-6193000D01*
X6117000Y-6143000D02*
X6217000Y-6143000D01*
X6167000Y-6347000D02*
X6167000Y-6447000D01*
X6117000Y-6397000D02*
X6217000Y-6397000D01*
X6167000Y-6601000D02*
X6167000Y-6701000D01*
X6117000Y-6651000D02*
X6217000Y-6651000D01*
X6167000Y-6855000D02*
X6167000Y-6955000D01*
X6117000Y-6905000D02*
X6217000Y-6905000D01*
X6167000Y-7109000D02*
X6167000Y-7209000D01*
X6117000Y-7159000D02*
X6217000Y-7159000D01*
X6167000Y-7363000D02*
X6167000Y-7463000D01*
X6117000Y-7413000D02*
X6217000Y-7413000D01*
X6167000Y-7617000D02*
X6167000Y-7717000D01*
X6117000Y-7667000D02*
X6217000Y-7667000D01*
X6167000Y-7871000D02*
X6167000Y-7971000D01*
X6117000Y-7921000D02*
X6217000Y-7921000D01*
X6167000Y-8246000D02*
X6167000Y-8346000D01*
X6117000Y-8296000D02*
X6217000Y-8296000D01*
X6167000Y-8500000D02*
X6167000Y-8600000D01*
X6117000Y-8550000D02*
X6217000Y-8550000D01*
X6421000Y-505000D02*
X6421000Y-605000D01*
X6371000Y-555000D02*
X6471000Y-555000D01*
X6421000Y-759000D02*
X6421000Y-859000D01*
X6371000Y-809000D02*
X6471000Y-809000D01*
X6421000Y-1013000D02*
X6421000Y-1113000D01*
X6371000Y-1063000D02*
X6471000Y-1063000D01*
X6421000Y-1267000D02*
X6421000Y-1367000D01*
X6371000Y-1317000D02*
X6471000Y-1317000D01*
X6421000Y-1521000D02*
X6421000Y-1621000D01*
X6371000Y-1571000D02*
X6471000Y-1571000D01*
X6421000Y-1775000D02*
X6421000Y-1875000D01*
X6371000Y-1825000D02*
X6471000Y-1825000D01*
X6421000Y-2029000D02*
X6421000Y-2129000D01*
X6371000Y-2079000D02*
X6471000Y-2079000D01*
X6421000Y-2283000D02*
X6421000Y-2383000D01*
X6371000Y-2333000D02*
X6471000Y-2333000D01*
X6421000Y-2537000D02*
X6421000Y-2637000D01*
X6371000Y-2587000D02*
X6471000Y-2587000D01*
X6421000Y-2791000D02*
X6421000Y-2891000D01*
X6371000Y-2841000D02*
X6471000Y-2841000D01*
X6421000Y-3045000D02*
X6421000Y-3145000D01*
X6371000Y-3095000D02*
X6471000Y-3095000D01*
X6421000Y-3299000D02*
X6421000Y-3399000D01*
X6371000Y-3349000D02*
X6471000Y-3349000D01*
X6421000Y-3553000D02*
X6421000Y-3653000D01*
X6371000Y-3603000D02*
X6471000Y-3603000D01*
X6421000Y-3807000D02*
X6421000Y-3907000D01*
X6371000Y-3857000D02*
X6471000Y-3857000D01*
X6421000Y-4061000D02*
X6421000Y-4161000D01*
X6371000Y-4111000D02*
X6471000Y-4111000D01*
X6421000Y-4315000D02*
X6421000Y-4415000D01*
X6371000Y-4365000D02*
X6471000Y-4365000D01*
X6421000Y-4569000D02*
X6421000Y-4669000D01*
X6371000Y-4619000D02*
X6471000Y-4619000D01*
X6421000Y-4823000D02*
X6421000Y-4923000D01*
X6371000Y-4873000D02*
X6471000Y-4873000D01*
X6421000Y-5077000D02*
X6421000Y-5177000D01*
X6371000Y-5127000D02*
X6471000Y-5127000D01*
X6421000Y-5331000D02*
X6421000Y-5431000D01*
X6371000Y-5381000D02*
X6471000Y-5381000D01*
X6421000Y-5585000D02*
X6421000Y-5685000D01*
X6371000Y-5635000D02*
X6471000Y-5635000D01*
X6421000Y-5839000D02*
X6421000Y-5939000D01*
X6371000Y-5889000D02*
X6471000Y-5889000D01*
X6421000Y-6093000D02*
X6421000Y-6193000D01*
X6371000Y-6143000D02*
X6471000Y-6143000D01*
X6421000Y-6347000D02*
X6421000Y-6447000D01*
X6371000Y-6397000D02*
X6471000Y-6397000D01*
X6421000Y-6601000D02*
X6421000Y-6701000D01*
X6371000Y-6651000D02*
X6471000Y-6651000D01*
X6421000Y-6855000D02*
X6421000Y-6955000D01*
X6371000Y-6905000D02*
X6471000Y-6905000D01*
X6421000Y-7109000D02*
X6421000Y-7209000D01*
X6371000Y-7159000D02*
X6471000Y-7159000D01*
X6421000Y-7363000D02*
X6421000Y-7463000D01*
X6371000Y-7413000D02*
X6471000Y-7413000D01*
X6421000Y-7617000D02*
X6421000Y-7717000D01*
X6371000Y-7667000D02*
X6471000Y-7667000D01*
X6421000Y-7871000D02*
X6421000Y-7971000D01*
X6371000Y-7921000D02*
X6471000Y-7921000D01*
X6421000Y-8246000D02*
X6421000Y-8346000D01*
X6371000Y-8296000D02*
X6471000Y-8296000D01*
X6421000Y-8500000D02*
X6421000Y-8600000D01*
X6371000Y-8550000D02*
X6471000Y-8550000D01*
D11*
X903711Y-9270711D02*
X903711Y-9129289D01*
X762289Y-9129289D01*
X762289Y-9270711D01*
X903711Y-9270711D01*
D10*
X733000Y-9050000D02*
X733000Y-9350000D01*
X933000Y-9350000D02*
G75*
G02*
X733000Y-9350000I-100000J0D01*
G01*
X933000Y-9350000D02*
X933000Y-9050000D01*
X933000Y-9050000D02*
G75*
G03*
X733000Y-9050000I-100000J0D01*
G01*
D11*
X6237711Y-9270711D02*
X6237711Y-9129289D01*
X6096289Y-9129289D01*
X6096289Y-9270711D01*
X6237711Y-9270711D01*
D10*
X6067000Y-9050000D02*
X6067000Y-9350000D01*
X6267000Y-9350000D02*
G75*
G02*
X6067000Y-9350000I-100000J0D01*
G01*
X6267000Y-9350000D02*
X6267000Y-9050000D01*
X6267000Y-9050000D02*
G75*
G03*
X6067000Y-9050000I-100000J0D01*
G01*
D11*
X255777Y-10316484D02*
X255777Y-10116484D01*
X255777Y-10116484D02*
X303396Y-10116484D01*
X303396Y-10116484D02*
X331967Y-10126008D01*
X331967Y-10126008D02*
X351015Y-10145055D01*
X351015Y-10145055D02*
X360539Y-10164103D01*
X360539Y-10164103D02*
X370062Y-10202198D01*
X370062Y-10202198D02*
X370062Y-10230770D01*
X370062Y-10230770D02*
X360539Y-10268865D01*
X360539Y-10268865D02*
X351015Y-10287912D01*
X351015Y-10287912D02*
X331967Y-10306960D01*
X331967Y-10306960D02*
X303396Y-10316484D01*
X303396Y-10316484D02*
X255777Y-10316484D01*
X455777Y-10316484D02*
X455777Y-10183150D01*
X455777Y-10221246D02*
X465301Y-10202198D01*
X465301Y-10202198D02*
X474824Y-10192674D01*
X474824Y-10192674D02*
X493872Y-10183150D01*
X493872Y-10183150D02*
X512920Y-10183150D01*
X579586Y-10316484D02*
X579586Y-10183150D01*
X579586Y-10116484D02*
X570063Y-10126008D01*
X570063Y-10126008D02*
X579586Y-10135531D01*
X579586Y-10135531D02*
X589110Y-10126008D01*
X589110Y-10126008D02*
X579586Y-10116484D01*
X579586Y-10116484D02*
X579586Y-10135531D01*
X703396Y-10316484D02*
X684348Y-10306960D01*
X684348Y-10306960D02*
X674824Y-10287912D01*
X674824Y-10287912D02*
X674824Y-10116484D01*
X808158Y-10316484D02*
X789110Y-10306960D01*
X789110Y-10306960D02*
X779586Y-10287912D01*
X779586Y-10287912D02*
X779586Y-10116484D01*
X1036729Y-10316484D02*
X1036729Y-10116484D01*
X1036729Y-10116484D02*
X1103396Y-10259341D01*
X1103396Y-10259341D02*
X1170063Y-10116484D01*
X1170063Y-10116484D02*
X1170063Y-10316484D01*
X1351015Y-10316484D02*
X1351015Y-10211722D01*
X1351015Y-10211722D02*
X1341491Y-10192674D01*
X1341491Y-10192674D02*
X1322444Y-10183150D01*
X1322444Y-10183150D02*
X1284348Y-10183150D01*
X1284348Y-10183150D02*
X1265301Y-10192674D01*
X1351015Y-10306960D02*
X1331967Y-10316484D01*
X1331967Y-10316484D02*
X1284348Y-10316484D01*
X1284348Y-10316484D02*
X1265301Y-10306960D01*
X1265301Y-10306960D02*
X1255777Y-10287912D01*
X1255777Y-10287912D02*
X1255777Y-10268865D01*
X1255777Y-10268865D02*
X1265301Y-10249817D01*
X1265301Y-10249817D02*
X1284348Y-10240293D01*
X1284348Y-10240293D02*
X1331967Y-10240293D01*
X1331967Y-10240293D02*
X1351015Y-10230770D01*
X1446253Y-10183150D02*
X1446253Y-10383150D01*
X1446253Y-10192674D02*
X1465301Y-10183150D01*
X1465301Y-10183150D02*
X1503396Y-10183150D01*
X1503396Y-10183150D02*
X1522443Y-10192674D01*
X1522443Y-10192674D02*
X1531967Y-10202198D01*
X1531967Y-10202198D02*
X1541491Y-10221246D01*
X1541491Y-10221246D02*
X1541491Y-10278389D01*
X1541491Y-10278389D02*
X1531967Y-10297436D01*
X1531967Y-10297436D02*
X1522443Y-10306960D01*
X1522443Y-10306960D02*
X1503396Y-10316484D01*
X1503396Y-10316484D02*
X1465301Y-10316484D01*
X1465301Y-10316484D02*
X1446253Y-10306960D01*
X1627205Y-10297436D02*
X1636729Y-10306960D01*
X1636729Y-10306960D02*
X1627205Y-10316484D01*
X1627205Y-10316484D02*
X1617682Y-10306960D01*
X1617682Y-10306960D02*
X1627205Y-10297436D01*
X1627205Y-10297436D02*
X1627205Y-10316484D01*
X1627205Y-10192674D02*
X1636729Y-10202198D01*
X1636729Y-10202198D02*
X1627205Y-10211722D01*
X1627205Y-10211722D02*
X1617682Y-10202198D01*
X1617682Y-10202198D02*
X1627205Y-10192674D01*
X1627205Y-10192674D02*
X1627205Y-10211722D01*
D10*
X-35000Y-10630000D02*
X-5000Y-10660000D01*
X-5000Y-10630000D02*
X-35000Y-10660000D01*
D11*
X293872Y-10536484D02*
X312920Y-10536484D01*
X312920Y-10536484D02*
X331967Y-10546008D01*
X331967Y-10546008D02*
X341491Y-10555531D01*
X341491Y-10555531D02*
X351015Y-10574579D01*
X351015Y-10574579D02*
X360539Y-10612674D01*
X360539Y-10612674D02*
X360539Y-10660293D01*
X360539Y-10660293D02*
X351015Y-10698389D01*
X351015Y-10698389D02*
X341491Y-10717436D01*
X341491Y-10717436D02*
X331967Y-10726960D01*
X331967Y-10726960D02*
X312920Y-10736484D01*
X312920Y-10736484D02*
X293872Y-10736484D01*
X293872Y-10736484D02*
X274824Y-10726960D01*
X274824Y-10726960D02*
X265301Y-10717436D01*
X265301Y-10717436D02*
X255777Y-10698389D01*
X255777Y-10698389D02*
X246253Y-10660293D01*
X246253Y-10660293D02*
X246253Y-10612674D01*
X246253Y-10612674D02*
X255777Y-10574579D01*
X255777Y-10574579D02*
X265301Y-10555531D01*
X265301Y-10555531D02*
X274824Y-10546008D01*
X274824Y-10546008D02*
X293872Y-10536484D01*
X446253Y-10717436D02*
X455777Y-10726960D01*
X455777Y-10726960D02*
X446253Y-10736484D01*
X446253Y-10736484D02*
X436729Y-10726960D01*
X436729Y-10726960D02*
X446253Y-10717436D01*
X446253Y-10717436D02*
X446253Y-10736484D01*
X522443Y-10536484D02*
X646253Y-10536484D01*
X646253Y-10536484D02*
X579586Y-10612674D01*
X579586Y-10612674D02*
X608158Y-10612674D01*
X608158Y-10612674D02*
X627205Y-10622198D01*
X627205Y-10622198D02*
X636729Y-10631722D01*
X636729Y-10631722D02*
X646253Y-10650770D01*
X646253Y-10650770D02*
X646253Y-10698389D01*
X646253Y-10698389D02*
X636729Y-10717436D01*
X636729Y-10717436D02*
X627205Y-10726960D01*
X627205Y-10726960D02*
X608158Y-10736484D01*
X608158Y-10736484D02*
X551015Y-10736484D01*
X551015Y-10736484D02*
X531967Y-10726960D01*
X531967Y-10726960D02*
X522443Y-10717436D01*
X770062Y-10536484D02*
X789110Y-10536484D01*
X789110Y-10536484D02*
X808158Y-10546008D01*
X808158Y-10546008D02*
X817682Y-10555531D01*
X817682Y-10555531D02*
X827205Y-10574579D01*
X827205Y-10574579D02*
X836729Y-10612674D01*
X836729Y-10612674D02*
X836729Y-10660293D01*
X836729Y-10660293D02*
X827205Y-10698389D01*
X827205Y-10698389D02*
X817682Y-10717436D01*
X817682Y-10717436D02*
X808158Y-10726960D01*
X808158Y-10726960D02*
X789110Y-10736484D01*
X789110Y-10736484D02*
X770062Y-10736484D01*
X770062Y-10736484D02*
X751015Y-10726960D01*
X751015Y-10726960D02*
X741491Y-10717436D01*
X741491Y-10717436D02*
X731967Y-10698389D01*
X731967Y-10698389D02*
X722443Y-10660293D01*
X722443Y-10660293D02*
X722443Y-10612674D01*
X722443Y-10612674D02*
X731967Y-10574579D01*
X731967Y-10574579D02*
X741491Y-10555531D01*
X741491Y-10555531D02*
X751015Y-10546008D01*
X751015Y-10546008D02*
X770062Y-10536484D01*
X960539Y-10536484D02*
X979586Y-10536484D01*
X979586Y-10536484D02*
X998634Y-10546008D01*
X998634Y-10546008D02*
X1008158Y-10555531D01*
X1008158Y-10555531D02*
X1017682Y-10574579D01*
X1017682Y-10574579D02*
X1027205Y-10612674D01*
X1027205Y-10612674D02*
X1027205Y-10660293D01*
X1027205Y-10660293D02*
X1017682Y-10698389D01*
X1017682Y-10698389D02*
X1008158Y-10717436D01*
X1008158Y-10717436D02*
X998634Y-10726960D01*
X998634Y-10726960D02*
X979586Y-10736484D01*
X979586Y-10736484D02*
X960539Y-10736484D01*
X960539Y-10736484D02*
X941491Y-10726960D01*
X941491Y-10726960D02*
X931967Y-10717436D01*
X931967Y-10717436D02*
X922443Y-10698389D01*
X922443Y-10698389D02*
X912920Y-10660293D01*
X912920Y-10660293D02*
X912920Y-10612674D01*
X912920Y-10612674D02*
X922443Y-10574579D01*
X922443Y-10574579D02*
X931967Y-10555531D01*
X931967Y-10555531D02*
X941491Y-10546008D01*
X941491Y-10546008D02*
X960539Y-10536484D01*
X1112920Y-10736484D02*
X1112920Y-10603150D01*
X1112920Y-10622198D02*
X1122444Y-10612674D01*
X1122444Y-10612674D02*
X1141491Y-10603150D01*
X1141491Y-10603150D02*
X1170063Y-10603150D01*
X1170063Y-10603150D02*
X1189110Y-10612674D01*
X1189110Y-10612674D02*
X1198634Y-10631722D01*
X1198634Y-10631722D02*
X1198634Y-10736484D01*
X1198634Y-10631722D02*
X1208158Y-10612674D01*
X1208158Y-10612674D02*
X1227205Y-10603150D01*
X1227205Y-10603150D02*
X1255777Y-10603150D01*
X1255777Y-10603150D02*
X1274825Y-10612674D01*
X1274825Y-10612674D02*
X1284348Y-10631722D01*
X1284348Y-10631722D02*
X1284348Y-10736484D01*
X1379586Y-10736484D02*
X1379586Y-10603150D01*
X1379586Y-10622198D02*
X1389110Y-10612674D01*
X1389110Y-10612674D02*
X1408158Y-10603150D01*
X1408158Y-10603150D02*
X1436729Y-10603150D01*
X1436729Y-10603150D02*
X1455777Y-10612674D01*
X1455777Y-10612674D02*
X1465301Y-10631722D01*
X1465301Y-10631722D02*
X1465301Y-10736484D01*
X1465301Y-10631722D02*
X1474824Y-10612674D01*
X1474824Y-10612674D02*
X1493872Y-10603150D01*
X1493872Y-10603150D02*
X1522443Y-10603150D01*
X1522443Y-10603150D02*
X1541491Y-10612674D01*
X1541491Y-10612674D02*
X1551015Y-10631722D01*
X1551015Y-10631722D02*
X1551015Y-10736484D01*
X1941491Y-10526960D02*
X1770063Y-10784103D01*
X2198634Y-10536484D02*
X2217682Y-10536484D01*
X2217682Y-10536484D02*
X2236729Y-10546008D01*
X2236729Y-10546008D02*
X2246253Y-10555531D01*
X2246253Y-10555531D02*
X2255777Y-10574579D01*
X2255777Y-10574579D02*
X2265301Y-10612674D01*
X2265301Y-10612674D02*
X2265301Y-10660293D01*
X2265301Y-10660293D02*
X2255777Y-10698389D01*
X2255777Y-10698389D02*
X2246253Y-10717436D01*
X2246253Y-10717436D02*
X2236729Y-10726960D01*
X2236729Y-10726960D02*
X2217682Y-10736484D01*
X2217682Y-10736484D02*
X2198634Y-10736484D01*
X2198634Y-10736484D02*
X2179587Y-10726960D01*
X2179587Y-10726960D02*
X2170063Y-10717436D01*
X2170063Y-10717436D02*
X2160539Y-10698389D01*
X2160539Y-10698389D02*
X2151015Y-10660293D01*
X2151015Y-10660293D02*
X2151015Y-10612674D01*
X2151015Y-10612674D02*
X2160539Y-10574579D01*
X2160539Y-10574579D02*
X2170063Y-10555531D01*
X2170063Y-10555531D02*
X2179587Y-10546008D01*
X2179587Y-10546008D02*
X2198634Y-10536484D01*
X2351015Y-10717436D02*
X2360539Y-10726960D01*
X2360539Y-10726960D02*
X2351015Y-10736484D01*
X2351015Y-10736484D02*
X2341491Y-10726960D01*
X2341491Y-10726960D02*
X2351015Y-10717436D01*
X2351015Y-10717436D02*
X2351015Y-10736484D01*
X2484348Y-10536484D02*
X2503396Y-10536484D01*
X2503396Y-10536484D02*
X2522444Y-10546008D01*
X2522444Y-10546008D02*
X2531968Y-10555531D01*
X2531968Y-10555531D02*
X2541491Y-10574579D01*
X2541491Y-10574579D02*
X2551015Y-10612674D01*
X2551015Y-10612674D02*
X2551015Y-10660293D01*
X2551015Y-10660293D02*
X2541491Y-10698389D01*
X2541491Y-10698389D02*
X2531968Y-10717436D01*
X2531968Y-10717436D02*
X2522444Y-10726960D01*
X2522444Y-10726960D02*
X2503396Y-10736484D01*
X2503396Y-10736484D02*
X2484348Y-10736484D01*
X2484348Y-10736484D02*
X2465301Y-10726960D01*
X2465301Y-10726960D02*
X2455777Y-10717436D01*
X2455777Y-10717436D02*
X2446253Y-10698389D01*
X2446253Y-10698389D02*
X2436729Y-10660293D01*
X2436729Y-10660293D02*
X2436729Y-10612674D01*
X2436729Y-10612674D02*
X2446253Y-10574579D01*
X2446253Y-10574579D02*
X2455777Y-10555531D01*
X2455777Y-10555531D02*
X2465301Y-10546008D01*
X2465301Y-10546008D02*
X2484348Y-10536484D01*
X2741491Y-10736484D02*
X2627206Y-10736484D01*
X2684348Y-10736484D02*
X2684348Y-10536484D01*
X2684348Y-10536484D02*
X2665301Y-10565055D01*
X2665301Y-10565055D02*
X2646253Y-10584103D01*
X2646253Y-10584103D02*
X2627206Y-10593627D01*
X2931967Y-10736484D02*
X2817682Y-10736484D01*
X2874825Y-10736484D02*
X2874825Y-10536484D01*
X2874825Y-10536484D02*
X2855777Y-10565055D01*
X2855777Y-10565055D02*
X2836729Y-10584103D01*
X2836729Y-10584103D02*
X2817682Y-10593627D01*
X3046253Y-10622198D02*
X3027206Y-10612674D01*
X3027206Y-10612674D02*
X3017682Y-10603150D01*
X3017682Y-10603150D02*
X3008158Y-10584103D01*
X3008158Y-10584103D02*
X3008158Y-10574579D01*
X3008158Y-10574579D02*
X3017682Y-10555531D01*
X3017682Y-10555531D02*
X3027206Y-10546008D01*
X3027206Y-10546008D02*
X3046253Y-10536484D01*
X3046253Y-10536484D02*
X3084348Y-10536484D01*
X3084348Y-10536484D02*
X3103396Y-10546008D01*
X3103396Y-10546008D02*
X3112920Y-10555531D01*
X3112920Y-10555531D02*
X3122444Y-10574579D01*
X3122444Y-10574579D02*
X3122444Y-10584103D01*
X3122444Y-10584103D02*
X3112920Y-10603150D01*
X3112920Y-10603150D02*
X3103396Y-10612674D01*
X3103396Y-10612674D02*
X3084348Y-10622198D01*
X3084348Y-10622198D02*
X3046253Y-10622198D01*
X3046253Y-10622198D02*
X3027206Y-10631722D01*
X3027206Y-10631722D02*
X3017682Y-10641246D01*
X3017682Y-10641246D02*
X3008158Y-10660293D01*
X3008158Y-10660293D02*
X3008158Y-10698389D01*
X3008158Y-10698389D02*
X3017682Y-10717436D01*
X3017682Y-10717436D02*
X3027206Y-10726960D01*
X3027206Y-10726960D02*
X3046253Y-10736484D01*
X3046253Y-10736484D02*
X3084348Y-10736484D01*
X3084348Y-10736484D02*
X3103396Y-10726960D01*
X3103396Y-10726960D02*
X3112920Y-10717436D01*
X3112920Y-10717436D02*
X3122444Y-10698389D01*
X3122444Y-10698389D02*
X3122444Y-10660293D01*
X3122444Y-10660293D02*
X3112920Y-10641246D01*
X3112920Y-10641246D02*
X3103396Y-10631722D01*
X3103396Y-10631722D02*
X3084348Y-10622198D01*
X3198634Y-10536484D02*
X3198634Y-10574579D01*
X3274825Y-10536484D02*
X3274825Y-10574579D01*
X3570063Y-10812674D02*
X3560539Y-10803150D01*
X3560539Y-10803150D02*
X3541491Y-10774579D01*
X3541491Y-10774579D02*
X3531968Y-10755531D01*
X3531968Y-10755531D02*
X3522444Y-10726960D01*
X3522444Y-10726960D02*
X3512920Y-10679341D01*
X3512920Y-10679341D02*
X3512920Y-10641246D01*
X3512920Y-10641246D02*
X3522444Y-10593627D01*
X3522444Y-10593627D02*
X3531968Y-10565055D01*
X3531968Y-10565055D02*
X3541491Y-10546008D01*
X3541491Y-10546008D02*
X3560539Y-10517436D01*
X3560539Y-10517436D02*
X3570063Y-10507912D01*
X3636729Y-10555531D02*
X3646253Y-10546008D01*
X3646253Y-10546008D02*
X3665301Y-10536484D01*
X3665301Y-10536484D02*
X3712920Y-10536484D01*
X3712920Y-10536484D02*
X3731968Y-10546008D01*
X3731968Y-10546008D02*
X3741491Y-10555531D01*
X3741491Y-10555531D02*
X3751015Y-10574579D01*
X3751015Y-10574579D02*
X3751015Y-10593627D01*
X3751015Y-10593627D02*
X3741491Y-10622198D01*
X3741491Y-10622198D02*
X3627206Y-10736484D01*
X3627206Y-10736484D02*
X3751015Y-10736484D01*
X3922444Y-10603150D02*
X3922444Y-10736484D01*
X3874825Y-10526960D02*
X3827206Y-10669817D01*
X3827206Y-10669817D02*
X3951015Y-10669817D01*
X4179587Y-10736484D02*
X4179587Y-10536484D01*
X4265301Y-10736484D02*
X4265301Y-10631722D01*
X4265301Y-10631722D02*
X4255777Y-10612674D01*
X4255777Y-10612674D02*
X4236730Y-10603150D01*
X4236730Y-10603150D02*
X4208158Y-10603150D01*
X4208158Y-10603150D02*
X4189110Y-10612674D01*
X4189110Y-10612674D02*
X4179587Y-10622198D01*
X4389111Y-10736484D02*
X4370063Y-10726960D01*
X4370063Y-10726960D02*
X4360539Y-10717436D01*
X4360539Y-10717436D02*
X4351015Y-10698389D01*
X4351015Y-10698389D02*
X4351015Y-10641246D01*
X4351015Y-10641246D02*
X4360539Y-10622198D01*
X4360539Y-10622198D02*
X4370063Y-10612674D01*
X4370063Y-10612674D02*
X4389111Y-10603150D01*
X4389111Y-10603150D02*
X4417682Y-10603150D01*
X4417682Y-10603150D02*
X4436730Y-10612674D01*
X4436730Y-10612674D02*
X4446253Y-10622198D01*
X4446253Y-10622198D02*
X4455777Y-10641246D01*
X4455777Y-10641246D02*
X4455777Y-10698389D01*
X4455777Y-10698389D02*
X4446253Y-10717436D01*
X4446253Y-10717436D02*
X4436730Y-10726960D01*
X4436730Y-10726960D02*
X4417682Y-10736484D01*
X4417682Y-10736484D02*
X4389111Y-10736484D01*
X4570063Y-10736484D02*
X4551015Y-10726960D01*
X4551015Y-10726960D02*
X4541492Y-10707912D01*
X4541492Y-10707912D02*
X4541492Y-10536484D01*
X4722444Y-10726960D02*
X4703396Y-10736484D01*
X4703396Y-10736484D02*
X4665301Y-10736484D01*
X4665301Y-10736484D02*
X4646253Y-10726960D01*
X4646253Y-10726960D02*
X4636730Y-10707912D01*
X4636730Y-10707912D02*
X4636730Y-10631722D01*
X4636730Y-10631722D02*
X4646253Y-10612674D01*
X4646253Y-10612674D02*
X4665301Y-10603150D01*
X4665301Y-10603150D02*
X4703396Y-10603150D01*
X4703396Y-10603150D02*
X4722444Y-10612674D01*
X4722444Y-10612674D02*
X4731968Y-10631722D01*
X4731968Y-10631722D02*
X4731968Y-10650770D01*
X4731968Y-10650770D02*
X4636730Y-10669817D01*
X4808158Y-10726960D02*
X4827206Y-10736484D01*
X4827206Y-10736484D02*
X4865301Y-10736484D01*
X4865301Y-10736484D02*
X4884349Y-10726960D01*
X4884349Y-10726960D02*
X4893873Y-10707912D01*
X4893873Y-10707912D02*
X4893873Y-10698389D01*
X4893873Y-10698389D02*
X4884349Y-10679341D01*
X4884349Y-10679341D02*
X4865301Y-10669817D01*
X4865301Y-10669817D02*
X4836730Y-10669817D01*
X4836730Y-10669817D02*
X4817682Y-10660293D01*
X4817682Y-10660293D02*
X4808158Y-10641246D01*
X4808158Y-10641246D02*
X4808158Y-10631722D01*
X4808158Y-10631722D02*
X4817682Y-10612674D01*
X4817682Y-10612674D02*
X4836730Y-10603150D01*
X4836730Y-10603150D02*
X4865301Y-10603150D01*
X4865301Y-10603150D02*
X4884349Y-10612674D01*
X4960539Y-10812674D02*
X4970063Y-10803150D01*
X4970063Y-10803150D02*
X4989111Y-10774579D01*
X4989111Y-10774579D02*
X4998634Y-10755531D01*
X4998634Y-10755531D02*
X5008158Y-10726960D01*
X5008158Y-10726960D02*
X5017682Y-10679341D01*
X5017682Y-10679341D02*
X5017682Y-10641246D01*
X5017682Y-10641246D02*
X5008158Y-10593627D01*
X5008158Y-10593627D02*
X4998634Y-10565055D01*
X4998634Y-10565055D02*
X4989111Y-10546008D01*
X4989111Y-10546008D02*
X4970063Y-10517436D01*
X4970063Y-10517436D02*
X4960539Y-10507912D01*
D10*
X-5000Y-10909000D02*
G75*
G02*
X-45000Y-10909000I-20000J0D01*
G01*
X-45000Y-10909000D02*
G75*
G02*
X-5000Y-10909000I20000J0D01*
G01*
D11*
X293872Y-10800484D02*
X312920Y-10800484D01*
X312920Y-10800484D02*
X331967Y-10810008D01*
X331967Y-10810008D02*
X341491Y-10819531D01*
X341491Y-10819531D02*
X351015Y-10838579D01*
X351015Y-10838579D02*
X360539Y-10876674D01*
X360539Y-10876674D02*
X360539Y-10924293D01*
X360539Y-10924293D02*
X351015Y-10962389D01*
X351015Y-10962389D02*
X341491Y-10981436D01*
X341491Y-10981436D02*
X331967Y-10990960D01*
X331967Y-10990960D02*
X312920Y-11000484D01*
X312920Y-11000484D02*
X293872Y-11000484D01*
X293872Y-11000484D02*
X274824Y-10990960D01*
X274824Y-10990960D02*
X265301Y-10981436D01*
X265301Y-10981436D02*
X255777Y-10962389D01*
X255777Y-10962389D02*
X246253Y-10924293D01*
X246253Y-10924293D02*
X246253Y-10876674D01*
X246253Y-10876674D02*
X255777Y-10838579D01*
X255777Y-10838579D02*
X265301Y-10819531D01*
X265301Y-10819531D02*
X274824Y-10810008D01*
X274824Y-10810008D02*
X293872Y-10800484D01*
X446253Y-10981436D02*
X455777Y-10990960D01*
X455777Y-10990960D02*
X446253Y-11000484D01*
X446253Y-11000484D02*
X436729Y-10990960D01*
X436729Y-10990960D02*
X446253Y-10981436D01*
X446253Y-10981436D02*
X446253Y-11000484D01*
X627205Y-10867150D02*
X627205Y-11000484D01*
X579586Y-10790960D02*
X531967Y-10933817D01*
X531967Y-10933817D02*
X655777Y-10933817D01*
X770062Y-10800484D02*
X789110Y-10800484D01*
X789110Y-10800484D02*
X808158Y-10810008D01*
X808158Y-10810008D02*
X817682Y-10819531D01*
X817682Y-10819531D02*
X827205Y-10838579D01*
X827205Y-10838579D02*
X836729Y-10876674D01*
X836729Y-10876674D02*
X836729Y-10924293D01*
X836729Y-10924293D02*
X827205Y-10962389D01*
X827205Y-10962389D02*
X817682Y-10981436D01*
X817682Y-10981436D02*
X808158Y-10990960D01*
X808158Y-10990960D02*
X789110Y-11000484D01*
X789110Y-11000484D02*
X770062Y-11000484D01*
X770062Y-11000484D02*
X751015Y-10990960D01*
X751015Y-10990960D02*
X741491Y-10981436D01*
X741491Y-10981436D02*
X731967Y-10962389D01*
X731967Y-10962389D02*
X722443Y-10924293D01*
X722443Y-10924293D02*
X722443Y-10876674D01*
X722443Y-10876674D02*
X731967Y-10838579D01*
X731967Y-10838579D02*
X741491Y-10819531D01*
X741491Y-10819531D02*
X751015Y-10810008D01*
X751015Y-10810008D02*
X770062Y-10800484D01*
X960539Y-10800484D02*
X979586Y-10800484D01*
X979586Y-10800484D02*
X998634Y-10810008D01*
X998634Y-10810008D02*
X1008158Y-10819531D01*
X1008158Y-10819531D02*
X1017682Y-10838579D01*
X1017682Y-10838579D02*
X1027205Y-10876674D01*
X1027205Y-10876674D02*
X1027205Y-10924293D01*
X1027205Y-10924293D02*
X1017682Y-10962389D01*
X1017682Y-10962389D02*
X1008158Y-10981436D01*
X1008158Y-10981436D02*
X998634Y-10990960D01*
X998634Y-10990960D02*
X979586Y-11000484D01*
X979586Y-11000484D02*
X960539Y-11000484D01*
X960539Y-11000484D02*
X941491Y-10990960D01*
X941491Y-10990960D02*
X931967Y-10981436D01*
X931967Y-10981436D02*
X922443Y-10962389D01*
X922443Y-10962389D02*
X912920Y-10924293D01*
X912920Y-10924293D02*
X912920Y-10876674D01*
X912920Y-10876674D02*
X922443Y-10838579D01*
X922443Y-10838579D02*
X931967Y-10819531D01*
X931967Y-10819531D02*
X941491Y-10810008D01*
X941491Y-10810008D02*
X960539Y-10800484D01*
X1112920Y-11000484D02*
X1112920Y-10867150D01*
X1112920Y-10886198D02*
X1122444Y-10876674D01*
X1122444Y-10876674D02*
X1141491Y-10867150D01*
X1141491Y-10867150D02*
X1170063Y-10867150D01*
X1170063Y-10867150D02*
X1189110Y-10876674D01*
X1189110Y-10876674D02*
X1198634Y-10895722D01*
X1198634Y-10895722D02*
X1198634Y-11000484D01*
X1198634Y-10895722D02*
X1208158Y-10876674D01*
X1208158Y-10876674D02*
X1227205Y-10867150D01*
X1227205Y-10867150D02*
X1255777Y-10867150D01*
X1255777Y-10867150D02*
X1274825Y-10876674D01*
X1274825Y-10876674D02*
X1284348Y-10895722D01*
X1284348Y-10895722D02*
X1284348Y-11000484D01*
X1379586Y-11000484D02*
X1379586Y-10867150D01*
X1379586Y-10886198D02*
X1389110Y-10876674D01*
X1389110Y-10876674D02*
X1408158Y-10867150D01*
X1408158Y-10867150D02*
X1436729Y-10867150D01*
X1436729Y-10867150D02*
X1455777Y-10876674D01*
X1455777Y-10876674D02*
X1465301Y-10895722D01*
X1465301Y-10895722D02*
X1465301Y-11000484D01*
X1465301Y-10895722D02*
X1474824Y-10876674D01*
X1474824Y-10876674D02*
X1493872Y-10867150D01*
X1493872Y-10867150D02*
X1522443Y-10867150D01*
X1522443Y-10867150D02*
X1541491Y-10876674D01*
X1541491Y-10876674D02*
X1551015Y-10895722D01*
X1551015Y-10895722D02*
X1551015Y-11000484D01*
X1941491Y-10790960D02*
X1770063Y-11048103D01*
X2198634Y-10800484D02*
X2217682Y-10800484D01*
X2217682Y-10800484D02*
X2236729Y-10810008D01*
X2236729Y-10810008D02*
X2246253Y-10819531D01*
X2246253Y-10819531D02*
X2255777Y-10838579D01*
X2255777Y-10838579D02*
X2265301Y-10876674D01*
X2265301Y-10876674D02*
X2265301Y-10924293D01*
X2265301Y-10924293D02*
X2255777Y-10962389D01*
X2255777Y-10962389D02*
X2246253Y-10981436D01*
X2246253Y-10981436D02*
X2236729Y-10990960D01*
X2236729Y-10990960D02*
X2217682Y-11000484D01*
X2217682Y-11000484D02*
X2198634Y-11000484D01*
X2198634Y-11000484D02*
X2179587Y-10990960D01*
X2179587Y-10990960D02*
X2170063Y-10981436D01*
X2170063Y-10981436D02*
X2160539Y-10962389D01*
X2160539Y-10962389D02*
X2151015Y-10924293D01*
X2151015Y-10924293D02*
X2151015Y-10876674D01*
X2151015Y-10876674D02*
X2160539Y-10838579D01*
X2160539Y-10838579D02*
X2170063Y-10819531D01*
X2170063Y-10819531D02*
X2179587Y-10810008D01*
X2179587Y-10810008D02*
X2198634Y-10800484D01*
X2351015Y-10981436D02*
X2360539Y-10990960D01*
X2360539Y-10990960D02*
X2351015Y-11000484D01*
X2351015Y-11000484D02*
X2341491Y-10990960D01*
X2341491Y-10990960D02*
X2351015Y-10981436D01*
X2351015Y-10981436D02*
X2351015Y-11000484D01*
X2484348Y-10800484D02*
X2503396Y-10800484D01*
X2503396Y-10800484D02*
X2522444Y-10810008D01*
X2522444Y-10810008D02*
X2531968Y-10819531D01*
X2531968Y-10819531D02*
X2541491Y-10838579D01*
X2541491Y-10838579D02*
X2551015Y-10876674D01*
X2551015Y-10876674D02*
X2551015Y-10924293D01*
X2551015Y-10924293D02*
X2541491Y-10962389D01*
X2541491Y-10962389D02*
X2531968Y-10981436D01*
X2531968Y-10981436D02*
X2522444Y-10990960D01*
X2522444Y-10990960D02*
X2503396Y-11000484D01*
X2503396Y-11000484D02*
X2484348Y-11000484D01*
X2484348Y-11000484D02*
X2465301Y-10990960D01*
X2465301Y-10990960D02*
X2455777Y-10981436D01*
X2455777Y-10981436D02*
X2446253Y-10962389D01*
X2446253Y-10962389D02*
X2436729Y-10924293D01*
X2436729Y-10924293D02*
X2436729Y-10876674D01*
X2436729Y-10876674D02*
X2446253Y-10838579D01*
X2446253Y-10838579D02*
X2455777Y-10819531D01*
X2455777Y-10819531D02*
X2465301Y-10810008D01*
X2465301Y-10810008D02*
X2484348Y-10800484D01*
X2741491Y-11000484D02*
X2627206Y-11000484D01*
X2684348Y-11000484D02*
X2684348Y-10800484D01*
X2684348Y-10800484D02*
X2665301Y-10829055D01*
X2665301Y-10829055D02*
X2646253Y-10848103D01*
X2646253Y-10848103D02*
X2627206Y-10857627D01*
X2922444Y-10800484D02*
X2827206Y-10800484D01*
X2827206Y-10800484D02*
X2817682Y-10895722D01*
X2817682Y-10895722D02*
X2827206Y-10886198D01*
X2827206Y-10886198D02*
X2846253Y-10876674D01*
X2846253Y-10876674D02*
X2893872Y-10876674D01*
X2893872Y-10876674D02*
X2912920Y-10886198D01*
X2912920Y-10886198D02*
X2922444Y-10895722D01*
X2922444Y-10895722D02*
X2931967Y-10914770D01*
X2931967Y-10914770D02*
X2931967Y-10962389D01*
X2931967Y-10962389D02*
X2922444Y-10981436D01*
X2922444Y-10981436D02*
X2912920Y-10990960D01*
X2912920Y-10990960D02*
X2893872Y-11000484D01*
X2893872Y-11000484D02*
X2846253Y-11000484D01*
X2846253Y-11000484D02*
X2827206Y-10990960D01*
X2827206Y-10990960D02*
X2817682Y-10981436D01*
X2998634Y-10800484D02*
X3131967Y-10800484D01*
X3131967Y-10800484D02*
X3046253Y-11000484D01*
X3198634Y-10800484D02*
X3198634Y-10838579D01*
X3274825Y-10800484D02*
X3274825Y-10838579D01*
X3570063Y-11076674D02*
X3560539Y-11067150D01*
X3560539Y-11067150D02*
X3541491Y-11038579D01*
X3541491Y-11038579D02*
X3531968Y-11019531D01*
X3531968Y-11019531D02*
X3522444Y-10990960D01*
X3522444Y-10990960D02*
X3512920Y-10943341D01*
X3512920Y-10943341D02*
X3512920Y-10905246D01*
X3512920Y-10905246D02*
X3522444Y-10857627D01*
X3522444Y-10857627D02*
X3531968Y-10829055D01*
X3531968Y-10829055D02*
X3541491Y-10810008D01*
X3541491Y-10810008D02*
X3560539Y-10781436D01*
X3560539Y-10781436D02*
X3570063Y-10771912D01*
X3751015Y-11000484D02*
X3636729Y-11000484D01*
X3693872Y-11000484D02*
X3693872Y-10800484D01*
X3693872Y-10800484D02*
X3674825Y-10829055D01*
X3674825Y-10829055D02*
X3655777Y-10848103D01*
X3655777Y-10848103D02*
X3636729Y-10857627D01*
X3922444Y-10800484D02*
X3884348Y-10800484D01*
X3884348Y-10800484D02*
X3865301Y-10810008D01*
X3865301Y-10810008D02*
X3855777Y-10819531D01*
X3855777Y-10819531D02*
X3836729Y-10848103D01*
X3836729Y-10848103D02*
X3827206Y-10886198D01*
X3827206Y-10886198D02*
X3827206Y-10962389D01*
X3827206Y-10962389D02*
X3836729Y-10981436D01*
X3836729Y-10981436D02*
X3846253Y-10990960D01*
X3846253Y-10990960D02*
X3865301Y-11000484D01*
X3865301Y-11000484D02*
X3903396Y-11000484D01*
X3903396Y-11000484D02*
X3922444Y-10990960D01*
X3922444Y-10990960D02*
X3931968Y-10981436D01*
X3931968Y-10981436D02*
X3941491Y-10962389D01*
X3941491Y-10962389D02*
X3941491Y-10914770D01*
X3941491Y-10914770D02*
X3931968Y-10895722D01*
X3931968Y-10895722D02*
X3922444Y-10886198D01*
X3922444Y-10886198D02*
X3903396Y-10876674D01*
X3903396Y-10876674D02*
X3865301Y-10876674D01*
X3865301Y-10876674D02*
X3846253Y-10886198D01*
X3846253Y-10886198D02*
X3836729Y-10895722D01*
X3836729Y-10895722D02*
X3827206Y-10914770D01*
X4179587Y-11000484D02*
X4179587Y-10800484D01*
X4265301Y-11000484D02*
X4265301Y-10895722D01*
X4265301Y-10895722D02*
X4255777Y-10876674D01*
X4255777Y-10876674D02*
X4236730Y-10867150D01*
X4236730Y-10867150D02*
X4208158Y-10867150D01*
X4208158Y-10867150D02*
X4189110Y-10876674D01*
X4189110Y-10876674D02*
X4179587Y-10886198D01*
X4389111Y-11000484D02*
X4370063Y-10990960D01*
X4370063Y-10990960D02*
X4360539Y-10981436D01*
X4360539Y-10981436D02*
X4351015Y-10962389D01*
X4351015Y-10962389D02*
X4351015Y-10905246D01*
X4351015Y-10905246D02*
X4360539Y-10886198D01*
X4360539Y-10886198D02*
X4370063Y-10876674D01*
X4370063Y-10876674D02*
X4389111Y-10867150D01*
X4389111Y-10867150D02*
X4417682Y-10867150D01*
X4417682Y-10867150D02*
X4436730Y-10876674D01*
X4436730Y-10876674D02*
X4446253Y-10886198D01*
X4446253Y-10886198D02*
X4455777Y-10905246D01*
X4455777Y-10905246D02*
X4455777Y-10962389D01*
X4455777Y-10962389D02*
X4446253Y-10981436D01*
X4446253Y-10981436D02*
X4436730Y-10990960D01*
X4436730Y-10990960D02*
X4417682Y-11000484D01*
X4417682Y-11000484D02*
X4389111Y-11000484D01*
X4570063Y-11000484D02*
X4551015Y-10990960D01*
X4551015Y-10990960D02*
X4541492Y-10971912D01*
X4541492Y-10971912D02*
X4541492Y-10800484D01*
X4722444Y-10990960D02*
X4703396Y-11000484D01*
X4703396Y-11000484D02*
X4665301Y-11000484D01*
X4665301Y-11000484D02*
X4646253Y-10990960D01*
X4646253Y-10990960D02*
X4636730Y-10971912D01*
X4636730Y-10971912D02*
X4636730Y-10895722D01*
X4636730Y-10895722D02*
X4646253Y-10876674D01*
X4646253Y-10876674D02*
X4665301Y-10867150D01*
X4665301Y-10867150D02*
X4703396Y-10867150D01*
X4703396Y-10867150D02*
X4722444Y-10876674D01*
X4722444Y-10876674D02*
X4731968Y-10895722D01*
X4731968Y-10895722D02*
X4731968Y-10914770D01*
X4731968Y-10914770D02*
X4636730Y-10933817D01*
X4808158Y-10990960D02*
X4827206Y-11000484D01*
X4827206Y-11000484D02*
X4865301Y-11000484D01*
X4865301Y-11000484D02*
X4884349Y-10990960D01*
X4884349Y-10990960D02*
X4893873Y-10971912D01*
X4893873Y-10971912D02*
X4893873Y-10962389D01*
X4893873Y-10962389D02*
X4884349Y-10943341D01*
X4884349Y-10943341D02*
X4865301Y-10933817D01*
X4865301Y-10933817D02*
X4836730Y-10933817D01*
X4836730Y-10933817D02*
X4817682Y-10924293D01*
X4817682Y-10924293D02*
X4808158Y-10905246D01*
X4808158Y-10905246D02*
X4808158Y-10895722D01*
X4808158Y-10895722D02*
X4817682Y-10876674D01*
X4817682Y-10876674D02*
X4836730Y-10867150D01*
X4836730Y-10867150D02*
X4865301Y-10867150D01*
X4865301Y-10867150D02*
X4884349Y-10876674D01*
X4960539Y-11076674D02*
X4970063Y-11067150D01*
X4970063Y-11067150D02*
X4989111Y-11038579D01*
X4989111Y-11038579D02*
X4998634Y-11019531D01*
X4998634Y-11019531D02*
X5008158Y-10990960D01*
X5008158Y-10990960D02*
X5017682Y-10943341D01*
X5017682Y-10943341D02*
X5017682Y-10905246D01*
X5017682Y-10905246D02*
X5008158Y-10857627D01*
X5008158Y-10857627D02*
X4998634Y-10829055D01*
X4998634Y-10829055D02*
X4989111Y-10810008D01*
X4989111Y-10810008D02*
X4970063Y-10781436D01*
X4970063Y-10781436D02*
X4960539Y-10771912D01*
D10*
X-55000Y-11123000D02*
X-55000Y-11223000D01*
X-105000Y-11173000D02*
X-5000Y-11173000D01*
D11*
X360539Y-11264484D02*
X246253Y-11264484D01*
X303396Y-11264484D02*
X303396Y-11064484D01*
X303396Y-11064484D02*
X284348Y-11093055D01*
X284348Y-11093055D02*
X265301Y-11112103D01*
X265301Y-11112103D02*
X246253Y-11121627D01*
X446253Y-11245436D02*
X455777Y-11254960D01*
X455777Y-11254960D02*
X446253Y-11264484D01*
X446253Y-11264484D02*
X436729Y-11254960D01*
X436729Y-11254960D02*
X446253Y-11245436D01*
X446253Y-11245436D02*
X446253Y-11264484D01*
X579586Y-11064484D02*
X598634Y-11064484D01*
X598634Y-11064484D02*
X617682Y-11074008D01*
X617682Y-11074008D02*
X627205Y-11083531D01*
X627205Y-11083531D02*
X636729Y-11102579D01*
X636729Y-11102579D02*
X646253Y-11140674D01*
X646253Y-11140674D02*
X646253Y-11188293D01*
X646253Y-11188293D02*
X636729Y-11226388D01*
X636729Y-11226388D02*
X627205Y-11245436D01*
X627205Y-11245436D02*
X617682Y-11254960D01*
X617682Y-11254960D02*
X598634Y-11264484D01*
X598634Y-11264484D02*
X579586Y-11264484D01*
X579586Y-11264484D02*
X560539Y-11254960D01*
X560539Y-11254960D02*
X551015Y-11245436D01*
X551015Y-11245436D02*
X541491Y-11226388D01*
X541491Y-11226388D02*
X531967Y-11188293D01*
X531967Y-11188293D02*
X531967Y-11140674D01*
X531967Y-11140674D02*
X541491Y-11102579D01*
X541491Y-11102579D02*
X551015Y-11083531D01*
X551015Y-11083531D02*
X560539Y-11074008D01*
X560539Y-11074008D02*
X579586Y-11064484D01*
X770062Y-11064484D02*
X789110Y-11064484D01*
X789110Y-11064484D02*
X808158Y-11074008D01*
X808158Y-11074008D02*
X817682Y-11083531D01*
X817682Y-11083531D02*
X827205Y-11102579D01*
X827205Y-11102579D02*
X836729Y-11140674D01*
X836729Y-11140674D02*
X836729Y-11188293D01*
X836729Y-11188293D02*
X827205Y-11226388D01*
X827205Y-11226388D02*
X817682Y-11245436D01*
X817682Y-11245436D02*
X808158Y-11254960D01*
X808158Y-11254960D02*
X789110Y-11264484D01*
X789110Y-11264484D02*
X770062Y-11264484D01*
X770062Y-11264484D02*
X751015Y-11254960D01*
X751015Y-11254960D02*
X741491Y-11245436D01*
X741491Y-11245436D02*
X731967Y-11226388D01*
X731967Y-11226388D02*
X722443Y-11188293D01*
X722443Y-11188293D02*
X722443Y-11140674D01*
X722443Y-11140674D02*
X731967Y-11102579D01*
X731967Y-11102579D02*
X741491Y-11083531D01*
X741491Y-11083531D02*
X751015Y-11074008D01*
X751015Y-11074008D02*
X770062Y-11064484D01*
X960539Y-11064484D02*
X979586Y-11064484D01*
X979586Y-11064484D02*
X998634Y-11074008D01*
X998634Y-11074008D02*
X1008158Y-11083531D01*
X1008158Y-11083531D02*
X1017682Y-11102579D01*
X1017682Y-11102579D02*
X1027205Y-11140674D01*
X1027205Y-11140674D02*
X1027205Y-11188293D01*
X1027205Y-11188293D02*
X1017682Y-11226388D01*
X1017682Y-11226388D02*
X1008158Y-11245436D01*
X1008158Y-11245436D02*
X998634Y-11254960D01*
X998634Y-11254960D02*
X979586Y-11264484D01*
X979586Y-11264484D02*
X960539Y-11264484D01*
X960539Y-11264484D02*
X941491Y-11254960D01*
X941491Y-11254960D02*
X931967Y-11245436D01*
X931967Y-11245436D02*
X922443Y-11226388D01*
X922443Y-11226388D02*
X912920Y-11188293D01*
X912920Y-11188293D02*
X912920Y-11140674D01*
X912920Y-11140674D02*
X922443Y-11102579D01*
X922443Y-11102579D02*
X931967Y-11083531D01*
X931967Y-11083531D02*
X941491Y-11074008D01*
X941491Y-11074008D02*
X960539Y-11064484D01*
X1112920Y-11264484D02*
X1112920Y-11131150D01*
X1112920Y-11150198D02*
X1122444Y-11140674D01*
X1122444Y-11140674D02*
X1141491Y-11131150D01*
X1141491Y-11131150D02*
X1170063Y-11131150D01*
X1170063Y-11131150D02*
X1189110Y-11140674D01*
X1189110Y-11140674D02*
X1198634Y-11159722D01*
X1198634Y-11159722D02*
X1198634Y-11264484D01*
X1198634Y-11159722D02*
X1208158Y-11140674D01*
X1208158Y-11140674D02*
X1227205Y-11131150D01*
X1227205Y-11131150D02*
X1255777Y-11131150D01*
X1255777Y-11131150D02*
X1274825Y-11140674D01*
X1274825Y-11140674D02*
X1284348Y-11159722D01*
X1284348Y-11159722D02*
X1284348Y-11264484D01*
X1379586Y-11264484D02*
X1379586Y-11131150D01*
X1379586Y-11150198D02*
X1389110Y-11140674D01*
X1389110Y-11140674D02*
X1408158Y-11131150D01*
X1408158Y-11131150D02*
X1436729Y-11131150D01*
X1436729Y-11131150D02*
X1455777Y-11140674D01*
X1455777Y-11140674D02*
X1465301Y-11159722D01*
X1465301Y-11159722D02*
X1465301Y-11264484D01*
X1465301Y-11159722D02*
X1474824Y-11140674D01*
X1474824Y-11140674D02*
X1493872Y-11131150D01*
X1493872Y-11131150D02*
X1522443Y-11131150D01*
X1522443Y-11131150D02*
X1541491Y-11140674D01*
X1541491Y-11140674D02*
X1551015Y-11159722D01*
X1551015Y-11159722D02*
X1551015Y-11264484D01*
X1941491Y-11054960D02*
X1770063Y-11312103D01*
X2198634Y-11064484D02*
X2217682Y-11064484D01*
X2217682Y-11064484D02*
X2236729Y-11074008D01*
X2236729Y-11074008D02*
X2246253Y-11083531D01*
X2246253Y-11083531D02*
X2255777Y-11102579D01*
X2255777Y-11102579D02*
X2265301Y-11140674D01*
X2265301Y-11140674D02*
X2265301Y-11188293D01*
X2265301Y-11188293D02*
X2255777Y-11226388D01*
X2255777Y-11226388D02*
X2246253Y-11245436D01*
X2246253Y-11245436D02*
X2236729Y-11254960D01*
X2236729Y-11254960D02*
X2217682Y-11264484D01*
X2217682Y-11264484D02*
X2198634Y-11264484D01*
X2198634Y-11264484D02*
X2179587Y-11254960D01*
X2179587Y-11254960D02*
X2170063Y-11245436D01*
X2170063Y-11245436D02*
X2160539Y-11226388D01*
X2160539Y-11226388D02*
X2151015Y-11188293D01*
X2151015Y-11188293D02*
X2151015Y-11140674D01*
X2151015Y-11140674D02*
X2160539Y-11102579D01*
X2160539Y-11102579D02*
X2170063Y-11083531D01*
X2170063Y-11083531D02*
X2179587Y-11074008D01*
X2179587Y-11074008D02*
X2198634Y-11064484D01*
X2351015Y-11245436D02*
X2360539Y-11254960D01*
X2360539Y-11254960D02*
X2351015Y-11264484D01*
X2351015Y-11264484D02*
X2341491Y-11254960D01*
X2341491Y-11254960D02*
X2351015Y-11245436D01*
X2351015Y-11245436D02*
X2351015Y-11264484D01*
X2484348Y-11064484D02*
X2503396Y-11064484D01*
X2503396Y-11064484D02*
X2522444Y-11074008D01*
X2522444Y-11074008D02*
X2531968Y-11083531D01*
X2531968Y-11083531D02*
X2541491Y-11102579D01*
X2541491Y-11102579D02*
X2551015Y-11140674D01*
X2551015Y-11140674D02*
X2551015Y-11188293D01*
X2551015Y-11188293D02*
X2541491Y-11226388D01*
X2541491Y-11226388D02*
X2531968Y-11245436D01*
X2531968Y-11245436D02*
X2522444Y-11254960D01*
X2522444Y-11254960D02*
X2503396Y-11264484D01*
X2503396Y-11264484D02*
X2484348Y-11264484D01*
X2484348Y-11264484D02*
X2465301Y-11254960D01*
X2465301Y-11254960D02*
X2455777Y-11245436D01*
X2455777Y-11245436D02*
X2446253Y-11226388D01*
X2446253Y-11226388D02*
X2436729Y-11188293D01*
X2436729Y-11188293D02*
X2436729Y-11140674D01*
X2436729Y-11140674D02*
X2446253Y-11102579D01*
X2446253Y-11102579D02*
X2455777Y-11083531D01*
X2455777Y-11083531D02*
X2465301Y-11074008D01*
X2465301Y-11074008D02*
X2484348Y-11064484D01*
X2617682Y-11064484D02*
X2741491Y-11064484D01*
X2741491Y-11064484D02*
X2674825Y-11140674D01*
X2674825Y-11140674D02*
X2703396Y-11140674D01*
X2703396Y-11140674D02*
X2722444Y-11150198D01*
X2722444Y-11150198D02*
X2731968Y-11159722D01*
X2731968Y-11159722D02*
X2741491Y-11178770D01*
X2741491Y-11178770D02*
X2741491Y-11226388D01*
X2741491Y-11226388D02*
X2731968Y-11245436D01*
X2731968Y-11245436D02*
X2722444Y-11254960D01*
X2722444Y-11254960D02*
X2703396Y-11264484D01*
X2703396Y-11264484D02*
X2646253Y-11264484D01*
X2646253Y-11264484D02*
X2627206Y-11254960D01*
X2627206Y-11254960D02*
X2617682Y-11245436D01*
X2836729Y-11264484D02*
X2874825Y-11264484D01*
X2874825Y-11264484D02*
X2893872Y-11254960D01*
X2893872Y-11254960D02*
X2903396Y-11245436D01*
X2903396Y-11245436D02*
X2922444Y-11216865D01*
X2922444Y-11216865D02*
X2931967Y-11178770D01*
X2931967Y-11178770D02*
X2931967Y-11102579D01*
X2931967Y-11102579D02*
X2922444Y-11083531D01*
X2922444Y-11083531D02*
X2912920Y-11074008D01*
X2912920Y-11074008D02*
X2893872Y-11064484D01*
X2893872Y-11064484D02*
X2855777Y-11064484D01*
X2855777Y-11064484D02*
X2836729Y-11074008D01*
X2836729Y-11074008D02*
X2827206Y-11083531D01*
X2827206Y-11083531D02*
X2817682Y-11102579D01*
X2817682Y-11102579D02*
X2817682Y-11150198D01*
X2817682Y-11150198D02*
X2827206Y-11169246D01*
X2827206Y-11169246D02*
X2836729Y-11178770D01*
X2836729Y-11178770D02*
X2855777Y-11188293D01*
X2855777Y-11188293D02*
X2893872Y-11188293D01*
X2893872Y-11188293D02*
X2912920Y-11178770D01*
X2912920Y-11178770D02*
X2922444Y-11169246D01*
X2922444Y-11169246D02*
X2931967Y-11150198D01*
X3103396Y-11131150D02*
X3103396Y-11264484D01*
X3055777Y-11054960D02*
X3008158Y-11197817D01*
X3008158Y-11197817D02*
X3131967Y-11197817D01*
X3198634Y-11064484D02*
X3198634Y-11102579D01*
X3274825Y-11064484D02*
X3274825Y-11102579D01*
X3570063Y-11340674D02*
X3560539Y-11331150D01*
X3560539Y-11331150D02*
X3541491Y-11302579D01*
X3541491Y-11302579D02*
X3531968Y-11283531D01*
X3531968Y-11283531D02*
X3522444Y-11254960D01*
X3522444Y-11254960D02*
X3512920Y-11207341D01*
X3512920Y-11207341D02*
X3512920Y-11169246D01*
X3512920Y-11169246D02*
X3522444Y-11121627D01*
X3522444Y-11121627D02*
X3531968Y-11093055D01*
X3531968Y-11093055D02*
X3541491Y-11074008D01*
X3541491Y-11074008D02*
X3560539Y-11045436D01*
X3560539Y-11045436D02*
X3570063Y-11035912D01*
X3627206Y-11064484D02*
X3760539Y-11064484D01*
X3760539Y-11064484D02*
X3674825Y-11264484D01*
X3817682Y-11064484D02*
X3941491Y-11064484D01*
X3941491Y-11064484D02*
X3874825Y-11140674D01*
X3874825Y-11140674D02*
X3903396Y-11140674D01*
X3903396Y-11140674D02*
X3922444Y-11150198D01*
X3922444Y-11150198D02*
X3931968Y-11159722D01*
X3931968Y-11159722D02*
X3941491Y-11178770D01*
X3941491Y-11178770D02*
X3941491Y-11226388D01*
X3941491Y-11226388D02*
X3931968Y-11245436D01*
X3931968Y-11245436D02*
X3922444Y-11254960D01*
X3922444Y-11254960D02*
X3903396Y-11264484D01*
X3903396Y-11264484D02*
X3846253Y-11264484D01*
X3846253Y-11264484D02*
X3827206Y-11254960D01*
X3827206Y-11254960D02*
X3817682Y-11245436D01*
X4017682Y-11083531D02*
X4027206Y-11074008D01*
X4027206Y-11074008D02*
X4046253Y-11064484D01*
X4046253Y-11064484D02*
X4093872Y-11064484D01*
X4093872Y-11064484D02*
X4112920Y-11074008D01*
X4112920Y-11074008D02*
X4122444Y-11083531D01*
X4122444Y-11083531D02*
X4131968Y-11102579D01*
X4131968Y-11102579D02*
X4131968Y-11121627D01*
X4131968Y-11121627D02*
X4122444Y-11150198D01*
X4122444Y-11150198D02*
X4008158Y-11264484D01*
X4008158Y-11264484D02*
X4131968Y-11264484D01*
X4370063Y-11264484D02*
X4370063Y-11064484D01*
X4455777Y-11264484D02*
X4455777Y-11159722D01*
X4455777Y-11159722D02*
X4446253Y-11140674D01*
X4446253Y-11140674D02*
X4427206Y-11131150D01*
X4427206Y-11131150D02*
X4398634Y-11131150D01*
X4398634Y-11131150D02*
X4379587Y-11140674D01*
X4379587Y-11140674D02*
X4370063Y-11150198D01*
X4579587Y-11264484D02*
X4560539Y-11254960D01*
X4560539Y-11254960D02*
X4551015Y-11245436D01*
X4551015Y-11245436D02*
X4541492Y-11226388D01*
X4541492Y-11226388D02*
X4541492Y-11169246D01*
X4541492Y-11169246D02*
X4551015Y-11150198D01*
X4551015Y-11150198D02*
X4560539Y-11140674D01*
X4560539Y-11140674D02*
X4579587Y-11131150D01*
X4579587Y-11131150D02*
X4608158Y-11131150D01*
X4608158Y-11131150D02*
X4627206Y-11140674D01*
X4627206Y-11140674D02*
X4636730Y-11150198D01*
X4636730Y-11150198D02*
X4646253Y-11169246D01*
X4646253Y-11169246D02*
X4646253Y-11226388D01*
X4646253Y-11226388D02*
X4636730Y-11245436D01*
X4636730Y-11245436D02*
X4627206Y-11254960D01*
X4627206Y-11254960D02*
X4608158Y-11264484D01*
X4608158Y-11264484D02*
X4579587Y-11264484D01*
X4760539Y-11264484D02*
X4741492Y-11254960D01*
X4741492Y-11254960D02*
X4731968Y-11235912D01*
X4731968Y-11235912D02*
X4731968Y-11064484D01*
X4912920Y-11254960D02*
X4893873Y-11264484D01*
X4893873Y-11264484D02*
X4855777Y-11264484D01*
X4855777Y-11264484D02*
X4836730Y-11254960D01*
X4836730Y-11254960D02*
X4827206Y-11235912D01*
X4827206Y-11235912D02*
X4827206Y-11159722D01*
X4827206Y-11159722D02*
X4836730Y-11140674D01*
X4836730Y-11140674D02*
X4855777Y-11131150D01*
X4855777Y-11131150D02*
X4893873Y-11131150D01*
X4893873Y-11131150D02*
X4912920Y-11140674D01*
X4912920Y-11140674D02*
X4922444Y-11159722D01*
X4922444Y-11159722D02*
X4922444Y-11178770D01*
X4922444Y-11178770D02*
X4827206Y-11197817D01*
X4998634Y-11254960D02*
X5017682Y-11264484D01*
X5017682Y-11264484D02*
X5055777Y-11264484D01*
X5055777Y-11264484D02*
X5074825Y-11254960D01*
X5074825Y-11254960D02*
X5084349Y-11235912D01*
X5084349Y-11235912D02*
X5084349Y-11226388D01*
X5084349Y-11226388D02*
X5074825Y-11207341D01*
X5074825Y-11207341D02*
X5055777Y-11197817D01*
X5055777Y-11197817D02*
X5027206Y-11197817D01*
X5027206Y-11197817D02*
X5008158Y-11188293D01*
X5008158Y-11188293D02*
X4998634Y-11169246D01*
X4998634Y-11169246D02*
X4998634Y-11159722D01*
X4998634Y-11159722D02*
X5008158Y-11140674D01*
X5008158Y-11140674D02*
X5027206Y-11131150D01*
X5027206Y-11131150D02*
X5055777Y-11131150D01*
X5055777Y-11131150D02*
X5074825Y-11140674D01*
X5151015Y-11340674D02*
X5160539Y-11331150D01*
X5160539Y-11331150D02*
X5179587Y-11302579D01*
X5179587Y-11302579D02*
X5189111Y-11283531D01*
X5189111Y-11283531D02*
X5198634Y-11254960D01*
X5198634Y-11254960D02*
X5208158Y-11207341D01*
X5208158Y-11207341D02*
X5208158Y-11169246D01*
X5208158Y-11169246D02*
X5198634Y-11121627D01*
X5198634Y-11121627D02*
X5189111Y-11093055D01*
X5189111Y-11093055D02*
X5179587Y-11074008D01*
X5179587Y-11074008D02*
X5160539Y-11045436D01*
X5160539Y-11045436D02*
X5151015Y-11035912D01*
X-34289Y-11507711D02*
X-34289Y-11366289D01*
X-175711Y-11366289D01*
X-175711Y-11507711D01*
X-34289Y-11507711D01*
X246253Y-11347531D02*
X255777Y-11338008D01*
X255777Y-11338008D02*
X274824Y-11328484D01*
X274824Y-11328484D02*
X322444Y-11328484D01*
X322444Y-11328484D02*
X341491Y-11338008D01*
X341491Y-11338008D02*
X351015Y-11347531D01*
X351015Y-11347531D02*
X360539Y-11366579D01*
X360539Y-11366579D02*
X360539Y-11385627D01*
X360539Y-11385627D02*
X351015Y-11414198D01*
X351015Y-11414198D02*
X236729Y-11528484D01*
X236729Y-11528484D02*
X360539Y-11528484D01*
X446253Y-11509436D02*
X455777Y-11518960D01*
X455777Y-11518960D02*
X446253Y-11528484D01*
X446253Y-11528484D02*
X436729Y-11518960D01*
X436729Y-11518960D02*
X446253Y-11509436D01*
X446253Y-11509436D02*
X446253Y-11528484D01*
X579586Y-11328484D02*
X598634Y-11328484D01*
X598634Y-11328484D02*
X617682Y-11338008D01*
X617682Y-11338008D02*
X627205Y-11347531D01*
X627205Y-11347531D02*
X636729Y-11366579D01*
X636729Y-11366579D02*
X646253Y-11404674D01*
X646253Y-11404674D02*
X646253Y-11452293D01*
X646253Y-11452293D02*
X636729Y-11490388D01*
X636729Y-11490388D02*
X627205Y-11509436D01*
X627205Y-11509436D02*
X617682Y-11518960D01*
X617682Y-11518960D02*
X598634Y-11528484D01*
X598634Y-11528484D02*
X579586Y-11528484D01*
X579586Y-11528484D02*
X560539Y-11518960D01*
X560539Y-11518960D02*
X551015Y-11509436D01*
X551015Y-11509436D02*
X541491Y-11490388D01*
X541491Y-11490388D02*
X531967Y-11452293D01*
X531967Y-11452293D02*
X531967Y-11404674D01*
X531967Y-11404674D02*
X541491Y-11366579D01*
X541491Y-11366579D02*
X551015Y-11347531D01*
X551015Y-11347531D02*
X560539Y-11338008D01*
X560539Y-11338008D02*
X579586Y-11328484D01*
X770062Y-11328484D02*
X789110Y-11328484D01*
X789110Y-11328484D02*
X808158Y-11338008D01*
X808158Y-11338008D02*
X817682Y-11347531D01*
X817682Y-11347531D02*
X827205Y-11366579D01*
X827205Y-11366579D02*
X836729Y-11404674D01*
X836729Y-11404674D02*
X836729Y-11452293D01*
X836729Y-11452293D02*
X827205Y-11490388D01*
X827205Y-11490388D02*
X817682Y-11509436D01*
X817682Y-11509436D02*
X808158Y-11518960D01*
X808158Y-11518960D02*
X789110Y-11528484D01*
X789110Y-11528484D02*
X770062Y-11528484D01*
X770062Y-11528484D02*
X751015Y-11518960D01*
X751015Y-11518960D02*
X741491Y-11509436D01*
X741491Y-11509436D02*
X731967Y-11490388D01*
X731967Y-11490388D02*
X722443Y-11452293D01*
X722443Y-11452293D02*
X722443Y-11404674D01*
X722443Y-11404674D02*
X731967Y-11366579D01*
X731967Y-11366579D02*
X741491Y-11347531D01*
X741491Y-11347531D02*
X751015Y-11338008D01*
X751015Y-11338008D02*
X770062Y-11328484D01*
X960539Y-11328484D02*
X979586Y-11328484D01*
X979586Y-11328484D02*
X998634Y-11338008D01*
X998634Y-11338008D02*
X1008158Y-11347531D01*
X1008158Y-11347531D02*
X1017682Y-11366579D01*
X1017682Y-11366579D02*
X1027205Y-11404674D01*
X1027205Y-11404674D02*
X1027205Y-11452293D01*
X1027205Y-11452293D02*
X1017682Y-11490388D01*
X1017682Y-11490388D02*
X1008158Y-11509436D01*
X1008158Y-11509436D02*
X998634Y-11518960D01*
X998634Y-11518960D02*
X979586Y-11528484D01*
X979586Y-11528484D02*
X960539Y-11528484D01*
X960539Y-11528484D02*
X941491Y-11518960D01*
X941491Y-11518960D02*
X931967Y-11509436D01*
X931967Y-11509436D02*
X922443Y-11490388D01*
X922443Y-11490388D02*
X912920Y-11452293D01*
X912920Y-11452293D02*
X912920Y-11404674D01*
X912920Y-11404674D02*
X922443Y-11366579D01*
X922443Y-11366579D02*
X931967Y-11347531D01*
X931967Y-11347531D02*
X941491Y-11338008D01*
X941491Y-11338008D02*
X960539Y-11328484D01*
X1112920Y-11528484D02*
X1112920Y-11395150D01*
X1112920Y-11414198D02*
X1122444Y-11404674D01*
X1122444Y-11404674D02*
X1141491Y-11395150D01*
X1141491Y-11395150D02*
X1170063Y-11395150D01*
X1170063Y-11395150D02*
X1189110Y-11404674D01*
X1189110Y-11404674D02*
X1198634Y-11423722D01*
X1198634Y-11423722D02*
X1198634Y-11528484D01*
X1198634Y-11423722D02*
X1208158Y-11404674D01*
X1208158Y-11404674D02*
X1227205Y-11395150D01*
X1227205Y-11395150D02*
X1255777Y-11395150D01*
X1255777Y-11395150D02*
X1274825Y-11404674D01*
X1274825Y-11404674D02*
X1284348Y-11423722D01*
X1284348Y-11423722D02*
X1284348Y-11528484D01*
X1379586Y-11528484D02*
X1379586Y-11395150D01*
X1379586Y-11414198D02*
X1389110Y-11404674D01*
X1389110Y-11404674D02*
X1408158Y-11395150D01*
X1408158Y-11395150D02*
X1436729Y-11395150D01*
X1436729Y-11395150D02*
X1455777Y-11404674D01*
X1455777Y-11404674D02*
X1465301Y-11423722D01*
X1465301Y-11423722D02*
X1465301Y-11528484D01*
X1465301Y-11423722D02*
X1474824Y-11404674D01*
X1474824Y-11404674D02*
X1493872Y-11395150D01*
X1493872Y-11395150D02*
X1522443Y-11395150D01*
X1522443Y-11395150D02*
X1541491Y-11404674D01*
X1541491Y-11404674D02*
X1551015Y-11423722D01*
X1551015Y-11423722D02*
X1551015Y-11528484D01*
X1941491Y-11318960D02*
X1770063Y-11576103D01*
X2198634Y-11328484D02*
X2217682Y-11328484D01*
X2217682Y-11328484D02*
X2236729Y-11338008D01*
X2236729Y-11338008D02*
X2246253Y-11347531D01*
X2246253Y-11347531D02*
X2255777Y-11366579D01*
X2255777Y-11366579D02*
X2265301Y-11404674D01*
X2265301Y-11404674D02*
X2265301Y-11452293D01*
X2265301Y-11452293D02*
X2255777Y-11490388D01*
X2255777Y-11490388D02*
X2246253Y-11509436D01*
X2246253Y-11509436D02*
X2236729Y-11518960D01*
X2236729Y-11518960D02*
X2217682Y-11528484D01*
X2217682Y-11528484D02*
X2198634Y-11528484D01*
X2198634Y-11528484D02*
X2179587Y-11518960D01*
X2179587Y-11518960D02*
X2170063Y-11509436D01*
X2170063Y-11509436D02*
X2160539Y-11490388D01*
X2160539Y-11490388D02*
X2151015Y-11452293D01*
X2151015Y-11452293D02*
X2151015Y-11404674D01*
X2151015Y-11404674D02*
X2160539Y-11366579D01*
X2160539Y-11366579D02*
X2170063Y-11347531D01*
X2170063Y-11347531D02*
X2179587Y-11338008D01*
X2179587Y-11338008D02*
X2198634Y-11328484D01*
X2351015Y-11509436D02*
X2360539Y-11518960D01*
X2360539Y-11518960D02*
X2351015Y-11528484D01*
X2351015Y-11528484D02*
X2341491Y-11518960D01*
X2341491Y-11518960D02*
X2351015Y-11509436D01*
X2351015Y-11509436D02*
X2351015Y-11528484D01*
X2484348Y-11328484D02*
X2503396Y-11328484D01*
X2503396Y-11328484D02*
X2522444Y-11338008D01*
X2522444Y-11338008D02*
X2531968Y-11347531D01*
X2531968Y-11347531D02*
X2541491Y-11366579D01*
X2541491Y-11366579D02*
X2551015Y-11404674D01*
X2551015Y-11404674D02*
X2551015Y-11452293D01*
X2551015Y-11452293D02*
X2541491Y-11490388D01*
X2541491Y-11490388D02*
X2531968Y-11509436D01*
X2531968Y-11509436D02*
X2522444Y-11518960D01*
X2522444Y-11518960D02*
X2503396Y-11528484D01*
X2503396Y-11528484D02*
X2484348Y-11528484D01*
X2484348Y-11528484D02*
X2465301Y-11518960D01*
X2465301Y-11518960D02*
X2455777Y-11509436D01*
X2455777Y-11509436D02*
X2446253Y-11490388D01*
X2446253Y-11490388D02*
X2436729Y-11452293D01*
X2436729Y-11452293D02*
X2436729Y-11404674D01*
X2436729Y-11404674D02*
X2446253Y-11366579D01*
X2446253Y-11366579D02*
X2455777Y-11347531D01*
X2455777Y-11347531D02*
X2465301Y-11338008D01*
X2465301Y-11338008D02*
X2484348Y-11328484D01*
X2617682Y-11328484D02*
X2751015Y-11328484D01*
X2751015Y-11328484D02*
X2665301Y-11528484D01*
X2855777Y-11414198D02*
X2836729Y-11404674D01*
X2836729Y-11404674D02*
X2827206Y-11395150D01*
X2827206Y-11395150D02*
X2817682Y-11376103D01*
X2817682Y-11376103D02*
X2817682Y-11366579D01*
X2817682Y-11366579D02*
X2827206Y-11347531D01*
X2827206Y-11347531D02*
X2836729Y-11338008D01*
X2836729Y-11338008D02*
X2855777Y-11328484D01*
X2855777Y-11328484D02*
X2893872Y-11328484D01*
X2893872Y-11328484D02*
X2912920Y-11338008D01*
X2912920Y-11338008D02*
X2922444Y-11347531D01*
X2922444Y-11347531D02*
X2931967Y-11366579D01*
X2931967Y-11366579D02*
X2931967Y-11376103D01*
X2931967Y-11376103D02*
X2922444Y-11395150D01*
X2922444Y-11395150D02*
X2912920Y-11404674D01*
X2912920Y-11404674D02*
X2893872Y-11414198D01*
X2893872Y-11414198D02*
X2855777Y-11414198D01*
X2855777Y-11414198D02*
X2836729Y-11423722D01*
X2836729Y-11423722D02*
X2827206Y-11433246D01*
X2827206Y-11433246D02*
X2817682Y-11452293D01*
X2817682Y-11452293D02*
X2817682Y-11490388D01*
X2817682Y-11490388D02*
X2827206Y-11509436D01*
X2827206Y-11509436D02*
X2836729Y-11518960D01*
X2836729Y-11518960D02*
X2855777Y-11528484D01*
X2855777Y-11528484D02*
X2893872Y-11528484D01*
X2893872Y-11528484D02*
X2912920Y-11518960D01*
X2912920Y-11518960D02*
X2922444Y-11509436D01*
X2922444Y-11509436D02*
X2931967Y-11490388D01*
X2931967Y-11490388D02*
X2931967Y-11452293D01*
X2931967Y-11452293D02*
X2922444Y-11433246D01*
X2922444Y-11433246D02*
X2912920Y-11423722D01*
X2912920Y-11423722D02*
X2893872Y-11414198D01*
X2998634Y-11328484D02*
X3131967Y-11328484D01*
X3131967Y-11328484D02*
X3046253Y-11528484D01*
X3198634Y-11328484D02*
X3198634Y-11366579D01*
X3274825Y-11328484D02*
X3274825Y-11366579D01*
X3570063Y-11604674D02*
X3560539Y-11595150D01*
X3560539Y-11595150D02*
X3541491Y-11566579D01*
X3541491Y-11566579D02*
X3531968Y-11547531D01*
X3531968Y-11547531D02*
X3522444Y-11518960D01*
X3522444Y-11518960D02*
X3512920Y-11471341D01*
X3512920Y-11471341D02*
X3512920Y-11433246D01*
X3512920Y-11433246D02*
X3522444Y-11385627D01*
X3522444Y-11385627D02*
X3531968Y-11357055D01*
X3531968Y-11357055D02*
X3541491Y-11338008D01*
X3541491Y-11338008D02*
X3560539Y-11309436D01*
X3560539Y-11309436D02*
X3570063Y-11299912D01*
X3684348Y-11328484D02*
X3703396Y-11328484D01*
X3703396Y-11328484D02*
X3722444Y-11338008D01*
X3722444Y-11338008D02*
X3731968Y-11347531D01*
X3731968Y-11347531D02*
X3741491Y-11366579D01*
X3741491Y-11366579D02*
X3751015Y-11404674D01*
X3751015Y-11404674D02*
X3751015Y-11452293D01*
X3751015Y-11452293D02*
X3741491Y-11490388D01*
X3741491Y-11490388D02*
X3731968Y-11509436D01*
X3731968Y-11509436D02*
X3722444Y-11518960D01*
X3722444Y-11518960D02*
X3703396Y-11528484D01*
X3703396Y-11528484D02*
X3684348Y-11528484D01*
X3684348Y-11528484D02*
X3665301Y-11518960D01*
X3665301Y-11518960D02*
X3655777Y-11509436D01*
X3655777Y-11509436D02*
X3646253Y-11490388D01*
X3646253Y-11490388D02*
X3636729Y-11452293D01*
X3636729Y-11452293D02*
X3636729Y-11404674D01*
X3636729Y-11404674D02*
X3646253Y-11366579D01*
X3646253Y-11366579D02*
X3655777Y-11347531D01*
X3655777Y-11347531D02*
X3665301Y-11338008D01*
X3665301Y-11338008D02*
X3684348Y-11328484D01*
X3989110Y-11528484D02*
X3989110Y-11328484D01*
X4074825Y-11528484D02*
X4074825Y-11423722D01*
X4074825Y-11423722D02*
X4065301Y-11404674D01*
X4065301Y-11404674D02*
X4046253Y-11395150D01*
X4046253Y-11395150D02*
X4017682Y-11395150D01*
X4017682Y-11395150D02*
X3998634Y-11404674D01*
X3998634Y-11404674D02*
X3989110Y-11414198D01*
X4198634Y-11528484D02*
X4179587Y-11518960D01*
X4179587Y-11518960D02*
X4170063Y-11509436D01*
X4170063Y-11509436D02*
X4160539Y-11490388D01*
X4160539Y-11490388D02*
X4160539Y-11433246D01*
X4160539Y-11433246D02*
X4170063Y-11414198D01*
X4170063Y-11414198D02*
X4179587Y-11404674D01*
X4179587Y-11404674D02*
X4198634Y-11395150D01*
X4198634Y-11395150D02*
X4227206Y-11395150D01*
X4227206Y-11395150D02*
X4246253Y-11404674D01*
X4246253Y-11404674D02*
X4255777Y-11414198D01*
X4255777Y-11414198D02*
X4265301Y-11433246D01*
X4265301Y-11433246D02*
X4265301Y-11490388D01*
X4265301Y-11490388D02*
X4255777Y-11509436D01*
X4255777Y-11509436D02*
X4246253Y-11518960D01*
X4246253Y-11518960D02*
X4227206Y-11528484D01*
X4227206Y-11528484D02*
X4198634Y-11528484D01*
X4379587Y-11528484D02*
X4360539Y-11518960D01*
X4360539Y-11518960D02*
X4351015Y-11499912D01*
X4351015Y-11499912D02*
X4351015Y-11328484D01*
X4531968Y-11518960D02*
X4512920Y-11528484D01*
X4512920Y-11528484D02*
X4474825Y-11528484D01*
X4474825Y-11528484D02*
X4455777Y-11518960D01*
X4455777Y-11518960D02*
X4446253Y-11499912D01*
X4446253Y-11499912D02*
X4446253Y-11423722D01*
X4446253Y-11423722D02*
X4455777Y-11404674D01*
X4455777Y-11404674D02*
X4474825Y-11395150D01*
X4474825Y-11395150D02*
X4512920Y-11395150D01*
X4512920Y-11395150D02*
X4531968Y-11404674D01*
X4531968Y-11404674D02*
X4541492Y-11423722D01*
X4541492Y-11423722D02*
X4541492Y-11442769D01*
X4541492Y-11442769D02*
X4446253Y-11461817D01*
X4617682Y-11518960D02*
X4636730Y-11528484D01*
X4636730Y-11528484D02*
X4674825Y-11528484D01*
X4674825Y-11528484D02*
X4693873Y-11518960D01*
X4693873Y-11518960D02*
X4703396Y-11499912D01*
X4703396Y-11499912D02*
X4703396Y-11490388D01*
X4703396Y-11490388D02*
X4693873Y-11471341D01*
X4693873Y-11471341D02*
X4674825Y-11461817D01*
X4674825Y-11461817D02*
X4646253Y-11461817D01*
X4646253Y-11461817D02*
X4627206Y-11452293D01*
X4627206Y-11452293D02*
X4617682Y-11433246D01*
X4617682Y-11433246D02*
X4617682Y-11423722D01*
X4617682Y-11423722D02*
X4627206Y-11404674D01*
X4627206Y-11404674D02*
X4646253Y-11395150D01*
X4646253Y-11395150D02*
X4674825Y-11395150D01*
X4674825Y-11395150D02*
X4693873Y-11404674D01*
X4941492Y-11452293D02*
X5093873Y-11452293D01*
X5017682Y-11528484D02*
X5017682Y-11376103D01*
X5331968Y-11347531D02*
X5341492Y-11338008D01*
X5341492Y-11338008D02*
X5360539Y-11328484D01*
X5360539Y-11328484D02*
X5408158Y-11328484D01*
X5408158Y-11328484D02*
X5427206Y-11338008D01*
X5427206Y-11338008D02*
X5436730Y-11347531D01*
X5436730Y-11347531D02*
X5446254Y-11366579D01*
X5446254Y-11366579D02*
X5446254Y-11385627D01*
X5446254Y-11385627D02*
X5436730Y-11414198D01*
X5436730Y-11414198D02*
X5322444Y-11528484D01*
X5322444Y-11528484D02*
X5446254Y-11528484D01*
X5674825Y-11518960D02*
X5693873Y-11528484D01*
X5693873Y-11528484D02*
X5731968Y-11528484D01*
X5731968Y-11528484D02*
X5751015Y-11518960D01*
X5751015Y-11518960D02*
X5760539Y-11499912D01*
X5760539Y-11499912D02*
X5760539Y-11490388D01*
X5760539Y-11490388D02*
X5751015Y-11471341D01*
X5751015Y-11471341D02*
X5731968Y-11461817D01*
X5731968Y-11461817D02*
X5703396Y-11461817D01*
X5703396Y-11461817D02*
X5684349Y-11452293D01*
X5684349Y-11452293D02*
X5674825Y-11433246D01*
X5674825Y-11433246D02*
X5674825Y-11423722D01*
X5674825Y-11423722D02*
X5684349Y-11404674D01*
X5684349Y-11404674D02*
X5703396Y-11395150D01*
X5703396Y-11395150D02*
X5731968Y-11395150D01*
X5731968Y-11395150D02*
X5751015Y-11404674D01*
X5874825Y-11528484D02*
X5855777Y-11518960D01*
X5855777Y-11518960D02*
X5846254Y-11499912D01*
X5846254Y-11499912D02*
X5846254Y-11328484D01*
X5979587Y-11528484D02*
X5960539Y-11518960D01*
X5960539Y-11518960D02*
X5951015Y-11509436D01*
X5951015Y-11509436D02*
X5941492Y-11490388D01*
X5941492Y-11490388D02*
X5941492Y-11433246D01*
X5941492Y-11433246D02*
X5951015Y-11414198D01*
X5951015Y-11414198D02*
X5960539Y-11404674D01*
X5960539Y-11404674D02*
X5979587Y-11395150D01*
X5979587Y-11395150D02*
X6008158Y-11395150D01*
X6008158Y-11395150D02*
X6027206Y-11404674D01*
X6027206Y-11404674D02*
X6036730Y-11414198D01*
X6036730Y-11414198D02*
X6046254Y-11433246D01*
X6046254Y-11433246D02*
X6046254Y-11490388D01*
X6046254Y-11490388D02*
X6036730Y-11509436D01*
X6036730Y-11509436D02*
X6027206Y-11518960D01*
X6027206Y-11518960D02*
X6008158Y-11528484D01*
X6008158Y-11528484D02*
X5979587Y-11528484D01*
X6103396Y-11395150D02*
X6179587Y-11395150D01*
X6131968Y-11328484D02*
X6131968Y-11499912D01*
X6131968Y-11499912D02*
X6141492Y-11518960D01*
X6141492Y-11518960D02*
X6160539Y-11528484D01*
X6160539Y-11528484D02*
X6179587Y-11528484D01*
X6236730Y-11518960D02*
X6255777Y-11528484D01*
X6255777Y-11528484D02*
X6293873Y-11528484D01*
X6293873Y-11528484D02*
X6312920Y-11518960D01*
X6312920Y-11518960D02*
X6322444Y-11499912D01*
X6322444Y-11499912D02*
X6322444Y-11490388D01*
X6322444Y-11490388D02*
X6312920Y-11471341D01*
X6312920Y-11471341D02*
X6293873Y-11461817D01*
X6293873Y-11461817D02*
X6265301Y-11461817D01*
X6265301Y-11461817D02*
X6246254Y-11452293D01*
X6246254Y-11452293D02*
X6236730Y-11433246D01*
X6236730Y-11433246D02*
X6236730Y-11423722D01*
X6236730Y-11423722D02*
X6246254Y-11404674D01*
X6246254Y-11404674D02*
X6265301Y-11395150D01*
X6265301Y-11395150D02*
X6293873Y-11395150D01*
X6293873Y-11395150D02*
X6312920Y-11404674D01*
X6389111Y-11604674D02*
X6398635Y-11595150D01*
X6398635Y-11595150D02*
X6417682Y-11566579D01*
X6417682Y-11566579D02*
X6427206Y-11547531D01*
X6427206Y-11547531D02*
X6436730Y-11518960D01*
X6436730Y-11518960D02*
X6446254Y-11471341D01*
X6446254Y-11471341D02*
X6446254Y-11433246D01*
X6446254Y-11433246D02*
X6436730Y-11385627D01*
X6436730Y-11385627D02*
X6427206Y-11357055D01*
X6427206Y-11357055D02*
X6417682Y-11338008D01*
X6417682Y-11338008D02*
X6398635Y-11309436D01*
X6398635Y-11309436D02*
X6389111Y-11299912D01*
M02*
