%TF.GenerationSoftware,KiCad,Pcbnew,9.0.6*%
%TF.CreationDate,2026-03-25T19:20:26+01:00*%
%TF.ProjectId,proto_70x100_unconnected,70726f74-6f5f-4373-9078-3130305f756e,rev?*%
%TF.SameCoordinates,Original*%
%TF.FileFunction,Copper,L1,Top*%
%TF.FilePolarity,Positive*%
%FSLAX46Y46*%
G04 Gerber Fmt 4.6, Leading zero omitted, Abs format (unit mm)*
G04 Created by KiCad (PCBNEW 9.0.6) date 2026-03-25 19:20:26*
%MOMM*%
%LPD*%
G01*
G04 APERTURE LIST*
%TA.AperFunction,ComponentPad*%
%ADD10C,1.800000*%
%TD*%
%TA.AperFunction,ComponentPad*%
%ADD11O,10.000000X12.000000*%
%TD*%
%TA.AperFunction,ViaPad*%
%ADD12C,0.600000*%
%TD*%
%TA.AperFunction,ViaPad*%
%ADD13C,0.800000*%
%TD*%
%TA.AperFunction,Conductor*%
%ADD14C,0.500000*%
%TD*%
%TA.AperFunction,Conductor*%
%ADD15C,1.500000*%
%TD*%
%TA.AperFunction,Conductor*%
%ADD16C,2.000000*%
%TD*%
G04 APERTURE END LIST*
D10*
%TO.P,P,1*%
%TO.N,N/C*%
X36270000Y-41110000D03*
%TD*%
%TO.P,P,1*%
%TO.N,N/C*%
X8330000Y-56350000D03*
%TD*%
%TO.P,P,1*%
%TO.N,N/C*%
X10870000Y-43650000D03*
%TD*%
%TO.P,P,1*%
%TO.N,N/C*%
X15950000Y-23330000D03*
%TD*%
%TO.P,P,1*%
%TO.N,N/C*%
X23570000Y-61430000D03*
%TD*%
%TO.P,P,1*%
%TO.N,N/C*%
X31190000Y-74130000D03*
%TD*%
%TO.P,P,1*%
%TO.N,N/C*%
X15950000Y-61430000D03*
%TD*%
%TO.P,P,1*%
%TO.N,N/C*%
X56590000Y-43650000D03*
%TD*%
%TO.P,P,1*%
%TO.N,N/C*%
X59130000Y-36030000D03*
%TD*%
%TO.P,P,1*%
%TO.N,N/C*%
X48970000Y-53810000D03*
%TD*%
%TO.P,P,1*%
%TO.N,N/C*%
X28650000Y-58890000D03*
%TD*%
%TO.P,P,1*%
%TO.N,N/C*%
X56590000Y-30950000D03*
%TD*%
%TO.P,P,1*%
%TO.N,N/C*%
X18490000Y-13170000D03*
%TD*%
%TO.P,P,1*%
%TO.N,N/C*%
X28650000Y-10630000D03*
%TD*%
%TO.P,P,1*%
%TO.N,N/C*%
X36270000Y-76670000D03*
%TD*%
%TO.P,P,1*%
%TO.N,N/C*%
X38810000Y-23330000D03*
%TD*%
%TO.P,P,1*%
%TO.N,N/C*%
X26110000Y-46190000D03*
%TD*%
%TO.P,P,1*%
%TO.N,N/C*%
X51510000Y-28410000D03*
%TD*%
%TO.P,P,1*%
%TO.N,GND*%
X64210000Y-56350000D03*
%TD*%
%TO.P,P,1*%
%TO.N,N/C*%
X8330000Y-28410000D03*
%TD*%
%TO.P,P,1*%
%TO.N,N/C*%
X18490000Y-8090000D03*
%TD*%
%TO.P,P,1*%
%TO.N,N/C*%
X46430000Y-56350000D03*
%TD*%
%TO.P,P,1*%
%TO.N,N/C*%
X23570000Y-79210000D03*
%TD*%
%TO.P,P,1*%
%TO.N,N/C*%
X33730000Y-46190000D03*
%TD*%
%TO.P,P,1*%
%TO.N,N/C*%
X41350000Y-18250000D03*
%TD*%
%TO.P,P,1*%
%TO.N,N/C*%
X10870000Y-41110000D03*
%TD*%
%TO.P,P,1*%
%TO.N,N/C*%
X46430000Y-74130000D03*
%TD*%
%TO.P,P,1*%
%TO.N,N/C*%
X56590000Y-15710000D03*
%TD*%
%TO.P,P,1*%
%TO.N,N/C*%
X18490000Y-74130000D03*
%TD*%
%TO.P,P,1*%
%TO.N,N/C*%
X51510000Y-20790000D03*
%TD*%
%TO.P,P,1*%
%TO.N,N/C*%
X33730000Y-13170000D03*
%TD*%
%TO.P,P,1*%
%TO.N,N/C*%
X59130000Y-58890000D03*
%TD*%
%TO.P,P,1*%
%TO.N,N/C*%
X26110000Y-56350000D03*
%TD*%
%TO.P,P,1*%
%TO.N,N/C*%
X36270000Y-71590000D03*
%TD*%
%TO.P,P,1*%
%TO.N,N/C*%
X54050000Y-58890000D03*
%TD*%
%TO.P,P,1*%
%TO.N,N/C*%
X28650000Y-25870000D03*
%TD*%
%TO.P,P,1*%
%TO.N,N/C*%
X61670000Y-8090000D03*
%TD*%
%TO.P,P,1*%
%TO.N,N/C*%
X43890000Y-25870000D03*
%TD*%
%TO.P,P,1*%
%TO.N,N/C*%
X8330000Y-5550000D03*
%TD*%
%TO.P,P,1*%
%TO.N,N/C*%
X33730000Y-56350000D03*
%TD*%
%TO.P,P,1*%
%TO.N,N/C*%
X46430000Y-23330000D03*
%TD*%
%TO.P,P,1*%
%TO.N,N/C*%
X36270000Y-56350000D03*
%TD*%
%TO.P,P,1*%
%TO.N,N/C*%
X15950000Y-58890000D03*
%TD*%
%TO.P,P,1*%
%TO.N,N/C*%
X13410000Y-63970000D03*
%TD*%
%TO.P,P,1*%
%TO.N,N/C*%
X41350000Y-5550000D03*
%TD*%
%TO.P,P,1*%
%TO.N,GND*%
X5790000Y-25870000D03*
%TD*%
%TO.P,P,1*%
%TO.N,N/C*%
X43890000Y-41110000D03*
%TD*%
%TO.P,P,1*%
%TO.N,N/C*%
X36270000Y-25870000D03*
%TD*%
%TO.P,P,1*%
%TO.N,N/C*%
X38810000Y-79210000D03*
%TD*%
%TO.P,P,1*%
%TO.N,N/C*%
X54050000Y-8090000D03*
%TD*%
%TO.P,P,1*%
%TO.N,N/C*%
X8330000Y-61430000D03*
%TD*%
%TO.P,P,1*%
%TO.N,N/C*%
X31190000Y-20790000D03*
%TD*%
%TO.P,P,1*%
%TO.N,N/C*%
X23570000Y-66510000D03*
%TD*%
%TO.P,P,1*%
%TO.N,VCC*%
X5790000Y-74130000D03*
%TD*%
%TO.P,P,1*%
%TO.N,N/C*%
X26110000Y-18250000D03*
%TD*%
%TO.P,P,1*%
%TO.N,N/C*%
X33730000Y-25870000D03*
%TD*%
%TO.P,P,1*%
%TO.N,N/C*%
X59130000Y-71590000D03*
%TD*%
%TO.P,P,1*%
%TO.N,N/C*%
X28650000Y-48730000D03*
%TD*%
%TO.P,P,1*%
%TO.N,N/C*%
X48970000Y-48730000D03*
%TD*%
%TO.P,P,1*%
%TO.N,N/C*%
X18490000Y-46190000D03*
%TD*%
%TO.P,P,1*%
%TO.N,N/C*%
X41350000Y-79210000D03*
%TD*%
%TO.P,P,1*%
%TO.N,N/C*%
X26110000Y-66510000D03*
%TD*%
%TO.P,P,1*%
%TO.N,N/C*%
X54050000Y-5550000D03*
%TD*%
%TO.P,P,1*%
%TO.N,N/C*%
X38810000Y-18250000D03*
%TD*%
%TO.P,P,1*%
%TO.N,N/C*%
X48970000Y-38570000D03*
%TD*%
%TO.P,P,1*%
%TO.N,N/C*%
X28650000Y-51270000D03*
%TD*%
%TO.P,P,1*%
%TO.N,N/C*%
X61670000Y-18250000D03*
%TD*%
%TO.P,P,1*%
%TO.N,N/C*%
X43890000Y-63970000D03*
%TD*%
%TO.P,P,1*%
%TO.N,N/C*%
X56590000Y-74130000D03*
%TD*%
%TO.P,P,1*%
%TO.N,N/C*%
X36270000Y-66510000D03*
%TD*%
%TO.P,P,1*%
%TO.N,N/C*%
X18490000Y-71590000D03*
%TD*%
%TO.P,P,1*%
%TO.N,N/C*%
X10870000Y-51270000D03*
%TD*%
%TO.P,P,1*%
%TO.N,N/C*%
X31190000Y-15710000D03*
%TD*%
%TO.P,P,1*%
%TO.N,GND*%
X64210000Y-38570000D03*
%TD*%
%TO.P,P,1*%
%TO.N,N/C*%
X23570000Y-23330000D03*
%TD*%
%TO.P,P,1*%
%TO.N,N/C*%
X18490000Y-41110000D03*
%TD*%
%TO.P,P,1*%
%TO.N,N/C*%
X21030000Y-10630000D03*
%TD*%
%TO.P,P,1*%
%TO.N,N/C*%
X23570000Y-8090000D03*
%TD*%
%TO.P,P,1*%
%TO.N,N/C*%
X51510000Y-63970000D03*
%TD*%
%TO.P,P,1*%
%TO.N,N/C*%
X46430000Y-33490000D03*
%TD*%
%TO.P,P,1*%
%TO.N,N/C*%
X46430000Y-66510000D03*
%TD*%
%TO.P,P,1*%
%TO.N,VCC*%
X64210000Y-20790000D03*
%TD*%
%TO.P,P,1*%
%TO.N,N/C*%
X10870000Y-13170000D03*
%TD*%
%TO.P,P,1*%
%TO.N,N/C*%
X51510000Y-8090000D03*
%TD*%
%TO.P,P,1*%
%TO.N,N/C*%
X26110000Y-51270000D03*
%TD*%
%TO.P,P,1*%
%TO.N,N/C*%
X15950000Y-46190000D03*
%TD*%
%TO.P,P,1*%
%TO.N,N/C*%
X36270000Y-10630000D03*
%TD*%
%TO.P,P,1*%
%TO.N,N/C*%
X61670000Y-58890000D03*
%TD*%
%TO.P,P,1*%
%TO.N,N/C*%
X36270000Y-74130000D03*
%TD*%
%TO.P,P,1*%
%TO.N,N/C*%
X10870000Y-69050000D03*
%TD*%
%TO.P,P,1*%
%TO.N,N/C*%
X18490000Y-58890000D03*
%TD*%
%TO.P,P,1*%
%TO.N,N/C*%
X41350000Y-43650000D03*
%TD*%
%TO.P,P,1*%
%TO.N,N/C*%
X36270000Y-13170000D03*
%TD*%
%TO.P,P,1*%
%TO.N,N/C*%
X61670000Y-63970000D03*
%TD*%
%TO.P,P,1*%
%TO.N,N/C*%
X31190000Y-71590000D03*
%TD*%
%TO.P,P,1*%
%TO.N,N/C*%
X54050000Y-28410000D03*
%TD*%
%TO.P,P,1*%
%TO.N,N/C*%
X26110000Y-13170000D03*
%TD*%
%TO.P,P,1*%
%TO.N,N/C*%
X61670000Y-30950000D03*
%TD*%
%TO.P,P,1*%
%TO.N,N/C*%
X21030000Y-63970000D03*
%TD*%
%TO.P,P,1*%
%TO.N,N/C*%
X61670000Y-5550000D03*
%TD*%
%TO.P,P,1*%
%TO.N,N/C*%
X10870000Y-23330000D03*
%TD*%
%TO.P,P,1*%
%TO.N,N/C*%
X38810000Y-8090000D03*
%TD*%
%TO.P,P,1*%
%TO.N,N/C*%
X8330000Y-43650000D03*
%TD*%
%TO.P,P,1*%
%TO.N,N/C*%
X13410000Y-74130000D03*
%TD*%
%TO.P,P,1*%
%TO.N,N/C*%
X23570000Y-15710000D03*
%TD*%
%TO.P,P,1*%
%TO.N,N/C*%
X38810000Y-43650000D03*
%TD*%
%TO.P,P,1*%
%TO.N,N/C*%
X36270000Y-23330000D03*
%TD*%
%TO.P,P,1*%
%TO.N,N/C*%
X28650000Y-36030000D03*
%TD*%
%TO.P,P,1*%
%TO.N,N/C*%
X10870000Y-76670000D03*
%TD*%
%TO.P,P,1*%
%TO.N,N/C*%
X38810000Y-66510000D03*
%TD*%
%TO.P,P,1*%
%TO.N,VCC*%
X5790000Y-63970000D03*
%TD*%
%TO.P,P,1*%
%TO.N,N/C*%
X46430000Y-46190000D03*
%TD*%
%TO.P,P,1*%
%TO.N,N/C*%
X28650000Y-76670000D03*
%TD*%
%TO.P,P,1*%
%TO.N,N/C*%
X61670000Y-23330000D03*
%TD*%
%TO.P,P,1*%
%TO.N,N/C*%
X48970000Y-23330000D03*
%TD*%
%TO.P,P,1*%
%TO.N,N/C*%
X21030000Y-51270000D03*
%TD*%
%TO.P,P,1*%
%TO.N,VCC*%
X64210000Y-30950000D03*
%TD*%
%TO.P,P,1*%
%TO.N,N/C*%
X26110000Y-10630000D03*
%TD*%
%TO.P,P,1*%
%TO.N,N/C*%
X54050000Y-66510000D03*
%TD*%
%TO.P,P,1*%
%TO.N,N/C*%
X26110000Y-20790000D03*
%TD*%
%TO.P,P,1*%
%TO.N,N/C*%
X36270000Y-51270000D03*
%TD*%
%TO.P,P,1*%
%TO.N,N/C*%
X13410000Y-41110000D03*
%TD*%
%TO.P,P,1*%
%TO.N,N/C*%
X61670000Y-41110000D03*
%TD*%
%TO.P,P,1*%
%TO.N,N/C*%
X61670000Y-53810000D03*
%TD*%
%TO.P,P,1*%
%TO.N,N/C*%
X23570000Y-28410000D03*
%TD*%
%TO.P,P,1*%
%TO.N,N/C*%
X46430000Y-10630000D03*
%TD*%
%TO.P,P,1*%
%TO.N,N/C*%
X31190000Y-23330000D03*
%TD*%
%TO.P,P,1*%
%TO.N,GND*%
X64210000Y-36030000D03*
%TD*%
%TO.P,P,1*%
%TO.N,N/C*%
X41350000Y-25870000D03*
%TD*%
%TO.P,P,1*%
%TO.N,N/C*%
X51510000Y-10630000D03*
%TD*%
%TO.P,P,1*%
%TO.N,VCC*%
X5790000Y-10630000D03*
%TD*%
%TO.P,P,1*%
%TO.N,N/C*%
X33730000Y-63970000D03*
%TD*%
%TO.P,P,1*%
%TO.N,GND*%
X5790000Y-58890000D03*
%TD*%
%TO.P,P,1*%
%TO.N,N/C*%
X56590000Y-36030000D03*
%TD*%
%TO.P,P,1*%
%TO.N,N/C*%
X28650000Y-43650000D03*
%TD*%
%TO.P,P,1*%
%TO.N,N/C*%
X18490000Y-56350000D03*
%TD*%
%TO.P,P,1*%
%TO.N,N/C*%
X41350000Y-28410000D03*
%TD*%
%TO.P,P,1*%
%TO.N,N/C*%
X10870000Y-79210000D03*
%TD*%
%TO.P,P,1*%
%TO.N,N/C*%
X46430000Y-76670000D03*
%TD*%
%TO.P,P,1*%
%TO.N,N/C*%
X56590000Y-13170000D03*
%TD*%
%TO.P,P,1*%
%TO.N,N/C*%
X28650000Y-28410000D03*
%TD*%
%TO.P,P,1*%
%TO.N,N/C*%
X13410000Y-10630000D03*
%TD*%
%TO.P,P,1*%
%TO.N,N/C*%
X36270000Y-48730000D03*
%TD*%
%TO.P,P,1*%
%TO.N,N/C*%
X18490000Y-10630000D03*
%TD*%
%TO.P,P,1*%
%TO.N,N/C*%
X43890000Y-74130000D03*
%TD*%
%TO.P,P,1*%
%TO.N,N/C*%
X10870000Y-28410000D03*
%TD*%
%TO.P,P,1*%
%TO.N,N/C*%
X26110000Y-61430000D03*
%TD*%
%TO.P,P,1*%
%TO.N,N/C*%
X21030000Y-43650000D03*
%TD*%
%TO.P,P,1*%
%TO.N,GND*%
X5790000Y-15710000D03*
%TD*%
%TO.P,P,1*%
%TO.N,VCC*%
X5790000Y-20790000D03*
%TD*%
%TO.P,P,1*%
%TO.N,N/C*%
X8330000Y-20790000D03*
%TD*%
%TO.P,P,1*%
%TO.N,N/C*%
X21030000Y-8090000D03*
%TD*%
%TO.P,P,1*%
%TO.N,N/C*%
X23570000Y-74130000D03*
%TD*%
%TO.P,P,1*%
%TO.N,N/C*%
X31190000Y-66510000D03*
%TD*%
%TO.P,P,1*%
%TO.N,VCC*%
X64210000Y-10630000D03*
%TD*%
%TO.P,P,1*%
%TO.N,N/C*%
X54050000Y-13170000D03*
%TD*%
%TO.P,P,1*%
%TO.N,N/C*%
X18490000Y-51270000D03*
%TD*%
%TO.P,P,1*%
%TO.N,N/C*%
X26110000Y-5550000D03*
%TD*%
%TO.P,P,1*%
%TO.N,N/C*%
X33730000Y-20790000D03*
%TD*%
%TO.P,P,1*%
%TO.N,VCC*%
X64210000Y-43650000D03*
%TD*%
%TO.P,P,1*%
%TO.N,GND*%
X64210000Y-48730000D03*
%TD*%
%TO.P,P,1*%
%TO.N,N/C*%
X10870000Y-15710000D03*
%TD*%
%TO.P,P,1*%
%TO.N,N/C*%
X43890000Y-38570000D03*
%TD*%
%TO.P,P,1*%
%TO.N,N/C*%
X41350000Y-71590000D03*
%TD*%
%TO.P,P,1*%
%TO.N,N/C*%
X18490000Y-61430000D03*
%TD*%
%TO.P,P,1*%
%TO.N,N/C*%
X41350000Y-76670000D03*
%TD*%
%TO.P,P,1*%
%TO.N,N/C*%
X48970000Y-18250000D03*
%TD*%
%TO.P,P,1*%
%TO.N,N/C*%
X54050000Y-38570000D03*
%TD*%
%TO.P,P,1*%
%TO.N,N/C*%
X56590000Y-41110000D03*
%TD*%
%TO.P,P,1*%
%TO.N,N/C*%
X33730000Y-66510000D03*
%TD*%
%TO.P,P,1*%
%TO.N,N/C*%
X36270000Y-79210000D03*
%TD*%
%TO.P,P,1*%
%TO.N,N/C*%
X13410000Y-46190000D03*
%TD*%
%TO.P,P,1*%
%TO.N,N/C*%
X48970000Y-10630000D03*
%TD*%
%TO.P,P,1*%
%TO.N,N/C*%
X10870000Y-30950000D03*
%TD*%
%TO.P,P,1*%
%TO.N,N/C*%
X15950000Y-5550000D03*
%TD*%
%TO.P,P,1*%
%TO.N,N/C*%
X51510000Y-5550000D03*
%TD*%
%TO.P,P,1*%
%TO.N,N/C*%
X15950000Y-8090000D03*
%TD*%
%TO.P,P,1*%
%TO.N,N/C*%
X13410000Y-23330000D03*
%TD*%
%TO.P,P,1*%
%TO.N,N/C*%
X8330000Y-8090000D03*
%TD*%
%TO.P,P,1*%
%TO.N,N/C*%
X51510000Y-43650000D03*
%TD*%
%TO.P,P,1*%
%TO.N,N/C*%
X54050000Y-76670000D03*
%TD*%
%TO.P,P,1*%
%TO.N,N/C*%
X43890000Y-76670000D03*
%TD*%
%TO.P,P,1*%
%TO.N,N/C*%
X26110000Y-43650000D03*
%TD*%
%TO.P,P,1*%
%TO.N,N/C*%
X48970000Y-66510000D03*
%TD*%
%TO.P,P,1*%
%TO.N,N/C*%
X56590000Y-71590000D03*
%TD*%
%TO.P,P,1*%
%TO.N,N/C*%
X8330000Y-15710000D03*
%TD*%
%TO.P,P,1*%
%TO.N,N/C*%
X21030000Y-18250000D03*
%TD*%
%TO.P,P,1*%
%TO.N,N/C*%
X38810000Y-76670000D03*
%TD*%
%TO.P,P,1*%
%TO.N,N/C*%
X26110000Y-69050000D03*
%TD*%
%TO.P,P,1*%
%TO.N,N/C*%
X51510000Y-58890000D03*
%TD*%
%TO.P,P,1*%
%TO.N,N/C*%
X21030000Y-74130000D03*
%TD*%
%TO.P,P,1*%
%TO.N,N/C*%
X46430000Y-58890000D03*
%TD*%
%TO.P,P,1*%
%TO.N,N/C*%
X31190000Y-58890000D03*
%TD*%
%TO.P,P,1*%
%TO.N,N/C*%
X23570000Y-18250000D03*
%TD*%
%TO.P,P,1*%
%TO.N,N/C*%
X31190000Y-43650000D03*
%TD*%
%TO.P,P,1*%
%TO.N,GND*%
X5790000Y-28410000D03*
%TD*%
%TO.P,P,1*%
%TO.N,N/C*%
X28650000Y-18250000D03*
%TD*%
%TO.P,P,1*%
%TO.N,N/C*%
X48970000Y-74130000D03*
%TD*%
%TO.P,P,1*%
%TO.N,VCC*%
X5790000Y-33490000D03*
%TD*%
%TO.P,P,1*%
%TO.N,N/C*%
X48970000Y-25870000D03*
%TD*%
%TO.P,P,1*%
%TO.N,N/C*%
X54050000Y-15710000D03*
%TD*%
%TO.P,P,1*%
%TO.N,N/C*%
X48970000Y-30950000D03*
%TD*%
%TO.P,P,1*%
%TO.N,N/C*%
X54050000Y-33490000D03*
%TD*%
%TO.P,P,1*%
%TO.N,N/C*%
X8330000Y-33490000D03*
%TD*%
%TO.P,P,1*%
%TO.N,N/C*%
X38810000Y-74130000D03*
%TD*%
%TO.P,P,1*%
%TO.N,N/C*%
X31190000Y-8090000D03*
%TD*%
%TO.P,P,1*%
%TO.N,N/C*%
X61670000Y-25870000D03*
%TD*%
%TO.P,P,1*%
%TO.N,N/C*%
X41350000Y-10630000D03*
%TD*%
%TO.P,P,1*%
%TO.N,N/C*%
X10870000Y-8090000D03*
%TD*%
%TO.P,P,1*%
%TO.N,N/C*%
X54050000Y-63970000D03*
%TD*%
%TO.P,P,1*%
%TO.N,N/C*%
X48970000Y-41110000D03*
%TD*%
%TO.P,P,1*%
%TO.N,N/C*%
X28650000Y-61430000D03*
%TD*%
%TO.P,P,1*%
%TO.N,N/C*%
X59130000Y-48730000D03*
%TD*%
%TO.P,P,1*%
%TO.N,N/C*%
X15950000Y-76670000D03*
%TD*%
%TO.P,P,1*%
%TO.N,N/C*%
X59130000Y-43650000D03*
%TD*%
%TO.P,P,1*%
%TO.N,N/C*%
X28650000Y-66510000D03*
%TD*%
%TO.P,P,1*%
%TO.N,N/C*%
X26110000Y-15710000D03*
%TD*%
%TO.P,P,1*%
%TO.N,N/C*%
X59130000Y-76670000D03*
%TD*%
%TO.P,P,1*%
%TO.N,N/C*%
X28650000Y-20790000D03*
%TD*%
%TO.P,P,1*%
%TO.N,N/C*%
X38810000Y-30950000D03*
%TD*%
%TO.P,P,1*%
%TO.N,N/C*%
X31190000Y-25870000D03*
%TD*%
%TO.P,P,1*%
%TO.N,N/C*%
X56590000Y-20790000D03*
%TD*%
%TO.P,P,1*%
%TO.N,GND*%
X64210000Y-76670000D03*
%TD*%
%TO.P,P,1*%
%TO.N,N/C*%
X48970000Y-8090000D03*
%TD*%
%TO.P,P,1*%
%TO.N,N/C*%
X46430000Y-5550000D03*
%TD*%
%TO.P,P,1*%
%TO.N,N/C*%
X59130000Y-20790000D03*
%TD*%
%TO.P,P,1*%
%TO.N,N/C*%
X61670000Y-69050000D03*
%TD*%
%TO.P,P,1*%
%TO.N,N/C*%
X48970000Y-13170000D03*
%TD*%
%TO.P,P,1*%
%TO.N,N/C*%
X31190000Y-10630000D03*
%TD*%
%TO.P,P,1*%
%TO.N,N/C*%
X43890000Y-56350000D03*
%TD*%
%TO.P,P,1*%
%TO.N,N/C*%
X15950000Y-15710000D03*
%TD*%
%TO.P,P,1*%
%TO.N,N/C*%
X21030000Y-69050000D03*
%TD*%
%TO.P,P,1*%
%TO.N,VCC*%
X5790000Y-71590000D03*
%TD*%
%TO.P,P,1*%
%TO.N,N/C*%
X18490000Y-48730000D03*
%TD*%
%TO.P,P,1*%
%TO.N,N/C*%
X28650000Y-30950000D03*
%TD*%
%TO.P,P,1*%
%TO.N,N/C*%
X21030000Y-23330000D03*
%TD*%
%TO.P,P,1*%
%TO.N,N/C*%
X10870000Y-71590000D03*
%TD*%
%TO.P,P,1*%
%TO.N,N/C*%
X38810000Y-56350000D03*
%TD*%
%TO.P,P,1*%
%TO.N,N/C*%
X54050000Y-46190000D03*
%TD*%
%TO.P,P,1*%
%TO.N,N/C*%
X61670000Y-36030000D03*
%TD*%
%TO.P,P,1*%
%TO.N,N/C*%
X38810000Y-71590000D03*
%TD*%
%TO.P,P,1*%
%TO.N,N/C*%
X23570000Y-20790000D03*
%TD*%
%TO.P,P,1*%
%TO.N,N/C*%
X38810000Y-5550000D03*
%TD*%
%TO.P,P,1*%
%TO.N,N/C*%
X41350000Y-38570000D03*
%TD*%
%TO.P,P,1*%
%TO.N,N/C*%
X13410000Y-69050000D03*
%TD*%
%TO.P,P,1*%
%TO.N,N/C*%
X61670000Y-48730000D03*
%TD*%
%TO.P,P,1*%
%TO.N,N/C*%
X61670000Y-71590000D03*
%TD*%
%TO.P,P,1*%
%TO.N,N/C*%
X38810000Y-48730000D03*
%TD*%
%TO.P,P,1*%
%TO.N,N/C*%
X54050000Y-71590000D03*
%TD*%
%TO.P,P,1*%
%TO.N,N/C*%
X28650000Y-13170000D03*
%TD*%
%TO.P,P,1*%
%TO.N,N/C*%
X48970000Y-28410000D03*
%TD*%
%TO.P,P,1*%
%TO.N,N/C*%
X43890000Y-20790000D03*
%TD*%
%TO.P,P,1*%
%TO.N,N/C*%
X54050000Y-25870000D03*
%TD*%
%TO.P,P,1*%
%TO.N,N/C*%
X21030000Y-48730000D03*
%TD*%
%TO.P,P,1*%
%TO.N,N/C*%
X59130000Y-28410000D03*
%TD*%
%TO.P,P,1*%
%TO.N,N/C*%
X31190000Y-18250000D03*
%TD*%
%TO.P,P,1*%
%TO.N,N/C*%
X59130000Y-25870000D03*
%TD*%
%TO.P,P,1*%
%TO.N,N/C*%
X33730000Y-28410000D03*
%TD*%
%TO.P,P,1*%
%TO.N,N/C*%
X10870000Y-48730000D03*
%TD*%
%TO.P,P,1*%
%TO.N,N/C*%
X10870000Y-10630000D03*
%TD*%
%TO.P,P,1*%
%TO.N,N/C*%
X33730000Y-10630000D03*
%TD*%
%TO.P,P,1*%
%TO.N,N/C*%
X43890000Y-61430000D03*
%TD*%
%TO.P,P,1*%
%TO.N,VCC*%
X64210000Y-53810000D03*
%TD*%
%TO.P,P,1*%
%TO.N,N/C*%
X59130000Y-8090000D03*
%TD*%
%TO.P,P,1*%
%TO.N,N/C*%
X13410000Y-33490000D03*
%TD*%
%TO.P,P,1*%
%TO.N,N/C*%
X15950000Y-10630000D03*
%TD*%
%TO.P,P,1*%
%TO.N,N/C*%
X18490000Y-15710000D03*
%TD*%
%TO.P,P,1*%
%TO.N,N/C*%
X13410000Y-25870000D03*
%TD*%
%TO.P,P,1*%
%TO.N,N/C*%
X46430000Y-51270000D03*
%TD*%
%TO.P,P,1*%
%TO.N,N/C*%
X43890000Y-53810000D03*
%TD*%
%TO.P,P,1*%
%TO.N,N/C*%
X31190000Y-63970000D03*
%TD*%
%TO.P,P,1*%
%TO.N,N/C*%
X46430000Y-15710000D03*
%TD*%
%TO.P,P,1*%
%TO.N,N/C*%
X56590000Y-58890000D03*
%TD*%
%TO.P,P,1*%
%TO.N,N/C*%
X36270000Y-63970000D03*
%TD*%
%TO.P,P,1*%
%TO.N,N/C*%
X41350000Y-53810000D03*
%TD*%
%TO.P,P,1*%
%TO.N,N/C*%
X21030000Y-58890000D03*
%TD*%
%TO.P,P,1*%
%TO.N,N/C*%
X18490000Y-53810000D03*
%TD*%
%TO.P,P,1*%
%TO.N,N/C*%
X56590000Y-79210000D03*
%TD*%
%TO.P,REF,1*%
%TO.N,GND*%
X5790000Y-82960000D03*
X5790000Y-85500000D03*
X8330000Y-82960000D03*
X8330000Y-85500000D03*
D11*
X8330000Y-92000000D03*
D10*
X10870000Y-82960000D03*
X10870000Y-85500000D03*
%TD*%
%TO.P,P,1*%
%TO.N,N/C*%
X46430000Y-79210000D03*
%TD*%
%TO.P,P,1*%
%TO.N,N/C*%
X31190000Y-38570000D03*
%TD*%
%TO.P,P,1*%
%TO.N,N/C*%
X18490000Y-20790000D03*
%TD*%
%TO.P,P,1*%
%TO.N,N/C*%
X18490000Y-66510000D03*
%TD*%
%TO.P,P,1*%
%TO.N,N/C*%
X61670000Y-66510000D03*
%TD*%
%TO.P,P,1*%
%TO.N,N/C*%
X8330000Y-71590000D03*
%TD*%
%TO.P,P,1*%
%TO.N,N/C*%
X46430000Y-30950000D03*
%TD*%
%TO.P,P,1*%
%TO.N,N/C*%
X36270000Y-53810000D03*
%TD*%
%TO.P,P,1*%
%TO.N,N/C*%
X13410000Y-36030000D03*
%TD*%
%TO.P,P,1*%
%TO.N,N/C*%
X48970000Y-43650000D03*
%TD*%
%TO.P,P,1*%
%TO.N,N/C*%
X31190000Y-5550000D03*
%TD*%
%TO.P,P,1*%
%TO.N,N/C*%
X61670000Y-46190000D03*
%TD*%
%TO.P,P,1*%
%TO.N,N/C*%
X31190000Y-51270000D03*
%TD*%
%TO.P,P,1*%
%TO.N,VCC*%
X64210000Y-51270000D03*
%TD*%
%TO.P,P,1*%
%TO.N,N/C*%
X61670000Y-51270000D03*
%TD*%
%TO.P,P,1*%
%TO.N,N/C*%
X15950000Y-53810000D03*
%TD*%
%TO.P,P,1*%
%TO.N,N/C*%
X31190000Y-76670000D03*
%TD*%
%TO.P,P,1*%
%TO.N,N/C*%
X31190000Y-28410000D03*
%TD*%
%TO.P,P,1*%
%TO.N,N/C*%
X26110000Y-53810000D03*
%TD*%
%TO.P,P,1*%
%TO.N,VCC*%
X64210000Y-41110000D03*
%TD*%
%TO.P,P,1*%
%TO.N,VCC*%
X5790000Y-30950000D03*
%TD*%
%TO.P,P,1*%
%TO.N,N/C*%
X56590000Y-53810000D03*
%TD*%
%TO.P,P,1*%
%TO.N,N/C*%
X18490000Y-76670000D03*
%TD*%
%TO.P,P,1*%
%TO.N,N/C*%
X23570000Y-69050000D03*
%TD*%
%TO.P,P,1*%
%TO.N,GND*%
X64210000Y-5550000D03*
%TD*%
%TO.P,P,1*%
%TO.N,N/C*%
X43890000Y-10630000D03*
%TD*%
%TO.P,P,1*%
%TO.N,N/C*%
X51510000Y-76670000D03*
%TD*%
%TO.P,P,1*%
%TO.N,VCC*%
X5790000Y-23330000D03*
%TD*%
%TO.P,P,1*%
%TO.N,N/C*%
X51510000Y-36030000D03*
%TD*%
%TO.P,P,1*%
%TO.N,N/C*%
X8330000Y-79210000D03*
%TD*%
%TO.P,P,1*%
%TO.N,N/C*%
X48970000Y-36030000D03*
%TD*%
%TO.P,P,1*%
%TO.N,GND*%
X64210000Y-79210000D03*
%TD*%
%TO.P,P,1*%
%TO.N,N/C*%
X36270000Y-15710000D03*
%TD*%
%TO.P,P,1*%
%TO.N,N/C*%
X23570000Y-25870000D03*
%TD*%
%TO.P,P,1*%
%TO.N,N/C*%
X43890000Y-33490000D03*
%TD*%
%TO.P,P,1*%
%TO.N,N/C*%
X13410000Y-71590000D03*
%TD*%
%TO.P,P,1*%
%TO.N,VCC*%
X5790000Y-43650000D03*
%TD*%
%TO.P,P,1*%
%TO.N,N/C*%
X56590000Y-63970000D03*
%TD*%
%TO.P,P,1*%
%TO.N,N/C*%
X56590000Y-48730000D03*
%TD*%
%TO.P,P,1*%
%TO.N,N/C*%
X13410000Y-8090000D03*
%TD*%
%TO.P,P,1*%
%TO.N,N/C*%
X8330000Y-48730000D03*
%TD*%
%TO.P,P,1*%
%TO.N,N/C*%
X10870000Y-53810000D03*
%TD*%
%TO.P,P,1*%
%TO.N,N/C*%
X15950000Y-48730000D03*
%TD*%
%TO.P,P,1*%
%TO.N,N/C*%
X51510000Y-23330000D03*
%TD*%
%TO.P,P,1*%
%TO.N,N/C*%
X33730000Y-51270000D03*
%TD*%
%TO.P,P,1*%
%TO.N,N/C*%
X43890000Y-8090000D03*
%TD*%
%TO.P,P,1*%
%TO.N,N/C*%
X56590000Y-66510000D03*
%TD*%
%TO.P,P,1*%
%TO.N,N/C*%
X28650000Y-33490000D03*
%TD*%
%TO.P,P,1*%
%TO.N,N/C*%
X28650000Y-74130000D03*
%TD*%
%TO.P,P,1*%
%TO.N,N/C*%
X61670000Y-28410000D03*
%TD*%
%TO.P,P,1*%
%TO.N,N/C*%
X51510000Y-48730000D03*
%TD*%
%TO.P,P,1*%
%TO.N,N/C*%
X61670000Y-13170000D03*
%TD*%
%TO.P,P,1*%
%TO.N,GND*%
X5790000Y-76670000D03*
%TD*%
%TO.P,P,1*%
%TO.N,N/C*%
X43890000Y-58890000D03*
%TD*%
%TO.P,P,1*%
%TO.N,N/C*%
X43890000Y-43650000D03*
%TD*%
%TO.P,P,1*%
%TO.N,N/C*%
X54050000Y-79210000D03*
%TD*%
%TO.P,P,1*%
%TO.N,N/C*%
X41350000Y-30950000D03*
%TD*%
%TO.P,P,1*%
%TO.N,N/C*%
X21030000Y-53810000D03*
%TD*%
%TO.P,P,1*%
%TO.N,N/C*%
X38810000Y-15710000D03*
%TD*%
%TO.P,P,1*%
%TO.N,N/C*%
X36270000Y-28410000D03*
%TD*%
%TO.P,P,1*%
%TO.N,N/C*%
X51510000Y-51270000D03*
%TD*%
%TO.P,P,1*%
%TO.N,N/C*%
X26110000Y-8090000D03*
%TD*%
%TO.P,P,1*%
%TO.N,N/C*%
X28650000Y-5550000D03*
%TD*%
%TO.P,P,1*%
%TO.N,N/C*%
X10870000Y-20790000D03*
%TD*%
%TO.P,P,1*%
%TO.N,N/C*%
X48970000Y-15710000D03*
%TD*%
%TO.P,P,1*%
%TO.N,N/C*%
X59130000Y-15710000D03*
%TD*%
%TO.P,P,1*%
%TO.N,N/C*%
X36270000Y-20790000D03*
%TD*%
%TO.P,P,1*%
%TO.N,N/C*%
X13410000Y-61430000D03*
%TD*%
%TO.P,P,1*%
%TO.N,N/C*%
X54050000Y-51270000D03*
%TD*%
%TO.P,P,1*%
%TO.N,N/C*%
X56590000Y-5550000D03*
%TD*%
%TO.P,P,1*%
%TO.N,N/C*%
X21030000Y-5550000D03*
%TD*%
%TO.P,P,1*%
%TO.N,N/C*%
X21030000Y-41110000D03*
%TD*%
%TO.P,P,1*%
%TO.N,N/C*%
X41350000Y-33490000D03*
%TD*%
%TO.P,P,1*%
%TO.N,N/C*%
X15950000Y-18250000D03*
%TD*%
%TO.P,P,1*%
%TO.N,N/C*%
X48970000Y-63970000D03*
%TD*%
%TO.P,P,1*%
%TO.N,N/C*%
X36270000Y-30950000D03*
%TD*%
%TO.P,P,1*%
%TO.N,N/C*%
X54050000Y-74130000D03*
%TD*%
%TO.P,P,1*%
%TO.N,N/C*%
X13410000Y-38570000D03*
%TD*%
%TO.P,P,1*%
%TO.N,N/C*%
X56590000Y-18250000D03*
%TD*%
%TO.P,P,1*%
%TO.N,N/C*%
X36270000Y-33490000D03*
%TD*%
%TO.P,P,1*%
%TO.N,N/C*%
X21030000Y-13170000D03*
%TD*%
%TO.P,P,1*%
%TO.N,N/C*%
X33730000Y-48730000D03*
%TD*%
%TO.P,P,1*%
%TO.N,N/C*%
X26110000Y-23330000D03*
%TD*%
%TO.P,P,1*%
%TO.N,N/C*%
X43890000Y-46190000D03*
%TD*%
%TO.P,P,1*%
%TO.N,N/C*%
X38810000Y-69050000D03*
%TD*%
%TO.P,P,1*%
%TO.N,N/C*%
X31190000Y-56350000D03*
%TD*%
%TO.P,P,1*%
%TO.N,N/C*%
X46430000Y-38570000D03*
%TD*%
%TO.P,P,1*%
%TO.N,N/C*%
X59130000Y-53810000D03*
%TD*%
%TO.P,P,1*%
%TO.N,N/C*%
X54050000Y-23330000D03*
%TD*%
%TO.P,P,1*%
%TO.N,GND*%
X5790000Y-8090000D03*
%TD*%
%TO.P,P,1*%
%TO.N,N/C*%
X41350000Y-58890000D03*
%TD*%
%TO.P,P,1*%
%TO.N,N/C*%
X56590000Y-46190000D03*
%TD*%
%TO.P,P,1*%
%TO.N,N/C*%
X46430000Y-63970000D03*
%TD*%
%TO.P,P,1*%
%TO.N,N/C*%
X56590000Y-33490000D03*
%TD*%
%TO.P,P,1*%
%TO.N,N/C*%
X15950000Y-30950000D03*
%TD*%
%TO.P,P,1*%
%TO.N,N/C*%
X23570000Y-76670000D03*
%TD*%
%TO.P,P,1*%
%TO.N,N/C*%
X31190000Y-53810000D03*
%TD*%
%TO.P,P,1*%
%TO.N,N/C*%
X46430000Y-36030000D03*
%TD*%
%TO.P,P,1*%
%TO.N,N/C*%
X33730000Y-5550000D03*
%TD*%
%TO.P,P,1*%
%TO.N,N/C*%
X21030000Y-25870000D03*
%TD*%
%TO.P,P,1*%
%TO.N,GND*%
X5790000Y-5550000D03*
%TD*%
%TO.P,P,1*%
%TO.N,N/C*%
X18490000Y-5550000D03*
%TD*%
%TO.P,P,1*%
%TO.N,N/C*%
X13410000Y-28410000D03*
%TD*%
%TO.P,P,1*%
%TO.N,N/C*%
X59130000Y-23330000D03*
%TD*%
%TO.P,P,1*%
%TO.N,N/C*%
X46430000Y-43650000D03*
%TD*%
%TO.P,P,1*%
%TO.N,N/C*%
X23570000Y-13170000D03*
%TD*%
%TO.P,P,1*%
%TO.N,N/C*%
X61670000Y-38570000D03*
%TD*%
%TO.P,P,1*%
%TO.N,N/C*%
X56590000Y-10630000D03*
%TD*%
%TO.P,P,1*%
%TO.N,N/C*%
X33730000Y-18250000D03*
%TD*%
%TO.P,P,1*%
%TO.N,N/C*%
X33730000Y-76670000D03*
%TD*%
%TO.P,P,1*%
%TO.N,GND*%
X64210000Y-8090000D03*
%TD*%
%TO.P,P,1*%
%TO.N,N/C*%
X54050000Y-48730000D03*
%TD*%
%TO.P,P,1*%
%TO.N,N/C*%
X18490000Y-79210000D03*
%TD*%
%TO.P,P,1*%
%TO.N,N/C*%
X36270000Y-36030000D03*
%TD*%
%TO.P,P,1*%
%TO.N,N/C*%
X21030000Y-28410000D03*
%TD*%
%TO.P,P,1*%
%TO.N,N/C*%
X8330000Y-41110000D03*
%TD*%
%TO.P,P,1*%
%TO.N,N/C*%
X36270000Y-69050000D03*
%TD*%
%TO.P,P,1*%
%TO.N,N/C*%
X23570000Y-43650000D03*
%TD*%
%TO.P,P,1*%
%TO.N,N/C*%
X15950000Y-79210000D03*
%TD*%
%TO.P,P,1*%
%TO.N,N/C*%
X36270000Y-18250000D03*
%TD*%
%TO.P,P,1*%
%TO.N,N/C*%
X10870000Y-61430000D03*
%TD*%
%TO.P,P,1*%
%TO.N,VCC*%
X5790000Y-51270000D03*
%TD*%
%TO.P,P,1*%
%TO.N,N/C*%
X15950000Y-63970000D03*
%TD*%
%TO.P,P,1*%
%TO.N,N/C*%
X28650000Y-79210000D03*
%TD*%
%TO.P,P,1*%
%TO.N,N/C*%
X23570000Y-33490000D03*
%TD*%
%TO.P,P,1*%
%TO.N,N/C*%
X41350000Y-8090000D03*
%TD*%
%TO.P,P,1*%
%TO.N,N/C*%
X43890000Y-28410000D03*
%TD*%
%TO.P,P,1*%
%TO.N,N/C*%
X38810000Y-28410000D03*
%TD*%
%TO.P,P,1*%
%TO.N,N/C*%
X8330000Y-53810000D03*
%TD*%
%TO.P,P,1*%
%TO.N,N/C*%
X61670000Y-79210000D03*
%TD*%
%TO.P,P,1*%
%TO.N,N/C*%
X48970000Y-61430000D03*
%TD*%
%TO.P,P,1*%
%TO.N,N/C*%
X28650000Y-46190000D03*
%TD*%
%TO.P,P,1*%
%TO.N,GND*%
X5790000Y-36030000D03*
%TD*%
%TO.P,P,1*%
%TO.N,VCC*%
X5790000Y-53810000D03*
%TD*%
%TO.P,P,1*%
%TO.N,VCC*%
X64210000Y-71590000D03*
%TD*%
%TO.P,P,1*%
%TO.N,N/C*%
X21030000Y-66510000D03*
%TD*%
%TO.P,P,1*%
%TO.N,N/C*%
X13410000Y-76670000D03*
%TD*%
%TO.P,P,1*%
%TO.N,N/C*%
X28650000Y-63970000D03*
%TD*%
%TO.P,P,1*%
%TO.N,N/C*%
X18490000Y-43650000D03*
%TD*%
%TO.P,P,1*%
%TO.N,N/C*%
X48970000Y-51270000D03*
%TD*%
%TO.P,P,1*%
%TO.N,N/C*%
X46430000Y-20790000D03*
%TD*%
%TO.P,P,1*%
%TO.N,N/C*%
X15950000Y-36030000D03*
%TD*%
%TO.P,P,1*%
%TO.N,N/C*%
X48970000Y-76670000D03*
%TD*%
%TO.P,P,1*%
%TO.N,N/C*%
X8330000Y-36030000D03*
%TD*%
%TO.P,P,1*%
%TO.N,N/C*%
X51510000Y-56350000D03*
%TD*%
%TO.P,P,1*%
%TO.N,VCC*%
X64210000Y-33490000D03*
%TD*%
%TO.P,P,1*%
%TO.N,N/C*%
X15950000Y-43650000D03*
%TD*%
%TO.P,P,1*%
%TO.N,N/C*%
X15950000Y-74130000D03*
%TD*%
%TO.P,P,1*%
%TO.N,N/C*%
X13410000Y-66510000D03*
%TD*%
%TO.P,P,1*%
%TO.N,N/C*%
X48970000Y-69050000D03*
%TD*%
%TO.P,P,1*%
%TO.N,N/C*%
X23570000Y-56350000D03*
%TD*%
%TO.P,P,1*%
%TO.N,N/C*%
X38810000Y-20790000D03*
%TD*%
%TO.P,P,1*%
%TO.N,N/C*%
X51510000Y-41110000D03*
%TD*%
%TO.P,P,1*%
%TO.N,N/C*%
X21030000Y-61430000D03*
%TD*%
%TO.P,P,1*%
%TO.N,N/C*%
X26110000Y-74130000D03*
%TD*%
%TO.P,P,1*%
%TO.N,N/C*%
X54050000Y-53810000D03*
%TD*%
%TO.P,P,1*%
%TO.N,N/C*%
X48970000Y-58890000D03*
%TD*%
%TO.P,P,1*%
%TO.N,N/C*%
X21030000Y-56350000D03*
%TD*%
%TO.P,P,1*%
%TO.N,N/C*%
X33730000Y-71590000D03*
%TD*%
%TO.P,P,1*%
%TO.N,N/C*%
X28650000Y-23330000D03*
%TD*%
%TO.P,P,1*%
%TO.N,N/C*%
X46430000Y-13170000D03*
%TD*%
%TO.P,P,1*%
%TO.N,N/C*%
X10870000Y-66510000D03*
%TD*%
%TO.P,P,1*%
%TO.N,N/C*%
X31190000Y-30950000D03*
%TD*%
%TO.P,P,1*%
%TO.N,N/C*%
X26110000Y-63970000D03*
%TD*%
%TO.P,P,1*%
%TO.N,N/C*%
X21030000Y-30950000D03*
%TD*%
%TO.P,P,1*%
%TO.N,N/C*%
X59130000Y-10630000D03*
%TD*%
%TO.P,P,1*%
%TO.N,N/C*%
X28650000Y-56350000D03*
%TD*%
%TO.P,P,1*%
%TO.N,N/C*%
X28650000Y-71590000D03*
%TD*%
%TO.P,P,1*%
%TO.N,N/C*%
X61670000Y-74130000D03*
%TD*%
%TO.P,P,1*%
%TO.N,N/C*%
X10870000Y-56350000D03*
%TD*%
%TO.P,P,1*%
%TO.N,N/C*%
X21030000Y-36030000D03*
%TD*%
%TO.P,P,1*%
%TO.N,N/C*%
X38810000Y-61430000D03*
%TD*%
%TO.P,P,1*%
%TO.N,N/C*%
X15950000Y-20790000D03*
%TD*%
%TO.P,P,1*%
%TO.N,N/C*%
X59130000Y-38570000D03*
%TD*%
%TO.P,P,1*%
%TO.N,N/C*%
X38810000Y-10630000D03*
%TD*%
%TO.P,P,1*%
%TO.N,N/C*%
X13410000Y-13170000D03*
%TD*%
%TO.P,P,1*%
%TO.N,N/C*%
X18490000Y-33490000D03*
%TD*%
%TO.P,P,1*%
%TO.N,N/C*%
X59130000Y-63970000D03*
%TD*%
%TO.P,P,1*%
%TO.N,N/C*%
X18490000Y-18250000D03*
%TD*%
%TO.P,P,1*%
%TO.N,N/C*%
X10870000Y-25870000D03*
%TD*%
%TO.P,P,1*%
%TO.N,N/C*%
X26110000Y-48730000D03*
%TD*%
%TO.P,P,1*%
%TO.N,VCC*%
X64210000Y-23330000D03*
%TD*%
%TO.P,P,1*%
%TO.N,N/C*%
X28650000Y-41110000D03*
%TD*%
%TO.P,P,1*%
%TO.N,N/C*%
X21030000Y-20790000D03*
%TD*%
%TO.P,P,1*%
%TO.N,N/C*%
X59130000Y-56350000D03*
%TD*%
%TO.P,P,1*%
%TO.N,N/C*%
X48970000Y-71590000D03*
%TD*%
%TO.P,P,1*%
%TO.N,N/C*%
X51510000Y-18250000D03*
%TD*%
%TO.P,P,1*%
%TO.N,N/C*%
X33730000Y-41110000D03*
%TD*%
%TO.P,P,1*%
%TO.N,N/C*%
X48970000Y-5550000D03*
%TD*%
%TO.P,P,1*%
%TO.N,N/C*%
X36270000Y-5550000D03*
%TD*%
%TO.P,P,1*%
%TO.N,GND*%
X5790000Y-38570000D03*
%TD*%
%TO.P,P,1*%
%TO.N,N/C*%
X13410000Y-56350000D03*
%TD*%
%TO.P,P,1*%
%TO.N,N/C*%
X23570000Y-71590000D03*
%TD*%
%TO.P,P,1*%
%TO.N,N/C*%
X33730000Y-61430000D03*
%TD*%
%TO.P,P,1*%
%TO.N,N/C*%
X36270000Y-58890000D03*
%TD*%
%TO.P,P,1*%
%TO.N,N/C*%
X41350000Y-23330000D03*
%TD*%
%TO.P,P,1*%
%TO.N,N/C*%
X56590000Y-56350000D03*
%TD*%
%TO.P,P,1*%
%TO.N,N/C*%
X31190000Y-61430000D03*
%TD*%
%TO.P,P,1*%
%TO.N,N/C*%
X41350000Y-15710000D03*
%TD*%
%TO.P,P,1*%
%TO.N,N/C*%
X8330000Y-74130000D03*
%TD*%
%TO.P,P,1*%
%TO.N,N/C*%
X41350000Y-74130000D03*
%TD*%
%TO.P,P,1*%
%TO.N,GND*%
X5790000Y-69050000D03*
%TD*%
%TO.P,P,1*%
%TO.N,N/C*%
X59130000Y-30950000D03*
%TD*%
%TO.P,P,1*%
%TO.N,N/C*%
X15950000Y-28410000D03*
%TD*%
%TO.P,P,1*%
%TO.N,GND*%
X5790000Y-56350000D03*
%TD*%
%TO.P,P,1*%
%TO.N,N/C*%
X15950000Y-51270000D03*
%TD*%
%TO.P,P,1*%
%TO.N,N/C*%
X56590000Y-76670000D03*
%TD*%
%TO.P,P,1*%
%TO.N,GND*%
X5790000Y-66510000D03*
%TD*%
%TO.P,P,1*%
%TO.N,N/C*%
X8330000Y-25870000D03*
%TD*%
%TO.P,P,1*%
%TO.N,N/C*%
X46430000Y-28410000D03*
%TD*%
%TO.P,P,1*%
%TO.N,N/C*%
X31190000Y-46190000D03*
%TD*%
%TO.P,P,1*%
%TO.N,N/C*%
X56590000Y-51270000D03*
%TD*%
%TO.P,P,1*%
%TO.N,N/C*%
X23570000Y-46190000D03*
%TD*%
%TO.P,P,1*%
%TO.N,N/C*%
X23570000Y-51270000D03*
%TD*%
%TO.P,P,1*%
%TO.N,N/C*%
X43890000Y-36030000D03*
%TD*%
%TO.P,P,1*%
%TO.N,N/C*%
X56590000Y-25870000D03*
%TD*%
%TO.P,P,1*%
%TO.N,N/C*%
X43890000Y-69050000D03*
%TD*%
%TO.P,P,1*%
%TO.N,N/C*%
X8330000Y-46190000D03*
%TD*%
%TO.P,P,1*%
%TO.N,N/C*%
X61670000Y-43650000D03*
%TD*%
%TO.P,P,1*%
%TO.N,N/C*%
X21030000Y-76670000D03*
%TD*%
%TO.P,P,1*%
%TO.N,N/C*%
X26110000Y-38570000D03*
%TD*%
%TO.P,P,1*%
%TO.N,N/C*%
X41350000Y-63970000D03*
%TD*%
%TO.P,P,1*%
%TO.N,N/C*%
X51510000Y-15710000D03*
%TD*%
%TO.P,P,1*%
%TO.N,N/C*%
X21030000Y-38570000D03*
%TD*%
%TO.P,P,1*%
%TO.N,N/C*%
X59130000Y-46190000D03*
%TD*%
%TO.P,P,1*%
%TO.N,N/C*%
X59130000Y-18250000D03*
%TD*%
%TO.P,P,1*%
%TO.N,N/C*%
X15950000Y-25870000D03*
%TD*%
%TO.P,P,1*%
%TO.N,N/C*%
X13410000Y-79210000D03*
%TD*%
%TO.P,P,1*%
%TO.N,N/C*%
X41350000Y-36030000D03*
%TD*%
%TO.P,P,1*%
%TO.N,N/C*%
X10870000Y-18250000D03*
%TD*%
%TO.P,P,1*%
%TO.N,N/C*%
X8330000Y-10630000D03*
%TD*%
%TO.P,P,1*%
%TO.N,N/C*%
X48970000Y-20790000D03*
%TD*%
%TO.P,P,1*%
%TO.N,N/C*%
X13410000Y-51270000D03*
%TD*%
%TO.P,P,1*%
%TO.N,N/C*%
X26110000Y-79210000D03*
%TD*%
%TO.P,P,1*%
%TO.N,N/C*%
X15950000Y-71590000D03*
%TD*%
%TO.P,P,1*%
%TO.N,N/C*%
X48970000Y-56350000D03*
%TD*%
%TO.P,P,1*%
%TO.N,N/C*%
X31190000Y-33490000D03*
%TD*%
%TO.P,P,1*%
%TO.N,N/C*%
X33730000Y-58890000D03*
%TD*%
%TO.P,P,1*%
%TO.N,N/C*%
X41350000Y-66510000D03*
%TD*%
%TO.P,P,1*%
%TO.N,N/C*%
X61670000Y-56350000D03*
%TD*%
%TO.P,P,1*%
%TO.N,N/C*%
X18490000Y-36030000D03*
%TD*%
%TO.P,P,1*%
%TO.N,N/C*%
X23570000Y-30950000D03*
%TD*%
%TO.P,P,1*%
%TO.N,N/C*%
X54050000Y-36030000D03*
%TD*%
%TO.P,P,1*%
%TO.N,N/C*%
X8330000Y-76670000D03*
%TD*%
%TO.P,P,1*%
%TO.N,N/C*%
X13410000Y-43650000D03*
%TD*%
%TO.P,P,1*%
%TO.N,N/C*%
X56590000Y-38570000D03*
%TD*%
%TO.P,P,1*%
%TO.N,N/C*%
X18490000Y-38570000D03*
%TD*%
%TO.P,P,1*%
%TO.N,N/C*%
X56590000Y-8090000D03*
%TD*%
%TO.P,P,1*%
%TO.N,N/C*%
X21030000Y-79210000D03*
%TD*%
%TO.P,P,1*%
%TO.N,N/C*%
X10870000Y-58890000D03*
%TD*%
%TO.P,P,1*%
%TO.N,N/C*%
X15950000Y-66510000D03*
%TD*%
%TO.P,P,1*%
%TO.N,N/C*%
X51510000Y-79210000D03*
%TD*%
%TO.P,P,1*%
%TO.N,N/C*%
X15950000Y-41110000D03*
%TD*%
%TO.P,P,1*%
%TO.N,N/C*%
X61670000Y-61430000D03*
%TD*%
%TO.P,P,1*%
%TO.N,N/C*%
X59130000Y-69050000D03*
%TD*%
%TO.P,P,1*%
%TO.N,N/C*%
X38810000Y-25870000D03*
%TD*%
%TO.P,P,1*%
%TO.N,VCC*%
X64210000Y-63970000D03*
%TD*%
%TO.P,P,1*%
%TO.N,N/C*%
X51510000Y-69050000D03*
%TD*%
%TO.P,P,1*%
%TO.N,N/C*%
X18490000Y-63970000D03*
%TD*%
%TO.P,P,1*%
%TO.N,N/C*%
X54050000Y-61430000D03*
%TD*%
%TO.P,P,1*%
%TO.N,N/C*%
X51510000Y-74130000D03*
%TD*%
%TO.P,P,1*%
%TO.N,N/C*%
X51510000Y-30950000D03*
%TD*%
%TO.P,P,1*%
%TO.N,N/C*%
X46430000Y-18250000D03*
%TD*%
%TO.P,P,1*%
%TO.N,N/C*%
X31190000Y-79210000D03*
%TD*%
%TO.P,P,1*%
%TO.N,N/C*%
X56590000Y-61430000D03*
%TD*%
%TO.P,P,1*%
%TO.N,N/C*%
X46430000Y-61430000D03*
%TD*%
%TO.P,P,1*%
%TO.N,N/C*%
X38810000Y-13170000D03*
%TD*%
%TO.P,P,1*%
%TO.N,N/C*%
X54050000Y-69050000D03*
%TD*%
%TO.P,P,1*%
%TO.N,N/C*%
X36270000Y-43650000D03*
%TD*%
%TO.P,P,1*%
%TO.N,N/C*%
X18490000Y-23330000D03*
%TD*%
%TO.P,P,1*%
%TO.N,N/C*%
X46430000Y-25870000D03*
%TD*%
%TO.P,P,1*%
%TO.N,VCC*%
X64210000Y-13170000D03*
%TD*%
%TO.P,P,1*%
%TO.N,N/C*%
X36270000Y-8090000D03*
%TD*%
%TO.P,P,1*%
%TO.N,N/C*%
X15950000Y-56350000D03*
%TD*%
%TO.P,P,1*%
%TO.N,N/C*%
X54050000Y-43650000D03*
%TD*%
%TO.P,P,1*%
%TO.N,N/C*%
X26110000Y-41110000D03*
%TD*%
%TO.P,P,1*%
%TO.N,N/C*%
X41350000Y-20790000D03*
%TD*%
%TO.P,P,1*%
%TO.N,VCC*%
X5790000Y-41110000D03*
%TD*%
%TO.P,P,1*%
%TO.N,N/C*%
X26110000Y-36030000D03*
%TD*%
%TO.P,P,1*%
%TO.N,N/C*%
X10870000Y-36030000D03*
%TD*%
%TO.P,P,1*%
%TO.N,N/C*%
X13410000Y-15710000D03*
%TD*%
%TO.P,P,1*%
%TO.N,N/C*%
X31190000Y-36030000D03*
%TD*%
%TO.P,P,1*%
%TO.N,N/C*%
X41350000Y-61430000D03*
%TD*%
%TO.P,P,1*%
%TO.N,N/C*%
X43890000Y-48730000D03*
%TD*%
%TO.P,P,1*%
%TO.N,N/C*%
X33730000Y-43650000D03*
%TD*%
%TO.P,P,1*%
%TO.N,N/C*%
X8330000Y-13170000D03*
%TD*%
%TO.P,P,1*%
%TO.N,N/C*%
X38810000Y-38570000D03*
%TD*%
%TO.P,P,1*%
%TO.N,N/C*%
X31190000Y-13170000D03*
%TD*%
%TO.P,P,1*%
%TO.N,N/C*%
X15950000Y-13170000D03*
%TD*%
%TO.P,P,1*%
%TO.N,GND*%
X5790000Y-46190000D03*
%TD*%
%TO.P,P,1*%
%TO.N,N/C*%
X46430000Y-48730000D03*
%TD*%
%TO.P,P,1*%
%TO.N,VCC*%
X64210000Y-61430000D03*
%TD*%
%TO.P,P,1*%
%TO.N,N/C*%
X51510000Y-13170000D03*
%TD*%
%TO.P,P,1*%
%TO.N,N/C*%
X43890000Y-30950000D03*
%TD*%
%TO.P,P,1*%
%TO.N,N/C*%
X8330000Y-69050000D03*
%TD*%
%TO.P,P,1*%
%TO.N,N/C*%
X18490000Y-28410000D03*
%TD*%
%TO.P,P,1*%
%TO.N,N/C*%
X33730000Y-69050000D03*
%TD*%
%TO.P,P,1*%
%TO.N,N/C*%
X38810000Y-46190000D03*
%TD*%
%TO.P,P,1*%
%TO.N,N/C*%
X33730000Y-74130000D03*
%TD*%
%TO.P,P,1*%
%TO.N,N/C*%
X61670000Y-15710000D03*
%TD*%
%TO.P,P,1*%
%TO.N,N/C*%
X43890000Y-23330000D03*
%TD*%
%TO.P,P,1*%
%TO.N,GND*%
X64210000Y-46190000D03*
%TD*%
%TO.P,P,1*%
%TO.N,N/C*%
X21030000Y-15710000D03*
%TD*%
%TO.P,P,1*%
%TO.N,N/C*%
X51510000Y-25870000D03*
%TD*%
%TO.P,P,1*%
%TO.N,VCC*%
X5790000Y-13170000D03*
%TD*%
%TO.P,P,1*%
%TO.N,N/C*%
X51510000Y-66510000D03*
%TD*%
%TO.P,P,1*%
%TO.N,N/C*%
X41350000Y-41110000D03*
%TD*%
%TO.P,P,1*%
%TO.N,N/C*%
X8330000Y-63970000D03*
%TD*%
%TO.P,P,1*%
%TO.N,N/C*%
X43890000Y-15710000D03*
%TD*%
%TO.P,P,1*%
%TO.N,N/C*%
X48970000Y-79210000D03*
%TD*%
%TO.P,P,1*%
%TO.N,N/C*%
X59130000Y-79210000D03*
%TD*%
%TO.P,P,1*%
%TO.N,N/C*%
X28650000Y-8090000D03*
%TD*%
%TO.P,P,1*%
%TO.N,N/C*%
X54050000Y-41110000D03*
%TD*%
%TO.P,P,1*%
%TO.N,N/C*%
X26110000Y-76670000D03*
%TD*%
%TO.P,P,1*%
%TO.N,GND*%
X64210000Y-69050000D03*
%TD*%
%TO.P,P,1*%
%TO.N,N/C*%
X8330000Y-51270000D03*
%TD*%
%TO.P,P,1*%
%TO.N,N/C*%
X59130000Y-13170000D03*
%TD*%
%TO.P,P,1*%
%TO.N,N/C*%
X23570000Y-38570000D03*
%TD*%
%TO.P,P,1*%
%TO.N,N/C*%
X10870000Y-38570000D03*
%TD*%
%TO.P,REF,1*%
%TO.N,VCC*%
X59130000Y-82960000D03*
X59130000Y-85500000D03*
X61670000Y-82960000D03*
X61670000Y-85500000D03*
D11*
X61670000Y-92000000D03*
D10*
X64210000Y-82960000D03*
X64210000Y-85500000D03*
%TD*%
%TO.P,P,1*%
%TO.N,N/C*%
X36270000Y-46190000D03*
%TD*%
%TO.P,P,1*%
%TO.N,N/C*%
X21030000Y-46190000D03*
%TD*%
%TO.P,P,1*%
%TO.N,VCC*%
X64210000Y-74130000D03*
%TD*%
%TO.P,P,1*%
%TO.N,N/C*%
X36270000Y-38570000D03*
%TD*%
%TO.P,P,1*%
%TO.N,N/C*%
X59130000Y-41110000D03*
%TD*%
%TO.P,P,1*%
%TO.N,N/C*%
X33730000Y-15710000D03*
%TD*%
%TO.P,P,1*%
%TO.N,N/C*%
X28650000Y-69050000D03*
%TD*%
%TO.P,P,1*%
%TO.N,N/C*%
X33730000Y-33490000D03*
%TD*%
%TO.P,P,1*%
%TO.N,GND*%
X64210000Y-25870000D03*
%TD*%
%TO.P,P,1*%
%TO.N,N/C*%
X46430000Y-69050000D03*
%TD*%
%TO.P,P,1*%
%TO.N,N/C*%
X59130000Y-33490000D03*
%TD*%
%TO.P,P,1*%
%TO.N,N/C*%
X38810000Y-51270000D03*
%TD*%
%TO.P,P,1*%
%TO.N,N/C*%
X8330000Y-66510000D03*
%TD*%
%TO.P,P,1*%
%TO.N,N/C*%
X46430000Y-41110000D03*
%TD*%
%TO.P,P,1*%
%TO.N,N/C*%
X15950000Y-33490000D03*
%TD*%
%TO.P,P,1*%
%TO.N,N/C*%
X56590000Y-69050000D03*
%TD*%
%TO.P,P,1*%
%TO.N,GND*%
X5790000Y-79210000D03*
%TD*%
%TO.P,P,1*%
%TO.N,N/C*%
X13410000Y-48730000D03*
%TD*%
%TO.P,P,1*%
%TO.N,N/C*%
X61670000Y-33490000D03*
%TD*%
%TO.P,P,1*%
%TO.N,N/C*%
X26110000Y-33490000D03*
%TD*%
%TO.P,P,1*%
%TO.N,N/C*%
X54050000Y-56350000D03*
%TD*%
%TO.P,P,1*%
%TO.N,N/C*%
X10870000Y-46190000D03*
%TD*%
%TO.P,P,1*%
%TO.N,N/C*%
X41350000Y-46190000D03*
%TD*%
%TO.P,P,1*%
%TO.N,N/C*%
X23570000Y-63970000D03*
%TD*%
%TO.P,P,1*%
%TO.N,GND*%
X5790000Y-48730000D03*
%TD*%
%TO.P,P,1*%
%TO.N,N/C*%
X8330000Y-58890000D03*
%TD*%
%TO.P,P,1*%
%TO.N,N/C*%
X23570000Y-36030000D03*
%TD*%
%TO.P,P,1*%
%TO.N,N/C*%
X13410000Y-30950000D03*
%TD*%
%TO.P,P,1*%
%TO.N,N/C*%
X56590000Y-28410000D03*
%TD*%
%TO.P,P,1*%
%TO.N,N/C*%
X54050000Y-18250000D03*
%TD*%
%TO.P,P,1*%
%TO.N,GND*%
X64210000Y-15710000D03*
%TD*%
%TO.P,P,1*%
%TO.N,N/C*%
X33730000Y-36030000D03*
%TD*%
%TO.P,P,1*%
%TO.N,N/C*%
X8330000Y-23330000D03*
%TD*%
%TO.P,P,1*%
%TO.N,N/C*%
X59130000Y-66510000D03*
%TD*%
%TO.P,P,1*%
%TO.N,N/C*%
X48970000Y-46190000D03*
%TD*%
%TO.P,P,1*%
%TO.N,N/C*%
X43890000Y-66510000D03*
%TD*%
%TO.P,P,1*%
%TO.N,N/C*%
X38810000Y-33490000D03*
%TD*%
%TO.P,P,1*%
%TO.N,N/C*%
X59130000Y-5550000D03*
%TD*%
%TO.P,P,1*%
%TO.N,N/C*%
X41350000Y-51270000D03*
%TD*%
%TO.P,P,1*%
%TO.N,VCC*%
X5790000Y-61430000D03*
%TD*%
%TO.P,P,1*%
%TO.N,N/C*%
X48970000Y-33490000D03*
%TD*%
%TO.P,P,1*%
%TO.N,N/C*%
X13410000Y-58890000D03*
%TD*%
%TO.P,P,1*%
%TO.N,N/C*%
X54050000Y-30950000D03*
%TD*%
%TO.P,P,1*%
%TO.N,N/C*%
X28650000Y-15710000D03*
%TD*%
%TO.P,P,1*%
%TO.N,N/C*%
X23570000Y-58890000D03*
%TD*%
%TO.P,P,1*%
%TO.N,N/C*%
X26110000Y-58890000D03*
%TD*%
%TO.P,P,1*%
%TO.N,N/C*%
X43890000Y-71590000D03*
%TD*%
%TO.P,P,1*%
%TO.N,N/C*%
X36270000Y-61430000D03*
%TD*%
%TO.P,P,1*%
%TO.N,N/C*%
X10870000Y-63970000D03*
%TD*%
%TO.P,P,1*%
%TO.N,N/C*%
X15950000Y-38570000D03*
%TD*%
%TO.P,P,1*%
%TO.N,N/C*%
X61670000Y-20790000D03*
%TD*%
%TO.P,P,1*%
%TO.N,N/C*%
X23570000Y-41110000D03*
%TD*%
%TO.P,P,1*%
%TO.N,N/C*%
X46430000Y-8090000D03*
%TD*%
%TO.P,P,1*%
%TO.N,N/C*%
X23570000Y-5550000D03*
%TD*%
%TO.P,P,1*%
%TO.N,GND*%
X64210000Y-58890000D03*
%TD*%
%TO.P,P,1*%
%TO.N,N/C*%
X41350000Y-69050000D03*
%TD*%
%TO.P,P,1*%
%TO.N,N/C*%
X21030000Y-33490000D03*
%TD*%
%TO.P,P,1*%
%TO.N,N/C*%
X33730000Y-8090000D03*
%TD*%
%TO.P,P,1*%
%TO.N,N/C*%
X26110000Y-30950000D03*
%TD*%
%TO.P,P,1*%
%TO.N,N/C*%
X31190000Y-48730000D03*
%TD*%
%TO.P,P,1*%
%TO.N,N/C*%
X23570000Y-48730000D03*
%TD*%
%TO.P,P,1*%
%TO.N,N/C*%
X46430000Y-53810000D03*
%TD*%
%TO.P,P,1*%
%TO.N,N/C*%
X10870000Y-5550000D03*
%TD*%
%TO.P,P,1*%
%TO.N,N/C*%
X33730000Y-53810000D03*
%TD*%
%TO.P,P,1*%
%TO.N,N/C*%
X51510000Y-53810000D03*
%TD*%
%TO.P,P,1*%
%TO.N,N/C*%
X31190000Y-69050000D03*
%TD*%
%TO.P,P,1*%
%TO.N,GND*%
X5790000Y-18250000D03*
%TD*%
%TO.P,P,1*%
%TO.N,N/C*%
X59130000Y-51270000D03*
%TD*%
%TO.P,P,1*%
%TO.N,N/C*%
X56590000Y-23330000D03*
%TD*%
%TO.P,P,1*%
%TO.N,N/C*%
X23570000Y-10630000D03*
%TD*%
%TO.P,P,1*%
%TO.N,N/C*%
X8330000Y-18250000D03*
%TD*%
%TO.P,P,1*%
%TO.N,N/C*%
X38810000Y-63970000D03*
%TD*%
%TO.P,P,1*%
%TO.N,N/C*%
X26110000Y-71590000D03*
%TD*%
%TO.P,P,1*%
%TO.N,N/C*%
X10870000Y-33490000D03*
%TD*%
%TO.P,P,1*%
%TO.N,N/C*%
X41350000Y-48730000D03*
%TD*%
%TO.P,P,1*%
%TO.N,N/C*%
X15950000Y-69050000D03*
%TD*%
%TO.P,P,1*%
%TO.N,N/C*%
X28650000Y-53810000D03*
%TD*%
%TO.P,P,1*%
%TO.N,N/C*%
X51510000Y-71590000D03*
%TD*%
%TO.P,P,1*%
%TO.N,N/C*%
X13410000Y-20790000D03*
%TD*%
%TO.P,P,1*%
%TO.N,N/C*%
X13410000Y-18250000D03*
%TD*%
%TO.P,P,1*%
%TO.N,N/C*%
X51510000Y-38570000D03*
%TD*%
%TO.P,P,1*%
%TO.N,N/C*%
X41350000Y-13170000D03*
%TD*%
%TO.P,P,1*%
%TO.N,N/C*%
X26110000Y-28410000D03*
%TD*%
%TO.P,P,1*%
%TO.N,N/C*%
X61670000Y-10630000D03*
%TD*%
%TO.P,P,1*%
%TO.N,N/C*%
X59130000Y-61430000D03*
%TD*%
%TO.P,P,1*%
%TO.N,N/C*%
X33730000Y-30950000D03*
%TD*%
%TO.P,P,1*%
%TO.N,N/C*%
X51510000Y-61430000D03*
%TD*%
%TO.P,P,1*%
%TO.N,N/C*%
X43890000Y-5550000D03*
%TD*%
%TO.P,P,1*%
%TO.N,N/C*%
X61670000Y-76670000D03*
%TD*%
%TO.P,P,1*%
%TO.N,GND*%
X64210000Y-18250000D03*
%TD*%
%TO.P,P,1*%
%TO.N,N/C*%
X13410000Y-53810000D03*
%TD*%
%TO.P,P,1*%
%TO.N,GND*%
X64210000Y-28410000D03*
%TD*%
%TO.P,P,1*%
%TO.N,N/C*%
X38810000Y-53810000D03*
%TD*%
%TO.P,P,1*%
%TO.N,N/C*%
X26110000Y-25870000D03*
%TD*%
%TO.P,P,1*%
%TO.N,N/C*%
X28650000Y-38570000D03*
%TD*%
%TO.P,P,1*%
%TO.N,N/C*%
X51510000Y-46190000D03*
%TD*%
%TO.P,P,1*%
%TO.N,N/C*%
X33730000Y-79210000D03*
%TD*%
%TO.P,P,1*%
%TO.N,N/C*%
X33730000Y-23330000D03*
%TD*%
%TO.P,P,1*%
%TO.N,N/C*%
X43890000Y-79210000D03*
%TD*%
%TO.P,P,1*%
%TO.N,N/C*%
X8330000Y-30950000D03*
%TD*%
%TO.P,P,1*%
%TO.N,N/C*%
X43890000Y-51270000D03*
%TD*%
%TO.P,P,1*%
%TO.N,N/C*%
X21030000Y-71590000D03*
%TD*%
%TO.P,P,1*%
%TO.N,N/C*%
X54050000Y-20790000D03*
%TD*%
%TO.P,P,1*%
%TO.N,N/C*%
X59130000Y-74130000D03*
%TD*%
%TO.P,P,1*%
%TO.N,N/C*%
X33730000Y-38570000D03*
%TD*%
%TO.P,P,1*%
%TO.N,N/C*%
X18490000Y-69050000D03*
%TD*%
%TO.P,P,1*%
%TO.N,N/C*%
X43890000Y-18250000D03*
%TD*%
%TO.P,P,1*%
%TO.N,N/C*%
X43890000Y-13170000D03*
%TD*%
%TO.P,P,1*%
%TO.N,N/C*%
X18490000Y-25870000D03*
%TD*%
%TO.P,P,1*%
%TO.N,N/C*%
X23570000Y-53810000D03*
%TD*%
%TO.P,P,1*%
%TO.N,N/C*%
X54050000Y-10630000D03*
%TD*%
%TO.P,P,1*%
%TO.N,N/C*%
X41350000Y-56350000D03*
%TD*%
%TO.P,P,1*%
%TO.N,N/C*%
X13410000Y-5550000D03*
%TD*%
%TO.P,P,1*%
%TO.N,N/C*%
X38810000Y-36030000D03*
%TD*%
%TO.P,P,1*%
%TO.N,GND*%
X64210000Y-66510000D03*
%TD*%
%TO.P,P,1*%
%TO.N,N/C*%
X51510000Y-33490000D03*
%TD*%
%TO.P,P,1*%
%TO.N,N/C*%
X10870000Y-74130000D03*
%TD*%
%TO.P,P,1*%
%TO.N,N/C*%
X8330000Y-38570000D03*
%TD*%
%TO.P,P,1*%
%TO.N,N/C*%
X18490000Y-30950000D03*
%TD*%
%TO.P,P,1*%
%TO.N,N/C*%
X38810000Y-41110000D03*
%TD*%
%TO.P,P,1*%
%TO.N,N/C*%
X31190000Y-41110000D03*
%TD*%
%TO.P,P,1*%
%TO.N,N/C*%
X46430000Y-71590000D03*
%TD*%
%TO.P,P,1*%
%TO.N,N/C*%
X38810000Y-58890000D03*
%TD*%
D12*
%TO.N,GND*%
X9870000Y-85500000D03*
X6790000Y-82960000D03*
X9330000Y-82960000D03*
X7330000Y-82960000D03*
X11870000Y-85500000D03*
X7330000Y-85500000D03*
D13*
X8330000Y-88200000D03*
X5643000Y-89313000D03*
D12*
X9330000Y-85500000D03*
D13*
X11017000Y-89313000D03*
D12*
X9870000Y-82960000D03*
D13*
X4530000Y-92000000D03*
D12*
X6790000Y-85500000D03*
D13*
X8330000Y-95800000D03*
D12*
X4790000Y-82960000D03*
X11870000Y-82960000D03*
X4790000Y-85500000D03*
D13*
X5643000Y-94687000D03*
X12130000Y-92000000D03*
X11017000Y-94687000D03*
D12*
%TO.N,VCC*%
X63210000Y-85500000D03*
D13*
X58983000Y-94687000D03*
D12*
X60670000Y-85500000D03*
D13*
X64357000Y-89313000D03*
D12*
X62670000Y-85500000D03*
X60670000Y-82960000D03*
X60130000Y-82960000D03*
X60130000Y-85500000D03*
D13*
X61670000Y-88200000D03*
D12*
X62670000Y-82960000D03*
X58130000Y-85500000D03*
X63210000Y-82960000D03*
X65210000Y-85500000D03*
D13*
X57870000Y-92000000D03*
X58983000Y-89313000D03*
X61670000Y-95800000D03*
X64357000Y-94687000D03*
D12*
X58130000Y-82960000D03*
X65210000Y-82960000D03*
D13*
X65470000Y-92000000D03*
%TD*%
D14*
%TO.N,GND*%
X8330000Y-92000000D02*
X12130000Y-92000000D01*
D15*
X8330000Y-82960000D02*
X10870000Y-82960000D01*
X8330000Y-85500000D02*
X10870000Y-85500000D01*
X5290000Y-82960000D02*
X8330000Y-82960000D01*
D14*
X5790000Y-82960000D02*
X6790000Y-82960000D01*
D16*
X8330000Y-85500000D02*
X8330000Y-92000000D01*
D14*
X8330000Y-92000000D02*
X8330000Y-95800000D01*
X10870000Y-85500000D02*
X11870000Y-85500000D01*
X5790000Y-85500000D02*
X4790000Y-85500000D01*
D15*
X64210000Y-76670000D02*
X64210000Y-79210000D01*
D14*
X10870000Y-82960000D02*
X9870000Y-82960000D01*
X8330000Y-82960000D02*
X7330000Y-82960000D01*
X8330000Y-82960000D02*
X9330000Y-82960000D01*
X8330000Y-92000000D02*
X5643000Y-89313000D01*
D15*
X5790000Y-5550000D02*
X5790000Y-8090000D01*
X64210000Y-66510000D02*
X64210000Y-69050000D01*
X64210000Y-46190000D02*
X64210000Y-48730000D01*
D14*
X10870000Y-85500000D02*
X9870000Y-85500000D01*
X8330000Y-92000000D02*
X11017000Y-94687000D01*
D15*
X5790000Y-15710000D02*
X5790000Y-18250000D01*
D14*
X10870000Y-82960000D02*
X11870000Y-82960000D01*
X8330000Y-85500000D02*
X9330000Y-85500000D01*
D15*
X10870000Y-82960000D02*
X10870000Y-85500000D01*
X5790000Y-25870000D02*
X5790000Y-28410000D01*
X5790000Y-46190000D02*
X5790000Y-48730000D01*
X5790000Y-85500000D02*
X8330000Y-85500000D01*
D14*
X8330000Y-92000000D02*
X11017000Y-89313000D01*
D15*
X5790000Y-56350000D02*
X5790000Y-58890000D01*
X5790000Y-82960000D02*
X5790000Y-85500000D01*
D14*
X8330000Y-92000000D02*
X5643000Y-94687000D01*
D15*
X64210000Y-36030000D02*
X64210000Y-38570000D01*
X5790000Y-76670000D02*
X5790000Y-79210000D01*
X5790000Y-66510000D02*
X5790000Y-69050000D01*
D14*
X8330000Y-85500000D02*
X7330000Y-85500000D01*
X8330000Y-92000000D02*
X8330000Y-88200000D01*
D15*
X64210000Y-25870000D02*
X64210000Y-28410000D01*
D14*
X5790000Y-85500000D02*
X6790000Y-85500000D01*
D15*
X8330000Y-82960000D02*
X8330000Y-85500000D01*
X64210000Y-15710000D02*
X64210000Y-18250000D01*
X5790000Y-82960000D02*
X8330000Y-82960000D01*
D14*
X5790000Y-82960000D02*
X4790000Y-82960000D01*
D15*
X64210000Y-5550000D02*
X64210000Y-8090000D01*
D14*
X8330000Y-92000000D02*
X4530000Y-92000000D01*
D15*
X5790000Y-36030000D02*
X5790000Y-38570000D01*
X64210000Y-56350000D02*
X64210000Y-58890000D01*
%TO.N,VCC*%
X59130000Y-82960000D02*
X61670000Y-82960000D01*
D14*
X61670000Y-92000000D02*
X61670000Y-88200000D01*
X61670000Y-85500000D02*
X60670000Y-85500000D01*
X61670000Y-92000000D02*
X64357000Y-94687000D01*
X61670000Y-82960000D02*
X60670000Y-82960000D01*
D15*
X61670000Y-85500000D02*
X64210000Y-85500000D01*
D14*
X61670000Y-92000000D02*
X58983000Y-94687000D01*
X59130000Y-85500000D02*
X58130000Y-85500000D01*
X61670000Y-82960000D02*
X62670000Y-82960000D01*
X64210000Y-85500000D02*
X65210000Y-85500000D01*
X61670000Y-85500000D02*
X62670000Y-85500000D01*
X59130000Y-82960000D02*
X60130000Y-82960000D01*
D15*
X61670000Y-82960000D02*
X61670000Y-85500000D01*
D14*
X59130000Y-82960000D02*
X58130000Y-82960000D01*
X61670000Y-92000000D02*
X61670000Y-95800000D01*
X61670000Y-92000000D02*
X65470000Y-92000000D01*
X64210000Y-82960000D02*
X63210000Y-82960000D01*
D15*
X61670000Y-82960000D02*
X64210000Y-82960000D01*
D14*
X64210000Y-82960000D02*
X65210000Y-82960000D01*
D15*
X59130000Y-82960000D02*
X59130000Y-85500000D01*
X64210000Y-82960000D02*
X64210000Y-85500000D01*
D14*
X64210000Y-85500000D02*
X63210000Y-85500000D01*
X59130000Y-85500000D02*
X60130000Y-85500000D01*
X61670000Y-92000000D02*
X57870000Y-92000000D01*
D16*
X61670000Y-85500000D02*
X61670000Y-92000000D01*
D14*
X61670000Y-92000000D02*
X58983000Y-89313000D01*
D15*
X59130000Y-85500000D02*
X61670000Y-85500000D01*
D14*
X61670000Y-92000000D02*
X64357000Y-89313000D01*
%TD*%
%TA.AperFunction,Conductor*%
%TO.N,GND*%
G36*
X7689991Y-80228906D02*
G01*
X7689993Y-80228907D01*
X7689993Y-80228908D01*
X7700795Y-80236756D01*
X7700801Y-80236760D01*
X7869168Y-80322547D01*
X8048882Y-80380940D01*
X8048883Y-80380940D01*
X8048886Y-80380941D01*
X8235516Y-80410500D01*
X8235519Y-80410500D01*
X8424484Y-80410500D01*
X8611113Y-80380941D01*
X8611114Y-80380940D01*
X8611118Y-80380940D01*
X8790832Y-80322547D01*
X8959199Y-80236760D01*
X8963728Y-80233469D01*
X8970007Y-80228908D01*
X9028198Y-80210000D01*
X10171802Y-80210000D01*
X10229991Y-80228906D01*
X10229993Y-80228907D01*
X10229993Y-80228908D01*
X10240795Y-80236756D01*
X10240801Y-80236760D01*
X10409168Y-80322547D01*
X10588882Y-80380940D01*
X10588883Y-80380940D01*
X10588886Y-80380941D01*
X10775516Y-80410500D01*
X10775519Y-80410500D01*
X10964484Y-80410500D01*
X11151113Y-80380941D01*
X11151114Y-80380940D01*
X11151118Y-80380940D01*
X11330832Y-80322547D01*
X11499199Y-80236760D01*
X11503728Y-80233469D01*
X11510007Y-80228908D01*
X11568198Y-80210000D01*
X12711802Y-80210000D01*
X12769991Y-80228906D01*
X12769993Y-80228907D01*
X12769993Y-80228908D01*
X12780795Y-80236756D01*
X12780801Y-80236760D01*
X12949168Y-80322547D01*
X13128882Y-80380940D01*
X13128883Y-80380940D01*
X13128886Y-80380941D01*
X13315516Y-80410500D01*
X13315519Y-80410500D01*
X13504484Y-80410500D01*
X13691113Y-80380941D01*
X13691114Y-80380940D01*
X13691118Y-80380940D01*
X13870832Y-80322547D01*
X14039199Y-80236760D01*
X14043728Y-80233469D01*
X14050007Y-80228908D01*
X14108198Y-80210000D01*
X15251802Y-80210000D01*
X15309991Y-80228906D01*
X15309993Y-80228907D01*
X15309993Y-80228908D01*
X15320795Y-80236756D01*
X15320801Y-80236760D01*
X15489168Y-80322547D01*
X15668882Y-80380940D01*
X15668883Y-80380940D01*
X15668886Y-80380941D01*
X15855516Y-80410500D01*
X15855519Y-80410500D01*
X16044484Y-80410500D01*
X16231113Y-80380941D01*
X16231114Y-80380940D01*
X16231118Y-80380940D01*
X16410832Y-80322547D01*
X16579199Y-80236760D01*
X16583728Y-80233469D01*
X16590007Y-80228908D01*
X16648198Y-80210000D01*
X17791802Y-80210000D01*
X17849991Y-80228906D01*
X17849993Y-80228907D01*
X17849993Y-80228908D01*
X17860795Y-80236756D01*
X17860801Y-80236760D01*
X18029168Y-80322547D01*
X18208882Y-80380940D01*
X18208883Y-80380940D01*
X18208886Y-80380941D01*
X18395516Y-80410500D01*
X18395519Y-80410500D01*
X18584484Y-80410500D01*
X18771113Y-80380941D01*
X18771114Y-80380940D01*
X18771118Y-80380940D01*
X18950832Y-80322547D01*
X19119199Y-80236760D01*
X19123728Y-80233469D01*
X19130007Y-80228908D01*
X19188198Y-80210000D01*
X20331802Y-80210000D01*
X20389991Y-80228906D01*
X20389993Y-80228907D01*
X20389993Y-80228908D01*
X20400795Y-80236756D01*
X20400801Y-80236760D01*
X20569168Y-80322547D01*
X20748882Y-80380940D01*
X20748883Y-80380940D01*
X20748886Y-80380941D01*
X20935516Y-80410500D01*
X20935519Y-80410500D01*
X21124484Y-80410500D01*
X21311113Y-80380941D01*
X21311114Y-80380940D01*
X21311118Y-80380940D01*
X21490832Y-80322547D01*
X21659199Y-80236760D01*
X21663728Y-80233469D01*
X21670007Y-80228908D01*
X21728198Y-80210000D01*
X22871802Y-80210000D01*
X22929991Y-80228906D01*
X22929993Y-80228907D01*
X22929993Y-80228908D01*
X22940795Y-80236756D01*
X22940801Y-80236760D01*
X23109168Y-80322547D01*
X23288882Y-80380940D01*
X23288883Y-80380940D01*
X23288886Y-80380941D01*
X23475516Y-80410500D01*
X23475519Y-80410500D01*
X23664484Y-80410500D01*
X23851113Y-80380941D01*
X23851114Y-80380940D01*
X23851118Y-80380940D01*
X24030832Y-80322547D01*
X24199199Y-80236760D01*
X24203728Y-80233469D01*
X24210007Y-80228908D01*
X24268198Y-80210000D01*
X25411802Y-80210000D01*
X25469991Y-80228906D01*
X25469993Y-80228907D01*
X25469993Y-80228908D01*
X25480795Y-80236756D01*
X25480801Y-80236760D01*
X25649168Y-80322547D01*
X25828882Y-80380940D01*
X25828883Y-80380940D01*
X25828886Y-80380941D01*
X26015516Y-80410500D01*
X26015519Y-80410500D01*
X26204484Y-80410500D01*
X26391113Y-80380941D01*
X26391114Y-80380940D01*
X26391118Y-80380940D01*
X26570832Y-80322547D01*
X26739199Y-80236760D01*
X26743728Y-80233469D01*
X26750007Y-80228908D01*
X26808198Y-80210000D01*
X27951802Y-80210000D01*
X28009991Y-80228906D01*
X28009993Y-80228907D01*
X28009993Y-80228908D01*
X28020795Y-80236756D01*
X28020801Y-80236760D01*
X28189168Y-80322547D01*
X28368882Y-80380940D01*
X28368883Y-80380940D01*
X28368886Y-80380941D01*
X28555516Y-80410500D01*
X28555519Y-80410500D01*
X28744484Y-80410500D01*
X28931113Y-80380941D01*
X28931114Y-80380940D01*
X28931118Y-80380940D01*
X29110832Y-80322547D01*
X29279199Y-80236760D01*
X29283728Y-80233469D01*
X29290007Y-80228908D01*
X29348198Y-80210000D01*
X30491802Y-80210000D01*
X30549991Y-80228906D01*
X30549993Y-80228907D01*
X30549993Y-80228908D01*
X30560795Y-80236756D01*
X30560801Y-80236760D01*
X30729168Y-80322547D01*
X30908882Y-80380940D01*
X30908883Y-80380940D01*
X30908886Y-80380941D01*
X31095516Y-80410500D01*
X31095519Y-80410500D01*
X31284484Y-80410500D01*
X31471113Y-80380941D01*
X31471114Y-80380940D01*
X31471118Y-80380940D01*
X31650832Y-80322547D01*
X31819199Y-80236760D01*
X31823728Y-80233469D01*
X31830007Y-80228908D01*
X31888198Y-80210000D01*
X33031802Y-80210000D01*
X33089991Y-80228906D01*
X33089993Y-80228907D01*
X33089993Y-80228908D01*
X33100795Y-80236756D01*
X33100801Y-80236760D01*
X33269168Y-80322547D01*
X33448882Y-80380940D01*
X33448883Y-80380940D01*
X33448886Y-80380941D01*
X33635516Y-80410500D01*
X33635519Y-80410500D01*
X33824484Y-80410500D01*
X34011113Y-80380941D01*
X34011114Y-80380940D01*
X34011118Y-80380940D01*
X34190832Y-80322547D01*
X34359199Y-80236760D01*
X34363728Y-80233469D01*
X34370007Y-80228908D01*
X34428198Y-80210000D01*
X35571802Y-80210000D01*
X35629991Y-80228906D01*
X35629993Y-80228907D01*
X35629993Y-80228908D01*
X35640795Y-80236756D01*
X35640801Y-80236760D01*
X35809168Y-80322547D01*
X35988882Y-80380940D01*
X35988883Y-80380940D01*
X35988886Y-80380941D01*
X36175516Y-80410500D01*
X36175519Y-80410500D01*
X36364484Y-80410500D01*
X36551113Y-80380941D01*
X36551114Y-80380940D01*
X36551118Y-80380940D01*
X36730832Y-80322547D01*
X36899199Y-80236760D01*
X36903728Y-80233469D01*
X36910007Y-80228908D01*
X36968198Y-80210000D01*
X38111802Y-80210000D01*
X38169991Y-80228906D01*
X38169993Y-80228907D01*
X38169993Y-80228908D01*
X38180795Y-80236756D01*
X38180801Y-80236760D01*
X38349168Y-80322547D01*
X38528882Y-80380940D01*
X38528883Y-80380940D01*
X38528886Y-80380941D01*
X38715516Y-80410500D01*
X38715519Y-80410500D01*
X38904484Y-80410500D01*
X39091113Y-80380941D01*
X39091114Y-80380940D01*
X39091118Y-80380940D01*
X39270832Y-80322547D01*
X39439199Y-80236760D01*
X39443728Y-80233469D01*
X39450007Y-80228908D01*
X39508198Y-80210000D01*
X40651802Y-80210000D01*
X40709991Y-80228906D01*
X40709993Y-80228907D01*
X40709993Y-80228908D01*
X40720795Y-80236756D01*
X40720801Y-80236760D01*
X40889168Y-80322547D01*
X41068882Y-80380940D01*
X41068883Y-80380940D01*
X41068886Y-80380941D01*
X41255516Y-80410500D01*
X41255519Y-80410500D01*
X41444484Y-80410500D01*
X41631113Y-80380941D01*
X41631114Y-80380940D01*
X41631118Y-80380940D01*
X41810832Y-80322547D01*
X41979199Y-80236760D01*
X41983728Y-80233469D01*
X41990007Y-80228908D01*
X42048198Y-80210000D01*
X43191802Y-80210000D01*
X43249991Y-80228906D01*
X43249993Y-80228907D01*
X43249993Y-80228908D01*
X43260795Y-80236756D01*
X43260801Y-80236760D01*
X43429168Y-80322547D01*
X43608882Y-80380940D01*
X43608883Y-80380940D01*
X43608886Y-80380941D01*
X43795516Y-80410500D01*
X43795519Y-80410500D01*
X43984484Y-80410500D01*
X44171113Y-80380941D01*
X44171114Y-80380940D01*
X44171118Y-80380940D01*
X44350832Y-80322547D01*
X44519199Y-80236760D01*
X44523728Y-80233469D01*
X44530007Y-80228908D01*
X44588198Y-80210000D01*
X45731802Y-80210000D01*
X45789991Y-80228906D01*
X45789993Y-80228907D01*
X45789993Y-80228908D01*
X45800795Y-80236756D01*
X45800801Y-80236760D01*
X45969168Y-80322547D01*
X46148882Y-80380940D01*
X46148883Y-80380940D01*
X46148886Y-80380941D01*
X46335516Y-80410500D01*
X46335519Y-80410500D01*
X46524484Y-80410500D01*
X46711113Y-80380941D01*
X46711114Y-80380940D01*
X46711118Y-80380940D01*
X46890832Y-80322547D01*
X47059199Y-80236760D01*
X47063728Y-80233469D01*
X47070007Y-80228908D01*
X47128198Y-80210000D01*
X48271802Y-80210000D01*
X48329991Y-80228906D01*
X48329993Y-80228907D01*
X48329993Y-80228908D01*
X48340795Y-80236756D01*
X48340801Y-80236760D01*
X48509168Y-80322547D01*
X48688882Y-80380940D01*
X48688883Y-80380940D01*
X48688886Y-80380941D01*
X48875516Y-80410500D01*
X48875519Y-80410500D01*
X49064484Y-80410500D01*
X49251113Y-80380941D01*
X49251114Y-80380940D01*
X49251118Y-80380940D01*
X49430832Y-80322547D01*
X49599199Y-80236760D01*
X49603728Y-80233469D01*
X49610007Y-80228908D01*
X49668198Y-80210000D01*
X50811802Y-80210000D01*
X50869991Y-80228906D01*
X50869993Y-80228907D01*
X50869993Y-80228908D01*
X50880795Y-80236756D01*
X50880801Y-80236760D01*
X51049168Y-80322547D01*
X51228882Y-80380940D01*
X51228883Y-80380940D01*
X51228886Y-80380941D01*
X51415516Y-80410500D01*
X51415519Y-80410500D01*
X51604484Y-80410500D01*
X51791113Y-80380941D01*
X51791114Y-80380940D01*
X51791118Y-80380940D01*
X51970832Y-80322547D01*
X52139199Y-80236760D01*
X52143728Y-80233469D01*
X52150007Y-80228908D01*
X52208198Y-80210000D01*
X53351802Y-80210000D01*
X53409991Y-80228906D01*
X53409993Y-80228907D01*
X53409993Y-80228908D01*
X53420795Y-80236756D01*
X53420801Y-80236760D01*
X53589168Y-80322547D01*
X53768882Y-80380940D01*
X53768883Y-80380940D01*
X53768886Y-80380941D01*
X53955516Y-80410500D01*
X53955519Y-80410500D01*
X54144484Y-80410500D01*
X54331113Y-80380941D01*
X54331114Y-80380940D01*
X54331118Y-80380940D01*
X54510832Y-80322547D01*
X54679199Y-80236760D01*
X54683728Y-80233469D01*
X54690007Y-80228908D01*
X54748198Y-80210000D01*
X55891802Y-80210000D01*
X55949991Y-80228906D01*
X55949993Y-80228907D01*
X55949993Y-80228908D01*
X55960795Y-80236756D01*
X55960801Y-80236760D01*
X56129168Y-80322547D01*
X56308882Y-80380940D01*
X56308883Y-80380940D01*
X56308886Y-80380941D01*
X56495516Y-80410500D01*
X56495519Y-80410500D01*
X56684484Y-80410500D01*
X56871113Y-80380941D01*
X56871114Y-80380940D01*
X56871118Y-80380940D01*
X57050832Y-80322547D01*
X57219199Y-80236760D01*
X57223728Y-80233469D01*
X57230007Y-80228908D01*
X57288198Y-80210000D01*
X58431802Y-80210000D01*
X58489991Y-80228906D01*
X58489993Y-80228907D01*
X58489993Y-80228908D01*
X58500795Y-80236756D01*
X58500801Y-80236760D01*
X58669168Y-80322547D01*
X58848882Y-80380940D01*
X58848883Y-80380940D01*
X58848886Y-80380941D01*
X59035516Y-80410500D01*
X59035519Y-80410500D01*
X59224484Y-80410500D01*
X59411113Y-80380941D01*
X59411114Y-80380940D01*
X59411118Y-80380940D01*
X59590832Y-80322547D01*
X59759199Y-80236760D01*
X59763728Y-80233469D01*
X59770007Y-80228908D01*
X59828198Y-80210000D01*
X60971802Y-80210000D01*
X61029991Y-80228906D01*
X61029993Y-80228907D01*
X61029993Y-80228908D01*
X61040795Y-80236756D01*
X61040801Y-80236760D01*
X61209168Y-80322547D01*
X61388882Y-80380940D01*
X61388883Y-80380940D01*
X61388886Y-80380941D01*
X61575516Y-80410500D01*
X61575519Y-80410500D01*
X61764484Y-80410500D01*
X61951113Y-80380941D01*
X61951114Y-80380940D01*
X61951118Y-80380940D01*
X62130832Y-80322547D01*
X62299199Y-80236760D01*
X62303728Y-80233469D01*
X62310007Y-80228908D01*
X62368198Y-80210000D01*
X64709999Y-80210000D01*
X65625000Y-80210000D01*
X65795700Y-80226800D01*
X65959800Y-80276600D01*
X66111100Y-80357500D01*
X66243700Y-80466300D01*
X66352500Y-80598900D01*
X66433400Y-80750200D01*
X66483200Y-80914300D01*
X66500000Y-81085000D01*
X66483200Y-81255700D01*
X66433400Y-81419800D01*
X66352500Y-81571100D01*
X66243700Y-81703700D01*
X66111100Y-81812500D01*
X65959800Y-81893400D01*
X65795700Y-81943200D01*
X65625000Y-81960000D01*
X64876031Y-81960000D01*
X64839199Y-81933240D01*
X64839198Y-81933239D01*
X64839196Y-81933238D01*
X64670832Y-81847453D01*
X64491113Y-81789058D01*
X64304484Y-81759500D01*
X64304481Y-81759500D01*
X64115519Y-81759500D01*
X64115516Y-81759500D01*
X63928886Y-81789058D01*
X63749167Y-81847453D01*
X63648571Y-81898710D01*
X63603626Y-81909500D01*
X62276374Y-81909500D01*
X62231429Y-81898710D01*
X62130832Y-81847453D01*
X61951113Y-81789058D01*
X61764484Y-81759500D01*
X61764481Y-81759500D01*
X61575519Y-81759500D01*
X61575516Y-81759500D01*
X61388886Y-81789058D01*
X61209167Y-81847453D01*
X61108571Y-81898710D01*
X61063626Y-81909500D01*
X59736374Y-81909500D01*
X59691429Y-81898710D01*
X59590832Y-81847453D01*
X59411113Y-81789058D01*
X59224484Y-81759500D01*
X59224481Y-81759500D01*
X59035519Y-81759500D01*
X59035516Y-81759500D01*
X58848886Y-81789058D01*
X58669167Y-81847453D01*
X58500801Y-81933239D01*
X58500795Y-81933243D01*
X58489993Y-81941092D01*
X58431802Y-81960000D01*
X4375000Y-81960000D01*
X4204300Y-81943200D01*
X4040200Y-81893400D01*
X3888900Y-81812500D01*
X3756300Y-81703700D01*
X3647500Y-81571100D01*
X3566600Y-81419800D01*
X3516800Y-81255700D01*
X3500000Y-81085000D01*
X3516800Y-80914300D01*
X3566600Y-80750200D01*
X3647500Y-80598900D01*
X3756300Y-80466300D01*
X3888900Y-80357500D01*
X4040200Y-80276600D01*
X4204300Y-80226800D01*
X4375000Y-80210000D01*
X5290001Y-80210000D01*
X7631802Y-80210000D01*
X7689991Y-80228906D01*
G37*
%TD.AperFunction*%
%TD*%
%TA.AperFunction,Conductor*%
%TO.N,GND*%
G36*
X66248892Y-3504847D02*
G01*
X66267737Y-3508589D01*
X66305367Y-3519951D01*
X66323485Y-3527452D01*
X66358126Y-3546007D01*
X66374215Y-3556774D01*
X66404611Y-3581747D01*
X66418252Y-3595388D01*
X66443223Y-3625782D01*
X66453995Y-3641878D01*
X66472544Y-3676507D01*
X66480049Y-3694637D01*
X66491409Y-3732260D01*
X66495152Y-3751106D01*
X66499517Y-3795135D01*
X66500000Y-3804891D01*
X66500000Y-88395332D01*
X66481093Y-88453523D01*
X66431593Y-88489487D01*
X66370407Y-88489487D01*
X66320907Y-88453523D01*
X66315264Y-88444832D01*
X66144658Y-88149335D01*
X66144657Y-88149334D01*
X66144655Y-88149330D01*
X65879176Y-87770186D01*
X65879170Y-87770178D01*
X65581671Y-87415632D01*
X65581667Y-87415628D01*
X65581662Y-87415622D01*
X65254378Y-87088338D01*
X65254371Y-87088332D01*
X65254367Y-87088328D01*
X64899821Y-86790829D01*
X64899805Y-86790817D01*
X64790967Y-86714608D01*
X64754145Y-86665743D01*
X64753077Y-86604567D01*
X64788171Y-86554447D01*
X64802801Y-86545305D01*
X64839199Y-86526760D01*
X64992073Y-86415690D01*
X65125690Y-86282073D01*
X65229405Y-86139321D01*
X65278902Y-86103360D01*
X65283872Y-86101888D01*
X65289052Y-86100500D01*
X65289057Y-86100500D01*
X65441784Y-86059577D01*
X65578716Y-85980520D01*
X65690520Y-85868716D01*
X65769577Y-85731784D01*
X65810500Y-85579057D01*
X65810500Y-85420943D01*
X65769577Y-85268216D01*
X65690520Y-85131284D01*
X65578716Y-85019480D01*
X65441784Y-84940423D01*
X65441783Y-84940422D01*
X65441780Y-84940421D01*
X65333876Y-84911508D01*
X65282562Y-84878184D01*
X65260636Y-84821063D01*
X65260500Y-84815882D01*
X65260500Y-83644117D01*
X65279407Y-83585926D01*
X65328907Y-83549962D01*
X65333857Y-83548495D01*
X65441784Y-83519577D01*
X65578716Y-83440520D01*
X65690520Y-83328716D01*
X65769577Y-83191784D01*
X65810500Y-83039057D01*
X65810500Y-82880943D01*
X65769577Y-82728216D01*
X65690520Y-82591284D01*
X65578716Y-82479480D01*
X65441784Y-82400423D01*
X65289057Y-82359500D01*
X65289056Y-82359500D01*
X65283872Y-82358111D01*
X65232558Y-82324787D01*
X65229420Y-82320699D01*
X65125690Y-82177927D01*
X64992073Y-82044310D01*
X64839199Y-81933240D01*
X64839198Y-81933239D01*
X64839196Y-81933238D01*
X64710000Y-81867409D01*
X64710000Y-80302028D01*
X64838936Y-80236331D01*
X64864328Y-80217883D01*
X64710000Y-80063554D01*
X64710000Y-79356445D01*
X65217883Y-79864328D01*
X65236329Y-79838939D01*
X65322085Y-79670635D01*
X65380453Y-79490996D01*
X65410000Y-79304445D01*
X65410000Y-79115554D01*
X65380453Y-78929003D01*
X65322085Y-78749364D01*
X65236332Y-78581063D01*
X65236330Y-78581059D01*
X65217883Y-78555670D01*
X64710000Y-79063553D01*
X64710000Y-78356443D01*
X64864328Y-78202115D01*
X64838931Y-78183664D01*
X64764054Y-78145512D01*
X64720790Y-78102247D01*
X64710000Y-78057303D01*
X64710000Y-77822695D01*
X64728907Y-77764504D01*
X64764056Y-77734485D01*
X64838925Y-77696338D01*
X64838938Y-77696330D01*
X64864328Y-77677883D01*
X64710000Y-77523554D01*
X64710000Y-76816445D01*
X65217883Y-77324328D01*
X65236329Y-77298939D01*
X65322085Y-77130635D01*
X65380453Y-76950996D01*
X65410000Y-76764445D01*
X65410000Y-76575554D01*
X65380453Y-76389003D01*
X65322085Y-76209364D01*
X65236332Y-76041063D01*
X65236330Y-76041059D01*
X65217883Y-76015670D01*
X64710000Y-76523553D01*
X64710000Y-75816443D01*
X64864328Y-75662115D01*
X64838931Y-75643664D01*
X64764054Y-75605512D01*
X64720790Y-75562247D01*
X64710000Y-75517303D01*
X64710000Y-75283256D01*
X64728907Y-75225065D01*
X64764052Y-75195048D01*
X64839199Y-75156760D01*
X64992073Y-75045690D01*
X65125690Y-74912073D01*
X65236760Y-74759199D01*
X65322547Y-74590832D01*
X65380940Y-74411118D01*
X65410500Y-74224481D01*
X65410500Y-74035519D01*
X65410500Y-74035515D01*
X65380941Y-73848886D01*
X65380940Y-73848882D01*
X65322547Y-73669168D01*
X65236760Y-73500801D01*
X65125690Y-73347927D01*
X64992073Y-73214310D01*
X64839199Y-73103240D01*
X64839198Y-73103239D01*
X64839196Y-73103238D01*
X64764055Y-73064952D01*
X64720790Y-73021687D01*
X64710000Y-72976742D01*
X64710000Y-72743256D01*
X64728907Y-72685065D01*
X64764052Y-72655048D01*
X64839199Y-72616760D01*
X64992073Y-72505690D01*
X65125690Y-72372073D01*
X65236760Y-72219199D01*
X65322547Y-72050832D01*
X65380940Y-71871118D01*
X65410500Y-71684481D01*
X65410500Y-71495519D01*
X65410500Y-71495515D01*
X65380941Y-71308886D01*
X65380940Y-71308882D01*
X65322547Y-71129168D01*
X65236760Y-70960801D01*
X65125690Y-70807927D01*
X64992073Y-70674310D01*
X64839199Y-70563240D01*
X64839198Y-70563239D01*
X64839196Y-70563238D01*
X64764055Y-70524952D01*
X64720790Y-70481687D01*
X64710000Y-70436742D01*
X64710000Y-70202695D01*
X64728907Y-70144504D01*
X64764056Y-70114485D01*
X64838925Y-70076338D01*
X64838938Y-70076330D01*
X64864328Y-70057883D01*
X64710000Y-69903554D01*
X64710000Y-69196445D01*
X65217883Y-69704328D01*
X65236329Y-69678939D01*
X65322085Y-69510635D01*
X65380453Y-69330996D01*
X65410000Y-69144445D01*
X65410000Y-68955554D01*
X65380453Y-68769003D01*
X65322085Y-68589364D01*
X65236332Y-68421063D01*
X65236330Y-68421059D01*
X65217883Y-68395670D01*
X64710000Y-68903553D01*
X64710000Y-68196443D01*
X64864328Y-68042115D01*
X64838931Y-68023664D01*
X64764054Y-67985512D01*
X64720790Y-67942247D01*
X64710000Y-67897303D01*
X64710000Y-67662695D01*
X64728907Y-67604504D01*
X64764056Y-67574485D01*
X64838925Y-67536338D01*
X64838938Y-67536330D01*
X64864328Y-67517883D01*
X64710000Y-67363554D01*
X64710000Y-66656445D01*
X65217883Y-67164328D01*
X65236329Y-67138939D01*
X65322085Y-66970635D01*
X65380453Y-66790996D01*
X65410000Y-66604445D01*
X65410000Y-66415554D01*
X65380453Y-66229003D01*
X65322085Y-66049364D01*
X65236332Y-65881063D01*
X65236330Y-65881059D01*
X65217883Y-65855670D01*
X64710000Y-66363553D01*
X64710000Y-65656443D01*
X64864328Y-65502115D01*
X64838931Y-65483664D01*
X64764054Y-65445512D01*
X64720790Y-65402247D01*
X64710000Y-65357303D01*
X64710000Y-65123256D01*
X64728907Y-65065065D01*
X64764052Y-65035048D01*
X64839199Y-64996760D01*
X64992073Y-64885690D01*
X65125690Y-64752073D01*
X65236760Y-64599199D01*
X65322547Y-64430832D01*
X65380940Y-64251118D01*
X65410500Y-64064481D01*
X65410500Y-63875519D01*
X65410500Y-63875515D01*
X65380941Y-63688886D01*
X65380940Y-63688882D01*
X65322547Y-63509168D01*
X65236760Y-63340801D01*
X65125690Y-63187927D01*
X64992073Y-63054310D01*
X64839199Y-62943240D01*
X64839198Y-62943239D01*
X64839196Y-62943238D01*
X64764055Y-62904952D01*
X64720790Y-62861687D01*
X64710000Y-62816742D01*
X64710000Y-62583256D01*
X64728907Y-62525065D01*
X64764052Y-62495048D01*
X64839199Y-62456760D01*
X64992073Y-62345690D01*
X65125690Y-62212073D01*
X65236760Y-62059199D01*
X65322547Y-61890832D01*
X65380940Y-61711118D01*
X65410500Y-61524481D01*
X65410500Y-61335519D01*
X65410500Y-61335515D01*
X65380941Y-61148886D01*
X65380940Y-61148882D01*
X65322547Y-60969168D01*
X65236760Y-60800801D01*
X65125690Y-60647927D01*
X64992073Y-60514310D01*
X64839199Y-60403240D01*
X64839198Y-60403239D01*
X64839196Y-60403238D01*
X64764055Y-60364952D01*
X64720790Y-60321687D01*
X64710000Y-60276742D01*
X64710000Y-60042695D01*
X64728907Y-59984504D01*
X64764056Y-59954485D01*
X64838925Y-59916338D01*
X64838938Y-59916330D01*
X64864328Y-59897883D01*
X64710000Y-59743554D01*
X64710000Y-59036445D01*
X65217883Y-59544328D01*
X65236329Y-59518939D01*
X65322085Y-59350635D01*
X65380453Y-59170996D01*
X65410000Y-58984445D01*
X65410000Y-58795554D01*
X65380453Y-58609003D01*
X65322085Y-58429364D01*
X65236332Y-58261063D01*
X65236330Y-58261059D01*
X65217883Y-58235670D01*
X64710000Y-58743553D01*
X64710000Y-58036443D01*
X64864328Y-57882115D01*
X64838931Y-57863664D01*
X64764054Y-57825512D01*
X64720790Y-57782247D01*
X64710000Y-57737303D01*
X64710000Y-57502695D01*
X64728907Y-57444504D01*
X64764056Y-57414485D01*
X64838925Y-57376338D01*
X64838938Y-57376330D01*
X64864328Y-57357883D01*
X64710000Y-57203554D01*
X64710000Y-56496445D01*
X65217883Y-57004328D01*
X65236329Y-56978939D01*
X65322085Y-56810635D01*
X65380453Y-56630996D01*
X65410000Y-56444445D01*
X65410000Y-56255554D01*
X65380453Y-56069003D01*
X65322085Y-55889364D01*
X65236332Y-55721063D01*
X65236330Y-55721059D01*
X65217883Y-55695670D01*
X64710000Y-56203553D01*
X64710000Y-55496443D01*
X64864328Y-55342115D01*
X64838931Y-55323664D01*
X64764054Y-55285512D01*
X64720790Y-55242247D01*
X64710000Y-55197303D01*
X64710000Y-54963256D01*
X64728907Y-54905065D01*
X64764052Y-54875048D01*
X64839199Y-54836760D01*
X64992073Y-54725690D01*
X65125690Y-54592073D01*
X65236760Y-54439199D01*
X65322547Y-54270832D01*
X65380940Y-54091118D01*
X65410500Y-53904481D01*
X65410500Y-53715519D01*
X65410500Y-53715515D01*
X65380941Y-53528886D01*
X65380940Y-53528882D01*
X65322547Y-53349168D01*
X65236760Y-53180801D01*
X65125690Y-53027927D01*
X64992073Y-52894310D01*
X64839199Y-52783240D01*
X64839198Y-52783239D01*
X64839196Y-52783238D01*
X64764055Y-52744952D01*
X64720790Y-52701687D01*
X64710000Y-52656742D01*
X64710000Y-52423256D01*
X64728907Y-52365065D01*
X64764052Y-52335048D01*
X64839199Y-52296760D01*
X64992073Y-52185690D01*
X65125690Y-52052073D01*
X65236760Y-51899199D01*
X65322547Y-51730832D01*
X65380940Y-51551118D01*
X65410500Y-51364481D01*
X65410500Y-51175519D01*
X65410500Y-51175515D01*
X65380941Y-50988886D01*
X65380940Y-50988882D01*
X65322547Y-50809168D01*
X65236760Y-50640801D01*
X65125690Y-50487927D01*
X64992073Y-50354310D01*
X64839199Y-50243240D01*
X64839198Y-50243239D01*
X64839196Y-50243238D01*
X64764055Y-50204952D01*
X64720790Y-50161687D01*
X64710000Y-50116742D01*
X64710000Y-49882695D01*
X64728907Y-49824504D01*
X64764056Y-49794485D01*
X64838925Y-49756338D01*
X64838938Y-49756330D01*
X64864328Y-49737883D01*
X64710000Y-49583554D01*
X64710000Y-48876445D01*
X65217883Y-49384328D01*
X65236329Y-49358939D01*
X65322085Y-49190635D01*
X65380453Y-49010996D01*
X65410000Y-48824445D01*
X65410000Y-48635554D01*
X65380453Y-48449003D01*
X65322085Y-48269364D01*
X65236332Y-48101063D01*
X65236330Y-48101059D01*
X65217883Y-48075670D01*
X64710000Y-48583553D01*
X64710000Y-47876443D01*
X64864328Y-47722115D01*
X64838931Y-47703664D01*
X64764054Y-47665512D01*
X64720790Y-47622247D01*
X64710000Y-47577303D01*
X64710000Y-47342695D01*
X64728907Y-47284504D01*
X64764056Y-47254485D01*
X64838925Y-47216338D01*
X64838938Y-47216330D01*
X64864328Y-47197883D01*
X64710000Y-47043554D01*
X64710000Y-46336445D01*
X65217883Y-46844328D01*
X65236329Y-46818939D01*
X65322085Y-46650635D01*
X65380453Y-46470996D01*
X65410000Y-46284445D01*
X65410000Y-46095554D01*
X65380453Y-45909003D01*
X65322085Y-45729364D01*
X65236332Y-45561063D01*
X65236330Y-45561059D01*
X65217883Y-45535670D01*
X64710000Y-46043553D01*
X64710000Y-45336443D01*
X64864328Y-45182115D01*
X64838931Y-45163664D01*
X64764054Y-45125512D01*
X64720790Y-45082247D01*
X64710000Y-45037303D01*
X64710000Y-44803256D01*
X64728907Y-44745065D01*
X64764052Y-44715048D01*
X64839199Y-44676760D01*
X64992073Y-44565690D01*
X65125690Y-44432073D01*
X65236760Y-44279199D01*
X65322547Y-44110832D01*
X65380940Y-43931118D01*
X65410500Y-43744481D01*
X65410500Y-43555519D01*
X65410500Y-43555515D01*
X65380941Y-43368886D01*
X65380940Y-43368882D01*
X65322547Y-43189168D01*
X65236760Y-43020801D01*
X65125690Y-42867927D01*
X64992073Y-42734310D01*
X64839199Y-42623240D01*
X64839198Y-42623239D01*
X64839196Y-42623238D01*
X64764055Y-42584952D01*
X64720790Y-42541687D01*
X64710000Y-42496742D01*
X64710000Y-42263256D01*
X64728907Y-42205065D01*
X64764052Y-42175048D01*
X64839199Y-42136760D01*
X64992073Y-42025690D01*
X65125690Y-41892073D01*
X65236760Y-41739199D01*
X65322547Y-41570832D01*
X65380940Y-41391118D01*
X65410500Y-41204481D01*
X65410500Y-41015519D01*
X65410500Y-41015515D01*
X65380941Y-40828886D01*
X65380940Y-40828882D01*
X65322547Y-40649168D01*
X65236760Y-40480801D01*
X65125690Y-40327927D01*
X64992073Y-40194310D01*
X64839199Y-40083240D01*
X64839198Y-40083239D01*
X64839196Y-40083238D01*
X64764055Y-40044952D01*
X64720790Y-40001687D01*
X64710000Y-39956742D01*
X64710000Y-39722695D01*
X64728907Y-39664504D01*
X64764056Y-39634485D01*
X64838925Y-39596338D01*
X64838938Y-39596330D01*
X64864328Y-39577883D01*
X64710000Y-39423554D01*
X64710000Y-38716445D01*
X65217883Y-39224328D01*
X65236329Y-39198939D01*
X65322085Y-39030635D01*
X65380453Y-38850996D01*
X65410000Y-38664445D01*
X65410000Y-38475554D01*
X65380453Y-38289003D01*
X65322085Y-38109364D01*
X65236332Y-37941063D01*
X65236330Y-37941059D01*
X65217883Y-37915670D01*
X64710000Y-38423553D01*
X64710000Y-37716443D01*
X64864328Y-37562115D01*
X64838931Y-37543664D01*
X64764054Y-37505512D01*
X64720790Y-37462247D01*
X64710000Y-37417303D01*
X64710000Y-37182695D01*
X64728907Y-37124504D01*
X64764056Y-37094485D01*
X64838925Y-37056338D01*
X64838938Y-37056330D01*
X64864328Y-37037883D01*
X64710000Y-36883554D01*
X64710000Y-36176445D01*
X65217883Y-36684328D01*
X65236329Y-36658939D01*
X65322085Y-36490635D01*
X65380453Y-36310996D01*
X65410000Y-36124445D01*
X65410000Y-35935554D01*
X65380453Y-35749003D01*
X65322085Y-35569364D01*
X65236332Y-35401063D01*
X65236330Y-35401059D01*
X65217883Y-35375670D01*
X64710000Y-35883553D01*
X64710000Y-35176443D01*
X64864328Y-35022115D01*
X64838931Y-35003664D01*
X64764054Y-34965512D01*
X64720790Y-34922247D01*
X64710000Y-34877303D01*
X64710000Y-34643256D01*
X64728907Y-34585065D01*
X64764052Y-34555048D01*
X64839199Y-34516760D01*
X64992073Y-34405690D01*
X65125690Y-34272073D01*
X65236760Y-34119199D01*
X65322547Y-33950832D01*
X65380940Y-33771118D01*
X65410500Y-33584481D01*
X65410500Y-33395519D01*
X65410500Y-33395515D01*
X65380941Y-33208886D01*
X65380940Y-33208882D01*
X65322547Y-33029168D01*
X65236760Y-32860801D01*
X65125690Y-32707927D01*
X64992073Y-32574310D01*
X64839199Y-32463240D01*
X64839198Y-32463239D01*
X64839196Y-32463238D01*
X64764055Y-32424952D01*
X64720790Y-32381687D01*
X64710000Y-32336742D01*
X64710000Y-32103256D01*
X64728907Y-32045065D01*
X64764052Y-32015048D01*
X64839199Y-31976760D01*
X64992073Y-31865690D01*
X65125690Y-31732073D01*
X65236760Y-31579199D01*
X65322547Y-31410832D01*
X65380940Y-31231118D01*
X65410500Y-31044481D01*
X65410500Y-30855519D01*
X65410500Y-30855515D01*
X65380941Y-30668886D01*
X65380940Y-30668882D01*
X65322547Y-30489168D01*
X65236760Y-30320801D01*
X65125690Y-30167927D01*
X64992073Y-30034310D01*
X64839199Y-29923240D01*
X64839198Y-29923239D01*
X64839196Y-29923238D01*
X64764055Y-29884952D01*
X64720790Y-29841687D01*
X64710000Y-29796742D01*
X64710000Y-29562695D01*
X64728907Y-29504504D01*
X64764056Y-29474485D01*
X64838925Y-29436338D01*
X64838938Y-29436330D01*
X64864328Y-29417883D01*
X64710000Y-29263554D01*
X64710000Y-28556445D01*
X65217883Y-29064328D01*
X65236329Y-29038939D01*
X65322085Y-28870635D01*
X65380453Y-28690996D01*
X65410000Y-28504445D01*
X65410000Y-28315554D01*
X65380453Y-28129003D01*
X65322085Y-27949364D01*
X65236332Y-27781063D01*
X65236330Y-27781059D01*
X65217883Y-27755670D01*
X64710000Y-28263553D01*
X64710000Y-27556443D01*
X64864328Y-27402115D01*
X64838931Y-27383664D01*
X64764054Y-27345512D01*
X64720790Y-27302247D01*
X64710000Y-27257303D01*
X64710000Y-27022695D01*
X64728907Y-26964504D01*
X64764056Y-26934485D01*
X64838925Y-26896338D01*
X64838938Y-26896330D01*
X64864328Y-26877883D01*
X64710000Y-26723554D01*
X64710000Y-26016445D01*
X65217883Y-26524328D01*
X65236329Y-26498939D01*
X65322085Y-26330635D01*
X65380453Y-26150996D01*
X65410000Y-25964445D01*
X65410000Y-25775554D01*
X65380453Y-25589003D01*
X65322085Y-25409364D01*
X65236332Y-25241063D01*
X65236330Y-25241059D01*
X65217883Y-25215670D01*
X64710000Y-25723553D01*
X64710000Y-25016443D01*
X64864328Y-24862115D01*
X64838931Y-24843664D01*
X64764054Y-24805512D01*
X64720790Y-24762247D01*
X64710000Y-24717303D01*
X64710000Y-24483256D01*
X64728907Y-24425065D01*
X64764052Y-24395048D01*
X64839199Y-24356760D01*
X64992073Y-24245690D01*
X65125690Y-24112073D01*
X65236760Y-23959199D01*
X65322547Y-23790832D01*
X65380940Y-23611118D01*
X65410500Y-23424481D01*
X65410500Y-23235519D01*
X65410500Y-23235515D01*
X65380941Y-23048886D01*
X65380940Y-23048882D01*
X65322547Y-22869168D01*
X65236760Y-22700801D01*
X65125690Y-22547927D01*
X64992073Y-22414310D01*
X64839199Y-22303240D01*
X64839198Y-22303239D01*
X64839196Y-22303238D01*
X64764055Y-22264952D01*
X64720790Y-22221687D01*
X64710000Y-22176742D01*
X64710000Y-21943256D01*
X64728907Y-21885065D01*
X64764052Y-21855048D01*
X64839199Y-21816760D01*
X64992073Y-21705690D01*
X65125690Y-21572073D01*
X65236760Y-21419199D01*
X65322547Y-21250832D01*
X65380940Y-21071118D01*
X65410500Y-20884481D01*
X65410500Y-20695519D01*
X65410500Y-20695515D01*
X65380941Y-20508886D01*
X65380940Y-20508882D01*
X65322547Y-20329168D01*
X65236760Y-20160801D01*
X65125690Y-20007927D01*
X64992073Y-19874310D01*
X64839199Y-19763240D01*
X64839198Y-19763239D01*
X64839196Y-19763238D01*
X64764055Y-19724952D01*
X64720790Y-19681687D01*
X64710000Y-19636742D01*
X64710000Y-19402695D01*
X64728907Y-19344504D01*
X64764056Y-19314485D01*
X64838925Y-19276338D01*
X64838938Y-19276330D01*
X64864328Y-19257883D01*
X64710000Y-19103554D01*
X64710000Y-18396445D01*
X65217883Y-18904328D01*
X65236329Y-18878939D01*
X65322085Y-18710635D01*
X65380453Y-18530996D01*
X65410000Y-18344445D01*
X65410000Y-18155554D01*
X65380453Y-17969003D01*
X65322085Y-17789364D01*
X65236332Y-17621063D01*
X65236330Y-17621059D01*
X65217883Y-17595670D01*
X64710000Y-18103553D01*
X64710000Y-17396443D01*
X64864328Y-17242115D01*
X64838931Y-17223664D01*
X64764054Y-17185512D01*
X64720790Y-17142247D01*
X64710000Y-17097303D01*
X64710000Y-16862695D01*
X64728907Y-16804504D01*
X64764056Y-16774485D01*
X64838925Y-16736338D01*
X64838938Y-16736330D01*
X64864328Y-16717883D01*
X64710000Y-16563554D01*
X64710000Y-15856445D01*
X65217883Y-16364328D01*
X65236329Y-16338939D01*
X65322085Y-16170635D01*
X65380453Y-15990996D01*
X65410000Y-15804445D01*
X65410000Y-15615554D01*
X65380453Y-15429003D01*
X65322085Y-15249364D01*
X65236332Y-15081063D01*
X65236330Y-15081059D01*
X65217883Y-15055670D01*
X64710000Y-15563553D01*
X64710000Y-14856443D01*
X64864328Y-14702115D01*
X64838931Y-14683664D01*
X64764054Y-14645512D01*
X64720790Y-14602247D01*
X64710000Y-14557303D01*
X64710000Y-14323256D01*
X64728907Y-14265065D01*
X64764052Y-14235048D01*
X64839199Y-14196760D01*
X64992073Y-14085690D01*
X65125690Y-13952073D01*
X65236760Y-13799199D01*
X65322547Y-13630832D01*
X65380940Y-13451118D01*
X65410500Y-13264481D01*
X65410500Y-13075519D01*
X65410500Y-13075515D01*
X65380941Y-12888886D01*
X65380940Y-12888882D01*
X65322547Y-12709168D01*
X65236760Y-12540801D01*
X65125690Y-12387927D01*
X64992073Y-12254310D01*
X64839199Y-12143240D01*
X64839198Y-12143239D01*
X64839196Y-12143238D01*
X64764055Y-12104952D01*
X64720790Y-12061687D01*
X64710000Y-12016742D01*
X64710000Y-11783256D01*
X64728907Y-11725065D01*
X64764052Y-11695048D01*
X64839199Y-11656760D01*
X64992073Y-11545690D01*
X65125690Y-11412073D01*
X65236760Y-11259199D01*
X65322547Y-11090832D01*
X65380940Y-10911118D01*
X65410500Y-10724481D01*
X65410500Y-10535519D01*
X65410500Y-10535515D01*
X65380941Y-10348886D01*
X65380940Y-10348882D01*
X65322547Y-10169168D01*
X65236760Y-10000801D01*
X65125690Y-9847927D01*
X64992073Y-9714310D01*
X64839199Y-9603240D01*
X64839198Y-9603239D01*
X64839196Y-9603238D01*
X64764055Y-9564952D01*
X64720790Y-9521687D01*
X64710000Y-9476742D01*
X64710000Y-9242695D01*
X64728907Y-9184504D01*
X64764056Y-9154485D01*
X64838925Y-9116338D01*
X64838938Y-9116330D01*
X64864328Y-9097883D01*
X64710000Y-8943554D01*
X64710000Y-8236445D01*
X65217883Y-8744328D01*
X65236329Y-8718939D01*
X65322085Y-8550635D01*
X65380453Y-8370996D01*
X65410000Y-8184445D01*
X65410000Y-7995554D01*
X65380453Y-7809003D01*
X65322085Y-7629364D01*
X65236332Y-7461063D01*
X65236330Y-7461059D01*
X65217883Y-7435670D01*
X64710000Y-7943553D01*
X64710000Y-7236443D01*
X64864328Y-7082115D01*
X64838931Y-7063664D01*
X64764054Y-7025512D01*
X64720790Y-6982247D01*
X64710000Y-6937303D01*
X64710000Y-6702695D01*
X64728907Y-6644504D01*
X64764056Y-6614485D01*
X64838925Y-6576338D01*
X64838938Y-6576330D01*
X64864328Y-6557883D01*
X64710000Y-6403554D01*
X64710000Y-5696445D01*
X65217883Y-6204328D01*
X65236329Y-6178939D01*
X65322085Y-6010635D01*
X65380453Y-5830996D01*
X65410000Y-5644445D01*
X65410000Y-5455554D01*
X65380453Y-5269003D01*
X65322085Y-5089364D01*
X65236332Y-4921063D01*
X65236330Y-4921059D01*
X65217883Y-4895670D01*
X64710000Y-5403553D01*
X64710000Y-4696443D01*
X64864328Y-4542115D01*
X64838934Y-4523666D01*
X64710000Y-4457971D01*
X64710000Y-3800000D01*
X64715800Y-3741500D01*
X64732800Y-3685200D01*
X64760600Y-3633300D01*
X64797900Y-3587900D01*
X64843300Y-3550600D01*
X64895200Y-3522800D01*
X64951500Y-3505800D01*
X65010000Y-3500000D01*
X66200000Y-3500000D01*
X66248892Y-3504847D01*
G37*
%TD.AperFunction*%
%TD*%
%TA.AperFunction,Conductor*%
%TO.N,GND*%
G36*
X5048500Y-3505800D02*
G01*
X5104800Y-3522800D01*
X5156700Y-3550600D01*
X5202100Y-3587900D01*
X5239400Y-3633300D01*
X5267200Y-3685200D01*
X5284200Y-3741500D01*
X5290000Y-3800000D01*
X5290000Y-4457971D01*
X5161063Y-4523668D01*
X5135670Y-4542115D01*
X5290000Y-4696445D01*
X5290000Y-5403555D01*
X4782115Y-4895670D01*
X4763668Y-4921063D01*
X4677914Y-5089364D01*
X4619546Y-5269003D01*
X4590000Y-5455554D01*
X4590000Y-5644445D01*
X4619546Y-5830996D01*
X4677914Y-6010635D01*
X4763666Y-6178934D01*
X4782115Y-6204328D01*
X5290000Y-5696443D01*
X5290000Y-6403553D01*
X5135670Y-6557883D01*
X5161059Y-6576330D01*
X5161067Y-6576334D01*
X5235944Y-6614485D01*
X5279209Y-6657749D01*
X5290000Y-6702695D01*
X5290000Y-6937303D01*
X5271093Y-6995494D01*
X5235946Y-7025512D01*
X5161065Y-7063666D01*
X5135670Y-7082115D01*
X5290000Y-7236445D01*
X5290000Y-7943555D01*
X4782115Y-7435670D01*
X4763668Y-7461063D01*
X4677914Y-7629364D01*
X4619546Y-7809003D01*
X4590000Y-7995554D01*
X4590000Y-8184445D01*
X4619546Y-8370996D01*
X4677914Y-8550635D01*
X4763666Y-8718934D01*
X4782115Y-8744328D01*
X5290000Y-8236443D01*
X5290000Y-8943553D01*
X5135670Y-9097883D01*
X5161059Y-9116330D01*
X5161067Y-9116334D01*
X5235944Y-9154485D01*
X5279209Y-9197749D01*
X5290000Y-9242695D01*
X5290000Y-9476742D01*
X5271093Y-9534933D01*
X5235945Y-9564952D01*
X5160803Y-9603238D01*
X5007928Y-9714309D01*
X4874309Y-9847928D01*
X4763238Y-10000803D01*
X4677453Y-10169167D01*
X4619058Y-10348886D01*
X4589500Y-10535515D01*
X4589500Y-10724484D01*
X4619058Y-10911113D01*
X4619060Y-10911118D01*
X4677453Y-11090832D01*
X4763240Y-11259199D01*
X4874310Y-11412073D01*
X5007927Y-11545690D01*
X5160801Y-11656760D01*
X5235946Y-11695048D01*
X5279209Y-11738310D01*
X5290000Y-11783256D01*
X5290000Y-12016742D01*
X5271093Y-12074933D01*
X5235945Y-12104952D01*
X5160803Y-12143238D01*
X5007928Y-12254309D01*
X4874309Y-12387928D01*
X4763238Y-12540803D01*
X4677453Y-12709167D01*
X4619058Y-12888886D01*
X4589500Y-13075515D01*
X4589500Y-13264484D01*
X4619058Y-13451113D01*
X4619060Y-13451118D01*
X4677453Y-13630832D01*
X4763240Y-13799199D01*
X4874310Y-13952073D01*
X5007927Y-14085690D01*
X5160801Y-14196760D01*
X5235946Y-14235048D01*
X5279209Y-14278310D01*
X5290000Y-14323256D01*
X5290000Y-14557303D01*
X5271093Y-14615494D01*
X5235946Y-14645512D01*
X5161065Y-14683666D01*
X5135670Y-14702115D01*
X5290000Y-14856445D01*
X5290000Y-15563555D01*
X4782115Y-15055670D01*
X4763668Y-15081063D01*
X4677914Y-15249364D01*
X4619546Y-15429003D01*
X4590000Y-15615554D01*
X4590000Y-15804445D01*
X4619546Y-15990996D01*
X4677914Y-16170635D01*
X4763666Y-16338934D01*
X4782115Y-16364328D01*
X5290000Y-15856443D01*
X5290000Y-16563553D01*
X5135670Y-16717883D01*
X5161059Y-16736330D01*
X5161067Y-16736334D01*
X5235944Y-16774485D01*
X5279209Y-16817749D01*
X5290000Y-16862695D01*
X5290000Y-17097303D01*
X5271093Y-17155494D01*
X5235946Y-17185512D01*
X5161065Y-17223666D01*
X5135670Y-17242115D01*
X5290000Y-17396445D01*
X5290000Y-18103555D01*
X4782115Y-17595670D01*
X4763668Y-17621063D01*
X4677914Y-17789364D01*
X4619546Y-17969003D01*
X4590000Y-18155554D01*
X4590000Y-18344445D01*
X4619546Y-18530996D01*
X4677914Y-18710635D01*
X4763666Y-18878934D01*
X4782115Y-18904328D01*
X5290000Y-18396443D01*
X5290000Y-19103553D01*
X5135670Y-19257883D01*
X5161059Y-19276330D01*
X5161067Y-19276334D01*
X5235944Y-19314485D01*
X5279209Y-19357749D01*
X5290000Y-19402695D01*
X5290000Y-19636742D01*
X5271093Y-19694933D01*
X5235945Y-19724952D01*
X5160803Y-19763238D01*
X5007928Y-19874309D01*
X4874309Y-20007928D01*
X4763238Y-20160803D01*
X4677453Y-20329167D01*
X4619058Y-20508886D01*
X4589500Y-20695515D01*
X4589500Y-20884484D01*
X4619058Y-21071113D01*
X4619060Y-21071118D01*
X4677453Y-21250832D01*
X4763240Y-21419199D01*
X4874310Y-21572073D01*
X5007927Y-21705690D01*
X5160801Y-21816760D01*
X5235946Y-21855048D01*
X5279209Y-21898310D01*
X5290000Y-21943256D01*
X5290000Y-22176742D01*
X5271093Y-22234933D01*
X5235945Y-22264952D01*
X5160803Y-22303238D01*
X5007928Y-22414309D01*
X4874309Y-22547928D01*
X4763238Y-22700803D01*
X4677453Y-22869167D01*
X4619058Y-23048886D01*
X4589500Y-23235515D01*
X4589500Y-23424484D01*
X4619058Y-23611113D01*
X4619060Y-23611118D01*
X4677453Y-23790832D01*
X4763240Y-23959199D01*
X4874310Y-24112073D01*
X5007927Y-24245690D01*
X5160801Y-24356760D01*
X5235946Y-24395048D01*
X5279209Y-24438310D01*
X5290000Y-24483256D01*
X5290000Y-24717303D01*
X5271093Y-24775494D01*
X5235946Y-24805512D01*
X5161065Y-24843666D01*
X5135670Y-24862115D01*
X5290000Y-25016445D01*
X5290000Y-25723555D01*
X4782115Y-25215670D01*
X4763668Y-25241063D01*
X4677914Y-25409364D01*
X4619546Y-25589003D01*
X4590000Y-25775554D01*
X4590000Y-25964445D01*
X4619546Y-26150996D01*
X4677914Y-26330635D01*
X4763666Y-26498934D01*
X4782115Y-26524328D01*
X5290000Y-26016443D01*
X5290000Y-26723553D01*
X5135670Y-26877883D01*
X5161059Y-26896330D01*
X5161067Y-26896334D01*
X5235944Y-26934485D01*
X5279209Y-26977749D01*
X5290000Y-27022695D01*
X5290000Y-27257303D01*
X5271093Y-27315494D01*
X5235946Y-27345512D01*
X5161065Y-27383666D01*
X5135670Y-27402115D01*
X5290000Y-27556445D01*
X5290000Y-28263555D01*
X4782115Y-27755670D01*
X4763668Y-27781063D01*
X4677914Y-27949364D01*
X4619546Y-28129003D01*
X4590000Y-28315554D01*
X4590000Y-28504445D01*
X4619546Y-28690996D01*
X4677914Y-28870635D01*
X4763666Y-29038934D01*
X4782115Y-29064328D01*
X5290000Y-28556443D01*
X5290000Y-29263553D01*
X5135670Y-29417883D01*
X5161059Y-29436330D01*
X5161067Y-29436334D01*
X5235944Y-29474485D01*
X5279209Y-29517749D01*
X5290000Y-29562695D01*
X5290000Y-29796742D01*
X5271093Y-29854933D01*
X5235945Y-29884952D01*
X5160803Y-29923238D01*
X5007928Y-30034309D01*
X4874309Y-30167928D01*
X4763238Y-30320803D01*
X4677453Y-30489167D01*
X4619058Y-30668886D01*
X4589500Y-30855515D01*
X4589500Y-31044484D01*
X4619058Y-31231113D01*
X4619060Y-31231118D01*
X4677453Y-31410832D01*
X4763240Y-31579199D01*
X4874310Y-31732073D01*
X5007927Y-31865690D01*
X5160801Y-31976760D01*
X5235946Y-32015048D01*
X5279209Y-32058310D01*
X5290000Y-32103256D01*
X5290000Y-32336742D01*
X5271093Y-32394933D01*
X5235945Y-32424952D01*
X5160803Y-32463238D01*
X5007928Y-32574309D01*
X4874309Y-32707928D01*
X4763238Y-32860803D01*
X4677453Y-33029167D01*
X4619058Y-33208886D01*
X4589500Y-33395515D01*
X4589500Y-33584484D01*
X4619058Y-33771113D01*
X4619060Y-33771118D01*
X4677453Y-33950832D01*
X4763240Y-34119199D01*
X4874310Y-34272073D01*
X5007927Y-34405690D01*
X5160801Y-34516760D01*
X5235946Y-34555048D01*
X5279209Y-34598310D01*
X5290000Y-34643256D01*
X5290000Y-34877303D01*
X5271093Y-34935494D01*
X5235946Y-34965512D01*
X5161065Y-35003666D01*
X5135670Y-35022115D01*
X5290000Y-35176445D01*
X5290000Y-35883555D01*
X4782115Y-35375670D01*
X4763668Y-35401063D01*
X4677914Y-35569364D01*
X4619546Y-35749003D01*
X4590000Y-35935554D01*
X4590000Y-36124445D01*
X4619546Y-36310996D01*
X4677914Y-36490635D01*
X4763666Y-36658934D01*
X4782115Y-36684328D01*
X5290000Y-36176443D01*
X5290000Y-36883553D01*
X5135670Y-37037883D01*
X5161059Y-37056330D01*
X5161067Y-37056334D01*
X5235944Y-37094485D01*
X5279209Y-37137749D01*
X5290000Y-37182695D01*
X5290000Y-37417303D01*
X5271093Y-37475494D01*
X5235946Y-37505512D01*
X5161065Y-37543666D01*
X5135670Y-37562115D01*
X5290000Y-37716445D01*
X5290000Y-38423555D01*
X4782115Y-37915670D01*
X4763668Y-37941063D01*
X4677914Y-38109364D01*
X4619546Y-38289003D01*
X4590000Y-38475554D01*
X4590000Y-38664445D01*
X4619546Y-38850996D01*
X4677914Y-39030635D01*
X4763666Y-39198934D01*
X4782115Y-39224328D01*
X5290000Y-38716443D01*
X5290000Y-39423553D01*
X5135670Y-39577883D01*
X5161059Y-39596330D01*
X5161067Y-39596334D01*
X5235944Y-39634485D01*
X5279209Y-39677749D01*
X5290000Y-39722695D01*
X5290000Y-39956742D01*
X5271093Y-40014933D01*
X5235945Y-40044952D01*
X5160803Y-40083238D01*
X5007928Y-40194309D01*
X4874309Y-40327928D01*
X4763238Y-40480803D01*
X4677453Y-40649167D01*
X4619058Y-40828886D01*
X4589500Y-41015515D01*
X4589500Y-41204484D01*
X4619058Y-41391113D01*
X4619060Y-41391118D01*
X4677453Y-41570832D01*
X4763240Y-41739199D01*
X4874310Y-41892073D01*
X5007927Y-42025690D01*
X5160801Y-42136760D01*
X5235946Y-42175048D01*
X5279209Y-42218310D01*
X5290000Y-42263256D01*
X5290000Y-42496742D01*
X5271093Y-42554933D01*
X5235945Y-42584952D01*
X5160803Y-42623238D01*
X5007928Y-42734309D01*
X4874309Y-42867928D01*
X4763238Y-43020803D01*
X4677453Y-43189167D01*
X4619058Y-43368886D01*
X4589500Y-43555515D01*
X4589500Y-43744484D01*
X4619058Y-43931113D01*
X4619060Y-43931118D01*
X4677453Y-44110832D01*
X4763240Y-44279199D01*
X4874310Y-44432073D01*
X5007927Y-44565690D01*
X5160801Y-44676760D01*
X5235946Y-44715048D01*
X5279209Y-44758310D01*
X5290000Y-44803256D01*
X5290000Y-45037303D01*
X5271093Y-45095494D01*
X5235946Y-45125512D01*
X5161065Y-45163666D01*
X5135670Y-45182115D01*
X5290000Y-45336445D01*
X5290000Y-46043555D01*
X4782115Y-45535670D01*
X4763668Y-45561063D01*
X4677914Y-45729364D01*
X4619546Y-45909003D01*
X4590000Y-46095554D01*
X4590000Y-46284445D01*
X4619546Y-46470996D01*
X4677914Y-46650635D01*
X4763666Y-46818934D01*
X4782115Y-46844328D01*
X5290000Y-46336443D01*
X5290000Y-47043553D01*
X5135670Y-47197883D01*
X5161059Y-47216330D01*
X5161067Y-47216334D01*
X5235944Y-47254485D01*
X5279209Y-47297749D01*
X5290000Y-47342695D01*
X5290000Y-47577303D01*
X5271093Y-47635494D01*
X5235946Y-47665512D01*
X5161065Y-47703666D01*
X5135670Y-47722115D01*
X5290000Y-47876445D01*
X5290000Y-48583555D01*
X4782115Y-48075670D01*
X4763668Y-48101063D01*
X4677914Y-48269364D01*
X4619546Y-48449003D01*
X4590000Y-48635554D01*
X4590000Y-48824445D01*
X4619546Y-49010996D01*
X4677914Y-49190635D01*
X4763666Y-49358934D01*
X4782115Y-49384328D01*
X5290000Y-48876443D01*
X5290000Y-49583553D01*
X5135670Y-49737883D01*
X5161059Y-49756330D01*
X5161067Y-49756334D01*
X5235944Y-49794485D01*
X5279209Y-49837749D01*
X5290000Y-49882695D01*
X5290000Y-50116742D01*
X5271093Y-50174933D01*
X5235945Y-50204952D01*
X5160803Y-50243238D01*
X5007928Y-50354309D01*
X4874309Y-50487928D01*
X4763238Y-50640803D01*
X4677453Y-50809167D01*
X4619058Y-50988886D01*
X4589500Y-51175515D01*
X4589500Y-51364484D01*
X4619058Y-51551113D01*
X4619060Y-51551118D01*
X4677453Y-51730832D01*
X4763240Y-51899199D01*
X4874310Y-52052073D01*
X5007927Y-52185690D01*
X5160801Y-52296760D01*
X5235946Y-52335048D01*
X5279209Y-52378310D01*
X5290000Y-52423256D01*
X5290000Y-52656742D01*
X5271093Y-52714933D01*
X5235945Y-52744952D01*
X5160803Y-52783238D01*
X5007928Y-52894309D01*
X4874309Y-53027928D01*
X4763238Y-53180803D01*
X4677453Y-53349167D01*
X4619058Y-53528886D01*
X4589500Y-53715515D01*
X4589500Y-53904484D01*
X4619058Y-54091113D01*
X4619060Y-54091118D01*
X4677453Y-54270832D01*
X4763240Y-54439199D01*
X4874310Y-54592073D01*
X5007927Y-54725690D01*
X5160801Y-54836760D01*
X5235946Y-54875048D01*
X5279209Y-54918310D01*
X5290000Y-54963256D01*
X5290000Y-55197303D01*
X5271093Y-55255494D01*
X5235946Y-55285512D01*
X5161065Y-55323666D01*
X5135670Y-55342115D01*
X5290000Y-55496445D01*
X5290000Y-56203555D01*
X4782115Y-55695670D01*
X4763668Y-55721063D01*
X4677914Y-55889364D01*
X4619546Y-56069003D01*
X4590000Y-56255554D01*
X4590000Y-56444445D01*
X4619546Y-56630996D01*
X4677914Y-56810635D01*
X4763666Y-56978934D01*
X4782115Y-57004328D01*
X5290000Y-56496443D01*
X5290000Y-57203553D01*
X5135670Y-57357883D01*
X5161059Y-57376330D01*
X5161067Y-57376334D01*
X5235944Y-57414485D01*
X5279209Y-57457749D01*
X5290000Y-57502695D01*
X5290000Y-57737303D01*
X5271093Y-57795494D01*
X5235946Y-57825512D01*
X5161065Y-57863666D01*
X5135670Y-57882115D01*
X5290000Y-58036445D01*
X5290000Y-58743555D01*
X4782115Y-58235670D01*
X4763668Y-58261063D01*
X4677914Y-58429364D01*
X4619546Y-58609003D01*
X4590000Y-58795554D01*
X4590000Y-58984445D01*
X4619546Y-59170996D01*
X4677914Y-59350635D01*
X4763666Y-59518934D01*
X4782115Y-59544328D01*
X5290000Y-59036443D01*
X5290000Y-59743553D01*
X5135670Y-59897883D01*
X5161059Y-59916330D01*
X5161067Y-59916334D01*
X5235944Y-59954485D01*
X5279209Y-59997749D01*
X5290000Y-60042695D01*
X5290000Y-60276742D01*
X5271093Y-60334933D01*
X5235945Y-60364952D01*
X5160803Y-60403238D01*
X5007928Y-60514309D01*
X4874309Y-60647928D01*
X4763238Y-60800803D01*
X4677453Y-60969167D01*
X4619058Y-61148886D01*
X4589500Y-61335515D01*
X4589500Y-61524484D01*
X4619058Y-61711113D01*
X4619060Y-61711118D01*
X4677453Y-61890832D01*
X4763240Y-62059199D01*
X4874310Y-62212073D01*
X5007927Y-62345690D01*
X5160801Y-62456760D01*
X5235946Y-62495048D01*
X5279209Y-62538310D01*
X5290000Y-62583256D01*
X5290000Y-62816742D01*
X5271093Y-62874933D01*
X5235945Y-62904952D01*
X5160803Y-62943238D01*
X5007928Y-63054309D01*
X4874309Y-63187928D01*
X4763238Y-63340803D01*
X4677453Y-63509167D01*
X4619058Y-63688886D01*
X4589500Y-63875515D01*
X4589500Y-64064484D01*
X4619058Y-64251113D01*
X4619060Y-64251118D01*
X4677453Y-64430832D01*
X4763240Y-64599199D01*
X4874310Y-64752073D01*
X5007927Y-64885690D01*
X5160801Y-64996760D01*
X5235946Y-65035048D01*
X5279209Y-65078310D01*
X5290000Y-65123256D01*
X5290000Y-65357303D01*
X5271093Y-65415494D01*
X5235946Y-65445512D01*
X5161065Y-65483666D01*
X5135670Y-65502115D01*
X5290000Y-65656445D01*
X5290000Y-66363555D01*
X4782115Y-65855670D01*
X4763668Y-65881063D01*
X4677914Y-66049364D01*
X4619546Y-66229003D01*
X4590000Y-66415554D01*
X4590000Y-66604445D01*
X4619546Y-66790996D01*
X4677914Y-66970635D01*
X4763666Y-67138934D01*
X4782115Y-67164328D01*
X5290000Y-66656443D01*
X5290000Y-67363553D01*
X5135670Y-67517883D01*
X5161059Y-67536330D01*
X5161067Y-67536334D01*
X5235944Y-67574485D01*
X5279209Y-67617749D01*
X5290000Y-67662695D01*
X5290000Y-67897303D01*
X5271093Y-67955494D01*
X5235946Y-67985512D01*
X5161065Y-68023666D01*
X5135670Y-68042115D01*
X5290000Y-68196445D01*
X5290000Y-68903555D01*
X4782115Y-68395670D01*
X4763668Y-68421063D01*
X4677914Y-68589364D01*
X4619546Y-68769003D01*
X4590000Y-68955554D01*
X4590000Y-69144445D01*
X4619546Y-69330996D01*
X4677914Y-69510635D01*
X4763666Y-69678934D01*
X4782115Y-69704328D01*
X5290000Y-69196443D01*
X5290000Y-69903553D01*
X5135670Y-70057883D01*
X5161059Y-70076330D01*
X5161067Y-70076334D01*
X5235944Y-70114485D01*
X5279209Y-70157749D01*
X5290000Y-70202695D01*
X5290000Y-70436742D01*
X5271093Y-70494933D01*
X5235945Y-70524952D01*
X5160803Y-70563238D01*
X5007928Y-70674309D01*
X4874309Y-70807928D01*
X4763238Y-70960803D01*
X4677453Y-71129167D01*
X4619058Y-71308886D01*
X4589500Y-71495515D01*
X4589500Y-71684484D01*
X4619058Y-71871113D01*
X4619060Y-71871118D01*
X4677453Y-72050832D01*
X4763240Y-72219199D01*
X4874310Y-72372073D01*
X5007927Y-72505690D01*
X5160801Y-72616760D01*
X5235946Y-72655048D01*
X5279209Y-72698310D01*
X5290000Y-72743256D01*
X5290000Y-72976742D01*
X5271093Y-73034933D01*
X5235945Y-73064952D01*
X5160803Y-73103238D01*
X5007928Y-73214309D01*
X4874309Y-73347928D01*
X4763238Y-73500803D01*
X4677453Y-73669167D01*
X4619058Y-73848886D01*
X4589500Y-74035515D01*
X4589500Y-74224484D01*
X4619058Y-74411113D01*
X4619060Y-74411118D01*
X4677453Y-74590832D01*
X4763240Y-74759199D01*
X4874310Y-74912073D01*
X5007927Y-75045690D01*
X5160801Y-75156760D01*
X5235946Y-75195048D01*
X5279209Y-75238310D01*
X5290000Y-75283256D01*
X5290000Y-75517303D01*
X5271093Y-75575494D01*
X5235946Y-75605512D01*
X5161065Y-75643666D01*
X5135670Y-75662115D01*
X5290000Y-75816445D01*
X5290000Y-76523555D01*
X4782115Y-76015670D01*
X4763668Y-76041063D01*
X4677914Y-76209364D01*
X4619546Y-76389003D01*
X4590000Y-76575554D01*
X4590000Y-76764445D01*
X4619546Y-76950996D01*
X4677914Y-77130635D01*
X4763666Y-77298934D01*
X4782115Y-77324328D01*
X5290000Y-76816443D01*
X5290000Y-77523553D01*
X5135670Y-77677883D01*
X5161059Y-77696330D01*
X5161067Y-77696334D01*
X5235944Y-77734485D01*
X5279209Y-77777749D01*
X5290000Y-77822695D01*
X5290000Y-78057303D01*
X5271093Y-78115494D01*
X5235946Y-78145512D01*
X5161065Y-78183666D01*
X5135670Y-78202115D01*
X5290000Y-78356445D01*
X5290000Y-79063555D01*
X4782115Y-78555670D01*
X4763668Y-78581063D01*
X4677914Y-78749364D01*
X4619546Y-78929003D01*
X4590000Y-79115554D01*
X4590000Y-79304445D01*
X4619546Y-79490996D01*
X4677914Y-79670635D01*
X4763666Y-79838934D01*
X4782115Y-79864328D01*
X5290000Y-79356443D01*
X5290000Y-80063553D01*
X5135670Y-80217883D01*
X5161059Y-80236330D01*
X5161063Y-80236332D01*
X5290000Y-80302028D01*
X5290000Y-81867971D01*
X5161063Y-81933668D01*
X5135670Y-81952115D01*
X5290000Y-82106445D01*
X5290000Y-82813555D01*
X4782115Y-82305670D01*
X4763668Y-82331063D01*
X4677914Y-82499364D01*
X4619546Y-82679003D01*
X4590000Y-82865554D01*
X4590000Y-83054445D01*
X4619546Y-83240996D01*
X4677914Y-83420635D01*
X4763666Y-83588934D01*
X4782115Y-83614328D01*
X5290000Y-83106443D01*
X5290000Y-83813553D01*
X5135670Y-83967883D01*
X5161059Y-83986330D01*
X5161067Y-83986334D01*
X5235944Y-84024485D01*
X5279209Y-84067749D01*
X5290000Y-84112695D01*
X5290000Y-84347303D01*
X5271093Y-84405494D01*
X5235946Y-84435512D01*
X5161065Y-84473666D01*
X5135670Y-84492115D01*
X5290000Y-84646445D01*
X5290000Y-85353555D01*
X4782115Y-84845670D01*
X4763668Y-84871063D01*
X4677914Y-85039364D01*
X4619546Y-85219003D01*
X4590000Y-85405554D01*
X4590000Y-85594445D01*
X4619546Y-85780996D01*
X4677914Y-85960635D01*
X4763666Y-86128934D01*
X4782115Y-86154328D01*
X5290000Y-85646443D01*
X5290000Y-86353553D01*
X5135670Y-86507883D01*
X5161059Y-86526330D01*
X5161068Y-86526335D01*
X5198162Y-86545235D01*
X5241427Y-86588499D01*
X5250999Y-86648931D01*
X5223222Y-86703448D01*
X5210002Y-86714541D01*
X5100499Y-86791215D01*
X5100483Y-86791227D01*
X4745971Y-87088698D01*
X4418698Y-87415971D01*
X4121227Y-87770483D01*
X4121215Y-87770499D01*
X3855774Y-88149587D01*
X3855760Y-88149609D01*
X3684736Y-88445832D01*
X3639267Y-88486773D01*
X3578417Y-88493169D01*
X3525429Y-88462576D01*
X3500542Y-88406680D01*
X3500000Y-88396332D01*
X3500000Y-3804891D01*
X3500482Y-3795133D01*
X3504847Y-3751103D01*
X3508590Y-3732260D01*
X3519951Y-3694632D01*
X3527450Y-3676518D01*
X3546010Y-3641868D01*
X3556771Y-3625788D01*
X3581752Y-3595382D01*
X3595382Y-3581752D01*
X3625788Y-3556771D01*
X3641868Y-3546010D01*
X3676518Y-3527450D01*
X3694629Y-3519952D01*
X3732264Y-3508588D01*
X3751105Y-3504847D01*
X3800000Y-3500000D01*
X4990000Y-3500000D01*
X5048500Y-3505800D01*
G37*
%TD.AperFunction*%
%TD*%
%TA.AperFunction,Conductor*%
%TO.N,GND*%
G36*
X6797883Y-6204328D02*
G01*
X6816329Y-6178939D01*
X6902085Y-6010635D01*
X6960452Y-5830998D01*
X6961964Y-5821452D01*
X6989738Y-5766934D01*
X7044253Y-5739153D01*
X7104685Y-5748720D01*
X7147953Y-5791982D01*
X7157526Y-5821442D01*
X7159057Y-5831110D01*
X7217453Y-6010832D01*
X7303107Y-6178939D01*
X7303240Y-6179199D01*
X7321497Y-6204328D01*
X7414316Y-6332081D01*
X7416835Y-6335030D01*
X7415758Y-6335949D01*
X7441011Y-6385513D01*
X7431440Y-6445945D01*
X7388175Y-6489210D01*
X7343230Y-6500000D01*
X6386447Y-6500000D01*
X5919409Y-6032962D01*
X5982993Y-6015925D01*
X6097007Y-5950099D01*
X6190099Y-5857007D01*
X6255925Y-5742993D01*
X6272962Y-5679407D01*
X6797883Y-6204328D01*
G37*
%TD.AperFunction*%
%TA.AperFunction,Conductor*%
G36*
X63744075Y-5742993D02*
G01*
X63809901Y-5857007D01*
X63902993Y-5950099D01*
X64017007Y-6015925D01*
X64080589Y-6032962D01*
X63613551Y-6500000D01*
X62656770Y-6500000D01*
X62598579Y-6481093D01*
X62562615Y-6431593D01*
X62562615Y-6370407D01*
X62583906Y-6335662D01*
X62583165Y-6335030D01*
X62585683Y-6332081D01*
X62585685Y-6332077D01*
X62585690Y-6332073D01*
X62696760Y-6179199D01*
X62782547Y-6010832D01*
X62840940Y-5831118D01*
X62842471Y-5821447D01*
X62870247Y-5766931D01*
X62924763Y-5739152D01*
X62985195Y-5748722D01*
X63028461Y-5791985D01*
X63038034Y-5821445D01*
X63039547Y-5830997D01*
X63097914Y-6010635D01*
X63183666Y-6178934D01*
X63202115Y-6204328D01*
X63727036Y-5679406D01*
X63744075Y-5742993D01*
G37*
%TD.AperFunction*%
%TA.AperFunction,Conductor*%
G36*
X64504836Y-2500475D02*
G01*
X64880502Y-2537445D01*
X64899525Y-2541228D01*
X65256058Y-2649366D01*
X65274004Y-2656801D01*
X65538418Y-2798225D01*
X65602518Y-2832510D01*
X65618624Y-2843274D01*
X65906654Y-3079609D01*
X65920390Y-3093345D01*
X66057574Y-3260535D01*
X66156729Y-3381379D01*
X66167489Y-3397480D01*
X66223572Y-3502337D01*
X66347800Y-3734600D01*
X66461600Y-4109800D01*
X66500000Y-4500000D01*
X66461600Y-4890200D01*
X66347800Y-5265400D01*
X66162900Y-5611100D01*
X65914200Y-5914200D01*
X65611100Y-6162900D01*
X65265400Y-6347800D01*
X64890200Y-6461600D01*
X64778989Y-6472543D01*
X64339408Y-6032962D01*
X64402993Y-6015925D01*
X64517007Y-5950099D01*
X64610099Y-5857007D01*
X64675925Y-5742993D01*
X64692962Y-5679407D01*
X65217883Y-6204328D01*
X65236329Y-6178939D01*
X65322085Y-6010635D01*
X65380453Y-5830996D01*
X65410000Y-5644445D01*
X65410000Y-5455554D01*
X65380453Y-5269003D01*
X65322085Y-5089364D01*
X65236332Y-4921063D01*
X65236330Y-4921059D01*
X65217883Y-4895670D01*
X64692962Y-5420590D01*
X64675925Y-5357007D01*
X64610099Y-5242993D01*
X64517007Y-5149901D01*
X64402993Y-5084075D01*
X64339406Y-5067036D01*
X64864328Y-4542115D01*
X64838934Y-4523666D01*
X64670635Y-4437914D01*
X64490996Y-4379546D01*
X64304445Y-4350000D01*
X64115555Y-4350000D01*
X63929003Y-4379546D01*
X63749364Y-4437914D01*
X63581063Y-4523668D01*
X63555670Y-4542115D01*
X64080592Y-5067037D01*
X64017007Y-5084075D01*
X63902993Y-5149901D01*
X63809901Y-5242993D01*
X63744075Y-5357007D01*
X63727037Y-5420592D01*
X63202115Y-4895670D01*
X63183668Y-4921063D01*
X63097914Y-5089364D01*
X63039547Y-5269001D01*
X63038034Y-5278555D01*
X63010255Y-5333071D01*
X62955738Y-5360847D01*
X62895306Y-5351275D01*
X62852042Y-5308009D01*
X62842472Y-5278551D01*
X62840941Y-5268887D01*
X62840940Y-5268885D01*
X62840940Y-5268882D01*
X62782547Y-5089168D01*
X62696760Y-4920801D01*
X62585690Y-4767927D01*
X62452073Y-4634310D01*
X62299199Y-4523240D01*
X62299198Y-4523239D01*
X62299196Y-4523238D01*
X62130832Y-4437453D01*
X61951113Y-4379058D01*
X61764484Y-4349500D01*
X61764481Y-4349500D01*
X61575519Y-4349500D01*
X61575516Y-4349500D01*
X61388886Y-4379058D01*
X61209167Y-4437453D01*
X61040803Y-4523238D01*
X60887928Y-4634309D01*
X60754309Y-4767928D01*
X60643238Y-4920803D01*
X60557453Y-5089167D01*
X60499058Y-5268886D01*
X60497781Y-5276954D01*
X60470004Y-5331471D01*
X60415487Y-5359248D01*
X60355055Y-5349677D01*
X60311790Y-5306412D01*
X60302219Y-5276954D01*
X60300941Y-5268886D01*
X60300940Y-5268882D01*
X60242547Y-5089168D01*
X60156760Y-4920801D01*
X60045690Y-4767927D01*
X59912073Y-4634310D01*
X59759199Y-4523240D01*
X59759198Y-4523239D01*
X59759196Y-4523238D01*
X59590832Y-4437453D01*
X59411113Y-4379058D01*
X59224484Y-4349500D01*
X59224481Y-4349500D01*
X59035519Y-4349500D01*
X59035516Y-4349500D01*
X58848886Y-4379058D01*
X58669167Y-4437453D01*
X58500803Y-4523238D01*
X58347928Y-4634309D01*
X58214309Y-4767928D01*
X58103238Y-4920803D01*
X58017453Y-5089167D01*
X57959058Y-5268886D01*
X57957781Y-5276954D01*
X57930004Y-5331471D01*
X57875487Y-5359248D01*
X57815055Y-5349677D01*
X57771790Y-5306412D01*
X57762219Y-5276954D01*
X57760941Y-5268886D01*
X57760940Y-5268882D01*
X57702547Y-5089168D01*
X57616760Y-4920801D01*
X57505690Y-4767927D01*
X57372073Y-4634310D01*
X57219199Y-4523240D01*
X57219198Y-4523239D01*
X57219196Y-4523238D01*
X57050832Y-4437453D01*
X56871113Y-4379058D01*
X56684484Y-4349500D01*
X56684481Y-4349500D01*
X56495519Y-4349500D01*
X56495516Y-4349500D01*
X56308886Y-4379058D01*
X56129167Y-4437453D01*
X55960803Y-4523238D01*
X55807928Y-4634309D01*
X55674309Y-4767928D01*
X55563238Y-4920803D01*
X55477453Y-5089167D01*
X55419058Y-5268886D01*
X55417781Y-5276954D01*
X55390004Y-5331471D01*
X55335487Y-5359248D01*
X55275055Y-5349677D01*
X55231790Y-5306412D01*
X55222219Y-5276954D01*
X55220941Y-5268886D01*
X55220940Y-5268882D01*
X55162547Y-5089168D01*
X55076760Y-4920801D01*
X54965690Y-4767927D01*
X54832073Y-4634310D01*
X54679199Y-4523240D01*
X54679198Y-4523239D01*
X54679196Y-4523238D01*
X54510832Y-4437453D01*
X54331113Y-4379058D01*
X54144484Y-4349500D01*
X54144481Y-4349500D01*
X53955519Y-4349500D01*
X53955516Y-4349500D01*
X53768886Y-4379058D01*
X53589167Y-4437453D01*
X53420803Y-4523238D01*
X53267928Y-4634309D01*
X53134309Y-4767928D01*
X53023238Y-4920803D01*
X52937453Y-5089167D01*
X52879058Y-5268886D01*
X52877781Y-5276954D01*
X52850004Y-5331471D01*
X52795487Y-5359248D01*
X52735055Y-5349677D01*
X52691790Y-5306412D01*
X52682219Y-5276954D01*
X52680941Y-5268886D01*
X52680940Y-5268882D01*
X52622547Y-5089168D01*
X52536760Y-4920801D01*
X52425690Y-4767927D01*
X52292073Y-4634310D01*
X52139199Y-4523240D01*
X52139198Y-4523239D01*
X52139196Y-4523238D01*
X51970832Y-4437453D01*
X51791113Y-4379058D01*
X51604484Y-4349500D01*
X51604481Y-4349500D01*
X51415519Y-4349500D01*
X51415516Y-4349500D01*
X51228886Y-4379058D01*
X51049167Y-4437453D01*
X50880803Y-4523238D01*
X50727928Y-4634309D01*
X50594309Y-4767928D01*
X50483238Y-4920803D01*
X50397453Y-5089167D01*
X50339058Y-5268886D01*
X50337781Y-5276954D01*
X50310004Y-5331471D01*
X50255487Y-5359248D01*
X50195055Y-5349677D01*
X50151790Y-5306412D01*
X50142219Y-5276954D01*
X50140941Y-5268886D01*
X50140940Y-5268882D01*
X50082547Y-5089168D01*
X49996760Y-4920801D01*
X49885690Y-4767927D01*
X49752073Y-4634310D01*
X49599199Y-4523240D01*
X49599198Y-4523239D01*
X49599196Y-4523238D01*
X49430832Y-4437453D01*
X49251113Y-4379058D01*
X49064484Y-4349500D01*
X49064481Y-4349500D01*
X48875519Y-4349500D01*
X48875516Y-4349500D01*
X48688886Y-4379058D01*
X48509167Y-4437453D01*
X48340803Y-4523238D01*
X48187928Y-4634309D01*
X48054309Y-4767928D01*
X47943238Y-4920803D01*
X47857453Y-5089167D01*
X47799058Y-5268886D01*
X47797781Y-5276954D01*
X47770004Y-5331471D01*
X47715487Y-5359248D01*
X47655055Y-5349677D01*
X47611790Y-5306412D01*
X47602219Y-5276954D01*
X47600941Y-5268886D01*
X47600940Y-5268882D01*
X47542547Y-5089168D01*
X47456760Y-4920801D01*
X47345690Y-4767927D01*
X47212073Y-4634310D01*
X47059199Y-4523240D01*
X47059198Y-4523239D01*
X47059196Y-4523238D01*
X46890832Y-4437453D01*
X46711113Y-4379058D01*
X46524484Y-4349500D01*
X46524481Y-4349500D01*
X46335519Y-4349500D01*
X46335516Y-4349500D01*
X46148886Y-4379058D01*
X45969167Y-4437453D01*
X45800803Y-4523238D01*
X45647928Y-4634309D01*
X45514309Y-4767928D01*
X45403238Y-4920803D01*
X45317453Y-5089167D01*
X45259058Y-5268886D01*
X45257781Y-5276954D01*
X45230004Y-5331471D01*
X45175487Y-5359248D01*
X45115055Y-5349677D01*
X45071790Y-5306412D01*
X45062219Y-5276954D01*
X45060941Y-5268886D01*
X45060940Y-5268882D01*
X45002547Y-5089168D01*
X44916760Y-4920801D01*
X44805690Y-4767927D01*
X44672073Y-4634310D01*
X44519199Y-4523240D01*
X44519198Y-4523239D01*
X44519196Y-4523238D01*
X44350832Y-4437453D01*
X44171113Y-4379058D01*
X43984484Y-4349500D01*
X43984481Y-4349500D01*
X43795519Y-4349500D01*
X43795516Y-4349500D01*
X43608886Y-4379058D01*
X43429167Y-4437453D01*
X43260803Y-4523238D01*
X43107928Y-4634309D01*
X42974309Y-4767928D01*
X42863238Y-4920803D01*
X42777453Y-5089167D01*
X42719058Y-5268886D01*
X42717781Y-5276954D01*
X42690004Y-5331471D01*
X42635487Y-5359248D01*
X42575055Y-5349677D01*
X42531790Y-5306412D01*
X42522219Y-5276954D01*
X42520941Y-5268886D01*
X42520940Y-5268882D01*
X42462547Y-5089168D01*
X42376760Y-4920801D01*
X42265690Y-4767927D01*
X42132073Y-4634310D01*
X41979199Y-4523240D01*
X41979198Y-4523239D01*
X41979196Y-4523238D01*
X41810832Y-4437453D01*
X41631113Y-4379058D01*
X41444484Y-4349500D01*
X41444481Y-4349500D01*
X41255519Y-4349500D01*
X41255516Y-4349500D01*
X41068886Y-4379058D01*
X40889167Y-4437453D01*
X40720803Y-4523238D01*
X40567928Y-4634309D01*
X40434309Y-4767928D01*
X40323238Y-4920803D01*
X40237453Y-5089167D01*
X40179058Y-5268886D01*
X40177781Y-5276954D01*
X40150004Y-5331471D01*
X40095487Y-5359248D01*
X40035055Y-5349677D01*
X39991790Y-5306412D01*
X39982219Y-5276954D01*
X39980941Y-5268886D01*
X39980940Y-5268882D01*
X39922547Y-5089168D01*
X39836760Y-4920801D01*
X39725690Y-4767927D01*
X39592073Y-4634310D01*
X39439199Y-4523240D01*
X39439198Y-4523239D01*
X39439196Y-4523238D01*
X39270832Y-4437453D01*
X39091113Y-4379058D01*
X38904484Y-4349500D01*
X38904481Y-4349500D01*
X38715519Y-4349500D01*
X38715516Y-4349500D01*
X38528886Y-4379058D01*
X38349167Y-4437453D01*
X38180803Y-4523238D01*
X38027928Y-4634309D01*
X37894309Y-4767928D01*
X37783238Y-4920803D01*
X37697453Y-5089167D01*
X37639058Y-5268886D01*
X37637781Y-5276954D01*
X37610004Y-5331471D01*
X37555487Y-5359248D01*
X37495055Y-5349677D01*
X37451790Y-5306412D01*
X37442219Y-5276954D01*
X37440941Y-5268886D01*
X37440940Y-5268882D01*
X37382547Y-5089168D01*
X37296760Y-4920801D01*
X37185690Y-4767927D01*
X37052073Y-4634310D01*
X36899199Y-4523240D01*
X36899198Y-4523239D01*
X36899196Y-4523238D01*
X36730832Y-4437453D01*
X36551113Y-4379058D01*
X36364484Y-4349500D01*
X36364481Y-4349500D01*
X36175519Y-4349500D01*
X36175516Y-4349500D01*
X35988886Y-4379058D01*
X35809167Y-4437453D01*
X35640803Y-4523238D01*
X35487928Y-4634309D01*
X35354309Y-4767928D01*
X35243238Y-4920803D01*
X35157453Y-5089167D01*
X35099058Y-5268886D01*
X35097781Y-5276954D01*
X35070004Y-5331471D01*
X35015487Y-5359248D01*
X34955055Y-5349677D01*
X34911790Y-5306412D01*
X34902219Y-5276954D01*
X34900941Y-5268886D01*
X34900940Y-5268882D01*
X34842547Y-5089168D01*
X34756760Y-4920801D01*
X34645690Y-4767927D01*
X34512073Y-4634310D01*
X34359199Y-4523240D01*
X34359198Y-4523239D01*
X34359196Y-4523238D01*
X34190832Y-4437453D01*
X34011113Y-4379058D01*
X33824484Y-4349500D01*
X33824481Y-4349500D01*
X33635519Y-4349500D01*
X33635516Y-4349500D01*
X33448886Y-4379058D01*
X33269167Y-4437453D01*
X33100803Y-4523238D01*
X32947928Y-4634309D01*
X32814309Y-4767928D01*
X32703238Y-4920803D01*
X32617453Y-5089167D01*
X32559058Y-5268886D01*
X32557781Y-5276954D01*
X32530004Y-5331471D01*
X32475487Y-5359248D01*
X32415055Y-5349677D01*
X32371790Y-5306412D01*
X32362219Y-5276954D01*
X32360941Y-5268886D01*
X32360940Y-5268882D01*
X32302547Y-5089168D01*
X32216760Y-4920801D01*
X32105690Y-4767927D01*
X31972073Y-4634310D01*
X31819199Y-4523240D01*
X31819198Y-4523239D01*
X31819196Y-4523238D01*
X31650832Y-4437453D01*
X31471113Y-4379058D01*
X31284484Y-4349500D01*
X31284481Y-4349500D01*
X31095519Y-4349500D01*
X31095516Y-4349500D01*
X30908886Y-4379058D01*
X30729167Y-4437453D01*
X30560803Y-4523238D01*
X30407928Y-4634309D01*
X30274309Y-4767928D01*
X30163238Y-4920803D01*
X30077453Y-5089167D01*
X30019058Y-5268886D01*
X30017781Y-5276954D01*
X29990004Y-5331471D01*
X29935487Y-5359248D01*
X29875055Y-5349677D01*
X29831790Y-5306412D01*
X29822219Y-5276954D01*
X29820941Y-5268886D01*
X29820940Y-5268882D01*
X29762547Y-5089168D01*
X29676760Y-4920801D01*
X29565690Y-4767927D01*
X29432073Y-4634310D01*
X29279199Y-4523240D01*
X29279198Y-4523239D01*
X29279196Y-4523238D01*
X29110832Y-4437453D01*
X28931113Y-4379058D01*
X28744484Y-4349500D01*
X28744481Y-4349500D01*
X28555519Y-4349500D01*
X28555516Y-4349500D01*
X28368886Y-4379058D01*
X28189167Y-4437453D01*
X28020803Y-4523238D01*
X27867928Y-4634309D01*
X27734309Y-4767928D01*
X27623238Y-4920803D01*
X27537453Y-5089167D01*
X27479058Y-5268886D01*
X27477781Y-5276954D01*
X27450004Y-5331471D01*
X27395487Y-5359248D01*
X27335055Y-5349677D01*
X27291790Y-5306412D01*
X27282219Y-5276954D01*
X27280941Y-5268886D01*
X27280940Y-5268882D01*
X27222547Y-5089168D01*
X27136760Y-4920801D01*
X27025690Y-4767927D01*
X26892073Y-4634310D01*
X26739199Y-4523240D01*
X26739198Y-4523239D01*
X26739196Y-4523238D01*
X26570832Y-4437453D01*
X26391113Y-4379058D01*
X26204484Y-4349500D01*
X26204481Y-4349500D01*
X26015519Y-4349500D01*
X26015516Y-4349500D01*
X25828886Y-4379058D01*
X25649167Y-4437453D01*
X25480803Y-4523238D01*
X25327928Y-4634309D01*
X25194309Y-4767928D01*
X25083238Y-4920803D01*
X24997453Y-5089167D01*
X24939058Y-5268886D01*
X24937781Y-5276954D01*
X24910004Y-5331471D01*
X24855487Y-5359248D01*
X24795055Y-5349677D01*
X24751790Y-5306412D01*
X24742219Y-5276954D01*
X24740941Y-5268886D01*
X24740940Y-5268882D01*
X24682547Y-5089168D01*
X24596760Y-4920801D01*
X24485690Y-4767927D01*
X24352073Y-4634310D01*
X24199199Y-4523240D01*
X24199198Y-4523239D01*
X24199196Y-4523238D01*
X24030832Y-4437453D01*
X23851113Y-4379058D01*
X23664484Y-4349500D01*
X23664481Y-4349500D01*
X23475519Y-4349500D01*
X23475516Y-4349500D01*
X23288886Y-4379058D01*
X23109167Y-4437453D01*
X22940803Y-4523238D01*
X22787928Y-4634309D01*
X22654309Y-4767928D01*
X22543238Y-4920803D01*
X22457453Y-5089167D01*
X22399058Y-5268886D01*
X22397781Y-5276954D01*
X22370004Y-5331471D01*
X22315487Y-5359248D01*
X22255055Y-5349677D01*
X22211790Y-5306412D01*
X22202219Y-5276954D01*
X22200941Y-5268886D01*
X22200940Y-5268882D01*
X22142547Y-5089168D01*
X22056760Y-4920801D01*
X21945690Y-4767927D01*
X21812073Y-4634310D01*
X21659199Y-4523240D01*
X21659198Y-4523239D01*
X21659196Y-4523238D01*
X21490832Y-4437453D01*
X21311113Y-4379058D01*
X21124484Y-4349500D01*
X21124481Y-4349500D01*
X20935519Y-4349500D01*
X20935516Y-4349500D01*
X20748886Y-4379058D01*
X20569167Y-4437453D01*
X20400803Y-4523238D01*
X20247928Y-4634309D01*
X20114309Y-4767928D01*
X20003238Y-4920803D01*
X19917453Y-5089167D01*
X19859058Y-5268886D01*
X19857781Y-5276954D01*
X19830004Y-5331471D01*
X19775487Y-5359248D01*
X19715055Y-5349677D01*
X19671790Y-5306412D01*
X19662219Y-5276954D01*
X19660941Y-5268886D01*
X19660940Y-5268882D01*
X19602547Y-5089168D01*
X19516760Y-4920801D01*
X19405690Y-4767927D01*
X19272073Y-4634310D01*
X19119199Y-4523240D01*
X19119198Y-4523239D01*
X19119196Y-4523238D01*
X18950832Y-4437453D01*
X18771113Y-4379058D01*
X18584484Y-4349500D01*
X18584481Y-4349500D01*
X18395519Y-4349500D01*
X18395516Y-4349500D01*
X18208886Y-4379058D01*
X18029167Y-4437453D01*
X17860803Y-4523238D01*
X17707928Y-4634309D01*
X17574309Y-4767928D01*
X17463238Y-4920803D01*
X17377453Y-5089167D01*
X17319058Y-5268886D01*
X17317781Y-5276954D01*
X17290004Y-5331471D01*
X17235487Y-5359248D01*
X17175055Y-5349677D01*
X17131790Y-5306412D01*
X17122219Y-5276954D01*
X17120941Y-5268886D01*
X17120940Y-5268882D01*
X17062547Y-5089168D01*
X16976760Y-4920801D01*
X16865690Y-4767927D01*
X16732073Y-4634310D01*
X16579199Y-4523240D01*
X16579198Y-4523239D01*
X16579196Y-4523238D01*
X16410832Y-4437453D01*
X16231113Y-4379058D01*
X16044484Y-4349500D01*
X16044481Y-4349500D01*
X15855519Y-4349500D01*
X15855516Y-4349500D01*
X15668886Y-4379058D01*
X15489167Y-4437453D01*
X15320803Y-4523238D01*
X15167928Y-4634309D01*
X15034309Y-4767928D01*
X14923238Y-4920803D01*
X14837453Y-5089167D01*
X14779058Y-5268886D01*
X14777781Y-5276954D01*
X14750004Y-5331471D01*
X14695487Y-5359248D01*
X14635055Y-5349677D01*
X14591790Y-5306412D01*
X14582219Y-5276954D01*
X14580941Y-5268886D01*
X14580940Y-5268882D01*
X14522547Y-5089168D01*
X14436760Y-4920801D01*
X14325690Y-4767927D01*
X14192073Y-4634310D01*
X14039199Y-4523240D01*
X14039198Y-4523239D01*
X14039196Y-4523238D01*
X13870832Y-4437453D01*
X13691113Y-4379058D01*
X13504484Y-4349500D01*
X13504481Y-4349500D01*
X13315519Y-4349500D01*
X13315516Y-4349500D01*
X13128886Y-4379058D01*
X12949167Y-4437453D01*
X12780803Y-4523238D01*
X12627928Y-4634309D01*
X12494309Y-4767928D01*
X12383238Y-4920803D01*
X12297453Y-5089167D01*
X12239058Y-5268886D01*
X12237781Y-5276954D01*
X12210004Y-5331471D01*
X12155487Y-5359248D01*
X12095055Y-5349677D01*
X12051790Y-5306412D01*
X12042219Y-5276954D01*
X12040941Y-5268886D01*
X12040940Y-5268882D01*
X11982547Y-5089168D01*
X11896760Y-4920801D01*
X11785690Y-4767927D01*
X11652073Y-4634310D01*
X11499199Y-4523240D01*
X11499198Y-4523239D01*
X11499196Y-4523238D01*
X11330832Y-4437453D01*
X11151113Y-4379058D01*
X10964484Y-4349500D01*
X10964481Y-4349500D01*
X10775519Y-4349500D01*
X10775516Y-4349500D01*
X10588886Y-4379058D01*
X10409167Y-4437453D01*
X10240803Y-4523238D01*
X10087928Y-4634309D01*
X9954309Y-4767928D01*
X9843238Y-4920803D01*
X9757453Y-5089167D01*
X9699058Y-5268886D01*
X9697781Y-5276954D01*
X9670004Y-5331471D01*
X9615487Y-5359248D01*
X9555055Y-5349677D01*
X9511790Y-5306412D01*
X9502219Y-5276954D01*
X9500941Y-5268886D01*
X9500940Y-5268882D01*
X9442547Y-5089168D01*
X9356760Y-4920801D01*
X9245690Y-4767927D01*
X9112073Y-4634310D01*
X8959199Y-4523240D01*
X8959198Y-4523239D01*
X8959196Y-4523238D01*
X8790832Y-4437453D01*
X8611113Y-4379058D01*
X8424484Y-4349500D01*
X8424481Y-4349500D01*
X8235519Y-4349500D01*
X8235516Y-4349500D01*
X8048886Y-4379058D01*
X7869167Y-4437453D01*
X7700803Y-4523238D01*
X7547928Y-4634309D01*
X7414309Y-4767928D01*
X7303238Y-4920803D01*
X7217453Y-5089167D01*
X7159057Y-5268888D01*
X7157526Y-5278558D01*
X7129746Y-5333073D01*
X7075228Y-5360848D01*
X7014796Y-5351273D01*
X6971534Y-5308006D01*
X6961964Y-5278548D01*
X6960452Y-5269000D01*
X6902085Y-5089364D01*
X6816332Y-4921063D01*
X6816330Y-4921059D01*
X6797883Y-4895670D01*
X6272962Y-5420590D01*
X6255925Y-5357007D01*
X6190099Y-5242993D01*
X6097007Y-5149901D01*
X5982993Y-5084075D01*
X5919406Y-5067036D01*
X6444328Y-4542115D01*
X6418934Y-4523666D01*
X6250635Y-4437914D01*
X6070996Y-4379546D01*
X5884445Y-4350000D01*
X5695555Y-4350000D01*
X5509003Y-4379546D01*
X5329364Y-4437914D01*
X5161063Y-4523668D01*
X5135670Y-4542115D01*
X5660592Y-5067037D01*
X5597007Y-5084075D01*
X5482993Y-5149901D01*
X5389901Y-5242993D01*
X5324075Y-5357007D01*
X5307037Y-5420592D01*
X4782115Y-4895670D01*
X4763668Y-4921063D01*
X4677914Y-5089364D01*
X4619546Y-5269003D01*
X4590000Y-5455554D01*
X4590000Y-5644445D01*
X4619546Y-5830996D01*
X4677914Y-6010635D01*
X4763666Y-6178934D01*
X4782115Y-6204328D01*
X5307036Y-5679406D01*
X5324075Y-5742993D01*
X5389901Y-5857007D01*
X5482993Y-5950099D01*
X5597007Y-6015925D01*
X5660590Y-6032962D01*
X5221009Y-6472543D01*
X5109800Y-6461600D01*
X4734600Y-6347800D01*
X4388900Y-6162900D01*
X4085800Y-5914200D01*
X3837100Y-5611100D01*
X3652200Y-5265400D01*
X3538400Y-4890200D01*
X3500000Y-4500000D01*
X3538400Y-4109800D01*
X3652200Y-3734600D01*
X3811110Y-3437491D01*
X3832511Y-3397481D01*
X3843272Y-3381377D01*
X4079609Y-3093344D01*
X4093345Y-3079609D01*
X4381377Y-2843272D01*
X4397478Y-2832511D01*
X4725999Y-2656800D01*
X4743937Y-2649367D01*
X5100476Y-2541228D01*
X5119495Y-2537445D01*
X5495163Y-2500475D01*
X5504859Y-2500000D01*
X64495141Y-2500000D01*
X64504836Y-2500475D01*
G37*
%TD.AperFunction*%
%TD*%
M02*
