%TF.GenerationSoftware,KiCad,Pcbnew,9.0.6*%
%TF.CreationDate,2026-03-25T19:20:25+01:00*%
%TF.ProjectId,proto_50x70_breadboard,70726f74-6f5f-4353-9078-37305f627265,rev?*%
%TF.SameCoordinates,Original*%
%TF.FileFunction,Copper,L1,Top*%
%TF.FilePolarity,Positive*%
%FSLAX46Y46*%
G04 Gerber Fmt 4.6, Leading zero omitted, Abs format (unit mm)*
G04 Created by KiCad (PCBNEW 9.0.6) date 2026-03-25 19:20:25*
%MOMM*%
%LPD*%
G01*
G04 APERTURE LIST*
%TA.AperFunction,ComponentPad*%
%ADD10C,1.800000*%
%TD*%
%TA.AperFunction,ComponentPad*%
%ADD11O,10.000000X12.000000*%
%TD*%
%TA.AperFunction,ViaPad*%
%ADD12C,0.800000*%
%TD*%
%TA.AperFunction,ViaPad*%
%ADD13C,0.600000*%
%TD*%
%TA.AperFunction,Conductor*%
%ADD14C,1.500000*%
%TD*%
%TA.AperFunction,Conductor*%
%ADD15C,2.000000*%
%TD*%
%TA.AperFunction,Conductor*%
%ADD16C,0.500000*%
%TD*%
G04 APERTURE END LIST*
D10*
%TO.P,P,1*%
%TO.N,N/C*%
X5950000Y-5790000D03*
%TD*%
%TO.P,P,1*%
%TO.N,N/C*%
X8490000Y-5790000D03*
%TD*%
%TO.P,P,1*%
%TO.N,N/C*%
X11030000Y-5790000D03*
%TD*%
%TO.P,P,1*%
%TO.N,N/C*%
X13570000Y-5790000D03*
%TD*%
%TO.P,P,1*%
%TO.N,N/C*%
X16110000Y-5790000D03*
%TD*%
%TO.P,P,1*%
%TO.N,N/C*%
X18650000Y-5790000D03*
%TD*%
%TO.P,P,1*%
%TO.N,N/C*%
X21190000Y-5790000D03*
%TD*%
%TO.P,P,1*%
%TO.N,N/C*%
X23730000Y-5790000D03*
%TD*%
%TO.P,P,1*%
%TO.N,N/C*%
X26270000Y-5790000D03*
%TD*%
%TO.P,P,1*%
%TO.N,N/C*%
X28810000Y-5790000D03*
%TD*%
%TO.P,P,1*%
%TO.N,N/C*%
X31350000Y-5790000D03*
%TD*%
%TO.P,P,1*%
%TO.N,N/C*%
X33890000Y-5790000D03*
%TD*%
%TO.P,P,1*%
%TO.N,N/C*%
X36430000Y-5790000D03*
%TD*%
%TO.P,P,1*%
%TO.N,N/C*%
X38970000Y-5790000D03*
%TD*%
%TO.P,P,1*%
%TO.N,N/C*%
X41510000Y-5790000D03*
%TD*%
%TO.P,P,1*%
%TO.N,N/C*%
X44050000Y-5790000D03*
%TD*%
%TO.P,P,1*%
%TO.N,N/C*%
X5950000Y-8330000D03*
%TD*%
%TO.P,P,1*%
%TO.N,N/C*%
X8490000Y-8330000D03*
%TD*%
%TO.P,P,1*%
%TO.N,N/C*%
X11030000Y-8330000D03*
%TD*%
%TO.P,P,1*%
%TO.N,N/C*%
X13570000Y-8330000D03*
%TD*%
%TO.P,P,1*%
%TO.N,N/C*%
X16110000Y-8330000D03*
%TD*%
%TO.P,P,1*%
%TO.N,N/C*%
X18650000Y-8330000D03*
%TD*%
%TO.P,P,1*%
%TO.N,N/C*%
X21190000Y-8330000D03*
%TD*%
%TO.P,P,1*%
%TO.N,N/C*%
X23730000Y-8330000D03*
%TD*%
%TO.P,P,1*%
%TO.N,N/C*%
X26270000Y-8330000D03*
%TD*%
%TO.P,P,1*%
%TO.N,N/C*%
X28810000Y-8330000D03*
%TD*%
%TO.P,P,1*%
%TO.N,N/C*%
X31350000Y-8330000D03*
%TD*%
%TO.P,P,1*%
%TO.N,N/C*%
X33890000Y-8330000D03*
%TD*%
%TO.P,P,1*%
%TO.N,N/C*%
X36430000Y-8330000D03*
%TD*%
%TO.P,P,1*%
%TO.N,N/C*%
X38970000Y-8330000D03*
%TD*%
%TO.P,P,1*%
%TO.N,N/C*%
X41510000Y-8330000D03*
%TD*%
%TO.P,P,1*%
%TO.N,N/C*%
X44050000Y-8330000D03*
%TD*%
%TO.P,P,1*%
%TO.N,N/C*%
X5950000Y-10870000D03*
%TD*%
%TO.P,P,1*%
%TO.N,N/C*%
X8490000Y-10870000D03*
%TD*%
%TO.P,P,1*%
%TO.N,N/C*%
X11030000Y-10870000D03*
%TD*%
%TO.P,P,1*%
%TO.N,N/C*%
X13570000Y-10870000D03*
%TD*%
%TO.P,P,1*%
%TO.N,N/C*%
X16110000Y-10870000D03*
%TD*%
%TO.P,P,1*%
%TO.N,N/C*%
X18650000Y-10870000D03*
%TD*%
%TO.P,P,1*%
%TO.N,N/C*%
X21190000Y-10870000D03*
%TD*%
%TO.P,P,1*%
%TO.N,N/C*%
X23730000Y-10870000D03*
%TD*%
%TO.P,P,1*%
%TO.N,N/C*%
X26270000Y-10870000D03*
%TD*%
%TO.P,P,1*%
%TO.N,N/C*%
X28810000Y-10870000D03*
%TD*%
%TO.P,P,1*%
%TO.N,N/C*%
X31350000Y-10870000D03*
%TD*%
%TO.P,P,1*%
%TO.N,N/C*%
X33890000Y-10870000D03*
%TD*%
%TO.P,P,1*%
%TO.N,N/C*%
X36430000Y-10870000D03*
%TD*%
%TO.P,P,1*%
%TO.N,N/C*%
X38970000Y-10870000D03*
%TD*%
%TO.P,P,1*%
%TO.N,N/C*%
X41510000Y-10870000D03*
%TD*%
%TO.P,P,1*%
%TO.N,N/C*%
X44050000Y-10870000D03*
%TD*%
%TO.P,P,1*%
%TO.N,N/C*%
X5950000Y-13410000D03*
%TD*%
%TO.P,P,1*%
%TO.N,N/C*%
X8490000Y-13410000D03*
%TD*%
%TO.P,P,1*%
%TO.N,N/C*%
X11030000Y-13410000D03*
%TD*%
%TO.P,P,1*%
%TO.N,N/C*%
X13570000Y-13410000D03*
%TD*%
%TO.P,P,1*%
%TO.N,N/C*%
X16110000Y-13410000D03*
%TD*%
%TO.P,P,1*%
%TO.N,N/C*%
X18650000Y-13410000D03*
%TD*%
%TO.P,P,1*%
%TO.N,N/C*%
X21190000Y-13410000D03*
%TD*%
%TO.P,P,1*%
%TO.N,N/C*%
X23730000Y-13410000D03*
%TD*%
%TO.P,P,1*%
%TO.N,N/C*%
X26270000Y-13410000D03*
%TD*%
%TO.P,P,1*%
%TO.N,N/C*%
X28810000Y-13410000D03*
%TD*%
%TO.P,P,1*%
%TO.N,N/C*%
X31350000Y-13410000D03*
%TD*%
%TO.P,P,1*%
%TO.N,N/C*%
X33890000Y-13410000D03*
%TD*%
%TO.P,P,1*%
%TO.N,N/C*%
X36430000Y-13410000D03*
%TD*%
%TO.P,P,1*%
%TO.N,N/C*%
X38970000Y-13410000D03*
%TD*%
%TO.P,P,1*%
%TO.N,N/C*%
X41510000Y-13410000D03*
%TD*%
%TO.P,P,1*%
%TO.N,N/C*%
X44050000Y-13410000D03*
%TD*%
%TO.P,P,1*%
%TO.N,N/C*%
X5950000Y-15950000D03*
%TD*%
%TO.P,P,1*%
%TO.N,N/C*%
X8490000Y-15950000D03*
%TD*%
%TO.P,P,1*%
%TO.N,N/C*%
X11030000Y-15950000D03*
%TD*%
%TO.P,P,1*%
%TO.N,N/C*%
X13570000Y-15950000D03*
%TD*%
%TO.P,P,1*%
%TO.N,N/C*%
X16110000Y-15950000D03*
%TD*%
%TO.P,P,1*%
%TO.N,N/C*%
X18650000Y-15950000D03*
%TD*%
%TO.P,P,1*%
%TO.N,N/C*%
X21190000Y-15950000D03*
%TD*%
%TO.P,P,1*%
%TO.N,N/C*%
X23730000Y-15950000D03*
%TD*%
%TO.P,P,1*%
%TO.N,N/C*%
X26270000Y-15950000D03*
%TD*%
%TO.P,P,1*%
%TO.N,N/C*%
X28810000Y-15950000D03*
%TD*%
%TO.P,P,1*%
%TO.N,N/C*%
X31350000Y-15950000D03*
%TD*%
%TO.P,P,1*%
%TO.N,N/C*%
X33890000Y-15950000D03*
%TD*%
%TO.P,P,1*%
%TO.N,N/C*%
X36430000Y-15950000D03*
%TD*%
%TO.P,P,1*%
%TO.N,N/C*%
X38970000Y-15950000D03*
%TD*%
%TO.P,P,1*%
%TO.N,N/C*%
X41510000Y-15950000D03*
%TD*%
%TO.P,P,1*%
%TO.N,N/C*%
X44050000Y-15950000D03*
%TD*%
%TO.P,P,1*%
%TO.N,N/C*%
X5950000Y-18490000D03*
%TD*%
%TO.P,P,1*%
%TO.N,N/C*%
X8490000Y-18490000D03*
%TD*%
%TO.P,P,1*%
%TO.N,N/C*%
X11030000Y-18490000D03*
%TD*%
%TO.P,P,1*%
%TO.N,N/C*%
X13570000Y-18490000D03*
%TD*%
%TO.P,P,1*%
%TO.N,N/C*%
X16110000Y-18490000D03*
%TD*%
%TO.P,P,1*%
%TO.N,N/C*%
X18650000Y-18490000D03*
%TD*%
%TO.P,P,1*%
%TO.N,N/C*%
X21190000Y-18490000D03*
%TD*%
%TO.P,P,1*%
%TO.N,N/C*%
X23730000Y-18490000D03*
%TD*%
%TO.P,P,1*%
%TO.N,N/C*%
X26270000Y-18490000D03*
%TD*%
%TO.P,P,1*%
%TO.N,N/C*%
X28810000Y-18490000D03*
%TD*%
%TO.P,P,1*%
%TO.N,N/C*%
X31350000Y-18490000D03*
%TD*%
%TO.P,P,1*%
%TO.N,N/C*%
X33890000Y-18490000D03*
%TD*%
%TO.P,P,1*%
%TO.N,N/C*%
X36430000Y-18490000D03*
%TD*%
%TO.P,P,1*%
%TO.N,N/C*%
X38970000Y-18490000D03*
%TD*%
%TO.P,P,1*%
%TO.N,N/C*%
X41510000Y-18490000D03*
%TD*%
%TO.P,P,1*%
%TO.N,N/C*%
X44050000Y-18490000D03*
%TD*%
%TO.P,P,1*%
%TO.N,N/C*%
X5950000Y-21030000D03*
%TD*%
%TO.P,P,1*%
%TO.N,N/C*%
X8490000Y-21030000D03*
%TD*%
%TO.P,P,1*%
%TO.N,N/C*%
X11030000Y-21030000D03*
%TD*%
%TO.P,P,1*%
%TO.N,N/C*%
X13570000Y-21030000D03*
%TD*%
%TO.P,P,1*%
%TO.N,N/C*%
X16110000Y-21030000D03*
%TD*%
%TO.P,P,1*%
%TO.N,N/C*%
X18650000Y-21030000D03*
%TD*%
%TO.P,P,1*%
%TO.N,N/C*%
X21190000Y-21030000D03*
%TD*%
%TO.P,P,1*%
%TO.N,N/C*%
X23730000Y-21030000D03*
%TD*%
%TO.P,P,1*%
%TO.N,N/C*%
X26270000Y-21030000D03*
%TD*%
%TO.P,P,1*%
%TO.N,N/C*%
X28810000Y-21030000D03*
%TD*%
%TO.P,P,1*%
%TO.N,N/C*%
X31350000Y-21030000D03*
%TD*%
%TO.P,P,1*%
%TO.N,N/C*%
X33890000Y-21030000D03*
%TD*%
%TO.P,P,1*%
%TO.N,N/C*%
X36430000Y-21030000D03*
%TD*%
%TO.P,P,1*%
%TO.N,N/C*%
X38970000Y-21030000D03*
%TD*%
%TO.P,P,1*%
%TO.N,N/C*%
X41510000Y-21030000D03*
%TD*%
%TO.P,P,1*%
%TO.N,N/C*%
X44050000Y-21030000D03*
%TD*%
%TO.P,P,1*%
%TO.N,N/C*%
X5950000Y-23570000D03*
%TD*%
%TO.P,P,1*%
%TO.N,N/C*%
X8490000Y-23570000D03*
%TD*%
%TO.P,P,1*%
%TO.N,N/C*%
X11030000Y-23570000D03*
%TD*%
%TO.P,P,1*%
%TO.N,N/C*%
X13570000Y-23570000D03*
%TD*%
%TO.P,P,1*%
%TO.N,N/C*%
X16110000Y-23570000D03*
%TD*%
%TO.P,P,1*%
%TO.N,N/C*%
X18650000Y-23570000D03*
%TD*%
%TO.P,P,1*%
%TO.N,N/C*%
X21190000Y-23570000D03*
%TD*%
%TO.P,P,1*%
%TO.N,N/C*%
X23730000Y-23570000D03*
%TD*%
%TO.P,P,1*%
%TO.N,N/C*%
X26270000Y-23570000D03*
%TD*%
%TO.P,P,1*%
%TO.N,N/C*%
X28810000Y-23570000D03*
%TD*%
%TO.P,P,1*%
%TO.N,N/C*%
X31350000Y-23570000D03*
%TD*%
%TO.P,P,1*%
%TO.N,N/C*%
X33890000Y-23570000D03*
%TD*%
%TO.P,P,1*%
%TO.N,N/C*%
X36430000Y-23570000D03*
%TD*%
%TO.P,P,1*%
%TO.N,N/C*%
X38970000Y-23570000D03*
%TD*%
%TO.P,P,1*%
%TO.N,N/C*%
X41510000Y-23570000D03*
%TD*%
%TO.P,P,1*%
%TO.N,N/C*%
X44050000Y-23570000D03*
%TD*%
%TO.P,P,1*%
%TO.N,N/C*%
X5950000Y-26110000D03*
%TD*%
%TO.P,P,1*%
%TO.N,N/C*%
X8490000Y-26110000D03*
%TD*%
%TO.P,P,1*%
%TO.N,N/C*%
X11030000Y-26110000D03*
%TD*%
%TO.P,P,1*%
%TO.N,N/C*%
X13570000Y-26110000D03*
%TD*%
%TO.P,P,1*%
%TO.N,N/C*%
X16110000Y-26110000D03*
%TD*%
%TO.P,P,1*%
%TO.N,N/C*%
X18650000Y-26110000D03*
%TD*%
%TO.P,P,1*%
%TO.N,N/C*%
X21190000Y-26110000D03*
%TD*%
%TO.P,P,1*%
%TO.N,N/C*%
X23730000Y-26110000D03*
%TD*%
%TO.P,P,1*%
%TO.N,N/C*%
X26270000Y-26110000D03*
%TD*%
%TO.P,P,1*%
%TO.N,N/C*%
X28810000Y-26110000D03*
%TD*%
%TO.P,P,1*%
%TO.N,N/C*%
X31350000Y-26110000D03*
%TD*%
%TO.P,P,1*%
%TO.N,N/C*%
X33890000Y-26110000D03*
%TD*%
%TO.P,P,1*%
%TO.N,N/C*%
X36430000Y-26110000D03*
%TD*%
%TO.P,P,1*%
%TO.N,N/C*%
X38970000Y-26110000D03*
%TD*%
%TO.P,P,1*%
%TO.N,N/C*%
X41510000Y-26110000D03*
%TD*%
%TO.P,P,1*%
%TO.N,N/C*%
X44050000Y-26110000D03*
%TD*%
%TO.P,P,1*%
%TO.N,N/C*%
X5950000Y-28650000D03*
%TD*%
%TO.P,P,1*%
%TO.N,N/C*%
X8490000Y-28650000D03*
%TD*%
%TO.P,P,1*%
%TO.N,N/C*%
X11030000Y-28650000D03*
%TD*%
%TO.P,P,1*%
%TO.N,N/C*%
X13570000Y-28650000D03*
%TD*%
%TO.P,P,1*%
%TO.N,N/C*%
X16110000Y-28650000D03*
%TD*%
%TO.P,P,1*%
%TO.N,N/C*%
X18650000Y-28650000D03*
%TD*%
%TO.P,P,1*%
%TO.N,N/C*%
X21190000Y-28650000D03*
%TD*%
%TO.P,P,1*%
%TO.N,N/C*%
X23730000Y-28650000D03*
%TD*%
%TO.P,P,1*%
%TO.N,N/C*%
X26270000Y-28650000D03*
%TD*%
%TO.P,P,1*%
%TO.N,N/C*%
X28810000Y-28650000D03*
%TD*%
%TO.P,P,1*%
%TO.N,N/C*%
X31350000Y-28650000D03*
%TD*%
%TO.P,P,1*%
%TO.N,N/C*%
X33890000Y-28650000D03*
%TD*%
%TO.P,P,1*%
%TO.N,N/C*%
X36430000Y-28650000D03*
%TD*%
%TO.P,P,1*%
%TO.N,N/C*%
X38970000Y-28650000D03*
%TD*%
%TO.P,P,1*%
%TO.N,N/C*%
X41510000Y-28650000D03*
%TD*%
%TO.P,P,1*%
%TO.N,N/C*%
X44050000Y-28650000D03*
%TD*%
%TO.P,P,1*%
%TO.N,N/C*%
X5950000Y-31190000D03*
%TD*%
%TO.P,P,1*%
%TO.N,N/C*%
X8490000Y-31190000D03*
%TD*%
%TO.P,P,1*%
%TO.N,N/C*%
X11030000Y-31190000D03*
%TD*%
%TO.P,P,1*%
%TO.N,N/C*%
X13570000Y-31190000D03*
%TD*%
%TO.P,P,1*%
%TO.N,N/C*%
X16110000Y-31190000D03*
%TD*%
%TO.P,P,1*%
%TO.N,N/C*%
X18650000Y-31190000D03*
%TD*%
%TO.P,P,1*%
%TO.N,N/C*%
X21190000Y-31190000D03*
%TD*%
%TO.P,P,1*%
%TO.N,N/C*%
X23730000Y-31190000D03*
%TD*%
%TO.P,P,1*%
%TO.N,N/C*%
X26270000Y-31190000D03*
%TD*%
%TO.P,P,1*%
%TO.N,N/C*%
X28810000Y-31190000D03*
%TD*%
%TO.P,P,1*%
%TO.N,N/C*%
X31350000Y-31190000D03*
%TD*%
%TO.P,P,1*%
%TO.N,N/C*%
X33890000Y-31190000D03*
%TD*%
%TO.P,P,1*%
%TO.N,N/C*%
X36430000Y-31190000D03*
%TD*%
%TO.P,P,1*%
%TO.N,N/C*%
X38970000Y-31190000D03*
%TD*%
%TO.P,P,1*%
%TO.N,N/C*%
X41510000Y-31190000D03*
%TD*%
%TO.P,P,1*%
%TO.N,N/C*%
X44050000Y-31190000D03*
%TD*%
%TO.P,P,1*%
%TO.N,N/C*%
X5950000Y-33730000D03*
%TD*%
%TO.P,P,1*%
%TO.N,N/C*%
X8490000Y-33730000D03*
%TD*%
%TO.P,P,1*%
%TO.N,N/C*%
X11030000Y-33730000D03*
%TD*%
%TO.P,P,1*%
%TO.N,N/C*%
X13570000Y-33730000D03*
%TD*%
%TO.P,P,1*%
%TO.N,N/C*%
X16110000Y-33730000D03*
%TD*%
%TO.P,P,1*%
%TO.N,N/C*%
X18650000Y-33730000D03*
%TD*%
%TO.P,P,1*%
%TO.N,N/C*%
X21190000Y-33730000D03*
%TD*%
%TO.P,P,1*%
%TO.N,N/C*%
X23730000Y-33730000D03*
%TD*%
%TO.P,P,1*%
%TO.N,N/C*%
X26270000Y-33730000D03*
%TD*%
%TO.P,P,1*%
%TO.N,N/C*%
X28810000Y-33730000D03*
%TD*%
%TO.P,P,1*%
%TO.N,N/C*%
X31350000Y-33730000D03*
%TD*%
%TO.P,P,1*%
%TO.N,N/C*%
X33890000Y-33730000D03*
%TD*%
%TO.P,P,1*%
%TO.N,N/C*%
X36430000Y-33730000D03*
%TD*%
%TO.P,P,1*%
%TO.N,N/C*%
X38970000Y-33730000D03*
%TD*%
%TO.P,P,1*%
%TO.N,N/C*%
X41510000Y-33730000D03*
%TD*%
%TO.P,P,1*%
%TO.N,N/C*%
X44050000Y-33730000D03*
%TD*%
%TO.P,P,1*%
%TO.N,N/C*%
X5950000Y-36270000D03*
%TD*%
%TO.P,P,1*%
%TO.N,N/C*%
X8490000Y-36270000D03*
%TD*%
%TO.P,P,1*%
%TO.N,N/C*%
X11030000Y-36270000D03*
%TD*%
%TO.P,P,1*%
%TO.N,N/C*%
X13570000Y-36270000D03*
%TD*%
%TO.P,P,1*%
%TO.N,N/C*%
X16110000Y-36270000D03*
%TD*%
%TO.P,P,1*%
%TO.N,N/C*%
X18650000Y-36270000D03*
%TD*%
%TO.P,P,1*%
%TO.N,N/C*%
X21190000Y-36270000D03*
%TD*%
%TO.P,P,1*%
%TO.N,N/C*%
X23730000Y-36270000D03*
%TD*%
%TO.P,P,1*%
%TO.N,N/C*%
X26270000Y-36270000D03*
%TD*%
%TO.P,P,1*%
%TO.N,N/C*%
X28810000Y-36270000D03*
%TD*%
%TO.P,P,1*%
%TO.N,N/C*%
X31350000Y-36270000D03*
%TD*%
%TO.P,P,1*%
%TO.N,N/C*%
X33890000Y-36270000D03*
%TD*%
%TO.P,P,1*%
%TO.N,N/C*%
X36430000Y-36270000D03*
%TD*%
%TO.P,P,1*%
%TO.N,N/C*%
X38970000Y-36270000D03*
%TD*%
%TO.P,P,1*%
%TO.N,N/C*%
X41510000Y-36270000D03*
%TD*%
%TO.P,P,1*%
%TO.N,N/C*%
X44050000Y-36270000D03*
%TD*%
%TO.P,P,1*%
%TO.N,N/C*%
X5950000Y-38810000D03*
%TD*%
%TO.P,P,1*%
%TO.N,N/C*%
X8490000Y-38810000D03*
%TD*%
%TO.P,P,1*%
%TO.N,N/C*%
X11030000Y-38810000D03*
%TD*%
%TO.P,P,1*%
%TO.N,N/C*%
X13570000Y-38810000D03*
%TD*%
%TO.P,P,1*%
%TO.N,N/C*%
X16110000Y-38810000D03*
%TD*%
%TO.P,P,1*%
%TO.N,N/C*%
X18650000Y-38810000D03*
%TD*%
%TO.P,P,1*%
%TO.N,N/C*%
X21190000Y-38810000D03*
%TD*%
%TO.P,P,1*%
%TO.N,N/C*%
X23730000Y-38810000D03*
%TD*%
%TO.P,P,1*%
%TO.N,N/C*%
X26270000Y-38810000D03*
%TD*%
%TO.P,P,1*%
%TO.N,N/C*%
X28810000Y-38810000D03*
%TD*%
%TO.P,P,1*%
%TO.N,N/C*%
X31350000Y-38810000D03*
%TD*%
%TO.P,P,1*%
%TO.N,N/C*%
X33890000Y-38810000D03*
%TD*%
%TO.P,P,1*%
%TO.N,N/C*%
X36430000Y-38810000D03*
%TD*%
%TO.P,P,1*%
%TO.N,N/C*%
X38970000Y-38810000D03*
%TD*%
%TO.P,P,1*%
%TO.N,N/C*%
X41510000Y-38810000D03*
%TD*%
%TO.P,P,1*%
%TO.N,N/C*%
X44050000Y-38810000D03*
%TD*%
%TO.P,P,1*%
%TO.N,N/C*%
X5950000Y-41350000D03*
%TD*%
%TO.P,P,1*%
%TO.N,N/C*%
X8490000Y-41350000D03*
%TD*%
%TO.P,P,1*%
%TO.N,N/C*%
X11030000Y-41350000D03*
%TD*%
%TO.P,P,1*%
%TO.N,N/C*%
X13570000Y-41350000D03*
%TD*%
%TO.P,P,1*%
%TO.N,N/C*%
X16110000Y-41350000D03*
%TD*%
%TO.P,P,1*%
%TO.N,N/C*%
X18650000Y-41350000D03*
%TD*%
%TO.P,P,1*%
%TO.N,N/C*%
X21190000Y-41350000D03*
%TD*%
%TO.P,P,1*%
%TO.N,N/C*%
X23730000Y-41350000D03*
%TD*%
%TO.P,P,1*%
%TO.N,N/C*%
X26270000Y-41350000D03*
%TD*%
%TO.P,P,1*%
%TO.N,N/C*%
X28810000Y-41350000D03*
%TD*%
%TO.P,P,1*%
%TO.N,N/C*%
X31350000Y-41350000D03*
%TD*%
%TO.P,P,1*%
%TO.N,N/C*%
X33890000Y-41350000D03*
%TD*%
%TO.P,P,1*%
%TO.N,N/C*%
X36430000Y-41350000D03*
%TD*%
%TO.P,P,1*%
%TO.N,N/C*%
X38970000Y-41350000D03*
%TD*%
%TO.P,P,1*%
%TO.N,N/C*%
X41510000Y-41350000D03*
%TD*%
%TO.P,P,1*%
%TO.N,N/C*%
X44050000Y-41350000D03*
%TD*%
%TO.P,P,1*%
%TO.N,N/C*%
X5950000Y-43890000D03*
%TD*%
%TO.P,P,1*%
%TO.N,N/C*%
X8490000Y-43890000D03*
%TD*%
%TO.P,P,1*%
%TO.N,N/C*%
X11030000Y-43890000D03*
%TD*%
%TO.P,P,1*%
%TO.N,N/C*%
X13570000Y-43890000D03*
%TD*%
%TO.P,P,1*%
%TO.N,N/C*%
X16110000Y-43890000D03*
%TD*%
%TO.P,P,1*%
%TO.N,N/C*%
X18650000Y-43890000D03*
%TD*%
%TO.P,P,1*%
%TO.N,N/C*%
X21190000Y-43890000D03*
%TD*%
%TO.P,P,1*%
%TO.N,N/C*%
X23730000Y-43890000D03*
%TD*%
%TO.P,P,1*%
%TO.N,N/C*%
X26270000Y-43890000D03*
%TD*%
%TO.P,P,1*%
%TO.N,N/C*%
X28810000Y-43890000D03*
%TD*%
%TO.P,P,1*%
%TO.N,N/C*%
X31350000Y-43890000D03*
%TD*%
%TO.P,P,1*%
%TO.N,N/C*%
X33890000Y-43890000D03*
%TD*%
%TO.P,P,1*%
%TO.N,N/C*%
X36430000Y-43890000D03*
%TD*%
%TO.P,P,1*%
%TO.N,N/C*%
X38970000Y-43890000D03*
%TD*%
%TO.P,P,1*%
%TO.N,N/C*%
X41510000Y-43890000D03*
%TD*%
%TO.P,P,1*%
%TO.N,N/C*%
X44050000Y-43890000D03*
%TD*%
%TO.P,P,1*%
%TO.N,N/C*%
X5950000Y-46430000D03*
%TD*%
%TO.P,P,1*%
%TO.N,N/C*%
X8490000Y-46430000D03*
%TD*%
%TO.P,P,1*%
%TO.N,N/C*%
X11030000Y-46430000D03*
%TD*%
%TO.P,P,1*%
%TO.N,N/C*%
X13570000Y-46430000D03*
%TD*%
%TO.P,P,1*%
%TO.N,N/C*%
X16110000Y-46430000D03*
%TD*%
%TO.P,P,1*%
%TO.N,N/C*%
X18650000Y-46430000D03*
%TD*%
%TO.P,P,1*%
%TO.N,N/C*%
X21190000Y-46430000D03*
%TD*%
%TO.P,P,1*%
%TO.N,N/C*%
X23730000Y-46430000D03*
%TD*%
%TO.P,P,1*%
%TO.N,N/C*%
X26270000Y-46430000D03*
%TD*%
%TO.P,P,1*%
%TO.N,N/C*%
X28810000Y-46430000D03*
%TD*%
%TO.P,P,1*%
%TO.N,N/C*%
X31350000Y-46430000D03*
%TD*%
%TO.P,P,1*%
%TO.N,N/C*%
X33890000Y-46430000D03*
%TD*%
%TO.P,P,1*%
%TO.N,N/C*%
X36430000Y-46430000D03*
%TD*%
%TO.P,P,1*%
%TO.N,N/C*%
X38970000Y-46430000D03*
%TD*%
%TO.P,P,1*%
%TO.N,N/C*%
X41510000Y-46430000D03*
%TD*%
%TO.P,P,1*%
%TO.N,N/C*%
X44050000Y-46430000D03*
%TD*%
%TO.P,P,1*%
%TO.N,N/C*%
X5950000Y-48970000D03*
%TD*%
%TO.P,P,1*%
%TO.N,N/C*%
X8490000Y-48970000D03*
%TD*%
%TO.P,P,1*%
%TO.N,N/C*%
X11030000Y-48970000D03*
%TD*%
%TO.P,P,1*%
%TO.N,N/C*%
X13570000Y-48970000D03*
%TD*%
%TO.P,P,1*%
%TO.N,N/C*%
X16110000Y-48970000D03*
%TD*%
%TO.P,P,1*%
%TO.N,N/C*%
X18650000Y-48970000D03*
%TD*%
%TO.P,P,1*%
%TO.N,N/C*%
X21190000Y-48970000D03*
%TD*%
%TO.P,P,1*%
%TO.N,N/C*%
X23730000Y-48970000D03*
%TD*%
%TO.P,P,1*%
%TO.N,N/C*%
X26270000Y-48970000D03*
%TD*%
%TO.P,P,1*%
%TO.N,N/C*%
X28810000Y-48970000D03*
%TD*%
%TO.P,P,1*%
%TO.N,N/C*%
X31350000Y-48970000D03*
%TD*%
%TO.P,P,1*%
%TO.N,N/C*%
X33890000Y-48970000D03*
%TD*%
%TO.P,P,1*%
%TO.N,N/C*%
X36430000Y-48970000D03*
%TD*%
%TO.P,P,1*%
%TO.N,N/C*%
X38970000Y-48970000D03*
%TD*%
%TO.P,P,1*%
%TO.N,N/C*%
X41510000Y-48970000D03*
%TD*%
%TO.P,P,1*%
%TO.N,N/C*%
X44050000Y-48970000D03*
%TD*%
%TO.P,REF,1*%
%TO.N,GND*%
X5950000Y-52960000D03*
X5950000Y-55500000D03*
X8490000Y-52960000D03*
X8490000Y-55500000D03*
X11030000Y-52960000D03*
X11030000Y-55500000D03*
D11*
X8490000Y-62000000D03*
%TD*%
D10*
%TO.P,REF,1*%
%TO.N,VCC*%
X38970000Y-52960000D03*
X38970000Y-55500000D03*
X41510000Y-52960000D03*
X41510000Y-55500000D03*
X44050000Y-52960000D03*
X44050000Y-55500000D03*
D11*
X41510000Y-62000000D03*
%TD*%
D12*
%TO.N,GND*%
X12290000Y-62000000D03*
X11177000Y-64687000D03*
X8490000Y-65800000D03*
X5803000Y-64687000D03*
X4690000Y-62000000D03*
X5803000Y-59313000D03*
X8490000Y-58200000D03*
X11177000Y-59313000D03*
D13*
X6950000Y-52960000D03*
X4950000Y-52960000D03*
X6950000Y-55500000D03*
X4950000Y-55500000D03*
X9490000Y-52960000D03*
X7490000Y-52960000D03*
X9490000Y-55500000D03*
X7490000Y-55500000D03*
X12030000Y-52960000D03*
X10030000Y-52960000D03*
X12030000Y-55500000D03*
X10030000Y-55500000D03*
D12*
%TO.N,VCC*%
X45310000Y-62000000D03*
X44197000Y-64687000D03*
X41510000Y-65800000D03*
X38823000Y-64687000D03*
X37710000Y-62000000D03*
X38823000Y-59313000D03*
X41510000Y-58200000D03*
X44197000Y-59313000D03*
D13*
X39970000Y-52960000D03*
X37970000Y-52960000D03*
X39970000Y-55500000D03*
X37970000Y-55500000D03*
X42510000Y-52960000D03*
X40510000Y-52960000D03*
X42510000Y-55500000D03*
X40510000Y-55500000D03*
X45050000Y-52960000D03*
X43050000Y-52960000D03*
X45050000Y-55500000D03*
X43050000Y-55500000D03*
%TD*%
D14*
%TO.N,GND*%
X5950000Y-52960000D02*
X8490000Y-52960000D01*
X8490000Y-52960000D02*
X11030000Y-52960000D01*
X5950000Y-55500000D02*
X8490000Y-55500000D01*
X8490000Y-55500000D02*
X11030000Y-55500000D01*
X5950000Y-52960000D02*
X5950000Y-55500000D01*
X8490000Y-52960000D02*
X8490000Y-55500000D01*
X11030000Y-52960000D02*
X11030000Y-55500000D01*
D15*
X8490000Y-55500000D02*
X8490000Y-62000000D01*
D16*
X8490000Y-62000000D02*
X12290000Y-62000000D01*
X8490000Y-62000000D02*
X11177000Y-64687000D01*
X8490000Y-62000000D02*
X8490000Y-65800000D01*
X8490000Y-62000000D02*
X5803000Y-64687000D01*
X8490000Y-62000000D02*
X4690000Y-62000000D01*
X8490000Y-62000000D02*
X5803000Y-59313000D01*
X8490000Y-62000000D02*
X8490000Y-58200000D01*
X8490000Y-62000000D02*
X11177000Y-59313000D01*
X5950000Y-52960000D02*
X6950000Y-52960000D01*
X5950000Y-52960000D02*
X4950000Y-52960000D01*
X5950000Y-55500000D02*
X6950000Y-55500000D01*
X5950000Y-55500000D02*
X4950000Y-55500000D01*
X8490000Y-52960000D02*
X9490000Y-52960000D01*
X8490000Y-52960000D02*
X7490000Y-52960000D01*
X8490000Y-55500000D02*
X9490000Y-55500000D01*
X8490000Y-55500000D02*
X7490000Y-55500000D01*
X11030000Y-52960000D02*
X12030000Y-52960000D01*
X11030000Y-52960000D02*
X10030000Y-52960000D01*
X11030000Y-55500000D02*
X12030000Y-55500000D01*
X11030000Y-55500000D02*
X10030000Y-55500000D01*
D14*
%TO.N,VCC*%
X38970000Y-52960000D02*
X41510000Y-52960000D01*
X41510000Y-52960000D02*
X44050000Y-52960000D01*
X38970000Y-55500000D02*
X41510000Y-55500000D01*
X41510000Y-55500000D02*
X44050000Y-55500000D01*
X38970000Y-52960000D02*
X38970000Y-55500000D01*
X41510000Y-52960000D02*
X41510000Y-55500000D01*
X44050000Y-52960000D02*
X44050000Y-55500000D01*
D15*
X41510000Y-55500000D02*
X41510000Y-62000000D01*
D16*
X41510000Y-62000000D02*
X45310000Y-62000000D01*
X41510000Y-62000000D02*
X44197000Y-64687000D01*
X41510000Y-62000000D02*
X41510000Y-65800000D01*
X41510000Y-62000000D02*
X38823000Y-64687000D01*
X41510000Y-62000000D02*
X37710000Y-62000000D01*
X41510000Y-62000000D02*
X38823000Y-59313000D01*
X41510000Y-62000000D02*
X41510000Y-58200000D01*
X41510000Y-62000000D02*
X44197000Y-59313000D01*
X38970000Y-52960000D02*
X39970000Y-52960000D01*
X38970000Y-52960000D02*
X37970000Y-52960000D01*
X38970000Y-55500000D02*
X39970000Y-55500000D01*
X38970000Y-55500000D02*
X37970000Y-55500000D01*
X41510000Y-52960000D02*
X42510000Y-52960000D01*
X41510000Y-52960000D02*
X40510000Y-52960000D01*
X41510000Y-55500000D02*
X42510000Y-55500000D01*
X41510000Y-55500000D02*
X40510000Y-55500000D01*
X44050000Y-52960000D02*
X45050000Y-52960000D01*
X44050000Y-52960000D02*
X43050000Y-52960000D01*
X44050000Y-55500000D02*
X45050000Y-55500000D01*
X44050000Y-55500000D02*
X43050000Y-55500000D01*
%TD*%
M02*
