%TF.GenerationSoftware,KiCad,Pcbnew,9.0.6*%
%TF.CreationDate,2026-03-25T19:52:38+01:00*%
%TF.ProjectId,proto_100x160_unconnected,70726f74-6f5f-4313-9030-783136305f75,rev?*%
%TF.SameCoordinates,Original*%
%TF.FileFunction,Soldermask,Bot*%
%TF.FilePolarity,Negative*%
%FSLAX46Y46*%
G04 Gerber Fmt 4.6, Leading zero omitted, Abs format (unit mm)*
G04 Created by KiCad (PCBNEW 9.0.6) date 2026-03-25 19:52:38*
%MOMM*%
%LPD*%
G01*
G04 APERTURE LIST*
%ADD10C,1.800000*%
%ADD11O,10.000000X12.000000*%
G04 APERTURE END LIST*
D10*
%TO.C,P*%
X94450000Y-48250000D03*
%TD*%
%TO.C,P*%
X79210000Y-63490000D03*
%TD*%
%TO.C,P*%
X86830000Y-68570000D03*
%TD*%
%TO.C,P*%
X53810000Y-15230000D03*
%TD*%
%TO.C,P*%
X69050000Y-40630000D03*
%TD*%
%TO.C,P*%
X76670000Y-66030000D03*
%TD*%
%TO.C,P*%
X86830000Y-71110000D03*
%TD*%
%TO.C,P*%
X30950000Y-129530000D03*
%TD*%
%TO.C,P*%
X91910000Y-12690000D03*
%TD*%
%TO.C,P*%
X58890000Y-38090000D03*
%TD*%
%TO.C,P*%
X53810000Y-35550000D03*
%TD*%
%TO.C,P*%
X25870000Y-63490000D03*
%TD*%
%TO.C,P*%
X53810000Y-5070000D03*
%TD*%
%TO.C,P*%
X58890000Y-119370000D03*
%TD*%
%TO.C,P*%
X23330000Y-96510000D03*
%TD*%
%TO.C,P*%
X5550000Y-106670000D03*
%TD*%
%TO.C,P*%
X74130000Y-124450000D03*
%TD*%
%TO.C,P*%
X63970000Y-38090000D03*
%TD*%
%TO.C,P*%
X94450000Y-132070000D03*
%TD*%
%TO.C,P*%
X61430000Y-139690000D03*
%TD*%
%TO.C,P*%
X28410000Y-7610000D03*
%TD*%
%TO.C,P*%
X20790000Y-91430000D03*
%TD*%
%TO.C,P*%
X84290000Y-7610000D03*
%TD*%
%TO.C,P*%
X28410000Y-101590000D03*
%TD*%
%TO.C,P*%
X79210000Y-121910000D03*
%TD*%
%TO.C,P*%
X94450000Y-93970000D03*
%TD*%
%TO.C,P*%
X8090000Y-35550000D03*
%TD*%
%TO.C,P*%
X79210000Y-81270000D03*
%TD*%
%TO.C,P*%
X20790000Y-60950000D03*
%TD*%
%TO.C,P*%
X61430000Y-17770000D03*
%TD*%
%TO.C,P*%
X10630000Y-104130000D03*
%TD*%
%TO.C,P*%
X48730000Y-106670000D03*
%TD*%
%TO.C,P*%
X33490000Y-55870000D03*
%TD*%
%TO.C,P*%
X89370000Y-86350000D03*
%TD*%
%TO.C,P*%
X20790000Y-63490000D03*
%TD*%
%TO.C,P*%
X13170000Y-93970000D03*
%TD*%
%TO.C,P*%
X74130000Y-132070000D03*
%TD*%
%TO.C,P*%
X28410000Y-71110000D03*
%TD*%
%TO.C,P*%
X86830000Y-63490000D03*
%TD*%
%TO.C,P*%
X5550000Y-5070000D03*
%TD*%
%TO.C,P*%
X89370000Y-48250000D03*
%TD*%
%TO.C,P*%
X38570000Y-48250000D03*
%TD*%
%TO.C,P*%
X79210000Y-119370000D03*
%TD*%
%TO.C,P*%
X10630000Y-22850000D03*
%TD*%
%TO.C,P*%
X41110000Y-132070000D03*
%TD*%
%TO.C,P*%
X48730000Y-53330000D03*
%TD*%
%TO.C,P*%
X43650000Y-15230000D03*
%TD*%
%TO.C,P*%
X94450000Y-22850000D03*
%TD*%
%TO.C,P*%
X74130000Y-5070000D03*
%TD*%
%TO.C,P*%
X51270000Y-104130000D03*
%TD*%
%TO.C,P*%
X41110000Y-40630000D03*
%TD*%
%TO.C,P*%
X8090000Y-33010000D03*
%TD*%
%TO.C,P*%
X94450000Y-68570000D03*
%TD*%
%TO.C,P*%
X69050000Y-58410000D03*
%TD*%
%TO.C,P*%
X18250000Y-137150000D03*
%TD*%
%TO.C,P*%
X23330000Y-7610000D03*
%TD*%
%TO.C,P*%
X25870000Y-104130000D03*
%TD*%
%TO.C,P*%
X43650000Y-116830000D03*
%TD*%
%TO.C,P*%
X63970000Y-91430000D03*
%TD*%
%TO.C,P*%
X28410000Y-10150000D03*
%TD*%
%TO.C,P*%
X23330000Y-134610000D03*
%TD*%
%TO.C,P*%
X91910000Y-126990000D03*
%TD*%
%TO.C,P*%
X25870000Y-119370000D03*
%TD*%
%TO.C,P*%
X81750000Y-30470000D03*
%TD*%
%TO.C,P*%
X13170000Y-25390000D03*
%TD*%
%TO.C,P*%
X53810000Y-73650000D03*
%TD*%
%TO.C,P*%
X71590000Y-48250000D03*
%TD*%
%TO.C,P*%
X13170000Y-55870000D03*
%TD*%
%TO.C,P*%
X56350000Y-30470000D03*
%TD*%
%TO.C,P*%
X79210000Y-15230000D03*
%TD*%
%TO.C,P*%
X66510000Y-137150000D03*
%TD*%
%TO.C,P*%
X10630000Y-63490000D03*
%TD*%
%TO.C,P*%
X71590000Y-20310000D03*
%TD*%
%TO.C,P*%
X81750000Y-20310000D03*
%TD*%
%TO.C,P*%
X33490000Y-126990000D03*
%TD*%
%TO.C,P*%
X61430000Y-38090000D03*
%TD*%
%TO.C,P*%
X43650000Y-119370000D03*
%TD*%
%TO.C,P*%
X63970000Y-20310000D03*
%TD*%
%TO.C,P*%
X58890000Y-17770000D03*
%TD*%
%TO.C,P*%
X5550000Y-124450000D03*
%TD*%
%TO.C,P*%
X91910000Y-83810000D03*
%TD*%
%TO.C,P*%
X74130000Y-139690000D03*
%TD*%
%TO.C,P*%
X53810000Y-40630000D03*
%TD*%
%TO.C,P*%
X89370000Y-55870000D03*
%TD*%
%TO.C,P*%
X74130000Y-38090000D03*
%TD*%
%TO.C,P*%
X43650000Y-101590000D03*
%TD*%
%TO.C,P*%
X89370000Y-81270000D03*
%TD*%
%TO.C,P*%
X38570000Y-10150000D03*
%TD*%
%TO.C,P*%
X48730000Y-27930000D03*
%TD*%
%TO.C,P*%
X79210000Y-104130000D03*
%TD*%
%TO.C,P*%
X8090000Y-63490000D03*
%TD*%
%TO.C,P*%
X79210000Y-124450000D03*
%TD*%
%TO.C,P*%
X56350000Y-15230000D03*
%TD*%
%TO.C,P*%
X69050000Y-99050000D03*
%TD*%
%TO.C,P*%
X84290000Y-33010000D03*
%TD*%
%TO.C,P*%
X10630000Y-139690000D03*
%TD*%
%TO.C,P*%
X28410000Y-88890000D03*
%TD*%
%TO.C,P*%
X81750000Y-71110000D03*
%TD*%
%TO.C,P*%
X41110000Y-129530000D03*
%TD*%
%TO.C,P*%
X25870000Y-43170000D03*
%TD*%
%TO.C,P*%
X41110000Y-50790000D03*
%TD*%
%TO.C,P*%
X69050000Y-124450000D03*
%TD*%
%TO.C,P*%
X28410000Y-116830000D03*
%TD*%
%TO.C,P*%
X63970000Y-71110000D03*
%TD*%
%TO.C,P*%
X36030000Y-106670000D03*
%TD*%
%TO.C,P*%
X53810000Y-91430000D03*
%TD*%
%TO.C,P*%
X76670000Y-121910000D03*
%TD*%
%TO.C,P*%
X33490000Y-134610000D03*
%TD*%
%TO.C,P*%
X43650000Y-63490000D03*
%TD*%
%TO.C,P*%
X76670000Y-33010000D03*
%TD*%
%TO.C,P*%
X69050000Y-22850000D03*
%TD*%
%TO.C,P*%
X43650000Y-60950000D03*
%TD*%
%TO.C,P*%
X18250000Y-104130000D03*
%TD*%
%TO.C,P*%
X91910000Y-50790000D03*
%TD*%
%TO.C,P*%
X51270000Y-124450000D03*
%TD*%
%TO.C,P*%
X46190000Y-58410000D03*
%TD*%
%TO.C,P*%
X46190000Y-66030000D03*
%TD*%
%TO.C,P*%
X51270000Y-20310000D03*
%TD*%
%TO.C,P*%
X43650000Y-126990000D03*
%TD*%
%TO.C,P*%
X86830000Y-101590000D03*
%TD*%
%TO.C,P*%
X30950000Y-17770000D03*
%TD*%
%TO.C,P*%
X69050000Y-15230000D03*
%TD*%
%TO.C,P*%
X79210000Y-53330000D03*
%TD*%
%TO.C,P*%
X63970000Y-73650000D03*
%TD*%
%TO.C,P*%
X13170000Y-58410000D03*
%TD*%
%TO.C,P*%
X89370000Y-63490000D03*
%TD*%
%TO.C,P*%
X84290000Y-83810000D03*
%TD*%
%TO.C,P*%
X53810000Y-45710000D03*
%TD*%
%TO.C,P*%
X79210000Y-58410000D03*
%TD*%
%TO.C,P*%
X15710000Y-99050000D03*
%TD*%
%TO.C,P*%
X36030000Y-126990000D03*
%TD*%
%TO.C,P*%
X61430000Y-126990000D03*
%TD*%
%TO.C,P*%
X86830000Y-111750000D03*
%TD*%
%TO.C,P*%
X84290000Y-30470000D03*
%TD*%
%TO.C,P*%
X33490000Y-137150000D03*
%TD*%
%TO.C,P*%
X23330000Y-124450000D03*
%TD*%
%TO.C,P*%
X43650000Y-33010000D03*
%TD*%
%TO.C,P*%
X69050000Y-78730000D03*
%TD*%
%TO.C,P*%
X58890000Y-124450000D03*
%TD*%
%TO.C,P*%
X41110000Y-81270000D03*
%TD*%
%TO.C,P*%
X8090000Y-137150000D03*
%TD*%
%TO.C,P*%
X20790000Y-96510000D03*
%TD*%
%TO.C,P*%
X13170000Y-106670000D03*
%TD*%
%TO.C,P*%
X28410000Y-66030000D03*
%TD*%
%TO.C,P*%
X15710000Y-81270000D03*
%TD*%
%TO.C,P*%
X76670000Y-76190000D03*
%TD*%
%TO.C,P*%
X5550000Y-66030000D03*
%TD*%
%TO.C,P*%
X28410000Y-86350000D03*
%TD*%
%TO.C,P*%
X84290000Y-78730000D03*
%TD*%
%TO.C,P*%
X81750000Y-119370000D03*
%TD*%
%TO.C,P*%
X8090000Y-121910000D03*
%TD*%
%TO.C,P*%
X8090000Y-20310000D03*
%TD*%
%TO.C,P*%
X71590000Y-99050000D03*
%TD*%
%TO.C,P*%
X33490000Y-10150000D03*
%TD*%
%TO.C,P*%
X15710000Y-109210000D03*
%TD*%
%TO.C,P*%
X81750000Y-124450000D03*
%TD*%
%TO.C,P*%
X81750000Y-93970000D03*
%TD*%
%TO.C,P*%
X30950000Y-121910000D03*
%TD*%
%TO.C,P*%
X23330000Y-53330000D03*
%TD*%
%TO.C,P*%
X15710000Y-111750000D03*
%TD*%
%TO.C,P*%
X28410000Y-58410000D03*
%TD*%
%TO.C,P*%
X38570000Y-63490000D03*
%TD*%
%TO.C,P*%
X46190000Y-91430000D03*
%TD*%
%TO.C,P*%
X56350000Y-48250000D03*
%TD*%
%TO.C,P*%
X18250000Y-12690000D03*
%TD*%
%TO.C,P*%
X5550000Y-68570000D03*
%TD*%
%TO.C,P*%
X58890000Y-88890000D03*
%TD*%
%TO.C,P*%
X38570000Y-124450000D03*
%TD*%
%TO.C,P*%
X41110000Y-134610000D03*
%TD*%
%TO.C,P*%
X41110000Y-73650000D03*
%TD*%
%TO.C,P*%
X5550000Y-43170000D03*
%TD*%
%TO.C,P*%
X48730000Y-139690000D03*
%TD*%
%TO.C,P*%
X74130000Y-40630000D03*
%TD*%
%TO.C,P*%
X53810000Y-104130000D03*
%TD*%
%TO.C,P*%
X69050000Y-111750000D03*
%TD*%
%TO.C,P*%
X23330000Y-38090000D03*
%TD*%
%TO.C,P*%
X18250000Y-63490000D03*
%TD*%
%TO.C,P*%
X46190000Y-109210000D03*
%TD*%
%TO.C,P*%
X56350000Y-83810000D03*
%TD*%
%TO.C,P*%
X8090000Y-25390000D03*
%TD*%
%TO.C,P*%
X30950000Y-132070000D03*
%TD*%
%TO.C,P*%
X76670000Y-126990000D03*
%TD*%
%TO.C,P*%
X74130000Y-60950000D03*
%TD*%
%TO.C,P*%
X51270000Y-60950000D03*
%TD*%
%TO.C,P*%
X89370000Y-124450000D03*
%TD*%
%TO.C,P*%
X81750000Y-60950000D03*
%TD*%
%TO.C,P*%
X71590000Y-124450000D03*
%TD*%
%TO.C,P*%
X5550000Y-76190000D03*
%TD*%
%TO.C,P*%
X13170000Y-12690000D03*
%TD*%
%TO.C,P*%
X46190000Y-126990000D03*
%TD*%
%TO.C,P*%
X76670000Y-104130000D03*
%TD*%
%TO.C,P*%
X23330000Y-119370000D03*
%TD*%
%TO.C,P*%
X76670000Y-48250000D03*
%TD*%
%TO.C,P*%
X58890000Y-60950000D03*
%TD*%
%TO.C,P*%
X36030000Y-93970000D03*
%TD*%
%TO.C,P*%
X36030000Y-50790000D03*
%TD*%
%TO.C,P*%
X63970000Y-5070000D03*
%TD*%
%TO.C,P*%
X58890000Y-126990000D03*
%TD*%
%TO.C,P*%
X81750000Y-5070000D03*
%TD*%
%TO.C,P*%
X63970000Y-22850000D03*
%TD*%
%TO.C,P*%
X91910000Y-17770000D03*
%TD*%
%TO.C,P*%
X63970000Y-33010000D03*
%TD*%
%TO.C,P*%
X18250000Y-119370000D03*
%TD*%
%TO.C,P*%
X5550000Y-121910000D03*
%TD*%
%TO.C,P*%
X41110000Y-83810000D03*
%TD*%
%TO.C,P*%
X89370000Y-101590000D03*
%TD*%
%TO.C,P*%
X18250000Y-134610000D03*
%TD*%
%TO.C,P*%
X41110000Y-121910000D03*
%TD*%
%TO.C,P*%
X89370000Y-88890000D03*
%TD*%
%TO.C,P*%
X53810000Y-58410000D03*
%TD*%
%TO.C,P*%
X63970000Y-134610000D03*
%TD*%
%TO.C,P*%
X46190000Y-63490000D03*
%TD*%
%TO.C,P*%
X48730000Y-7610000D03*
%TD*%
%TO.C,P*%
X28410000Y-43170000D03*
%TD*%
%TO.C,P*%
X58890000Y-63490000D03*
%TD*%
%TO.C,P*%
X81750000Y-104130000D03*
%TD*%
%TO.C,P*%
X84290000Y-60950000D03*
%TD*%
%TO.C,P*%
X69050000Y-116830000D03*
%TD*%
%TO.C,P*%
X89370000Y-93970000D03*
%TD*%
%TO.C,P*%
X66510000Y-76190000D03*
%TD*%
%TO.C,P*%
X71590000Y-15230000D03*
%TD*%
%TO.C,P*%
X79210000Y-139690000D03*
%TD*%
%TO.C,P*%
X43650000Y-111750000D03*
%TD*%
%TO.C,P*%
X18250000Y-10150000D03*
%TD*%
%TO.C,P*%
X46190000Y-137150000D03*
%TD*%
%TO.C,P*%
X94450000Y-10150000D03*
%TD*%
%TO.C,P*%
X41110000Y-15230000D03*
%TD*%
%TO.C,P*%
X66510000Y-73650000D03*
%TD*%
%TO.C,P*%
X13170000Y-43170000D03*
%TD*%
%TO.C,P*%
X23330000Y-91430000D03*
%TD*%
%TO.C,P*%
X13170000Y-111750000D03*
%TD*%
%TO.C,P*%
X74130000Y-83810000D03*
%TD*%
%TO.C,P*%
X38570000Y-106670000D03*
%TD*%
%TO.C,P*%
X30950000Y-109210000D03*
%TD*%
%TO.C,P*%
X86830000Y-96510000D03*
%TD*%
%TO.C,P*%
X38570000Y-7610000D03*
%TD*%
%TO.C,P*%
X53810000Y-119370000D03*
%TD*%
%TO.C,P*%
X18250000Y-45710000D03*
%TD*%
%TO.C,P*%
X36030000Y-10150000D03*
%TD*%
%TO.C,P*%
X10630000Y-15230000D03*
%TD*%
%TO.C,P*%
X28410000Y-91430000D03*
%TD*%
%TO.C,P*%
X63970000Y-30470000D03*
%TD*%
%TO.C,P*%
X13170000Y-119370000D03*
%TD*%
%TO.C,P*%
X10630000Y-68570000D03*
%TD*%
%TO.C,P*%
X38570000Y-73650000D03*
%TD*%
%TO.C,P*%
X71590000Y-139690000D03*
%TD*%
%TO.C,P*%
X25870000Y-132070000D03*
%TD*%
%TO.C,P*%
X79210000Y-91430000D03*
%TD*%
%TO.C,P*%
X13170000Y-15230000D03*
%TD*%
%TO.C,P*%
X28410000Y-119370000D03*
%TD*%
%TO.C,P*%
X38570000Y-101590000D03*
%TD*%
%TO.C,P*%
X48730000Y-111750000D03*
%TD*%
%TO.C,P*%
X46190000Y-129530000D03*
%TD*%
%TO.C,P*%
X15710000Y-55870000D03*
%TD*%
%TO.C,P*%
X33490000Y-124450000D03*
%TD*%
%TO.C,P*%
X66510000Y-33010000D03*
%TD*%
%TO.C,P*%
X28410000Y-137150000D03*
%TD*%
%TO.C,P*%
X5550000Y-81270000D03*
%TD*%
%TO.C,P*%
X94450000Y-15230000D03*
%TD*%
%TO.C,P*%
X84290000Y-22850000D03*
%TD*%
%TO.C,P*%
X53810000Y-7610000D03*
%TD*%
%TO.C,P*%
X10630000Y-58410000D03*
%TD*%
%TO.C,P*%
X71590000Y-129530000D03*
%TD*%
%TO.C,P*%
X41110000Y-63490000D03*
%TD*%
%TO.C,P*%
X20790000Y-30470000D03*
%TD*%
%TO.C,P*%
X18250000Y-126990000D03*
%TD*%
%TO.C,P*%
X79210000Y-38090000D03*
%TD*%
%TO.C,P*%
X61430000Y-53330000D03*
%TD*%
%TO.C,P*%
X41110000Y-5070000D03*
%TD*%
%TO.C,P*%
X53810000Y-129530000D03*
%TD*%
%TO.C,P*%
X76670000Y-99050000D03*
%TD*%
%TO.C,P*%
X51270000Y-5070000D03*
%TD*%
%TO.C,P*%
X33490000Y-96510000D03*
%TD*%
%TO.C,P*%
X76670000Y-134610000D03*
%TD*%
%TO.C,P*%
X25870000Y-50790000D03*
%TD*%
%TO.C,P*%
X18250000Y-101590000D03*
%TD*%
%TO.C,P*%
X56350000Y-73650000D03*
%TD*%
%TO.C,P*%
X91910000Y-45710000D03*
%TD*%
%TO.C,P*%
X69050000Y-7610000D03*
%TD*%
%TO.C,P*%
X15710000Y-121910000D03*
%TD*%
%TO.C,P*%
X48730000Y-114290000D03*
%TD*%
%TO.C,P*%
X79210000Y-78730000D03*
%TD*%
%TO.C,P*%
X43650000Y-93970000D03*
%TD*%
%TO.C,P*%
X51270000Y-35550000D03*
%TD*%
%TO.C,P*%
X36030000Y-111750000D03*
%TD*%
%TO.C,P*%
X91910000Y-124450000D03*
%TD*%
%TO.C,P*%
X5550000Y-104130000D03*
%TD*%
%TO.C,P*%
X84290000Y-27930000D03*
%TD*%
%TO.C,P*%
X33490000Y-114290000D03*
%TD*%
%TO.C,P*%
X84290000Y-53330000D03*
%TD*%
%TO.C,P*%
X36030000Y-12690000D03*
%TD*%
%TO.C,P*%
X20790000Y-137150000D03*
%TD*%
%TO.C,P*%
X61430000Y-55870000D03*
%TD*%
%TO.C,P*%
X89370000Y-15230000D03*
%TD*%
%TO.C,P*%
X23330000Y-126990000D03*
%TD*%
%TO.C,P*%
X89370000Y-114290000D03*
%TD*%
%TO.C,P*%
X41110000Y-38090000D03*
%TD*%
%TO.C,P*%
X20790000Y-20310000D03*
%TD*%
%TO.C,P*%
X71590000Y-88890000D03*
%TD*%
%TO.C,P*%
X61430000Y-106670000D03*
%TD*%
%TO.C,P*%
X13170000Y-76190000D03*
%TD*%
%TO.C,P*%
X89370000Y-20310000D03*
%TD*%
%TO.C,P*%
X53810000Y-126990000D03*
%TD*%
%TO.C,P*%
X43650000Y-124450000D03*
%TD*%
%TO.C,P*%
X20790000Y-106670000D03*
%TD*%
%TO.C,P*%
X33490000Y-20310000D03*
%TD*%
%TO.C,P*%
X30950000Y-53330000D03*
%TD*%
%TO.C,P*%
X43650000Y-22850000D03*
%TD*%
%TO.C,P*%
X10630000Y-83810000D03*
%TD*%
%TO.C,P*%
X71590000Y-116830000D03*
%TD*%
%TO.C,P*%
X18250000Y-66030000D03*
%TD*%
%TO.C,P*%
X61430000Y-20310000D03*
%TD*%
%TO.C,P*%
X58890000Y-109210000D03*
%TD*%
%TO.C,P*%
X84290000Y-99050000D03*
%TD*%
%TO.C,P*%
X20790000Y-129530000D03*
%TD*%
%TO.C,P*%
X76670000Y-22850000D03*
%TD*%
%TO.C,P*%
X8090000Y-78730000D03*
%TD*%
%TO.C,P*%
X28410000Y-111750000D03*
%TD*%
%TO.C,P*%
X36030000Y-22850000D03*
%TD*%
%TO.C,P*%
X18250000Y-33010000D03*
%TD*%
%TO.C,P*%
X74130000Y-76190000D03*
%TD*%
%TO.C,P*%
X71590000Y-5070000D03*
%TD*%
%TO.C,P*%
X89370000Y-109210000D03*
%TD*%
%TO.C,P*%
X5550000Y-91430000D03*
%TD*%
%TO.C,P*%
X51270000Y-27930000D03*
%TD*%
%TO.C,P*%
X58890000Y-73650000D03*
%TD*%
%TO.C,P*%
X41110000Y-93970000D03*
%TD*%
%TO.C,P*%
X53810000Y-53330000D03*
%TD*%
%TO.C,P*%
X18250000Y-129530000D03*
%TD*%
%TO.C,P*%
X86830000Y-106670000D03*
%TD*%
%TO.C,P*%
X5550000Y-134610000D03*
%TD*%
%TO.C,P*%
X30950000Y-76190000D03*
%TD*%
%TO.C,P*%
X20790000Y-83810000D03*
%TD*%
%TO.C,P*%
X91910000Y-88890000D03*
%TD*%
%TO.C,P*%
X41110000Y-76190000D03*
%TD*%
%TO.C,P*%
X61430000Y-132070000D03*
%TD*%
%TO.C,P*%
X66510000Y-25390000D03*
%TD*%
%TO.C,P*%
X23330000Y-111750000D03*
%TD*%
%TO.C,P*%
X18250000Y-53330000D03*
%TD*%
%TO.C,P*%
X81750000Y-139690000D03*
%TD*%
%TO.C,P*%
X79210000Y-55870000D03*
%TD*%
%TO.C,P*%
X53810000Y-109210000D03*
%TD*%
%TO.C,P*%
X71590000Y-96510000D03*
%TD*%
%TO.C,P*%
X30950000Y-106670000D03*
%TD*%
%TO.C,P*%
X94450000Y-76190000D03*
%TD*%
%TO.C,P*%
X46190000Y-81270000D03*
%TD*%
%TO.C,P*%
X71590000Y-114290000D03*
%TD*%
%TO.C,P*%
X89370000Y-45710000D03*
%TD*%
%TO.C,P*%
X63970000Y-116830000D03*
%TD*%
%TO.C,P*%
X58890000Y-22850000D03*
%TD*%
%TO.C,P*%
X28410000Y-50790000D03*
%TD*%
%TO.C,P*%
X36030000Y-40630000D03*
%TD*%
%TO.C,P*%
X25870000Y-73650000D03*
%TD*%
%TO.C,P*%
X71590000Y-119370000D03*
%TD*%
%TO.C,P*%
X71590000Y-101590000D03*
%TD*%
%TO.C,P*%
X61430000Y-134610000D03*
%TD*%
%TO.C,P*%
X56350000Y-106670000D03*
%TD*%
%TO.C,P*%
X94450000Y-71110000D03*
%TD*%
%TO.C,P*%
X20790000Y-7610000D03*
%TD*%
%TO.C,P*%
X89370000Y-132070000D03*
%TD*%
%TO.C,P*%
X81750000Y-33010000D03*
%TD*%
%TO.C,P*%
X51270000Y-116830000D03*
%TD*%
%TO.C,P*%
X15710000Y-30470000D03*
%TD*%
%TO.C,P*%
X13170000Y-53330000D03*
%TD*%
%TO.C,P*%
X25870000Y-106670000D03*
%TD*%
%TO.C,P*%
X84290000Y-101590000D03*
%TD*%
%TO.C,P*%
X15710000Y-17770000D03*
%TD*%
%TO.C,P*%
X58890000Y-58410000D03*
%TD*%
%TO.C,P*%
X58890000Y-106670000D03*
%TD*%
%TO.C,P*%
X79210000Y-126990000D03*
%TD*%
%TO.C,P*%
X13170000Y-17770000D03*
%TD*%
%TO.C,P*%
X74130000Y-45710000D03*
%TD*%
%TO.C,P*%
X89370000Y-53330000D03*
%TD*%
%TO.C,P*%
X48730000Y-104130000D03*
%TD*%
%TO.C,P*%
X84290000Y-106670000D03*
%TD*%
%TO.C,P*%
X46190000Y-43170000D03*
%TD*%
%TO.C,P*%
X8090000Y-30470000D03*
%TD*%
%TO.C,P*%
X71590000Y-35550000D03*
%TD*%
%TO.C,P*%
X53810000Y-38090000D03*
%TD*%
%TO.C,P*%
X8090000Y-10150000D03*
%TD*%
%TO.C,P*%
X63970000Y-58410000D03*
%TD*%
%TO.C,P*%
X41110000Y-7610000D03*
%TD*%
%TO.C,P*%
X46190000Y-38090000D03*
%TD*%
%TO.C,P*%
X33490000Y-99050000D03*
%TD*%
%TO.C,P*%
X48730000Y-63490000D03*
%TD*%
%TO.C,P*%
X56350000Y-71110000D03*
%TD*%
%TO.C,P*%
X36030000Y-60950000D03*
%TD*%
%TO.C,P*%
X58890000Y-76190000D03*
%TD*%
%TO.C,P*%
X5550000Y-17770000D03*
%TD*%
%TO.C,P*%
X20790000Y-53330000D03*
%TD*%
%TO.C,P*%
X91910000Y-27930000D03*
%TD*%
%TO.C,P*%
X38570000Y-12690000D03*
%TD*%
%TO.C,P*%
X89370000Y-119370000D03*
%TD*%
%TO.C,P*%
X10630000Y-126990000D03*
%TD*%
%TO.C,P*%
X25870000Y-17770000D03*
%TD*%
%TO.C,P*%
X28410000Y-104130000D03*
%TD*%
%TO.C,P*%
X63970000Y-7610000D03*
%TD*%
%TO.C,P*%
X38570000Y-71110000D03*
%TD*%
%TO.C,P*%
X66510000Y-93970000D03*
%TD*%
%TO.C,P*%
X38570000Y-33010000D03*
%TD*%
%TO.C,P*%
X28410000Y-20310000D03*
%TD*%
%TO.C,P*%
X76670000Y-55870000D03*
%TD*%
%TO.C,P*%
X46190000Y-55870000D03*
%TD*%
%TO.C,P*%
X36030000Y-71110000D03*
%TD*%
%TO.C,P*%
X36030000Y-30470000D03*
%TD*%
%TO.C,P*%
X41110000Y-116830000D03*
%TD*%
%TO.C,P*%
X56350000Y-76190000D03*
%TD*%
%TO.C,P*%
X79210000Y-137150000D03*
%TD*%
%TO.C,P*%
X8090000Y-114290000D03*
%TD*%
%TO.C,P*%
X46190000Y-114290000D03*
%TD*%
%TO.C,P*%
X25870000Y-86350000D03*
%TD*%
%TO.C,P*%
X69050000Y-27930000D03*
%TD*%
%TO.C,P*%
X91910000Y-33010000D03*
%TD*%
%TO.C,P*%
X74130000Y-7610000D03*
%TD*%
%TO.C,P*%
X61430000Y-83810000D03*
%TD*%
%TO.C,P*%
X13170000Y-73650000D03*
%TD*%
%TO.C,P*%
X46190000Y-99050000D03*
%TD*%
%TO.C,P*%
X20790000Y-68570000D03*
%TD*%
%TO.C,P*%
X15710000Y-124450000D03*
%TD*%
%TO.C,P*%
X53810000Y-20310000D03*
%TD*%
%TO.C,P*%
X89370000Y-129530000D03*
%TD*%
%TO.C,P*%
X15710000Y-50790000D03*
%TD*%
%TO.C,P*%
X38570000Y-40630000D03*
%TD*%
%TO.C,P*%
X66510000Y-53330000D03*
%TD*%
%TO.C,P*%
X76670000Y-5070000D03*
%TD*%
%TO.C,P*%
X91910000Y-109210000D03*
%TD*%
%TO.C,P*%
X46190000Y-15230000D03*
%TD*%
%TO.C,P*%
X38570000Y-119370000D03*
%TD*%
%TO.C,P*%
X15710000Y-104130000D03*
%TD*%
%TO.C,P*%
X23330000Y-139690000D03*
%TD*%
%TO.C,P*%
X33490000Y-22850000D03*
%TD*%
%TO.C,P*%
X89370000Y-104130000D03*
%TD*%
%TO.C,P*%
X94450000Y-45710000D03*
%TD*%
%TO.C,P*%
X58890000Y-99050000D03*
%TD*%
%TO.C,P*%
X41110000Y-96510000D03*
%TD*%
%TO.C,P*%
X13170000Y-48250000D03*
%TD*%
%TO.C,P*%
X20790000Y-121910000D03*
%TD*%
%TO.C,P*%
X38570000Y-91430000D03*
%TD*%
%TO.C,P*%
X33490000Y-33010000D03*
%TD*%
%TO.C,P*%
X84290000Y-139690000D03*
%TD*%
%TO.C,P*%
X43650000Y-7610000D03*
%TD*%
%TO.C,P*%
X79210000Y-88890000D03*
%TD*%
%TO.C,P*%
X76670000Y-68570000D03*
%TD*%
%TO.C,P*%
X28410000Y-60950000D03*
%TD*%
%TO.C,P*%
X66510000Y-71110000D03*
%TD*%
%TO.C,P*%
X63970000Y-43170000D03*
%TD*%
%TO.C,P*%
X89370000Y-5070000D03*
%TD*%
%TO.C,P*%
X28410000Y-124450000D03*
%TD*%
%TO.C,P*%
X46190000Y-116830000D03*
%TD*%
%TO.C,P*%
X30950000Y-137150000D03*
%TD*%
%TO.C,P*%
X81750000Y-27930000D03*
%TD*%
%TO.C,P*%
X30950000Y-45710000D03*
%TD*%
%TO.C,P*%
X69050000Y-45710000D03*
%TD*%
%TO.C,P*%
X43650000Y-88890000D03*
%TD*%
%TO.C,P*%
X10630000Y-5070000D03*
%TD*%
%TO.C,P*%
X71590000Y-106670000D03*
%TD*%
%TO.C,P*%
X8090000Y-104130000D03*
%TD*%
%TO.C,P*%
X76670000Y-15230000D03*
%TD*%
%TO.C,P*%
X79210000Y-93970000D03*
%TD*%
%TO.C,P*%
X84290000Y-134610000D03*
%TD*%
%TO.C,P*%
X84290000Y-86350000D03*
%TD*%
%TO.C,P*%
X23330000Y-71110000D03*
%TD*%
%TO.C,P*%
X86830000Y-83810000D03*
%TD*%
%TO.C,P*%
X58890000Y-66030000D03*
%TD*%
%TO.C,P*%
X53810000Y-116830000D03*
%TD*%
%TO.C,P*%
X36030000Y-78730000D03*
%TD*%
%TO.C,P*%
X76670000Y-20310000D03*
%TD*%
%TO.C,P*%
X71590000Y-7610000D03*
%TD*%
%TO.C,P*%
X69050000Y-114290000D03*
%TD*%
%TO.C,P*%
X48730000Y-15230000D03*
%TD*%
%TO.C,P*%
X69050000Y-137150000D03*
%TD*%
%TO.C,P*%
X66510000Y-66030000D03*
%TD*%
%TO.C,P*%
X46190000Y-22850000D03*
%TD*%
%TO.C,P*%
X71590000Y-126990000D03*
%TD*%
%TO.C,P*%
X30950000Y-58410000D03*
%TD*%
%TO.C,P*%
X66510000Y-83810000D03*
%TD*%
%TO.C,P*%
X23330000Y-81270000D03*
%TD*%
%TO.C,P*%
X94450000Y-116830000D03*
%TD*%
%TO.C,P*%
X53810000Y-68570000D03*
%TD*%
%TO.C,P*%
X23330000Y-106670000D03*
%TD*%
%TO.C,P*%
X91910000Y-119370000D03*
%TD*%
%TO.C,P*%
X15710000Y-15230000D03*
%TD*%
%TO.C,P*%
X28410000Y-30470000D03*
%TD*%
%TO.C,P*%
X46190000Y-76190000D03*
%TD*%
%TO.C,P*%
X61430000Y-88890000D03*
%TD*%
%TO.C,P*%
X74130000Y-63490000D03*
%TD*%
%TO.C,P*%
X25870000Y-88890000D03*
%TD*%
%TO.C,P*%
X84290000Y-91430000D03*
%TD*%
%TO.C,P*%
X15710000Y-45710000D03*
%TD*%
%TO.C,P*%
X23330000Y-20310000D03*
%TD*%
%TO.C,P*%
X84290000Y-73650000D03*
%TD*%
%TO.C,P*%
X30950000Y-5070000D03*
%TD*%
%TO.C,P*%
X63970000Y-93970000D03*
%TD*%
%TO.C,P*%
X81750000Y-91430000D03*
%TD*%
%TO.C,P*%
X13170000Y-139690000D03*
%TD*%
%TO.C,P*%
X41110000Y-12690000D03*
%TD*%
%TO.C,P*%
X38570000Y-109210000D03*
%TD*%
%TO.C,P*%
X63970000Y-45710000D03*
%TD*%
%TO.C,P*%
X38570000Y-76190000D03*
%TD*%
%TO.C,P*%
X81750000Y-86350000D03*
%TD*%
%TO.C,P*%
X58890000Y-25390000D03*
%TD*%
%TO.C,P*%
X46190000Y-40630000D03*
%TD*%
%TO.C,P*%
X79210000Y-114290000D03*
%TD*%
%TO.C,P*%
X33490000Y-58410000D03*
%TD*%
%TO.C,P*%
X41110000Y-66030000D03*
%TD*%
%TO.C,P*%
X84290000Y-38090000D03*
%TD*%
%TO.C,P*%
X53810000Y-76190000D03*
%TD*%
%TO.C,P*%
X13170000Y-88890000D03*
%TD*%
%TO.C,P*%
X5550000Y-50790000D03*
%TD*%
%TO.C,P*%
X86830000Y-104130000D03*
%TD*%
%TO.C,P*%
X53810000Y-93970000D03*
%TD*%
%TO.C,P*%
X38570000Y-134610000D03*
%TD*%
%TO.C,P*%
X74130000Y-73650000D03*
%TD*%
%TO.C,P*%
X30950000Y-78730000D03*
%TD*%
%TO.C,P*%
X69050000Y-68570000D03*
%TD*%
%TO.C,P*%
X25870000Y-76190000D03*
%TD*%
%TO.C,P*%
X41110000Y-109210000D03*
%TD*%
%TO.C,P*%
X33490000Y-45710000D03*
%TD*%
%TO.C,P*%
X61430000Y-116830000D03*
%TD*%
%TO.C,P*%
X15710000Y-101590000D03*
%TD*%
%TO.C,P*%
X23330000Y-58410000D03*
%TD*%
%TO.C,P*%
X94450000Y-109210000D03*
%TD*%
%TO.C,P*%
X48730000Y-121910000D03*
%TD*%
%TO.C,P*%
X15710000Y-116830000D03*
%TD*%
%TO.C,P*%
X71590000Y-93970000D03*
%TD*%
%TO.C,P*%
X8090000Y-96510000D03*
%TD*%
%TO.C,P*%
X23330000Y-27930000D03*
%TD*%
%TO.C,P*%
X38570000Y-96510000D03*
%TD*%
%TO.C,P*%
X13170000Y-91430000D03*
%TD*%
%TO.C,P*%
X15710000Y-88890000D03*
%TD*%
%TO.C,P*%
X69050000Y-93970000D03*
%TD*%
%TO.C,P*%
X66510000Y-17770000D03*
%TD*%
%TO.C,P*%
X15710000Y-63490000D03*
%TD*%
%TO.C,P*%
X43650000Y-53330000D03*
%TD*%
%TO.C,P*%
X36030000Y-88890000D03*
%TD*%
%TO.C,P*%
X53810000Y-81270000D03*
%TD*%
%TO.C,P*%
X41110000Y-27930000D03*
%TD*%
%TO.C,P*%
X33490000Y-119370000D03*
%TD*%
%TO.C,P*%
X5550000Y-139690000D03*
%TD*%
%TO.C,P*%
X36030000Y-45710000D03*
%TD*%
%TO.C,P*%
X28410000Y-106670000D03*
%TD*%
%TO.C,P*%
X66510000Y-104130000D03*
%TD*%
%TO.C,P*%
X58890000Y-7610000D03*
%TD*%
%TO.C,P*%
X86830000Y-132070000D03*
%TD*%
%TO.C,P*%
X43650000Y-132070000D03*
%TD*%
%TO.C,P*%
X61430000Y-60950000D03*
%TD*%
%TO.C,P*%
X5550000Y-20310000D03*
%TD*%
%TO.C,P*%
X25870000Y-139690000D03*
%TD*%
%TO.C,P*%
X66510000Y-86350000D03*
%TD*%
%TO.C,P*%
X38570000Y-53330000D03*
%TD*%
%TO.C,P*%
X36030000Y-20310000D03*
%TD*%
%TO.C,P*%
X18250000Y-139690000D03*
%TD*%
%TO.C,P*%
X18250000Y-73650000D03*
%TD*%
%TO.C,P*%
X36030000Y-137150000D03*
%TD*%
%TO.C,P*%
X23330000Y-78730000D03*
%TD*%
%TO.C,P*%
X81750000Y-35550000D03*
%TD*%
%TO.C,P*%
X84290000Y-88890000D03*
%TD*%
%TO.C,P*%
X18250000Y-116830000D03*
%TD*%
%TO.C,P*%
X63970000Y-139690000D03*
%TD*%
%TO.C,P*%
X30950000Y-119370000D03*
%TD*%
%TO.C,P*%
X5550000Y-48250000D03*
%TD*%
%TO.C,P*%
X58890000Y-93970000D03*
%TD*%
%TO.C,P*%
X69050000Y-43170000D03*
%TD*%
%TO.C,P*%
X76670000Y-116830000D03*
%TD*%
%TO.C,P*%
X5550000Y-45710000D03*
%TD*%
%TO.C,P*%
X25870000Y-137150000D03*
%TD*%
%TO.C,P*%
X56350000Y-132070000D03*
%TD*%
%TO.C,P*%
X23330000Y-101590000D03*
%TD*%
%TO.C,P*%
X28410000Y-53330000D03*
%TD*%
%TO.C,P*%
X81750000Y-50790000D03*
%TD*%
%TO.C,P*%
X8090000Y-139690000D03*
%TD*%
%TO.C,P*%
X33490000Y-81270000D03*
%TD*%
%TO.C,P*%
X61430000Y-7610000D03*
%TD*%
%TO.C,P*%
X94450000Y-139690000D03*
%TD*%
%TO.C,P*%
X51270000Y-10150000D03*
%TD*%
%TO.C,P*%
X79210000Y-96510000D03*
%TD*%
%TO.C,P*%
X43650000Y-17770000D03*
%TD*%
%TO.C,P*%
X86830000Y-35550000D03*
%TD*%
%TO.C,P*%
X53810000Y-17770000D03*
%TD*%
%TO.C,P*%
X20790000Y-38090000D03*
%TD*%
%TO.C,P*%
X30950000Y-33010000D03*
%TD*%
%TO.C,P*%
X48730000Y-101590000D03*
%TD*%
%TO.C,P*%
X79210000Y-7610000D03*
%TD*%
%TO.C,P*%
X25870000Y-101590000D03*
%TD*%
%TO.C,P*%
X20790000Y-58410000D03*
%TD*%
%TO.C,P*%
X74130000Y-78730000D03*
%TD*%
%TO.C,P*%
X48730000Y-5070000D03*
%TD*%
%TO.C,P*%
X66510000Y-15230000D03*
%TD*%
%TO.C,P*%
X23330000Y-17770000D03*
%TD*%
%TO.C,P*%
X61430000Y-119370000D03*
%TD*%
%TO.C,P*%
X10630000Y-50790000D03*
%TD*%
%TO.C,P*%
X56350000Y-20310000D03*
%TD*%
%TO.C,P*%
X28410000Y-27930000D03*
%TD*%
%TO.C,P*%
X84290000Y-124450000D03*
%TD*%
%TO.C,P*%
X69050000Y-88890000D03*
%TD*%
%TO.C,P*%
X23330000Y-109210000D03*
%TD*%
%TO.C,P*%
X15710000Y-91430000D03*
%TD*%
%TO.C,P*%
X48730000Y-66030000D03*
%TD*%
%TO.C,P*%
X38570000Y-22850000D03*
%TD*%
%TO.C,P*%
X61430000Y-33010000D03*
%TD*%
%TO.C,P*%
X10630000Y-12690000D03*
%TD*%
%TO.C,P*%
X43650000Y-129530000D03*
%TD*%
%TO.C,P*%
X61430000Y-58410000D03*
%TD*%
%TO.C,P*%
X66510000Y-45710000D03*
%TD*%
%TO.C,P*%
X61430000Y-114290000D03*
%TD*%
%TO.C,P*%
X5550000Y-83810000D03*
%TD*%
%TO.C,P*%
X79210000Y-27930000D03*
%TD*%
%TO.C,P*%
X61430000Y-137150000D03*
%TD*%
%TO.C,P*%
X23330000Y-48250000D03*
%TD*%
%TO.C,P*%
X58890000Y-121910000D03*
%TD*%
%TO.C,P*%
X71590000Y-30470000D03*
%TD*%
%TO.C,P*%
X74130000Y-114290000D03*
%TD*%
%TO.C,P*%
X5550000Y-114290000D03*
%TD*%
%TO.C,P*%
X81750000Y-114290000D03*
%TD*%
%TO.C,P*%
X84290000Y-12690000D03*
%TD*%
%TO.C,P*%
X33490000Y-53330000D03*
%TD*%
%TO.C,P*%
X38570000Y-88890000D03*
%TD*%
%TO.C,P*%
X79210000Y-45710000D03*
%TD*%
%TO.C,P*%
X66510000Y-68570000D03*
%TD*%
%TO.C,P*%
X38570000Y-129530000D03*
%TD*%
%TO.C,P*%
X61430000Y-48250000D03*
%TD*%
%TO.C,P*%
X76670000Y-91430000D03*
%TD*%
%TO.C,P*%
X66510000Y-10150000D03*
%TD*%
%TO.C,P*%
X94450000Y-88890000D03*
%TD*%
%TO.C,P*%
X10630000Y-76190000D03*
%TD*%
%TO.C,P*%
X91910000Y-63490000D03*
%TD*%
%TO.C,P*%
X94450000Y-134610000D03*
%TD*%
%TO.C,P*%
X18250000Y-40630000D03*
%TD*%
%TO.C,P*%
X71590000Y-38090000D03*
%TD*%
%TO.C,P*%
X25870000Y-68570000D03*
%TD*%
%TO.C,P*%
X94450000Y-106670000D03*
%TD*%
%TO.C,P*%
X10630000Y-111750000D03*
%TD*%
%TO.C,P*%
X46190000Y-88890000D03*
%TD*%
%TO.C,P*%
X5550000Y-60950000D03*
%TD*%
%TO.C,P*%
X91910000Y-99050000D03*
%TD*%
%TO.C,P*%
X10630000Y-43170000D03*
%TD*%
%TO.C,P*%
X36030000Y-55870000D03*
%TD*%
%TO.C,P*%
X46190000Y-86350000D03*
%TD*%
%TO.C,P*%
X43650000Y-30470000D03*
%TD*%
%TO.C,P*%
X46190000Y-17770000D03*
%TD*%
%TO.C,P*%
X36030000Y-91430000D03*
%TD*%
%TO.C,P*%
X10630000Y-88890000D03*
%TD*%
%TO.C,P*%
X84290000Y-93970000D03*
%TD*%
%TO.C,P*%
X81750000Y-134610000D03*
%TD*%
%TO.C,P*%
X5550000Y-111750000D03*
%TD*%
%TO.C,P*%
X41110000Y-55870000D03*
%TD*%
%TO.C,P*%
X69050000Y-86350000D03*
%TD*%
%TO.C,P*%
X71590000Y-33010000D03*
%TD*%
%TO.C,P*%
X13170000Y-99050000D03*
%TD*%
%TO.C,P*%
X84290000Y-10150000D03*
%TD*%
%TO.C,P*%
X66510000Y-124450000D03*
%TD*%
%TO.C,P*%
X18250000Y-17770000D03*
%TD*%
%TO.C,P*%
X58890000Y-45710000D03*
%TD*%
%TO.C,P*%
X56350000Y-45710000D03*
%TD*%
%TO.C,P*%
X81750000Y-78730000D03*
%TD*%
%TO.C,P*%
X5550000Y-55870000D03*
%TD*%
%TO.C,P*%
X20790000Y-134610000D03*
%TD*%
%TO.C,P*%
X89370000Y-78730000D03*
%TD*%
%TO.C,P*%
X69050000Y-139690000D03*
%TD*%
%TO.C,P*%
X76670000Y-7610000D03*
%TD*%
%TO.C,P*%
X30950000Y-50790000D03*
%TD*%
%TO.C,P*%
X25870000Y-81270000D03*
%TD*%
%TO.C,P*%
X81750000Y-129530000D03*
%TD*%
%TO.C,P*%
X56350000Y-50790000D03*
%TD*%
%TO.C,P*%
X79210000Y-106670000D03*
%TD*%
%TO.C,P*%
X18250000Y-35550000D03*
%TD*%
%TO.C,P*%
X76670000Y-81270000D03*
%TD*%
%TO.C,P*%
X71590000Y-60950000D03*
%TD*%
%TO.C,P*%
X74130000Y-58410000D03*
%TD*%
%TO.C,P*%
X8090000Y-38090000D03*
%TD*%
%TO.C,P*%
X28410000Y-114290000D03*
%TD*%
%TO.C,P*%
X51270000Y-76190000D03*
%TD*%
%TO.C,P*%
X36030000Y-81270000D03*
%TD*%
%TO.C,P*%
X8090000Y-88890000D03*
%TD*%
%TO.C,P*%
X38570000Y-68570000D03*
%TD*%
%TO.C,P*%
X84290000Y-68570000D03*
%TD*%
%TO.C,P*%
X84290000Y-96510000D03*
%TD*%
%TO.C,P*%
X94450000Y-12690000D03*
%TD*%
%TO.C,P*%
X20790000Y-114290000D03*
%TD*%
%TO.C,P*%
X38570000Y-5070000D03*
%TD*%
%TO.C,P*%
X18250000Y-106670000D03*
%TD*%
%TO.C,P*%
X69050000Y-109210000D03*
%TD*%
%TO.C,P*%
X28410000Y-76190000D03*
%TD*%
%TO.C,P*%
X81750000Y-101590000D03*
%TD*%
%TO.C,P*%
X15710000Y-20310000D03*
%TD*%
%TO.C,P*%
X63970000Y-106670000D03*
%TD*%
%TO.C,P*%
X89370000Y-7610000D03*
%TD*%
%TO.C,P*%
X63970000Y-126990000D03*
%TD*%
%TO.C,P*%
X5550000Y-58410000D03*
%TD*%
%TO.C,P*%
X63970000Y-121910000D03*
%TD*%
%TO.C,REF*%
X5550000Y-142960000D03*
X5550000Y-145500000D03*
X8090000Y-142960000D03*
X8090000Y-145500000D03*
D11*
X8090000Y-152000000D03*
D10*
X10630000Y-142960000D03*
X10630000Y-145500000D03*
%TD*%
%TO.C,P*%
X8090000Y-40630000D03*
%TD*%
%TO.C,P*%
X38570000Y-111750000D03*
%TD*%
%TO.C,P*%
X36030000Y-27930000D03*
%TD*%
%TO.C,P*%
X89370000Y-12690000D03*
%TD*%
%TO.C,P*%
X10630000Y-106670000D03*
%TD*%
%TO.C,P*%
X36030000Y-119370000D03*
%TD*%
%TO.C,P*%
X13170000Y-101590000D03*
%TD*%
%TO.C,P*%
X81750000Y-55870000D03*
%TD*%
%TO.C,P*%
X86830000Y-27930000D03*
%TD*%
%TO.C,P*%
X13170000Y-83810000D03*
%TD*%
%TO.C,P*%
X10630000Y-20310000D03*
%TD*%
%TO.C,P*%
X66510000Y-88890000D03*
%TD*%
%TO.C,P*%
X30950000Y-35550000D03*
%TD*%
%TO.C,P*%
X48730000Y-73650000D03*
%TD*%
%TO.C,P*%
X69050000Y-129530000D03*
%TD*%
%TO.C,P*%
X79210000Y-86350000D03*
%TD*%
%TO.C,P*%
X79210000Y-5070000D03*
%TD*%
%TO.C,P*%
X56350000Y-60950000D03*
%TD*%
%TO.C,P*%
X89370000Y-106670000D03*
%TD*%
%TO.C,P*%
X71590000Y-55870000D03*
%TD*%
%TO.C,P*%
X58890000Y-5070000D03*
%TD*%
%TO.C,P*%
X69050000Y-55870000D03*
%TD*%
%TO.C,P*%
X63970000Y-129530000D03*
%TD*%
%TO.C,P*%
X10630000Y-27930000D03*
%TD*%
%TO.C,P*%
X86830000Y-88890000D03*
%TD*%
%TO.C,P*%
X30950000Y-7610000D03*
%TD*%
%TO.C,P*%
X13170000Y-22850000D03*
%TD*%
%TO.C,P*%
X61430000Y-5070000D03*
%TD*%
%TO.C,P*%
X41110000Y-25390000D03*
%TD*%
%TO.C,P*%
X51270000Y-137150000D03*
%TD*%
%TO.C,P*%
X63970000Y-53330000D03*
%TD*%
%TO.C,P*%
X63970000Y-81270000D03*
%TD*%
%TO.C,P*%
X71590000Y-86350000D03*
%TD*%
%TO.C,P*%
X89370000Y-10150000D03*
%TD*%
%TO.C,P*%
X18250000Y-88890000D03*
%TD*%
%TO.C,P*%
X18250000Y-25390000D03*
%TD*%
%TO.C,P*%
X36030000Y-139690000D03*
%TD*%
%TO.C,P*%
X43650000Y-91430000D03*
%TD*%
%TO.C,P*%
X94450000Y-111750000D03*
%TD*%
%TO.C,P*%
X61430000Y-25390000D03*
%TD*%
%TO.C,P*%
X56350000Y-91430000D03*
%TD*%
%TO.C,P*%
X25870000Y-66030000D03*
%TD*%
%TO.C,P*%
X18250000Y-99050000D03*
%TD*%
%TO.C,P*%
X94450000Y-60950000D03*
%TD*%
%TO.C,P*%
X66510000Y-81270000D03*
%TD*%
%TO.C,P*%
X43650000Y-114290000D03*
%TD*%
%TO.C,P*%
X53810000Y-86350000D03*
%TD*%
%TO.C,P*%
X56350000Y-7610000D03*
%TD*%
%TO.C,P*%
X41110000Y-22850000D03*
%TD*%
%TO.C,P*%
X25870000Y-5070000D03*
%TD*%
%TO.C,P*%
X76670000Y-83810000D03*
%TD*%
%TO.C,P*%
X13170000Y-137150000D03*
%TD*%
%TO.C,P*%
X15710000Y-119370000D03*
%TD*%
%TO.C,P*%
X61430000Y-22850000D03*
%TD*%
%TO.C,P*%
X46190000Y-5070000D03*
%TD*%
%TO.C,P*%
X61430000Y-71110000D03*
%TD*%
%TO.C,P*%
X61430000Y-78730000D03*
%TD*%
%TO.C,P*%
X56350000Y-58410000D03*
%TD*%
%TO.C,P*%
X38570000Y-25390000D03*
%TD*%
%TO.C,P*%
X89370000Y-91430000D03*
%TD*%
%TO.C,P*%
X41110000Y-101590000D03*
%TD*%
%TO.C,P*%
X43650000Y-48250000D03*
%TD*%
%TO.C,P*%
X63970000Y-35550000D03*
%TD*%
%TO.C,P*%
X58890000Y-101590000D03*
%TD*%
%TO.C,P*%
X63970000Y-86350000D03*
%TD*%
%TO.C,P*%
X69050000Y-76190000D03*
%TD*%
%TO.C,P*%
X30950000Y-48250000D03*
%TD*%
%TO.C,P*%
X71590000Y-81270000D03*
%TD*%
%TO.C,P*%
X51270000Y-91430000D03*
%TD*%
%TO.C,P*%
X20790000Y-66030000D03*
%TD*%
%TO.C,P*%
X28410000Y-139690000D03*
%TD*%
%TO.C,P*%
X89370000Y-111750000D03*
%TD*%
%TO.C,P*%
X43650000Y-35550000D03*
%TD*%
%TO.C,P*%
X56350000Y-81270000D03*
%TD*%
%TO.C,P*%
X86830000Y-99050000D03*
%TD*%
%TO.C,P*%
X91910000Y-111750000D03*
%TD*%
%TO.C,P*%
X18250000Y-43170000D03*
%TD*%
%TO.C,P*%
X48730000Y-137150000D03*
%TD*%
%TO.C,P*%
X58890000Y-83810000D03*
%TD*%
%TO.C,P*%
X18250000Y-124450000D03*
%TD*%
%TO.C,P*%
X48730000Y-126990000D03*
%TD*%
%TO.C,P*%
X48730000Y-45710000D03*
%TD*%
%TO.C,P*%
X43650000Y-76190000D03*
%TD*%
%TO.C,P*%
X23330000Y-63490000D03*
%TD*%
%TO.C,P*%
X15710000Y-35550000D03*
%TD*%
%TO.C,P*%
X10630000Y-86350000D03*
%TD*%
%TO.C,P*%
X8090000Y-43170000D03*
%TD*%
%TO.C,P*%
X43650000Y-66030000D03*
%TD*%
%TO.C,P*%
X28410000Y-45710000D03*
%TD*%
%TO.C,P*%
X36030000Y-68570000D03*
%TD*%
%TO.C,P*%
X94450000Y-25390000D03*
%TD*%
%TO.C,P*%
X79210000Y-60950000D03*
%TD*%
%TO.C,P*%
X84290000Y-20310000D03*
%TD*%
%TO.C,P*%
X43650000Y-104130000D03*
%TD*%
%TO.C,P*%
X48730000Y-68570000D03*
%TD*%
%TO.C,P*%
X51270000Y-55870000D03*
%TD*%
%TO.C,P*%
X15710000Y-93970000D03*
%TD*%
%TO.C,P*%
X10630000Y-116830000D03*
%TD*%
%TO.C,P*%
X18250000Y-81270000D03*
%TD*%
%TO.C,P*%
X74130000Y-99050000D03*
%TD*%
%TO.C,P*%
X46190000Y-10150000D03*
%TD*%
%TO.C,P*%
X79210000Y-132070000D03*
%TD*%
%TO.C,P*%
X18250000Y-55870000D03*
%TD*%
%TO.C,P*%
X76670000Y-114290000D03*
%TD*%
%TO.C,P*%
X76670000Y-73650000D03*
%TD*%
%TO.C,P*%
X86830000Y-55870000D03*
%TD*%
%TO.C,P*%
X46190000Y-35550000D03*
%TD*%
%TO.C,P*%
X58890000Y-68570000D03*
%TD*%
%TO.C,P*%
X10630000Y-121910000D03*
%TD*%
%TO.C,P*%
X48730000Y-78730000D03*
%TD*%
%TO.C,P*%
X25870000Y-121910000D03*
%TD*%
%TO.C,P*%
X46190000Y-71110000D03*
%TD*%
%TO.C,P*%
X13170000Y-38090000D03*
%TD*%
%TO.C,P*%
X89370000Y-40630000D03*
%TD*%
%TO.C,P*%
X84290000Y-109210000D03*
%TD*%
%TO.C,P*%
X91910000Y-53330000D03*
%TD*%
%TO.C,P*%
X33490000Y-35550000D03*
%TD*%
%TO.C,P*%
X18250000Y-22850000D03*
%TD*%
%TO.C,P*%
X28410000Y-73650000D03*
%TD*%
%TO.C,P*%
X51270000Y-73650000D03*
%TD*%
%TO.C,P*%
X81750000Y-121910000D03*
%TD*%
%TO.C,P*%
X33490000Y-73650000D03*
%TD*%
%TO.C,P*%
X51270000Y-93970000D03*
%TD*%
%TO.C,P*%
X91910000Y-134610000D03*
%TD*%
%TO.C,P*%
X15710000Y-86350000D03*
%TD*%
%TO.C,P*%
X25870000Y-129530000D03*
%TD*%
%TO.C,P*%
X79210000Y-33010000D03*
%TD*%
%TO.C,P*%
X8090000Y-132070000D03*
%TD*%
%TO.C,P*%
X69050000Y-101590000D03*
%TD*%
%TO.C,P*%
X76670000Y-50790000D03*
%TD*%
%TO.C,P*%
X56350000Y-124450000D03*
%TD*%
%TO.C,P*%
X79210000Y-48250000D03*
%TD*%
%TO.C,P*%
X69050000Y-48250000D03*
%TD*%
%TO.C,P*%
X36030000Y-66030000D03*
%TD*%
%TO.C,P*%
X53810000Y-48250000D03*
%TD*%
%TO.C,P*%
X20790000Y-33010000D03*
%TD*%
%TO.C,P*%
X46190000Y-93970000D03*
%TD*%
%TO.C,P*%
X84290000Y-121910000D03*
%TD*%
%TO.C,P*%
X48730000Y-22850000D03*
%TD*%
%TO.C,P*%
X89370000Y-137150000D03*
%TD*%
%TO.C,P*%
X94450000Y-66030000D03*
%TD*%
%TO.C,P*%
X38570000Y-104130000D03*
%TD*%
%TO.C,P*%
X79210000Y-50790000D03*
%TD*%
%TO.C,P*%
X33490000Y-48250000D03*
%TD*%
%TO.C,P*%
X56350000Y-10150000D03*
%TD*%
%TO.C,P*%
X76670000Y-71110000D03*
%TD*%
%TO.C,P*%
X28410000Y-121910000D03*
%TD*%
%TO.C,P*%
X86830000Y-38090000D03*
%TD*%
%TO.C,P*%
X63970000Y-114290000D03*
%TD*%
%TO.C,P*%
X91910000Y-35550000D03*
%TD*%
%TO.C,P*%
X58890000Y-43170000D03*
%TD*%
%TO.C,P*%
X15710000Y-25390000D03*
%TD*%
%TO.C,P*%
X53810000Y-139690000D03*
%TD*%
%TO.C,P*%
X86830000Y-25390000D03*
%TD*%
%TO.C,P*%
X58890000Y-15230000D03*
%TD*%
%TO.C,P*%
X66510000Y-38090000D03*
%TD*%
%TO.C,P*%
X48730000Y-71110000D03*
%TD*%
%TO.C,P*%
X56350000Y-119370000D03*
%TD*%
%TO.C,P*%
X74130000Y-119370000D03*
%TD*%
%TO.C,P*%
X94450000Y-63490000D03*
%TD*%
%TO.C,P*%
X76670000Y-93970000D03*
%TD*%
%TO.C,P*%
X79210000Y-68570000D03*
%TD*%
%TO.C,P*%
X10630000Y-10150000D03*
%TD*%
%TO.C,P*%
X66510000Y-129530000D03*
%TD*%
%TO.C,P*%
X10630000Y-134610000D03*
%TD*%
%TO.C,P*%
X23330000Y-66030000D03*
%TD*%
%TO.C,P*%
X74130000Y-129530000D03*
%TD*%
%TO.C,P*%
X61430000Y-111750000D03*
%TD*%
%TO.C,P*%
X10630000Y-25390000D03*
%TD*%
%TO.C,P*%
X53810000Y-124450000D03*
%TD*%
%TO.C,P*%
X43650000Y-58410000D03*
%TD*%
%TO.C,P*%
X46190000Y-53330000D03*
%TD*%
%TO.C,P*%
X53810000Y-132070000D03*
%TD*%
%TO.C,P*%
X56350000Y-129530000D03*
%TD*%
%TO.C,P*%
X74130000Y-27930000D03*
%TD*%
%TO.C,P*%
X5550000Y-78730000D03*
%TD*%
%TO.C,P*%
X15710000Y-126990000D03*
%TD*%
%TO.C,P*%
X30950000Y-43170000D03*
%TD*%
%TO.C,P*%
X36030000Y-48250000D03*
%TD*%
%TO.C,P*%
X51270000Y-129530000D03*
%TD*%
%TO.C,P*%
X48730000Y-10150000D03*
%TD*%
%TO.C,P*%
X76670000Y-40630000D03*
%TD*%
%TO.C,P*%
X86830000Y-58410000D03*
%TD*%
%TO.C,P*%
X76670000Y-137150000D03*
%TD*%
%TO.C,P*%
X25870000Y-10150000D03*
%TD*%
%TO.C,P*%
X94450000Y-43170000D03*
%TD*%
%TO.C,P*%
X13170000Y-60950000D03*
%TD*%
%TO.C,P*%
X48730000Y-60950000D03*
%TD*%
%TO.C,P*%
X13170000Y-78730000D03*
%TD*%
%TO.C,P*%
X10630000Y-71110000D03*
%TD*%
%TO.C,P*%
X41110000Y-86350000D03*
%TD*%
%TO.C,P*%
X81750000Y-43170000D03*
%TD*%
%TO.C,P*%
X51270000Y-106670000D03*
%TD*%
%TO.C,P*%
X13170000Y-121910000D03*
%TD*%
%TO.C,P*%
X38570000Y-99050000D03*
%TD*%
%TO.C,P*%
X66510000Y-55870000D03*
%TD*%
%TO.C,P*%
X89370000Y-66030000D03*
%TD*%
%TO.C,P*%
X18250000Y-5070000D03*
%TD*%
%TO.C,P*%
X91910000Y-25390000D03*
%TD*%
%TO.C,P*%
X56350000Y-101590000D03*
%TD*%
%TO.C,P*%
X48730000Y-83810000D03*
%TD*%
%TO.C,P*%
X81750000Y-38090000D03*
%TD*%
%TO.C,P*%
X36030000Y-101590000D03*
%TD*%
%TO.C,P*%
X81750000Y-76190000D03*
%TD*%
%TO.C,P*%
X63970000Y-137150000D03*
%TD*%
%TO.C,P*%
X71590000Y-68570000D03*
%TD*%
%TO.C,P*%
X74130000Y-116830000D03*
%TD*%
%TO.C,P*%
X10630000Y-101590000D03*
%TD*%
%TO.C,P*%
X41110000Y-119370000D03*
%TD*%
%TO.C,P*%
X94450000Y-101590000D03*
%TD*%
%TO.C,P*%
X69050000Y-35550000D03*
%TD*%
%TO.C,P*%
X86830000Y-121910000D03*
%TD*%
%TO.C,P*%
X28410000Y-93970000D03*
%TD*%
%TO.C,P*%
X10630000Y-7610000D03*
%TD*%
%TO.C,P*%
X46190000Y-12690000D03*
%TD*%
%TO.C,P*%
X41110000Y-68570000D03*
%TD*%
%TO.C,P*%
X74130000Y-20310000D03*
%TD*%
%TO.C,P*%
X30950000Y-99050000D03*
%TD*%
%TO.C,P*%
X63970000Y-68570000D03*
%TD*%
%TO.C,P*%
X74130000Y-96510000D03*
%TD*%
%TO.C,P*%
X76670000Y-60950000D03*
%TD*%
%TO.C,P*%
X38570000Y-81270000D03*
%TD*%
%TO.C,P*%
X5550000Y-30470000D03*
%TD*%
%TO.C,P*%
X51270000Y-15230000D03*
%TD*%
%TO.C,P*%
X10630000Y-81270000D03*
%TD*%
%TO.C,P*%
X81750000Y-12690000D03*
%TD*%
%TO.C,P*%
X91910000Y-91430000D03*
%TD*%
%TO.C,P*%
X41110000Y-104130000D03*
%TD*%
%TO.C,P*%
X58890000Y-20310000D03*
%TD*%
%TO.C,P*%
X20790000Y-124450000D03*
%TD*%
%TO.C,P*%
X15710000Y-78730000D03*
%TD*%
%TO.C,P*%
X36030000Y-104130000D03*
%TD*%
%TO.C,P*%
X91910000Y-78730000D03*
%TD*%
%TO.C,P*%
X46190000Y-50790000D03*
%TD*%
%TO.C,P*%
X33490000Y-104130000D03*
%TD*%
%TO.C,P*%
X84290000Y-111750000D03*
%TD*%
%TO.C,P*%
X94450000Y-121910000D03*
%TD*%
%TO.C,P*%
X36030000Y-53330000D03*
%TD*%
%TO.C,P*%
X5550000Y-109210000D03*
%TD*%
%TO.C,P*%
X41110000Y-71110000D03*
%TD*%
%TO.C,P*%
X74130000Y-88890000D03*
%TD*%
%TO.C,P*%
X28410000Y-68570000D03*
%TD*%
%TO.C,P*%
X18250000Y-111750000D03*
%TD*%
%TO.C,P*%
X8090000Y-73650000D03*
%TD*%
%TO.C,P*%
X48730000Y-35550000D03*
%TD*%
%TO.C,P*%
X41110000Y-43170000D03*
%TD*%
%TO.C,P*%
X76670000Y-96510000D03*
%TD*%
%TO.C,P*%
X84290000Y-63490000D03*
%TD*%
%TO.C,P*%
X18250000Y-83810000D03*
%TD*%
%TO.C,P*%
X23330000Y-30470000D03*
%TD*%
%TO.C,P*%
X84290000Y-104130000D03*
%TD*%
%TO.C,P*%
X58890000Y-81270000D03*
%TD*%
%TO.C,P*%
X84290000Y-81270000D03*
%TD*%
%TO.C,P*%
X28410000Y-132070000D03*
%TD*%
%TO.C,P*%
X91910000Y-86350000D03*
%TD*%
%TO.C,P*%
X69050000Y-66030000D03*
%TD*%
%TO.C,P*%
X71590000Y-104130000D03*
%TD*%
%TO.C,P*%
X76670000Y-43170000D03*
%TD*%
%TO.C,P*%
X84290000Y-5070000D03*
%TD*%
%TO.C,P*%
X30950000Y-25390000D03*
%TD*%
%TO.C,P*%
X5550000Y-25390000D03*
%TD*%
%TO.C,P*%
X38570000Y-83810000D03*
%TD*%
%TO.C,P*%
X48730000Y-99050000D03*
%TD*%
%TO.C,P*%
X91910000Y-58410000D03*
%TD*%
%TO.C,P*%
X74130000Y-15230000D03*
%TD*%
%TO.C,P*%
X76670000Y-38090000D03*
%TD*%
%TO.C,P*%
X43650000Y-96510000D03*
%TD*%
%TO.C,P*%
X13170000Y-109210000D03*
%TD*%
%TO.C,P*%
X30950000Y-88890000D03*
%TD*%
%TO.C,P*%
X81750000Y-45710000D03*
%TD*%
%TO.C,P*%
X20790000Y-12690000D03*
%TD*%
%TO.C,P*%
X63970000Y-96510000D03*
%TD*%
%TO.C,P*%
X79210000Y-40630000D03*
%TD*%
%TO.C,P*%
X66510000Y-121910000D03*
%TD*%
%TO.C,P*%
X66510000Y-91430000D03*
%TD*%
%TO.C,P*%
X89370000Y-43170000D03*
%TD*%
%TO.C,P*%
X79210000Y-17770000D03*
%TD*%
%TO.C,P*%
X61430000Y-40630000D03*
%TD*%
%TO.C,P*%
X51270000Y-30470000D03*
%TD*%
%TO.C,P*%
X91910000Y-116830000D03*
%TD*%
%TO.C,P*%
X48730000Y-132070000D03*
%TD*%
%TO.C,P*%
X53810000Y-88890000D03*
%TD*%
%TO.C,P*%
X56350000Y-43170000D03*
%TD*%
%TO.C,P*%
X74130000Y-106670000D03*
%TD*%
%TO.C,P*%
X74130000Y-86350000D03*
%TD*%
%TO.C,P*%
X94450000Y-58410000D03*
%TD*%
%TO.C,P*%
X53810000Y-60950000D03*
%TD*%
%TO.C,P*%
X63970000Y-101590000D03*
%TD*%
%TO.C,P*%
X23330000Y-55870000D03*
%TD*%
%TO.C,P*%
X25870000Y-134610000D03*
%TD*%
%TO.C,P*%
X56350000Y-35550000D03*
%TD*%
%TO.C,P*%
X86830000Y-134610000D03*
%TD*%
%TO.C,P*%
X61430000Y-50790000D03*
%TD*%
%TO.C,P*%
X94450000Y-7610000D03*
%TD*%
%TO.C,P*%
X76670000Y-106670000D03*
%TD*%
%TO.C,P*%
X56350000Y-5070000D03*
%TD*%
%TO.C,P*%
X66510000Y-35550000D03*
%TD*%
%TO.C,P*%
X91910000Y-129530000D03*
%TD*%
%TO.C,P*%
X94450000Y-30470000D03*
%TD*%
%TO.C,P*%
X43650000Y-106670000D03*
%TD*%
%TO.C,P*%
X25870000Y-71110000D03*
%TD*%
%TO.C,P*%
X13170000Y-104130000D03*
%TD*%
%TO.C,P*%
X89370000Y-139690000D03*
%TD*%
%TO.C,P*%
X33490000Y-91430000D03*
%TD*%
%TO.C,P*%
X56350000Y-116830000D03*
%TD*%
%TO.C,P*%
X89370000Y-27930000D03*
%TD*%
%TO.C,P*%
X28410000Y-48250000D03*
%TD*%
%TO.C,P*%
X13170000Y-68570000D03*
%TD*%
%TO.C,P*%
X5550000Y-40630000D03*
%TD*%
%TO.C,P*%
X10630000Y-91430000D03*
%TD*%
%TO.C,P*%
X51270000Y-43170000D03*
%TD*%
%TO.C,P*%
X23330000Y-40630000D03*
%TD*%
%TO.C,P*%
X38570000Y-20310000D03*
%TD*%
%TO.C,P*%
X33490000Y-83810000D03*
%TD*%
%TO.C,P*%
X5550000Y-12690000D03*
%TD*%
%TO.C,P*%
X28410000Y-38090000D03*
%TD*%
%TO.C,P*%
X20790000Y-25390000D03*
%TD*%
%TO.C,P*%
X15710000Y-96510000D03*
%TD*%
%TO.C,P*%
X56350000Y-86350000D03*
%TD*%
%TO.C,P*%
X33490000Y-129530000D03*
%TD*%
%TO.C,P*%
X43650000Y-40630000D03*
%TD*%
%TO.C,P*%
X76670000Y-129530000D03*
%TD*%
%TO.C,P*%
X58890000Y-55870000D03*
%TD*%
%TO.C,P*%
X66510000Y-12690000D03*
%TD*%
%TO.C,P*%
X25870000Y-126990000D03*
%TD*%
%TO.C,P*%
X28410000Y-22850000D03*
%TD*%
%TO.C,P*%
X8090000Y-17770000D03*
%TD*%
%TO.C,P*%
X43650000Y-50790000D03*
%TD*%
%TO.C,P*%
X89370000Y-83810000D03*
%TD*%
%TO.C,P*%
X61430000Y-63490000D03*
%TD*%
%TO.C,P*%
X18250000Y-132070000D03*
%TD*%
%TO.C,P*%
X48730000Y-86350000D03*
%TD*%
%TO.C,P*%
X79210000Y-10150000D03*
%TD*%
%TO.C,P*%
X71590000Y-91430000D03*
%TD*%
%TO.C,P*%
X81750000Y-96510000D03*
%TD*%
%TO.C,P*%
X5550000Y-33010000D03*
%TD*%
%TO.C,P*%
X30950000Y-101590000D03*
%TD*%
%TO.C,P*%
X23330000Y-132070000D03*
%TD*%
%TO.C,P*%
X91910000Y-60950000D03*
%TD*%
%TO.C,P*%
X8090000Y-93970000D03*
%TD*%
%TO.C,P*%
X30950000Y-71110000D03*
%TD*%
%TO.C,P*%
X20790000Y-5070000D03*
%TD*%
%TO.C,P*%
X43650000Y-12690000D03*
%TD*%
%TO.C,P*%
X28410000Y-40630000D03*
%TD*%
%TO.C,P*%
X41110000Y-20310000D03*
%TD*%
%TO.C,P*%
X53810000Y-137150000D03*
%TD*%
%TO.C,P*%
X23330000Y-129530000D03*
%TD*%
%TO.C,P*%
X46190000Y-96510000D03*
%TD*%
%TO.C,P*%
X23330000Y-116830000D03*
%TD*%
%TO.C,P*%
X20790000Y-22850000D03*
%TD*%
%TO.C,P*%
X81750000Y-48250000D03*
%TD*%
%TO.C,P*%
X94450000Y-33010000D03*
%TD*%
%TO.C,P*%
X94450000Y-104130000D03*
%TD*%
%TO.C,P*%
X63970000Y-124450000D03*
%TD*%
%TO.C,P*%
X28410000Y-129530000D03*
%TD*%
%TO.C,P*%
X25870000Y-12690000D03*
%TD*%
%TO.C,P*%
X69050000Y-63490000D03*
%TD*%
%TO.C,P*%
X81750000Y-25390000D03*
%TD*%
%TO.C,P*%
X33490000Y-121910000D03*
%TD*%
%TO.C,P*%
X36030000Y-83810000D03*
%TD*%
%TO.C,P*%
X8090000Y-53330000D03*
%TD*%
%TO.C,P*%
X79210000Y-111750000D03*
%TD*%
%TO.C,P*%
X36030000Y-99050000D03*
%TD*%
%TO.C,P*%
X71590000Y-22850000D03*
%TD*%
%TO.C,P*%
X36030000Y-121910000D03*
%TD*%
%TO.C,P*%
X69050000Y-126990000D03*
%TD*%
%TO.C,P*%
X51270000Y-119370000D03*
%TD*%
%TO.C,P*%
X38570000Y-126990000D03*
%TD*%
%TO.C,P*%
X20790000Y-99050000D03*
%TD*%
%TO.C,P*%
X69050000Y-20310000D03*
%TD*%
%TO.C,P*%
X33490000Y-15230000D03*
%TD*%
%TO.C,P*%
X13170000Y-66030000D03*
%TD*%
%TO.C,P*%
X13170000Y-86350000D03*
%TD*%
%TO.C,P*%
X71590000Y-43170000D03*
%TD*%
%TO.C,P*%
X30950000Y-93970000D03*
%TD*%
%TO.C,P*%
X48730000Y-124450000D03*
%TD*%
%TO.C,P*%
X91910000Y-76190000D03*
%TD*%
%TO.C,P*%
X66510000Y-20310000D03*
%TD*%
%TO.C,P*%
X8090000Y-22850000D03*
%TD*%
%TO.C,P*%
X36030000Y-134610000D03*
%TD*%
%TO.C,P*%
X74130000Y-10150000D03*
%TD*%
%TO.C,P*%
X23330000Y-73650000D03*
%TD*%
%TO.C,P*%
X56350000Y-22850000D03*
%TD*%
%TO.C,P*%
X71590000Y-71110000D03*
%TD*%
%TO.C,P*%
X48730000Y-17770000D03*
%TD*%
%TO.C,P*%
X38570000Y-55870000D03*
%TD*%
%TO.C,P*%
X51270000Y-22850000D03*
%TD*%
%TO.C,P*%
X66510000Y-7610000D03*
%TD*%
%TO.C,P*%
X74130000Y-91430000D03*
%TD*%
%TO.C,P*%
X15710000Y-22850000D03*
%TD*%
%TO.C,P*%
X38570000Y-116830000D03*
%TD*%
%TO.C,P*%
X58890000Y-139690000D03*
%TD*%
%TO.C,P*%
X53810000Y-114290000D03*
%TD*%
%TO.C,P*%
X69050000Y-30470000D03*
%TD*%
%TO.C,P*%
X10630000Y-17770000D03*
%TD*%
%TO.C,P*%
X5550000Y-101590000D03*
%TD*%
%TO.C,P*%
X33490000Y-106670000D03*
%TD*%
%TO.C,P*%
X33490000Y-43170000D03*
%TD*%
%TO.C,P*%
X25870000Y-114290000D03*
%TD*%
%TO.C,P*%
X10630000Y-73650000D03*
%TD*%
%TO.C,P*%
X10630000Y-137150000D03*
%TD*%
%TO.C,P*%
X91910000Y-30470000D03*
%TD*%
%TO.C,P*%
X51270000Y-96510000D03*
%TD*%
%TO.C,P*%
X74130000Y-109210000D03*
%TD*%
%TO.C,P*%
X20790000Y-76190000D03*
%TD*%
%TO.C,P*%
X33490000Y-60950000D03*
%TD*%
%TO.C,P*%
X89370000Y-76190000D03*
%TD*%
%TO.C,P*%
X51270000Y-86350000D03*
%TD*%
%TO.C,P*%
X74130000Y-22850000D03*
%TD*%
%TO.C,P*%
X79210000Y-12690000D03*
%TD*%
%TO.C,P*%
X89370000Y-68570000D03*
%TD*%
%TO.C,P*%
X28410000Y-99050000D03*
%TD*%
%TO.C,P*%
X71590000Y-73650000D03*
%TD*%
%TO.C,P*%
X74130000Y-71110000D03*
%TD*%
%TO.C,P*%
X51270000Y-68570000D03*
%TD*%
%TO.C,P*%
X28410000Y-134610000D03*
%TD*%
%TO.C,P*%
X61430000Y-86350000D03*
%TD*%
%TO.C,P*%
X23330000Y-137150000D03*
%TD*%
%TO.C,P*%
X25870000Y-93970000D03*
%TD*%
%TO.C,P*%
X84290000Y-132070000D03*
%TD*%
%TO.C,P*%
X61430000Y-43170000D03*
%TD*%
%TO.C,P*%
X63970000Y-40630000D03*
%TD*%
%TO.C,P*%
X74130000Y-25390000D03*
%TD*%
%TO.C,P*%
X76670000Y-119370000D03*
%TD*%
%TO.C,P*%
X10630000Y-48250000D03*
%TD*%
%TO.C,P*%
X36030000Y-76190000D03*
%TD*%
%TO.C,P*%
X28410000Y-5070000D03*
%TD*%
%TO.C,P*%
X28410000Y-81270000D03*
%TD*%
%TO.C,P*%
X66510000Y-134610000D03*
%TD*%
%TO.C,P*%
X5550000Y-38090000D03*
%TD*%
%TO.C,P*%
X5550000Y-15230000D03*
%TD*%
%TO.C,P*%
X51270000Y-66030000D03*
%TD*%
%TO.C,P*%
X76670000Y-53330000D03*
%TD*%
%TO.C,P*%
X74130000Y-93970000D03*
%TD*%
%TO.C,P*%
X8090000Y-119370000D03*
%TD*%
%TO.C,P*%
X94450000Y-81270000D03*
%TD*%
%TO.C,P*%
X15710000Y-137150000D03*
%TD*%
%TO.C,P*%
X30950000Y-104130000D03*
%TD*%
%TO.C,P*%
X23330000Y-45710000D03*
%TD*%
%TO.C,P*%
X48730000Y-55870000D03*
%TD*%
%TO.C,P*%
X69050000Y-25390000D03*
%TD*%
%TO.C,P*%
X15710000Y-132070000D03*
%TD*%
%TO.C,P*%
X25870000Y-7610000D03*
%TD*%
%TO.C,P*%
X69050000Y-134610000D03*
%TD*%
%TO.C,P*%
X41110000Y-88890000D03*
%TD*%
%TO.C,P*%
X86830000Y-78730000D03*
%TD*%
%TO.C,P*%
X51270000Y-83810000D03*
%TD*%
%TO.C,P*%
X91910000Y-15230000D03*
%TD*%
%TO.C,P*%
X33490000Y-78730000D03*
%TD*%
%TO.C,P*%
X79210000Y-129530000D03*
%TD*%
%TO.C,P*%
X94450000Y-35550000D03*
%TD*%
%TO.C,P*%
X94450000Y-27930000D03*
%TD*%
%TO.C,P*%
X56350000Y-139690000D03*
%TD*%
%TO.C,P*%
X86830000Y-60950000D03*
%TD*%
%TO.C,P*%
X69050000Y-91430000D03*
%TD*%
%TO.C,P*%
X10630000Y-109210000D03*
%TD*%
%TO.C,P*%
X66510000Y-96510000D03*
%TD*%
%TO.C,P*%
X61430000Y-10150000D03*
%TD*%
%TO.C,P*%
X41110000Y-33010000D03*
%TD*%
%TO.C,P*%
X25870000Y-38090000D03*
%TD*%
%TO.C,P*%
X69050000Y-60950000D03*
%TD*%
%TO.C,P*%
X74130000Y-68570000D03*
%TD*%
%TO.C,P*%
X58890000Y-50790000D03*
%TD*%
%TO.C,P*%
X48730000Y-48250000D03*
%TD*%
%TO.C,P*%
X20790000Y-126990000D03*
%TD*%
%TO.C,P*%
X25870000Y-25390000D03*
%TD*%
%TO.C,P*%
X63970000Y-104130000D03*
%TD*%
%TO.C,P*%
X89370000Y-58410000D03*
%TD*%
%TO.C,P*%
X41110000Y-78730000D03*
%TD*%
%TO.C,P*%
X94450000Y-119370000D03*
%TD*%
%TO.C,P*%
X61430000Y-73650000D03*
%TD*%
%TO.C,P*%
X94450000Y-129530000D03*
%TD*%
%TO.C,P*%
X86830000Y-76190000D03*
%TD*%
%TO.C,P*%
X18250000Y-60950000D03*
%TD*%
%TO.C,P*%
X43650000Y-68570000D03*
%TD*%
%TO.C,P*%
X53810000Y-78730000D03*
%TD*%
%TO.C,P*%
X41110000Y-17770000D03*
%TD*%
%TO.C,P*%
X74130000Y-53330000D03*
%TD*%
%TO.C,P*%
X33490000Y-116830000D03*
%TD*%
%TO.C,P*%
X94450000Y-137150000D03*
%TD*%
%TO.C,P*%
X94450000Y-17770000D03*
%TD*%
%TO.C,P*%
X25870000Y-58410000D03*
%TD*%
%TO.C,P*%
X58890000Y-132070000D03*
%TD*%
%TO.C,P*%
X41110000Y-124450000D03*
%TD*%
%TO.C,P*%
X43650000Y-86350000D03*
%TD*%
%TO.C,P*%
X46190000Y-60950000D03*
%TD*%
%TO.C,P*%
X41110000Y-106670000D03*
%TD*%
%TO.C,P*%
X8090000Y-83810000D03*
%TD*%
%TO.C,P*%
X61430000Y-109210000D03*
%TD*%
%TO.C,P*%
X91910000Y-66030000D03*
%TD*%
%TO.C,P*%
X84290000Y-17770000D03*
%TD*%
%TO.C,P*%
X18250000Y-68570000D03*
%TD*%
%TO.C,P*%
X91910000Y-73650000D03*
%TD*%
%TO.C,P*%
X74130000Y-43170000D03*
%TD*%
%TO.C,REF*%
X89370000Y-142960000D03*
X89370000Y-145500000D03*
X91910000Y-142960000D03*
X91910000Y-145500000D03*
D11*
X91910000Y-152000000D03*
D10*
X94450000Y-142960000D03*
X94450000Y-145500000D03*
%TD*%
%TO.C,P*%
X33490000Y-30470000D03*
%TD*%
%TO.C,P*%
X81750000Y-106670000D03*
%TD*%
%TO.C,P*%
X48730000Y-25390000D03*
%TD*%
%TO.C,P*%
X8090000Y-7610000D03*
%TD*%
%TO.C,P*%
X41110000Y-35550000D03*
%TD*%
%TO.C,P*%
X86830000Y-17770000D03*
%TD*%
%TO.C,P*%
X58890000Y-137150000D03*
%TD*%
%TO.C,P*%
X58890000Y-134610000D03*
%TD*%
%TO.C,P*%
X56350000Y-66030000D03*
%TD*%
%TO.C,P*%
X41110000Y-126990000D03*
%TD*%
%TO.C,P*%
X53810000Y-111750000D03*
%TD*%
%TO.C,P*%
X8090000Y-124450000D03*
%TD*%
%TO.C,P*%
X46190000Y-121910000D03*
%TD*%
%TO.C,P*%
X76670000Y-124450000D03*
%TD*%
%TO.C,P*%
X58890000Y-35550000D03*
%TD*%
%TO.C,P*%
X48730000Y-81270000D03*
%TD*%
%TO.C,P*%
X30950000Y-114290000D03*
%TD*%
%TO.C,P*%
X25870000Y-83810000D03*
%TD*%
%TO.C,P*%
X71590000Y-25390000D03*
%TD*%
%TO.C,P*%
X94450000Y-126990000D03*
%TD*%
%TO.C,P*%
X30950000Y-86350000D03*
%TD*%
%TO.C,P*%
X61430000Y-68570000D03*
%TD*%
%TO.C,P*%
X25870000Y-111750000D03*
%TD*%
%TO.C,P*%
X25870000Y-60950000D03*
%TD*%
%TO.C,P*%
X30950000Y-134610000D03*
%TD*%
%TO.C,P*%
X66510000Y-48250000D03*
%TD*%
%TO.C,P*%
X81750000Y-22850000D03*
%TD*%
%TO.C,P*%
X38570000Y-58410000D03*
%TD*%
%TO.C,P*%
X66510000Y-116830000D03*
%TD*%
%TO.C,P*%
X89370000Y-50790000D03*
%TD*%
%TO.C,P*%
X89370000Y-38090000D03*
%TD*%
%TO.C,P*%
X41110000Y-53330000D03*
%TD*%
%TO.C,P*%
X30950000Y-139690000D03*
%TD*%
%TO.C,P*%
X46190000Y-68570000D03*
%TD*%
%TO.C,P*%
X94450000Y-83810000D03*
%TD*%
%TO.C,P*%
X8090000Y-60950000D03*
%TD*%
%TO.C,P*%
X56350000Y-137150000D03*
%TD*%
%TO.C,P*%
X79210000Y-99050000D03*
%TD*%
%TO.C,P*%
X94450000Y-53330000D03*
%TD*%
%TO.C,P*%
X91910000Y-114290000D03*
%TD*%
%TO.C,P*%
X66510000Y-5070000D03*
%TD*%
%TO.C,P*%
X84290000Y-58410000D03*
%TD*%
%TO.C,P*%
X38570000Y-30470000D03*
%TD*%
%TO.C,P*%
X33490000Y-66030000D03*
%TD*%
%TO.C,P*%
X76670000Y-139690000D03*
%TD*%
%TO.C,P*%
X86830000Y-139690000D03*
%TD*%
%TO.C,P*%
X38570000Y-137150000D03*
%TD*%
%TO.C,P*%
X79210000Y-134610000D03*
%TD*%
%TO.C,P*%
X69050000Y-81270000D03*
%TD*%
%TO.C,P*%
X63970000Y-66030000D03*
%TD*%
%TO.C,P*%
X63970000Y-25390000D03*
%TD*%
%TO.C,P*%
X25870000Y-33010000D03*
%TD*%
%TO.C,P*%
X94450000Y-50790000D03*
%TD*%
%TO.C,P*%
X58890000Y-12690000D03*
%TD*%
%TO.C,P*%
X36030000Y-33010000D03*
%TD*%
%TO.C,P*%
X53810000Y-55870000D03*
%TD*%
%TO.C,P*%
X20790000Y-35550000D03*
%TD*%
%TO.C,P*%
X81750000Y-10150000D03*
%TD*%
%TO.C,P*%
X15710000Y-27930000D03*
%TD*%
%TO.C,P*%
X63970000Y-17770000D03*
%TD*%
%TO.C,P*%
X20790000Y-86350000D03*
%TD*%
%TO.C,P*%
X66510000Y-30470000D03*
%TD*%
%TO.C,P*%
X66510000Y-63490000D03*
%TD*%
%TO.C,P*%
X91910000Y-137150000D03*
%TD*%
%TO.C,P*%
X86830000Y-45710000D03*
%TD*%
%TO.C,P*%
X33490000Y-101590000D03*
%TD*%
%TO.C,P*%
X25870000Y-45710000D03*
%TD*%
%TO.C,P*%
X86830000Y-119370000D03*
%TD*%
%TO.C,P*%
X74130000Y-33010000D03*
%TD*%
%TO.C,P*%
X71590000Y-58410000D03*
%TD*%
%TO.C,P*%
X51270000Y-81270000D03*
%TD*%
%TO.C,P*%
X48730000Y-109210000D03*
%TD*%
%TO.C,P*%
X13170000Y-50790000D03*
%TD*%
%TO.C,P*%
X13170000Y-63490000D03*
%TD*%
%TO.C,P*%
X84290000Y-50790000D03*
%TD*%
%TO.C,P*%
X71590000Y-121910000D03*
%TD*%
%TO.C,P*%
X48730000Y-58410000D03*
%TD*%
%TO.C,P*%
X15710000Y-76190000D03*
%TD*%
%TO.C,P*%
X20790000Y-43170000D03*
%TD*%
%TO.C,P*%
X89370000Y-121910000D03*
%TD*%
%TO.C,P*%
X66510000Y-40630000D03*
%TD*%
%TO.C,P*%
X46190000Y-83810000D03*
%TD*%
%TO.C,P*%
X25870000Y-15230000D03*
%TD*%
%TO.C,P*%
X10630000Y-53330000D03*
%TD*%
%TO.C,P*%
X84290000Y-116830000D03*
%TD*%
%TO.C,P*%
X66510000Y-114290000D03*
%TD*%
%TO.C,P*%
X53810000Y-10150000D03*
%TD*%
%TO.C,P*%
X66510000Y-109210000D03*
%TD*%
%TO.C,P*%
X38570000Y-66030000D03*
%TD*%
%TO.C,P*%
X25870000Y-116830000D03*
%TD*%
%TO.C,P*%
X28410000Y-15230000D03*
%TD*%
%TO.C,P*%
X81750000Y-17770000D03*
%TD*%
%TO.C,P*%
X51270000Y-25390000D03*
%TD*%
%TO.C,P*%
X5550000Y-88890000D03*
%TD*%
%TO.C,P*%
X91910000Y-132070000D03*
%TD*%
%TO.C,P*%
X15710000Y-33010000D03*
%TD*%
%TO.C,P*%
X84290000Y-55870000D03*
%TD*%
%TO.C,P*%
X81750000Y-73650000D03*
%TD*%
%TO.C,P*%
X20790000Y-48250000D03*
%TD*%
%TO.C,P*%
X86830000Y-73650000D03*
%TD*%
%TO.C,P*%
X61430000Y-12690000D03*
%TD*%
%TO.C,P*%
X91910000Y-121910000D03*
%TD*%
%TO.C,P*%
X5550000Y-10150000D03*
%TD*%
%TO.C,P*%
X38570000Y-27930000D03*
%TD*%
%TO.C,P*%
X5550000Y-63490000D03*
%TD*%
%TO.C,P*%
X46190000Y-134610000D03*
%TD*%
%TO.C,P*%
X76670000Y-63490000D03*
%TD*%
%TO.C,P*%
X23330000Y-12690000D03*
%TD*%
%TO.C,P*%
X5550000Y-7610000D03*
%TD*%
%TO.C,P*%
X15710000Y-139690000D03*
%TD*%
%TO.C,P*%
X56350000Y-33010000D03*
%TD*%
%TO.C,P*%
X48730000Y-76190000D03*
%TD*%
%TO.C,P*%
X30950000Y-83810000D03*
%TD*%
%TO.C,P*%
X30950000Y-126990000D03*
%TD*%
%TO.C,P*%
X53810000Y-12690000D03*
%TD*%
%TO.C,P*%
X36030000Y-124450000D03*
%TD*%
%TO.C,P*%
X38570000Y-114290000D03*
%TD*%
%TO.C,P*%
X51270000Y-88890000D03*
%TD*%
%TO.C,P*%
X33490000Y-5070000D03*
%TD*%
%TO.C,P*%
X91910000Y-10150000D03*
%TD*%
%TO.C,P*%
X81750000Y-40630000D03*
%TD*%
%TO.C,P*%
X56350000Y-27930000D03*
%TD*%
%TO.C,P*%
X63970000Y-27930000D03*
%TD*%
%TO.C,P*%
X43650000Y-5070000D03*
%TD*%
%TO.C,P*%
X71590000Y-132070000D03*
%TD*%
%TO.C,P*%
X20790000Y-27930000D03*
%TD*%
%TO.C,P*%
X63970000Y-88890000D03*
%TD*%
%TO.C,P*%
X18250000Y-91430000D03*
%TD*%
%TO.C,P*%
X56350000Y-53330000D03*
%TD*%
%TO.C,P*%
X74130000Y-30470000D03*
%TD*%
%TO.C,P*%
X51270000Y-114290000D03*
%TD*%
%TO.C,P*%
X53810000Y-66030000D03*
%TD*%
%TO.C,P*%
X84290000Y-126990000D03*
%TD*%
%TO.C,P*%
X46190000Y-20310000D03*
%TD*%
%TO.C,P*%
X86830000Y-40630000D03*
%TD*%
%TO.C,P*%
X74130000Y-48250000D03*
%TD*%
%TO.C,P*%
X30950000Y-68570000D03*
%TD*%
%TO.C,P*%
X5550000Y-116830000D03*
%TD*%
%TO.C,P*%
X18250000Y-58410000D03*
%TD*%
%TO.C,P*%
X74130000Y-101590000D03*
%TD*%
%TO.C,P*%
X76670000Y-109210000D03*
%TD*%
%TO.C,P*%
X51270000Y-139690000D03*
%TD*%
%TO.C,P*%
X63970000Y-109210000D03*
%TD*%
%TO.C,P*%
X33490000Y-12690000D03*
%TD*%
%TO.C,P*%
X61430000Y-91430000D03*
%TD*%
%TO.C,P*%
X66510000Y-126990000D03*
%TD*%
%TO.C,P*%
X51270000Y-121910000D03*
%TD*%
%TO.C,P*%
X15710000Y-134610000D03*
%TD*%
%TO.C,P*%
X86830000Y-126990000D03*
%TD*%
%TO.C,P*%
X46190000Y-119370000D03*
%TD*%
%TO.C,P*%
X58890000Y-40630000D03*
%TD*%
%TO.C,P*%
X69050000Y-53330000D03*
%TD*%
%TO.C,P*%
X36030000Y-25390000D03*
%TD*%
%TO.C,P*%
X58890000Y-33010000D03*
%TD*%
%TO.C,P*%
X20790000Y-104130000D03*
%TD*%
%TO.C,P*%
X51270000Y-134610000D03*
%TD*%
%TO.C,P*%
X36030000Y-114290000D03*
%TD*%
%TO.C,P*%
X74130000Y-134610000D03*
%TD*%
%TO.C,P*%
X15710000Y-60950000D03*
%TD*%
%TO.C,P*%
X81750000Y-58410000D03*
%TD*%
%TO.C,P*%
X25870000Y-109210000D03*
%TD*%
%TO.C,P*%
X79210000Y-76190000D03*
%TD*%
%TO.C,P*%
X58890000Y-111750000D03*
%TD*%
%TO.C,P*%
X30950000Y-111750000D03*
%TD*%
%TO.C,P*%
X94450000Y-55870000D03*
%TD*%
%TO.C,P*%
X56350000Y-25390000D03*
%TD*%
%TO.C,P*%
X71590000Y-134610000D03*
%TD*%
%TO.C,P*%
X15710000Y-58410000D03*
%TD*%
%TO.C,P*%
X18250000Y-20310000D03*
%TD*%
%TO.C,P*%
X66510000Y-111750000D03*
%TD*%
%TO.C,P*%
X53810000Y-134610000D03*
%TD*%
%TO.C,P*%
X8090000Y-45710000D03*
%TD*%
%TO.C,P*%
X74130000Y-126990000D03*
%TD*%
%TO.C,P*%
X58890000Y-91430000D03*
%TD*%
%TO.C,P*%
X71590000Y-45710000D03*
%TD*%
%TO.C,P*%
X71590000Y-137150000D03*
%TD*%
%TO.C,P*%
X76670000Y-30470000D03*
%TD*%
%TO.C,P*%
X25870000Y-30470000D03*
%TD*%
%TO.C,P*%
X10630000Y-99050000D03*
%TD*%
%TO.C,P*%
X84290000Y-119370000D03*
%TD*%
%TO.C,P*%
X51270000Y-111750000D03*
%TD*%
%TO.C,P*%
X5550000Y-132070000D03*
%TD*%
%TO.C,P*%
X13170000Y-71110000D03*
%TD*%
%TO.C,P*%
X43650000Y-38090000D03*
%TD*%
%TO.C,P*%
X56350000Y-99050000D03*
%TD*%
%TO.C,P*%
X8090000Y-71110000D03*
%TD*%
%TO.C,P*%
X13170000Y-20310000D03*
%TD*%
%TO.C,P*%
X30950000Y-116830000D03*
%TD*%
%TO.C,P*%
X48730000Y-40630000D03*
%TD*%
%TO.C,P*%
X76670000Y-58410000D03*
%TD*%
%TO.C,P*%
X79210000Y-20310000D03*
%TD*%
%TO.C,P*%
X51270000Y-33010000D03*
%TD*%
%TO.C,P*%
X28410000Y-12690000D03*
%TD*%
%TO.C,P*%
X48730000Y-134610000D03*
%TD*%
%TO.C,P*%
X56350000Y-78730000D03*
%TD*%
%TO.C,P*%
X71590000Y-66030000D03*
%TD*%
%TO.C,P*%
X30950000Y-10150000D03*
%TD*%
%TO.C,P*%
X63970000Y-78730000D03*
%TD*%
%TO.C,P*%
X53810000Y-30470000D03*
%TD*%
%TO.C,P*%
X71590000Y-27930000D03*
%TD*%
%TO.C,P*%
X33490000Y-63490000D03*
%TD*%
%TO.C,P*%
X53810000Y-25390000D03*
%TD*%
%TO.C,P*%
X30950000Y-91430000D03*
%TD*%
%TO.C,P*%
X61430000Y-45710000D03*
%TD*%
%TO.C,P*%
X71590000Y-111750000D03*
%TD*%
%TO.C,P*%
X36030000Y-58410000D03*
%TD*%
%TO.C,P*%
X56350000Y-63490000D03*
%TD*%
%TO.C,P*%
X51270000Y-132070000D03*
%TD*%
%TO.C,P*%
X20790000Y-73650000D03*
%TD*%
%TO.C,P*%
X30950000Y-22850000D03*
%TD*%
%TO.C,P*%
X23330000Y-60950000D03*
%TD*%
%TO.C,P*%
X30950000Y-38090000D03*
%TD*%
%TO.C,P*%
X61430000Y-104130000D03*
%TD*%
%TO.C,P*%
X86830000Y-30470000D03*
%TD*%
%TO.C,P*%
X23330000Y-86350000D03*
%TD*%
%TO.C,P*%
X28410000Y-63490000D03*
%TD*%
%TO.C,P*%
X25870000Y-20310000D03*
%TD*%
%TO.C,P*%
X51270000Y-50790000D03*
%TD*%
%TO.C,P*%
X23330000Y-15230000D03*
%TD*%
%TO.C,P*%
X86830000Y-114290000D03*
%TD*%
%TO.C,P*%
X51270000Y-7610000D03*
%TD*%
%TO.C,P*%
X33490000Y-76190000D03*
%TD*%
%TO.C,P*%
X91910000Y-20310000D03*
%TD*%
%TO.C,P*%
X23330000Y-22850000D03*
%TD*%
%TO.C,P*%
X48730000Y-93970000D03*
%TD*%
%TO.C,P*%
X66510000Y-132070000D03*
%TD*%
%TO.C,P*%
X53810000Y-27930000D03*
%TD*%
%TO.C,P*%
X74130000Y-81270000D03*
%TD*%
%TO.C,P*%
X58890000Y-116830000D03*
%TD*%
%TO.C,P*%
X84290000Y-71110000D03*
%TD*%
%TO.C,P*%
X20790000Y-81270000D03*
%TD*%
%TO.C,P*%
X20790000Y-139690000D03*
%TD*%
%TO.C,P*%
X91910000Y-5070000D03*
%TD*%
%TO.C,P*%
X46190000Y-139690000D03*
%TD*%
%TO.C,P*%
X23330000Y-43170000D03*
%TD*%
%TO.C,P*%
X13170000Y-81270000D03*
%TD*%
%TO.C,P*%
X86830000Y-15230000D03*
%TD*%
%TO.C,P*%
X48730000Y-96510000D03*
%TD*%
%TO.C,P*%
X86830000Y-12690000D03*
%TD*%
%TO.C,P*%
X66510000Y-22850000D03*
%TD*%
%TO.C,P*%
X15710000Y-38090000D03*
%TD*%
%TO.C,P*%
X94450000Y-5070000D03*
%TD*%
%TO.C,P*%
X10630000Y-33010000D03*
%TD*%
%TO.C,P*%
X30950000Y-66030000D03*
%TD*%
%TO.C,P*%
X38570000Y-45710000D03*
%TD*%
%TO.C,P*%
X53810000Y-63490000D03*
%TD*%
%TO.C,P*%
X38570000Y-60950000D03*
%TD*%
%TO.C,P*%
X8090000Y-68570000D03*
%TD*%
%TO.C,P*%
X20790000Y-40630000D03*
%TD*%
%TO.C,P*%
X18250000Y-15230000D03*
%TD*%
%TO.C,P*%
X81750000Y-7610000D03*
%TD*%
%TO.C,P*%
X18250000Y-76190000D03*
%TD*%
%TO.C,P*%
X69050000Y-71110000D03*
%TD*%
%TO.C,P*%
X69050000Y-83810000D03*
%TD*%
%TO.C,P*%
X79210000Y-25390000D03*
%TD*%
%TO.C,P*%
X15710000Y-7610000D03*
%TD*%
%TO.C,P*%
X43650000Y-27930000D03*
%TD*%
%TO.C,P*%
X43650000Y-139690000D03*
%TD*%
%TO.C,P*%
X5550000Y-137150000D03*
%TD*%
%TO.C,P*%
X25870000Y-27930000D03*
%TD*%
%TO.C,P*%
X51270000Y-12690000D03*
%TD*%
%TO.C,P*%
X38570000Y-121910000D03*
%TD*%
%TO.C,P*%
X86830000Y-93970000D03*
%TD*%
%TO.C,P*%
X18250000Y-38090000D03*
%TD*%
%TO.C,P*%
X43650000Y-78730000D03*
%TD*%
%TO.C,P*%
X79210000Y-83810000D03*
%TD*%
%TO.C,P*%
X86830000Y-5070000D03*
%TD*%
%TO.C,P*%
X76670000Y-101590000D03*
%TD*%
%TO.C,P*%
X84290000Y-137150000D03*
%TD*%
%TO.C,P*%
X10630000Y-114290000D03*
%TD*%
%TO.C,P*%
X23330000Y-114290000D03*
%TD*%
%TO.C,P*%
X5550000Y-71110000D03*
%TD*%
%TO.C,P*%
X8090000Y-76190000D03*
%TD*%
%TO.C,P*%
X18250000Y-109210000D03*
%TD*%
%TO.C,P*%
X46190000Y-33010000D03*
%TD*%
%TO.C,P*%
X94450000Y-91430000D03*
%TD*%
%TO.C,P*%
X13170000Y-132070000D03*
%TD*%
%TO.C,P*%
X15710000Y-43170000D03*
%TD*%
%TO.C,P*%
X61430000Y-81270000D03*
%TD*%
%TO.C,P*%
X13170000Y-134610000D03*
%TD*%
%TO.C,P*%
X5550000Y-129530000D03*
%TD*%
%TO.C,P*%
X81750000Y-15230000D03*
%TD*%
%TO.C,P*%
X74130000Y-111750000D03*
%TD*%
%TO.C,P*%
X58890000Y-30470000D03*
%TD*%
%TO.C,P*%
X56350000Y-121910000D03*
%TD*%
%TO.C,P*%
X84290000Y-45710000D03*
%TD*%
%TO.C,P*%
X63970000Y-76190000D03*
%TD*%
%TO.C,P*%
X81750000Y-83810000D03*
%TD*%
%TO.C,P*%
X63970000Y-119370000D03*
%TD*%
%TO.C,P*%
X36030000Y-7610000D03*
%TD*%
%TO.C,P*%
X86830000Y-7610000D03*
%TD*%
%TO.C,P*%
X53810000Y-83810000D03*
%TD*%
%TO.C,P*%
X51270000Y-58410000D03*
%TD*%
%TO.C,P*%
X33490000Y-139690000D03*
%TD*%
%TO.C,P*%
X91910000Y-104130000D03*
%TD*%
%TO.C,P*%
X15710000Y-129530000D03*
%TD*%
%TO.C,P*%
X76670000Y-78730000D03*
%TD*%
%TO.C,P*%
X84290000Y-40630000D03*
%TD*%
%TO.C,P*%
X71590000Y-53330000D03*
%TD*%
%TO.C,P*%
X41110000Y-30470000D03*
%TD*%
%TO.C,P*%
X43650000Y-134610000D03*
%TD*%
%TO.C,P*%
X48730000Y-91430000D03*
%TD*%
%TO.C,P*%
X13170000Y-126990000D03*
%TD*%
%TO.C,P*%
X48730000Y-43170000D03*
%TD*%
%TO.C,P*%
X30950000Y-15230000D03*
%TD*%
%TO.C,P*%
X79210000Y-71110000D03*
%TD*%
%TO.C,P*%
X28410000Y-78730000D03*
%TD*%
%TO.C,P*%
X56350000Y-114290000D03*
%TD*%
%TO.C,P*%
X94450000Y-40630000D03*
%TD*%
%TO.C,P*%
X69050000Y-17770000D03*
%TD*%
%TO.C,P*%
X38570000Y-50790000D03*
%TD*%
%TO.C,P*%
X5550000Y-73650000D03*
%TD*%
%TO.C,P*%
X86830000Y-137150000D03*
%TD*%
%TO.C,P*%
X94450000Y-99050000D03*
%TD*%
%TO.C,P*%
X51270000Y-126990000D03*
%TD*%
%TO.C,P*%
X8090000Y-116830000D03*
%TD*%
%TO.C,P*%
X69050000Y-33010000D03*
%TD*%
%TO.C,P*%
X79210000Y-35550000D03*
%TD*%
%TO.C,P*%
X86830000Y-50790000D03*
%TD*%
%TO.C,P*%
X84290000Y-25390000D03*
%TD*%
%TO.C,P*%
X30950000Y-20310000D03*
%TD*%
%TO.C,P*%
X46190000Y-106670000D03*
%TD*%
%TO.C,P*%
X18250000Y-114290000D03*
%TD*%
%TO.C,P*%
X23330000Y-68570000D03*
%TD*%
%TO.C,P*%
X30950000Y-12690000D03*
%TD*%
%TO.C,P*%
X48730000Y-119370000D03*
%TD*%
%TO.C,P*%
X36030000Y-132070000D03*
%TD*%
%TO.C,P*%
X23330000Y-88890000D03*
%TD*%
%TO.C,P*%
X18250000Y-121910000D03*
%TD*%
%TO.C,P*%
X74130000Y-17770000D03*
%TD*%
%TO.C,P*%
X53810000Y-71110000D03*
%TD*%
%TO.C,P*%
X84290000Y-15230000D03*
%TD*%
%TO.C,P*%
X79210000Y-66030000D03*
%TD*%
%TO.C,P*%
X81750000Y-81270000D03*
%TD*%
%TO.C,P*%
X51270000Y-99050000D03*
%TD*%
%TO.C,P*%
X91910000Y-38090000D03*
%TD*%
%TO.C,P*%
X56350000Y-40630000D03*
%TD*%
%TO.C,P*%
X69050000Y-104130000D03*
%TD*%
%TO.C,P*%
X13170000Y-45710000D03*
%TD*%
%TO.C,P*%
X10630000Y-35550000D03*
%TD*%
%TO.C,P*%
X38570000Y-17770000D03*
%TD*%
%TO.C,P*%
X71590000Y-109210000D03*
%TD*%
%TO.C,P*%
X33490000Y-88890000D03*
%TD*%
%TO.C,P*%
X46190000Y-27930000D03*
%TD*%
%TO.C,P*%
X86830000Y-129530000D03*
%TD*%
%TO.C,P*%
X8090000Y-81270000D03*
%TD*%
%TO.C,P*%
X94450000Y-38090000D03*
%TD*%
%TO.C,P*%
X51270000Y-17770000D03*
%TD*%
%TO.C,P*%
X8090000Y-12690000D03*
%TD*%
%TO.C,P*%
X89370000Y-96510000D03*
%TD*%
%TO.C,P*%
X38570000Y-93970000D03*
%TD*%
%TO.C,P*%
X43650000Y-45710000D03*
%TD*%
%TO.C,P*%
X58890000Y-27930000D03*
%TD*%
%TO.C,P*%
X86830000Y-86350000D03*
%TD*%
%TO.C,P*%
X23330000Y-99050000D03*
%TD*%
%TO.C,P*%
X5550000Y-93970000D03*
%TD*%
%TO.C,P*%
X33490000Y-40630000D03*
%TD*%
%TO.C,P*%
X38570000Y-139690000D03*
%TD*%
%TO.C,P*%
X38570000Y-86350000D03*
%TD*%
%TO.C,P*%
X51270000Y-71110000D03*
%TD*%
%TO.C,P*%
X81750000Y-88890000D03*
%TD*%
%TO.C,P*%
X41110000Y-10150000D03*
%TD*%
%TO.C,P*%
X30950000Y-81270000D03*
%TD*%
%TO.C,P*%
X25870000Y-40630000D03*
%TD*%
%TO.C,P*%
X61430000Y-96510000D03*
%TD*%
%TO.C,P*%
X13170000Y-5070000D03*
%TD*%
%TO.C,P*%
X71590000Y-10150000D03*
%TD*%
%TO.C,P*%
X13170000Y-40630000D03*
%TD*%
%TO.C,P*%
X8090000Y-5070000D03*
%TD*%
%TO.C,P*%
X91910000Y-43170000D03*
%TD*%
%TO.C,P*%
X5550000Y-119370000D03*
%TD*%
%TO.C,P*%
X33490000Y-38090000D03*
%TD*%
%TO.C,P*%
X18250000Y-86350000D03*
%TD*%
%TO.C,P*%
X23330000Y-10150000D03*
%TD*%
%TO.C,P*%
X53810000Y-33010000D03*
%TD*%
%TO.C,P*%
X43650000Y-99050000D03*
%TD*%
%TO.C,P*%
X8090000Y-101590000D03*
%TD*%
%TO.C,P*%
X58890000Y-10150000D03*
%TD*%
%TO.C,P*%
X38570000Y-78730000D03*
%TD*%
%TO.C,P*%
X84290000Y-76190000D03*
%TD*%
%TO.C,P*%
X25870000Y-96510000D03*
%TD*%
%TO.C,P*%
X25870000Y-78730000D03*
%TD*%
%TO.C,P*%
X8090000Y-15230000D03*
%TD*%
%TO.C,P*%
X43650000Y-137150000D03*
%TD*%
%TO.C,P*%
X56350000Y-12690000D03*
%TD*%
%TO.C,P*%
X56350000Y-55870000D03*
%TD*%
%TO.C,P*%
X43650000Y-83810000D03*
%TD*%
%TO.C,P*%
X20790000Y-45710000D03*
%TD*%
%TO.C,P*%
X86830000Y-91430000D03*
%TD*%
%TO.C,P*%
X71590000Y-50790000D03*
%TD*%
%TO.C,P*%
X43650000Y-20310000D03*
%TD*%
%TO.C,P*%
X86830000Y-81270000D03*
%TD*%
%TO.C,P*%
X66510000Y-106670000D03*
%TD*%
%TO.C,P*%
X15710000Y-40630000D03*
%TD*%
%TO.C,P*%
X20790000Y-50790000D03*
%TD*%
%TO.C,P*%
X51270000Y-109210000D03*
%TD*%
%TO.C,P*%
X63970000Y-132070000D03*
%TD*%
%TO.C,P*%
X66510000Y-60950000D03*
%TD*%
%TO.C,P*%
X66510000Y-139690000D03*
%TD*%
%TO.C,P*%
X23330000Y-5070000D03*
%TD*%
%TO.C,P*%
X43650000Y-109210000D03*
%TD*%
%TO.C,P*%
X48730000Y-20310000D03*
%TD*%
%TO.C,P*%
X15710000Y-12690000D03*
%TD*%
%TO.C,P*%
X13170000Y-114290000D03*
%TD*%
%TO.C,P*%
X63970000Y-12690000D03*
%TD*%
%TO.C,P*%
X76670000Y-10150000D03*
%TD*%
%TO.C,P*%
X91910000Y-7610000D03*
%TD*%
%TO.C,P*%
X28410000Y-35550000D03*
%TD*%
%TO.C,P*%
X74130000Y-35550000D03*
%TD*%
%TO.C,P*%
X18250000Y-78730000D03*
%TD*%
%TO.C,P*%
X20790000Y-101590000D03*
%TD*%
%TO.C,P*%
X20790000Y-15230000D03*
%TD*%
%TO.C,P*%
X5550000Y-126990000D03*
%TD*%
%TO.C,P*%
X8090000Y-109210000D03*
%TD*%
%TO.C,P*%
X23330000Y-93970000D03*
%TD*%
%TO.C,P*%
X61430000Y-35550000D03*
%TD*%
%TO.C,P*%
X79210000Y-43170000D03*
%TD*%
%TO.C,P*%
X61430000Y-121910000D03*
%TD*%
%TO.C,P*%
X89370000Y-22850000D03*
%TD*%
%TO.C,P*%
X8090000Y-99050000D03*
%TD*%
%TO.C,P*%
X53810000Y-43170000D03*
%TD*%
%TO.C,P*%
X8090000Y-129530000D03*
%TD*%
%TO.C,P*%
X38570000Y-132070000D03*
%TD*%
%TO.C,P*%
X8090000Y-126990000D03*
%TD*%
%TO.C,P*%
X71590000Y-76190000D03*
%TD*%
%TO.C,P*%
X86830000Y-53330000D03*
%TD*%
%TO.C,P*%
X5550000Y-86350000D03*
%TD*%
%TO.C,P*%
X81750000Y-126990000D03*
%TD*%
%TO.C,P*%
X74130000Y-104130000D03*
%TD*%
%TO.C,P*%
X56350000Y-111750000D03*
%TD*%
%TO.C,P*%
X20790000Y-55870000D03*
%TD*%
%TO.C,P*%
X23330000Y-104130000D03*
%TD*%
%TO.C,P*%
X91910000Y-96510000D03*
%TD*%
%TO.C,P*%
X25870000Y-99050000D03*
%TD*%
%TO.C,P*%
X28410000Y-17770000D03*
%TD*%
%TO.C,P*%
X63970000Y-55870000D03*
%TD*%
%TO.C,P*%
X15710000Y-10150000D03*
%TD*%
%TO.C,P*%
X36030000Y-38090000D03*
%TD*%
%TO.C,P*%
X48730000Y-50790000D03*
%TD*%
%TO.C,P*%
X86830000Y-20310000D03*
%TD*%
%TO.C,P*%
X86830000Y-43170000D03*
%TD*%
%TO.C,P*%
X61430000Y-30470000D03*
%TD*%
%TO.C,P*%
X51270000Y-63490000D03*
%TD*%
%TO.C,P*%
X18250000Y-93970000D03*
%TD*%
%TO.C,P*%
X5550000Y-99050000D03*
%TD*%
%TO.C,P*%
X56350000Y-88890000D03*
%TD*%
%TO.C,P*%
X89370000Y-25390000D03*
%TD*%
%TO.C,P*%
X84290000Y-129530000D03*
%TD*%
%TO.C,P*%
X33490000Y-93970000D03*
%TD*%
%TO.C,P*%
X69050000Y-5070000D03*
%TD*%
%TO.C,P*%
X66510000Y-119370000D03*
%TD*%
%TO.C,P*%
X41110000Y-48250000D03*
%TD*%
%TO.C,P*%
X81750000Y-109210000D03*
%TD*%
%TO.C,P*%
X8090000Y-55870000D03*
%TD*%
%TO.C,P*%
X15710000Y-106670000D03*
%TD*%
%TO.C,P*%
X46190000Y-101590000D03*
%TD*%
%TO.C,P*%
X69050000Y-119370000D03*
%TD*%
%TO.C,P*%
X41110000Y-111750000D03*
%TD*%
%TO.C,P*%
X84290000Y-66030000D03*
%TD*%
%TO.C,P*%
X10630000Y-55870000D03*
%TD*%
%TO.C,P*%
X48730000Y-30470000D03*
%TD*%
%TO.C,P*%
X20790000Y-116830000D03*
%TD*%
%TO.C,P*%
X41110000Y-114290000D03*
%TD*%
%TO.C,P*%
X13170000Y-30470000D03*
%TD*%
%TO.C,P*%
X74130000Y-12690000D03*
%TD*%
%TO.C,P*%
X33490000Y-7610000D03*
%TD*%
%TO.C,P*%
X79210000Y-101590000D03*
%TD*%
%TO.C,P*%
X94450000Y-86350000D03*
%TD*%
%TO.C,P*%
X76670000Y-12690000D03*
%TD*%
%TO.C,P*%
X48730000Y-129530000D03*
%TD*%
%TO.C,P*%
X20790000Y-119370000D03*
%TD*%
%TO.C,P*%
X33490000Y-109210000D03*
%TD*%
%TO.C,P*%
X15710000Y-73650000D03*
%TD*%
%TO.C,P*%
X15710000Y-53330000D03*
%TD*%
%TO.C,P*%
X84290000Y-114290000D03*
%TD*%
%TO.C,P*%
X36030000Y-17770000D03*
%TD*%
%TO.C,P*%
X8090000Y-111750000D03*
%TD*%
%TO.C,P*%
X20790000Y-10150000D03*
%TD*%
%TO.C,P*%
X41110000Y-139690000D03*
%TD*%
%TO.C,P*%
X86830000Y-124450000D03*
%TD*%
%TO.C,P*%
X61430000Y-124450000D03*
%TD*%
%TO.C,P*%
X23330000Y-33010000D03*
%TD*%
%TO.C,P*%
X79210000Y-116830000D03*
%TD*%
%TO.C,P*%
X79210000Y-73650000D03*
%TD*%
%TO.C,P*%
X89370000Y-33010000D03*
%TD*%
%TO.C,P*%
X18250000Y-7610000D03*
%TD*%
%TO.C,P*%
X46190000Y-132070000D03*
%TD*%
%TO.C,P*%
X33490000Y-25390000D03*
%TD*%
%TO.C,P*%
X36030000Y-5070000D03*
%TD*%
%TO.C,P*%
X48730000Y-116830000D03*
%TD*%
%TO.C,P*%
X33490000Y-111750000D03*
%TD*%
%TO.C,P*%
X41110000Y-58410000D03*
%TD*%
%TO.C,P*%
X43650000Y-73650000D03*
%TD*%
%TO.C,P*%
X53810000Y-121910000D03*
%TD*%
%TO.C,P*%
X15710000Y-66030000D03*
%TD*%
%TO.C,P*%
X46190000Y-73650000D03*
%TD*%
%TO.C,P*%
X81750000Y-99050000D03*
%TD*%
%TO.C,P*%
X63970000Y-10150000D03*
%TD*%
%TO.C,P*%
X30950000Y-73650000D03*
%TD*%
%TO.C,P*%
X41110000Y-99050000D03*
%TD*%
%TO.C,P*%
X58890000Y-53330000D03*
%TD*%
%TO.C,P*%
X81750000Y-116830000D03*
%TD*%
%TO.C,P*%
X56350000Y-68570000D03*
%TD*%
%TO.C,P*%
X69050000Y-96510000D03*
%TD*%
%TO.C,P*%
X25870000Y-53330000D03*
%TD*%
%TO.C,P*%
X63970000Y-50790000D03*
%TD*%
%TO.C,P*%
X23330000Y-83810000D03*
%TD*%
%TO.C,P*%
X13170000Y-129530000D03*
%TD*%
%TO.C,P*%
X28410000Y-126990000D03*
%TD*%
%TO.C,P*%
X10630000Y-30470000D03*
%TD*%
%TO.C,P*%
X51270000Y-53330000D03*
%TD*%
%TO.C,P*%
X30950000Y-27930000D03*
%TD*%
%TO.C,P*%
X30950000Y-63490000D03*
%TD*%
%TO.C,P*%
X46190000Y-78730000D03*
%TD*%
%TO.C,P*%
X10630000Y-38090000D03*
%TD*%
%TO.C,P*%
X20790000Y-17770000D03*
%TD*%
%TO.C,P*%
X5550000Y-27930000D03*
%TD*%
%TO.C,P*%
X81750000Y-137150000D03*
%TD*%
%TO.C,P*%
X89370000Y-73650000D03*
%TD*%
%TO.C,P*%
X18250000Y-48250000D03*
%TD*%
%TO.C,P*%
X91910000Y-81270000D03*
%TD*%
%TO.C,P*%
X46190000Y-104130000D03*
%TD*%
%TO.C,P*%
X51270000Y-40630000D03*
%TD*%
%TO.C,P*%
X86830000Y-116830000D03*
%TD*%
%TO.C,P*%
X71590000Y-17770000D03*
%TD*%
%TO.C,P*%
X74130000Y-50790000D03*
%TD*%
%TO.C,P*%
X74130000Y-121910000D03*
%TD*%
%TO.C,P*%
X18250000Y-71110000D03*
%TD*%
%TO.C,P*%
X63970000Y-111750000D03*
%TD*%
%TO.C,P*%
X33490000Y-71110000D03*
%TD*%
%TO.C,P*%
X10630000Y-96510000D03*
%TD*%
%TO.C,P*%
X91910000Y-93970000D03*
%TD*%
%TO.C,P*%
X51270000Y-78730000D03*
%TD*%
%TO.C,P*%
X76670000Y-17770000D03*
%TD*%
%TO.C,P*%
X10630000Y-60950000D03*
%TD*%
%TO.C,P*%
X15710000Y-83810000D03*
%TD*%
%TO.C,P*%
X81750000Y-66030000D03*
%TD*%
%TO.C,P*%
X69050000Y-50790000D03*
%TD*%
%TO.C,P*%
X69050000Y-121910000D03*
%TD*%
%TO.C,P*%
X53810000Y-96510000D03*
%TD*%
%TO.C,P*%
X71590000Y-12690000D03*
%TD*%
%TO.C,P*%
X41110000Y-60950000D03*
%TD*%
%TO.C,P*%
X89370000Y-35550000D03*
%TD*%
%TO.C,P*%
X36030000Y-96510000D03*
%TD*%
%TO.C,P*%
X76670000Y-27930000D03*
%TD*%
%TO.C,P*%
X71590000Y-40630000D03*
%TD*%
%TO.C,P*%
X74130000Y-66030000D03*
%TD*%
%TO.C,P*%
X51270000Y-48250000D03*
%TD*%
%TO.C,P*%
X43650000Y-43170000D03*
%TD*%
%TO.C,P*%
X94450000Y-78730000D03*
%TD*%
%TO.C,P*%
X20790000Y-111750000D03*
%TD*%
%TO.C,P*%
X13170000Y-35550000D03*
%TD*%
%TO.C,P*%
X91910000Y-106670000D03*
%TD*%
%TO.C,P*%
X56350000Y-104130000D03*
%TD*%
%TO.C,P*%
X74130000Y-137150000D03*
%TD*%
%TO.C,P*%
X30950000Y-30470000D03*
%TD*%
%TO.C,P*%
X53810000Y-50790000D03*
%TD*%
%TO.C,P*%
X43650000Y-25390000D03*
%TD*%
%TO.C,P*%
X23330000Y-76190000D03*
%TD*%
%TO.C,P*%
X91910000Y-22850000D03*
%TD*%
%TO.C,P*%
X84290000Y-48250000D03*
%TD*%
%TO.C,P*%
X25870000Y-91430000D03*
%TD*%
%TO.C,P*%
X46190000Y-111750000D03*
%TD*%
%TO.C,P*%
X43650000Y-71110000D03*
%TD*%
%TO.C,P*%
X61430000Y-101590000D03*
%TD*%
%TO.C,P*%
X61430000Y-15230000D03*
%TD*%
%TO.C,P*%
X46190000Y-7610000D03*
%TD*%
%TO.C,P*%
X30950000Y-96510000D03*
%TD*%
%TO.C,P*%
X94450000Y-114290000D03*
%TD*%
%TO.C,P*%
X56350000Y-17770000D03*
%TD*%
%TO.C,P*%
X48730000Y-12690000D03*
%TD*%
%TO.C,P*%
X20790000Y-88890000D03*
%TD*%
%TO.C,P*%
X23330000Y-35550000D03*
%TD*%
%TO.C,P*%
X76670000Y-86350000D03*
%TD*%
%TO.C,P*%
X38570000Y-35550000D03*
%TD*%
%TO.C,P*%
X28410000Y-96510000D03*
%TD*%
%TO.C,P*%
X10630000Y-45710000D03*
%TD*%
%TO.C,P*%
X33490000Y-17770000D03*
%TD*%
%TO.C,P*%
X36030000Y-15230000D03*
%TD*%
%TO.C,P*%
X89370000Y-60950000D03*
%TD*%
%TO.C,P*%
X33490000Y-132070000D03*
%TD*%
%TO.C,P*%
X5550000Y-22850000D03*
%TD*%
%TO.C,P*%
X76670000Y-45710000D03*
%TD*%
%TO.C,P*%
X69050000Y-10150000D03*
%TD*%
%TO.C,P*%
X25870000Y-22850000D03*
%TD*%
%TO.C,P*%
X86830000Y-48250000D03*
%TD*%
%TO.C,P*%
X63970000Y-48250000D03*
%TD*%
%TO.C,P*%
X58890000Y-86350000D03*
%TD*%
%TO.C,P*%
X43650000Y-81270000D03*
%TD*%
%TO.C,P*%
X53810000Y-101590000D03*
%TD*%
%TO.C,P*%
X10630000Y-66030000D03*
%TD*%
%TO.C,P*%
X71590000Y-83810000D03*
%TD*%
%TO.C,P*%
X94450000Y-20310000D03*
%TD*%
%TO.C,P*%
X13170000Y-7610000D03*
%TD*%
%TO.C,P*%
X20790000Y-93970000D03*
%TD*%
%TO.C,P*%
X30950000Y-60950000D03*
%TD*%
%TO.C,P*%
X13170000Y-27930000D03*
%TD*%
%TO.C,P*%
X23330000Y-50790000D03*
%TD*%
%TO.C,P*%
X28410000Y-33010000D03*
%TD*%
%TO.C,P*%
X8090000Y-66030000D03*
%TD*%
%TO.C,P*%
X43650000Y-121910000D03*
%TD*%
%TO.C,P*%
X76670000Y-88890000D03*
%TD*%
%TO.C,P*%
X48730000Y-38090000D03*
%TD*%
%TO.C,P*%
X15710000Y-71110000D03*
%TD*%
%TO.C,P*%
X30950000Y-40630000D03*
%TD*%
%TO.C,P*%
X51270000Y-45710000D03*
%TD*%
%TO.C,P*%
X36030000Y-43170000D03*
%TD*%
%TO.C,P*%
X10630000Y-93970000D03*
%TD*%
%TO.C,P*%
X8090000Y-48250000D03*
%TD*%
%TO.C,P*%
X74130000Y-55870000D03*
%TD*%
%TO.C,P*%
X13170000Y-96510000D03*
%TD*%
%TO.C,P*%
X91910000Y-40630000D03*
%TD*%
%TO.C,P*%
X18250000Y-96510000D03*
%TD*%
%TO.C,P*%
X66510000Y-101590000D03*
%TD*%
%TO.C,P*%
X91910000Y-101590000D03*
%TD*%
%TO.C,P*%
X58890000Y-71110000D03*
%TD*%
%TO.C,P*%
X28410000Y-109210000D03*
%TD*%
%TO.C,P*%
X86830000Y-109210000D03*
%TD*%
%TO.C,P*%
X18250000Y-30470000D03*
%TD*%
%TO.C,P*%
X79210000Y-109210000D03*
%TD*%
%TO.C,P*%
X20790000Y-109210000D03*
%TD*%
%TO.C,P*%
X94450000Y-96510000D03*
%TD*%
%TO.C,P*%
X33490000Y-86350000D03*
%TD*%
%TO.C,P*%
X71590000Y-78730000D03*
%TD*%
%TO.C,P*%
X69050000Y-38090000D03*
%TD*%
%TO.C,P*%
X8090000Y-91430000D03*
%TD*%
%TO.C,P*%
X8090000Y-134610000D03*
%TD*%
%TO.C,P*%
X76670000Y-35550000D03*
%TD*%
%TO.C,P*%
X61430000Y-99050000D03*
%TD*%
%TO.C,P*%
X89370000Y-17770000D03*
%TD*%
%TO.C,P*%
X13170000Y-10150000D03*
%TD*%
%TO.C,P*%
X86830000Y-22850000D03*
%TD*%
%TO.C,P*%
X10630000Y-129530000D03*
%TD*%
%TO.C,P*%
X46190000Y-30470000D03*
%TD*%
%TO.C,P*%
X15710000Y-5070000D03*
%TD*%
%TO.C,P*%
X43650000Y-10150000D03*
%TD*%
%TO.C,P*%
X20790000Y-78730000D03*
%TD*%
%TO.C,P*%
X25870000Y-48250000D03*
%TD*%
%TO.C,P*%
X76670000Y-25390000D03*
%TD*%
%TO.C,P*%
X8090000Y-58410000D03*
%TD*%
%TO.C,P*%
X86830000Y-33010000D03*
%TD*%
%TO.C,P*%
X38570000Y-15230000D03*
%TD*%
%TO.C,P*%
X23330000Y-25390000D03*
%TD*%
%TO.C,P*%
X46190000Y-25390000D03*
%TD*%
%TO.C,P*%
X48730000Y-33010000D03*
%TD*%
%TO.C,P*%
X58890000Y-96510000D03*
%TD*%
%TO.C,P*%
X66510000Y-43170000D03*
%TD*%
%TO.C,P*%
X76670000Y-111750000D03*
%TD*%
%TO.C,P*%
X61430000Y-27930000D03*
%TD*%
%TO.C,P*%
X58890000Y-78730000D03*
%TD*%
%TO.C,P*%
X63970000Y-83810000D03*
%TD*%
%TO.C,P*%
X36030000Y-86350000D03*
%TD*%
%TO.C,P*%
X51270000Y-38090000D03*
%TD*%
%TO.C,P*%
X89370000Y-134610000D03*
%TD*%
%TO.C,P*%
X66510000Y-58410000D03*
%TD*%
%TO.C,P*%
X63970000Y-60950000D03*
%TD*%
%TO.C,P*%
X58890000Y-129530000D03*
%TD*%
%TO.C,P*%
X94450000Y-73650000D03*
%TD*%
%TO.C,P*%
X36030000Y-129530000D03*
%TD*%
%TO.C,P*%
X33490000Y-27930000D03*
%TD*%
%TO.C,P*%
X56350000Y-109210000D03*
%TD*%
%TO.C,P*%
X69050000Y-73650000D03*
%TD*%
%TO.C,P*%
X43650000Y-55870000D03*
%TD*%
%TO.C,P*%
X79210000Y-30470000D03*
%TD*%
%TO.C,P*%
X91910000Y-139690000D03*
%TD*%
%TO.C,P*%
X13170000Y-116830000D03*
%TD*%
%TO.C,P*%
X56350000Y-134610000D03*
%TD*%
%TO.C,P*%
X56350000Y-93970000D03*
%TD*%
%TO.C,P*%
X61430000Y-76190000D03*
%TD*%
%TO.C,P*%
X30950000Y-124450000D03*
%TD*%
%TO.C,P*%
X46190000Y-48250000D03*
%TD*%
%TO.C,P*%
X36030000Y-35550000D03*
%TD*%
%TO.C,P*%
X91910000Y-68570000D03*
%TD*%
%TO.C,P*%
X81750000Y-68570000D03*
%TD*%
%TO.C,P*%
X10630000Y-124450000D03*
%TD*%
%TO.C,P*%
X61430000Y-66030000D03*
%TD*%
%TO.C,P*%
X18250000Y-50790000D03*
%TD*%
%TO.C,P*%
X15710000Y-68570000D03*
%TD*%
%TO.C,P*%
X46190000Y-45710000D03*
%TD*%
%TO.C,P*%
X81750000Y-63490000D03*
%TD*%
%TO.C,P*%
X33490000Y-50790000D03*
%TD*%
%TO.C,P*%
X28410000Y-55870000D03*
%TD*%
%TO.C,P*%
X69050000Y-106670000D03*
%TD*%
%TO.C,P*%
X56350000Y-126990000D03*
%TD*%
%TO.C,P*%
X66510000Y-78730000D03*
%TD*%
%TO.C,P*%
X69050000Y-12690000D03*
%TD*%
%TO.C,P*%
X5550000Y-35550000D03*
%TD*%
%TO.C,P*%
X30950000Y-55870000D03*
%TD*%
%TO.C,P*%
X61430000Y-93970000D03*
%TD*%
%TO.C,P*%
X86830000Y-66030000D03*
%TD*%
%TO.C,P*%
X20790000Y-132070000D03*
%TD*%
%TO.C,P*%
X41110000Y-91430000D03*
%TD*%
%TO.C,P*%
X10630000Y-132070000D03*
%TD*%
%TO.C,P*%
X25870000Y-35550000D03*
%TD*%
%TO.C,P*%
X84290000Y-43170000D03*
%TD*%
%TO.C,P*%
X58890000Y-48250000D03*
%TD*%
%TO.C,P*%
X79210000Y-22850000D03*
%TD*%
%TO.C,P*%
X8090000Y-106670000D03*
%TD*%
%TO.C,P*%
X36030000Y-73650000D03*
%TD*%
%TO.C,P*%
X53810000Y-99050000D03*
%TD*%
%TO.C,P*%
X66510000Y-27930000D03*
%TD*%
%TO.C,P*%
X91910000Y-71110000D03*
%TD*%
%TO.C,P*%
X63970000Y-99050000D03*
%TD*%
%TO.C,P*%
X41110000Y-45710000D03*
%TD*%
%TO.C,P*%
X86830000Y-10150000D03*
%TD*%
%TO.C,P*%
X84290000Y-35550000D03*
%TD*%
%TO.C,P*%
X89370000Y-71110000D03*
%TD*%
%TO.C,P*%
X25870000Y-55870000D03*
%TD*%
%TO.C,P*%
X53810000Y-106670000D03*
%TD*%
%TO.C,P*%
X23330000Y-121910000D03*
%TD*%
%TO.C,P*%
X8090000Y-27930000D03*
%TD*%
%TO.C,P*%
X25870000Y-124450000D03*
%TD*%
%TO.C,P*%
X94450000Y-124450000D03*
%TD*%
%TO.C,P*%
X10630000Y-40630000D03*
%TD*%
%TO.C,P*%
X8090000Y-50790000D03*
%TD*%
%TO.C,P*%
X5550000Y-53330000D03*
%TD*%
%TO.C,P*%
X63970000Y-15230000D03*
%TD*%
%TO.C,P*%
X58890000Y-104130000D03*
%TD*%
%TO.C,P*%
X89370000Y-99050000D03*
%TD*%
%TO.C,P*%
X5550000Y-96510000D03*
%TD*%
%TO.C,P*%
X69050000Y-132070000D03*
%TD*%
%TO.C,P*%
X89370000Y-30470000D03*
%TD*%
%TO.C,P*%
X28410000Y-25390000D03*
%TD*%
%TO.C,P*%
X91910000Y-48250000D03*
%TD*%
%TO.C,P*%
X8090000Y-86350000D03*
%TD*%
%TO.C,P*%
X33490000Y-68570000D03*
%TD*%
%TO.C,P*%
X20790000Y-71110000D03*
%TD*%
%TO.C,P*%
X18250000Y-27930000D03*
%TD*%
%TO.C,P*%
X51270000Y-101590000D03*
%TD*%
%TO.C,P*%
X15710000Y-48250000D03*
%TD*%
%TO.C,P*%
X89370000Y-126990000D03*
%TD*%
%TO.C,P*%
X46190000Y-124450000D03*
%TD*%
%TO.C,P*%
X89370000Y-116830000D03*
%TD*%
%TO.C,P*%
X81750000Y-132070000D03*
%TD*%
%TO.C,P*%
X56350000Y-38090000D03*
%TD*%
%TO.C,P*%
X56350000Y-96510000D03*
%TD*%
%TO.C,P*%
X71590000Y-63490000D03*
%TD*%
%TO.C,P*%
X15710000Y-114290000D03*
%TD*%
%TO.C,P*%
X41110000Y-137150000D03*
%TD*%
%TO.C,P*%
X63970000Y-63490000D03*
%TD*%
%TO.C,P*%
X38570000Y-43170000D03*
%TD*%
%TO.C,P*%
X53810000Y-22850000D03*
%TD*%
%TO.C,P*%
X76670000Y-132070000D03*
%TD*%
%TO.C,P*%
X81750000Y-111750000D03*
%TD*%
%TO.C,P*%
X66510000Y-99050000D03*
%TD*%
%TO.C,P*%
X66510000Y-50790000D03*
%TD*%
%TO.C,P*%
X61430000Y-129530000D03*
%TD*%
%TO.C,P*%
X28410000Y-83810000D03*
%TD*%
%TO.C,P*%
X81750000Y-53330000D03*
%TD*%
%TO.C,P*%
X58890000Y-114290000D03*
%TD*%
%TO.C,P*%
X36030000Y-109210000D03*
%TD*%
%TO.C,P*%
X13170000Y-33010000D03*
%TD*%
%TO.C,P*%
X36030000Y-116830000D03*
%TD*%
%TO.C,P*%
X91910000Y-55870000D03*
%TD*%
%TO.C,P*%
X13170000Y-124450000D03*
%TD*%
%TO.C,P*%
X10630000Y-119370000D03*
%TD*%
%TO.C,P*%
X10630000Y-78730000D03*
%TD*%
%TO.C,P*%
X36030000Y-63490000D03*
%TD*%
%TO.C,P*%
X38570000Y-38090000D03*
%TD*%
%TO.C,P*%
X48730000Y-88890000D03*
%TD*%
M02*
