%TF.GenerationSoftware,KiCad,Pcbnew,9.0.6*%
%TF.CreationDate,2026-03-26T20:22:39+01:00*%
%TF.ProjectId,proto_100x160_stripboard,70726f74-6f5f-4313-9030-783136305f73,rev?*%
%TF.SameCoordinates,Original*%
%TF.FileFunction,Drillmap*%
%TF.FilePolarity,Positive*%
%FSLAX45Y45*%
G04 Gerber Fmt 4.5, Leading zero omitted, Abs format (unit mm)*
G04 Created by KiCad (PCBNEW 9.0.6) date 2026-03-26 20:22:39*
%MOMM*%
%LPD*%
G01*
G04 APERTURE LIST*
%ADD10C,0.100000*%
%ADD11C,0.200000*%
G04 APERTURE END LIST*
D10*
X400000Y0D02*
X9600000Y0D01*
X10000000Y-400000D02*
X10000000Y-15600000D01*
X9600000Y-16000000D02*
X400000Y-16000000D01*
X0Y-15600000D02*
X0Y-400000D01*
X0Y-400000D02*
G75*
G02*
X400000Y0I400000J0D01*
G01*
X9600000Y0D02*
G75*
G02*
X10000000Y-400000I0J-400000D01*
G01*
X10000000Y-15600000D02*
G75*
G02*
X9600000Y-16000000I-400000J0D01*
G01*
X400000Y-16000000D02*
G75*
G02*
X0Y-15600000I0J400000D01*
G01*
D11*
X255777Y-16316484D02*
X255777Y-16116484D01*
X255777Y-16116484D02*
X303396Y-16116484D01*
X303396Y-16116484D02*
X331967Y-16126008D01*
X331967Y-16126008D02*
X351015Y-16145055D01*
X351015Y-16145055D02*
X360539Y-16164103D01*
X360539Y-16164103D02*
X370062Y-16202198D01*
X370062Y-16202198D02*
X370062Y-16230769D01*
X370062Y-16230769D02*
X360539Y-16268865D01*
X360539Y-16268865D02*
X351015Y-16287912D01*
X351015Y-16287912D02*
X331967Y-16306960D01*
X331967Y-16306960D02*
X303396Y-16316484D01*
X303396Y-16316484D02*
X255777Y-16316484D01*
X455777Y-16316484D02*
X455777Y-16183150D01*
X455777Y-16221246D02*
X465301Y-16202198D01*
X465301Y-16202198D02*
X474824Y-16192674D01*
X474824Y-16192674D02*
X493872Y-16183150D01*
X493872Y-16183150D02*
X512920Y-16183150D01*
X579586Y-16316484D02*
X579586Y-16183150D01*
X579586Y-16116484D02*
X570063Y-16126008D01*
X570063Y-16126008D02*
X579586Y-16135531D01*
X579586Y-16135531D02*
X589110Y-16126008D01*
X589110Y-16126008D02*
X579586Y-16116484D01*
X579586Y-16116484D02*
X579586Y-16135531D01*
X703396Y-16316484D02*
X684348Y-16306960D01*
X684348Y-16306960D02*
X674824Y-16287912D01*
X674824Y-16287912D02*
X674824Y-16116484D01*
X808158Y-16316484D02*
X789110Y-16306960D01*
X789110Y-16306960D02*
X779586Y-16287912D01*
X779586Y-16287912D02*
X779586Y-16116484D01*
X1036729Y-16316484D02*
X1036729Y-16116484D01*
X1036729Y-16116484D02*
X1103396Y-16259341D01*
X1103396Y-16259341D02*
X1170063Y-16116484D01*
X1170063Y-16116484D02*
X1170063Y-16316484D01*
X1351015Y-16316484D02*
X1351015Y-16211722D01*
X1351015Y-16211722D02*
X1341491Y-16192674D01*
X1341491Y-16192674D02*
X1322444Y-16183150D01*
X1322444Y-16183150D02*
X1284348Y-16183150D01*
X1284348Y-16183150D02*
X1265301Y-16192674D01*
X1351015Y-16306960D02*
X1331967Y-16316484D01*
X1331967Y-16316484D02*
X1284348Y-16316484D01*
X1284348Y-16316484D02*
X1265301Y-16306960D01*
X1265301Y-16306960D02*
X1255777Y-16287912D01*
X1255777Y-16287912D02*
X1255777Y-16268865D01*
X1255777Y-16268865D02*
X1265301Y-16249817D01*
X1265301Y-16249817D02*
X1284348Y-16240293D01*
X1284348Y-16240293D02*
X1331967Y-16240293D01*
X1331967Y-16240293D02*
X1351015Y-16230769D01*
X1446253Y-16183150D02*
X1446253Y-16383150D01*
X1446253Y-16192674D02*
X1465301Y-16183150D01*
X1465301Y-16183150D02*
X1503396Y-16183150D01*
X1503396Y-16183150D02*
X1522443Y-16192674D01*
X1522443Y-16192674D02*
X1531967Y-16202198D01*
X1531967Y-16202198D02*
X1541491Y-16221246D01*
X1541491Y-16221246D02*
X1541491Y-16278388D01*
X1541491Y-16278388D02*
X1531967Y-16297436D01*
X1531967Y-16297436D02*
X1522443Y-16306960D01*
X1522443Y-16306960D02*
X1503396Y-16316484D01*
X1503396Y-16316484D02*
X1465301Y-16316484D01*
X1465301Y-16316484D02*
X1446253Y-16306960D01*
X1627205Y-16297436D02*
X1636729Y-16306960D01*
X1636729Y-16306960D02*
X1627205Y-16316484D01*
X1627205Y-16316484D02*
X1617682Y-16306960D01*
X1617682Y-16306960D02*
X1627205Y-16297436D01*
X1627205Y-16297436D02*
X1627205Y-16316484D01*
X1627205Y-16192674D02*
X1636729Y-16202198D01*
X1636729Y-16202198D02*
X1627205Y-16211722D01*
X1627205Y-16211722D02*
X1617682Y-16202198D01*
X1617682Y-16202198D02*
X1627205Y-16192674D01*
X1627205Y-16192674D02*
X1627205Y-16211722D01*
M02*
