%TF.GenerationSoftware,KiCad,Pcbnew,9.0.6*%
%TF.CreationDate,2026-03-25T19:52:35+01:00*%
%TF.ProjectId,proto_70x100_group_3,70726f74-6f5f-4373-9078-3130305f6772,rev?*%
%TF.SameCoordinates,Original*%
%TF.FileFunction,Copper,L2,Bot*%
%TF.FilePolarity,Positive*%
%FSLAX46Y46*%
G04 Gerber Fmt 4.6, Leading zero omitted, Abs format (unit mm)*
G04 Created by KiCad (PCBNEW 9.0.6) date 2026-03-25 19:52:35*
%MOMM*%
%LPD*%
G01*
G04 APERTURE LIST*
%TA.AperFunction,ComponentPad*%
%ADD10C,1.800000*%
%TD*%
%TA.AperFunction,ComponentPad*%
%ADD11O,10.000000X12.000000*%
%TD*%
%TA.AperFunction,ViaPad*%
%ADD12C,0.600000*%
%TD*%
%TA.AperFunction,ViaPad*%
%ADD13C,0.800000*%
%TD*%
%TA.AperFunction,Conductor*%
%ADD14C,1.200000*%
%TD*%
%TA.AperFunction,Conductor*%
%ADD15C,0.500000*%
%TD*%
%TA.AperFunction,Conductor*%
%ADD16C,2.000000*%
%TD*%
%TA.AperFunction,Conductor*%
%ADD17C,1.500000*%
%TD*%
G04 APERTURE END LIST*
D10*
%TO.P,P,1*%
%TO.N,N/C*%
X8330000Y-20790000D03*
%TD*%
%TO.P,P,1*%
%TO.N,GND*%
X5790000Y-25870000D03*
%TD*%
%TO.P,P,1*%
%TO.N,N/C*%
X23570000Y-58890000D03*
%TD*%
%TO.P,P,1*%
%TO.N,N/C*%
X61670000Y-61430000D03*
%TD*%
%TO.P,P,1*%
%TO.N,N/C*%
X48970000Y-61430000D03*
%TD*%
%TO.P,P,1*%
%TO.N,N/C*%
X48970000Y-58890000D03*
%TD*%
%TO.P,P,1*%
%TO.N,N/C*%
X31190000Y-25870000D03*
%TD*%
%TO.P,P,1*%
%TO.N,N/C*%
X8330000Y-15710000D03*
%TD*%
%TO.P,P,1*%
%TO.N,N/C*%
X59130000Y-36030000D03*
%TD*%
%TO.P,P,1*%
%TO.N,N/C*%
X41350000Y-51270000D03*
%TD*%
%TO.P,P,1*%
%TO.N,N/C*%
X26110000Y-8090000D03*
%TD*%
%TO.P,P,1*%
%TO.N,N/C*%
X13410000Y-69050000D03*
%TD*%
%TO.P,P,1*%
%TO.N,N/C*%
X33730000Y-36030000D03*
%TD*%
%TO.P,P,1*%
%TO.N,N/C*%
X54050000Y-48730000D03*
%TD*%
%TO.P,P,1*%
%TO.N,N/C*%
X28650000Y-79210000D03*
%TD*%
%TO.P,P,1*%
%TO.N,N/C*%
X46430000Y-36030000D03*
%TD*%
%TO.P,P,1*%
%TO.N,N/C*%
X33730000Y-30950000D03*
%TD*%
%TO.P,P,1*%
%TO.N,N/C*%
X36270000Y-41110000D03*
%TD*%
%TO.P,P,1*%
%TO.N,N/C*%
X56590000Y-36030000D03*
%TD*%
%TO.P,P,1*%
%TO.N,N/C*%
X36270000Y-71590000D03*
%TD*%
%TO.P,P,1*%
%TO.N,N/C*%
X23570000Y-33490000D03*
%TD*%
%TO.P,P,1*%
%TO.N,VCC*%
X64210000Y-53810000D03*
%TD*%
%TO.P,P,1*%
%TO.N,N/C*%
X43890000Y-20790000D03*
%TD*%
%TO.P,P,1*%
%TO.N,N/C*%
X43890000Y-61430000D03*
%TD*%
%TO.P,P,1*%
%TO.N,N/C*%
X8330000Y-23330000D03*
%TD*%
%TO.P,P,1*%
%TO.N,N/C*%
X23570000Y-56350000D03*
%TD*%
%TO.P,P,1*%
%TO.N,N/C*%
X28650000Y-74130000D03*
%TD*%
%TO.P,P,1*%
%TO.N,N/C*%
X10870000Y-74130000D03*
%TD*%
%TO.P,P,1*%
%TO.N,N/C*%
X36270000Y-13170000D03*
%TD*%
%TO.P,P,1*%
%TO.N,GND*%
X64210000Y-18250000D03*
%TD*%
%TO.P,P,1*%
%TO.N,N/C*%
X48970000Y-36030000D03*
%TD*%
%TO.P,P,1*%
%TO.N,GND*%
X64210000Y-28410000D03*
%TD*%
%TO.P,P,1*%
%TO.N,N/C*%
X56590000Y-43650000D03*
%TD*%
%TO.P,P,1*%
%TO.N,N/C*%
X18490000Y-51270000D03*
%TD*%
%TO.P,P,1*%
%TO.N,N/C*%
X15950000Y-5550000D03*
%TD*%
%TO.P,P,1*%
%TO.N,N/C*%
X51510000Y-48730000D03*
%TD*%
%TO.P,P,1*%
%TO.N,N/C*%
X33730000Y-18250000D03*
%TD*%
%TO.P,P,1*%
%TO.N,N/C*%
X8330000Y-79210000D03*
%TD*%
%TO.P,P,1*%
%TO.N,N/C*%
X33730000Y-56350000D03*
%TD*%
%TO.P,P,1*%
%TO.N,N/C*%
X23570000Y-15710000D03*
%TD*%
%TO.P,P,1*%
%TO.N,GND*%
X5790000Y-38570000D03*
%TD*%
%TO.P,P,1*%
%TO.N,N/C*%
X26110000Y-46190000D03*
%TD*%
%TO.P,P,1*%
%TO.N,N/C*%
X36270000Y-43650000D03*
%TD*%
%TO.P,P,1*%
%TO.N,N/C*%
X61670000Y-36030000D03*
%TD*%
%TO.P,P,1*%
%TO.N,N/C*%
X26110000Y-41110000D03*
%TD*%
%TO.P,P,1*%
%TO.N,N/C*%
X33730000Y-43650000D03*
%TD*%
%TO.P,P,1*%
%TO.N,N/C*%
X59130000Y-8090000D03*
%TD*%
%TO.P,P,1*%
%TO.N,N/C*%
X36270000Y-28410000D03*
%TD*%
%TO.P,P,1*%
%TO.N,N/C*%
X13410000Y-15710000D03*
%TD*%
%TO.P,P,1*%
%TO.N,VCC*%
X5790000Y-43650000D03*
%TD*%
%TO.P,P,1*%
%TO.N,N/C*%
X33730000Y-8090000D03*
%TD*%
%TO.P,P,1*%
%TO.N,N/C*%
X10870000Y-46190000D03*
%TD*%
%TO.P,P,1*%
%TO.N,N/C*%
X61670000Y-66510000D03*
%TD*%
%TO.P,P,1*%
%TO.N,N/C*%
X38810000Y-30950000D03*
%TD*%
%TO.P,P,1*%
%TO.N,N/C*%
X46430000Y-56350000D03*
%TD*%
%TO.P,P,1*%
%TO.N,GND*%
X5790000Y-48730000D03*
%TD*%
%TO.P,P,1*%
%TO.N,N/C*%
X31190000Y-18250000D03*
%TD*%
%TO.P,P,1*%
%TO.N,N/C*%
X33730000Y-71590000D03*
%TD*%
%TO.P,P,1*%
%TO.N,N/C*%
X41350000Y-8090000D03*
%TD*%
%TO.P,P,1*%
%TO.N,N/C*%
X23570000Y-46190000D03*
%TD*%
%TO.P,P,1*%
%TO.N,N/C*%
X54050000Y-13170000D03*
%TD*%
%TO.P,P,1*%
%TO.N,N/C*%
X31190000Y-28410000D03*
%TD*%
%TO.P,P,1*%
%TO.N,N/C*%
X46430000Y-53810000D03*
%TD*%
%TO.P,P,1*%
%TO.N,N/C*%
X59130000Y-28410000D03*
%TD*%
%TO.P,P,1*%
%TO.N,N/C*%
X18490000Y-48730000D03*
%TD*%
%TO.P,P,1*%
%TO.N,N/C*%
X46430000Y-41110000D03*
%TD*%
%TO.P,P,1*%
%TO.N,GND*%
X5790000Y-46190000D03*
%TD*%
%TO.P,P,1*%
%TO.N,N/C*%
X21030000Y-10630000D03*
%TD*%
%TO.P,P,1*%
%TO.N,N/C*%
X33730000Y-23330000D03*
%TD*%
%TO.P,P,1*%
%TO.N,N/C*%
X18490000Y-76670000D03*
%TD*%
%TO.P,P,1*%
%TO.N,N/C*%
X59130000Y-38570000D03*
%TD*%
%TO.P,P,1*%
%TO.N,N/C*%
X38810000Y-46190000D03*
%TD*%
%TO.P,P,1*%
%TO.N,N/C*%
X31190000Y-74130000D03*
%TD*%
%TO.P,P,1*%
%TO.N,N/C*%
X18490000Y-25870000D03*
%TD*%
%TO.P,P,1*%
%TO.N,VCC*%
X64210000Y-63970000D03*
%TD*%
%TO.P,P,1*%
%TO.N,N/C*%
X61670000Y-8090000D03*
%TD*%
%TO.P,P,1*%
%TO.N,N/C*%
X61670000Y-46190000D03*
%TD*%
%TO.P,P,1*%
%TO.N,N/C*%
X59130000Y-13170000D03*
%TD*%
%TO.P,P,1*%
%TO.N,N/C*%
X28650000Y-46190000D03*
%TD*%
%TO.P,P,1*%
%TO.N,N/C*%
X33730000Y-74130000D03*
%TD*%
%TO.P,P,1*%
%TO.N,N/C*%
X10870000Y-33490000D03*
%TD*%
%TO.P,P,1*%
%TO.N,N/C*%
X13410000Y-53810000D03*
%TD*%
%TO.P,P,1*%
%TO.N,N/C*%
X8330000Y-36030000D03*
%TD*%
%TO.P,P,1*%
%TO.N,N/C*%
X31190000Y-46190000D03*
%TD*%
%TO.P,P,1*%
%TO.N,GND*%
X5790000Y-56350000D03*
%TD*%
%TO.P,P,1*%
%TO.N,N/C*%
X59130000Y-58890000D03*
%TD*%
%TO.P,P,1*%
%TO.N,N/C*%
X28650000Y-53810000D03*
%TD*%
%TO.P,P,1*%
%TO.N,N/C*%
X36270000Y-10630000D03*
%TD*%
%TO.P,P,1*%
%TO.N,N/C*%
X21030000Y-5550000D03*
%TD*%
%TO.P,P,1*%
%TO.N,N/C*%
X36270000Y-56350000D03*
%TD*%
%TO.P,P,1*%
%TO.N,N/C*%
X41350000Y-5550000D03*
%TD*%
%TO.P,P,1*%
%TO.N,N/C*%
X26110000Y-20790000D03*
%TD*%
%TO.P,P,1*%
%TO.N,N/C*%
X56590000Y-79210000D03*
%TD*%
%TO.P,P,1*%
%TO.N,N/C*%
X33730000Y-76670000D03*
%TD*%
%TO.P,P,1*%
%TO.N,N/C*%
X33730000Y-33490000D03*
%TD*%
%TO.P,P,1*%
%TO.N,N/C*%
X38810000Y-48730000D03*
%TD*%
%TO.P,P,1*%
%TO.N,N/C*%
X8330000Y-58890000D03*
%TD*%
%TO.P,P,1*%
%TO.N,N/C*%
X54050000Y-23330000D03*
%TD*%
%TO.P,P,1*%
%TO.N,N/C*%
X15950000Y-53810000D03*
%TD*%
%TO.P,P,1*%
%TO.N,VCC*%
X5790000Y-63970000D03*
%TD*%
%TO.P,P,1*%
%TO.N,N/C*%
X36270000Y-79210000D03*
%TD*%
%TO.P,P,1*%
%TO.N,N/C*%
X56590000Y-13170000D03*
%TD*%
%TO.P,P,1*%
%TO.N,N/C*%
X59130000Y-10630000D03*
%TD*%
%TO.P,P,1*%
%TO.N,N/C*%
X23570000Y-69050000D03*
%TD*%
%TO.P,P,1*%
%TO.N,N/C*%
X15950000Y-8090000D03*
%TD*%
%TO.P,P,1*%
%TO.N,N/C*%
X26110000Y-23330000D03*
%TD*%
%TO.P,P,1*%
%TO.N,N/C*%
X28650000Y-63970000D03*
%TD*%
%TO.P,P,1*%
%TO.N,N/C*%
X33730000Y-46190000D03*
%TD*%
%TO.P,P,1*%
%TO.N,N/C*%
X51510000Y-61430000D03*
%TD*%
%TO.P,P,1*%
%TO.N,N/C*%
X23570000Y-48730000D03*
%TD*%
%TO.P,P,1*%
%TO.N,N/C*%
X21030000Y-48730000D03*
%TD*%
%TO.P,P,1*%
%TO.N,N/C*%
X33730000Y-63970000D03*
%TD*%
%TO.P,P,1*%
%TO.N,N/C*%
X33730000Y-38570000D03*
%TD*%
%TO.P,P,1*%
%TO.N,N/C*%
X8330000Y-41110000D03*
%TD*%
%TO.P,P,1*%
%TO.N,N/C*%
X56590000Y-25870000D03*
%TD*%
%TO.P,P,1*%
%TO.N,N/C*%
X51510000Y-69050000D03*
%TD*%
%TO.P,P,1*%
%TO.N,N/C*%
X23570000Y-63970000D03*
%TD*%
%TO.P,P,1*%
%TO.N,N/C*%
X26110000Y-56350000D03*
%TD*%
%TO.P,P,1*%
%TO.N,N/C*%
X43890000Y-69050000D03*
%TD*%
%TO.P,P,1*%
%TO.N,N/C*%
X10870000Y-25870000D03*
%TD*%
%TO.P,P,1*%
%TO.N,N/C*%
X10870000Y-48730000D03*
%TD*%
%TO.P,P,1*%
%TO.N,VCC*%
X64210000Y-43650000D03*
%TD*%
%TO.P,P,1*%
%TO.N,N/C*%
X15950000Y-28410000D03*
%TD*%
%TO.P,P,1*%
%TO.N,N/C*%
X41350000Y-20790000D03*
%TD*%
%TO.P,P,1*%
%TO.N,N/C*%
X59130000Y-43650000D03*
%TD*%
%TO.P,P,1*%
%TO.N,VCC*%
X5790000Y-41110000D03*
%TD*%
%TO.P,P,1*%
%TO.N,N/C*%
X48970000Y-5550000D03*
%TD*%
%TO.P,P,1*%
%TO.N,N/C*%
X13410000Y-51270000D03*
%TD*%
%TO.P,P,1*%
%TO.N,N/C*%
X18490000Y-20790000D03*
%TD*%
%TO.P,P,1*%
%TO.N,N/C*%
X59130000Y-61430000D03*
%TD*%
%TO.P,P,1*%
%TO.N,GND*%
X64210000Y-38570000D03*
%TD*%
%TO.P,P,1*%
%TO.N,N/C*%
X48970000Y-25870000D03*
%TD*%
%TO.P,P,1*%
%TO.N,N/C*%
X13410000Y-18250000D03*
%TD*%
%TO.P,P,1*%
%TO.N,N/C*%
X21030000Y-15710000D03*
%TD*%
%TO.P,P,1*%
%TO.N,N/C*%
X21030000Y-51270000D03*
%TD*%
%TO.P,P,1*%
%TO.N,GND*%
X5790000Y-69050000D03*
%TD*%
%TO.P,P,1*%
%TO.N,N/C*%
X43890000Y-23330000D03*
%TD*%
%TO.P,P,1*%
%TO.N,N/C*%
X10870000Y-20790000D03*
%TD*%
%TO.P,P,1*%
%TO.N,N/C*%
X46430000Y-38570000D03*
%TD*%
%TO.P,P,1*%
%TO.N,N/C*%
X43890000Y-33490000D03*
%TD*%
%TO.P,P,1*%
%TO.N,VCC*%
X5790000Y-33490000D03*
%TD*%
%TO.P,P,1*%
%TO.N,N/C*%
X21030000Y-23330000D03*
%TD*%
%TO.P,P,1*%
%TO.N,N/C*%
X54050000Y-15710000D03*
%TD*%
%TO.P,P,1*%
%TO.N,N/C*%
X48970000Y-15710000D03*
%TD*%
%TO.P,P,1*%
%TO.N,N/C*%
X43890000Y-5550000D03*
%TD*%
%TO.P,P,1*%
%TO.N,N/C*%
X28650000Y-30950000D03*
%TD*%
%TO.P,P,1*%
%TO.N,N/C*%
X38810000Y-18250000D03*
%TD*%
%TO.P,P,1*%
%TO.N,N/C*%
X51510000Y-30950000D03*
%TD*%
%TO.P,P,1*%
%TO.N,N/C*%
X15950000Y-18250000D03*
%TD*%
%TO.P,P,1*%
%TO.N,N/C*%
X18490000Y-61430000D03*
%TD*%
%TO.P,P,1*%
%TO.N,N/C*%
X48970000Y-63970000D03*
%TD*%
%TO.P,P,1*%
%TO.N,N/C*%
X15950000Y-20790000D03*
%TD*%
%TO.P,P,1*%
%TO.N,N/C*%
X13410000Y-33490000D03*
%TD*%
%TO.P,P,1*%
%TO.N,N/C*%
X54050000Y-36030000D03*
%TD*%
%TO.P,P,1*%
%TO.N,N/C*%
X15950000Y-69050000D03*
%TD*%
%TO.P,P,1*%
%TO.N,N/C*%
X26110000Y-79210000D03*
%TD*%
%TO.P,P,1*%
%TO.N,N/C*%
X26110000Y-13170000D03*
%TD*%
%TO.P,P,1*%
%TO.N,N/C*%
X41350000Y-79210000D03*
%TD*%
%TO.P,P,1*%
%TO.N,N/C*%
X28650000Y-71590000D03*
%TD*%
%TO.P,P,1*%
%TO.N,VCC*%
X64210000Y-61430000D03*
%TD*%
%TO.P,P,1*%
%TO.N,N/C*%
X43890000Y-36030000D03*
%TD*%
%TO.P,P,1*%
%TO.N,N/C*%
X10870000Y-8090000D03*
%TD*%
%TO.P,P,1*%
%TO.N,N/C*%
X15950000Y-36030000D03*
%TD*%
%TO.P,P,1*%
%TO.N,N/C*%
X21030000Y-28410000D03*
%TD*%
%TO.P,P,1*%
%TO.N,N/C*%
X18490000Y-28410000D03*
%TD*%
%TO.P,P,1*%
%TO.N,N/C*%
X15950000Y-46190000D03*
%TD*%
%TO.P,P,1*%
%TO.N,N/C*%
X56590000Y-38570000D03*
%TD*%
%TO.P,P,1*%
%TO.N,N/C*%
X15950000Y-56350000D03*
%TD*%
%TO.P,P,1*%
%TO.N,N/C*%
X33730000Y-28410000D03*
%TD*%
%TO.P,P,1*%
%TO.N,N/C*%
X46430000Y-43650000D03*
%TD*%
%TO.P,P,1*%
%TO.N,N/C*%
X43890000Y-71590000D03*
%TD*%
%TO.P,P,1*%
%TO.N,N/C*%
X61670000Y-71590000D03*
%TD*%
%TO.P,P,1*%
%TO.N,N/C*%
X59130000Y-76670000D03*
%TD*%
%TO.P,P,1*%
%TO.N,N/C*%
X46430000Y-66510000D03*
%TD*%
%TO.P,P,1*%
%TO.N,N/C*%
X38810000Y-66510000D03*
%TD*%
%TO.P,P,1*%
%TO.N,N/C*%
X41350000Y-53810000D03*
%TD*%
%TO.P,P,1*%
%TO.N,GND*%
X5790000Y-36030000D03*
%TD*%
%TO.P,P,1*%
%TO.N,N/C*%
X38810000Y-51270000D03*
%TD*%
%TO.P,P,1*%
%TO.N,N/C*%
X38810000Y-74130000D03*
%TD*%
%TO.P,P,1*%
%TO.N,N/C*%
X61670000Y-48730000D03*
%TD*%
%TO.P,P,1*%
%TO.N,N/C*%
X48970000Y-69050000D03*
%TD*%
%TO.P,P,1*%
%TO.N,N/C*%
X8330000Y-8090000D03*
%TD*%
%TO.P,P,1*%
%TO.N,N/C*%
X43890000Y-13170000D03*
%TD*%
%TO.P,P,1*%
%TO.N,N/C*%
X38810000Y-71590000D03*
%TD*%
%TO.P,P,1*%
%TO.N,N/C*%
X13410000Y-23330000D03*
%TD*%
%TO.P,P,1*%
%TO.N,N/C*%
X33730000Y-15710000D03*
%TD*%
%TO.P,P,1*%
%TO.N,N/C*%
X51510000Y-58890000D03*
%TD*%
%TO.P,P,1*%
%TO.N,N/C*%
X13410000Y-71590000D03*
%TD*%
%TO.P,P,1*%
%TO.N,N/C*%
X59130000Y-46190000D03*
%TD*%
%TO.P,P,1*%
%TO.N,N/C*%
X36270000Y-53810000D03*
%TD*%
%TO.P,P,1*%
%TO.N,N/C*%
X36270000Y-18250000D03*
%TD*%
%TO.P,P,1*%
%TO.N,N/C*%
X18490000Y-15710000D03*
%TD*%
%TO.P,P,1*%
%TO.N,N/C*%
X28650000Y-61430000D03*
%TD*%
%TO.P,P,1*%
%TO.N,N/C*%
X48970000Y-41110000D03*
%TD*%
%TO.P,P,1*%
%TO.N,N/C*%
X51510000Y-15710000D03*
%TD*%
%TO.P,P,1*%
%TO.N,N/C*%
X38810000Y-28410000D03*
%TD*%
%TO.P,P,1*%
%TO.N,N/C*%
X59130000Y-30950000D03*
%TD*%
%TO.P,P,1*%
%TO.N,N/C*%
X15950000Y-66510000D03*
%TD*%
%TO.P,P,1*%
%TO.N,N/C*%
X13410000Y-8090000D03*
%TD*%
%TO.P,P,1*%
%TO.N,N/C*%
X56590000Y-51270000D03*
%TD*%
%TO.P,P,1*%
%TO.N,N/C*%
X21030000Y-38570000D03*
%TD*%
%TO.P,P,1*%
%TO.N,N/C*%
X38810000Y-36030000D03*
%TD*%
%TO.P,P,1*%
%TO.N,N/C*%
X43890000Y-63970000D03*
%TD*%
%TO.P,P,1*%
%TO.N,N/C*%
X61670000Y-15710000D03*
%TD*%
%TO.P,P,1*%
%TO.N,N/C*%
X54050000Y-20790000D03*
%TD*%
%TO.P,P,1*%
%TO.N,N/C*%
X13410000Y-41110000D03*
%TD*%
%TO.P,P,1*%
%TO.N,N/C*%
X41350000Y-74130000D03*
%TD*%
%TO.P,P,1*%
%TO.N,N/C*%
X41350000Y-58890000D03*
%TD*%
%TO.P,P,1*%
%TO.N,N/C*%
X41350000Y-36030000D03*
%TD*%
%TO.P,P,1*%
%TO.N,N/C*%
X51510000Y-5550000D03*
%TD*%
%TO.P,P,1*%
%TO.N,N/C*%
X21030000Y-46190000D03*
%TD*%
%TO.P,P,1*%
%TO.N,N/C*%
X33730000Y-66510000D03*
%TD*%
%TO.P,P,1*%
%TO.N,N/C*%
X38810000Y-10630000D03*
%TD*%
%TO.P,P,1*%
%TO.N,N/C*%
X21030000Y-41110000D03*
%TD*%
%TO.P,P,1*%
%TO.N,N/C*%
X26110000Y-5550000D03*
%TD*%
%TO.P,P,1*%
%TO.N,N/C*%
X10870000Y-23330000D03*
%TD*%
%TO.P,P,1*%
%TO.N,N/C*%
X13410000Y-28410000D03*
%TD*%
%TO.P,P,1*%
%TO.N,N/C*%
X21030000Y-18250000D03*
%TD*%
%TO.P,P,1*%
%TO.N,N/C*%
X31190000Y-10630000D03*
%TD*%
%TO.P,P,1*%
%TO.N,N/C*%
X51510000Y-74130000D03*
%TD*%
%TO.P,P,1*%
%TO.N,N/C*%
X51510000Y-8090000D03*
%TD*%
%TO.P,P,1*%
%TO.N,VCC*%
X64210000Y-20790000D03*
%TD*%
%TO.P,P,1*%
%TO.N,N/C*%
X26110000Y-61430000D03*
%TD*%
%TO.P,P,1*%
%TO.N,N/C*%
X38810000Y-63970000D03*
%TD*%
%TO.P,P,1*%
%TO.N,N/C*%
X43890000Y-51270000D03*
%TD*%
%TO.P,P,1*%
%TO.N,N/C*%
X38810000Y-33490000D03*
%TD*%
%TO.P,P,1*%
%TO.N,N/C*%
X41350000Y-13170000D03*
%TD*%
%TO.P,P,1*%
%TO.N,N/C*%
X23570000Y-61430000D03*
%TD*%
%TO.P,P,1*%
%TO.N,N/C*%
X59130000Y-69050000D03*
%TD*%
%TO.P,P,1*%
%TO.N,N/C*%
X21030000Y-43650000D03*
%TD*%
%TO.P,P,1*%
%TO.N,N/C*%
X43890000Y-56350000D03*
%TD*%
%TO.P,P,1*%
%TO.N,N/C*%
X41350000Y-71590000D03*
%TD*%
%TO.P,P,1*%
%TO.N,N/C*%
X8330000Y-71590000D03*
%TD*%
%TO.P,P,1*%
%TO.N,N/C*%
X54050000Y-56350000D03*
%TD*%
%TO.P,P,1*%
%TO.N,N/C*%
X59130000Y-79210000D03*
%TD*%
%TO.P,P,1*%
%TO.N,N/C*%
X21030000Y-74130000D03*
%TD*%
%TO.P,P,1*%
%TO.N,N/C*%
X48970000Y-38570000D03*
%TD*%
%TO.P,P,1*%
%TO.N,N/C*%
X10870000Y-66510000D03*
%TD*%
%TO.P,P,1*%
%TO.N,N/C*%
X61670000Y-43650000D03*
%TD*%
%TO.P,P,1*%
%TO.N,N/C*%
X51510000Y-56350000D03*
%TD*%
%TO.P,P,1*%
%TO.N,N/C*%
X18490000Y-38570000D03*
%TD*%
%TO.P,P,1*%
%TO.N,N/C*%
X41350000Y-25870000D03*
%TD*%
%TO.P,P,1*%
%TO.N,N/C*%
X8330000Y-38570000D03*
%TD*%
%TO.P,P,1*%
%TO.N,N/C*%
X10870000Y-5550000D03*
%TD*%
%TO.P,P,1*%
%TO.N,N/C*%
X33730000Y-69050000D03*
%TD*%
%TO.P,P,1*%
%TO.N,N/C*%
X21030000Y-30950000D03*
%TD*%
%TO.P,P,1*%
%TO.N,N/C*%
X59130000Y-63970000D03*
%TD*%
%TO.P,P,1*%
%TO.N,VCC*%
X5790000Y-10630000D03*
%TD*%
%TO.P,P,1*%
%TO.N,N/C*%
X36270000Y-74130000D03*
%TD*%
%TO.P,P,1*%
%TO.N,N/C*%
X28650000Y-36030000D03*
%TD*%
%TO.P,P,1*%
%TO.N,N/C*%
X33730000Y-58890000D03*
%TD*%
%TO.P,P,1*%
%TO.N,N/C*%
X10870000Y-38570000D03*
%TD*%
%TO.P,P,1*%
%TO.N,N/C*%
X54050000Y-46190000D03*
%TD*%
%TO.P,P,1*%
%TO.N,N/C*%
X56590000Y-41110000D03*
%TD*%
%TO.P,P,1*%
%TO.N,N/C*%
X48970000Y-20790000D03*
%TD*%
%TO.P,P,1*%
%TO.N,N/C*%
X18490000Y-79210000D03*
%TD*%
%TO.P,P,1*%
%TO.N,N/C*%
X61670000Y-33490000D03*
%TD*%
%TO.P,P,1*%
%TO.N,N/C*%
X28650000Y-48730000D03*
%TD*%
%TO.P,P,1*%
%TO.N,VCC*%
X5790000Y-53810000D03*
%TD*%
%TO.P,P,1*%
%TO.N,GND*%
X64210000Y-76670000D03*
%TD*%
%TO.P,P,1*%
%TO.N,N/C*%
X10870000Y-71590000D03*
%TD*%
%TO.P,P,1*%
%TO.N,GND*%
X5790000Y-15710000D03*
%TD*%
%TO.P,P,1*%
%TO.N,N/C*%
X59130000Y-23330000D03*
%TD*%
%TO.P,P,1*%
%TO.N,N/C*%
X43890000Y-58890000D03*
%TD*%
%TO.P,P,1*%
%TO.N,N/C*%
X15950000Y-33490000D03*
%TD*%
%TO.P,P,1*%
%TO.N,N/C*%
X59130000Y-48730000D03*
%TD*%
%TO.P,P,1*%
%TO.N,N/C*%
X56590000Y-8090000D03*
%TD*%
%TO.P,P,1*%
%TO.N,N/C*%
X18490000Y-53810000D03*
%TD*%
%TO.P,P,1*%
%TO.N,N/C*%
X8330000Y-69050000D03*
%TD*%
%TO.P,P,1*%
%TO.N,N/C*%
X28650000Y-56350000D03*
%TD*%
%TO.P,P,1*%
%TO.N,N/C*%
X38810000Y-8090000D03*
%TD*%
%TO.P,P,1*%
%TO.N,GND*%
X5790000Y-79210000D03*
%TD*%
%TO.P,P,1*%
%TO.N,N/C*%
X36270000Y-25870000D03*
%TD*%
%TO.P,P,1*%
%TO.N,N/C*%
X61670000Y-13170000D03*
%TD*%
%TO.P,P,1*%
%TO.N,N/C*%
X61670000Y-30950000D03*
%TD*%
%TO.P,P,1*%
%TO.N,N/C*%
X33730000Y-10630000D03*
%TD*%
%TO.P,P,1*%
%TO.N,N/C*%
X38810000Y-58890000D03*
%TD*%
%TO.P,P,1*%
%TO.N,N/C*%
X38810000Y-13170000D03*
%TD*%
%TO.P,P,1*%
%TO.N,N/C*%
X8330000Y-74130000D03*
%TD*%
%TO.P,P,1*%
%TO.N,N/C*%
X28650000Y-23330000D03*
%TD*%
%TO.P,P,1*%
%TO.N,N/C*%
X54050000Y-18250000D03*
%TD*%
%TO.P,P,1*%
%TO.N,N/C*%
X13410000Y-79210000D03*
%TD*%
%TO.P,P,1*%
%TO.N,N/C*%
X8330000Y-10630000D03*
%TD*%
%TO.P,P,1*%
%TO.N,N/C*%
X59130000Y-25870000D03*
%TD*%
%TO.P,P,1*%
%TO.N,N/C*%
X23570000Y-74130000D03*
%TD*%
%TO.P,P,1*%
%TO.N,N/C*%
X61670000Y-56350000D03*
%TD*%
%TO.P,P,1*%
%TO.N,N/C*%
X61670000Y-74130000D03*
%TD*%
%TO.P,P,1*%
%TO.N,N/C*%
X51510000Y-10630000D03*
%TD*%
%TO.P,P,1*%
%TO.N,N/C*%
X31190000Y-76670000D03*
%TD*%
%TO.P,P,1*%
%TO.N,N/C*%
X18490000Y-56350000D03*
%TD*%
%TO.P,P,1*%
%TO.N,GND*%
X64210000Y-58890000D03*
%TD*%
%TO.P,P,1*%
%TO.N,N/C*%
X51510000Y-28410000D03*
%TD*%
%TO.P,P,1*%
%TO.N,N/C*%
X31190000Y-30950000D03*
%TD*%
%TO.P,P,1*%
%TO.N,N/C*%
X61670000Y-10630000D03*
%TD*%
%TO.P,P,1*%
%TO.N,N/C*%
X61670000Y-53810000D03*
%TD*%
%TO.P,P,1*%
%TO.N,N/C*%
X38810000Y-61430000D03*
%TD*%
%TO.P,P,1*%
%TO.N,N/C*%
X51510000Y-41110000D03*
%TD*%
%TO.P,P,1*%
%TO.N,N/C*%
X28650000Y-66510000D03*
%TD*%
%TO.P,P,1*%
%TO.N,N/C*%
X56590000Y-33490000D03*
%TD*%
%TO.P,P,1*%
%TO.N,N/C*%
X43890000Y-43650000D03*
%TD*%
%TO.P,P,1*%
%TO.N,GND*%
X5790000Y-66510000D03*
%TD*%
%TO.P,P,1*%
%TO.N,GND*%
X5790000Y-76670000D03*
%TD*%
%TO.P,P,1*%
%TO.N,N/C*%
X15950000Y-10630000D03*
%TD*%
%TO.P,P,1*%
%TO.N,N/C*%
X54050000Y-10630000D03*
%TD*%
%TO.P,P,1*%
%TO.N,N/C*%
X18490000Y-18250000D03*
%TD*%
%TO.P,P,1*%
%TO.N,N/C*%
X56590000Y-28410000D03*
%TD*%
%TO.P,P,1*%
%TO.N,N/C*%
X51510000Y-25870000D03*
%TD*%
%TO.P,P,1*%
%TO.N,N/C*%
X18490000Y-23330000D03*
%TD*%
%TO.P,P,1*%
%TO.N,VCC*%
X5790000Y-61430000D03*
%TD*%
%TO.P,P,1*%
%TO.N,N/C*%
X31190000Y-15710000D03*
%TD*%
%TO.P,P,1*%
%TO.N,N/C*%
X8330000Y-46190000D03*
%TD*%
%TO.P,P,1*%
%TO.N,N/C*%
X23570000Y-30950000D03*
%TD*%
%TO.P,P,1*%
%TO.N,N/C*%
X28650000Y-13170000D03*
%TD*%
%TO.P,P,1*%
%TO.N,N/C*%
X23570000Y-71590000D03*
%TD*%
%TO.P,P,1*%
%TO.N,N/C*%
X61670000Y-25870000D03*
%TD*%
%TO.P,P,1*%
%TO.N,N/C*%
X54050000Y-71590000D03*
%TD*%
%TO.P,P,1*%
%TO.N,N/C*%
X15950000Y-43650000D03*
%TD*%
%TO.P,P,1*%
%TO.N,N/C*%
X31190000Y-8090000D03*
%TD*%
%TO.P,P,1*%
%TO.N,N/C*%
X8330000Y-56350000D03*
%TD*%
%TO.P,P,1*%
%TO.N,N/C*%
X31190000Y-66510000D03*
%TD*%
%TO.P,P,1*%
%TO.N,N/C*%
X41350000Y-15710000D03*
%TD*%
%TO.P,P,1*%
%TO.N,N/C*%
X8330000Y-61430000D03*
%TD*%
%TO.P,P,1*%
%TO.N,N/C*%
X51510000Y-18250000D03*
%TD*%
%TO.P,P,1*%
%TO.N,N/C*%
X8330000Y-48730000D03*
%TD*%
%TO.P,P,1*%
%TO.N,N/C*%
X36270000Y-36030000D03*
%TD*%
%TO.P,P,1*%
%TO.N,N/C*%
X61670000Y-38570000D03*
%TD*%
%TO.P,P,1*%
%TO.N,N/C*%
X38810000Y-15710000D03*
%TD*%
%TO.P,P,1*%
%TO.N,N/C*%
X48970000Y-76670000D03*
%TD*%
%TO.P,P,1*%
%TO.N,GND*%
X64210000Y-25870000D03*
%TD*%
%TO.P,P,1*%
%TO.N,GND*%
X64210000Y-66510000D03*
%TD*%
%TO.P,P,1*%
%TO.N,N/C*%
X46430000Y-10630000D03*
%TD*%
%TO.P,P,1*%
%TO.N,N/C*%
X26110000Y-33490000D03*
%TD*%
%TO.P,P,1*%
%TO.N,GND*%
X5790000Y-5550000D03*
%TD*%
%TO.P,P,1*%
%TO.N,N/C*%
X56590000Y-20790000D03*
%TD*%
%TO.P,P,1*%
%TO.N,N/C*%
X48970000Y-18250000D03*
%TD*%
%TO.P,P,1*%
%TO.N,N/C*%
X23570000Y-23330000D03*
%TD*%
%TO.P,P,1*%
%TO.N,N/C*%
X38810000Y-20790000D03*
%TD*%
%TO.P,P,1*%
%TO.N,N/C*%
X46430000Y-63970000D03*
%TD*%
%TO.P,P,1*%
%TO.N,N/C*%
X31190000Y-56350000D03*
%TD*%
%TO.P,P,1*%
%TO.N,GND*%
X64210000Y-79210000D03*
%TD*%
%TO.P,P,1*%
%TO.N,N/C*%
X23570000Y-38570000D03*
%TD*%
%TO.P,P,1*%
%TO.N,N/C*%
X36270000Y-30950000D03*
%TD*%
%TO.P,P,1*%
%TO.N,N/C*%
X46430000Y-23330000D03*
%TD*%
%TO.P,P,1*%
%TO.N,N/C*%
X48970000Y-43650000D03*
%TD*%
%TO.P,P,1*%
%TO.N,N/C*%
X61670000Y-63970000D03*
%TD*%
%TO.P,P,1*%
%TO.N,N/C*%
X46430000Y-25870000D03*
%TD*%
%TO.P,P,1*%
%TO.N,N/C*%
X43890000Y-15710000D03*
%TD*%
%TO.P,P,1*%
%TO.N,N/C*%
X13410000Y-63970000D03*
%TD*%
%TO.P,P,1*%
%TO.N,N/C*%
X26110000Y-30950000D03*
%TD*%
%TO.P,P,1*%
%TO.N,N/C*%
X36270000Y-33490000D03*
%TD*%
%TO.P,P,1*%
%TO.N,N/C*%
X13410000Y-10630000D03*
%TD*%
%TO.P,P,1*%
%TO.N,VCC*%
X64210000Y-10630000D03*
%TD*%
%TO.P,P,1*%
%TO.N,N/C*%
X38810000Y-41110000D03*
%TD*%
%TO.P,P,1*%
%TO.N,N/C*%
X33730000Y-20790000D03*
%TD*%
%TO.P,P,1*%
%TO.N,N/C*%
X59130000Y-5550000D03*
%TD*%
%TO.P,P,1*%
%TO.N,N/C*%
X28650000Y-51270000D03*
%TD*%
%TO.P,P,1*%
%TO.N,N/C*%
X46430000Y-18250000D03*
%TD*%
%TO.P,P,1*%
%TO.N,N/C*%
X10870000Y-69050000D03*
%TD*%
%TO.P,P,1*%
%TO.N,N/C*%
X54050000Y-25870000D03*
%TD*%
%TO.P,P,1*%
%TO.N,N/C*%
X13410000Y-43650000D03*
%TD*%
%TO.P,P,1*%
%TO.N,N/C*%
X54050000Y-79210000D03*
%TD*%
%TO.P,P,1*%
%TO.N,N/C*%
X51510000Y-71590000D03*
%TD*%
%TO.P,P,1*%
%TO.N,N/C*%
X48970000Y-30950000D03*
%TD*%
%TO.P,P,1*%
%TO.N,N/C*%
X31190000Y-61430000D03*
%TD*%
%TO.P,P,1*%
%TO.N,N/C*%
X23570000Y-5550000D03*
%TD*%
%TO.P,P,1*%
%TO.N,N/C*%
X23570000Y-53810000D03*
%TD*%
%TO.P,P,1*%
%TO.N,N/C*%
X46430000Y-51270000D03*
%TD*%
%TO.P,P,1*%
%TO.N,GND*%
X5790000Y-18250000D03*
%TD*%
%TO.P,P,1*%
%TO.N,N/C*%
X54050000Y-51270000D03*
%TD*%
%TO.P,P,1*%
%TO.N,N/C*%
X15950000Y-79210000D03*
%TD*%
%TO.P,P,1*%
%TO.N,N/C*%
X26110000Y-66510000D03*
%TD*%
%TO.P,P,1*%
%TO.N,N/C*%
X41350000Y-10630000D03*
%TD*%
%TO.P,P,1*%
%TO.N,N/C*%
X28650000Y-25870000D03*
%TD*%
%TO.P,P,1*%
%TO.N,N/C*%
X41350000Y-66510000D03*
%TD*%
%TO.P,P,1*%
%TO.N,N/C*%
X15950000Y-71590000D03*
%TD*%
%TO.P,P,1*%
%TO.N,N/C*%
X59130000Y-71590000D03*
%TD*%
%TO.P,P,1*%
%TO.N,N/C*%
X10870000Y-61430000D03*
%TD*%
%TO.P,P,1*%
%TO.N,N/C*%
X13410000Y-56350000D03*
%TD*%
%TO.P,P,1*%
%TO.N,N/C*%
X13410000Y-66510000D03*
%TD*%
%TO.P,P,1*%
%TO.N,N/C*%
X28650000Y-76670000D03*
%TD*%
%TO.P,REF,1*%
%TO.N,GND*%
X5790000Y-82960000D03*
X5790000Y-85500000D03*
X8330000Y-82960000D03*
X8330000Y-85500000D03*
D11*
X8330000Y-92000000D03*
D10*
X10870000Y-82960000D03*
X10870000Y-85500000D03*
%TD*%
%TO.P,P,1*%
%TO.N,N/C*%
X59130000Y-74130000D03*
%TD*%
%TO.P,P,1*%
%TO.N,N/C*%
X21030000Y-56350000D03*
%TD*%
%TO.P,P,1*%
%TO.N,N/C*%
X51510000Y-79210000D03*
%TD*%
%TO.P,P,1*%
%TO.N,N/C*%
X18490000Y-71590000D03*
%TD*%
%TO.P,P,1*%
%TO.N,N/C*%
X43890000Y-10630000D03*
%TD*%
%TO.P,P,1*%
%TO.N,N/C*%
X48970000Y-66510000D03*
%TD*%
%TO.P,P,1*%
%TO.N,N/C*%
X31190000Y-20790000D03*
%TD*%
%TO.P,P,1*%
%TO.N,N/C*%
X43890000Y-38570000D03*
%TD*%
%TO.P,P,1*%
%TO.N,N/C*%
X46430000Y-5550000D03*
%TD*%
%TO.P,P,1*%
%TO.N,N/C*%
X28650000Y-8090000D03*
%TD*%
%TO.P,P,1*%
%TO.N,VCC*%
X64210000Y-41110000D03*
%TD*%
%TO.P,P,1*%
%TO.N,N/C*%
X46430000Y-13170000D03*
%TD*%
%TO.P,P,1*%
%TO.N,N/C*%
X56590000Y-56350000D03*
%TD*%
%TO.P,P,1*%
%TO.N,N/C*%
X43890000Y-18250000D03*
%TD*%
%TO.P,P,1*%
%TO.N,N/C*%
X18490000Y-5550000D03*
%TD*%
%TO.P,P,1*%
%TO.N,N/C*%
X23570000Y-25870000D03*
%TD*%
%TO.P,P,1*%
%TO.N,N/C*%
X51510000Y-36030000D03*
%TD*%
%TO.P,P,1*%
%TO.N,N/C*%
X41350000Y-18250000D03*
%TD*%
%TO.P,P,1*%
%TO.N,N/C*%
X21030000Y-13170000D03*
%TD*%
%TO.P,P,1*%
%TO.N,N/C*%
X21030000Y-76670000D03*
%TD*%
%TO.P,P,1*%
%TO.N,N/C*%
X46430000Y-8090000D03*
%TD*%
%TO.P,P,1*%
%TO.N,N/C*%
X31190000Y-51270000D03*
%TD*%
%TO.P,P,1*%
%TO.N,N/C*%
X31190000Y-69050000D03*
%TD*%
%TO.P,P,1*%
%TO.N,N/C*%
X18490000Y-8090000D03*
%TD*%
%TO.P,P,1*%
%TO.N,N/C*%
X56590000Y-23330000D03*
%TD*%
%TO.P,P,1*%
%TO.N,N/C*%
X36270000Y-61430000D03*
%TD*%
%TO.P,P,1*%
%TO.N,N/C*%
X48970000Y-8090000D03*
%TD*%
%TO.P,P,1*%
%TO.N,N/C*%
X51510000Y-38570000D03*
%TD*%
%TO.P,P,1*%
%TO.N,N/C*%
X41350000Y-69050000D03*
%TD*%
%TO.P,P,1*%
%TO.N,N/C*%
X31190000Y-53810000D03*
%TD*%
%TO.P,P,1*%
%TO.N,N/C*%
X48970000Y-79210000D03*
%TD*%
%TO.P,P,1*%
%TO.N,N/C*%
X56590000Y-30950000D03*
%TD*%
%TO.P,P,1*%
%TO.N,N/C*%
X36270000Y-23330000D03*
%TD*%
%TO.P,P,1*%
%TO.N,N/C*%
X36270000Y-48730000D03*
%TD*%
%TO.P,P,1*%
%TO.N,VCC*%
X64210000Y-74130000D03*
%TD*%
%TO.P,P,1*%
%TO.N,N/C*%
X13410000Y-38570000D03*
%TD*%
%TO.P,P,1*%
%TO.N,N/C*%
X38810000Y-69050000D03*
%TD*%
%TO.P,P,1*%
%TO.N,GND*%
X64210000Y-69050000D03*
%TD*%
%TO.P,P,1*%
%TO.N,N/C*%
X26110000Y-76670000D03*
%TD*%
%TO.P,P,1*%
%TO.N,N/C*%
X31190000Y-58890000D03*
%TD*%
%TO.P,P,1*%
%TO.N,N/C*%
X10870000Y-43650000D03*
%TD*%
%TO.P,P,1*%
%TO.N,N/C*%
X43890000Y-25870000D03*
%TD*%
%TO.P,P,1*%
%TO.N,N/C*%
X61670000Y-79210000D03*
%TD*%
%TO.P,P,1*%
%TO.N,N/C*%
X26110000Y-71590000D03*
%TD*%
%TO.P,P,1*%
%TO.N,N/C*%
X56590000Y-48730000D03*
%TD*%
%TO.P,P,1*%
%TO.N,N/C*%
X38810000Y-23330000D03*
%TD*%
%TO.P,P,1*%
%TO.N,N/C*%
X28650000Y-15710000D03*
%TD*%
%TO.P,P,1*%
%TO.N,VCC*%
X64210000Y-23330000D03*
%TD*%
%TO.P,P,1*%
%TO.N,N/C*%
X36270000Y-66510000D03*
%TD*%
%TO.P,P,1*%
%TO.N,N/C*%
X54050000Y-38570000D03*
%TD*%
%TO.P,P,1*%
%TO.N,N/C*%
X38810000Y-53810000D03*
%TD*%
%TO.P,P,1*%
%TO.N,GND*%
X64210000Y-36030000D03*
%TD*%
%TO.P,P,1*%
%TO.N,N/C*%
X56590000Y-53810000D03*
%TD*%
%TO.P,P,1*%
%TO.N,N/C*%
X54050000Y-74130000D03*
%TD*%
%TO.P,P,1*%
%TO.N,N/C*%
X8330000Y-30950000D03*
%TD*%
%TO.P,P,1*%
%TO.N,N/C*%
X28650000Y-69050000D03*
%TD*%
%TO.P,P,1*%
%TO.N,N/C*%
X48970000Y-74130000D03*
%TD*%
%TO.P,P,1*%
%TO.N,N/C*%
X46430000Y-79210000D03*
%TD*%
%TO.P,P,1*%
%TO.N,N/C*%
X15950000Y-51270000D03*
%TD*%
%TO.P,P,1*%
%TO.N,N/C*%
X51510000Y-33490000D03*
%TD*%
%TO.P,P,1*%
%TO.N,N/C*%
X43890000Y-74130000D03*
%TD*%
%TO.P,P,1*%
%TO.N,N/C*%
X10870000Y-10630000D03*
%TD*%
%TO.P,P,1*%
%TO.N,N/C*%
X41350000Y-61430000D03*
%TD*%
%TO.P,P,1*%
%TO.N,N/C*%
X31190000Y-63970000D03*
%TD*%
%TO.P,P,1*%
%TO.N,N/C*%
X43890000Y-28410000D03*
%TD*%
%TO.P,P,1*%
%TO.N,N/C*%
X13410000Y-58890000D03*
%TD*%
%TO.P,P,1*%
%TO.N,N/C*%
X54050000Y-53810000D03*
%TD*%
%TO.P,P,1*%
%TO.N,N/C*%
X51510000Y-43650000D03*
%TD*%
%TO.P,P,1*%
%TO.N,N/C*%
X18490000Y-30950000D03*
%TD*%
%TO.P,P,1*%
%TO.N,N/C*%
X26110000Y-69050000D03*
%TD*%
%TO.P,P,1*%
%TO.N,N/C*%
X21030000Y-25870000D03*
%TD*%
%TO.P,P,1*%
%TO.N,N/C*%
X41350000Y-56350000D03*
%TD*%
%TO.P,P,1*%
%TO.N,VCC*%
X5790000Y-51270000D03*
%TD*%
%TO.P,P,1*%
%TO.N,N/C*%
X33730000Y-61430000D03*
%TD*%
%TO.P,P,1*%
%TO.N,N/C*%
X48970000Y-23330000D03*
%TD*%
%TO.P,P,1*%
%TO.N,N/C*%
X56590000Y-10630000D03*
%TD*%
%TO.P,P,1*%
%TO.N,N/C*%
X46430000Y-69050000D03*
%TD*%
%TO.P,P,1*%
%TO.N,N/C*%
X31190000Y-43650000D03*
%TD*%
%TO.P,P,1*%
%TO.N,N/C*%
X21030000Y-63970000D03*
%TD*%
%TO.P,P,1*%
%TO.N,N/C*%
X23570000Y-10630000D03*
%TD*%
%TO.P,P,1*%
%TO.N,N/C*%
X56590000Y-74130000D03*
%TD*%
%TO.P,P,1*%
%TO.N,N/C*%
X54050000Y-8090000D03*
%TD*%
%TO.P,P,1*%
%TO.N,N/C*%
X56590000Y-76670000D03*
%TD*%
%TO.P,P,1*%
%TO.N,N/C*%
X26110000Y-48730000D03*
%TD*%
%TO.P,P,1*%
%TO.N,N/C*%
X56590000Y-63970000D03*
%TD*%
%TO.P,P,1*%
%TO.N,VCC*%
X64210000Y-33490000D03*
%TD*%
%TO.P,P,1*%
%TO.N,VCC*%
X64210000Y-71590000D03*
%TD*%
%TO.P,P,1*%
%TO.N,N/C*%
X38810000Y-79210000D03*
%TD*%
%TO.P,P,1*%
%TO.N,N/C*%
X54050000Y-76670000D03*
%TD*%
%TO.P,P,1*%
%TO.N,N/C*%
X26110000Y-58890000D03*
%TD*%
%TO.P,P,1*%
%TO.N,N/C*%
X33730000Y-51270000D03*
%TD*%
%TO.P,P,1*%
%TO.N,N/C*%
X56590000Y-46190000D03*
%TD*%
%TO.P,P,1*%
%TO.N,N/C*%
X38810000Y-5550000D03*
%TD*%
%TO.P,P,1*%
%TO.N,N/C*%
X36270000Y-51270000D03*
%TD*%
%TO.P,P,1*%
%TO.N,N/C*%
X43890000Y-48730000D03*
%TD*%
%TO.P,P,1*%
%TO.N,N/C*%
X41350000Y-46190000D03*
%TD*%
%TO.P,P,1*%
%TO.N,N/C*%
X41350000Y-23330000D03*
%TD*%
%TO.P,P,1*%
%TO.N,N/C*%
X15950000Y-30950000D03*
%TD*%
%TO.P,P,1*%
%TO.N,N/C*%
X43890000Y-53810000D03*
%TD*%
%TO.P,P,1*%
%TO.N,N/C*%
X59130000Y-41110000D03*
%TD*%
%TO.P,P,1*%
%TO.N,N/C*%
X8330000Y-76670000D03*
%TD*%
%TO.P,P,1*%
%TO.N,N/C*%
X31190000Y-5550000D03*
%TD*%
%TO.P,P,1*%
%TO.N,N/C*%
X26110000Y-25870000D03*
%TD*%
%TO.P,P,1*%
%TO.N,N/C*%
X54050000Y-5550000D03*
%TD*%
%TO.P,P,1*%
%TO.N,N/C*%
X8330000Y-13170000D03*
%TD*%
%TO.P,P,1*%
%TO.N,N/C*%
X36270000Y-46190000D03*
%TD*%
%TO.P,P,1*%
%TO.N,N/C*%
X13410000Y-25870000D03*
%TD*%
%TO.P,P,1*%
%TO.N,VCC*%
X5790000Y-20790000D03*
%TD*%
%TO.P,P,1*%
%TO.N,N/C*%
X46430000Y-74130000D03*
%TD*%
%TO.P,P,1*%
%TO.N,VCC*%
X5790000Y-74130000D03*
%TD*%
%TO.P,P,1*%
%TO.N,N/C*%
X48970000Y-33490000D03*
%TD*%
%TO.P,P,1*%
%TO.N,N/C*%
X13410000Y-46190000D03*
%TD*%
%TO.P,P,1*%
%TO.N,N/C*%
X33730000Y-41110000D03*
%TD*%
%TO.P,P,1*%
%TO.N,N/C*%
X13410000Y-5550000D03*
%TD*%
%TO.P,P,1*%
%TO.N,N/C*%
X10870000Y-18250000D03*
%TD*%
%TO.P,P,1*%
%TO.N,N/C*%
X46430000Y-61430000D03*
%TD*%
%TO.P,P,1*%
%TO.N,N/C*%
X61670000Y-28410000D03*
%TD*%
%TO.P,P,1*%
%TO.N,N/C*%
X48970000Y-48730000D03*
%TD*%
%TO.P,P,1*%
%TO.N,N/C*%
X15950000Y-38570000D03*
%TD*%
%TO.P,P,1*%
%TO.N,N/C*%
X21030000Y-71590000D03*
%TD*%
%TO.P,P,1*%
%TO.N,N/C*%
X46430000Y-28410000D03*
%TD*%
%TO.P,P,1*%
%TO.N,N/C*%
X23570000Y-36030000D03*
%TD*%
%TO.P,P,1*%
%TO.N,N/C*%
X18490000Y-36030000D03*
%TD*%
%TO.P,P,1*%
%TO.N,N/C*%
X48970000Y-46190000D03*
%TD*%
%TO.P,P,1*%
%TO.N,N/C*%
X15950000Y-76670000D03*
%TD*%
%TO.P,P,1*%
%TO.N,N/C*%
X54050000Y-28410000D03*
%TD*%
%TO.P,P,1*%
%TO.N,N/C*%
X21030000Y-58890000D03*
%TD*%
%TO.P,P,1*%
%TO.N,GND*%
X5790000Y-58890000D03*
%TD*%
%TO.P,P,1*%
%TO.N,N/C*%
X15950000Y-48730000D03*
%TD*%
%TO.P,P,1*%
%TO.N,N/C*%
X10870000Y-28410000D03*
%TD*%
%TO.P,P,1*%
%TO.N,N/C*%
X15950000Y-61430000D03*
%TD*%
%TO.P,P,1*%
%TO.N,N/C*%
X61670000Y-20790000D03*
%TD*%
%TO.P,P,1*%
%TO.N,N/C*%
X10870000Y-30950000D03*
%TD*%
%TO.P,P,1*%
%TO.N,N/C*%
X41350000Y-76670000D03*
%TD*%
%TO.P,P,1*%
%TO.N,N/C*%
X31190000Y-23330000D03*
%TD*%
%TO.P,P,1*%
%TO.N,N/C*%
X31190000Y-13170000D03*
%TD*%
%TO.P,P,1*%
%TO.N,N/C*%
X46430000Y-33490000D03*
%TD*%
%TO.P,P,1*%
%TO.N,N/C*%
X21030000Y-36030000D03*
%TD*%
%TO.P,P,1*%
%TO.N,N/C*%
X54050000Y-33490000D03*
%TD*%
%TO.P,P,1*%
%TO.N,N/C*%
X13410000Y-74130000D03*
%TD*%
%TO.P,P,1*%
%TO.N,N/C*%
X56590000Y-58890000D03*
%TD*%
%TO.P,P,1*%
%TO.N,N/C*%
X48970000Y-10630000D03*
%TD*%
%TO.P,P,1*%
%TO.N,N/C*%
X31190000Y-41110000D03*
%TD*%
%TO.P,P,1*%
%TO.N,N/C*%
X8330000Y-28410000D03*
%TD*%
%TO.P,P,1*%
%TO.N,N/C*%
X15950000Y-41110000D03*
%TD*%
%TO.P,P,1*%
%TO.N,N/C*%
X13410000Y-13170000D03*
%TD*%
%TO.P,P,1*%
%TO.N,N/C*%
X28650000Y-5550000D03*
%TD*%
%TO.P,P,1*%
%TO.N,N/C*%
X28650000Y-20790000D03*
%TD*%
%TO.P,P,1*%
%TO.N,N/C*%
X13410000Y-30950000D03*
%TD*%
%TO.P,P,1*%
%TO.N,N/C*%
X43890000Y-66510000D03*
%TD*%
%TO.P,P,1*%
%TO.N,N/C*%
X46430000Y-76670000D03*
%TD*%
%TO.P,P,1*%
%TO.N,N/C*%
X61670000Y-58890000D03*
%TD*%
%TO.P,P,1*%
%TO.N,N/C*%
X59130000Y-15710000D03*
%TD*%
%TO.P,P,1*%
%TO.N,N/C*%
X41350000Y-63970000D03*
%TD*%
%TO.P,P,1*%
%TO.N,N/C*%
X26110000Y-53810000D03*
%TD*%
%TO.P,P,1*%
%TO.N,N/C*%
X38810000Y-25870000D03*
%TD*%
%TO.P,P,1*%
%TO.N,N/C*%
X33730000Y-25870000D03*
%TD*%
%TO.P,P,1*%
%TO.N,N/C*%
X56590000Y-69050000D03*
%TD*%
%TO.P,P,1*%
%TO.N,VCC*%
X64210000Y-51270000D03*
%TD*%
%TO.P,P,1*%
%TO.N,GND*%
X5790000Y-8090000D03*
%TD*%
%TO.P,P,1*%
%TO.N,N/C*%
X38810000Y-56350000D03*
%TD*%
%TO.P,P,1*%
%TO.N,N/C*%
X43890000Y-8090000D03*
%TD*%
%TO.P,P,1*%
%TO.N,N/C*%
X56590000Y-18250000D03*
%TD*%
%TO.P,P,1*%
%TO.N,VCC*%
X64210000Y-13170000D03*
%TD*%
%TO.P,P,1*%
%TO.N,N/C*%
X28650000Y-33490000D03*
%TD*%
%TO.P,P,1*%
%TO.N,N/C*%
X18490000Y-74130000D03*
%TD*%
%TO.P,P,1*%
%TO.N,N/C*%
X61670000Y-5550000D03*
%TD*%
%TO.P,P,1*%
%TO.N,N/C*%
X51510000Y-13170000D03*
%TD*%
%TO.P,P,1*%
%TO.N,N/C*%
X28650000Y-38570000D03*
%TD*%
%TO.P,P,1*%
%TO.N,N/C*%
X46430000Y-46190000D03*
%TD*%
%TO.P,P,1*%
%TO.N,N/C*%
X13410000Y-76670000D03*
%TD*%
%TO.P,P,1*%
%TO.N,N/C*%
X41350000Y-30950000D03*
%TD*%
%TO.P,P,1*%
%TO.N,N/C*%
X54050000Y-61430000D03*
%TD*%
%TO.P,P,1*%
%TO.N,N/C*%
X15950000Y-23330000D03*
%TD*%
%TO.P,P,1*%
%TO.N,N/C*%
X10870000Y-79210000D03*
%TD*%
%TO.P,P,1*%
%TO.N,N/C*%
X46430000Y-71590000D03*
%TD*%
%TO.P,P,1*%
%TO.N,N/C*%
X59130000Y-51270000D03*
%TD*%
%TO.P,P,1*%
%TO.N,N/C*%
X31190000Y-71590000D03*
%TD*%
%TO.P,P,1*%
%TO.N,N/C*%
X23570000Y-43650000D03*
%TD*%
%TO.P,P,1*%
%TO.N,N/C*%
X38810000Y-43650000D03*
%TD*%
%TO.P,P,1*%
%TO.N,N/C*%
X43890000Y-30950000D03*
%TD*%
%TO.P,P,1*%
%TO.N,N/C*%
X48970000Y-51270000D03*
%TD*%
%TO.P,P,1*%
%TO.N,VCC*%
X5790000Y-30950000D03*
%TD*%
%TO.P,P,1*%
%TO.N,N/C*%
X43890000Y-41110000D03*
%TD*%
%TO.P,P,1*%
%TO.N,N/C*%
X51510000Y-51270000D03*
%TD*%
%TO.P,P,1*%
%TO.N,VCC*%
X5790000Y-71590000D03*
%TD*%
%TO.P,P,1*%
%TO.N,N/C*%
X56590000Y-61430000D03*
%TD*%
%TO.P,P,1*%
%TO.N,N/C*%
X13410000Y-61430000D03*
%TD*%
%TO.P,P,1*%
%TO.N,N/C*%
X54050000Y-30950000D03*
%TD*%
%TO.P,P,1*%
%TO.N,N/C*%
X21030000Y-8090000D03*
%TD*%
%TO.P,P,1*%
%TO.N,N/C*%
X18490000Y-10630000D03*
%TD*%
%TO.P,P,1*%
%TO.N,N/C*%
X61670000Y-76670000D03*
%TD*%
%TO.P,P,1*%
%TO.N,N/C*%
X21030000Y-61430000D03*
%TD*%
%TO.P,P,1*%
%TO.N,N/C*%
X21030000Y-53810000D03*
%TD*%
%TO.P,P,1*%
%TO.N,N/C*%
X23570000Y-51270000D03*
%TD*%
%TO.P,P,1*%
%TO.N,N/C*%
X8330000Y-51270000D03*
%TD*%
%TO.P,P,1*%
%TO.N,N/C*%
X21030000Y-79210000D03*
%TD*%
%TO.P,P,1*%
%TO.N,N/C*%
X56590000Y-5550000D03*
%TD*%
%TO.P,P,1*%
%TO.N,N/C*%
X33730000Y-48730000D03*
%TD*%
%TO.P,P,1*%
%TO.N,N/C*%
X51510000Y-23330000D03*
%TD*%
%TO.P,P,1*%
%TO.N,N/C*%
X46430000Y-20790000D03*
%TD*%
%TO.P,P,1*%
%TO.N,N/C*%
X28650000Y-58890000D03*
%TD*%
%TO.P,P,1*%
%TO.N,N/C*%
X56590000Y-66510000D03*
%TD*%
%TO.P,P,1*%
%TO.N,N/C*%
X48970000Y-71590000D03*
%TD*%
%TO.P,P,1*%
%TO.N,N/C*%
X15950000Y-63970000D03*
%TD*%
%TO.P,P,1*%
%TO.N,N/C*%
X21030000Y-69050000D03*
%TD*%
%TO.P,P,1*%
%TO.N,N/C*%
X23570000Y-28410000D03*
%TD*%
%TO.P,P,1*%
%TO.N,N/C*%
X18490000Y-58890000D03*
%TD*%
%TO.P,P,1*%
%TO.N,N/C*%
X8330000Y-63970000D03*
%TD*%
%TO.P,P,1*%
%TO.N,N/C*%
X43890000Y-79210000D03*
%TD*%
%TO.P,P,1*%
%TO.N,N/C*%
X61670000Y-51270000D03*
%TD*%
%TO.P,P,1*%
%TO.N,N/C*%
X51510000Y-63970000D03*
%TD*%
%TO.P,P,1*%
%TO.N,N/C*%
X10870000Y-13170000D03*
%TD*%
%TO.P,P,1*%
%TO.N,N/C*%
X31190000Y-36030000D03*
%TD*%
%TO.P,P,1*%
%TO.N,N/C*%
X23570000Y-76670000D03*
%TD*%
%TO.P,P,1*%
%TO.N,N/C*%
X51510000Y-20790000D03*
%TD*%
%TO.P,P,1*%
%TO.N,N/C*%
X59130000Y-18250000D03*
%TD*%
%TO.P,P,1*%
%TO.N,N/C*%
X36270000Y-58890000D03*
%TD*%
%TO.P,P,1*%
%TO.N,N/C*%
X18490000Y-63970000D03*
%TD*%
%TO.P,P,1*%
%TO.N,N/C*%
X10870000Y-41110000D03*
%TD*%
%TO.P,P,1*%
%TO.N,N/C*%
X33730000Y-79210000D03*
%TD*%
%TO.P,P,1*%
%TO.N,N/C*%
X46430000Y-58890000D03*
%TD*%
%TO.P,P,1*%
%TO.N,N/C*%
X61670000Y-18250000D03*
%TD*%
%TO.P,P,1*%
%TO.N,N/C*%
X41350000Y-28410000D03*
%TD*%
%TO.P,P,1*%
%TO.N,N/C*%
X54050000Y-69050000D03*
%TD*%
%TO.P,P,1*%
%TO.N,N/C*%
X10870000Y-15710000D03*
%TD*%
%TO.P,P,1*%
%TO.N,N/C*%
X26110000Y-15710000D03*
%TD*%
%TO.P,P,1*%
%TO.N,N/C*%
X46430000Y-15710000D03*
%TD*%
%TO.P,P,1*%
%TO.N,GND*%
X64210000Y-8090000D03*
%TD*%
%TO.P,P,1*%
%TO.N,N/C*%
X23570000Y-8090000D03*
%TD*%
%TO.P,P,1*%
%TO.N,N/C*%
X10870000Y-51270000D03*
%TD*%
%TO.P,P,1*%
%TO.N,N/C*%
X15950000Y-74130000D03*
%TD*%
%TO.P,P,1*%
%TO.N,N/C*%
X8330000Y-25870000D03*
%TD*%
%TO.P,P,1*%
%TO.N,N/C*%
X59130000Y-33490000D03*
%TD*%
%TO.P,P,1*%
%TO.N,N/C*%
X13410000Y-36030000D03*
%TD*%
%TO.P,P,1*%
%TO.N,N/C*%
X61670000Y-41110000D03*
%TD*%
%TO.P,P,1*%
%TO.N,N/C*%
X26110000Y-28410000D03*
%TD*%
%TO.P,P,1*%
%TO.N,N/C*%
X59130000Y-53810000D03*
%TD*%
%TO.P,P,1*%
%TO.N,N/C*%
X38810000Y-38570000D03*
%TD*%
%TO.P,P,1*%
%TO.N,N/C*%
X36270000Y-63970000D03*
%TD*%
%TO.P,P,1*%
%TO.N,N/C*%
X51510000Y-76670000D03*
%TD*%
%TO.P,P,1*%
%TO.N,N/C*%
X36270000Y-15710000D03*
%TD*%
%TO.P,P,1*%
%TO.N,N/C*%
X13410000Y-20790000D03*
%TD*%
%TO.P,P,1*%
%TO.N,N/C*%
X36270000Y-5550000D03*
%TD*%
%TO.P,P,1*%
%TO.N,N/C*%
X28650000Y-18250000D03*
%TD*%
%TO.P,P,1*%
%TO.N,N/C*%
X10870000Y-58890000D03*
%TD*%
%TO.P,P,1*%
%TO.N,N/C*%
X21030000Y-33490000D03*
%TD*%
%TO.P,P,1*%
%TO.N,N/C*%
X26110000Y-38570000D03*
%TD*%
%TO.P,P,1*%
%TO.N,N/C*%
X18490000Y-66510000D03*
%TD*%
%TO.P,P,1*%
%TO.N,N/C*%
X61670000Y-69050000D03*
%TD*%
%TO.P,P,1*%
%TO.N,N/C*%
X23570000Y-13170000D03*
%TD*%
%TO.P,P,1*%
%TO.N,N/C*%
X15950000Y-13170000D03*
%TD*%
%TO.P,P,1*%
%TO.N,N/C*%
X48970000Y-53810000D03*
%TD*%
%TO.P,REF,1*%
%TO.N,VCC*%
X59130000Y-82960000D03*
X59130000Y-85500000D03*
X61670000Y-82960000D03*
X61670000Y-85500000D03*
D11*
X61670000Y-92000000D03*
D10*
X64210000Y-82960000D03*
X64210000Y-85500000D03*
%TD*%
%TO.P,P,1*%
%TO.N,N/C*%
X33730000Y-13170000D03*
%TD*%
%TO.P,P,1*%
%TO.N,N/C*%
X43890000Y-46190000D03*
%TD*%
%TO.P,P,1*%
%TO.N,N/C*%
X54050000Y-43650000D03*
%TD*%
%TO.P,P,1*%
%TO.N,N/C*%
X48970000Y-56350000D03*
%TD*%
%TO.P,P,1*%
%TO.N,N/C*%
X8330000Y-66510000D03*
%TD*%
%TO.P,P,1*%
%TO.N,N/C*%
X59130000Y-66510000D03*
%TD*%
%TO.P,P,1*%
%TO.N,N/C*%
X10870000Y-63970000D03*
%TD*%
%TO.P,P,1*%
%TO.N,N/C*%
X18490000Y-41110000D03*
%TD*%
%TO.P,P,1*%
%TO.N,N/C*%
X31190000Y-33490000D03*
%TD*%
%TO.P,P,1*%
%TO.N,N/C*%
X28650000Y-43650000D03*
%TD*%
%TO.P,P,1*%
%TO.N,N/C*%
X56590000Y-71590000D03*
%TD*%
%TO.P,P,1*%
%TO.N,N/C*%
X18490000Y-33490000D03*
%TD*%
%TO.P,P,1*%
%TO.N,GND*%
X64210000Y-5550000D03*
%TD*%
%TO.P,P,1*%
%TO.N,N/C*%
X54050000Y-63970000D03*
%TD*%
%TO.P,P,1*%
%TO.N,VCC*%
X5790000Y-13170000D03*
%TD*%
%TO.P,P,1*%
%TO.N,N/C*%
X54050000Y-41110000D03*
%TD*%
%TO.P,P,1*%
%TO.N,N/C*%
X28650000Y-41110000D03*
%TD*%
%TO.P,P,1*%
%TO.N,N/C*%
X36270000Y-69050000D03*
%TD*%
%TO.P,P,1*%
%TO.N,N/C*%
X26110000Y-43650000D03*
%TD*%
%TO.P,P,1*%
%TO.N,N/C*%
X46430000Y-48730000D03*
%TD*%
%TO.P,P,1*%
%TO.N,VCC*%
X5790000Y-23330000D03*
%TD*%
%TO.P,P,1*%
%TO.N,N/C*%
X48970000Y-13170000D03*
%TD*%
%TO.P,P,1*%
%TO.N,GND*%
X5790000Y-28410000D03*
%TD*%
%TO.P,P,1*%
%TO.N,N/C*%
X36270000Y-8090000D03*
%TD*%
%TO.P,P,1*%
%TO.N,N/C*%
X23570000Y-79210000D03*
%TD*%
%TO.P,P,1*%
%TO.N,N/C*%
X31190000Y-48730000D03*
%TD*%
%TO.P,P,1*%
%TO.N,GND*%
X64210000Y-46190000D03*
%TD*%
%TO.P,P,1*%
%TO.N,N/C*%
X51510000Y-46190000D03*
%TD*%
%TO.P,P,1*%
%TO.N,N/C*%
X23570000Y-20790000D03*
%TD*%
%TO.P,P,1*%
%TO.N,N/C*%
X15950000Y-15710000D03*
%TD*%
%TO.P,P,1*%
%TO.N,N/C*%
X8330000Y-5550000D03*
%TD*%
%TO.P,P,1*%
%TO.N,N/C*%
X18490000Y-43650000D03*
%TD*%
%TO.P,P,1*%
%TO.N,N/C*%
X41350000Y-33490000D03*
%TD*%
%TO.P,P,1*%
%TO.N,N/C*%
X26110000Y-74130000D03*
%TD*%
%TO.P,P,1*%
%TO.N,N/C*%
X26110000Y-51270000D03*
%TD*%
%TO.P,P,1*%
%TO.N,N/C*%
X51510000Y-53810000D03*
%TD*%
%TO.P,P,1*%
%TO.N,N/C*%
X61670000Y-23330000D03*
%TD*%
%TO.P,P,1*%
%TO.N,N/C*%
X8330000Y-18250000D03*
%TD*%
%TO.P,P,1*%
%TO.N,N/C*%
X48970000Y-28410000D03*
%TD*%
%TO.P,P,1*%
%TO.N,N/C*%
X21030000Y-20790000D03*
%TD*%
%TO.P,P,1*%
%TO.N,N/C*%
X36270000Y-20790000D03*
%TD*%
%TO.P,P,1*%
%TO.N,N/C*%
X31190000Y-38570000D03*
%TD*%
%TO.P,P,1*%
%TO.N,N/C*%
X18490000Y-69050000D03*
%TD*%
%TO.P,P,1*%
%TO.N,N/C*%
X41350000Y-48730000D03*
%TD*%
%TO.P,P,1*%
%TO.N,N/C*%
X8330000Y-33490000D03*
%TD*%
%TO.P,P,1*%
%TO.N,N/C*%
X10870000Y-76670000D03*
%TD*%
%TO.P,P,1*%
%TO.N,N/C*%
X26110000Y-63970000D03*
%TD*%
%TO.P,P,1*%
%TO.N,N/C*%
X43890000Y-76670000D03*
%TD*%
%TO.P,P,1*%
%TO.N,N/C*%
X56590000Y-15710000D03*
%TD*%
%TO.P,P,1*%
%TO.N,N/C*%
X18490000Y-13170000D03*
%TD*%
%TO.P,P,1*%
%TO.N,N/C*%
X13410000Y-48730000D03*
%TD*%
%TO.P,P,1*%
%TO.N,N/C*%
X26110000Y-10630000D03*
%TD*%
%TO.P,P,1*%
%TO.N,N/C*%
X38810000Y-76670000D03*
%TD*%
%TO.P,P,1*%
%TO.N,N/C*%
X33730000Y-53810000D03*
%TD*%
%TO.P,P,1*%
%TO.N,N/C*%
X41350000Y-41110000D03*
%TD*%
%TO.P,P,1*%
%TO.N,N/C*%
X10870000Y-36030000D03*
%TD*%
%TO.P,P,1*%
%TO.N,GND*%
X64210000Y-56350000D03*
%TD*%
%TO.P,P,1*%
%TO.N,N/C*%
X8330000Y-43650000D03*
%TD*%
%TO.P,P,1*%
%TO.N,N/C*%
X15950000Y-58890000D03*
%TD*%
%TO.P,P,1*%
%TO.N,N/C*%
X23570000Y-18250000D03*
%TD*%
%TO.P,P,1*%
%TO.N,N/C*%
X54050000Y-58890000D03*
%TD*%
%TO.P,P,1*%
%TO.N,N/C*%
X59130000Y-20790000D03*
%TD*%
%TO.P,P,1*%
%TO.N,N/C*%
X28650000Y-28410000D03*
%TD*%
%TO.P,P,1*%
%TO.N,N/C*%
X18490000Y-46190000D03*
%TD*%
%TO.P,P,1*%
%TO.N,N/C*%
X23570000Y-41110000D03*
%TD*%
%TO.P,P,1*%
%TO.N,N/C*%
X59130000Y-56350000D03*
%TD*%
%TO.P,P,1*%
%TO.N,N/C*%
X26110000Y-18250000D03*
%TD*%
%TO.P,P,1*%
%TO.N,N/C*%
X15950000Y-25870000D03*
%TD*%
%TO.P,P,1*%
%TO.N,N/C*%
X10870000Y-53810000D03*
%TD*%
%TO.P,P,1*%
%TO.N,N/C*%
X33730000Y-5550000D03*
%TD*%
%TO.P,P,1*%
%TO.N,N/C*%
X28650000Y-10630000D03*
%TD*%
%TO.P,P,1*%
%TO.N,N/C*%
X31190000Y-79210000D03*
%TD*%
%TO.P,P,1*%
%TO.N,N/C*%
X51510000Y-66510000D03*
%TD*%
%TO.P,P,1*%
%TO.N,N/C*%
X41350000Y-43650000D03*
%TD*%
%TO.P,P,1*%
%TO.N,N/C*%
X26110000Y-36030000D03*
%TD*%
%TO.P,P,1*%
%TO.N,N/C*%
X36270000Y-38570000D03*
%TD*%
%TO.P,P,1*%
%TO.N,VCC*%
X64210000Y-30950000D03*
%TD*%
%TO.P,P,1*%
%TO.N,N/C*%
X46430000Y-30950000D03*
%TD*%
%TO.P,P,1*%
%TO.N,GND*%
X64210000Y-15710000D03*
%TD*%
%TO.P,P,1*%
%TO.N,N/C*%
X23570000Y-66510000D03*
%TD*%
%TO.P,P,1*%
%TO.N,N/C*%
X41350000Y-38570000D03*
%TD*%
%TO.P,P,1*%
%TO.N,N/C*%
X36270000Y-76670000D03*
%TD*%
%TO.P,P,1*%
%TO.N,N/C*%
X21030000Y-66510000D03*
%TD*%
%TO.P,P,1*%
%TO.N,GND*%
X64210000Y-48730000D03*
%TD*%
%TO.P,P,1*%
%TO.N,N/C*%
X54050000Y-66510000D03*
%TD*%
%TO.P,P,1*%
%TO.N,N/C*%
X10870000Y-56350000D03*
%TD*%
%TO.P,P,1*%
%TO.N,N/C*%
X8330000Y-53810000D03*
%TD*%
D12*
%TO.N,GND*%
X9870000Y-82960000D03*
X9330000Y-82960000D03*
X6790000Y-85500000D03*
D13*
X8330000Y-95800000D03*
X5643000Y-94687000D03*
D12*
X11870000Y-82960000D03*
X7330000Y-82960000D03*
D13*
X11017000Y-94687000D03*
X4530000Y-92000000D03*
X12130000Y-92000000D03*
D12*
X11870000Y-85500000D03*
D13*
X5643000Y-89313000D03*
D12*
X9870000Y-85500000D03*
X4790000Y-85500000D03*
D13*
X11017000Y-89313000D03*
D12*
X4790000Y-82960000D03*
X7330000Y-85500000D03*
D13*
X8330000Y-88200000D03*
D12*
X9330000Y-85500000D03*
X6790000Y-82960000D03*
D13*
%TO.N,VCC*%
X58983000Y-94687000D03*
D12*
X58130000Y-82960000D03*
X60670000Y-82960000D03*
X58130000Y-85500000D03*
D13*
X57870000Y-92000000D03*
D12*
X60130000Y-82960000D03*
D13*
X64357000Y-89313000D03*
D12*
X65210000Y-82960000D03*
X62670000Y-82960000D03*
X65210000Y-85500000D03*
X63210000Y-82960000D03*
X63210000Y-85500000D03*
X60130000Y-85500000D03*
D13*
X65470000Y-92000000D03*
X64357000Y-94687000D03*
X61670000Y-95800000D03*
D12*
X62670000Y-85500000D03*
X60670000Y-85500000D03*
D13*
X58983000Y-89313000D03*
X61670000Y-88200000D03*
%TD*%
D14*
%TO.N,*%
X48970000Y-8090000D02*
X51510000Y-8090000D01*
X59130000Y-13170000D02*
X61670000Y-13170000D01*
X23570000Y-38570000D02*
X26110000Y-38570000D01*
X36270000Y-48730000D02*
X38810000Y-48730000D01*
X51510000Y-15710000D02*
X54050000Y-15710000D01*
X33730000Y-30950000D02*
X36270000Y-30950000D01*
X8330000Y-76670000D02*
X10870000Y-76670000D01*
X56590000Y-56350000D02*
X59130000Y-56350000D01*
X8330000Y-23330000D02*
X10870000Y-23330000D01*
X56590000Y-58890000D02*
X59130000Y-58890000D01*
X23570000Y-20790000D02*
X26110000Y-20790000D01*
X36270000Y-58890000D02*
X38810000Y-58890000D01*
X51510000Y-48730000D02*
X54050000Y-48730000D01*
X8330000Y-20790000D02*
X10870000Y-20790000D01*
X48970000Y-46190000D02*
X51510000Y-46190000D01*
X36270000Y-63970000D02*
X38810000Y-63970000D01*
X36270000Y-25870000D02*
X38810000Y-25870000D01*
X41350000Y-71590000D02*
X43890000Y-71590000D01*
X18490000Y-61430000D02*
X21030000Y-61430000D01*
X10870000Y-66510000D02*
X13410000Y-66510000D01*
X33730000Y-10630000D02*
X36270000Y-10630000D01*
X41350000Y-76670000D02*
X43890000Y-76670000D01*
X23570000Y-63970000D02*
X26110000Y-63970000D01*
X56590000Y-8090000D02*
X59130000Y-8090000D01*
X33730000Y-38570000D02*
X36270000Y-38570000D01*
X33730000Y-13170000D02*
X36270000Y-13170000D01*
X56590000Y-25870000D02*
X59130000Y-25870000D01*
X59130000Y-79210000D02*
X61670000Y-79210000D01*
X26110000Y-13170000D02*
X28650000Y-13170000D01*
X51510000Y-74130000D02*
X54050000Y-74130000D01*
X26110000Y-5550000D02*
X28650000Y-5550000D01*
X15950000Y-46190000D02*
X18490000Y-46190000D01*
X18490000Y-28410000D02*
X21030000Y-28410000D01*
X56590000Y-76670000D02*
X59130000Y-76670000D01*
X48970000Y-18250000D02*
X51510000Y-18250000D01*
X36270000Y-66510000D02*
X38810000Y-66510000D01*
X41350000Y-58890000D02*
X43890000Y-58890000D01*
X18490000Y-46190000D02*
X21030000Y-46190000D01*
X51510000Y-76670000D02*
X54050000Y-76670000D01*
X43890000Y-30950000D02*
X46430000Y-30950000D01*
X48970000Y-23330000D02*
X51510000Y-23330000D01*
X23570000Y-71590000D02*
X26110000Y-71590000D01*
X15950000Y-58890000D02*
X18490000Y-58890000D01*
X56590000Y-61430000D02*
X59130000Y-61430000D01*
X18490000Y-33490000D02*
X21030000Y-33490000D01*
X26110000Y-71590000D02*
X28650000Y-71590000D01*
X43890000Y-13170000D02*
X46430000Y-13170000D01*
X51510000Y-36030000D02*
X54050000Y-36030000D01*
X51510000Y-5550000D02*
X54050000Y-5550000D01*
X15950000Y-8090000D02*
X18490000Y-8090000D01*
X59130000Y-66510000D02*
X61670000Y-66510000D01*
X59130000Y-74130000D02*
X61670000Y-74130000D01*
X10870000Y-23330000D02*
X13410000Y-23330000D01*
X18490000Y-69050000D02*
X21030000Y-69050000D01*
X51510000Y-51270000D02*
X54050000Y-51270000D01*
X10870000Y-30950000D02*
X13410000Y-30950000D01*
X51510000Y-61430000D02*
X54050000Y-61430000D01*
X56590000Y-53810000D02*
X59130000Y-53810000D01*
X48970000Y-36030000D02*
X51510000Y-36030000D01*
X33730000Y-51270000D02*
X36270000Y-51270000D01*
X56590000Y-33490000D02*
X59130000Y-33490000D01*
X36270000Y-56350000D02*
X38810000Y-56350000D01*
X8330000Y-30950000D02*
X10870000Y-30950000D01*
X43890000Y-15710000D02*
X46430000Y-15710000D01*
X18490000Y-10630000D02*
X21030000Y-10630000D01*
X18490000Y-41110000D02*
X21030000Y-41110000D01*
X59130000Y-23330000D02*
X61670000Y-23330000D01*
X51510000Y-43650000D02*
X54050000Y-43650000D01*
X48970000Y-53810000D02*
X51510000Y-53810000D01*
X33730000Y-15710000D02*
X36270000Y-15710000D01*
X48970000Y-33490000D02*
X51510000Y-33490000D01*
X10870000Y-53810000D02*
X13410000Y-53810000D01*
X56590000Y-36030000D02*
X59130000Y-36030000D01*
X26110000Y-61430000D02*
X28650000Y-61430000D01*
X36270000Y-10630000D02*
X38810000Y-10630000D01*
X8330000Y-69050000D02*
X10870000Y-69050000D01*
X10870000Y-74130000D02*
X13410000Y-74130000D01*
X56590000Y-10630000D02*
X59130000Y-10630000D01*
X56590000Y-28410000D02*
X59130000Y-28410000D01*
X15950000Y-36030000D02*
X18490000Y-36030000D01*
X26110000Y-53810000D02*
X28650000Y-53810000D01*
X43890000Y-18250000D02*
X46430000Y-18250000D01*
X48970000Y-66510000D02*
X51510000Y-66510000D01*
X43890000Y-58890000D02*
X46430000Y-58890000D01*
X36270000Y-20790000D02*
X38810000Y-20790000D01*
X48970000Y-20790000D02*
X51510000Y-20790000D01*
X56590000Y-20790000D02*
X59130000Y-20790000D01*
X59130000Y-20790000D02*
X61670000Y-20790000D01*
X43890000Y-23330000D02*
X46430000Y-23330000D01*
X18490000Y-38570000D02*
X21030000Y-38570000D01*
X26110000Y-8090000D02*
X28650000Y-8090000D01*
X43890000Y-69050000D02*
X46430000Y-69050000D01*
X8330000Y-61430000D02*
X10870000Y-61430000D01*
X51510000Y-66510000D02*
X54050000Y-66510000D01*
X51510000Y-71590000D02*
X54050000Y-71590000D01*
X56590000Y-46190000D02*
X59130000Y-46190000D01*
X41350000Y-43650000D02*
X43890000Y-43650000D01*
X18490000Y-23330000D02*
X21030000Y-23330000D01*
X59130000Y-69050000D02*
X61670000Y-69050000D01*
X41350000Y-69050000D02*
X43890000Y-69050000D01*
X15950000Y-76670000D02*
X18490000Y-76670000D01*
X15950000Y-71590000D02*
X18490000Y-71590000D01*
X10870000Y-63970000D02*
X13410000Y-63970000D01*
X18490000Y-63970000D02*
X21030000Y-63970000D01*
X43890000Y-46190000D02*
X46430000Y-46190000D01*
X48970000Y-15710000D02*
X51510000Y-15710000D01*
X36270000Y-28410000D02*
X38810000Y-28410000D01*
X15950000Y-23330000D02*
X18490000Y-23330000D01*
X43890000Y-51270000D02*
X46430000Y-51270000D01*
X26110000Y-25870000D02*
X28650000Y-25870000D01*
X26110000Y-69050000D02*
X28650000Y-69050000D01*
X18490000Y-43650000D02*
X21030000Y-43650000D01*
X15950000Y-13170000D02*
X18490000Y-13170000D01*
X23570000Y-23330000D02*
X26110000Y-23330000D01*
X41350000Y-23330000D02*
X43890000Y-23330000D01*
X26110000Y-74130000D02*
X28650000Y-74130000D01*
X8330000Y-58890000D02*
X10870000Y-58890000D01*
X59130000Y-63970000D02*
X61670000Y-63970000D01*
X15950000Y-33490000D02*
X18490000Y-33490000D01*
X33730000Y-53810000D02*
X36270000Y-53810000D01*
X43890000Y-25870000D02*
X46430000Y-25870000D01*
X36270000Y-30950000D02*
X38810000Y-30950000D01*
X43890000Y-8090000D02*
X46430000Y-8090000D01*
X15950000Y-10630000D02*
X18490000Y-10630000D01*
X41350000Y-30950000D02*
X43890000Y-30950000D01*
X36270000Y-79210000D02*
X38810000Y-79210000D01*
X36270000Y-18250000D02*
X38810000Y-18250000D01*
X43890000Y-20790000D02*
X46430000Y-20790000D01*
X56590000Y-38570000D02*
X59130000Y-38570000D01*
X36270000Y-71590000D02*
X38810000Y-71590000D01*
X59130000Y-51270000D02*
X61670000Y-51270000D01*
X51510000Y-58890000D02*
X54050000Y-58890000D01*
X18490000Y-36030000D02*
X21030000Y-36030000D01*
X59130000Y-58890000D02*
X61670000Y-58890000D01*
X36270000Y-36030000D02*
X38810000Y-36030000D01*
X18490000Y-30950000D02*
X21030000Y-30950000D01*
X51510000Y-69050000D02*
X54050000Y-69050000D01*
X18490000Y-56350000D02*
X21030000Y-56350000D01*
X10870000Y-58890000D02*
X13410000Y-58890000D01*
X59130000Y-56350000D02*
X61670000Y-56350000D01*
X36270000Y-33490000D02*
X38810000Y-33490000D01*
X48970000Y-56350000D02*
X51510000Y-56350000D01*
X8330000Y-46190000D02*
X10870000Y-46190000D01*
X56590000Y-15710000D02*
X59130000Y-15710000D01*
X51510000Y-18250000D02*
X54050000Y-18250000D01*
X41350000Y-51270000D02*
X43890000Y-51270000D01*
X33730000Y-8090000D02*
X36270000Y-8090000D01*
X56590000Y-5550000D02*
X59130000Y-5550000D01*
X36270000Y-53810000D02*
X38810000Y-53810000D01*
X48970000Y-51270000D02*
X51510000Y-51270000D01*
X23570000Y-51270000D02*
X26110000Y-51270000D01*
X33730000Y-69050000D02*
X36270000Y-69050000D01*
X56590000Y-13170000D02*
X59130000Y-13170000D01*
X26110000Y-38570000D02*
X28650000Y-38570000D01*
X23570000Y-69050000D02*
X26110000Y-69050000D01*
X56590000Y-69050000D02*
X59130000Y-69050000D01*
X36270000Y-15710000D02*
X38810000Y-15710000D01*
X10870000Y-61430000D02*
X13410000Y-61430000D01*
X8330000Y-66510000D02*
X10870000Y-66510000D01*
X56590000Y-23330000D02*
X59130000Y-23330000D01*
X10870000Y-51270000D02*
X13410000Y-51270000D01*
X36270000Y-69050000D02*
X38810000Y-69050000D01*
X36270000Y-38570000D02*
X38810000Y-38570000D01*
X51510000Y-28410000D02*
X54050000Y-28410000D01*
X59130000Y-10630000D02*
X61670000Y-10630000D01*
X33730000Y-25870000D02*
X36270000Y-25870000D01*
X15950000Y-66510000D02*
X18490000Y-66510000D01*
X59130000Y-53810000D02*
X61670000Y-53810000D01*
X33730000Y-41110000D02*
X36270000Y-41110000D01*
X10870000Y-43650000D02*
X13410000Y-43650000D01*
X51510000Y-53810000D02*
X54050000Y-53810000D01*
X18490000Y-18250000D02*
X21030000Y-18250000D01*
X43890000Y-10630000D02*
X46430000Y-10630000D01*
X18490000Y-53810000D02*
X21030000Y-53810000D01*
X33730000Y-66510000D02*
X36270000Y-66510000D01*
X33730000Y-71590000D02*
X36270000Y-71590000D01*
X10870000Y-10630000D02*
X13410000Y-10630000D01*
X48970000Y-48730000D02*
X51510000Y-48730000D01*
X43890000Y-79210000D02*
X46430000Y-79210000D01*
X33730000Y-18250000D02*
X36270000Y-18250000D01*
X8330000Y-53810000D02*
X10870000Y-53810000D01*
X18490000Y-8090000D02*
X21030000Y-8090000D01*
X36270000Y-61430000D02*
X38810000Y-61430000D01*
X43890000Y-48730000D02*
X46430000Y-48730000D01*
X23570000Y-30950000D02*
X26110000Y-30950000D01*
X10870000Y-13170000D02*
X13410000Y-13170000D01*
X48970000Y-38570000D02*
X51510000Y-38570000D01*
X41350000Y-61430000D02*
X43890000Y-61430000D01*
X26110000Y-46190000D02*
X28650000Y-46190000D01*
X10870000Y-56350000D02*
X13410000Y-56350000D01*
X18490000Y-51270000D02*
X21030000Y-51270000D01*
X41350000Y-36030000D02*
X43890000Y-36030000D01*
X15950000Y-38570000D02*
X18490000Y-38570000D01*
X15950000Y-63970000D02*
X18490000Y-63970000D01*
X26110000Y-23330000D02*
X28650000Y-23330000D01*
X15950000Y-25870000D02*
X18490000Y-25870000D01*
X8330000Y-25870000D02*
X10870000Y-25870000D01*
X15950000Y-61430000D02*
X18490000Y-61430000D01*
X43890000Y-38570000D02*
X46430000Y-38570000D01*
X23570000Y-41110000D02*
X26110000Y-41110000D01*
X41350000Y-20790000D02*
X43890000Y-20790000D01*
X8330000Y-51270000D02*
X10870000Y-51270000D01*
X10870000Y-8090000D02*
X13410000Y-8090000D01*
X26110000Y-41110000D02*
X28650000Y-41110000D01*
X59130000Y-5550000D02*
X61670000Y-5550000D01*
X41350000Y-56350000D02*
X43890000Y-56350000D01*
X43890000Y-5550000D02*
X46430000Y-5550000D01*
X51510000Y-56350000D02*
X54050000Y-56350000D01*
X59130000Y-38570000D02*
X61670000Y-38570000D01*
X33730000Y-61430000D02*
X36270000Y-61430000D01*
X41350000Y-46190000D02*
X43890000Y-46190000D01*
X33730000Y-36030000D02*
X36270000Y-36030000D01*
X59130000Y-61430000D02*
X61670000Y-61430000D01*
X56590000Y-41110000D02*
X59130000Y-41110000D01*
X18490000Y-76670000D02*
X21030000Y-76670000D01*
X23570000Y-25870000D02*
X26110000Y-25870000D01*
X43890000Y-66510000D02*
X46430000Y-66510000D01*
X15950000Y-30950000D02*
X18490000Y-30950000D01*
X36270000Y-13170000D02*
X38810000Y-13170000D01*
X8330000Y-5550000D02*
X10870000Y-5550000D01*
X26110000Y-63970000D02*
X28650000Y-63970000D01*
X23570000Y-28410000D02*
X26110000Y-28410000D01*
X15950000Y-56350000D02*
X18490000Y-56350000D01*
X8330000Y-18250000D02*
X10870000Y-18250000D01*
X10870000Y-20790000D02*
X13410000Y-20790000D01*
X18490000Y-48730000D02*
X21030000Y-48730000D01*
X56590000Y-30950000D02*
X59130000Y-30950000D01*
X18490000Y-66510000D02*
X21030000Y-66510000D01*
X59130000Y-25870000D02*
X61670000Y-25870000D01*
X41350000Y-10630000D02*
X43890000Y-10630000D01*
X59130000Y-48730000D02*
X61670000Y-48730000D01*
X59130000Y-18250000D02*
X61670000Y-18250000D01*
X43890000Y-63970000D02*
X46430000Y-63970000D01*
X33730000Y-20790000D02*
X36270000Y-20790000D01*
X15950000Y-74130000D02*
X18490000Y-74130000D01*
X8330000Y-71590000D02*
X10870000Y-71590000D01*
X10870000Y-46190000D02*
X13410000Y-46190000D01*
X33730000Y-48730000D02*
X36270000Y-48730000D01*
X41350000Y-66510000D02*
X43890000Y-66510000D01*
X23570000Y-33490000D02*
X26110000Y-33490000D01*
X33730000Y-5550000D02*
X36270000Y-5550000D01*
X43890000Y-53810000D02*
X46430000Y-53810000D01*
X18490000Y-13170000D02*
X21030000Y-13170000D01*
X41350000Y-5550000D02*
X43890000Y-5550000D01*
X23570000Y-58890000D02*
X26110000Y-58890000D01*
X15950000Y-79210000D02*
X18490000Y-79210000D01*
X8330000Y-63970000D02*
X10870000Y-63970000D01*
X10870000Y-5550000D02*
X13410000Y-5550000D01*
X23570000Y-46190000D02*
X26110000Y-46190000D01*
X59130000Y-8090000D02*
X61670000Y-8090000D01*
X10870000Y-41110000D02*
X13410000Y-41110000D01*
X48970000Y-30950000D02*
X51510000Y-30950000D01*
X36270000Y-74130000D02*
X38810000Y-74130000D01*
X10870000Y-25870000D02*
X13410000Y-25870000D01*
X59130000Y-30950000D02*
X61670000Y-30950000D01*
X33730000Y-63970000D02*
X36270000Y-63970000D01*
X41350000Y-15710000D02*
X43890000Y-15710000D01*
X48970000Y-74130000D02*
X51510000Y-74130000D01*
X8330000Y-15710000D02*
X10870000Y-15710000D01*
X59130000Y-33490000D02*
X61670000Y-33490000D01*
X23570000Y-8090000D02*
X26110000Y-8090000D01*
X8330000Y-79210000D02*
X10870000Y-79210000D01*
X48970000Y-63970000D02*
X51510000Y-63970000D01*
X51510000Y-23330000D02*
X54050000Y-23330000D01*
X18490000Y-71590000D02*
X21030000Y-71590000D01*
X48970000Y-76670000D02*
X51510000Y-76670000D01*
X26110000Y-79210000D02*
X28650000Y-79210000D01*
X51510000Y-63970000D02*
X54050000Y-63970000D01*
X15950000Y-41110000D02*
X18490000Y-41110000D01*
X33730000Y-43650000D02*
X36270000Y-43650000D01*
X59130000Y-76670000D02*
X61670000Y-76670000D01*
X26110000Y-18250000D02*
X28650000Y-18250000D01*
X33730000Y-76670000D02*
X36270000Y-76670000D01*
X8330000Y-56350000D02*
X10870000Y-56350000D01*
X10870000Y-28410000D02*
X13410000Y-28410000D01*
X23570000Y-5550000D02*
X26110000Y-5550000D01*
X8330000Y-74130000D02*
X10870000Y-74130000D01*
X18490000Y-25870000D02*
X21030000Y-25870000D01*
X33730000Y-56350000D02*
X36270000Y-56350000D01*
X26110000Y-48730000D02*
X28650000Y-48730000D01*
X51510000Y-10630000D02*
X54050000Y-10630000D01*
X51510000Y-20790000D02*
X54050000Y-20790000D01*
X41350000Y-48730000D02*
X43890000Y-48730000D01*
X59130000Y-71590000D02*
X61670000Y-71590000D01*
X8330000Y-38570000D02*
X10870000Y-38570000D01*
X43890000Y-56350000D02*
X46430000Y-56350000D01*
X8330000Y-8090000D02*
X10870000Y-8090000D01*
X43890000Y-61430000D02*
X46430000Y-61430000D01*
X23570000Y-66510000D02*
X26110000Y-66510000D01*
X43890000Y-28410000D02*
X46430000Y-28410000D01*
X18490000Y-20790000D02*
X21030000Y-20790000D01*
X33730000Y-46190000D02*
X36270000Y-46190000D01*
X59130000Y-43650000D02*
X61670000Y-43650000D01*
X26110000Y-28410000D02*
X28650000Y-28410000D01*
X36270000Y-43650000D02*
X38810000Y-43650000D01*
X15950000Y-15710000D02*
X18490000Y-15710000D01*
X26110000Y-30950000D02*
X28650000Y-30950000D01*
X18490000Y-15710000D02*
X21030000Y-15710000D01*
X26110000Y-58890000D02*
X28650000Y-58890000D01*
X59130000Y-46190000D02*
X61670000Y-46190000D01*
X15950000Y-51270000D02*
X18490000Y-51270000D01*
X43890000Y-41110000D02*
X46430000Y-41110000D01*
X10870000Y-18250000D02*
X13410000Y-18250000D01*
X15950000Y-69050000D02*
X18490000Y-69050000D01*
X33730000Y-58890000D02*
X36270000Y-58890000D01*
X41350000Y-25870000D02*
X43890000Y-25870000D01*
X10870000Y-38570000D02*
X13410000Y-38570000D01*
X56590000Y-48730000D02*
X59130000Y-48730000D01*
X26110000Y-43650000D02*
X28650000Y-43650000D01*
X51510000Y-30950000D02*
X54050000Y-30950000D01*
X33730000Y-33490000D02*
X36270000Y-33490000D01*
X56590000Y-63970000D02*
X59130000Y-63970000D01*
X56590000Y-79210000D02*
X59130000Y-79210000D01*
X18490000Y-74130000D02*
X21030000Y-74130000D01*
X26110000Y-20790000D02*
X28650000Y-20790000D01*
X43890000Y-76670000D02*
X46430000Y-76670000D01*
X51510000Y-33490000D02*
X54050000Y-33490000D01*
X48970000Y-28410000D02*
X51510000Y-28410000D01*
X59130000Y-28410000D02*
X61670000Y-28410000D01*
X36270000Y-51270000D02*
X38810000Y-51270000D01*
X8330000Y-10630000D02*
X10870000Y-10630000D01*
X8330000Y-36030000D02*
X10870000Y-36030000D01*
X48970000Y-25870000D02*
X51510000Y-25870000D01*
X51510000Y-46190000D02*
X54050000Y-46190000D01*
X48970000Y-10630000D02*
X51510000Y-10630000D01*
X48970000Y-41110000D02*
X51510000Y-41110000D01*
X48970000Y-61430000D02*
X51510000Y-61430000D01*
X10870000Y-48730000D02*
X13410000Y-48730000D01*
X23570000Y-74130000D02*
X26110000Y-74130000D01*
X23570000Y-53810000D02*
X26110000Y-53810000D01*
X18490000Y-58890000D02*
X21030000Y-58890000D01*
X8330000Y-43650000D02*
X10870000Y-43650000D01*
X41350000Y-28410000D02*
X43890000Y-28410000D01*
X59130000Y-36030000D02*
X61670000Y-36030000D01*
X43890000Y-33490000D02*
X46430000Y-33490000D01*
X10870000Y-71590000D02*
X13410000Y-71590000D01*
X43890000Y-71590000D02*
X46430000Y-71590000D01*
X33730000Y-74130000D02*
X36270000Y-74130000D01*
X23570000Y-61430000D02*
X26110000Y-61430000D01*
X48970000Y-71590000D02*
X51510000Y-71590000D01*
X41350000Y-18250000D02*
X43890000Y-18250000D01*
X15950000Y-20790000D02*
X18490000Y-20790000D01*
X23570000Y-56350000D02*
X26110000Y-56350000D01*
X41350000Y-33490000D02*
X43890000Y-33490000D01*
X23570000Y-76670000D02*
X26110000Y-76670000D01*
X33730000Y-79210000D02*
X36270000Y-79210000D01*
X15950000Y-43650000D02*
X18490000Y-43650000D01*
X51510000Y-79210000D02*
X54050000Y-79210000D01*
X15950000Y-28410000D02*
X18490000Y-28410000D01*
X51510000Y-8090000D02*
X54050000Y-8090000D01*
X36270000Y-41110000D02*
X38810000Y-41110000D01*
X10870000Y-69050000D02*
X13410000Y-69050000D01*
X23570000Y-43650000D02*
X26110000Y-43650000D01*
X51510000Y-25870000D02*
X54050000Y-25870000D01*
X15950000Y-18250000D02*
X18490000Y-18250000D01*
X43890000Y-36030000D02*
X46430000Y-36030000D01*
X48970000Y-69050000D02*
X51510000Y-69050000D01*
X33730000Y-28410000D02*
X36270000Y-28410000D01*
X15950000Y-53810000D02*
X18490000Y-53810000D01*
X48970000Y-43650000D02*
X51510000Y-43650000D01*
X8330000Y-48730000D02*
X10870000Y-48730000D01*
X26110000Y-36030000D02*
X28650000Y-36030000D01*
X36270000Y-8090000D02*
X38810000Y-8090000D01*
X15950000Y-48730000D02*
X18490000Y-48730000D01*
X59130000Y-15710000D02*
X61670000Y-15710000D01*
X23570000Y-36030000D02*
X26110000Y-36030000D01*
X56590000Y-18250000D02*
X59130000Y-18250000D01*
X43890000Y-43650000D02*
X46430000Y-43650000D01*
X10870000Y-15710000D02*
X13410000Y-15710000D01*
X59130000Y-41110000D02*
X61670000Y-41110000D01*
X51510000Y-38570000D02*
X54050000Y-38570000D01*
X26110000Y-76670000D02*
X28650000Y-76670000D01*
X8330000Y-13170000D02*
X10870000Y-13170000D01*
X41350000Y-38570000D02*
X43890000Y-38570000D01*
X41350000Y-53810000D02*
X43890000Y-53810000D01*
X26110000Y-15710000D02*
X28650000Y-15710000D01*
X56590000Y-43650000D02*
X59130000Y-43650000D01*
X41350000Y-8090000D02*
X43890000Y-8090000D01*
X51510000Y-41110000D02*
X54050000Y-41110000D01*
X15950000Y-5550000D02*
X18490000Y-5550000D01*
X23570000Y-10630000D02*
X26110000Y-10630000D01*
X26110000Y-33490000D02*
X28650000Y-33490000D01*
X10870000Y-33490000D02*
X13410000Y-33490000D01*
X41350000Y-13170000D02*
X43890000Y-13170000D01*
X41350000Y-79210000D02*
X43890000Y-79210000D01*
X8330000Y-33490000D02*
X10870000Y-33490000D01*
X33730000Y-23330000D02*
X36270000Y-23330000D01*
X26110000Y-66510000D02*
X28650000Y-66510000D01*
X41350000Y-74130000D02*
X43890000Y-74130000D01*
X23570000Y-48730000D02*
X26110000Y-48730000D01*
X23570000Y-15710000D02*
X26110000Y-15710000D01*
X51510000Y-13170000D02*
X54050000Y-13170000D01*
X56590000Y-66510000D02*
X59130000Y-66510000D01*
X26110000Y-51270000D02*
X28650000Y-51270000D01*
X10870000Y-76670000D02*
X13410000Y-76670000D01*
X36270000Y-46190000D02*
X38810000Y-46190000D01*
X48970000Y-13170000D02*
X51510000Y-13170000D01*
X41350000Y-63970000D02*
X43890000Y-63970000D01*
X10870000Y-79210000D02*
X13410000Y-79210000D01*
X23570000Y-13170000D02*
X26110000Y-13170000D01*
X56590000Y-51270000D02*
X59130000Y-51270000D01*
X48970000Y-79210000D02*
X51510000Y-79210000D01*
X26110000Y-10630000D02*
X28650000Y-10630000D01*
X48970000Y-58890000D02*
X51510000Y-58890000D01*
X36270000Y-23330000D02*
X38810000Y-23330000D01*
X48970000Y-5550000D02*
X51510000Y-5550000D01*
X8330000Y-41110000D02*
X10870000Y-41110000D01*
X18490000Y-79210000D02*
X21030000Y-79210000D01*
X56590000Y-74130000D02*
X59130000Y-74130000D01*
X56590000Y-71590000D02*
X59130000Y-71590000D01*
X18490000Y-5550000D02*
X21030000Y-5550000D01*
X36270000Y-5550000D02*
X38810000Y-5550000D01*
X23570000Y-18250000D02*
X26110000Y-18250000D01*
X26110000Y-56350000D02*
X28650000Y-56350000D01*
X10870000Y-36030000D02*
X13410000Y-36030000D01*
X8330000Y-28410000D02*
X10870000Y-28410000D01*
X41350000Y-41110000D02*
X43890000Y-41110000D01*
X36270000Y-76670000D02*
X38810000Y-76670000D01*
X43890000Y-74130000D02*
X46430000Y-74130000D01*
X23570000Y-79210000D02*
X26110000Y-79210000D01*
D15*
%TO.N,GND*%
X8330000Y-92000000D02*
X11017000Y-89313000D01*
X10870000Y-82960000D02*
X11870000Y-82960000D01*
X8330000Y-92000000D02*
X4530000Y-92000000D01*
X8330000Y-92000000D02*
X11017000Y-94687000D01*
D16*
X8330000Y-85500000D02*
X8330000Y-92000000D01*
D17*
X8330000Y-82960000D02*
X8330000Y-85500000D01*
D15*
X5790000Y-82960000D02*
X4790000Y-82960000D01*
D17*
X5790000Y-85500000D02*
X8330000Y-85500000D01*
D15*
X8330000Y-92000000D02*
X5643000Y-89313000D01*
X8330000Y-92000000D02*
X12130000Y-92000000D01*
X5790000Y-85500000D02*
X6790000Y-85500000D01*
X5790000Y-82960000D02*
X6790000Y-82960000D01*
X8330000Y-92000000D02*
X8330000Y-88200000D01*
D17*
X5790000Y-82960000D02*
X8330000Y-82960000D01*
X8330000Y-82960000D02*
X10870000Y-82960000D01*
X8330000Y-85500000D02*
X10870000Y-85500000D01*
D15*
X8330000Y-92000000D02*
X5643000Y-94687000D01*
D17*
X10870000Y-82960000D02*
X10870000Y-85500000D01*
X5790000Y-82960000D02*
X5790000Y-85500000D01*
D15*
X5790000Y-85500000D02*
X4790000Y-85500000D01*
X8330000Y-92000000D02*
X8330000Y-95800000D01*
X10870000Y-85500000D02*
X11870000Y-85500000D01*
X8330000Y-85500000D02*
X7330000Y-85500000D01*
X10870000Y-82960000D02*
X9870000Y-82960000D01*
X10870000Y-85500000D02*
X9870000Y-85500000D01*
X8330000Y-82960000D02*
X7330000Y-82960000D01*
X8330000Y-82960000D02*
X9330000Y-82960000D01*
X8330000Y-85500000D02*
X9330000Y-85500000D01*
D17*
%TO.N,VCC*%
X61670000Y-82960000D02*
X64210000Y-82960000D01*
D15*
X61670000Y-92000000D02*
X64357000Y-89313000D01*
D17*
X64210000Y-82960000D02*
X64210000Y-85500000D01*
D15*
X64210000Y-85500000D02*
X63210000Y-85500000D01*
X59130000Y-85500000D02*
X58130000Y-85500000D01*
X61670000Y-92000000D02*
X65470000Y-92000000D01*
X59130000Y-82960000D02*
X58130000Y-82960000D01*
D17*
X64710000Y-82960000D02*
X61670000Y-82960000D01*
D15*
X61670000Y-92000000D02*
X58983000Y-94687000D01*
D17*
X5790000Y-30950000D02*
X5790000Y-33490000D01*
D15*
X64210000Y-82960000D02*
X63210000Y-82960000D01*
X61670000Y-85500000D02*
X60670000Y-85500000D01*
D17*
X59130000Y-85500000D02*
X61670000Y-85500000D01*
D15*
X61670000Y-92000000D02*
X64357000Y-94687000D01*
X61670000Y-82960000D02*
X60670000Y-82960000D01*
D17*
X59130000Y-82960000D02*
X61670000Y-82960000D01*
X64210000Y-10630000D02*
X64210000Y-13170000D01*
D15*
X59130000Y-82960000D02*
X60130000Y-82960000D01*
D17*
X5790000Y-41110000D02*
X5790000Y-43650000D01*
X64210000Y-61430000D02*
X64210000Y-63970000D01*
X59130000Y-82960000D02*
X59130000Y-85500000D01*
D15*
X61670000Y-92000000D02*
X58983000Y-89313000D01*
X61670000Y-92000000D02*
X61670000Y-95800000D01*
X64210000Y-82960000D02*
X65210000Y-82960000D01*
D17*
X64210000Y-30950000D02*
X64210000Y-33490000D01*
D15*
X61670000Y-92000000D02*
X61670000Y-88200000D01*
D17*
X64210000Y-41110000D02*
X64210000Y-43650000D01*
D15*
X64210000Y-85500000D02*
X65210000Y-85500000D01*
D17*
X5790000Y-51270000D02*
X5790000Y-53810000D01*
X61670000Y-82960000D02*
X61670000Y-85500000D01*
D15*
X61670000Y-85500000D02*
X62670000Y-85500000D01*
D17*
X61670000Y-85500000D02*
X64210000Y-85500000D01*
X64210000Y-51270000D02*
X64210000Y-53810000D01*
D16*
X61670000Y-85500000D02*
X61670000Y-92000000D01*
D17*
X5790000Y-20790000D02*
X5790000Y-23330000D01*
X5790000Y-61430000D02*
X5790000Y-63970000D01*
X64210000Y-20790000D02*
X64210000Y-23330000D01*
D15*
X61670000Y-92000000D02*
X57870000Y-92000000D01*
X59130000Y-85500000D02*
X60130000Y-85500000D01*
X61670000Y-82960000D02*
X62670000Y-82960000D01*
D17*
X5790000Y-10630000D02*
X5790000Y-13170000D01*
X64210000Y-71590000D02*
X64210000Y-74130000D01*
X5790000Y-71590000D02*
X5790000Y-74130000D01*
%TD*%
%TA.AperFunction,Conductor*%
%TO.N,VCC*%
G36*
X5160801Y-80236760D02*
G01*
X5329168Y-80322547D01*
X5508882Y-80380940D01*
X5508883Y-80380940D01*
X5508886Y-80380941D01*
X5695516Y-80410500D01*
X5695519Y-80410500D01*
X5884484Y-80410500D01*
X6071113Y-80380941D01*
X6071114Y-80380940D01*
X6071118Y-80380940D01*
X6250832Y-80322547D01*
X6419199Y-80236760D01*
X6423728Y-80233469D01*
X6430007Y-80228908D01*
X6488198Y-80210000D01*
X7631802Y-80210000D01*
X7689991Y-80228906D01*
X7689993Y-80228907D01*
X7689993Y-80228908D01*
X7700795Y-80236756D01*
X7700801Y-80236760D01*
X7869168Y-80322547D01*
X8048882Y-80380940D01*
X8048883Y-80380940D01*
X8048886Y-80380941D01*
X8235516Y-80410500D01*
X8235519Y-80410500D01*
X8424484Y-80410500D01*
X8611113Y-80380941D01*
X8611114Y-80380940D01*
X8611118Y-80380940D01*
X8790832Y-80322547D01*
X8959199Y-80236760D01*
X8963728Y-80233469D01*
X8970007Y-80228908D01*
X9028198Y-80210000D01*
X10171802Y-80210000D01*
X10229991Y-80228906D01*
X10229993Y-80228907D01*
X10229993Y-80228908D01*
X10240795Y-80236756D01*
X10240801Y-80236760D01*
X10409168Y-80322547D01*
X10588882Y-80380940D01*
X10588883Y-80380940D01*
X10588886Y-80380941D01*
X10775516Y-80410500D01*
X10775519Y-80410500D01*
X10964484Y-80410500D01*
X11151113Y-80380941D01*
X11151114Y-80380940D01*
X11151118Y-80380940D01*
X11330832Y-80322547D01*
X11499199Y-80236760D01*
X11503728Y-80233469D01*
X11510007Y-80228908D01*
X11568198Y-80210000D01*
X12711802Y-80210000D01*
X12769991Y-80228906D01*
X12769993Y-80228907D01*
X12769993Y-80228908D01*
X12780795Y-80236756D01*
X12780801Y-80236760D01*
X12949168Y-80322547D01*
X13128882Y-80380940D01*
X13128883Y-80380940D01*
X13128886Y-80380941D01*
X13315516Y-80410500D01*
X13315519Y-80410500D01*
X13504484Y-80410500D01*
X13691113Y-80380941D01*
X13691114Y-80380940D01*
X13691118Y-80380940D01*
X13870832Y-80322547D01*
X14039199Y-80236760D01*
X14043728Y-80233469D01*
X14050007Y-80228908D01*
X14108198Y-80210000D01*
X15251802Y-80210000D01*
X15309991Y-80228906D01*
X15309993Y-80228907D01*
X15309993Y-80228908D01*
X15320795Y-80236756D01*
X15320801Y-80236760D01*
X15489168Y-80322547D01*
X15668882Y-80380940D01*
X15668883Y-80380940D01*
X15668886Y-80380941D01*
X15855516Y-80410500D01*
X15855519Y-80410500D01*
X16044484Y-80410500D01*
X16231113Y-80380941D01*
X16231114Y-80380940D01*
X16231118Y-80380940D01*
X16410832Y-80322547D01*
X16579199Y-80236760D01*
X16583728Y-80233469D01*
X16590007Y-80228908D01*
X16648198Y-80210000D01*
X17791802Y-80210000D01*
X17849991Y-80228906D01*
X17849993Y-80228907D01*
X17849993Y-80228908D01*
X17860795Y-80236756D01*
X17860801Y-80236760D01*
X18029168Y-80322547D01*
X18208882Y-80380940D01*
X18208883Y-80380940D01*
X18208886Y-80380941D01*
X18395516Y-80410500D01*
X18395519Y-80410500D01*
X18584484Y-80410500D01*
X18771113Y-80380941D01*
X18771114Y-80380940D01*
X18771118Y-80380940D01*
X18950832Y-80322547D01*
X19119199Y-80236760D01*
X19123728Y-80233469D01*
X19130007Y-80228908D01*
X19188198Y-80210000D01*
X20331802Y-80210000D01*
X20389991Y-80228906D01*
X20389993Y-80228907D01*
X20389993Y-80228908D01*
X20400795Y-80236756D01*
X20400801Y-80236760D01*
X20569168Y-80322547D01*
X20748882Y-80380940D01*
X20748883Y-80380940D01*
X20748886Y-80380941D01*
X20935516Y-80410500D01*
X20935519Y-80410500D01*
X21124484Y-80410500D01*
X21311113Y-80380941D01*
X21311114Y-80380940D01*
X21311118Y-80380940D01*
X21490832Y-80322547D01*
X21659199Y-80236760D01*
X21663728Y-80233469D01*
X21670007Y-80228908D01*
X21728198Y-80210000D01*
X22871802Y-80210000D01*
X22929991Y-80228906D01*
X22929993Y-80228907D01*
X22929993Y-80228908D01*
X22940795Y-80236756D01*
X22940801Y-80236760D01*
X23109168Y-80322547D01*
X23288882Y-80380940D01*
X23288883Y-80380940D01*
X23288886Y-80380941D01*
X23475516Y-80410500D01*
X23475519Y-80410500D01*
X23664484Y-80410500D01*
X23851113Y-80380941D01*
X23851114Y-80380940D01*
X23851118Y-80380940D01*
X24030832Y-80322547D01*
X24199199Y-80236760D01*
X24203728Y-80233469D01*
X24210007Y-80228908D01*
X24268198Y-80210000D01*
X25411802Y-80210000D01*
X25469991Y-80228906D01*
X25469993Y-80228907D01*
X25469993Y-80228908D01*
X25480795Y-80236756D01*
X25480801Y-80236760D01*
X25649168Y-80322547D01*
X25828882Y-80380940D01*
X25828883Y-80380940D01*
X25828886Y-80380941D01*
X26015516Y-80410500D01*
X26015519Y-80410500D01*
X26204484Y-80410500D01*
X26391113Y-80380941D01*
X26391114Y-80380940D01*
X26391118Y-80380940D01*
X26570832Y-80322547D01*
X26739199Y-80236760D01*
X26743728Y-80233469D01*
X26750007Y-80228908D01*
X26808198Y-80210000D01*
X27951802Y-80210000D01*
X28009991Y-80228906D01*
X28009993Y-80228907D01*
X28009993Y-80228908D01*
X28020795Y-80236756D01*
X28020801Y-80236760D01*
X28189168Y-80322547D01*
X28368882Y-80380940D01*
X28368883Y-80380940D01*
X28368886Y-80380941D01*
X28555516Y-80410500D01*
X28555519Y-80410500D01*
X28744484Y-80410500D01*
X28931113Y-80380941D01*
X28931114Y-80380940D01*
X28931118Y-80380940D01*
X29110832Y-80322547D01*
X29279199Y-80236760D01*
X29283728Y-80233469D01*
X29290007Y-80228908D01*
X29348198Y-80210000D01*
X30491802Y-80210000D01*
X30549991Y-80228906D01*
X30549993Y-80228907D01*
X30549993Y-80228908D01*
X30560795Y-80236756D01*
X30560801Y-80236760D01*
X30729168Y-80322547D01*
X30908882Y-80380940D01*
X30908883Y-80380940D01*
X30908886Y-80380941D01*
X31095516Y-80410500D01*
X31095519Y-80410500D01*
X31284484Y-80410500D01*
X31471113Y-80380941D01*
X31471114Y-80380940D01*
X31471118Y-80380940D01*
X31650832Y-80322547D01*
X31819199Y-80236760D01*
X31823728Y-80233469D01*
X31830007Y-80228908D01*
X31888198Y-80210000D01*
X33031802Y-80210000D01*
X33089991Y-80228906D01*
X33089993Y-80228907D01*
X33089993Y-80228908D01*
X33100795Y-80236756D01*
X33100801Y-80236760D01*
X33269168Y-80322547D01*
X33448882Y-80380940D01*
X33448883Y-80380940D01*
X33448886Y-80380941D01*
X33635516Y-80410500D01*
X33635519Y-80410500D01*
X33824484Y-80410500D01*
X34011113Y-80380941D01*
X34011114Y-80380940D01*
X34011118Y-80380940D01*
X34190832Y-80322547D01*
X34359199Y-80236760D01*
X34363728Y-80233469D01*
X34370007Y-80228908D01*
X34428198Y-80210000D01*
X35571802Y-80210000D01*
X35629991Y-80228906D01*
X35629993Y-80228907D01*
X35629993Y-80228908D01*
X35640795Y-80236756D01*
X35640801Y-80236760D01*
X35809168Y-80322547D01*
X35988882Y-80380940D01*
X35988883Y-80380940D01*
X35988886Y-80380941D01*
X36175516Y-80410500D01*
X36175519Y-80410500D01*
X36364484Y-80410500D01*
X36551113Y-80380941D01*
X36551114Y-80380940D01*
X36551118Y-80380940D01*
X36730832Y-80322547D01*
X36899199Y-80236760D01*
X36903728Y-80233469D01*
X36910007Y-80228908D01*
X36968198Y-80210000D01*
X38111802Y-80210000D01*
X38169991Y-80228906D01*
X38169993Y-80228907D01*
X38169993Y-80228908D01*
X38180795Y-80236756D01*
X38180801Y-80236760D01*
X38349168Y-80322547D01*
X38528882Y-80380940D01*
X38528883Y-80380940D01*
X38528886Y-80380941D01*
X38715516Y-80410500D01*
X38715519Y-80410500D01*
X38904484Y-80410500D01*
X39091113Y-80380941D01*
X39091114Y-80380940D01*
X39091118Y-80380940D01*
X39270832Y-80322547D01*
X39439199Y-80236760D01*
X39443728Y-80233469D01*
X39450007Y-80228908D01*
X39508198Y-80210000D01*
X40651802Y-80210000D01*
X40709991Y-80228906D01*
X40709993Y-80228907D01*
X40709993Y-80228908D01*
X40720795Y-80236756D01*
X40720801Y-80236760D01*
X40889168Y-80322547D01*
X41068882Y-80380940D01*
X41068883Y-80380940D01*
X41068886Y-80380941D01*
X41255516Y-80410500D01*
X41255519Y-80410500D01*
X41444484Y-80410500D01*
X41631113Y-80380941D01*
X41631114Y-80380940D01*
X41631118Y-80380940D01*
X41810832Y-80322547D01*
X41979199Y-80236760D01*
X41983728Y-80233469D01*
X41990007Y-80228908D01*
X42048198Y-80210000D01*
X43191802Y-80210000D01*
X43249991Y-80228906D01*
X43249993Y-80228907D01*
X43249993Y-80228908D01*
X43260795Y-80236756D01*
X43260801Y-80236760D01*
X43429168Y-80322547D01*
X43608882Y-80380940D01*
X43608883Y-80380940D01*
X43608886Y-80380941D01*
X43795516Y-80410500D01*
X43795519Y-80410500D01*
X43984484Y-80410500D01*
X44171113Y-80380941D01*
X44171114Y-80380940D01*
X44171118Y-80380940D01*
X44350832Y-80322547D01*
X44519199Y-80236760D01*
X44523728Y-80233469D01*
X44530007Y-80228908D01*
X44588198Y-80210000D01*
X45731802Y-80210000D01*
X45789991Y-80228906D01*
X45789993Y-80228907D01*
X45789993Y-80228908D01*
X45800795Y-80236756D01*
X45800801Y-80236760D01*
X45969168Y-80322547D01*
X46148882Y-80380940D01*
X46148883Y-80380940D01*
X46148886Y-80380941D01*
X46335516Y-80410500D01*
X46335519Y-80410500D01*
X46524484Y-80410500D01*
X46711113Y-80380941D01*
X46711114Y-80380940D01*
X46711118Y-80380940D01*
X46890832Y-80322547D01*
X47059199Y-80236760D01*
X47063728Y-80233469D01*
X47070007Y-80228908D01*
X47128198Y-80210000D01*
X48271802Y-80210000D01*
X48329991Y-80228906D01*
X48329993Y-80228907D01*
X48329993Y-80228908D01*
X48340795Y-80236756D01*
X48340801Y-80236760D01*
X48509168Y-80322547D01*
X48688882Y-80380940D01*
X48688883Y-80380940D01*
X48688886Y-80380941D01*
X48875516Y-80410500D01*
X48875519Y-80410500D01*
X49064484Y-80410500D01*
X49251113Y-80380941D01*
X49251114Y-80380940D01*
X49251118Y-80380940D01*
X49430832Y-80322547D01*
X49599199Y-80236760D01*
X49603728Y-80233469D01*
X49610007Y-80228908D01*
X49668198Y-80210000D01*
X50811802Y-80210000D01*
X50869991Y-80228906D01*
X50869993Y-80228907D01*
X50869993Y-80228908D01*
X50880795Y-80236756D01*
X50880801Y-80236760D01*
X51049168Y-80322547D01*
X51228882Y-80380940D01*
X51228883Y-80380940D01*
X51228886Y-80380941D01*
X51415516Y-80410500D01*
X51415519Y-80410500D01*
X51604484Y-80410500D01*
X51791113Y-80380941D01*
X51791114Y-80380940D01*
X51791118Y-80380940D01*
X51970832Y-80322547D01*
X52139199Y-80236760D01*
X52143728Y-80233469D01*
X52150007Y-80228908D01*
X52208198Y-80210000D01*
X53351802Y-80210000D01*
X53409991Y-80228906D01*
X53409993Y-80228907D01*
X53409993Y-80228908D01*
X53420795Y-80236756D01*
X53420801Y-80236760D01*
X53589168Y-80322547D01*
X53768882Y-80380940D01*
X53768883Y-80380940D01*
X53768886Y-80380941D01*
X53955516Y-80410500D01*
X53955519Y-80410500D01*
X54144484Y-80410500D01*
X54331113Y-80380941D01*
X54331114Y-80380940D01*
X54331118Y-80380940D01*
X54510832Y-80322547D01*
X54679199Y-80236760D01*
X54683728Y-80233469D01*
X54690007Y-80228908D01*
X54748198Y-80210000D01*
X55891802Y-80210000D01*
X55949991Y-80228906D01*
X55949993Y-80228907D01*
X55949993Y-80228908D01*
X55960795Y-80236756D01*
X55960801Y-80236760D01*
X56129168Y-80322547D01*
X56308882Y-80380940D01*
X56308883Y-80380940D01*
X56308886Y-80380941D01*
X56495516Y-80410500D01*
X56495519Y-80410500D01*
X56684484Y-80410500D01*
X56871113Y-80380941D01*
X56871114Y-80380940D01*
X56871118Y-80380940D01*
X57050832Y-80322547D01*
X57219199Y-80236760D01*
X57223728Y-80233469D01*
X57230007Y-80228908D01*
X57288198Y-80210000D01*
X58431802Y-80210000D01*
X58489991Y-80228906D01*
X58489993Y-80228907D01*
X58489993Y-80228908D01*
X58500795Y-80236756D01*
X58500801Y-80236760D01*
X58669168Y-80322547D01*
X58848882Y-80380940D01*
X58848883Y-80380940D01*
X58848886Y-80380941D01*
X59035516Y-80410500D01*
X59035519Y-80410500D01*
X59224484Y-80410500D01*
X59411113Y-80380941D01*
X59411114Y-80380940D01*
X59411118Y-80380940D01*
X59590832Y-80322547D01*
X59759199Y-80236760D01*
X59763728Y-80233469D01*
X59770007Y-80228908D01*
X59828198Y-80210000D01*
X60971802Y-80210000D01*
X61029991Y-80228906D01*
X61029993Y-80228907D01*
X61029993Y-80228908D01*
X61040795Y-80236756D01*
X61040801Y-80236760D01*
X61209168Y-80322547D01*
X61388882Y-80380940D01*
X61388883Y-80380940D01*
X61388886Y-80380941D01*
X61575516Y-80410500D01*
X61575519Y-80410500D01*
X61764484Y-80410500D01*
X61951113Y-80380941D01*
X61951114Y-80380940D01*
X61951118Y-80380940D01*
X62130832Y-80322547D01*
X62299199Y-80236760D01*
X62303728Y-80233469D01*
X62310007Y-80228908D01*
X62368198Y-80210000D01*
X63511802Y-80210000D01*
X63569991Y-80228906D01*
X63569993Y-80228907D01*
X63569993Y-80228908D01*
X63580795Y-80236756D01*
X63580801Y-80236760D01*
X63749168Y-80322547D01*
X63928882Y-80380940D01*
X63928883Y-80380940D01*
X63928886Y-80380941D01*
X64115516Y-80410500D01*
X64115519Y-80410500D01*
X64304484Y-80410500D01*
X64491113Y-80380941D01*
X64491114Y-80380940D01*
X64491118Y-80380940D01*
X64670832Y-80322547D01*
X64839199Y-80236760D01*
X64876031Y-80210000D01*
X65625000Y-80210000D01*
X65795700Y-80226800D01*
X65959800Y-80276600D01*
X66111100Y-80357500D01*
X66243700Y-80466300D01*
X66352500Y-80598900D01*
X66433400Y-80750200D01*
X66483200Y-80914300D01*
X66500000Y-81085000D01*
X66483200Y-81255700D01*
X66433400Y-81419800D01*
X66352500Y-81571100D01*
X66243700Y-81703700D01*
X66111100Y-81812500D01*
X65959800Y-81893400D01*
X65795700Y-81943200D01*
X65625000Y-81960000D01*
X11568198Y-81960000D01*
X11510008Y-81941093D01*
X11510007Y-81941092D01*
X11499204Y-81933243D01*
X11499198Y-81933239D01*
X11330832Y-81847453D01*
X11151113Y-81789058D01*
X10964484Y-81759500D01*
X10964481Y-81759500D01*
X10775519Y-81759500D01*
X10775516Y-81759500D01*
X10588886Y-81789058D01*
X10409167Y-81847453D01*
X10308571Y-81898710D01*
X10263626Y-81909500D01*
X8936374Y-81909500D01*
X8891429Y-81898710D01*
X8790832Y-81847453D01*
X8611113Y-81789058D01*
X8424484Y-81759500D01*
X8424481Y-81759500D01*
X8235519Y-81759500D01*
X8235516Y-81759500D01*
X8048886Y-81789058D01*
X7869167Y-81847453D01*
X7768571Y-81898710D01*
X7723626Y-81909500D01*
X6396374Y-81909500D01*
X6351429Y-81898710D01*
X6250832Y-81847453D01*
X6071113Y-81789058D01*
X5884484Y-81759500D01*
X5884481Y-81759500D01*
X5695519Y-81759500D01*
X5695516Y-81759500D01*
X5508886Y-81789058D01*
X5329167Y-81847453D01*
X5160803Y-81933238D01*
X5123969Y-81960000D01*
X4375000Y-81960000D01*
X4204300Y-81943200D01*
X4040200Y-81893400D01*
X3888900Y-81812500D01*
X3756300Y-81703700D01*
X3647500Y-81571100D01*
X3566600Y-81419800D01*
X3516800Y-81255700D01*
X3500000Y-81085000D01*
X3516800Y-80914300D01*
X3566600Y-80750200D01*
X3647500Y-80598900D01*
X3756300Y-80466300D01*
X3888900Y-80357500D01*
X4040200Y-80276600D01*
X4204300Y-80226800D01*
X4375000Y-80210000D01*
X5123969Y-80210000D01*
X5160801Y-80236760D01*
G37*
%TD.AperFunction*%
%TD*%
%TA.AperFunction,Conductor*%
%TO.N,VCC*%
G36*
X64504836Y-2500475D02*
G01*
X64880502Y-2537445D01*
X64899525Y-2541228D01*
X65256058Y-2649366D01*
X65274004Y-2656801D01*
X65538418Y-2798225D01*
X65602518Y-2832510D01*
X65618624Y-2843274D01*
X65906654Y-3079609D01*
X65920390Y-3093345D01*
X66057574Y-3260535D01*
X66156729Y-3381379D01*
X66167489Y-3397480D01*
X66223572Y-3502337D01*
X66347800Y-3734600D01*
X66461600Y-4109800D01*
X66500000Y-4500000D01*
X66461600Y-4890200D01*
X66347800Y-5265400D01*
X66162900Y-5611100D01*
X65914200Y-5914200D01*
X65611100Y-6162900D01*
X65265400Y-6347800D01*
X65042294Y-6415468D01*
X65125690Y-6332073D01*
X65236760Y-6179199D01*
X65322547Y-6010832D01*
X65380940Y-5831118D01*
X65380941Y-5831113D01*
X65410500Y-5644484D01*
X65410500Y-5455515D01*
X65380941Y-5268886D01*
X65380940Y-5268882D01*
X65322547Y-5089168D01*
X65236760Y-4920801D01*
X65125690Y-4767927D01*
X64992073Y-4634310D01*
X64839199Y-4523240D01*
X64839198Y-4523239D01*
X64839196Y-4523238D01*
X64670832Y-4437453D01*
X64491113Y-4379058D01*
X64304484Y-4349500D01*
X64304481Y-4349500D01*
X64115519Y-4349500D01*
X64115516Y-4349500D01*
X63928886Y-4379058D01*
X63749167Y-4437453D01*
X63580803Y-4523238D01*
X63427928Y-4634309D01*
X63294309Y-4767928D01*
X63183238Y-4920803D01*
X63097453Y-5089167D01*
X63039058Y-5268886D01*
X63037781Y-5276954D01*
X63010004Y-5331471D01*
X62955487Y-5359248D01*
X62895055Y-5349677D01*
X62851790Y-5306412D01*
X62842219Y-5276954D01*
X62840941Y-5268886D01*
X62840940Y-5268882D01*
X62782547Y-5089168D01*
X62696760Y-4920801D01*
X62585690Y-4767927D01*
X62452073Y-4634310D01*
X62299199Y-4523240D01*
X62299198Y-4523239D01*
X62299196Y-4523238D01*
X62130832Y-4437453D01*
X61951113Y-4379058D01*
X61764484Y-4349500D01*
X61764481Y-4349500D01*
X61575519Y-4349500D01*
X61575516Y-4349500D01*
X61388886Y-4379058D01*
X61209167Y-4437453D01*
X61040801Y-4523239D01*
X61040795Y-4523243D01*
X60893044Y-4630592D01*
X60834853Y-4649500D01*
X59965147Y-4649500D01*
X59906957Y-4630593D01*
X59906956Y-4630592D01*
X59759204Y-4523243D01*
X59759198Y-4523239D01*
X59590832Y-4437453D01*
X59411113Y-4379058D01*
X59224484Y-4349500D01*
X59224481Y-4349500D01*
X59035519Y-4349500D01*
X59035516Y-4349500D01*
X58848886Y-4379058D01*
X58669167Y-4437453D01*
X58500801Y-4523239D01*
X58500795Y-4523243D01*
X58353044Y-4630592D01*
X58294853Y-4649500D01*
X57425147Y-4649500D01*
X57366957Y-4630593D01*
X57366956Y-4630592D01*
X57219204Y-4523243D01*
X57219198Y-4523239D01*
X57050832Y-4437453D01*
X56871113Y-4379058D01*
X56684484Y-4349500D01*
X56684481Y-4349500D01*
X56495519Y-4349500D01*
X56495516Y-4349500D01*
X56308886Y-4379058D01*
X56129167Y-4437453D01*
X55960803Y-4523238D01*
X55807928Y-4634309D01*
X55674309Y-4767928D01*
X55563238Y-4920803D01*
X55477453Y-5089167D01*
X55419058Y-5268886D01*
X55417781Y-5276954D01*
X55390004Y-5331471D01*
X55335487Y-5359248D01*
X55275055Y-5349677D01*
X55231790Y-5306412D01*
X55222219Y-5276954D01*
X55220941Y-5268886D01*
X55220940Y-5268882D01*
X55162547Y-5089168D01*
X55076760Y-4920801D01*
X54965690Y-4767927D01*
X54832073Y-4634310D01*
X54679199Y-4523240D01*
X54679198Y-4523239D01*
X54679196Y-4523238D01*
X54510832Y-4437453D01*
X54331113Y-4379058D01*
X54144484Y-4349500D01*
X54144481Y-4349500D01*
X53955519Y-4349500D01*
X53955516Y-4349500D01*
X53768886Y-4379058D01*
X53589167Y-4437453D01*
X53420801Y-4523239D01*
X53420795Y-4523243D01*
X53273044Y-4630592D01*
X53214853Y-4649500D01*
X52345147Y-4649500D01*
X52286957Y-4630593D01*
X52286956Y-4630592D01*
X52139204Y-4523243D01*
X52139198Y-4523239D01*
X51970832Y-4437453D01*
X51791113Y-4379058D01*
X51604484Y-4349500D01*
X51604481Y-4349500D01*
X51415519Y-4349500D01*
X51415516Y-4349500D01*
X51228886Y-4379058D01*
X51049167Y-4437453D01*
X50880801Y-4523239D01*
X50880795Y-4523243D01*
X50733044Y-4630592D01*
X50674853Y-4649500D01*
X49805147Y-4649500D01*
X49746957Y-4630593D01*
X49746956Y-4630592D01*
X49599204Y-4523243D01*
X49599198Y-4523239D01*
X49430832Y-4437453D01*
X49251113Y-4379058D01*
X49064484Y-4349500D01*
X49064481Y-4349500D01*
X48875519Y-4349500D01*
X48875516Y-4349500D01*
X48688886Y-4379058D01*
X48509167Y-4437453D01*
X48340803Y-4523238D01*
X48187928Y-4634309D01*
X48054309Y-4767928D01*
X47943238Y-4920803D01*
X47857453Y-5089167D01*
X47799058Y-5268886D01*
X47797781Y-5276954D01*
X47770004Y-5331471D01*
X47715487Y-5359248D01*
X47655055Y-5349677D01*
X47611790Y-5306412D01*
X47602219Y-5276954D01*
X47600941Y-5268886D01*
X47600940Y-5268882D01*
X47542547Y-5089168D01*
X47456760Y-4920801D01*
X47345690Y-4767927D01*
X47212073Y-4634310D01*
X47059199Y-4523240D01*
X47059198Y-4523239D01*
X47059196Y-4523238D01*
X46890832Y-4437453D01*
X46711113Y-4379058D01*
X46524484Y-4349500D01*
X46524481Y-4349500D01*
X46335519Y-4349500D01*
X46335516Y-4349500D01*
X46148886Y-4379058D01*
X45969167Y-4437453D01*
X45800801Y-4523239D01*
X45800795Y-4523243D01*
X45653044Y-4630592D01*
X45594853Y-4649500D01*
X44725147Y-4649500D01*
X44666957Y-4630593D01*
X44666956Y-4630592D01*
X44519204Y-4523243D01*
X44519198Y-4523239D01*
X44350832Y-4437453D01*
X44171113Y-4379058D01*
X43984484Y-4349500D01*
X43984481Y-4349500D01*
X43795519Y-4349500D01*
X43795516Y-4349500D01*
X43608886Y-4379058D01*
X43429167Y-4437453D01*
X43260801Y-4523239D01*
X43260795Y-4523243D01*
X43113044Y-4630592D01*
X43054853Y-4649500D01*
X42185147Y-4649500D01*
X42126957Y-4630593D01*
X42126956Y-4630592D01*
X41979204Y-4523243D01*
X41979198Y-4523239D01*
X41810832Y-4437453D01*
X41631113Y-4379058D01*
X41444484Y-4349500D01*
X41444481Y-4349500D01*
X41255519Y-4349500D01*
X41255516Y-4349500D01*
X41068886Y-4379058D01*
X40889167Y-4437453D01*
X40720803Y-4523238D01*
X40567928Y-4634309D01*
X40434309Y-4767928D01*
X40323238Y-4920803D01*
X40237453Y-5089167D01*
X40179058Y-5268886D01*
X40177781Y-5276954D01*
X40150004Y-5331471D01*
X40095487Y-5359248D01*
X40035055Y-5349677D01*
X39991790Y-5306412D01*
X39982219Y-5276954D01*
X39980941Y-5268886D01*
X39980940Y-5268882D01*
X39922547Y-5089168D01*
X39836760Y-4920801D01*
X39725690Y-4767927D01*
X39592073Y-4634310D01*
X39439199Y-4523240D01*
X39439198Y-4523239D01*
X39439196Y-4523238D01*
X39270832Y-4437453D01*
X39091113Y-4379058D01*
X38904484Y-4349500D01*
X38904481Y-4349500D01*
X38715519Y-4349500D01*
X38715516Y-4349500D01*
X38528886Y-4379058D01*
X38349167Y-4437453D01*
X38180801Y-4523239D01*
X38180795Y-4523243D01*
X38033044Y-4630592D01*
X37974853Y-4649500D01*
X37105147Y-4649500D01*
X37046957Y-4630593D01*
X37046956Y-4630592D01*
X36899204Y-4523243D01*
X36899198Y-4523239D01*
X36730832Y-4437453D01*
X36551113Y-4379058D01*
X36364484Y-4349500D01*
X36364481Y-4349500D01*
X36175519Y-4349500D01*
X36175516Y-4349500D01*
X35988886Y-4379058D01*
X35809167Y-4437453D01*
X35640801Y-4523239D01*
X35640795Y-4523243D01*
X35493044Y-4630592D01*
X35434853Y-4649500D01*
X34565147Y-4649500D01*
X34506957Y-4630593D01*
X34506956Y-4630592D01*
X34359204Y-4523243D01*
X34359198Y-4523239D01*
X34190832Y-4437453D01*
X34011113Y-4379058D01*
X33824484Y-4349500D01*
X33824481Y-4349500D01*
X33635519Y-4349500D01*
X33635516Y-4349500D01*
X33448886Y-4379058D01*
X33269167Y-4437453D01*
X33100803Y-4523238D01*
X32947928Y-4634309D01*
X32814309Y-4767928D01*
X32703238Y-4920803D01*
X32617453Y-5089167D01*
X32559058Y-5268886D01*
X32557781Y-5276954D01*
X32530004Y-5331471D01*
X32475487Y-5359248D01*
X32415055Y-5349677D01*
X32371790Y-5306412D01*
X32362219Y-5276954D01*
X32360941Y-5268886D01*
X32360940Y-5268882D01*
X32302547Y-5089168D01*
X32216760Y-4920801D01*
X32105690Y-4767927D01*
X31972073Y-4634310D01*
X31819199Y-4523240D01*
X31819198Y-4523239D01*
X31819196Y-4523238D01*
X31650832Y-4437453D01*
X31471113Y-4379058D01*
X31284484Y-4349500D01*
X31284481Y-4349500D01*
X31095519Y-4349500D01*
X31095516Y-4349500D01*
X30908886Y-4379058D01*
X30729167Y-4437453D01*
X30560803Y-4523238D01*
X30407928Y-4634309D01*
X30274309Y-4767928D01*
X30163238Y-4920803D01*
X30077453Y-5089167D01*
X30019058Y-5268886D01*
X30017781Y-5276954D01*
X29990004Y-5331471D01*
X29935487Y-5359248D01*
X29875055Y-5349677D01*
X29831790Y-5306412D01*
X29822219Y-5276954D01*
X29820941Y-5268886D01*
X29820940Y-5268882D01*
X29762547Y-5089168D01*
X29676760Y-4920801D01*
X29565690Y-4767927D01*
X29432073Y-4634310D01*
X29279199Y-4523240D01*
X29279198Y-4523239D01*
X29279196Y-4523238D01*
X29110832Y-4437453D01*
X28931113Y-4379058D01*
X28744484Y-4349500D01*
X28744481Y-4349500D01*
X28555519Y-4349500D01*
X28555516Y-4349500D01*
X28368886Y-4379058D01*
X28189167Y-4437453D01*
X28020801Y-4523239D01*
X28020795Y-4523243D01*
X27873044Y-4630592D01*
X27814853Y-4649500D01*
X26945147Y-4649500D01*
X26886957Y-4630593D01*
X26886956Y-4630592D01*
X26739204Y-4523243D01*
X26739198Y-4523239D01*
X26570832Y-4437453D01*
X26391113Y-4379058D01*
X26204484Y-4349500D01*
X26204481Y-4349500D01*
X26015519Y-4349500D01*
X26015516Y-4349500D01*
X25828886Y-4379058D01*
X25649167Y-4437453D01*
X25480801Y-4523239D01*
X25480795Y-4523243D01*
X25333044Y-4630592D01*
X25274853Y-4649500D01*
X24405147Y-4649500D01*
X24346957Y-4630593D01*
X24346956Y-4630592D01*
X24199204Y-4523243D01*
X24199198Y-4523239D01*
X24030832Y-4437453D01*
X23851113Y-4379058D01*
X23664484Y-4349500D01*
X23664481Y-4349500D01*
X23475519Y-4349500D01*
X23475516Y-4349500D01*
X23288886Y-4379058D01*
X23109167Y-4437453D01*
X22940803Y-4523238D01*
X22787928Y-4634309D01*
X22654309Y-4767928D01*
X22543238Y-4920803D01*
X22457453Y-5089167D01*
X22399058Y-5268886D01*
X22397781Y-5276954D01*
X22370004Y-5331471D01*
X22315487Y-5359248D01*
X22255055Y-5349677D01*
X22211790Y-5306412D01*
X22202219Y-5276954D01*
X22200941Y-5268886D01*
X22200940Y-5268882D01*
X22142547Y-5089168D01*
X22056760Y-4920801D01*
X21945690Y-4767927D01*
X21812073Y-4634310D01*
X21659199Y-4523240D01*
X21659198Y-4523239D01*
X21659196Y-4523238D01*
X21490832Y-4437453D01*
X21311113Y-4379058D01*
X21124484Y-4349500D01*
X21124481Y-4349500D01*
X20935519Y-4349500D01*
X20935516Y-4349500D01*
X20748886Y-4379058D01*
X20569167Y-4437453D01*
X20400801Y-4523239D01*
X20400795Y-4523243D01*
X20253044Y-4630592D01*
X20194853Y-4649500D01*
X19325147Y-4649500D01*
X19266957Y-4630593D01*
X19266956Y-4630592D01*
X19119204Y-4523243D01*
X19119198Y-4523239D01*
X18950832Y-4437453D01*
X18771113Y-4379058D01*
X18584484Y-4349500D01*
X18584481Y-4349500D01*
X18395519Y-4349500D01*
X18395516Y-4349500D01*
X18208886Y-4379058D01*
X18029167Y-4437453D01*
X17860801Y-4523239D01*
X17860795Y-4523243D01*
X17713044Y-4630592D01*
X17654853Y-4649500D01*
X16785147Y-4649500D01*
X16726957Y-4630593D01*
X16726956Y-4630592D01*
X16579204Y-4523243D01*
X16579198Y-4523239D01*
X16410832Y-4437453D01*
X16231113Y-4379058D01*
X16044484Y-4349500D01*
X16044481Y-4349500D01*
X15855519Y-4349500D01*
X15855516Y-4349500D01*
X15668886Y-4379058D01*
X15489167Y-4437453D01*
X15320803Y-4523238D01*
X15167928Y-4634309D01*
X15034309Y-4767928D01*
X14923238Y-4920803D01*
X14837453Y-5089167D01*
X14779058Y-5268886D01*
X14777781Y-5276954D01*
X14750004Y-5331471D01*
X14695487Y-5359248D01*
X14635055Y-5349677D01*
X14591790Y-5306412D01*
X14582219Y-5276954D01*
X14580941Y-5268886D01*
X14580940Y-5268882D01*
X14522547Y-5089168D01*
X14436760Y-4920801D01*
X14325690Y-4767927D01*
X14192073Y-4634310D01*
X14039199Y-4523240D01*
X14039198Y-4523239D01*
X14039196Y-4523238D01*
X13870832Y-4437453D01*
X13691113Y-4379058D01*
X13504484Y-4349500D01*
X13504481Y-4349500D01*
X13315519Y-4349500D01*
X13315516Y-4349500D01*
X13128886Y-4379058D01*
X12949167Y-4437453D01*
X12780801Y-4523239D01*
X12780795Y-4523243D01*
X12633044Y-4630592D01*
X12574853Y-4649500D01*
X11705147Y-4649500D01*
X11646957Y-4630593D01*
X11646956Y-4630592D01*
X11499204Y-4523243D01*
X11499198Y-4523239D01*
X11330832Y-4437453D01*
X11151113Y-4379058D01*
X10964484Y-4349500D01*
X10964481Y-4349500D01*
X10775519Y-4349500D01*
X10775516Y-4349500D01*
X10588886Y-4379058D01*
X10409167Y-4437453D01*
X10240801Y-4523239D01*
X10240795Y-4523243D01*
X10093044Y-4630592D01*
X10034853Y-4649500D01*
X9165147Y-4649500D01*
X9106957Y-4630593D01*
X9106956Y-4630592D01*
X8959204Y-4523243D01*
X8959198Y-4523239D01*
X8790832Y-4437453D01*
X8611113Y-4379058D01*
X8424484Y-4349500D01*
X8424481Y-4349500D01*
X8235519Y-4349500D01*
X8235516Y-4349500D01*
X8048886Y-4379058D01*
X7869167Y-4437453D01*
X7700803Y-4523238D01*
X7547928Y-4634309D01*
X7414309Y-4767928D01*
X7303238Y-4920803D01*
X7217453Y-5089167D01*
X7159058Y-5268886D01*
X7157781Y-5276954D01*
X7130004Y-5331471D01*
X7075487Y-5359248D01*
X7015055Y-5349677D01*
X6971790Y-5306412D01*
X6962219Y-5276954D01*
X6960941Y-5268886D01*
X6960940Y-5268882D01*
X6902547Y-5089168D01*
X6816760Y-4920801D01*
X6705690Y-4767927D01*
X6572073Y-4634310D01*
X6419199Y-4523240D01*
X6419198Y-4523239D01*
X6419196Y-4523238D01*
X6250832Y-4437453D01*
X6071113Y-4379058D01*
X5884484Y-4349500D01*
X5884481Y-4349500D01*
X5695519Y-4349500D01*
X5695516Y-4349500D01*
X5508886Y-4379058D01*
X5329167Y-4437453D01*
X5160803Y-4523238D01*
X5007928Y-4634309D01*
X4874309Y-4767928D01*
X4763238Y-4920803D01*
X4677453Y-5089167D01*
X4619058Y-5268886D01*
X4589500Y-5455515D01*
X4589500Y-5644484D01*
X4619058Y-5831113D01*
X4619060Y-5831118D01*
X4677453Y-6010832D01*
X4763240Y-6179199D01*
X4874310Y-6332073D01*
X4957705Y-6415468D01*
X4734600Y-6347800D01*
X4388900Y-6162900D01*
X4085800Y-5914200D01*
X3837100Y-5611100D01*
X3652200Y-5265400D01*
X3538400Y-4890200D01*
X3500000Y-4500000D01*
X3538400Y-4109800D01*
X3652200Y-3734600D01*
X3811110Y-3437491D01*
X3832511Y-3397481D01*
X3843272Y-3381377D01*
X4079609Y-3093344D01*
X4093345Y-3079609D01*
X4381377Y-2843272D01*
X4397478Y-2832511D01*
X4725999Y-2656800D01*
X4743937Y-2649367D01*
X5100476Y-2541228D01*
X5119495Y-2537445D01*
X5495163Y-2500475D01*
X5504859Y-2500000D01*
X64495141Y-2500000D01*
X64504836Y-2500475D01*
G37*
%TD.AperFunction*%
%TD*%
%TA.AperFunction,Conductor*%
%TO.N,VCC*%
G36*
X66248892Y-3504847D02*
G01*
X66267737Y-3508589D01*
X66305367Y-3519951D01*
X66323485Y-3527452D01*
X66358126Y-3546007D01*
X66374215Y-3556774D01*
X66404611Y-3581747D01*
X66418252Y-3595388D01*
X66443223Y-3625782D01*
X66453995Y-3641878D01*
X66472544Y-3676507D01*
X66480049Y-3694637D01*
X66491409Y-3732260D01*
X66495152Y-3751106D01*
X66499517Y-3795135D01*
X66500000Y-3804891D01*
X66500000Y-88396332D01*
X66481093Y-88454523D01*
X66431593Y-88490487D01*
X66370407Y-88490487D01*
X66320907Y-88454523D01*
X66315264Y-88445832D01*
X66144239Y-88149609D01*
X66144225Y-88149587D01*
X65878784Y-87770499D01*
X65878772Y-87770483D01*
X65581301Y-87415971D01*
X65254028Y-87088698D01*
X64899516Y-86791227D01*
X64899500Y-86791215D01*
X64789997Y-86714541D01*
X64753175Y-86665677D01*
X64752107Y-86604500D01*
X64787201Y-86554380D01*
X64801838Y-86545235D01*
X64838921Y-86526341D01*
X64838938Y-86526330D01*
X64864328Y-86507883D01*
X64710000Y-86353554D01*
X64710000Y-85646445D01*
X65217883Y-86154328D01*
X65236329Y-86128939D01*
X65322085Y-85960635D01*
X65380453Y-85780996D01*
X65410000Y-85594445D01*
X65410000Y-85405554D01*
X65380453Y-85219003D01*
X65322085Y-85039364D01*
X65236332Y-84871063D01*
X65236330Y-84871059D01*
X65217883Y-84845670D01*
X64710000Y-85353553D01*
X64710000Y-84646443D01*
X64864328Y-84492115D01*
X64838931Y-84473664D01*
X64764054Y-84435512D01*
X64720790Y-84392247D01*
X64710000Y-84347303D01*
X64710000Y-84112695D01*
X64728907Y-84054504D01*
X64764056Y-84024485D01*
X64838925Y-83986338D01*
X64838938Y-83986330D01*
X64864328Y-83967883D01*
X64710000Y-83813554D01*
X64710000Y-83106445D01*
X65217883Y-83614328D01*
X65236329Y-83588939D01*
X65322085Y-83420635D01*
X65380453Y-83240996D01*
X65410000Y-83054445D01*
X65410000Y-82865554D01*
X65380453Y-82679003D01*
X65322085Y-82499364D01*
X65236332Y-82331063D01*
X65236330Y-82331059D01*
X65217883Y-82305670D01*
X64710000Y-82813553D01*
X64710000Y-82106443D01*
X64864328Y-81952115D01*
X64838934Y-81933666D01*
X64710000Y-81867971D01*
X64710000Y-80302589D01*
X64839199Y-80236760D01*
X64992073Y-80125690D01*
X65125690Y-79992073D01*
X65236760Y-79839199D01*
X65322547Y-79670832D01*
X65380940Y-79491118D01*
X65410500Y-79304481D01*
X65410500Y-79115519D01*
X65410500Y-79115515D01*
X65380941Y-78928886D01*
X65380940Y-78928882D01*
X65322547Y-78749168D01*
X65236760Y-78580801D01*
X65125690Y-78427927D01*
X64992073Y-78294310D01*
X64839199Y-78183240D01*
X64839198Y-78183239D01*
X64839196Y-78183238D01*
X64764055Y-78144952D01*
X64720790Y-78101687D01*
X64710000Y-78056742D01*
X64710000Y-77823256D01*
X64728907Y-77765065D01*
X64764052Y-77735048D01*
X64839199Y-77696760D01*
X64992073Y-77585690D01*
X65125690Y-77452073D01*
X65236760Y-77299199D01*
X65322547Y-77130832D01*
X65380940Y-76951118D01*
X65410500Y-76764481D01*
X65410500Y-76575519D01*
X65410500Y-76575515D01*
X65380941Y-76388886D01*
X65380940Y-76388882D01*
X65322547Y-76209168D01*
X65236760Y-76040801D01*
X65125690Y-75887927D01*
X64992073Y-75754310D01*
X64839199Y-75643240D01*
X64839198Y-75643239D01*
X64839196Y-75643238D01*
X64764055Y-75604952D01*
X64720790Y-75561687D01*
X64710000Y-75516742D01*
X64710000Y-75282695D01*
X64728907Y-75224504D01*
X64764056Y-75194485D01*
X64838925Y-75156338D01*
X64838938Y-75156330D01*
X64864328Y-75137883D01*
X64710000Y-74983554D01*
X64710000Y-74276445D01*
X65217883Y-74784328D01*
X65236329Y-74758939D01*
X65322085Y-74590635D01*
X65380453Y-74410996D01*
X65410000Y-74224445D01*
X65410000Y-74035554D01*
X65380453Y-73849003D01*
X65322085Y-73669364D01*
X65236332Y-73501063D01*
X65236330Y-73501059D01*
X65217883Y-73475670D01*
X64710000Y-73983553D01*
X64710000Y-73276443D01*
X64864328Y-73122115D01*
X64838931Y-73103664D01*
X64764054Y-73065512D01*
X64720790Y-73022247D01*
X64710000Y-72977303D01*
X64710000Y-72742695D01*
X64728907Y-72684504D01*
X64764056Y-72654485D01*
X64838925Y-72616338D01*
X64838938Y-72616330D01*
X64864328Y-72597883D01*
X64710000Y-72443554D01*
X64710000Y-71736445D01*
X65217883Y-72244328D01*
X65236329Y-72218939D01*
X65322085Y-72050635D01*
X65380453Y-71870996D01*
X65410000Y-71684445D01*
X65410000Y-71495554D01*
X65380453Y-71309003D01*
X65322085Y-71129364D01*
X65236332Y-70961063D01*
X65236330Y-70961059D01*
X65217883Y-70935670D01*
X64710000Y-71443553D01*
X64710000Y-70736443D01*
X64864328Y-70582115D01*
X64838931Y-70563664D01*
X64764054Y-70525512D01*
X64720790Y-70482247D01*
X64710000Y-70437303D01*
X64710000Y-70203256D01*
X64728907Y-70145065D01*
X64764052Y-70115048D01*
X64839199Y-70076760D01*
X64992073Y-69965690D01*
X65125690Y-69832073D01*
X65236760Y-69679199D01*
X65322547Y-69510832D01*
X65380940Y-69331118D01*
X65410500Y-69144481D01*
X65410500Y-68955519D01*
X65410500Y-68955515D01*
X65380941Y-68768886D01*
X65380940Y-68768882D01*
X65322547Y-68589168D01*
X65236760Y-68420801D01*
X65125690Y-68267927D01*
X64992073Y-68134310D01*
X64839199Y-68023240D01*
X64839198Y-68023239D01*
X64839196Y-68023238D01*
X64764055Y-67984952D01*
X64720790Y-67941687D01*
X64710000Y-67896742D01*
X64710000Y-67663256D01*
X64728907Y-67605065D01*
X64764052Y-67575048D01*
X64839199Y-67536760D01*
X64992073Y-67425690D01*
X65125690Y-67292073D01*
X65236760Y-67139199D01*
X65322547Y-66970832D01*
X65380940Y-66791118D01*
X65410500Y-66604481D01*
X65410500Y-66415519D01*
X65410500Y-66415515D01*
X65380941Y-66228886D01*
X65380940Y-66228882D01*
X65322547Y-66049168D01*
X65236760Y-65880801D01*
X65125690Y-65727927D01*
X64992073Y-65594310D01*
X64839199Y-65483240D01*
X64839198Y-65483239D01*
X64839196Y-65483238D01*
X64764055Y-65444952D01*
X64720790Y-65401687D01*
X64710000Y-65356742D01*
X64710000Y-65122695D01*
X64728907Y-65064504D01*
X64764056Y-65034485D01*
X64838925Y-64996338D01*
X64838938Y-64996330D01*
X64864328Y-64977883D01*
X64710000Y-64823554D01*
X64710000Y-64116445D01*
X65217883Y-64624328D01*
X65236329Y-64598939D01*
X65322085Y-64430635D01*
X65380453Y-64250996D01*
X65410000Y-64064445D01*
X65410000Y-63875554D01*
X65380453Y-63689003D01*
X65322085Y-63509364D01*
X65236332Y-63341063D01*
X65236330Y-63341059D01*
X65217883Y-63315670D01*
X64710000Y-63823553D01*
X64710000Y-63116443D01*
X64864328Y-62962115D01*
X64838931Y-62943664D01*
X64764054Y-62905512D01*
X64720790Y-62862247D01*
X64710000Y-62817303D01*
X64710000Y-62582695D01*
X64728907Y-62524504D01*
X64764056Y-62494485D01*
X64838925Y-62456338D01*
X64838938Y-62456330D01*
X64864328Y-62437883D01*
X64710000Y-62283554D01*
X64710000Y-61576445D01*
X65217883Y-62084328D01*
X65236329Y-62058939D01*
X65322085Y-61890635D01*
X65380453Y-61710996D01*
X65410000Y-61524445D01*
X65410000Y-61335554D01*
X65380453Y-61149003D01*
X65322085Y-60969364D01*
X65236332Y-60801063D01*
X65236330Y-60801059D01*
X65217883Y-60775670D01*
X64710000Y-61283553D01*
X64710000Y-60576443D01*
X64864328Y-60422115D01*
X64838931Y-60403664D01*
X64764054Y-60365512D01*
X64720790Y-60322247D01*
X64710000Y-60277303D01*
X64710000Y-60043256D01*
X64728907Y-59985065D01*
X64764052Y-59955048D01*
X64839199Y-59916760D01*
X64992073Y-59805690D01*
X65125690Y-59672073D01*
X65236760Y-59519199D01*
X65322547Y-59350832D01*
X65380940Y-59171118D01*
X65410500Y-58984481D01*
X65410500Y-58795519D01*
X65410500Y-58795515D01*
X65380941Y-58608886D01*
X65380940Y-58608882D01*
X65322547Y-58429168D01*
X65236760Y-58260801D01*
X65125690Y-58107927D01*
X64992073Y-57974310D01*
X64839199Y-57863240D01*
X64839198Y-57863239D01*
X64839196Y-57863238D01*
X64764055Y-57824952D01*
X64720790Y-57781687D01*
X64710000Y-57736742D01*
X64710000Y-57503256D01*
X64728907Y-57445065D01*
X64764052Y-57415048D01*
X64839199Y-57376760D01*
X64992073Y-57265690D01*
X65125690Y-57132073D01*
X65236760Y-56979199D01*
X65322547Y-56810832D01*
X65380940Y-56631118D01*
X65410500Y-56444481D01*
X65410500Y-56255519D01*
X65410500Y-56255515D01*
X65380941Y-56068886D01*
X65380940Y-56068882D01*
X65322547Y-55889168D01*
X65236760Y-55720801D01*
X65125690Y-55567927D01*
X64992073Y-55434310D01*
X64839199Y-55323240D01*
X64839198Y-55323239D01*
X64839196Y-55323238D01*
X64764055Y-55284952D01*
X64720790Y-55241687D01*
X64710000Y-55196742D01*
X64710000Y-54962695D01*
X64728907Y-54904504D01*
X64764056Y-54874485D01*
X64838925Y-54836338D01*
X64838938Y-54836330D01*
X64864328Y-54817883D01*
X64710000Y-54663554D01*
X64710000Y-53956445D01*
X65217883Y-54464328D01*
X65236329Y-54438939D01*
X65322085Y-54270635D01*
X65380453Y-54090996D01*
X65410000Y-53904445D01*
X65410000Y-53715554D01*
X65380453Y-53529003D01*
X65322085Y-53349364D01*
X65236332Y-53181063D01*
X65236330Y-53181059D01*
X65217883Y-53155670D01*
X64710000Y-53663553D01*
X64710000Y-52956443D01*
X64864328Y-52802115D01*
X64838931Y-52783664D01*
X64764054Y-52745512D01*
X64720790Y-52702247D01*
X64710000Y-52657303D01*
X64710000Y-52422695D01*
X64728907Y-52364504D01*
X64764056Y-52334485D01*
X64838925Y-52296338D01*
X64838938Y-52296330D01*
X64864328Y-52277883D01*
X64710000Y-52123554D01*
X64710000Y-51416445D01*
X65217883Y-51924328D01*
X65236329Y-51898939D01*
X65322085Y-51730635D01*
X65380453Y-51550996D01*
X65410000Y-51364445D01*
X65410000Y-51175554D01*
X65380453Y-50989003D01*
X65322085Y-50809364D01*
X65236332Y-50641063D01*
X65236330Y-50641059D01*
X65217883Y-50615670D01*
X64710000Y-51123553D01*
X64710000Y-50416443D01*
X64864328Y-50262115D01*
X64838931Y-50243664D01*
X64764054Y-50205512D01*
X64720790Y-50162247D01*
X64710000Y-50117303D01*
X64710000Y-49883256D01*
X64728907Y-49825065D01*
X64764052Y-49795048D01*
X64839199Y-49756760D01*
X64992073Y-49645690D01*
X65125690Y-49512073D01*
X65236760Y-49359199D01*
X65322547Y-49190832D01*
X65380940Y-49011118D01*
X65410500Y-48824481D01*
X65410500Y-48635519D01*
X65410500Y-48635515D01*
X65380941Y-48448886D01*
X65380940Y-48448882D01*
X65322547Y-48269168D01*
X65236760Y-48100801D01*
X65125690Y-47947927D01*
X64992073Y-47814310D01*
X64839199Y-47703240D01*
X64839198Y-47703239D01*
X64839196Y-47703238D01*
X64764055Y-47664952D01*
X64720790Y-47621687D01*
X64710000Y-47576742D01*
X64710000Y-47343256D01*
X64728907Y-47285065D01*
X64764052Y-47255048D01*
X64839199Y-47216760D01*
X64992073Y-47105690D01*
X65125690Y-46972073D01*
X65236760Y-46819199D01*
X65322547Y-46650832D01*
X65380940Y-46471118D01*
X65410500Y-46284481D01*
X65410500Y-46095519D01*
X65410500Y-46095515D01*
X65380941Y-45908886D01*
X65380940Y-45908882D01*
X65322547Y-45729168D01*
X65236760Y-45560801D01*
X65125690Y-45407927D01*
X64992073Y-45274310D01*
X64839199Y-45163240D01*
X64839198Y-45163239D01*
X64839196Y-45163238D01*
X64764055Y-45124952D01*
X64720790Y-45081687D01*
X64710000Y-45036742D01*
X64710000Y-44802695D01*
X64728907Y-44744504D01*
X64764056Y-44714485D01*
X64838925Y-44676338D01*
X64838938Y-44676330D01*
X64864328Y-44657883D01*
X64710000Y-44503554D01*
X64710000Y-43796445D01*
X65217883Y-44304328D01*
X65236329Y-44278939D01*
X65322085Y-44110635D01*
X65380453Y-43930996D01*
X65410000Y-43744445D01*
X65410000Y-43555554D01*
X65380453Y-43369003D01*
X65322085Y-43189364D01*
X65236332Y-43021063D01*
X65236330Y-43021059D01*
X65217883Y-42995670D01*
X64710000Y-43503553D01*
X64710000Y-42796443D01*
X64864328Y-42642115D01*
X64838931Y-42623664D01*
X64764054Y-42585512D01*
X64720790Y-42542247D01*
X64710000Y-42497303D01*
X64710000Y-42262695D01*
X64728907Y-42204504D01*
X64764056Y-42174485D01*
X64838925Y-42136338D01*
X64838938Y-42136330D01*
X64864328Y-42117883D01*
X64710000Y-41963554D01*
X64710000Y-41256445D01*
X65217883Y-41764328D01*
X65236329Y-41738939D01*
X65322085Y-41570635D01*
X65380453Y-41390996D01*
X65410000Y-41204445D01*
X65410000Y-41015554D01*
X65380453Y-40829003D01*
X65322085Y-40649364D01*
X65236332Y-40481063D01*
X65236330Y-40481059D01*
X65217883Y-40455670D01*
X64710000Y-40963553D01*
X64710000Y-40256443D01*
X64864328Y-40102115D01*
X64838931Y-40083664D01*
X64764054Y-40045512D01*
X64720790Y-40002247D01*
X64710000Y-39957303D01*
X64710000Y-39723256D01*
X64728907Y-39665065D01*
X64764052Y-39635048D01*
X64839199Y-39596760D01*
X64992073Y-39485690D01*
X65125690Y-39352073D01*
X65236760Y-39199199D01*
X65322547Y-39030832D01*
X65380940Y-38851118D01*
X65410500Y-38664481D01*
X65410500Y-38475519D01*
X65410500Y-38475515D01*
X65380941Y-38288886D01*
X65380940Y-38288882D01*
X65322547Y-38109168D01*
X65236760Y-37940801D01*
X65125690Y-37787927D01*
X64992073Y-37654310D01*
X64839199Y-37543240D01*
X64839198Y-37543239D01*
X64839196Y-37543238D01*
X64764055Y-37504952D01*
X64720790Y-37461687D01*
X64710000Y-37416742D01*
X64710000Y-37183256D01*
X64728907Y-37125065D01*
X64764052Y-37095048D01*
X64839199Y-37056760D01*
X64992073Y-36945690D01*
X65125690Y-36812073D01*
X65236760Y-36659199D01*
X65322547Y-36490832D01*
X65380940Y-36311118D01*
X65410500Y-36124481D01*
X65410500Y-35935519D01*
X65410500Y-35935515D01*
X65380941Y-35748886D01*
X65380940Y-35748882D01*
X65322547Y-35569168D01*
X65236760Y-35400801D01*
X65125690Y-35247927D01*
X64992073Y-35114310D01*
X64839199Y-35003240D01*
X64839198Y-35003239D01*
X64839196Y-35003238D01*
X64764055Y-34964952D01*
X64720790Y-34921687D01*
X64710000Y-34876742D01*
X64710000Y-34642695D01*
X64728907Y-34584504D01*
X64764056Y-34554485D01*
X64838925Y-34516338D01*
X64838938Y-34516330D01*
X64864328Y-34497883D01*
X64710000Y-34343554D01*
X64710000Y-33636445D01*
X65217883Y-34144328D01*
X65236329Y-34118939D01*
X65322085Y-33950635D01*
X65380453Y-33770996D01*
X65410000Y-33584445D01*
X65410000Y-33395554D01*
X65380453Y-33209003D01*
X65322085Y-33029364D01*
X65236332Y-32861063D01*
X65236330Y-32861059D01*
X65217883Y-32835670D01*
X64710000Y-33343553D01*
X64710000Y-32636443D01*
X64864328Y-32482115D01*
X64838931Y-32463664D01*
X64764054Y-32425512D01*
X64720790Y-32382247D01*
X64710000Y-32337303D01*
X64710000Y-32102695D01*
X64728907Y-32044504D01*
X64764056Y-32014485D01*
X64838925Y-31976338D01*
X64838938Y-31976330D01*
X64864328Y-31957883D01*
X64710000Y-31803554D01*
X64710000Y-31096445D01*
X65217883Y-31604328D01*
X65236329Y-31578939D01*
X65322085Y-31410635D01*
X65380453Y-31230996D01*
X65410000Y-31044445D01*
X65410000Y-30855554D01*
X65380453Y-30669003D01*
X65322085Y-30489364D01*
X65236332Y-30321063D01*
X65236330Y-30321059D01*
X65217883Y-30295670D01*
X64710000Y-30803553D01*
X64710000Y-30096443D01*
X64864328Y-29942115D01*
X64838931Y-29923664D01*
X64764054Y-29885512D01*
X64720790Y-29842247D01*
X64710000Y-29797303D01*
X64710000Y-29563256D01*
X64728907Y-29505065D01*
X64764052Y-29475048D01*
X64839199Y-29436760D01*
X64992073Y-29325690D01*
X65125690Y-29192073D01*
X65236760Y-29039199D01*
X65322547Y-28870832D01*
X65380940Y-28691118D01*
X65410500Y-28504481D01*
X65410500Y-28315519D01*
X65410500Y-28315515D01*
X65380941Y-28128886D01*
X65380940Y-28128882D01*
X65322547Y-27949168D01*
X65236760Y-27780801D01*
X65125690Y-27627927D01*
X64992073Y-27494310D01*
X64839199Y-27383240D01*
X64839198Y-27383239D01*
X64839196Y-27383238D01*
X64764055Y-27344952D01*
X64720790Y-27301687D01*
X64710000Y-27256742D01*
X64710000Y-27023256D01*
X64728907Y-26965065D01*
X64764052Y-26935048D01*
X64839199Y-26896760D01*
X64992073Y-26785690D01*
X65125690Y-26652073D01*
X65236760Y-26499199D01*
X65322547Y-26330832D01*
X65380940Y-26151118D01*
X65410500Y-25964481D01*
X65410500Y-25775519D01*
X65410500Y-25775515D01*
X65380941Y-25588886D01*
X65380940Y-25588882D01*
X65322547Y-25409168D01*
X65236760Y-25240801D01*
X65125690Y-25087927D01*
X64992073Y-24954310D01*
X64839199Y-24843240D01*
X64839198Y-24843239D01*
X64839196Y-24843238D01*
X64764055Y-24804952D01*
X64720790Y-24761687D01*
X64710000Y-24716742D01*
X64710000Y-24482695D01*
X64728907Y-24424504D01*
X64764056Y-24394485D01*
X64838925Y-24356338D01*
X64838938Y-24356330D01*
X64864328Y-24337883D01*
X64710000Y-24183554D01*
X64710000Y-23476445D01*
X65217883Y-23984328D01*
X65236329Y-23958939D01*
X65322085Y-23790635D01*
X65380453Y-23610996D01*
X65410000Y-23424445D01*
X65410000Y-23235554D01*
X65380453Y-23049003D01*
X65322085Y-22869364D01*
X65236332Y-22701063D01*
X65236330Y-22701059D01*
X65217883Y-22675670D01*
X64710000Y-23183553D01*
X64710000Y-22476443D01*
X64864328Y-22322115D01*
X64838931Y-22303664D01*
X64764054Y-22265512D01*
X64720790Y-22222247D01*
X64710000Y-22177303D01*
X64710000Y-21942695D01*
X64728907Y-21884504D01*
X64764056Y-21854485D01*
X64838925Y-21816338D01*
X64838938Y-21816330D01*
X64864328Y-21797883D01*
X64710000Y-21643554D01*
X64710000Y-20936445D01*
X65217883Y-21444328D01*
X65236329Y-21418939D01*
X65322085Y-21250635D01*
X65380453Y-21070996D01*
X65410000Y-20884445D01*
X65410000Y-20695554D01*
X65380453Y-20509003D01*
X65322085Y-20329364D01*
X65236332Y-20161063D01*
X65236330Y-20161059D01*
X65217883Y-20135670D01*
X64710000Y-20643553D01*
X64710000Y-19936443D01*
X64864328Y-19782115D01*
X64838931Y-19763664D01*
X64764054Y-19725512D01*
X64720790Y-19682247D01*
X64710000Y-19637303D01*
X64710000Y-19403256D01*
X64728907Y-19345065D01*
X64764052Y-19315048D01*
X64839199Y-19276760D01*
X64992073Y-19165690D01*
X65125690Y-19032073D01*
X65236760Y-18879199D01*
X65322547Y-18710832D01*
X65380940Y-18531118D01*
X65410500Y-18344481D01*
X65410500Y-18155519D01*
X65410500Y-18155515D01*
X65380941Y-17968886D01*
X65380940Y-17968882D01*
X65322547Y-17789168D01*
X65236760Y-17620801D01*
X65125690Y-17467927D01*
X64992073Y-17334310D01*
X64839199Y-17223240D01*
X64839198Y-17223239D01*
X64839196Y-17223238D01*
X64764055Y-17184952D01*
X64720790Y-17141687D01*
X64710000Y-17096742D01*
X64710000Y-16863256D01*
X64728907Y-16805065D01*
X64764052Y-16775048D01*
X64839199Y-16736760D01*
X64992073Y-16625690D01*
X65125690Y-16492073D01*
X65236760Y-16339199D01*
X65322547Y-16170832D01*
X65380940Y-15991118D01*
X65410500Y-15804481D01*
X65410500Y-15615519D01*
X65410500Y-15615515D01*
X65380941Y-15428886D01*
X65380940Y-15428882D01*
X65322547Y-15249168D01*
X65236760Y-15080801D01*
X65125690Y-14927927D01*
X64992073Y-14794310D01*
X64839199Y-14683240D01*
X64839198Y-14683239D01*
X64839196Y-14683238D01*
X64764055Y-14644952D01*
X64720790Y-14601687D01*
X64710000Y-14556742D01*
X64710000Y-14322695D01*
X64728907Y-14264504D01*
X64764056Y-14234485D01*
X64838925Y-14196338D01*
X64838938Y-14196330D01*
X64864328Y-14177883D01*
X64710000Y-14023554D01*
X64710000Y-13316445D01*
X65217883Y-13824328D01*
X65236329Y-13798939D01*
X65322085Y-13630635D01*
X65380453Y-13450996D01*
X65410000Y-13264445D01*
X65410000Y-13075554D01*
X65380453Y-12889003D01*
X65322085Y-12709364D01*
X65236332Y-12541063D01*
X65236330Y-12541059D01*
X65217883Y-12515670D01*
X64710000Y-13023553D01*
X64710000Y-12316443D01*
X64864328Y-12162115D01*
X64838931Y-12143664D01*
X64764054Y-12105512D01*
X64720790Y-12062247D01*
X64710000Y-12017303D01*
X64710000Y-11782695D01*
X64728907Y-11724504D01*
X64764056Y-11694485D01*
X64838925Y-11656338D01*
X64838938Y-11656330D01*
X64864328Y-11637883D01*
X64710000Y-11483554D01*
X64710000Y-10776445D01*
X65217883Y-11284328D01*
X65236329Y-11258939D01*
X65322085Y-11090635D01*
X65380453Y-10910996D01*
X65410000Y-10724445D01*
X65410000Y-10535554D01*
X65380453Y-10349003D01*
X65322085Y-10169364D01*
X65236332Y-10001063D01*
X65236330Y-10001059D01*
X65217883Y-9975670D01*
X64710000Y-10483553D01*
X64710000Y-9776443D01*
X64864328Y-9622115D01*
X64838931Y-9603664D01*
X64764054Y-9565512D01*
X64720790Y-9522247D01*
X64710000Y-9477303D01*
X64710000Y-9243256D01*
X64728907Y-9185065D01*
X64764052Y-9155048D01*
X64839199Y-9116760D01*
X64992073Y-9005690D01*
X65125690Y-8872073D01*
X65236760Y-8719199D01*
X65322547Y-8550832D01*
X65380940Y-8371118D01*
X65410500Y-8184481D01*
X65410500Y-7995519D01*
X65410500Y-7995515D01*
X65380941Y-7808886D01*
X65380940Y-7808882D01*
X65322547Y-7629168D01*
X65236760Y-7460801D01*
X65125690Y-7307927D01*
X64992073Y-7174310D01*
X64839199Y-7063240D01*
X64839198Y-7063239D01*
X64839196Y-7063238D01*
X64764055Y-7024952D01*
X64720790Y-6981687D01*
X64710000Y-6936742D01*
X64710000Y-6703256D01*
X64728907Y-6645065D01*
X64764052Y-6615048D01*
X64839199Y-6576760D01*
X64992073Y-6465690D01*
X65125690Y-6332073D01*
X65236760Y-6179199D01*
X65322547Y-6010832D01*
X65380940Y-5831118D01*
X65410500Y-5644481D01*
X65410500Y-5455519D01*
X65410500Y-5455515D01*
X65380941Y-5268886D01*
X65380940Y-5268882D01*
X65322547Y-5089168D01*
X65236760Y-4920801D01*
X65125690Y-4767927D01*
X64992073Y-4634310D01*
X64839199Y-4523240D01*
X64839198Y-4523239D01*
X64839196Y-4523238D01*
X64710000Y-4457409D01*
X64710000Y-3800000D01*
X64715800Y-3741500D01*
X64732800Y-3685200D01*
X64760600Y-3633300D01*
X64797900Y-3587900D01*
X64843300Y-3550600D01*
X64895200Y-3522800D01*
X64951500Y-3505800D01*
X65010000Y-3500000D01*
X66200000Y-3500000D01*
X66248892Y-3504847D01*
G37*
%TD.AperFunction*%
%TD*%
%TA.AperFunction,Conductor*%
%TO.N,VCC*%
G36*
X5048500Y-3505800D02*
G01*
X5104800Y-3522800D01*
X5156700Y-3550600D01*
X5202100Y-3587900D01*
X5239400Y-3633300D01*
X5267200Y-3685200D01*
X5284200Y-3741500D01*
X5290000Y-3800000D01*
X5290000Y-4457409D01*
X5160803Y-4523238D01*
X5007928Y-4634309D01*
X4874309Y-4767928D01*
X4763238Y-4920803D01*
X4677453Y-5089167D01*
X4619058Y-5268886D01*
X4589500Y-5455515D01*
X4589500Y-5644484D01*
X4619058Y-5831113D01*
X4619060Y-5831118D01*
X4677453Y-6010832D01*
X4763240Y-6179199D01*
X4874310Y-6332073D01*
X5007927Y-6465690D01*
X5160801Y-6576760D01*
X5235946Y-6615048D01*
X5279209Y-6658310D01*
X5290000Y-6703256D01*
X5290000Y-6936742D01*
X5271093Y-6994933D01*
X5235945Y-7024952D01*
X5160803Y-7063238D01*
X5007928Y-7174309D01*
X4874309Y-7307928D01*
X4763238Y-7460803D01*
X4677453Y-7629167D01*
X4619058Y-7808886D01*
X4589500Y-7995515D01*
X4589500Y-8184484D01*
X4619058Y-8371113D01*
X4619060Y-8371118D01*
X4677453Y-8550832D01*
X4763240Y-8719199D01*
X4874310Y-8872073D01*
X5007927Y-9005690D01*
X5160801Y-9116760D01*
X5235946Y-9155048D01*
X5279209Y-9198310D01*
X5290000Y-9243256D01*
X5290000Y-9477303D01*
X5271093Y-9535494D01*
X5235946Y-9565512D01*
X5161065Y-9603666D01*
X5135670Y-9622115D01*
X5290000Y-9776445D01*
X5290000Y-10483555D01*
X4782115Y-9975670D01*
X4763668Y-10001063D01*
X4677914Y-10169364D01*
X4619546Y-10349003D01*
X4590000Y-10535554D01*
X4590000Y-10724445D01*
X4619546Y-10910996D01*
X4677914Y-11090635D01*
X4763666Y-11258934D01*
X4782115Y-11284328D01*
X5290000Y-10776443D01*
X5290000Y-11483553D01*
X5135670Y-11637883D01*
X5161059Y-11656330D01*
X5161067Y-11656334D01*
X5235944Y-11694485D01*
X5279209Y-11737749D01*
X5290000Y-11782695D01*
X5290000Y-12017303D01*
X5271093Y-12075494D01*
X5235946Y-12105512D01*
X5161065Y-12143666D01*
X5135670Y-12162115D01*
X5290000Y-12316445D01*
X5290000Y-13023555D01*
X4782115Y-12515670D01*
X4763668Y-12541063D01*
X4677914Y-12709364D01*
X4619546Y-12889003D01*
X4590000Y-13075554D01*
X4590000Y-13264445D01*
X4619546Y-13450996D01*
X4677914Y-13630635D01*
X4763666Y-13798934D01*
X4782115Y-13824328D01*
X5290000Y-13316443D01*
X5290000Y-14023553D01*
X5135670Y-14177883D01*
X5161059Y-14196330D01*
X5161067Y-14196334D01*
X5235944Y-14234485D01*
X5279209Y-14277749D01*
X5290000Y-14322695D01*
X5290000Y-14556742D01*
X5271093Y-14614933D01*
X5235945Y-14644952D01*
X5160803Y-14683238D01*
X5007928Y-14794309D01*
X4874309Y-14927928D01*
X4763238Y-15080803D01*
X4677453Y-15249167D01*
X4619058Y-15428886D01*
X4589500Y-15615515D01*
X4589500Y-15804484D01*
X4619058Y-15991113D01*
X4619060Y-15991118D01*
X4677453Y-16170832D01*
X4763240Y-16339199D01*
X4874310Y-16492073D01*
X5007927Y-16625690D01*
X5160801Y-16736760D01*
X5235946Y-16775048D01*
X5279209Y-16818310D01*
X5290000Y-16863256D01*
X5290000Y-17096742D01*
X5271093Y-17154933D01*
X5235945Y-17184952D01*
X5160803Y-17223238D01*
X5007928Y-17334309D01*
X4874309Y-17467928D01*
X4763238Y-17620803D01*
X4677453Y-17789167D01*
X4619058Y-17968886D01*
X4589500Y-18155515D01*
X4589500Y-18344484D01*
X4619058Y-18531113D01*
X4619060Y-18531118D01*
X4677453Y-18710832D01*
X4763240Y-18879199D01*
X4874310Y-19032073D01*
X5007927Y-19165690D01*
X5160801Y-19276760D01*
X5235946Y-19315048D01*
X5279209Y-19358310D01*
X5290000Y-19403256D01*
X5290000Y-19637303D01*
X5271093Y-19695494D01*
X5235946Y-19725512D01*
X5161065Y-19763666D01*
X5135670Y-19782115D01*
X5290000Y-19936445D01*
X5290000Y-20643555D01*
X4782115Y-20135670D01*
X4763668Y-20161063D01*
X4677914Y-20329364D01*
X4619546Y-20509003D01*
X4590000Y-20695554D01*
X4590000Y-20884445D01*
X4619546Y-21070996D01*
X4677914Y-21250635D01*
X4763666Y-21418934D01*
X4782115Y-21444328D01*
X5290000Y-20936443D01*
X5290000Y-21643553D01*
X5135670Y-21797883D01*
X5161059Y-21816330D01*
X5161067Y-21816334D01*
X5235944Y-21854485D01*
X5279209Y-21897749D01*
X5290000Y-21942695D01*
X5290000Y-22177303D01*
X5271093Y-22235494D01*
X5235946Y-22265512D01*
X5161065Y-22303666D01*
X5135670Y-22322115D01*
X5290000Y-22476445D01*
X5290000Y-23183555D01*
X4782115Y-22675670D01*
X4763668Y-22701063D01*
X4677914Y-22869364D01*
X4619546Y-23049003D01*
X4590000Y-23235554D01*
X4590000Y-23424445D01*
X4619546Y-23610996D01*
X4677914Y-23790635D01*
X4763666Y-23958934D01*
X4782115Y-23984328D01*
X5290000Y-23476443D01*
X5290000Y-24183553D01*
X5135670Y-24337883D01*
X5161059Y-24356330D01*
X5161067Y-24356334D01*
X5235944Y-24394485D01*
X5279209Y-24437749D01*
X5290000Y-24482695D01*
X5290000Y-24716742D01*
X5271093Y-24774933D01*
X5235945Y-24804952D01*
X5160803Y-24843238D01*
X5007928Y-24954309D01*
X4874309Y-25087928D01*
X4763238Y-25240803D01*
X4677453Y-25409167D01*
X4619058Y-25588886D01*
X4589500Y-25775515D01*
X4589500Y-25964484D01*
X4619058Y-26151113D01*
X4619060Y-26151118D01*
X4677453Y-26330832D01*
X4763240Y-26499199D01*
X4874310Y-26652073D01*
X5007927Y-26785690D01*
X5160801Y-26896760D01*
X5235946Y-26935048D01*
X5279209Y-26978310D01*
X5290000Y-27023256D01*
X5290000Y-27256742D01*
X5271093Y-27314933D01*
X5235945Y-27344952D01*
X5160803Y-27383238D01*
X5007928Y-27494309D01*
X4874309Y-27627928D01*
X4763238Y-27780803D01*
X4677453Y-27949167D01*
X4619058Y-28128886D01*
X4589500Y-28315515D01*
X4589500Y-28504484D01*
X4619058Y-28691113D01*
X4619060Y-28691118D01*
X4677453Y-28870832D01*
X4763240Y-29039199D01*
X4874310Y-29192073D01*
X5007927Y-29325690D01*
X5160801Y-29436760D01*
X5235946Y-29475048D01*
X5279209Y-29518310D01*
X5290000Y-29563256D01*
X5290000Y-29797303D01*
X5271093Y-29855494D01*
X5235946Y-29885512D01*
X5161065Y-29923666D01*
X5135670Y-29942115D01*
X5290000Y-30096445D01*
X5290000Y-30803555D01*
X4782115Y-30295670D01*
X4763668Y-30321063D01*
X4677914Y-30489364D01*
X4619546Y-30669003D01*
X4590000Y-30855554D01*
X4590000Y-31044445D01*
X4619546Y-31230996D01*
X4677914Y-31410635D01*
X4763666Y-31578934D01*
X4782115Y-31604328D01*
X5290000Y-31096443D01*
X5290000Y-31803553D01*
X5135670Y-31957883D01*
X5161059Y-31976330D01*
X5161067Y-31976334D01*
X5235944Y-32014485D01*
X5279209Y-32057749D01*
X5290000Y-32102695D01*
X5290000Y-32337303D01*
X5271093Y-32395494D01*
X5235946Y-32425512D01*
X5161065Y-32463666D01*
X5135670Y-32482115D01*
X5290000Y-32636445D01*
X5290000Y-33343554D01*
X4782115Y-32835670D01*
X4763668Y-32861063D01*
X4677914Y-33029364D01*
X4619546Y-33209003D01*
X4590000Y-33395554D01*
X4590000Y-33584445D01*
X4619546Y-33770996D01*
X4677914Y-33950635D01*
X4763666Y-34118934D01*
X4782115Y-34144328D01*
X5290000Y-33636443D01*
X5290000Y-34343553D01*
X5135670Y-34497883D01*
X5161059Y-34516330D01*
X5161067Y-34516334D01*
X5235944Y-34554485D01*
X5279209Y-34597749D01*
X5290000Y-34642695D01*
X5290000Y-34876742D01*
X5271093Y-34934933D01*
X5235945Y-34964952D01*
X5160803Y-35003238D01*
X5007928Y-35114309D01*
X4874309Y-35247928D01*
X4763238Y-35400803D01*
X4677453Y-35569167D01*
X4619058Y-35748886D01*
X4589500Y-35935515D01*
X4589500Y-36124484D01*
X4619058Y-36311113D01*
X4619060Y-36311118D01*
X4677453Y-36490832D01*
X4763240Y-36659199D01*
X4874310Y-36812073D01*
X5007927Y-36945690D01*
X5160801Y-37056760D01*
X5235946Y-37095048D01*
X5279209Y-37138310D01*
X5290000Y-37183256D01*
X5290000Y-37416742D01*
X5271093Y-37474933D01*
X5235945Y-37504952D01*
X5160803Y-37543238D01*
X5007928Y-37654309D01*
X4874309Y-37787928D01*
X4763238Y-37940803D01*
X4677453Y-38109167D01*
X4619058Y-38288886D01*
X4589500Y-38475515D01*
X4589500Y-38664484D01*
X4619058Y-38851113D01*
X4619060Y-38851118D01*
X4677453Y-39030832D01*
X4763240Y-39199199D01*
X4874310Y-39352073D01*
X5007927Y-39485690D01*
X5160801Y-39596760D01*
X5235946Y-39635048D01*
X5279209Y-39678310D01*
X5290000Y-39723256D01*
X5290000Y-39957303D01*
X5271093Y-40015494D01*
X5235946Y-40045512D01*
X5161065Y-40083666D01*
X5135670Y-40102115D01*
X5290000Y-40256445D01*
X5290000Y-40963555D01*
X4782115Y-40455670D01*
X4763668Y-40481063D01*
X4677914Y-40649364D01*
X4619546Y-40829003D01*
X4590000Y-41015554D01*
X4590000Y-41204445D01*
X4619546Y-41390996D01*
X4677914Y-41570635D01*
X4763666Y-41738934D01*
X4782115Y-41764328D01*
X5290000Y-41256443D01*
X5290000Y-41963553D01*
X5135670Y-42117883D01*
X5161059Y-42136330D01*
X5161067Y-42136334D01*
X5235944Y-42174485D01*
X5279209Y-42217749D01*
X5290000Y-42262695D01*
X5290000Y-42497303D01*
X5271093Y-42555494D01*
X5235946Y-42585512D01*
X5161065Y-42623666D01*
X5135670Y-42642115D01*
X5290000Y-42796445D01*
X5290000Y-43503555D01*
X4782115Y-42995670D01*
X4763668Y-43021063D01*
X4677914Y-43189364D01*
X4619546Y-43369003D01*
X4590000Y-43555554D01*
X4590000Y-43744445D01*
X4619546Y-43930996D01*
X4677914Y-44110635D01*
X4763666Y-44278934D01*
X4782115Y-44304328D01*
X5290000Y-43796443D01*
X5290000Y-44503553D01*
X5135670Y-44657883D01*
X5161059Y-44676330D01*
X5161067Y-44676334D01*
X5235944Y-44714485D01*
X5279209Y-44757749D01*
X5290000Y-44802695D01*
X5290000Y-45036742D01*
X5271093Y-45094933D01*
X5235945Y-45124952D01*
X5160803Y-45163238D01*
X5007928Y-45274309D01*
X4874309Y-45407928D01*
X4763238Y-45560803D01*
X4677453Y-45729167D01*
X4619058Y-45908886D01*
X4589500Y-46095515D01*
X4589500Y-46284484D01*
X4619058Y-46471113D01*
X4619060Y-46471118D01*
X4677453Y-46650832D01*
X4763240Y-46819199D01*
X4874310Y-46972073D01*
X5007927Y-47105690D01*
X5160801Y-47216760D01*
X5235946Y-47255048D01*
X5279209Y-47298310D01*
X5290000Y-47343256D01*
X5290000Y-47576742D01*
X5271093Y-47634933D01*
X5235945Y-47664952D01*
X5160803Y-47703238D01*
X5007928Y-47814309D01*
X4874309Y-47947928D01*
X4763238Y-48100803D01*
X4677453Y-48269167D01*
X4619058Y-48448886D01*
X4589500Y-48635515D01*
X4589500Y-48824484D01*
X4619058Y-49011113D01*
X4619060Y-49011118D01*
X4677453Y-49190832D01*
X4763240Y-49359199D01*
X4874310Y-49512073D01*
X5007927Y-49645690D01*
X5160801Y-49756760D01*
X5235946Y-49795048D01*
X5279209Y-49838310D01*
X5290000Y-49883256D01*
X5290000Y-50117303D01*
X5271093Y-50175494D01*
X5235946Y-50205512D01*
X5161065Y-50243666D01*
X5135670Y-50262115D01*
X5290000Y-50416445D01*
X5290000Y-51123555D01*
X4782115Y-50615670D01*
X4763668Y-50641063D01*
X4677914Y-50809364D01*
X4619546Y-50989003D01*
X4590000Y-51175554D01*
X4590000Y-51364445D01*
X4619546Y-51550996D01*
X4677914Y-51730635D01*
X4763666Y-51898934D01*
X4782115Y-51924328D01*
X5290000Y-51416443D01*
X5290000Y-52123553D01*
X5135670Y-52277883D01*
X5161059Y-52296330D01*
X5161067Y-52296334D01*
X5235944Y-52334485D01*
X5279209Y-52377749D01*
X5290000Y-52422695D01*
X5290000Y-52657303D01*
X5271093Y-52715494D01*
X5235946Y-52745512D01*
X5161065Y-52783666D01*
X5135670Y-52802115D01*
X5290000Y-52956445D01*
X5290000Y-53663555D01*
X4782115Y-53155670D01*
X4763668Y-53181063D01*
X4677914Y-53349364D01*
X4619546Y-53529003D01*
X4590000Y-53715554D01*
X4590000Y-53904445D01*
X4619546Y-54090996D01*
X4677914Y-54270635D01*
X4763666Y-54438934D01*
X4782115Y-54464328D01*
X5290000Y-53956443D01*
X5290000Y-54663553D01*
X5135670Y-54817883D01*
X5161059Y-54836330D01*
X5161067Y-54836334D01*
X5235944Y-54874485D01*
X5279209Y-54917749D01*
X5290000Y-54962695D01*
X5290000Y-55196742D01*
X5271093Y-55254933D01*
X5235945Y-55284952D01*
X5160803Y-55323238D01*
X5007928Y-55434309D01*
X4874309Y-55567928D01*
X4763238Y-55720803D01*
X4677453Y-55889167D01*
X4619058Y-56068886D01*
X4589500Y-56255515D01*
X4589500Y-56444484D01*
X4619058Y-56631113D01*
X4619060Y-56631118D01*
X4677453Y-56810832D01*
X4763240Y-56979199D01*
X4874310Y-57132073D01*
X5007927Y-57265690D01*
X5160801Y-57376760D01*
X5235946Y-57415048D01*
X5279209Y-57458310D01*
X5290000Y-57503256D01*
X5290000Y-57736742D01*
X5271093Y-57794933D01*
X5235945Y-57824952D01*
X5160803Y-57863238D01*
X5007928Y-57974309D01*
X4874309Y-58107928D01*
X4763238Y-58260803D01*
X4677453Y-58429167D01*
X4619058Y-58608886D01*
X4589500Y-58795515D01*
X4589500Y-58984484D01*
X4619058Y-59171113D01*
X4619060Y-59171118D01*
X4677453Y-59350832D01*
X4763240Y-59519199D01*
X4874310Y-59672073D01*
X5007927Y-59805690D01*
X5160801Y-59916760D01*
X5235946Y-59955048D01*
X5279209Y-59998310D01*
X5290000Y-60043256D01*
X5290000Y-60277303D01*
X5271093Y-60335494D01*
X5235946Y-60365512D01*
X5161065Y-60403666D01*
X5135670Y-60422115D01*
X5290000Y-60576445D01*
X5290000Y-61283555D01*
X4782115Y-60775670D01*
X4763668Y-60801063D01*
X4677914Y-60969364D01*
X4619546Y-61149003D01*
X4590000Y-61335554D01*
X4590000Y-61524445D01*
X4619546Y-61710996D01*
X4677914Y-61890635D01*
X4763666Y-62058934D01*
X4782115Y-62084328D01*
X5290000Y-61576443D01*
X5290000Y-62283553D01*
X5135670Y-62437883D01*
X5161059Y-62456330D01*
X5161067Y-62456334D01*
X5235944Y-62494485D01*
X5279209Y-62537749D01*
X5290000Y-62582695D01*
X5290000Y-62817303D01*
X5271093Y-62875494D01*
X5235946Y-62905512D01*
X5161065Y-62943666D01*
X5135670Y-62962115D01*
X5290000Y-63116445D01*
X5290000Y-63823555D01*
X4782115Y-63315670D01*
X4763668Y-63341063D01*
X4677914Y-63509364D01*
X4619546Y-63689003D01*
X4590000Y-63875554D01*
X4590000Y-64064445D01*
X4619546Y-64250996D01*
X4677914Y-64430635D01*
X4763666Y-64598934D01*
X4782115Y-64624328D01*
X5290000Y-64116443D01*
X5290000Y-64823553D01*
X5135670Y-64977883D01*
X5161059Y-64996330D01*
X5161067Y-64996334D01*
X5235944Y-65034485D01*
X5279209Y-65077749D01*
X5290000Y-65122695D01*
X5290000Y-65356742D01*
X5271093Y-65414933D01*
X5235945Y-65444952D01*
X5160803Y-65483238D01*
X5007928Y-65594309D01*
X4874309Y-65727928D01*
X4763238Y-65880803D01*
X4677453Y-66049167D01*
X4619058Y-66228886D01*
X4589500Y-66415515D01*
X4589500Y-66604484D01*
X4619058Y-66791113D01*
X4619060Y-66791118D01*
X4677453Y-66970832D01*
X4763240Y-67139199D01*
X4874310Y-67292073D01*
X5007927Y-67425690D01*
X5160801Y-67536760D01*
X5235946Y-67575048D01*
X5279209Y-67618310D01*
X5290000Y-67663256D01*
X5290000Y-67896742D01*
X5271093Y-67954933D01*
X5235945Y-67984952D01*
X5160803Y-68023238D01*
X5007928Y-68134309D01*
X4874309Y-68267928D01*
X4763238Y-68420803D01*
X4677453Y-68589167D01*
X4619058Y-68768886D01*
X4589500Y-68955515D01*
X4589500Y-69144484D01*
X4619058Y-69331113D01*
X4619060Y-69331118D01*
X4677453Y-69510832D01*
X4763240Y-69679199D01*
X4874310Y-69832073D01*
X5007927Y-69965690D01*
X5160801Y-70076760D01*
X5235946Y-70115048D01*
X5279209Y-70158310D01*
X5290000Y-70203256D01*
X5290000Y-70437303D01*
X5271093Y-70495494D01*
X5235946Y-70525512D01*
X5161065Y-70563666D01*
X5135670Y-70582115D01*
X5290000Y-70736445D01*
X5290000Y-71443555D01*
X4782115Y-70935670D01*
X4763668Y-70961063D01*
X4677914Y-71129364D01*
X4619546Y-71309003D01*
X4590000Y-71495554D01*
X4590000Y-71684445D01*
X4619546Y-71870996D01*
X4677914Y-72050635D01*
X4763666Y-72218934D01*
X4782115Y-72244328D01*
X5290000Y-71736443D01*
X5290000Y-72443553D01*
X5135670Y-72597883D01*
X5161059Y-72616330D01*
X5161067Y-72616334D01*
X5235944Y-72654485D01*
X5279209Y-72697749D01*
X5290000Y-72742695D01*
X5290000Y-72977303D01*
X5271093Y-73035494D01*
X5235946Y-73065512D01*
X5161065Y-73103666D01*
X5135670Y-73122115D01*
X5290000Y-73276445D01*
X5290000Y-73983555D01*
X4782115Y-73475670D01*
X4763668Y-73501063D01*
X4677914Y-73669364D01*
X4619546Y-73849003D01*
X4590000Y-74035554D01*
X4590000Y-74224445D01*
X4619546Y-74410996D01*
X4677914Y-74590635D01*
X4763666Y-74758934D01*
X4782115Y-74784328D01*
X5290000Y-74276443D01*
X5290000Y-74983553D01*
X5135670Y-75137883D01*
X5161059Y-75156330D01*
X5161067Y-75156334D01*
X5235944Y-75194485D01*
X5279209Y-75237749D01*
X5290000Y-75282695D01*
X5290000Y-75516742D01*
X5271093Y-75574933D01*
X5235945Y-75604952D01*
X5160803Y-75643238D01*
X5007928Y-75754309D01*
X4874309Y-75887928D01*
X4763238Y-76040803D01*
X4677453Y-76209167D01*
X4619058Y-76388886D01*
X4589500Y-76575515D01*
X4589500Y-76764484D01*
X4619058Y-76951113D01*
X4619060Y-76951118D01*
X4677453Y-77130832D01*
X4763240Y-77299199D01*
X4874310Y-77452073D01*
X5007927Y-77585690D01*
X5160801Y-77696760D01*
X5235946Y-77735048D01*
X5279209Y-77778310D01*
X5290000Y-77823256D01*
X5290000Y-78056742D01*
X5271093Y-78114933D01*
X5235945Y-78144952D01*
X5160803Y-78183238D01*
X5007928Y-78294309D01*
X4874309Y-78427928D01*
X4763238Y-78580803D01*
X4677453Y-78749167D01*
X4619058Y-78928886D01*
X4589500Y-79115515D01*
X4589500Y-79304484D01*
X4619058Y-79491113D01*
X4619060Y-79491118D01*
X4677453Y-79670832D01*
X4763240Y-79839199D01*
X4874310Y-79992073D01*
X5007927Y-80125690D01*
X5160801Y-80236760D01*
X5290000Y-80302589D01*
X5290000Y-81867409D01*
X5160803Y-81933238D01*
X5007928Y-82044309D01*
X4874305Y-82177932D01*
X4770596Y-82320675D01*
X4721096Y-82356639D01*
X4716127Y-82358111D01*
X4710943Y-82359500D01*
X4558216Y-82400423D01*
X4421284Y-82479480D01*
X4309480Y-82591284D01*
X4230423Y-82728216D01*
X4189500Y-82880943D01*
X4189500Y-83039057D01*
X4230423Y-83191784D01*
X4309480Y-83328716D01*
X4421284Y-83440520D01*
X4558216Y-83519577D01*
X4666124Y-83548490D01*
X4717437Y-83581814D01*
X4739364Y-83638936D01*
X4739500Y-83644117D01*
X4739500Y-84815882D01*
X4720593Y-84874073D01*
X4671093Y-84910037D01*
X4666124Y-84911508D01*
X4558219Y-84940421D01*
X4558218Y-84940421D01*
X4450864Y-85002402D01*
X4421284Y-85019480D01*
X4309480Y-85131284D01*
X4230423Y-85268216D01*
X4189500Y-85420943D01*
X4189500Y-85579057D01*
X4230423Y-85731784D01*
X4309480Y-85868716D01*
X4421284Y-85980520D01*
X4558216Y-86059577D01*
X4710943Y-86100500D01*
X4710947Y-86100500D01*
X4716127Y-86101888D01*
X4767441Y-86135212D01*
X4770583Y-86139306D01*
X4874310Y-86282073D01*
X5007927Y-86415690D01*
X5160801Y-86526760D01*
X5197194Y-86545303D01*
X5240458Y-86588567D01*
X5250029Y-86648999D01*
X5222252Y-86703515D01*
X5209032Y-86714608D01*
X5100194Y-86790817D01*
X5100178Y-86790829D01*
X4745632Y-87088328D01*
X4418328Y-87415632D01*
X4120829Y-87770178D01*
X4120817Y-87770194D01*
X3855342Y-88149334D01*
X3855341Y-88149335D01*
X3684736Y-88444832D01*
X3639267Y-88485773D01*
X3578417Y-88492169D01*
X3525429Y-88461576D01*
X3500542Y-88405680D01*
X3500000Y-88395332D01*
X3500000Y-3804891D01*
X3500482Y-3795133D01*
X3504847Y-3751103D01*
X3508590Y-3732260D01*
X3519951Y-3694632D01*
X3527450Y-3676518D01*
X3546010Y-3641868D01*
X3556771Y-3625788D01*
X3581752Y-3595382D01*
X3595382Y-3581752D01*
X3625788Y-3556771D01*
X3641868Y-3546010D01*
X3676518Y-3527450D01*
X3694629Y-3519952D01*
X3732264Y-3508588D01*
X3751105Y-3504847D01*
X3800000Y-3500000D01*
X4990000Y-3500000D01*
X5048500Y-3505800D01*
G37*
%TD.AperFunction*%
%TD*%
M02*
