M48
; DRILL file {KiCad 9.0.6} date 2026-03-25T19:20:33+0100
; FORMAT={-:-/ absolute / metric / decimal}
; #@! TF.CreationDate,2026-03-25T19:20:33+01:00
; #@! TF.GenerationSoftware,Kicad,Pcbnew,9.0.6
; #@! TF.FileFunction,MixedPlating,1,2
FMAT,2
METRIC
; #@! TA.AperFunction,Plated,PTH,ViaDrill
T1C0.300
; #@! TA.AperFunction,Plated,PTH,ViaDrill
T2C0.400
; #@! TA.AperFunction,Plated,PTH,ComponentDrill
T3C1.000
; #@! TA.AperFunction,Plated,PTH,ComponentDrill
T4C2.000
%
G90
G05
T1
X4.79Y-82.96
X4.79Y-85.5
X6.79Y-82.96
X6.79Y-85.5
X7.33Y-82.96
X7.33Y-85.5
X9.33Y-82.96
X9.33Y-85.5
X9.87Y-82.96
X9.87Y-85.5
X11.87Y-82.96
X11.87Y-85.5
X58.13Y-82.96
X58.13Y-85.5
X60.13Y-82.96
X60.13Y-85.5
X60.67Y-82.96
X60.67Y-85.5
X62.67Y-82.96
X62.67Y-85.5
X63.21Y-82.96
X63.21Y-85.5
X65.21Y-82.96
X65.21Y-85.5
T2
X4.53Y-92.0
X5.643Y-89.313
X5.643Y-94.687
X8.33Y-88.2
X8.33Y-95.8
X11.017Y-89.313
X11.017Y-94.687
X12.13Y-92.0
X57.87Y-92.0
X58.983Y-89.313
X58.983Y-94.687
X61.67Y-88.2
X61.67Y-95.8
X64.357Y-89.313
X64.357Y-94.687
X65.47Y-92.0
T3
X5.79Y-5.55
X5.79Y-8.09
X5.79Y-10.63
X5.79Y-13.17
X5.79Y-15.71
X5.79Y-18.25
X5.79Y-20.79
X5.79Y-23.33
X5.79Y-25.87
X5.79Y-28.41
X5.79Y-30.95
X5.79Y-33.49
X5.79Y-36.03
X5.79Y-38.57
X5.79Y-41.11
X5.79Y-43.65
X5.79Y-46.19
X5.79Y-48.73
X5.79Y-51.27
X5.79Y-53.81
X5.79Y-56.35
X5.79Y-58.89
X5.79Y-61.43
X5.79Y-63.97
X5.79Y-66.51
X5.79Y-69.05
X5.79Y-71.59
X5.79Y-74.13
X5.79Y-76.67
X5.79Y-79.21
X5.79Y-82.96
X5.79Y-85.5
X8.33Y-5.55
X8.33Y-8.09
X8.33Y-10.63
X8.33Y-13.17
X8.33Y-15.71
X8.33Y-18.25
X8.33Y-20.79
X8.33Y-23.33
X8.33Y-25.87
X8.33Y-28.41
X8.33Y-30.95
X8.33Y-33.49
X8.33Y-36.03
X8.33Y-38.57
X8.33Y-41.11
X8.33Y-43.65
X8.33Y-46.19
X8.33Y-48.73
X8.33Y-51.27
X8.33Y-53.81
X8.33Y-56.35
X8.33Y-58.89
X8.33Y-61.43
X8.33Y-63.97
X8.33Y-66.51
X8.33Y-69.05
X8.33Y-71.59
X8.33Y-74.13
X8.33Y-76.67
X8.33Y-79.21
X8.33Y-82.96
X8.33Y-85.5
X10.87Y-5.55
X10.87Y-8.09
X10.87Y-10.63
X10.87Y-13.17
X10.87Y-15.71
X10.87Y-18.25
X10.87Y-20.79
X10.87Y-23.33
X10.87Y-25.87
X10.87Y-28.41
X10.87Y-30.95
X10.87Y-33.49
X10.87Y-36.03
X10.87Y-38.57
X10.87Y-41.11
X10.87Y-43.65
X10.87Y-46.19
X10.87Y-48.73
X10.87Y-51.27
X10.87Y-53.81
X10.87Y-56.35
X10.87Y-58.89
X10.87Y-61.43
X10.87Y-63.97
X10.87Y-66.51
X10.87Y-69.05
X10.87Y-71.59
X10.87Y-74.13
X10.87Y-76.67
X10.87Y-79.21
X10.87Y-82.96
X10.87Y-85.5
X13.41Y-5.55
X13.41Y-8.09
X13.41Y-10.63
X13.41Y-13.17
X13.41Y-15.71
X13.41Y-18.25
X13.41Y-20.79
X13.41Y-23.33
X13.41Y-25.87
X13.41Y-28.41
X13.41Y-30.95
X13.41Y-33.49
X13.41Y-36.03
X13.41Y-38.57
X13.41Y-41.11
X13.41Y-43.65
X13.41Y-46.19
X13.41Y-48.73
X13.41Y-51.27
X13.41Y-53.81
X13.41Y-56.35
X13.41Y-58.89
X13.41Y-61.43
X13.41Y-63.97
X13.41Y-66.51
X13.41Y-69.05
X13.41Y-71.59
X13.41Y-74.13
X13.41Y-76.67
X13.41Y-79.21
X15.95Y-5.55
X15.95Y-8.09
X15.95Y-10.63
X15.95Y-13.17
X15.95Y-15.71
X15.95Y-18.25
X15.95Y-20.79
X15.95Y-23.33
X15.95Y-25.87
X15.95Y-28.41
X15.95Y-30.95
X15.95Y-33.49
X15.95Y-36.03
X15.95Y-38.57
X15.95Y-41.11
X15.95Y-43.65
X15.95Y-46.19
X15.95Y-48.73
X15.95Y-51.27
X15.95Y-53.81
X15.95Y-56.35
X15.95Y-58.89
X15.95Y-61.43
X15.95Y-63.97
X15.95Y-66.51
X15.95Y-69.05
X15.95Y-71.59
X15.95Y-74.13
X15.95Y-76.67
X15.95Y-79.21
X18.49Y-5.55
X18.49Y-8.09
X18.49Y-10.63
X18.49Y-13.17
X18.49Y-15.71
X18.49Y-18.25
X18.49Y-20.79
X18.49Y-23.33
X18.49Y-25.87
X18.49Y-28.41
X18.49Y-30.95
X18.49Y-33.49
X18.49Y-36.03
X18.49Y-38.57
X18.49Y-41.11
X18.49Y-43.65
X18.49Y-46.19
X18.49Y-48.73
X18.49Y-51.27
X18.49Y-53.81
X18.49Y-56.35
X18.49Y-58.89
X18.49Y-61.43
X18.49Y-63.97
X18.49Y-66.51
X18.49Y-69.05
X18.49Y-71.59
X18.49Y-74.13
X18.49Y-76.67
X18.49Y-79.21
X21.03Y-5.55
X21.03Y-8.09
X21.03Y-10.63
X21.03Y-13.17
X21.03Y-15.71
X21.03Y-18.25
X21.03Y-20.79
X21.03Y-23.33
X21.03Y-25.87
X21.03Y-28.41
X21.03Y-30.95
X21.03Y-33.49
X21.03Y-36.03
X21.03Y-38.57
X21.03Y-41.11
X21.03Y-43.65
X21.03Y-46.19
X21.03Y-48.73
X21.03Y-51.27
X21.03Y-53.81
X21.03Y-56.35
X21.03Y-58.89
X21.03Y-61.43
X21.03Y-63.97
X21.03Y-66.51
X21.03Y-69.05
X21.03Y-71.59
X21.03Y-74.13
X21.03Y-76.67
X21.03Y-79.21
X23.57Y-5.55
X23.57Y-8.09
X23.57Y-10.63
X23.57Y-13.17
X23.57Y-15.71
X23.57Y-18.25
X23.57Y-20.79
X23.57Y-23.33
X23.57Y-25.87
X23.57Y-28.41
X23.57Y-30.95
X23.57Y-33.49
X23.57Y-36.03
X23.57Y-38.57
X23.57Y-41.11
X23.57Y-43.65
X23.57Y-46.19
X23.57Y-48.73
X23.57Y-51.27
X23.57Y-53.81
X23.57Y-56.35
X23.57Y-58.89
X23.57Y-61.43
X23.57Y-63.97
X23.57Y-66.51
X23.57Y-69.05
X23.57Y-71.59
X23.57Y-74.13
X23.57Y-76.67
X23.57Y-79.21
X26.11Y-5.55
X26.11Y-8.09
X26.11Y-10.63
X26.11Y-13.17
X26.11Y-15.71
X26.11Y-18.25
X26.11Y-20.79
X26.11Y-23.33
X26.11Y-25.87
X26.11Y-28.41
X26.11Y-30.95
X26.11Y-33.49
X26.11Y-36.03
X26.11Y-38.57
X26.11Y-41.11
X26.11Y-43.65
X26.11Y-46.19
X26.11Y-48.73
X26.11Y-51.27
X26.11Y-53.81
X26.11Y-56.35
X26.11Y-58.89
X26.11Y-61.43
X26.11Y-63.97
X26.11Y-66.51
X26.11Y-69.05
X26.11Y-71.59
X26.11Y-74.13
X26.11Y-76.67
X26.11Y-79.21
X28.65Y-5.55
X28.65Y-8.09
X28.65Y-10.63
X28.65Y-13.17
X28.65Y-15.71
X28.65Y-18.25
X28.65Y-20.79
X28.65Y-23.33
X28.65Y-25.87
X28.65Y-28.41
X28.65Y-30.95
X28.65Y-33.49
X28.65Y-36.03
X28.65Y-38.57
X28.65Y-41.11
X28.65Y-43.65
X28.65Y-46.19
X28.65Y-48.73
X28.65Y-51.27
X28.65Y-53.81
X28.65Y-56.35
X28.65Y-58.89
X28.65Y-61.43
X28.65Y-63.97
X28.65Y-66.51
X28.65Y-69.05
X28.65Y-71.59
X28.65Y-74.13
X28.65Y-76.67
X28.65Y-79.21
X31.19Y-5.55
X31.19Y-8.09
X31.19Y-10.63
X31.19Y-13.17
X31.19Y-15.71
X31.19Y-18.25
X31.19Y-20.79
X31.19Y-23.33
X31.19Y-25.87
X31.19Y-28.41
X31.19Y-30.95
X31.19Y-33.49
X31.19Y-36.03
X31.19Y-38.57
X31.19Y-41.11
X31.19Y-43.65
X31.19Y-46.19
X31.19Y-48.73
X31.19Y-51.27
X31.19Y-53.81
X31.19Y-56.35
X31.19Y-58.89
X31.19Y-61.43
X31.19Y-63.97
X31.19Y-66.51
X31.19Y-69.05
X31.19Y-71.59
X31.19Y-74.13
X31.19Y-76.67
X31.19Y-79.21
X33.73Y-5.55
X33.73Y-8.09
X33.73Y-10.63
X33.73Y-13.17
X33.73Y-15.71
X33.73Y-18.25
X33.73Y-20.79
X33.73Y-23.33
X33.73Y-25.87
X33.73Y-28.41
X33.73Y-30.95
X33.73Y-33.49
X33.73Y-36.03
X33.73Y-38.57
X33.73Y-41.11
X33.73Y-43.65
X33.73Y-46.19
X33.73Y-48.73
X33.73Y-51.27
X33.73Y-53.81
X33.73Y-56.35
X33.73Y-58.89
X33.73Y-61.43
X33.73Y-63.97
X33.73Y-66.51
X33.73Y-69.05
X33.73Y-71.59
X33.73Y-74.13
X33.73Y-76.67
X33.73Y-79.21
X36.27Y-5.55
X36.27Y-8.09
X36.27Y-10.63
X36.27Y-13.17
X36.27Y-15.71
X36.27Y-18.25
X36.27Y-20.79
X36.27Y-23.33
X36.27Y-25.87
X36.27Y-28.41
X36.27Y-30.95
X36.27Y-33.49
X36.27Y-36.03
X36.27Y-38.57
X36.27Y-41.11
X36.27Y-43.65
X36.27Y-46.19
X36.27Y-48.73
X36.27Y-51.27
X36.27Y-53.81
X36.27Y-56.35
X36.27Y-58.89
X36.27Y-61.43
X36.27Y-63.97
X36.27Y-66.51
X36.27Y-69.05
X36.27Y-71.59
X36.27Y-74.13
X36.27Y-76.67
X36.27Y-79.21
X38.81Y-5.55
X38.81Y-8.09
X38.81Y-10.63
X38.81Y-13.17
X38.81Y-15.71
X38.81Y-18.25
X38.81Y-20.79
X38.81Y-23.33
X38.81Y-25.87
X38.81Y-28.41
X38.81Y-30.95
X38.81Y-33.49
X38.81Y-36.03
X38.81Y-38.57
X38.81Y-41.11
X38.81Y-43.65
X38.81Y-46.19
X38.81Y-48.73
X38.81Y-51.27
X38.81Y-53.81
X38.81Y-56.35
X38.81Y-58.89
X38.81Y-61.43
X38.81Y-63.97
X38.81Y-66.51
X38.81Y-69.05
X38.81Y-71.59
X38.81Y-74.13
X38.81Y-76.67
X38.81Y-79.21
X41.35Y-5.55
X41.35Y-8.09
X41.35Y-10.63
X41.35Y-13.17
X41.35Y-15.71
X41.35Y-18.25
X41.35Y-20.79
X41.35Y-23.33
X41.35Y-25.87
X41.35Y-28.41
X41.35Y-30.95
X41.35Y-33.49
X41.35Y-36.03
X41.35Y-38.57
X41.35Y-41.11
X41.35Y-43.65
X41.35Y-46.19
X41.35Y-48.73
X41.35Y-51.27
X41.35Y-53.81
X41.35Y-56.35
X41.35Y-58.89
X41.35Y-61.43
X41.35Y-63.97
X41.35Y-66.51
X41.35Y-69.05
X41.35Y-71.59
X41.35Y-74.13
X41.35Y-76.67
X41.35Y-79.21
X43.89Y-5.55
X43.89Y-8.09
X43.89Y-10.63
X43.89Y-13.17
X43.89Y-15.71
X43.89Y-18.25
X43.89Y-20.79
X43.89Y-23.33
X43.89Y-25.87
X43.89Y-28.41
X43.89Y-30.95
X43.89Y-33.49
X43.89Y-36.03
X43.89Y-38.57
X43.89Y-41.11
X43.89Y-43.65
X43.89Y-46.19
X43.89Y-48.73
X43.89Y-51.27
X43.89Y-53.81
X43.89Y-56.35
X43.89Y-58.89
X43.89Y-61.43
X43.89Y-63.97
X43.89Y-66.51
X43.89Y-69.05
X43.89Y-71.59
X43.89Y-74.13
X43.89Y-76.67
X43.89Y-79.21
X46.43Y-5.55
X46.43Y-8.09
X46.43Y-10.63
X46.43Y-13.17
X46.43Y-15.71
X46.43Y-18.25
X46.43Y-20.79
X46.43Y-23.33
X46.43Y-25.87
X46.43Y-28.41
X46.43Y-30.95
X46.43Y-33.49
X46.43Y-36.03
X46.43Y-38.57
X46.43Y-41.11
X46.43Y-43.65
X46.43Y-46.19
X46.43Y-48.73
X46.43Y-51.27
X46.43Y-53.81
X46.43Y-56.35
X46.43Y-58.89
X46.43Y-61.43
X46.43Y-63.97
X46.43Y-66.51
X46.43Y-69.05
X46.43Y-71.59
X46.43Y-74.13
X46.43Y-76.67
X46.43Y-79.21
X48.97Y-5.55
X48.97Y-8.09
X48.97Y-10.63
X48.97Y-13.17
X48.97Y-15.71
X48.97Y-18.25
X48.97Y-20.79
X48.97Y-23.33
X48.97Y-25.87
X48.97Y-28.41
X48.97Y-30.95
X48.97Y-33.49
X48.97Y-36.03
X48.97Y-38.57
X48.97Y-41.11
X48.97Y-43.65
X48.97Y-46.19
X48.97Y-48.73
X48.97Y-51.27
X48.97Y-53.81
X48.97Y-56.35
X48.97Y-58.89
X48.97Y-61.43
X48.97Y-63.97
X48.97Y-66.51
X48.97Y-69.05
X48.97Y-71.59
X48.97Y-74.13
X48.97Y-76.67
X48.97Y-79.21
X51.51Y-5.55
X51.51Y-8.09
X51.51Y-10.63
X51.51Y-13.17
X51.51Y-15.71
X51.51Y-18.25
X51.51Y-20.79
X51.51Y-23.33
X51.51Y-25.87
X51.51Y-28.41
X51.51Y-30.95
X51.51Y-33.49
X51.51Y-36.03
X51.51Y-38.57
X51.51Y-41.11
X51.51Y-43.65
X51.51Y-46.19
X51.51Y-48.73
X51.51Y-51.27
X51.51Y-53.81
X51.51Y-56.35
X51.51Y-58.89
X51.51Y-61.43
X51.51Y-63.97
X51.51Y-66.51
X51.51Y-69.05
X51.51Y-71.59
X51.51Y-74.13
X51.51Y-76.67
X51.51Y-79.21
X54.05Y-5.55
X54.05Y-8.09
X54.05Y-10.63
X54.05Y-13.17
X54.05Y-15.71
X54.05Y-18.25
X54.05Y-20.79
X54.05Y-23.33
X54.05Y-25.87
X54.05Y-28.41
X54.05Y-30.95
X54.05Y-33.49
X54.05Y-36.03
X54.05Y-38.57
X54.05Y-41.11
X54.05Y-43.65
X54.05Y-46.19
X54.05Y-48.73
X54.05Y-51.27
X54.05Y-53.81
X54.05Y-56.35
X54.05Y-58.89
X54.05Y-61.43
X54.05Y-63.97
X54.05Y-66.51
X54.05Y-69.05
X54.05Y-71.59
X54.05Y-74.13
X54.05Y-76.67
X54.05Y-79.21
X56.59Y-5.55
X56.59Y-8.09
X56.59Y-10.63
X56.59Y-13.17
X56.59Y-15.71
X56.59Y-18.25
X56.59Y-20.79
X56.59Y-23.33
X56.59Y-25.87
X56.59Y-28.41
X56.59Y-30.95
X56.59Y-33.49
X56.59Y-36.03
X56.59Y-38.57
X56.59Y-41.11
X56.59Y-43.65
X56.59Y-46.19
X56.59Y-48.73
X56.59Y-51.27
X56.59Y-53.81
X56.59Y-56.35
X56.59Y-58.89
X56.59Y-61.43
X56.59Y-63.97
X56.59Y-66.51
X56.59Y-69.05
X56.59Y-71.59
X56.59Y-74.13
X56.59Y-76.67
X56.59Y-79.21
X59.13Y-5.55
X59.13Y-8.09
X59.13Y-10.63
X59.13Y-13.17
X59.13Y-15.71
X59.13Y-18.25
X59.13Y-20.79
X59.13Y-23.33
X59.13Y-25.87
X59.13Y-28.41
X59.13Y-30.95
X59.13Y-33.49
X59.13Y-36.03
X59.13Y-38.57
X59.13Y-41.11
X59.13Y-43.65
X59.13Y-46.19
X59.13Y-48.73
X59.13Y-51.27
X59.13Y-53.81
X59.13Y-56.35
X59.13Y-58.89
X59.13Y-61.43
X59.13Y-63.97
X59.13Y-66.51
X59.13Y-69.05
X59.13Y-71.59
X59.13Y-74.13
X59.13Y-76.67
X59.13Y-79.21
X59.13Y-82.96
X59.13Y-85.5
X61.67Y-5.55
X61.67Y-8.09
X61.67Y-10.63
X61.67Y-13.17
X61.67Y-15.71
X61.67Y-18.25
X61.67Y-20.79
X61.67Y-23.33
X61.67Y-25.87
X61.67Y-28.41
X61.67Y-30.95
X61.67Y-33.49
X61.67Y-36.03
X61.67Y-38.57
X61.67Y-41.11
X61.67Y-43.65
X61.67Y-46.19
X61.67Y-48.73
X61.67Y-51.27
X61.67Y-53.81
X61.67Y-56.35
X61.67Y-58.89
X61.67Y-61.43
X61.67Y-63.97
X61.67Y-66.51
X61.67Y-69.05
X61.67Y-71.59
X61.67Y-74.13
X61.67Y-76.67
X61.67Y-79.21
X61.67Y-82.96
X61.67Y-85.5
X64.21Y-5.55
X64.21Y-8.09
X64.21Y-10.63
X64.21Y-13.17
X64.21Y-15.71
X64.21Y-18.25
X64.21Y-20.79
X64.21Y-23.33
X64.21Y-25.87
X64.21Y-28.41
X64.21Y-30.95
X64.21Y-33.49
X64.21Y-36.03
X64.21Y-38.57
X64.21Y-41.11
X64.21Y-43.65
X64.21Y-46.19
X64.21Y-48.73
X64.21Y-51.27
X64.21Y-53.81
X64.21Y-56.35
X64.21Y-58.89
X64.21Y-61.43
X64.21Y-63.97
X64.21Y-66.51
X64.21Y-69.05
X64.21Y-71.59
X64.21Y-74.13
X64.21Y-76.67
X64.21Y-79.21
X64.21Y-82.96
X64.21Y-85.5
T4
X8.33Y-90.5G85X8.33Y-93.5
G05
X61.67Y-90.5G85X61.67Y-93.5
G05
M30
