M48
; DRILL file {KiCad 9.0.6} date 2026-03-04T14:49:14+0100
; FORMAT={-:-/ absolute / metric / decimal}
; #@! TF.CreationDate,2026-03-04T14:49:14+01:00
; #@! TF.GenerationSoftware,Kicad,Pcbnew,9.0.6
; #@! TF.FileFunction,Plated,1,2,PTH
FMAT,2
METRIC
; #@! TA.AperFunction,Plated,PTH,ViaDrill
T1C0.300
; #@! TA.AperFunction,Plated,PTH,ViaDrill
T2C0.400
; #@! TA.AperFunction,Plated,PTH,ComponentDrill
T3C1.000
; #@! TA.AperFunction,Plated,PTH,ComponentDrill
T4C2.000
%
G90
G05
T1
X4.0Y-81.2
X4.0Y-83.74
X6.0Y-81.2
X6.0Y-83.74
X6.54Y-81.2
X6.54Y-83.74
X8.54Y-81.2
X8.54Y-83.74
X9.08Y-81.2
X9.08Y-83.74
X11.08Y-81.2
X11.08Y-83.74
X57.34Y-81.2
X57.34Y-83.74
X59.34Y-81.2
X59.34Y-83.74
X59.88Y-81.2
X59.88Y-83.74
X61.88Y-81.2
X61.88Y-83.74
X62.42Y-81.2
X62.42Y-83.74
X64.42Y-81.2
X64.42Y-83.74
T2
X3.74Y-92.0
X4.853Y-89.313
X4.853Y-94.687
X7.54Y-88.2
X7.54Y-95.8
X10.227Y-89.313
X10.227Y-94.687
X11.34Y-92.0
X57.08Y-92.0
X58.193Y-89.313
X58.193Y-94.687
X60.88Y-88.2
X60.88Y-95.8
X63.567Y-89.313
X63.567Y-94.687
X64.68Y-92.0
T3
X5.0Y-5.0
X5.0Y-7.54
X5.0Y-10.08
X5.0Y-12.62
X5.0Y-15.16
X5.0Y-17.7
X5.0Y-20.24
X5.0Y-22.78
X5.0Y-25.32
X5.0Y-27.86
X5.0Y-30.4
X5.0Y-32.94
X5.0Y-35.48
X5.0Y-38.02
X5.0Y-40.56
X5.0Y-43.1
X5.0Y-45.64
X5.0Y-48.18
X5.0Y-50.72
X5.0Y-53.26
X5.0Y-55.8
X5.0Y-58.34
X5.0Y-60.88
X5.0Y-63.42
X5.0Y-65.96
X5.0Y-68.5
X5.0Y-71.04
X5.0Y-73.58
X5.0Y-76.12
X5.0Y-78.66
X5.0Y-81.2
X5.0Y-83.74
X7.54Y-5.0
X7.54Y-7.54
X7.54Y-10.08
X7.54Y-12.62
X7.54Y-15.16
X7.54Y-17.7
X7.54Y-20.24
X7.54Y-22.78
X7.54Y-25.32
X7.54Y-27.86
X7.54Y-30.4
X7.54Y-32.94
X7.54Y-35.48
X7.54Y-38.02
X7.54Y-40.56
X7.54Y-43.1
X7.54Y-45.64
X7.54Y-48.18
X7.54Y-50.72
X7.54Y-53.26
X7.54Y-55.8
X7.54Y-58.34
X7.54Y-60.88
X7.54Y-63.42
X7.54Y-65.96
X7.54Y-68.5
X7.54Y-71.04
X7.54Y-73.58
X7.54Y-76.12
X7.54Y-78.66
X7.54Y-81.2
X7.54Y-83.74
X10.08Y-5.0
X10.08Y-7.54
X10.08Y-10.08
X10.08Y-12.62
X10.08Y-15.16
X10.08Y-17.7
X10.08Y-20.24
X10.08Y-22.78
X10.08Y-25.32
X10.08Y-27.86
X10.08Y-30.4
X10.08Y-32.94
X10.08Y-35.48
X10.08Y-38.02
X10.08Y-40.56
X10.08Y-43.1
X10.08Y-45.64
X10.08Y-48.18
X10.08Y-50.72
X10.08Y-53.26
X10.08Y-55.8
X10.08Y-58.34
X10.08Y-60.88
X10.08Y-63.42
X10.08Y-65.96
X10.08Y-68.5
X10.08Y-71.04
X10.08Y-73.58
X10.08Y-76.12
X10.08Y-78.66
X10.08Y-81.2
X10.08Y-83.74
X12.62Y-5.0
X12.62Y-7.54
X12.62Y-10.08
X12.62Y-12.62
X12.62Y-15.16
X12.62Y-17.7
X12.62Y-20.24
X12.62Y-22.78
X12.62Y-25.32
X12.62Y-27.86
X12.62Y-30.4
X12.62Y-32.94
X12.62Y-35.48
X12.62Y-38.02
X12.62Y-40.56
X12.62Y-43.1
X12.62Y-45.64
X12.62Y-48.18
X12.62Y-50.72
X12.62Y-53.26
X12.62Y-55.8
X12.62Y-58.34
X12.62Y-60.88
X12.62Y-63.42
X12.62Y-65.96
X12.62Y-68.5
X12.62Y-71.04
X12.62Y-73.58
X12.62Y-76.12
X12.62Y-78.66
X15.16Y-5.0
X15.16Y-7.54
X15.16Y-10.08
X15.16Y-12.62
X15.16Y-15.16
X15.16Y-17.7
X15.16Y-20.24
X15.16Y-22.78
X15.16Y-25.32
X15.16Y-27.86
X15.16Y-30.4
X15.16Y-32.94
X15.16Y-35.48
X15.16Y-38.02
X15.16Y-40.56
X15.16Y-43.1
X15.16Y-45.64
X15.16Y-48.18
X15.16Y-50.72
X15.16Y-53.26
X15.16Y-55.8
X15.16Y-58.34
X15.16Y-60.88
X15.16Y-63.42
X15.16Y-65.96
X15.16Y-68.5
X15.16Y-71.04
X15.16Y-73.58
X15.16Y-76.12
X15.16Y-78.66
X17.7Y-5.0
X17.7Y-7.54
X17.7Y-10.08
X17.7Y-12.62
X17.7Y-15.16
X17.7Y-17.7
X17.7Y-20.24
X17.7Y-22.78
X17.7Y-25.32
X17.7Y-27.86
X17.7Y-30.4
X17.7Y-32.94
X17.7Y-35.48
X17.7Y-38.02
X17.7Y-40.56
X17.7Y-43.1
X17.7Y-45.64
X17.7Y-48.18
X17.7Y-50.72
X17.7Y-53.26
X17.7Y-55.8
X17.7Y-58.34
X17.7Y-60.88
X17.7Y-63.42
X17.7Y-65.96
X17.7Y-68.5
X17.7Y-71.04
X17.7Y-73.58
X17.7Y-76.12
X17.7Y-78.66
X20.24Y-5.0
X20.24Y-7.54
X20.24Y-10.08
X20.24Y-12.62
X20.24Y-15.16
X20.24Y-17.7
X20.24Y-20.24
X20.24Y-22.78
X20.24Y-25.32
X20.24Y-27.86
X20.24Y-30.4
X20.24Y-32.94
X20.24Y-35.48
X20.24Y-38.02
X20.24Y-40.56
X20.24Y-43.1
X20.24Y-45.64
X20.24Y-48.18
X20.24Y-50.72
X20.24Y-53.26
X20.24Y-55.8
X20.24Y-58.34
X20.24Y-60.88
X20.24Y-63.42
X20.24Y-65.96
X20.24Y-68.5
X20.24Y-71.04
X20.24Y-73.58
X20.24Y-76.12
X20.24Y-78.66
X22.78Y-5.0
X22.78Y-7.54
X22.78Y-10.08
X22.78Y-12.62
X22.78Y-15.16
X22.78Y-17.7
X22.78Y-20.24
X22.78Y-22.78
X22.78Y-25.32
X22.78Y-27.86
X22.78Y-30.4
X22.78Y-32.94
X22.78Y-35.48
X22.78Y-38.02
X22.78Y-40.56
X22.78Y-43.1
X22.78Y-45.64
X22.78Y-48.18
X22.78Y-50.72
X22.78Y-53.26
X22.78Y-55.8
X22.78Y-58.34
X22.78Y-60.88
X22.78Y-63.42
X22.78Y-65.96
X22.78Y-68.5
X22.78Y-71.04
X22.78Y-73.58
X22.78Y-76.12
X22.78Y-78.66
X25.32Y-5.0
X25.32Y-7.54
X25.32Y-10.08
X25.32Y-12.62
X25.32Y-15.16
X25.32Y-17.7
X25.32Y-20.24
X25.32Y-22.78
X25.32Y-25.32
X25.32Y-27.86
X25.32Y-30.4
X25.32Y-32.94
X25.32Y-35.48
X25.32Y-38.02
X25.32Y-40.56
X25.32Y-43.1
X25.32Y-45.64
X25.32Y-48.18
X25.32Y-50.72
X25.32Y-53.26
X25.32Y-55.8
X25.32Y-58.34
X25.32Y-60.88
X25.32Y-63.42
X25.32Y-65.96
X25.32Y-68.5
X25.32Y-71.04
X25.32Y-73.58
X25.32Y-76.12
X25.32Y-78.66
X27.86Y-5.0
X27.86Y-7.54
X27.86Y-10.08
X27.86Y-12.62
X27.86Y-15.16
X27.86Y-17.7
X27.86Y-20.24
X27.86Y-22.78
X27.86Y-25.32
X27.86Y-27.86
X27.86Y-30.4
X27.86Y-32.94
X27.86Y-35.48
X27.86Y-38.02
X27.86Y-40.56
X27.86Y-43.1
X27.86Y-45.64
X27.86Y-48.18
X27.86Y-50.72
X27.86Y-53.26
X27.86Y-55.8
X27.86Y-58.34
X27.86Y-60.88
X27.86Y-63.42
X27.86Y-65.96
X27.86Y-68.5
X27.86Y-71.04
X27.86Y-73.58
X27.86Y-76.12
X27.86Y-78.66
X30.4Y-5.0
X30.4Y-7.54
X30.4Y-10.08
X30.4Y-12.62
X30.4Y-15.16
X30.4Y-17.7
X30.4Y-20.24
X30.4Y-22.78
X30.4Y-25.32
X30.4Y-27.86
X30.4Y-30.4
X30.4Y-32.94
X30.4Y-35.48
X30.4Y-38.02
X30.4Y-40.56
X30.4Y-43.1
X30.4Y-45.64
X30.4Y-48.18
X30.4Y-50.72
X30.4Y-53.26
X30.4Y-55.8
X30.4Y-58.34
X30.4Y-60.88
X30.4Y-63.42
X30.4Y-65.96
X30.4Y-68.5
X30.4Y-71.04
X30.4Y-73.58
X30.4Y-76.12
X30.4Y-78.66
X32.94Y-5.0
X32.94Y-7.54
X32.94Y-10.08
X32.94Y-12.62
X32.94Y-15.16
X32.94Y-17.7
X32.94Y-20.24
X32.94Y-22.78
X32.94Y-25.32
X32.94Y-27.86
X32.94Y-30.4
X32.94Y-32.94
X32.94Y-35.48
X32.94Y-38.02
X32.94Y-40.56
X32.94Y-43.1
X32.94Y-45.64
X32.94Y-48.18
X32.94Y-50.72
X32.94Y-53.26
X32.94Y-55.8
X32.94Y-58.34
X32.94Y-60.88
X32.94Y-63.42
X32.94Y-65.96
X32.94Y-68.5
X32.94Y-71.04
X32.94Y-73.58
X32.94Y-76.12
X32.94Y-78.66
X35.48Y-5.0
X35.48Y-7.54
X35.48Y-10.08
X35.48Y-12.62
X35.48Y-15.16
X35.48Y-17.7
X35.48Y-20.24
X35.48Y-22.78
X35.48Y-25.32
X35.48Y-27.86
X35.48Y-30.4
X35.48Y-32.94
X35.48Y-35.48
X35.48Y-38.02
X35.48Y-40.56
X35.48Y-43.1
X35.48Y-45.64
X35.48Y-48.18
X35.48Y-50.72
X35.48Y-53.26
X35.48Y-55.8
X35.48Y-58.34
X35.48Y-60.88
X35.48Y-63.42
X35.48Y-65.96
X35.48Y-68.5
X35.48Y-71.04
X35.48Y-73.58
X35.48Y-76.12
X35.48Y-78.66
X38.02Y-5.0
X38.02Y-7.54
X38.02Y-10.08
X38.02Y-12.62
X38.02Y-15.16
X38.02Y-17.7
X38.02Y-20.24
X38.02Y-22.78
X38.02Y-25.32
X38.02Y-27.86
X38.02Y-30.4
X38.02Y-32.94
X38.02Y-35.48
X38.02Y-38.02
X38.02Y-40.56
X38.02Y-43.1
X38.02Y-45.64
X38.02Y-48.18
X38.02Y-50.72
X38.02Y-53.26
X38.02Y-55.8
X38.02Y-58.34
X38.02Y-60.88
X38.02Y-63.42
X38.02Y-65.96
X38.02Y-68.5
X38.02Y-71.04
X38.02Y-73.58
X38.02Y-76.12
X38.02Y-78.66
X40.56Y-5.0
X40.56Y-7.54
X40.56Y-10.08
X40.56Y-12.62
X40.56Y-15.16
X40.56Y-17.7
X40.56Y-20.24
X40.56Y-22.78
X40.56Y-25.32
X40.56Y-27.86
X40.56Y-30.4
X40.56Y-32.94
X40.56Y-35.48
X40.56Y-38.02
X40.56Y-40.56
X40.56Y-43.1
X40.56Y-45.64
X40.56Y-48.18
X40.56Y-50.72
X40.56Y-53.26
X40.56Y-55.8
X40.56Y-58.34
X40.56Y-60.88
X40.56Y-63.42
X40.56Y-65.96
X40.56Y-68.5
X40.56Y-71.04
X40.56Y-73.58
X40.56Y-76.12
X40.56Y-78.66
X43.1Y-5.0
X43.1Y-7.54
X43.1Y-10.08
X43.1Y-12.62
X43.1Y-15.16
X43.1Y-17.7
X43.1Y-20.24
X43.1Y-22.78
X43.1Y-25.32
X43.1Y-27.86
X43.1Y-30.4
X43.1Y-32.94
X43.1Y-35.48
X43.1Y-38.02
X43.1Y-40.56
X43.1Y-43.1
X43.1Y-45.64
X43.1Y-48.18
X43.1Y-50.72
X43.1Y-53.26
X43.1Y-55.8
X43.1Y-58.34
X43.1Y-60.88
X43.1Y-63.42
X43.1Y-65.96
X43.1Y-68.5
X43.1Y-71.04
X43.1Y-73.58
X43.1Y-76.12
X43.1Y-78.66
X45.64Y-5.0
X45.64Y-7.54
X45.64Y-10.08
X45.64Y-12.62
X45.64Y-15.16
X45.64Y-17.7
X45.64Y-20.24
X45.64Y-22.78
X45.64Y-25.32
X45.64Y-27.86
X45.64Y-30.4
X45.64Y-32.94
X45.64Y-35.48
X45.64Y-38.02
X45.64Y-40.56
X45.64Y-43.1
X45.64Y-45.64
X45.64Y-48.18
X45.64Y-50.72
X45.64Y-53.26
X45.64Y-55.8
X45.64Y-58.34
X45.64Y-60.88
X45.64Y-63.42
X45.64Y-65.96
X45.64Y-68.5
X45.64Y-71.04
X45.64Y-73.58
X45.64Y-76.12
X45.64Y-78.66
X48.18Y-5.0
X48.18Y-7.54
X48.18Y-10.08
X48.18Y-12.62
X48.18Y-15.16
X48.18Y-17.7
X48.18Y-20.24
X48.18Y-22.78
X48.18Y-25.32
X48.18Y-27.86
X48.18Y-30.4
X48.18Y-32.94
X48.18Y-35.48
X48.18Y-38.02
X48.18Y-40.56
X48.18Y-43.1
X48.18Y-45.64
X48.18Y-48.18
X48.18Y-50.72
X48.18Y-53.26
X48.18Y-55.8
X48.18Y-58.34
X48.18Y-60.88
X48.18Y-63.42
X48.18Y-65.96
X48.18Y-68.5
X48.18Y-71.04
X48.18Y-73.58
X48.18Y-76.12
X48.18Y-78.66
X50.72Y-5.0
X50.72Y-7.54
X50.72Y-10.08
X50.72Y-12.62
X50.72Y-15.16
X50.72Y-17.7
X50.72Y-20.24
X50.72Y-22.78
X50.72Y-25.32
X50.72Y-27.86
X50.72Y-30.4
X50.72Y-32.94
X50.72Y-35.48
X50.72Y-38.02
X50.72Y-40.56
X50.72Y-43.1
X50.72Y-45.64
X50.72Y-48.18
X50.72Y-50.72
X50.72Y-53.26
X50.72Y-55.8
X50.72Y-58.34
X50.72Y-60.88
X50.72Y-63.42
X50.72Y-65.96
X50.72Y-68.5
X50.72Y-71.04
X50.72Y-73.58
X50.72Y-76.12
X50.72Y-78.66
X53.26Y-5.0
X53.26Y-7.54
X53.26Y-10.08
X53.26Y-12.62
X53.26Y-15.16
X53.26Y-17.7
X53.26Y-20.24
X53.26Y-22.78
X53.26Y-25.32
X53.26Y-27.86
X53.26Y-30.4
X53.26Y-32.94
X53.26Y-35.48
X53.26Y-38.02
X53.26Y-40.56
X53.26Y-43.1
X53.26Y-45.64
X53.26Y-48.18
X53.26Y-50.72
X53.26Y-53.26
X53.26Y-55.8
X53.26Y-58.34
X53.26Y-60.88
X53.26Y-63.42
X53.26Y-65.96
X53.26Y-68.5
X53.26Y-71.04
X53.26Y-73.58
X53.26Y-76.12
X53.26Y-78.66
X55.8Y-5.0
X55.8Y-7.54
X55.8Y-10.08
X55.8Y-12.62
X55.8Y-15.16
X55.8Y-17.7
X55.8Y-20.24
X55.8Y-22.78
X55.8Y-25.32
X55.8Y-27.86
X55.8Y-30.4
X55.8Y-32.94
X55.8Y-35.48
X55.8Y-38.02
X55.8Y-40.56
X55.8Y-43.1
X55.8Y-45.64
X55.8Y-48.18
X55.8Y-50.72
X55.8Y-53.26
X55.8Y-55.8
X55.8Y-58.34
X55.8Y-60.88
X55.8Y-63.42
X55.8Y-65.96
X55.8Y-68.5
X55.8Y-71.04
X55.8Y-73.58
X55.8Y-76.12
X55.8Y-78.66
X58.34Y-5.0
X58.34Y-7.54
X58.34Y-10.08
X58.34Y-12.62
X58.34Y-15.16
X58.34Y-17.7
X58.34Y-20.24
X58.34Y-22.78
X58.34Y-25.32
X58.34Y-27.86
X58.34Y-30.4
X58.34Y-32.94
X58.34Y-35.48
X58.34Y-38.02
X58.34Y-40.56
X58.34Y-43.1
X58.34Y-45.64
X58.34Y-48.18
X58.34Y-50.72
X58.34Y-53.26
X58.34Y-55.8
X58.34Y-58.34
X58.34Y-60.88
X58.34Y-63.42
X58.34Y-65.96
X58.34Y-68.5
X58.34Y-71.04
X58.34Y-73.58
X58.34Y-76.12
X58.34Y-78.66
X58.34Y-81.2
X58.34Y-83.74
X60.88Y-5.0
X60.88Y-7.54
X60.88Y-10.08
X60.88Y-12.62
X60.88Y-15.16
X60.88Y-17.7
X60.88Y-20.24
X60.88Y-22.78
X60.88Y-25.32
X60.88Y-27.86
X60.88Y-30.4
X60.88Y-32.94
X60.88Y-35.48
X60.88Y-38.02
X60.88Y-40.56
X60.88Y-43.1
X60.88Y-45.64
X60.88Y-48.18
X60.88Y-50.72
X60.88Y-53.26
X60.88Y-55.8
X60.88Y-58.34
X60.88Y-60.88
X60.88Y-63.42
X60.88Y-65.96
X60.88Y-68.5
X60.88Y-71.04
X60.88Y-73.58
X60.88Y-76.12
X60.88Y-78.66
X60.88Y-81.2
X60.88Y-83.74
X63.42Y-5.0
X63.42Y-7.54
X63.42Y-10.08
X63.42Y-12.62
X63.42Y-15.16
X63.42Y-17.7
X63.42Y-20.24
X63.42Y-22.78
X63.42Y-25.32
X63.42Y-27.86
X63.42Y-30.4
X63.42Y-32.94
X63.42Y-35.48
X63.42Y-38.02
X63.42Y-40.56
X63.42Y-43.1
X63.42Y-45.64
X63.42Y-48.18
X63.42Y-50.72
X63.42Y-53.26
X63.42Y-55.8
X63.42Y-58.34
X63.42Y-60.88
X63.42Y-63.42
X63.42Y-65.96
X63.42Y-68.5
X63.42Y-71.04
X63.42Y-73.58
X63.42Y-76.12
X63.42Y-78.66
X63.42Y-81.2
X63.42Y-83.74
T4
X7.54Y-90.5G85X7.54Y-93.5
G05
X60.88Y-90.5G85X60.88Y-93.5
G05
M30
