%TF.GenerationSoftware,KiCad,Pcbnew,9.0.6*%
%TF.CreationDate,2026-03-25T19:20:28+01:00*%
%TF.ProjectId,proto_70x100_stripboard,70726f74-6f5f-4373-9078-3130305f7374,rev?*%
%TF.SameCoordinates,Original*%
%TF.FileFunction,Soldermask,Top*%
%TF.FilePolarity,Negative*%
%FSLAX46Y46*%
G04 Gerber Fmt 4.6, Leading zero omitted, Abs format (unit mm)*
G04 Created by KiCad (PCBNEW 9.0.6) date 2026-03-25 19:20:28*
%MOMM*%
%LPD*%
G01*
G04 APERTURE LIST*
%ADD10C,1.800000*%
%ADD11O,10.000000X12.000000*%
G04 APERTURE END LIST*
D10*
%TO.C,P*%
X5790000Y-5550000D03*
%TD*%
%TO.C,P*%
X8330000Y-5550000D03*
%TD*%
%TO.C,P*%
X10870000Y-5550000D03*
%TD*%
%TO.C,P*%
X13410000Y-5550000D03*
%TD*%
%TO.C,P*%
X15950000Y-5550000D03*
%TD*%
%TO.C,P*%
X18490000Y-5550000D03*
%TD*%
%TO.C,P*%
X21030000Y-5550000D03*
%TD*%
%TO.C,P*%
X23570000Y-5550000D03*
%TD*%
%TO.C,P*%
X26110000Y-5550000D03*
%TD*%
%TO.C,P*%
X28650000Y-5550000D03*
%TD*%
%TO.C,P*%
X31190000Y-5550000D03*
%TD*%
%TO.C,P*%
X33730000Y-5550000D03*
%TD*%
%TO.C,P*%
X36270000Y-5550000D03*
%TD*%
%TO.C,P*%
X38810000Y-5550000D03*
%TD*%
%TO.C,P*%
X41350000Y-5550000D03*
%TD*%
%TO.C,P*%
X43890000Y-5550000D03*
%TD*%
%TO.C,P*%
X46430000Y-5550000D03*
%TD*%
%TO.C,P*%
X48970000Y-5550000D03*
%TD*%
%TO.C,P*%
X51510000Y-5550000D03*
%TD*%
%TO.C,P*%
X54050000Y-5550000D03*
%TD*%
%TO.C,P*%
X56590000Y-5550000D03*
%TD*%
%TO.C,P*%
X59130000Y-5550000D03*
%TD*%
%TO.C,P*%
X61670000Y-5550000D03*
%TD*%
%TO.C,P*%
X64210000Y-5550000D03*
%TD*%
%TO.C,P*%
X5790000Y-8090000D03*
%TD*%
%TO.C,P*%
X8330000Y-8090000D03*
%TD*%
%TO.C,P*%
X10870000Y-8090000D03*
%TD*%
%TO.C,P*%
X13410000Y-8090000D03*
%TD*%
%TO.C,P*%
X15950000Y-8090000D03*
%TD*%
%TO.C,P*%
X18490000Y-8090000D03*
%TD*%
%TO.C,P*%
X21030000Y-8090000D03*
%TD*%
%TO.C,P*%
X23570000Y-8090000D03*
%TD*%
%TO.C,P*%
X26110000Y-8090000D03*
%TD*%
%TO.C,P*%
X28650000Y-8090000D03*
%TD*%
%TO.C,P*%
X31190000Y-8090000D03*
%TD*%
%TO.C,P*%
X33730000Y-8090000D03*
%TD*%
%TO.C,P*%
X36270000Y-8090000D03*
%TD*%
%TO.C,P*%
X38810000Y-8090000D03*
%TD*%
%TO.C,P*%
X41350000Y-8090000D03*
%TD*%
%TO.C,P*%
X43890000Y-8090000D03*
%TD*%
%TO.C,P*%
X46430000Y-8090000D03*
%TD*%
%TO.C,P*%
X48970000Y-8090000D03*
%TD*%
%TO.C,P*%
X51510000Y-8090000D03*
%TD*%
%TO.C,P*%
X54050000Y-8090000D03*
%TD*%
%TO.C,P*%
X56590000Y-8090000D03*
%TD*%
%TO.C,P*%
X59130000Y-8090000D03*
%TD*%
%TO.C,P*%
X61670000Y-8090000D03*
%TD*%
%TO.C,P*%
X64210000Y-8090000D03*
%TD*%
%TO.C,P*%
X5790000Y-10630000D03*
%TD*%
%TO.C,P*%
X8330000Y-10630000D03*
%TD*%
%TO.C,P*%
X10870000Y-10630000D03*
%TD*%
%TO.C,P*%
X13410000Y-10630000D03*
%TD*%
%TO.C,P*%
X15950000Y-10630000D03*
%TD*%
%TO.C,P*%
X18490000Y-10630000D03*
%TD*%
%TO.C,P*%
X21030000Y-10630000D03*
%TD*%
%TO.C,P*%
X23570000Y-10630000D03*
%TD*%
%TO.C,P*%
X26110000Y-10630000D03*
%TD*%
%TO.C,P*%
X28650000Y-10630000D03*
%TD*%
%TO.C,P*%
X31190000Y-10630000D03*
%TD*%
%TO.C,P*%
X33730000Y-10630000D03*
%TD*%
%TO.C,P*%
X36270000Y-10630000D03*
%TD*%
%TO.C,P*%
X38810000Y-10630000D03*
%TD*%
%TO.C,P*%
X41350000Y-10630000D03*
%TD*%
%TO.C,P*%
X43890000Y-10630000D03*
%TD*%
%TO.C,P*%
X46430000Y-10630000D03*
%TD*%
%TO.C,P*%
X48970000Y-10630000D03*
%TD*%
%TO.C,P*%
X51510000Y-10630000D03*
%TD*%
%TO.C,P*%
X54050000Y-10630000D03*
%TD*%
%TO.C,P*%
X56590000Y-10630000D03*
%TD*%
%TO.C,P*%
X59130000Y-10630000D03*
%TD*%
%TO.C,P*%
X61670000Y-10630000D03*
%TD*%
%TO.C,P*%
X64210000Y-10630000D03*
%TD*%
%TO.C,P*%
X5790000Y-13170000D03*
%TD*%
%TO.C,P*%
X8330000Y-13170000D03*
%TD*%
%TO.C,P*%
X10870000Y-13170000D03*
%TD*%
%TO.C,P*%
X13410000Y-13170000D03*
%TD*%
%TO.C,P*%
X15950000Y-13170000D03*
%TD*%
%TO.C,P*%
X18490000Y-13170000D03*
%TD*%
%TO.C,P*%
X21030000Y-13170000D03*
%TD*%
%TO.C,P*%
X23570000Y-13170000D03*
%TD*%
%TO.C,P*%
X26110000Y-13170000D03*
%TD*%
%TO.C,P*%
X28650000Y-13170000D03*
%TD*%
%TO.C,P*%
X31190000Y-13170000D03*
%TD*%
%TO.C,P*%
X33730000Y-13170000D03*
%TD*%
%TO.C,P*%
X36270000Y-13170000D03*
%TD*%
%TO.C,P*%
X38810000Y-13170000D03*
%TD*%
%TO.C,P*%
X41350000Y-13170000D03*
%TD*%
%TO.C,P*%
X43890000Y-13170000D03*
%TD*%
%TO.C,P*%
X46430000Y-13170000D03*
%TD*%
%TO.C,P*%
X48970000Y-13170000D03*
%TD*%
%TO.C,P*%
X51510000Y-13170000D03*
%TD*%
%TO.C,P*%
X54050000Y-13170000D03*
%TD*%
%TO.C,P*%
X56590000Y-13170000D03*
%TD*%
%TO.C,P*%
X59130000Y-13170000D03*
%TD*%
%TO.C,P*%
X61670000Y-13170000D03*
%TD*%
%TO.C,P*%
X64210000Y-13170000D03*
%TD*%
%TO.C,P*%
X5790000Y-15710000D03*
%TD*%
%TO.C,P*%
X8330000Y-15710000D03*
%TD*%
%TO.C,P*%
X10870000Y-15710000D03*
%TD*%
%TO.C,P*%
X13410000Y-15710000D03*
%TD*%
%TO.C,P*%
X15950000Y-15710000D03*
%TD*%
%TO.C,P*%
X18490000Y-15710000D03*
%TD*%
%TO.C,P*%
X21030000Y-15710000D03*
%TD*%
%TO.C,P*%
X23570000Y-15710000D03*
%TD*%
%TO.C,P*%
X26110000Y-15710000D03*
%TD*%
%TO.C,P*%
X28650000Y-15710000D03*
%TD*%
%TO.C,P*%
X31190000Y-15710000D03*
%TD*%
%TO.C,P*%
X33730000Y-15710000D03*
%TD*%
%TO.C,P*%
X36270000Y-15710000D03*
%TD*%
%TO.C,P*%
X38810000Y-15710000D03*
%TD*%
%TO.C,P*%
X41350000Y-15710000D03*
%TD*%
%TO.C,P*%
X43890000Y-15710000D03*
%TD*%
%TO.C,P*%
X46430000Y-15710000D03*
%TD*%
%TO.C,P*%
X48970000Y-15710000D03*
%TD*%
%TO.C,P*%
X51510000Y-15710000D03*
%TD*%
%TO.C,P*%
X54050000Y-15710000D03*
%TD*%
%TO.C,P*%
X56590000Y-15710000D03*
%TD*%
%TO.C,P*%
X59130000Y-15710000D03*
%TD*%
%TO.C,P*%
X61670000Y-15710000D03*
%TD*%
%TO.C,P*%
X64210000Y-15710000D03*
%TD*%
%TO.C,P*%
X5790000Y-18250000D03*
%TD*%
%TO.C,P*%
X8330000Y-18250000D03*
%TD*%
%TO.C,P*%
X10870000Y-18250000D03*
%TD*%
%TO.C,P*%
X13410000Y-18250000D03*
%TD*%
%TO.C,P*%
X15950000Y-18250000D03*
%TD*%
%TO.C,P*%
X18490000Y-18250000D03*
%TD*%
%TO.C,P*%
X21030000Y-18250000D03*
%TD*%
%TO.C,P*%
X23570000Y-18250000D03*
%TD*%
%TO.C,P*%
X26110000Y-18250000D03*
%TD*%
%TO.C,P*%
X28650000Y-18250000D03*
%TD*%
%TO.C,P*%
X31190000Y-18250000D03*
%TD*%
%TO.C,P*%
X33730000Y-18250000D03*
%TD*%
%TO.C,P*%
X36270000Y-18250000D03*
%TD*%
%TO.C,P*%
X38810000Y-18250000D03*
%TD*%
%TO.C,P*%
X41350000Y-18250000D03*
%TD*%
%TO.C,P*%
X43890000Y-18250000D03*
%TD*%
%TO.C,P*%
X46430000Y-18250000D03*
%TD*%
%TO.C,P*%
X48970000Y-18250000D03*
%TD*%
%TO.C,P*%
X51510000Y-18250000D03*
%TD*%
%TO.C,P*%
X54050000Y-18250000D03*
%TD*%
%TO.C,P*%
X56590000Y-18250000D03*
%TD*%
%TO.C,P*%
X59130000Y-18250000D03*
%TD*%
%TO.C,P*%
X61670000Y-18250000D03*
%TD*%
%TO.C,P*%
X64210000Y-18250000D03*
%TD*%
%TO.C,P*%
X5790000Y-20790000D03*
%TD*%
%TO.C,P*%
X8330000Y-20790000D03*
%TD*%
%TO.C,P*%
X10870000Y-20790000D03*
%TD*%
%TO.C,P*%
X13410000Y-20790000D03*
%TD*%
%TO.C,P*%
X15950000Y-20790000D03*
%TD*%
%TO.C,P*%
X18490000Y-20790000D03*
%TD*%
%TO.C,P*%
X21030000Y-20790000D03*
%TD*%
%TO.C,P*%
X23570000Y-20790000D03*
%TD*%
%TO.C,P*%
X26110000Y-20790000D03*
%TD*%
%TO.C,P*%
X28650000Y-20790000D03*
%TD*%
%TO.C,P*%
X31190000Y-20790000D03*
%TD*%
%TO.C,P*%
X33730000Y-20790000D03*
%TD*%
%TO.C,P*%
X36270000Y-20790000D03*
%TD*%
%TO.C,P*%
X38810000Y-20790000D03*
%TD*%
%TO.C,P*%
X41350000Y-20790000D03*
%TD*%
%TO.C,P*%
X43890000Y-20790000D03*
%TD*%
%TO.C,P*%
X46430000Y-20790000D03*
%TD*%
%TO.C,P*%
X48970000Y-20790000D03*
%TD*%
%TO.C,P*%
X51510000Y-20790000D03*
%TD*%
%TO.C,P*%
X54050000Y-20790000D03*
%TD*%
%TO.C,P*%
X56590000Y-20790000D03*
%TD*%
%TO.C,P*%
X59130000Y-20790000D03*
%TD*%
%TO.C,P*%
X61670000Y-20790000D03*
%TD*%
%TO.C,P*%
X64210000Y-20790000D03*
%TD*%
%TO.C,P*%
X5790000Y-23330000D03*
%TD*%
%TO.C,P*%
X8330000Y-23330000D03*
%TD*%
%TO.C,P*%
X10870000Y-23330000D03*
%TD*%
%TO.C,P*%
X13410000Y-23330000D03*
%TD*%
%TO.C,P*%
X15950000Y-23330000D03*
%TD*%
%TO.C,P*%
X18490000Y-23330000D03*
%TD*%
%TO.C,P*%
X21030000Y-23330000D03*
%TD*%
%TO.C,P*%
X23570000Y-23330000D03*
%TD*%
%TO.C,P*%
X26110000Y-23330000D03*
%TD*%
%TO.C,P*%
X28650000Y-23330000D03*
%TD*%
%TO.C,P*%
X31190000Y-23330000D03*
%TD*%
%TO.C,P*%
X33730000Y-23330000D03*
%TD*%
%TO.C,P*%
X36270000Y-23330000D03*
%TD*%
%TO.C,P*%
X38810000Y-23330000D03*
%TD*%
%TO.C,P*%
X41350000Y-23330000D03*
%TD*%
%TO.C,P*%
X43890000Y-23330000D03*
%TD*%
%TO.C,P*%
X46430000Y-23330000D03*
%TD*%
%TO.C,P*%
X48970000Y-23330000D03*
%TD*%
%TO.C,P*%
X51510000Y-23330000D03*
%TD*%
%TO.C,P*%
X54050000Y-23330000D03*
%TD*%
%TO.C,P*%
X56590000Y-23330000D03*
%TD*%
%TO.C,P*%
X59130000Y-23330000D03*
%TD*%
%TO.C,P*%
X61670000Y-23330000D03*
%TD*%
%TO.C,P*%
X64210000Y-23330000D03*
%TD*%
%TO.C,P*%
X5790000Y-25870000D03*
%TD*%
%TO.C,P*%
X8330000Y-25870000D03*
%TD*%
%TO.C,P*%
X10870000Y-25870000D03*
%TD*%
%TO.C,P*%
X13410000Y-25870000D03*
%TD*%
%TO.C,P*%
X15950000Y-25870000D03*
%TD*%
%TO.C,P*%
X18490000Y-25870000D03*
%TD*%
%TO.C,P*%
X21030000Y-25870000D03*
%TD*%
%TO.C,P*%
X23570000Y-25870000D03*
%TD*%
%TO.C,P*%
X26110000Y-25870000D03*
%TD*%
%TO.C,P*%
X28650000Y-25870000D03*
%TD*%
%TO.C,P*%
X31190000Y-25870000D03*
%TD*%
%TO.C,P*%
X33730000Y-25870000D03*
%TD*%
%TO.C,P*%
X36270000Y-25870000D03*
%TD*%
%TO.C,P*%
X38810000Y-25870000D03*
%TD*%
%TO.C,P*%
X41350000Y-25870000D03*
%TD*%
%TO.C,P*%
X43890000Y-25870000D03*
%TD*%
%TO.C,P*%
X46430000Y-25870000D03*
%TD*%
%TO.C,P*%
X48970000Y-25870000D03*
%TD*%
%TO.C,P*%
X51510000Y-25870000D03*
%TD*%
%TO.C,P*%
X54050000Y-25870000D03*
%TD*%
%TO.C,P*%
X56590000Y-25870000D03*
%TD*%
%TO.C,P*%
X59130000Y-25870000D03*
%TD*%
%TO.C,P*%
X61670000Y-25870000D03*
%TD*%
%TO.C,P*%
X64210000Y-25870000D03*
%TD*%
%TO.C,P*%
X5790000Y-28410000D03*
%TD*%
%TO.C,P*%
X8330000Y-28410000D03*
%TD*%
%TO.C,P*%
X10870000Y-28410000D03*
%TD*%
%TO.C,P*%
X13410000Y-28410000D03*
%TD*%
%TO.C,P*%
X15950000Y-28410000D03*
%TD*%
%TO.C,P*%
X18490000Y-28410000D03*
%TD*%
%TO.C,P*%
X21030000Y-28410000D03*
%TD*%
%TO.C,P*%
X23570000Y-28410000D03*
%TD*%
%TO.C,P*%
X26110000Y-28410000D03*
%TD*%
%TO.C,P*%
X28650000Y-28410000D03*
%TD*%
%TO.C,P*%
X31190000Y-28410000D03*
%TD*%
%TO.C,P*%
X33730000Y-28410000D03*
%TD*%
%TO.C,P*%
X36270000Y-28410000D03*
%TD*%
%TO.C,P*%
X38810000Y-28410000D03*
%TD*%
%TO.C,P*%
X41350000Y-28410000D03*
%TD*%
%TO.C,P*%
X43890000Y-28410000D03*
%TD*%
%TO.C,P*%
X46430000Y-28410000D03*
%TD*%
%TO.C,P*%
X48970000Y-28410000D03*
%TD*%
%TO.C,P*%
X51510000Y-28410000D03*
%TD*%
%TO.C,P*%
X54050000Y-28410000D03*
%TD*%
%TO.C,P*%
X56590000Y-28410000D03*
%TD*%
%TO.C,P*%
X59130000Y-28410000D03*
%TD*%
%TO.C,P*%
X61670000Y-28410000D03*
%TD*%
%TO.C,P*%
X64210000Y-28410000D03*
%TD*%
%TO.C,P*%
X5790000Y-30950000D03*
%TD*%
%TO.C,P*%
X8330000Y-30950000D03*
%TD*%
%TO.C,P*%
X10870000Y-30950000D03*
%TD*%
%TO.C,P*%
X13410000Y-30950000D03*
%TD*%
%TO.C,P*%
X15950000Y-30950000D03*
%TD*%
%TO.C,P*%
X18490000Y-30950000D03*
%TD*%
%TO.C,P*%
X21030000Y-30950000D03*
%TD*%
%TO.C,P*%
X23570000Y-30950000D03*
%TD*%
%TO.C,P*%
X26110000Y-30950000D03*
%TD*%
%TO.C,P*%
X28650000Y-30950000D03*
%TD*%
%TO.C,P*%
X31190000Y-30950000D03*
%TD*%
%TO.C,P*%
X33730000Y-30950000D03*
%TD*%
%TO.C,P*%
X36270000Y-30950000D03*
%TD*%
%TO.C,P*%
X38810000Y-30950000D03*
%TD*%
%TO.C,P*%
X41350000Y-30950000D03*
%TD*%
%TO.C,P*%
X43890000Y-30950000D03*
%TD*%
%TO.C,P*%
X46430000Y-30950000D03*
%TD*%
%TO.C,P*%
X48970000Y-30950000D03*
%TD*%
%TO.C,P*%
X51510000Y-30950000D03*
%TD*%
%TO.C,P*%
X54050000Y-30950000D03*
%TD*%
%TO.C,P*%
X56590000Y-30950000D03*
%TD*%
%TO.C,P*%
X59130000Y-30950000D03*
%TD*%
%TO.C,P*%
X61670000Y-30950000D03*
%TD*%
%TO.C,P*%
X64210000Y-30950000D03*
%TD*%
%TO.C,P*%
X5790000Y-33490000D03*
%TD*%
%TO.C,P*%
X8330000Y-33490000D03*
%TD*%
%TO.C,P*%
X10870000Y-33490000D03*
%TD*%
%TO.C,P*%
X13410000Y-33490000D03*
%TD*%
%TO.C,P*%
X15950000Y-33490000D03*
%TD*%
%TO.C,P*%
X18490000Y-33490000D03*
%TD*%
%TO.C,P*%
X21030000Y-33490000D03*
%TD*%
%TO.C,P*%
X23570000Y-33490000D03*
%TD*%
%TO.C,P*%
X26110000Y-33490000D03*
%TD*%
%TO.C,P*%
X28650000Y-33490000D03*
%TD*%
%TO.C,P*%
X31190000Y-33490000D03*
%TD*%
%TO.C,P*%
X33730000Y-33490000D03*
%TD*%
%TO.C,P*%
X36270000Y-33490000D03*
%TD*%
%TO.C,P*%
X38810000Y-33490000D03*
%TD*%
%TO.C,P*%
X41350000Y-33490000D03*
%TD*%
%TO.C,P*%
X43890000Y-33490000D03*
%TD*%
%TO.C,P*%
X46430000Y-33490000D03*
%TD*%
%TO.C,P*%
X48970000Y-33490000D03*
%TD*%
%TO.C,P*%
X51510000Y-33490000D03*
%TD*%
%TO.C,P*%
X54050000Y-33490000D03*
%TD*%
%TO.C,P*%
X56590000Y-33490000D03*
%TD*%
%TO.C,P*%
X59130000Y-33490000D03*
%TD*%
%TO.C,P*%
X61670000Y-33490000D03*
%TD*%
%TO.C,P*%
X64210000Y-33490000D03*
%TD*%
%TO.C,P*%
X5790000Y-36030000D03*
%TD*%
%TO.C,P*%
X8330000Y-36030000D03*
%TD*%
%TO.C,P*%
X10870000Y-36030000D03*
%TD*%
%TO.C,P*%
X13410000Y-36030000D03*
%TD*%
%TO.C,P*%
X15950000Y-36030000D03*
%TD*%
%TO.C,P*%
X18490000Y-36030000D03*
%TD*%
%TO.C,P*%
X21030000Y-36030000D03*
%TD*%
%TO.C,P*%
X23570000Y-36030000D03*
%TD*%
%TO.C,P*%
X26110000Y-36030000D03*
%TD*%
%TO.C,P*%
X28650000Y-36030000D03*
%TD*%
%TO.C,P*%
X31190000Y-36030000D03*
%TD*%
%TO.C,P*%
X33730000Y-36030000D03*
%TD*%
%TO.C,P*%
X36270000Y-36030000D03*
%TD*%
%TO.C,P*%
X38810000Y-36030000D03*
%TD*%
%TO.C,P*%
X41350000Y-36030000D03*
%TD*%
%TO.C,P*%
X43890000Y-36030000D03*
%TD*%
%TO.C,P*%
X46430000Y-36030000D03*
%TD*%
%TO.C,P*%
X48970000Y-36030000D03*
%TD*%
%TO.C,P*%
X51510000Y-36030000D03*
%TD*%
%TO.C,P*%
X54050000Y-36030000D03*
%TD*%
%TO.C,P*%
X56590000Y-36030000D03*
%TD*%
%TO.C,P*%
X59130000Y-36030000D03*
%TD*%
%TO.C,P*%
X61670000Y-36030000D03*
%TD*%
%TO.C,P*%
X64210000Y-36030000D03*
%TD*%
%TO.C,P*%
X5790000Y-38570000D03*
%TD*%
%TO.C,P*%
X8330000Y-38570000D03*
%TD*%
%TO.C,P*%
X10870000Y-38570000D03*
%TD*%
%TO.C,P*%
X13410000Y-38570000D03*
%TD*%
%TO.C,P*%
X15950000Y-38570000D03*
%TD*%
%TO.C,P*%
X18490000Y-38570000D03*
%TD*%
%TO.C,P*%
X21030000Y-38570000D03*
%TD*%
%TO.C,P*%
X23570000Y-38570000D03*
%TD*%
%TO.C,P*%
X26110000Y-38570000D03*
%TD*%
%TO.C,P*%
X28650000Y-38570000D03*
%TD*%
%TO.C,P*%
X31190000Y-38570000D03*
%TD*%
%TO.C,P*%
X33730000Y-38570000D03*
%TD*%
%TO.C,P*%
X36270000Y-38570000D03*
%TD*%
%TO.C,P*%
X38810000Y-38570000D03*
%TD*%
%TO.C,P*%
X41350000Y-38570000D03*
%TD*%
%TO.C,P*%
X43890000Y-38570000D03*
%TD*%
%TO.C,P*%
X46430000Y-38570000D03*
%TD*%
%TO.C,P*%
X48970000Y-38570000D03*
%TD*%
%TO.C,P*%
X51510000Y-38570000D03*
%TD*%
%TO.C,P*%
X54050000Y-38570000D03*
%TD*%
%TO.C,P*%
X56590000Y-38570000D03*
%TD*%
%TO.C,P*%
X59130000Y-38570000D03*
%TD*%
%TO.C,P*%
X61670000Y-38570000D03*
%TD*%
%TO.C,P*%
X64210000Y-38570000D03*
%TD*%
%TO.C,P*%
X5790000Y-41110000D03*
%TD*%
%TO.C,P*%
X8330000Y-41110000D03*
%TD*%
%TO.C,P*%
X10870000Y-41110000D03*
%TD*%
%TO.C,P*%
X13410000Y-41110000D03*
%TD*%
%TO.C,P*%
X15950000Y-41110000D03*
%TD*%
%TO.C,P*%
X18490000Y-41110000D03*
%TD*%
%TO.C,P*%
X21030000Y-41110000D03*
%TD*%
%TO.C,P*%
X23570000Y-41110000D03*
%TD*%
%TO.C,P*%
X26110000Y-41110000D03*
%TD*%
%TO.C,P*%
X28650000Y-41110000D03*
%TD*%
%TO.C,P*%
X31190000Y-41110000D03*
%TD*%
%TO.C,P*%
X33730000Y-41110000D03*
%TD*%
%TO.C,P*%
X36270000Y-41110000D03*
%TD*%
%TO.C,P*%
X38810000Y-41110000D03*
%TD*%
%TO.C,P*%
X41350000Y-41110000D03*
%TD*%
%TO.C,P*%
X43890000Y-41110000D03*
%TD*%
%TO.C,P*%
X46430000Y-41110000D03*
%TD*%
%TO.C,P*%
X48970000Y-41110000D03*
%TD*%
%TO.C,P*%
X51510000Y-41110000D03*
%TD*%
%TO.C,P*%
X54050000Y-41110000D03*
%TD*%
%TO.C,P*%
X56590000Y-41110000D03*
%TD*%
%TO.C,P*%
X59130000Y-41110000D03*
%TD*%
%TO.C,P*%
X61670000Y-41110000D03*
%TD*%
%TO.C,P*%
X64210000Y-41110000D03*
%TD*%
%TO.C,P*%
X5790000Y-43650000D03*
%TD*%
%TO.C,P*%
X8330000Y-43650000D03*
%TD*%
%TO.C,P*%
X10870000Y-43650000D03*
%TD*%
%TO.C,P*%
X13410000Y-43650000D03*
%TD*%
%TO.C,P*%
X15950000Y-43650000D03*
%TD*%
%TO.C,P*%
X18490000Y-43650000D03*
%TD*%
%TO.C,P*%
X21030000Y-43650000D03*
%TD*%
%TO.C,P*%
X23570000Y-43650000D03*
%TD*%
%TO.C,P*%
X26110000Y-43650000D03*
%TD*%
%TO.C,P*%
X28650000Y-43650000D03*
%TD*%
%TO.C,P*%
X31190000Y-43650000D03*
%TD*%
%TO.C,P*%
X33730000Y-43650000D03*
%TD*%
%TO.C,P*%
X36270000Y-43650000D03*
%TD*%
%TO.C,P*%
X38810000Y-43650000D03*
%TD*%
%TO.C,P*%
X41350000Y-43650000D03*
%TD*%
%TO.C,P*%
X43890000Y-43650000D03*
%TD*%
%TO.C,P*%
X46430000Y-43650000D03*
%TD*%
%TO.C,P*%
X48970000Y-43650000D03*
%TD*%
%TO.C,P*%
X51510000Y-43650000D03*
%TD*%
%TO.C,P*%
X54050000Y-43650000D03*
%TD*%
%TO.C,P*%
X56590000Y-43650000D03*
%TD*%
%TO.C,P*%
X59130000Y-43650000D03*
%TD*%
%TO.C,P*%
X61670000Y-43650000D03*
%TD*%
%TO.C,P*%
X64210000Y-43650000D03*
%TD*%
%TO.C,P*%
X5790000Y-46190000D03*
%TD*%
%TO.C,P*%
X8330000Y-46190000D03*
%TD*%
%TO.C,P*%
X10870000Y-46190000D03*
%TD*%
%TO.C,P*%
X13410000Y-46190000D03*
%TD*%
%TO.C,P*%
X15950000Y-46190000D03*
%TD*%
%TO.C,P*%
X18490000Y-46190000D03*
%TD*%
%TO.C,P*%
X21030000Y-46190000D03*
%TD*%
%TO.C,P*%
X23570000Y-46190000D03*
%TD*%
%TO.C,P*%
X26110000Y-46190000D03*
%TD*%
%TO.C,P*%
X28650000Y-46190000D03*
%TD*%
%TO.C,P*%
X31190000Y-46190000D03*
%TD*%
%TO.C,P*%
X33730000Y-46190000D03*
%TD*%
%TO.C,P*%
X36270000Y-46190000D03*
%TD*%
%TO.C,P*%
X38810000Y-46190000D03*
%TD*%
%TO.C,P*%
X41350000Y-46190000D03*
%TD*%
%TO.C,P*%
X43890000Y-46190000D03*
%TD*%
%TO.C,P*%
X46430000Y-46190000D03*
%TD*%
%TO.C,P*%
X48970000Y-46190000D03*
%TD*%
%TO.C,P*%
X51510000Y-46190000D03*
%TD*%
%TO.C,P*%
X54050000Y-46190000D03*
%TD*%
%TO.C,P*%
X56590000Y-46190000D03*
%TD*%
%TO.C,P*%
X59130000Y-46190000D03*
%TD*%
%TO.C,P*%
X61670000Y-46190000D03*
%TD*%
%TO.C,P*%
X64210000Y-46190000D03*
%TD*%
%TO.C,P*%
X5790000Y-48730000D03*
%TD*%
%TO.C,P*%
X8330000Y-48730000D03*
%TD*%
%TO.C,P*%
X10870000Y-48730000D03*
%TD*%
%TO.C,P*%
X13410000Y-48730000D03*
%TD*%
%TO.C,P*%
X15950000Y-48730000D03*
%TD*%
%TO.C,P*%
X18490000Y-48730000D03*
%TD*%
%TO.C,P*%
X21030000Y-48730000D03*
%TD*%
%TO.C,P*%
X23570000Y-48730000D03*
%TD*%
%TO.C,P*%
X26110000Y-48730000D03*
%TD*%
%TO.C,P*%
X28650000Y-48730000D03*
%TD*%
%TO.C,P*%
X31190000Y-48730000D03*
%TD*%
%TO.C,P*%
X33730000Y-48730000D03*
%TD*%
%TO.C,P*%
X36270000Y-48730000D03*
%TD*%
%TO.C,P*%
X38810000Y-48730000D03*
%TD*%
%TO.C,P*%
X41350000Y-48730000D03*
%TD*%
%TO.C,P*%
X43890000Y-48730000D03*
%TD*%
%TO.C,P*%
X46430000Y-48730000D03*
%TD*%
%TO.C,P*%
X48970000Y-48730000D03*
%TD*%
%TO.C,P*%
X51510000Y-48730000D03*
%TD*%
%TO.C,P*%
X54050000Y-48730000D03*
%TD*%
%TO.C,P*%
X56590000Y-48730000D03*
%TD*%
%TO.C,P*%
X59130000Y-48730000D03*
%TD*%
%TO.C,P*%
X61670000Y-48730000D03*
%TD*%
%TO.C,P*%
X64210000Y-48730000D03*
%TD*%
%TO.C,P*%
X5790000Y-51270000D03*
%TD*%
%TO.C,P*%
X8330000Y-51270000D03*
%TD*%
%TO.C,P*%
X10870000Y-51270000D03*
%TD*%
%TO.C,P*%
X13410000Y-51270000D03*
%TD*%
%TO.C,P*%
X15950000Y-51270000D03*
%TD*%
%TO.C,P*%
X18490000Y-51270000D03*
%TD*%
%TO.C,P*%
X21030000Y-51270000D03*
%TD*%
%TO.C,P*%
X23570000Y-51270000D03*
%TD*%
%TO.C,P*%
X26110000Y-51270000D03*
%TD*%
%TO.C,P*%
X28650000Y-51270000D03*
%TD*%
%TO.C,P*%
X31190000Y-51270000D03*
%TD*%
%TO.C,P*%
X33730000Y-51270000D03*
%TD*%
%TO.C,P*%
X36270000Y-51270000D03*
%TD*%
%TO.C,P*%
X38810000Y-51270000D03*
%TD*%
%TO.C,P*%
X41350000Y-51270000D03*
%TD*%
%TO.C,P*%
X43890000Y-51270000D03*
%TD*%
%TO.C,P*%
X46430000Y-51270000D03*
%TD*%
%TO.C,P*%
X48970000Y-51270000D03*
%TD*%
%TO.C,P*%
X51510000Y-51270000D03*
%TD*%
%TO.C,P*%
X54050000Y-51270000D03*
%TD*%
%TO.C,P*%
X56590000Y-51270000D03*
%TD*%
%TO.C,P*%
X59130000Y-51270000D03*
%TD*%
%TO.C,P*%
X61670000Y-51270000D03*
%TD*%
%TO.C,P*%
X64210000Y-51270000D03*
%TD*%
%TO.C,P*%
X5790000Y-53810000D03*
%TD*%
%TO.C,P*%
X8330000Y-53810000D03*
%TD*%
%TO.C,P*%
X10870000Y-53810000D03*
%TD*%
%TO.C,P*%
X13410000Y-53810000D03*
%TD*%
%TO.C,P*%
X15950000Y-53810000D03*
%TD*%
%TO.C,P*%
X18490000Y-53810000D03*
%TD*%
%TO.C,P*%
X21030000Y-53810000D03*
%TD*%
%TO.C,P*%
X23570000Y-53810000D03*
%TD*%
%TO.C,P*%
X26110000Y-53810000D03*
%TD*%
%TO.C,P*%
X28650000Y-53810000D03*
%TD*%
%TO.C,P*%
X31190000Y-53810000D03*
%TD*%
%TO.C,P*%
X33730000Y-53810000D03*
%TD*%
%TO.C,P*%
X36270000Y-53810000D03*
%TD*%
%TO.C,P*%
X38810000Y-53810000D03*
%TD*%
%TO.C,P*%
X41350000Y-53810000D03*
%TD*%
%TO.C,P*%
X43890000Y-53810000D03*
%TD*%
%TO.C,P*%
X46430000Y-53810000D03*
%TD*%
%TO.C,P*%
X48970000Y-53810000D03*
%TD*%
%TO.C,P*%
X51510000Y-53810000D03*
%TD*%
%TO.C,P*%
X54050000Y-53810000D03*
%TD*%
%TO.C,P*%
X56590000Y-53810000D03*
%TD*%
%TO.C,P*%
X59130000Y-53810000D03*
%TD*%
%TO.C,P*%
X61670000Y-53810000D03*
%TD*%
%TO.C,P*%
X64210000Y-53810000D03*
%TD*%
%TO.C,P*%
X5790000Y-56350000D03*
%TD*%
%TO.C,P*%
X8330000Y-56350000D03*
%TD*%
%TO.C,P*%
X10870000Y-56350000D03*
%TD*%
%TO.C,P*%
X13410000Y-56350000D03*
%TD*%
%TO.C,P*%
X15950000Y-56350000D03*
%TD*%
%TO.C,P*%
X18490000Y-56350000D03*
%TD*%
%TO.C,P*%
X21030000Y-56350000D03*
%TD*%
%TO.C,P*%
X23570000Y-56350000D03*
%TD*%
%TO.C,P*%
X26110000Y-56350000D03*
%TD*%
%TO.C,P*%
X28650000Y-56350000D03*
%TD*%
%TO.C,P*%
X31190000Y-56350000D03*
%TD*%
%TO.C,P*%
X33730000Y-56350000D03*
%TD*%
%TO.C,P*%
X36270000Y-56350000D03*
%TD*%
%TO.C,P*%
X38810000Y-56350000D03*
%TD*%
%TO.C,P*%
X41350000Y-56350000D03*
%TD*%
%TO.C,P*%
X43890000Y-56350000D03*
%TD*%
%TO.C,P*%
X46430000Y-56350000D03*
%TD*%
%TO.C,P*%
X48970000Y-56350000D03*
%TD*%
%TO.C,P*%
X51510000Y-56350000D03*
%TD*%
%TO.C,P*%
X54050000Y-56350000D03*
%TD*%
%TO.C,P*%
X56590000Y-56350000D03*
%TD*%
%TO.C,P*%
X59130000Y-56350000D03*
%TD*%
%TO.C,P*%
X61670000Y-56350000D03*
%TD*%
%TO.C,P*%
X64210000Y-56350000D03*
%TD*%
%TO.C,P*%
X5790000Y-58890000D03*
%TD*%
%TO.C,P*%
X8330000Y-58890000D03*
%TD*%
%TO.C,P*%
X10870000Y-58890000D03*
%TD*%
%TO.C,P*%
X13410000Y-58890000D03*
%TD*%
%TO.C,P*%
X15950000Y-58890000D03*
%TD*%
%TO.C,P*%
X18490000Y-58890000D03*
%TD*%
%TO.C,P*%
X21030000Y-58890000D03*
%TD*%
%TO.C,P*%
X23570000Y-58890000D03*
%TD*%
%TO.C,P*%
X26110000Y-58890000D03*
%TD*%
%TO.C,P*%
X28650000Y-58890000D03*
%TD*%
%TO.C,P*%
X31190000Y-58890000D03*
%TD*%
%TO.C,P*%
X33730000Y-58890000D03*
%TD*%
%TO.C,P*%
X36270000Y-58890000D03*
%TD*%
%TO.C,P*%
X38810000Y-58890000D03*
%TD*%
%TO.C,P*%
X41350000Y-58890000D03*
%TD*%
%TO.C,P*%
X43890000Y-58890000D03*
%TD*%
%TO.C,P*%
X46430000Y-58890000D03*
%TD*%
%TO.C,P*%
X48970000Y-58890000D03*
%TD*%
%TO.C,P*%
X51510000Y-58890000D03*
%TD*%
%TO.C,P*%
X54050000Y-58890000D03*
%TD*%
%TO.C,P*%
X56590000Y-58890000D03*
%TD*%
%TO.C,P*%
X59130000Y-58890000D03*
%TD*%
%TO.C,P*%
X61670000Y-58890000D03*
%TD*%
%TO.C,P*%
X64210000Y-58890000D03*
%TD*%
%TO.C,P*%
X5790000Y-61430000D03*
%TD*%
%TO.C,P*%
X8330000Y-61430000D03*
%TD*%
%TO.C,P*%
X10870000Y-61430000D03*
%TD*%
%TO.C,P*%
X13410000Y-61430000D03*
%TD*%
%TO.C,P*%
X15950000Y-61430000D03*
%TD*%
%TO.C,P*%
X18490000Y-61430000D03*
%TD*%
%TO.C,P*%
X21030000Y-61430000D03*
%TD*%
%TO.C,P*%
X23570000Y-61430000D03*
%TD*%
%TO.C,P*%
X26110000Y-61430000D03*
%TD*%
%TO.C,P*%
X28650000Y-61430000D03*
%TD*%
%TO.C,P*%
X31190000Y-61430000D03*
%TD*%
%TO.C,P*%
X33730000Y-61430000D03*
%TD*%
%TO.C,P*%
X36270000Y-61430000D03*
%TD*%
%TO.C,P*%
X38810000Y-61430000D03*
%TD*%
%TO.C,P*%
X41350000Y-61430000D03*
%TD*%
%TO.C,P*%
X43890000Y-61430000D03*
%TD*%
%TO.C,P*%
X46430000Y-61430000D03*
%TD*%
%TO.C,P*%
X48970000Y-61430000D03*
%TD*%
%TO.C,P*%
X51510000Y-61430000D03*
%TD*%
%TO.C,P*%
X54050000Y-61430000D03*
%TD*%
%TO.C,P*%
X56590000Y-61430000D03*
%TD*%
%TO.C,P*%
X59130000Y-61430000D03*
%TD*%
%TO.C,P*%
X61670000Y-61430000D03*
%TD*%
%TO.C,P*%
X64210000Y-61430000D03*
%TD*%
%TO.C,P*%
X5790000Y-63970000D03*
%TD*%
%TO.C,P*%
X8330000Y-63970000D03*
%TD*%
%TO.C,P*%
X10870000Y-63970000D03*
%TD*%
%TO.C,P*%
X13410000Y-63970000D03*
%TD*%
%TO.C,P*%
X15950000Y-63970000D03*
%TD*%
%TO.C,P*%
X18490000Y-63970000D03*
%TD*%
%TO.C,P*%
X21030000Y-63970000D03*
%TD*%
%TO.C,P*%
X23570000Y-63970000D03*
%TD*%
%TO.C,P*%
X26110000Y-63970000D03*
%TD*%
%TO.C,P*%
X28650000Y-63970000D03*
%TD*%
%TO.C,P*%
X31190000Y-63970000D03*
%TD*%
%TO.C,P*%
X33730000Y-63970000D03*
%TD*%
%TO.C,P*%
X36270000Y-63970000D03*
%TD*%
%TO.C,P*%
X38810000Y-63970000D03*
%TD*%
%TO.C,P*%
X41350000Y-63970000D03*
%TD*%
%TO.C,P*%
X43890000Y-63970000D03*
%TD*%
%TO.C,P*%
X46430000Y-63970000D03*
%TD*%
%TO.C,P*%
X48970000Y-63970000D03*
%TD*%
%TO.C,P*%
X51510000Y-63970000D03*
%TD*%
%TO.C,P*%
X54050000Y-63970000D03*
%TD*%
%TO.C,P*%
X56590000Y-63970000D03*
%TD*%
%TO.C,P*%
X59130000Y-63970000D03*
%TD*%
%TO.C,P*%
X61670000Y-63970000D03*
%TD*%
%TO.C,P*%
X64210000Y-63970000D03*
%TD*%
%TO.C,P*%
X5790000Y-66510000D03*
%TD*%
%TO.C,P*%
X8330000Y-66510000D03*
%TD*%
%TO.C,P*%
X10870000Y-66510000D03*
%TD*%
%TO.C,P*%
X13410000Y-66510000D03*
%TD*%
%TO.C,P*%
X15950000Y-66510000D03*
%TD*%
%TO.C,P*%
X18490000Y-66510000D03*
%TD*%
%TO.C,P*%
X21030000Y-66510000D03*
%TD*%
%TO.C,P*%
X23570000Y-66510000D03*
%TD*%
%TO.C,P*%
X26110000Y-66510000D03*
%TD*%
%TO.C,P*%
X28650000Y-66510000D03*
%TD*%
%TO.C,P*%
X31190000Y-66510000D03*
%TD*%
%TO.C,P*%
X33730000Y-66510000D03*
%TD*%
%TO.C,P*%
X36270000Y-66510000D03*
%TD*%
%TO.C,P*%
X38810000Y-66510000D03*
%TD*%
%TO.C,P*%
X41350000Y-66510000D03*
%TD*%
%TO.C,P*%
X43890000Y-66510000D03*
%TD*%
%TO.C,P*%
X46430000Y-66510000D03*
%TD*%
%TO.C,P*%
X48970000Y-66510000D03*
%TD*%
%TO.C,P*%
X51510000Y-66510000D03*
%TD*%
%TO.C,P*%
X54050000Y-66510000D03*
%TD*%
%TO.C,P*%
X56590000Y-66510000D03*
%TD*%
%TO.C,P*%
X59130000Y-66510000D03*
%TD*%
%TO.C,P*%
X61670000Y-66510000D03*
%TD*%
%TO.C,P*%
X64210000Y-66510000D03*
%TD*%
%TO.C,P*%
X5790000Y-69050000D03*
%TD*%
%TO.C,P*%
X8330000Y-69050000D03*
%TD*%
%TO.C,P*%
X10870000Y-69050000D03*
%TD*%
%TO.C,P*%
X13410000Y-69050000D03*
%TD*%
%TO.C,P*%
X15950000Y-69050000D03*
%TD*%
%TO.C,P*%
X18490000Y-69050000D03*
%TD*%
%TO.C,P*%
X21030000Y-69050000D03*
%TD*%
%TO.C,P*%
X23570000Y-69050000D03*
%TD*%
%TO.C,P*%
X26110000Y-69050000D03*
%TD*%
%TO.C,P*%
X28650000Y-69050000D03*
%TD*%
%TO.C,P*%
X31190000Y-69050000D03*
%TD*%
%TO.C,P*%
X33730000Y-69050000D03*
%TD*%
%TO.C,P*%
X36270000Y-69050000D03*
%TD*%
%TO.C,P*%
X38810000Y-69050000D03*
%TD*%
%TO.C,P*%
X41350000Y-69050000D03*
%TD*%
%TO.C,P*%
X43890000Y-69050000D03*
%TD*%
%TO.C,P*%
X46430000Y-69050000D03*
%TD*%
%TO.C,P*%
X48970000Y-69050000D03*
%TD*%
%TO.C,P*%
X51510000Y-69050000D03*
%TD*%
%TO.C,P*%
X54050000Y-69050000D03*
%TD*%
%TO.C,P*%
X56590000Y-69050000D03*
%TD*%
%TO.C,P*%
X59130000Y-69050000D03*
%TD*%
%TO.C,P*%
X61670000Y-69050000D03*
%TD*%
%TO.C,P*%
X64210000Y-69050000D03*
%TD*%
%TO.C,P*%
X5790000Y-71590000D03*
%TD*%
%TO.C,P*%
X8330000Y-71590000D03*
%TD*%
%TO.C,P*%
X10870000Y-71590000D03*
%TD*%
%TO.C,P*%
X13410000Y-71590000D03*
%TD*%
%TO.C,P*%
X15950000Y-71590000D03*
%TD*%
%TO.C,P*%
X18490000Y-71590000D03*
%TD*%
%TO.C,P*%
X21030000Y-71590000D03*
%TD*%
%TO.C,P*%
X23570000Y-71590000D03*
%TD*%
%TO.C,P*%
X26110000Y-71590000D03*
%TD*%
%TO.C,P*%
X28650000Y-71590000D03*
%TD*%
%TO.C,P*%
X31190000Y-71590000D03*
%TD*%
%TO.C,P*%
X33730000Y-71590000D03*
%TD*%
%TO.C,P*%
X36270000Y-71590000D03*
%TD*%
%TO.C,P*%
X38810000Y-71590000D03*
%TD*%
%TO.C,P*%
X41350000Y-71590000D03*
%TD*%
%TO.C,P*%
X43890000Y-71590000D03*
%TD*%
%TO.C,P*%
X46430000Y-71590000D03*
%TD*%
%TO.C,P*%
X48970000Y-71590000D03*
%TD*%
%TO.C,P*%
X51510000Y-71590000D03*
%TD*%
%TO.C,P*%
X54050000Y-71590000D03*
%TD*%
%TO.C,P*%
X56590000Y-71590000D03*
%TD*%
%TO.C,P*%
X59130000Y-71590000D03*
%TD*%
%TO.C,P*%
X61670000Y-71590000D03*
%TD*%
%TO.C,P*%
X64210000Y-71590000D03*
%TD*%
%TO.C,P*%
X5790000Y-74130000D03*
%TD*%
%TO.C,P*%
X8330000Y-74130000D03*
%TD*%
%TO.C,P*%
X10870000Y-74130000D03*
%TD*%
%TO.C,P*%
X13410000Y-74130000D03*
%TD*%
%TO.C,P*%
X15950000Y-74130000D03*
%TD*%
%TO.C,P*%
X18490000Y-74130000D03*
%TD*%
%TO.C,P*%
X21030000Y-74130000D03*
%TD*%
%TO.C,P*%
X23570000Y-74130000D03*
%TD*%
%TO.C,P*%
X26110000Y-74130000D03*
%TD*%
%TO.C,P*%
X28650000Y-74130000D03*
%TD*%
%TO.C,P*%
X31190000Y-74130000D03*
%TD*%
%TO.C,P*%
X33730000Y-74130000D03*
%TD*%
%TO.C,P*%
X36270000Y-74130000D03*
%TD*%
%TO.C,P*%
X38810000Y-74130000D03*
%TD*%
%TO.C,P*%
X41350000Y-74130000D03*
%TD*%
%TO.C,P*%
X43890000Y-74130000D03*
%TD*%
%TO.C,P*%
X46430000Y-74130000D03*
%TD*%
%TO.C,P*%
X48970000Y-74130000D03*
%TD*%
%TO.C,P*%
X51510000Y-74130000D03*
%TD*%
%TO.C,P*%
X54050000Y-74130000D03*
%TD*%
%TO.C,P*%
X56590000Y-74130000D03*
%TD*%
%TO.C,P*%
X59130000Y-74130000D03*
%TD*%
%TO.C,P*%
X61670000Y-74130000D03*
%TD*%
%TO.C,P*%
X64210000Y-74130000D03*
%TD*%
%TO.C,P*%
X5790000Y-76670000D03*
%TD*%
%TO.C,P*%
X8330000Y-76670000D03*
%TD*%
%TO.C,P*%
X10870000Y-76670000D03*
%TD*%
%TO.C,P*%
X13410000Y-76670000D03*
%TD*%
%TO.C,P*%
X15950000Y-76670000D03*
%TD*%
%TO.C,P*%
X18490000Y-76670000D03*
%TD*%
%TO.C,P*%
X21030000Y-76670000D03*
%TD*%
%TO.C,P*%
X23570000Y-76670000D03*
%TD*%
%TO.C,P*%
X26110000Y-76670000D03*
%TD*%
%TO.C,P*%
X28650000Y-76670000D03*
%TD*%
%TO.C,P*%
X31190000Y-76670000D03*
%TD*%
%TO.C,P*%
X33730000Y-76670000D03*
%TD*%
%TO.C,P*%
X36270000Y-76670000D03*
%TD*%
%TO.C,P*%
X38810000Y-76670000D03*
%TD*%
%TO.C,P*%
X41350000Y-76670000D03*
%TD*%
%TO.C,P*%
X43890000Y-76670000D03*
%TD*%
%TO.C,P*%
X46430000Y-76670000D03*
%TD*%
%TO.C,P*%
X48970000Y-76670000D03*
%TD*%
%TO.C,P*%
X51510000Y-76670000D03*
%TD*%
%TO.C,P*%
X54050000Y-76670000D03*
%TD*%
%TO.C,P*%
X56590000Y-76670000D03*
%TD*%
%TO.C,P*%
X59130000Y-76670000D03*
%TD*%
%TO.C,P*%
X61670000Y-76670000D03*
%TD*%
%TO.C,P*%
X64210000Y-76670000D03*
%TD*%
%TO.C,P*%
X5790000Y-79210000D03*
%TD*%
%TO.C,P*%
X8330000Y-79210000D03*
%TD*%
%TO.C,P*%
X10870000Y-79210000D03*
%TD*%
%TO.C,P*%
X13410000Y-79210000D03*
%TD*%
%TO.C,P*%
X15950000Y-79210000D03*
%TD*%
%TO.C,P*%
X18490000Y-79210000D03*
%TD*%
%TO.C,P*%
X21030000Y-79210000D03*
%TD*%
%TO.C,P*%
X23570000Y-79210000D03*
%TD*%
%TO.C,P*%
X26110000Y-79210000D03*
%TD*%
%TO.C,P*%
X28650000Y-79210000D03*
%TD*%
%TO.C,P*%
X31190000Y-79210000D03*
%TD*%
%TO.C,P*%
X33730000Y-79210000D03*
%TD*%
%TO.C,P*%
X36270000Y-79210000D03*
%TD*%
%TO.C,P*%
X38810000Y-79210000D03*
%TD*%
%TO.C,P*%
X41350000Y-79210000D03*
%TD*%
%TO.C,P*%
X43890000Y-79210000D03*
%TD*%
%TO.C,P*%
X46430000Y-79210000D03*
%TD*%
%TO.C,P*%
X48970000Y-79210000D03*
%TD*%
%TO.C,P*%
X51510000Y-79210000D03*
%TD*%
%TO.C,P*%
X54050000Y-79210000D03*
%TD*%
%TO.C,P*%
X56590000Y-79210000D03*
%TD*%
%TO.C,P*%
X59130000Y-79210000D03*
%TD*%
%TO.C,P*%
X61670000Y-79210000D03*
%TD*%
%TO.C,P*%
X64210000Y-79210000D03*
%TD*%
%TO.C,REF*%
X5790000Y-82960000D03*
X5790000Y-85500000D03*
X8330000Y-82960000D03*
X8330000Y-85500000D03*
X10870000Y-82960000D03*
X10870000Y-85500000D03*
D11*
X8330000Y-92000000D03*
%TD*%
D10*
%TO.C,REF*%
X59130000Y-82960000D03*
X59130000Y-85500000D03*
X61670000Y-82960000D03*
X61670000Y-85500000D03*
X64210000Y-82960000D03*
X64210000Y-85500000D03*
D11*
X61670000Y-92000000D03*
%TD*%
M02*
