%TF.GenerationSoftware,KiCad,Pcbnew,9.0.6*%
%TF.CreationDate,2026-03-26T20:22:35+01:00*%
%TF.ProjectId,proto_70x100_stripboard,70726f74-6f5f-4373-9078-3130305f7374,rev?*%
%TF.SameCoordinates,Original*%
%TF.FileFunction,Drillmap*%
%TF.FilePolarity,Positive*%
%FSLAX45Y45*%
G04 Gerber Fmt 4.5, Leading zero omitted, Abs format (unit mm)*
G04 Created by KiCad (PCBNEW 9.0.6) date 2026-03-26 20:22:35*
%MOMM*%
%LPD*%
G01*
G04 APERTURE LIST*
%ADD10C,0.100000*%
%ADD11C,0.200000*%
G04 APERTURE END LIST*
D10*
X400000Y0D02*
X6600000Y0D01*
X7000000Y-400000D02*
X7000000Y-9600000D01*
X6600000Y-10000000D02*
X400000Y-10000000D01*
X0Y-9600000D02*
X0Y-400000D01*
X0Y-400000D02*
G75*
G02*
X400000Y0I400000J0D01*
G01*
X6600000Y0D02*
G75*
G02*
X7000000Y-400000I0J-400000D01*
G01*
X7000000Y-9600000D02*
G75*
G02*
X6600000Y-10000000I-400000J0D01*
G01*
X400000Y-10000000D02*
G75*
G02*
X0Y-9600000I0J400000D01*
G01*
D11*
X255777Y-10316484D02*
X255777Y-10116484D01*
X255777Y-10116484D02*
X303396Y-10116484D01*
X303396Y-10116484D02*
X331967Y-10126008D01*
X331967Y-10126008D02*
X351015Y-10145055D01*
X351015Y-10145055D02*
X360539Y-10164103D01*
X360539Y-10164103D02*
X370062Y-10202198D01*
X370062Y-10202198D02*
X370062Y-10230770D01*
X370062Y-10230770D02*
X360539Y-10268865D01*
X360539Y-10268865D02*
X351015Y-10287912D01*
X351015Y-10287912D02*
X331967Y-10306960D01*
X331967Y-10306960D02*
X303396Y-10316484D01*
X303396Y-10316484D02*
X255777Y-10316484D01*
X455777Y-10316484D02*
X455777Y-10183150D01*
X455777Y-10221246D02*
X465301Y-10202198D01*
X465301Y-10202198D02*
X474824Y-10192674D01*
X474824Y-10192674D02*
X493872Y-10183150D01*
X493872Y-10183150D02*
X512920Y-10183150D01*
X579586Y-10316484D02*
X579586Y-10183150D01*
X579586Y-10116484D02*
X570063Y-10126008D01*
X570063Y-10126008D02*
X579586Y-10135531D01*
X579586Y-10135531D02*
X589110Y-10126008D01*
X589110Y-10126008D02*
X579586Y-10116484D01*
X579586Y-10116484D02*
X579586Y-10135531D01*
X703396Y-10316484D02*
X684348Y-10306960D01*
X684348Y-10306960D02*
X674824Y-10287912D01*
X674824Y-10287912D02*
X674824Y-10116484D01*
X808158Y-10316484D02*
X789110Y-10306960D01*
X789110Y-10306960D02*
X779586Y-10287912D01*
X779586Y-10287912D02*
X779586Y-10116484D01*
X1036729Y-10316484D02*
X1036729Y-10116484D01*
X1036729Y-10116484D02*
X1103396Y-10259341D01*
X1103396Y-10259341D02*
X1170063Y-10116484D01*
X1170063Y-10116484D02*
X1170063Y-10316484D01*
X1351015Y-10316484D02*
X1351015Y-10211722D01*
X1351015Y-10211722D02*
X1341491Y-10192674D01*
X1341491Y-10192674D02*
X1322444Y-10183150D01*
X1322444Y-10183150D02*
X1284348Y-10183150D01*
X1284348Y-10183150D02*
X1265301Y-10192674D01*
X1351015Y-10306960D02*
X1331967Y-10316484D01*
X1331967Y-10316484D02*
X1284348Y-10316484D01*
X1284348Y-10316484D02*
X1265301Y-10306960D01*
X1265301Y-10306960D02*
X1255777Y-10287912D01*
X1255777Y-10287912D02*
X1255777Y-10268865D01*
X1255777Y-10268865D02*
X1265301Y-10249817D01*
X1265301Y-10249817D02*
X1284348Y-10240293D01*
X1284348Y-10240293D02*
X1331967Y-10240293D01*
X1331967Y-10240293D02*
X1351015Y-10230770D01*
X1446253Y-10183150D02*
X1446253Y-10383150D01*
X1446253Y-10192674D02*
X1465301Y-10183150D01*
X1465301Y-10183150D02*
X1503396Y-10183150D01*
X1503396Y-10183150D02*
X1522443Y-10192674D01*
X1522443Y-10192674D02*
X1531967Y-10202198D01*
X1531967Y-10202198D02*
X1541491Y-10221246D01*
X1541491Y-10221246D02*
X1541491Y-10278389D01*
X1541491Y-10278389D02*
X1531967Y-10297436D01*
X1531967Y-10297436D02*
X1522443Y-10306960D01*
X1522443Y-10306960D02*
X1503396Y-10316484D01*
X1503396Y-10316484D02*
X1465301Y-10316484D01*
X1465301Y-10316484D02*
X1446253Y-10306960D01*
X1627205Y-10297436D02*
X1636729Y-10306960D01*
X1636729Y-10306960D02*
X1627205Y-10316484D01*
X1627205Y-10316484D02*
X1617682Y-10306960D01*
X1617682Y-10306960D02*
X1627205Y-10297436D01*
X1627205Y-10297436D02*
X1627205Y-10316484D01*
X1627205Y-10192674D02*
X1636729Y-10202198D01*
X1636729Y-10202198D02*
X1627205Y-10211722D01*
X1627205Y-10211722D02*
X1617682Y-10202198D01*
X1617682Y-10202198D02*
X1627205Y-10192674D01*
X1627205Y-10192674D02*
X1627205Y-10211722D01*
M02*
