M48
; DRILL file {KiCad 9.0.6} date 2026-03-25T19:52:28+0100
; FORMAT={-:-/ absolute / metric / decimal}
; #@! TF.CreationDate,2026-03-25T19:52:28+01:00
; #@! TF.GenerationSoftware,Kicad,Pcbnew,9.0.6
; #@! TF.FileFunction,MixedPlating,1,2
FMAT,2
METRIC
; #@! TA.AperFunction,Plated,PTH,ViaDrill
T1C0.300
; #@! TA.AperFunction,Plated,PTH,ViaDrill
T2C0.400
; #@! TA.AperFunction,Plated,PTH,ComponentDrill
T3C1.000
; #@! TA.AperFunction,Plated,PTH,ComponentDrill
T4C2.000
%
G90
G05
T1
X4.95Y-52.96
X4.95Y-55.5
X6.95Y-52.96
X6.95Y-55.5
X7.49Y-52.96
X7.49Y-55.5
X9.49Y-52.96
X9.49Y-55.5
X10.03Y-52.96
X10.03Y-55.5
X12.03Y-52.96
X12.03Y-55.5
X37.97Y-52.96
X37.97Y-55.5
X39.97Y-52.96
X39.97Y-55.5
X40.51Y-52.96
X40.51Y-55.5
X42.51Y-52.96
X42.51Y-55.5
X43.05Y-52.96
X43.05Y-55.5
X45.05Y-52.96
X45.05Y-55.5
T2
X4.69Y-62.0
X5.803Y-59.313
X5.803Y-64.687
X8.49Y-58.2
X8.49Y-65.8
X11.177Y-59.313
X11.177Y-64.687
X12.29Y-62.0
X37.71Y-62.0
X38.823Y-59.313
X38.823Y-64.687
X41.51Y-58.2
X41.51Y-65.8
X44.197Y-59.313
X44.197Y-64.687
X45.31Y-62.0
T3
X5.95Y-5.79
X5.95Y-8.33
X5.95Y-10.87
X5.95Y-13.41
X5.95Y-15.95
X5.95Y-18.49
X5.95Y-21.03
X5.95Y-23.57
X5.95Y-26.11
X5.95Y-28.65
X5.95Y-31.19
X5.95Y-33.73
X5.95Y-36.27
X5.95Y-38.81
X5.95Y-41.35
X5.95Y-43.89
X5.95Y-46.43
X5.95Y-48.97
X5.95Y-52.96
X5.95Y-55.5
X8.49Y-5.79
X8.49Y-8.33
X8.49Y-10.87
X8.49Y-13.41
X8.49Y-15.95
X8.49Y-18.49
X8.49Y-21.03
X8.49Y-23.57
X8.49Y-26.11
X8.49Y-28.65
X8.49Y-31.19
X8.49Y-33.73
X8.49Y-36.27
X8.49Y-38.81
X8.49Y-41.35
X8.49Y-43.89
X8.49Y-46.43
X8.49Y-48.97
X8.49Y-52.96
X8.49Y-55.5
X11.03Y-5.79
X11.03Y-8.33
X11.03Y-10.87
X11.03Y-13.41
X11.03Y-15.95
X11.03Y-18.49
X11.03Y-21.03
X11.03Y-23.57
X11.03Y-26.11
X11.03Y-28.65
X11.03Y-31.19
X11.03Y-33.73
X11.03Y-36.27
X11.03Y-38.81
X11.03Y-41.35
X11.03Y-43.89
X11.03Y-46.43
X11.03Y-48.97
X11.03Y-52.96
X11.03Y-55.5
X13.57Y-5.79
X13.57Y-8.33
X13.57Y-10.87
X13.57Y-13.41
X13.57Y-15.95
X13.57Y-18.49
X13.57Y-21.03
X13.57Y-23.57
X13.57Y-26.11
X13.57Y-28.65
X13.57Y-31.19
X13.57Y-33.73
X13.57Y-36.27
X13.57Y-38.81
X13.57Y-41.35
X13.57Y-43.89
X13.57Y-46.43
X13.57Y-48.97
X16.11Y-5.79
X16.11Y-8.33
X16.11Y-10.87
X16.11Y-13.41
X16.11Y-15.95
X16.11Y-18.49
X16.11Y-21.03
X16.11Y-23.57
X16.11Y-26.11
X16.11Y-28.65
X16.11Y-31.19
X16.11Y-33.73
X16.11Y-36.27
X16.11Y-38.81
X16.11Y-41.35
X16.11Y-43.89
X16.11Y-46.43
X16.11Y-48.97
X18.65Y-5.79
X18.65Y-8.33
X18.65Y-10.87
X18.65Y-13.41
X18.65Y-15.95
X18.65Y-18.49
X18.65Y-21.03
X18.65Y-23.57
X18.65Y-26.11
X18.65Y-28.65
X18.65Y-31.19
X18.65Y-33.73
X18.65Y-36.27
X18.65Y-38.81
X18.65Y-41.35
X18.65Y-43.89
X18.65Y-46.43
X18.65Y-48.97
X21.19Y-5.79
X21.19Y-8.33
X21.19Y-10.87
X21.19Y-13.41
X21.19Y-15.95
X21.19Y-18.49
X21.19Y-21.03
X21.19Y-23.57
X21.19Y-26.11
X21.19Y-28.65
X21.19Y-31.19
X21.19Y-33.73
X21.19Y-36.27
X21.19Y-38.81
X21.19Y-41.35
X21.19Y-43.89
X21.19Y-46.43
X21.19Y-48.97
X23.73Y-5.79
X23.73Y-8.33
X23.73Y-10.87
X23.73Y-13.41
X23.73Y-15.95
X23.73Y-18.49
X23.73Y-21.03
X23.73Y-23.57
X23.73Y-26.11
X23.73Y-28.65
X23.73Y-31.19
X23.73Y-33.73
X23.73Y-36.27
X23.73Y-38.81
X23.73Y-41.35
X23.73Y-43.89
X23.73Y-46.43
X23.73Y-48.97
X26.27Y-5.79
X26.27Y-8.33
X26.27Y-10.87
X26.27Y-13.41
X26.27Y-15.95
X26.27Y-18.49
X26.27Y-21.03
X26.27Y-23.57
X26.27Y-26.11
X26.27Y-28.65
X26.27Y-31.19
X26.27Y-33.73
X26.27Y-36.27
X26.27Y-38.81
X26.27Y-41.35
X26.27Y-43.89
X26.27Y-46.43
X26.27Y-48.97
X28.81Y-5.79
X28.81Y-8.33
X28.81Y-10.87
X28.81Y-13.41
X28.81Y-15.95
X28.81Y-18.49
X28.81Y-21.03
X28.81Y-23.57
X28.81Y-26.11
X28.81Y-28.65
X28.81Y-31.19
X28.81Y-33.73
X28.81Y-36.27
X28.81Y-38.81
X28.81Y-41.35
X28.81Y-43.89
X28.81Y-46.43
X28.81Y-48.97
X31.35Y-5.79
X31.35Y-8.33
X31.35Y-10.87
X31.35Y-13.41
X31.35Y-15.95
X31.35Y-18.49
X31.35Y-21.03
X31.35Y-23.57
X31.35Y-26.11
X31.35Y-28.65
X31.35Y-31.19
X31.35Y-33.73
X31.35Y-36.27
X31.35Y-38.81
X31.35Y-41.35
X31.35Y-43.89
X31.35Y-46.43
X31.35Y-48.97
X33.89Y-5.79
X33.89Y-8.33
X33.89Y-10.87
X33.89Y-13.41
X33.89Y-15.95
X33.89Y-18.49
X33.89Y-21.03
X33.89Y-23.57
X33.89Y-26.11
X33.89Y-28.65
X33.89Y-31.19
X33.89Y-33.73
X33.89Y-36.27
X33.89Y-38.81
X33.89Y-41.35
X33.89Y-43.89
X33.89Y-46.43
X33.89Y-48.97
X36.43Y-5.79
X36.43Y-8.33
X36.43Y-10.87
X36.43Y-13.41
X36.43Y-15.95
X36.43Y-18.49
X36.43Y-21.03
X36.43Y-23.57
X36.43Y-26.11
X36.43Y-28.65
X36.43Y-31.19
X36.43Y-33.73
X36.43Y-36.27
X36.43Y-38.81
X36.43Y-41.35
X36.43Y-43.89
X36.43Y-46.43
X36.43Y-48.97
X38.97Y-5.79
X38.97Y-8.33
X38.97Y-10.87
X38.97Y-13.41
X38.97Y-15.95
X38.97Y-18.49
X38.97Y-21.03
X38.97Y-23.57
X38.97Y-26.11
X38.97Y-28.65
X38.97Y-31.19
X38.97Y-33.73
X38.97Y-36.27
X38.97Y-38.81
X38.97Y-41.35
X38.97Y-43.89
X38.97Y-46.43
X38.97Y-48.97
X38.97Y-52.96
X38.97Y-55.5
X41.51Y-5.79
X41.51Y-8.33
X41.51Y-10.87
X41.51Y-13.41
X41.51Y-15.95
X41.51Y-18.49
X41.51Y-21.03
X41.51Y-23.57
X41.51Y-26.11
X41.51Y-28.65
X41.51Y-31.19
X41.51Y-33.73
X41.51Y-36.27
X41.51Y-38.81
X41.51Y-41.35
X41.51Y-43.89
X41.51Y-46.43
X41.51Y-48.97
X41.51Y-52.96
X41.51Y-55.5
X44.05Y-5.79
X44.05Y-8.33
X44.05Y-10.87
X44.05Y-13.41
X44.05Y-15.95
X44.05Y-18.49
X44.05Y-21.03
X44.05Y-23.57
X44.05Y-26.11
X44.05Y-28.65
X44.05Y-31.19
X44.05Y-33.73
X44.05Y-36.27
X44.05Y-38.81
X44.05Y-41.35
X44.05Y-43.89
X44.05Y-46.43
X44.05Y-48.97
X44.05Y-52.96
X44.05Y-55.5
T4
X8.49Y-60.5G85X8.49Y-63.5
G05
X41.51Y-60.5G85X41.51Y-63.5
G05
M30
