M48
; DRILL file {KiCad 9.0.6} date 2026-03-25T19:20:42+0100
; FORMAT={-:-/ absolute / metric / decimal}
; #@! TF.CreationDate,2026-03-25T19:20:42+01:00
; #@! TF.GenerationSoftware,Kicad,Pcbnew,9.0.6
; #@! TF.FileFunction,MixedPlating,1,2
FMAT,2
METRIC
; #@! TA.AperFunction,Plated,PTH,ViaDrill
T1C0.300
; #@! TA.AperFunction,Plated,PTH,ViaDrill
T2C0.400
; #@! TA.AperFunction,Plated,PTH,ComponentDrill
T3C1.000
; #@! TA.AperFunction,Plated,PTH,ComponentDrill
T4C2.000
%
G90
G05
T1
X4.55Y-142.96
X4.55Y-145.5
X6.55Y-142.96
X6.55Y-145.5
X7.09Y-142.96
X7.09Y-145.5
X9.09Y-142.96
X9.09Y-145.5
X9.63Y-142.96
X9.63Y-145.5
X11.63Y-142.96
X11.63Y-145.5
X88.37Y-142.96
X88.37Y-145.5
X90.37Y-142.96
X90.37Y-145.5
X90.91Y-142.96
X90.91Y-145.5
X92.91Y-142.96
X92.91Y-145.5
X93.45Y-142.96
X93.45Y-145.5
X95.45Y-142.96
X95.45Y-145.5
T2
X4.29Y-152.0
X5.403Y-149.313
X5.403Y-154.687
X8.09Y-148.2
X8.09Y-155.8
X10.777Y-149.313
X10.777Y-154.687
X11.89Y-152.0
X88.11Y-152.0
X89.223Y-149.313
X89.223Y-154.687
X91.91Y-148.2
X91.91Y-155.8
X94.597Y-149.313
X94.597Y-154.687
X95.71Y-152.0
T3
X5.55Y-5.07
X5.55Y-7.61
X5.55Y-10.15
X5.55Y-12.69
X5.55Y-15.23
X5.55Y-17.77
X5.55Y-20.31
X5.55Y-22.85
X5.55Y-25.39
X5.55Y-27.93
X5.55Y-30.47
X5.55Y-33.01
X5.55Y-35.55
X5.55Y-38.09
X5.55Y-40.63
X5.55Y-43.17
X5.55Y-45.71
X5.55Y-48.25
X5.55Y-50.79
X5.55Y-53.33
X5.55Y-55.87
X5.55Y-58.41
X5.55Y-60.95
X5.55Y-63.49
X5.55Y-66.03
X5.55Y-68.57
X5.55Y-71.11
X5.55Y-73.65
X5.55Y-76.19
X5.55Y-78.73
X5.55Y-81.27
X5.55Y-83.81
X5.55Y-86.35
X5.55Y-88.89
X5.55Y-91.43
X5.55Y-93.97
X5.55Y-96.51
X5.55Y-99.05
X5.55Y-101.59
X5.55Y-104.13
X5.55Y-106.67
X5.55Y-109.21
X5.55Y-111.75
X5.55Y-114.29
X5.55Y-116.83
X5.55Y-119.37
X5.55Y-121.91
X5.55Y-124.45
X5.55Y-126.99
X5.55Y-129.53
X5.55Y-132.07
X5.55Y-134.61
X5.55Y-137.15
X5.55Y-139.69
X5.55Y-142.96
X5.55Y-145.5
X8.09Y-5.07
X8.09Y-7.61
X8.09Y-10.15
X8.09Y-12.69
X8.09Y-15.23
X8.09Y-17.77
X8.09Y-20.31
X8.09Y-22.85
X8.09Y-25.39
X8.09Y-27.93
X8.09Y-30.47
X8.09Y-33.01
X8.09Y-35.55
X8.09Y-38.09
X8.09Y-40.63
X8.09Y-43.17
X8.09Y-45.71
X8.09Y-48.25
X8.09Y-50.79
X8.09Y-53.33
X8.09Y-55.87
X8.09Y-58.41
X8.09Y-60.95
X8.09Y-63.49
X8.09Y-66.03
X8.09Y-68.57
X8.09Y-71.11
X8.09Y-73.65
X8.09Y-76.19
X8.09Y-78.73
X8.09Y-81.27
X8.09Y-83.81
X8.09Y-86.35
X8.09Y-88.89
X8.09Y-91.43
X8.09Y-93.97
X8.09Y-96.51
X8.09Y-99.05
X8.09Y-101.59
X8.09Y-104.13
X8.09Y-106.67
X8.09Y-109.21
X8.09Y-111.75
X8.09Y-114.29
X8.09Y-116.83
X8.09Y-119.37
X8.09Y-121.91
X8.09Y-124.45
X8.09Y-126.99
X8.09Y-129.53
X8.09Y-132.07
X8.09Y-134.61
X8.09Y-137.15
X8.09Y-139.69
X8.09Y-142.96
X8.09Y-145.5
X10.63Y-5.07
X10.63Y-7.61
X10.63Y-10.15
X10.63Y-12.69
X10.63Y-15.23
X10.63Y-17.77
X10.63Y-20.31
X10.63Y-22.85
X10.63Y-25.39
X10.63Y-27.93
X10.63Y-30.47
X10.63Y-33.01
X10.63Y-35.55
X10.63Y-38.09
X10.63Y-40.63
X10.63Y-43.17
X10.63Y-45.71
X10.63Y-48.25
X10.63Y-50.79
X10.63Y-53.33
X10.63Y-55.87
X10.63Y-58.41
X10.63Y-60.95
X10.63Y-63.49
X10.63Y-66.03
X10.63Y-68.57
X10.63Y-71.11
X10.63Y-73.65
X10.63Y-76.19
X10.63Y-78.73
X10.63Y-81.27
X10.63Y-83.81
X10.63Y-86.35
X10.63Y-88.89
X10.63Y-91.43
X10.63Y-93.97
X10.63Y-96.51
X10.63Y-99.05
X10.63Y-101.59
X10.63Y-104.13
X10.63Y-106.67
X10.63Y-109.21
X10.63Y-111.75
X10.63Y-114.29
X10.63Y-116.83
X10.63Y-119.37
X10.63Y-121.91
X10.63Y-124.45
X10.63Y-126.99
X10.63Y-129.53
X10.63Y-132.07
X10.63Y-134.61
X10.63Y-137.15
X10.63Y-139.69
X10.63Y-142.96
X10.63Y-145.5
X13.17Y-5.07
X13.17Y-7.61
X13.17Y-10.15
X13.17Y-12.69
X13.17Y-15.23
X13.17Y-17.77
X13.17Y-20.31
X13.17Y-22.85
X13.17Y-25.39
X13.17Y-27.93
X13.17Y-30.47
X13.17Y-33.01
X13.17Y-35.55
X13.17Y-38.09
X13.17Y-40.63
X13.17Y-43.17
X13.17Y-45.71
X13.17Y-48.25
X13.17Y-50.79
X13.17Y-53.33
X13.17Y-55.87
X13.17Y-58.41
X13.17Y-60.95
X13.17Y-63.49
X13.17Y-66.03
X13.17Y-68.57
X13.17Y-71.11
X13.17Y-73.65
X13.17Y-76.19
X13.17Y-78.73
X13.17Y-81.27
X13.17Y-83.81
X13.17Y-86.35
X13.17Y-88.89
X13.17Y-91.43
X13.17Y-93.97
X13.17Y-96.51
X13.17Y-99.05
X13.17Y-101.59
X13.17Y-104.13
X13.17Y-106.67
X13.17Y-109.21
X13.17Y-111.75
X13.17Y-114.29
X13.17Y-116.83
X13.17Y-119.37
X13.17Y-121.91
X13.17Y-124.45
X13.17Y-126.99
X13.17Y-129.53
X13.17Y-132.07
X13.17Y-134.61
X13.17Y-137.15
X13.17Y-139.69
X15.71Y-5.07
X15.71Y-7.61
X15.71Y-10.15
X15.71Y-12.69
X15.71Y-15.23
X15.71Y-17.77
X15.71Y-20.31
X15.71Y-22.85
X15.71Y-25.39
X15.71Y-27.93
X15.71Y-30.47
X15.71Y-33.01
X15.71Y-35.55
X15.71Y-38.09
X15.71Y-40.63
X15.71Y-43.17
X15.71Y-45.71
X15.71Y-48.25
X15.71Y-50.79
X15.71Y-53.33
X15.71Y-55.87
X15.71Y-58.41
X15.71Y-60.95
X15.71Y-63.49
X15.71Y-66.03
X15.71Y-68.57
X15.71Y-71.11
X15.71Y-73.65
X15.71Y-76.19
X15.71Y-78.73
X15.71Y-81.27
X15.71Y-83.81
X15.71Y-86.35
X15.71Y-88.89
X15.71Y-91.43
X15.71Y-93.97
X15.71Y-96.51
X15.71Y-99.05
X15.71Y-101.59
X15.71Y-104.13
X15.71Y-106.67
X15.71Y-109.21
X15.71Y-111.75
X15.71Y-114.29
X15.71Y-116.83
X15.71Y-119.37
X15.71Y-121.91
X15.71Y-124.45
X15.71Y-126.99
X15.71Y-129.53
X15.71Y-132.07
X15.71Y-134.61
X15.71Y-137.15
X15.71Y-139.69
X18.25Y-5.07
X18.25Y-7.61
X18.25Y-10.15
X18.25Y-12.69
X18.25Y-15.23
X18.25Y-17.77
X18.25Y-20.31
X18.25Y-22.85
X18.25Y-25.39
X18.25Y-27.93
X18.25Y-30.47
X18.25Y-33.01
X18.25Y-35.55
X18.25Y-38.09
X18.25Y-40.63
X18.25Y-43.17
X18.25Y-45.71
X18.25Y-48.25
X18.25Y-50.79
X18.25Y-53.33
X18.25Y-55.87
X18.25Y-58.41
X18.25Y-60.95
X18.25Y-63.49
X18.25Y-66.03
X18.25Y-68.57
X18.25Y-71.11
X18.25Y-73.65
X18.25Y-76.19
X18.25Y-78.73
X18.25Y-81.27
X18.25Y-83.81
X18.25Y-86.35
X18.25Y-88.89
X18.25Y-91.43
X18.25Y-93.97
X18.25Y-96.51
X18.25Y-99.05
X18.25Y-101.59
X18.25Y-104.13
X18.25Y-106.67
X18.25Y-109.21
X18.25Y-111.75
X18.25Y-114.29
X18.25Y-116.83
X18.25Y-119.37
X18.25Y-121.91
X18.25Y-124.45
X18.25Y-126.99
X18.25Y-129.53
X18.25Y-132.07
X18.25Y-134.61
X18.25Y-137.15
X18.25Y-139.69
X20.79Y-5.07
X20.79Y-7.61
X20.79Y-10.15
X20.79Y-12.69
X20.79Y-15.23
X20.79Y-17.77
X20.79Y-20.31
X20.79Y-22.85
X20.79Y-25.39
X20.79Y-27.93
X20.79Y-30.47
X20.79Y-33.01
X20.79Y-35.55
X20.79Y-38.09
X20.79Y-40.63
X20.79Y-43.17
X20.79Y-45.71
X20.79Y-48.25
X20.79Y-50.79
X20.79Y-53.33
X20.79Y-55.87
X20.79Y-58.41
X20.79Y-60.95
X20.79Y-63.49
X20.79Y-66.03
X20.79Y-68.57
X20.79Y-71.11
X20.79Y-73.65
X20.79Y-76.19
X20.79Y-78.73
X20.79Y-81.27
X20.79Y-83.81
X20.79Y-86.35
X20.79Y-88.89
X20.79Y-91.43
X20.79Y-93.97
X20.79Y-96.51
X20.79Y-99.05
X20.79Y-101.59
X20.79Y-104.13
X20.79Y-106.67
X20.79Y-109.21
X20.79Y-111.75
X20.79Y-114.29
X20.79Y-116.83
X20.79Y-119.37
X20.79Y-121.91
X20.79Y-124.45
X20.79Y-126.99
X20.79Y-129.53
X20.79Y-132.07
X20.79Y-134.61
X20.79Y-137.15
X20.79Y-139.69
X23.33Y-5.07
X23.33Y-7.61
X23.33Y-10.15
X23.33Y-12.69
X23.33Y-15.23
X23.33Y-17.77
X23.33Y-20.31
X23.33Y-22.85
X23.33Y-25.39
X23.33Y-27.93
X23.33Y-30.47
X23.33Y-33.01
X23.33Y-35.55
X23.33Y-38.09
X23.33Y-40.63
X23.33Y-43.17
X23.33Y-45.71
X23.33Y-48.25
X23.33Y-50.79
X23.33Y-53.33
X23.33Y-55.87
X23.33Y-58.41
X23.33Y-60.95
X23.33Y-63.49
X23.33Y-66.03
X23.33Y-68.57
X23.33Y-71.11
X23.33Y-73.65
X23.33Y-76.19
X23.33Y-78.73
X23.33Y-81.27
X23.33Y-83.81
X23.33Y-86.35
X23.33Y-88.89
X23.33Y-91.43
X23.33Y-93.97
X23.33Y-96.51
X23.33Y-99.05
X23.33Y-101.59
X23.33Y-104.13
X23.33Y-106.67
X23.33Y-109.21
X23.33Y-111.75
X23.33Y-114.29
X23.33Y-116.83
X23.33Y-119.37
X23.33Y-121.91
X23.33Y-124.45
X23.33Y-126.99
X23.33Y-129.53
X23.33Y-132.07
X23.33Y-134.61
X23.33Y-137.15
X23.33Y-139.69
X25.87Y-5.07
X25.87Y-7.61
X25.87Y-10.15
X25.87Y-12.69
X25.87Y-15.23
X25.87Y-17.77
X25.87Y-20.31
X25.87Y-22.85
X25.87Y-25.39
X25.87Y-27.93
X25.87Y-30.47
X25.87Y-33.01
X25.87Y-35.55
X25.87Y-38.09
X25.87Y-40.63
X25.87Y-43.17
X25.87Y-45.71
X25.87Y-48.25
X25.87Y-50.79
X25.87Y-53.33
X25.87Y-55.87
X25.87Y-58.41
X25.87Y-60.95
X25.87Y-63.49
X25.87Y-66.03
X25.87Y-68.57
X25.87Y-71.11
X25.87Y-73.65
X25.87Y-76.19
X25.87Y-78.73
X25.87Y-81.27
X25.87Y-83.81
X25.87Y-86.35
X25.87Y-88.89
X25.87Y-91.43
X25.87Y-93.97
X25.87Y-96.51
X25.87Y-99.05
X25.87Y-101.59
X25.87Y-104.13
X25.87Y-106.67
X25.87Y-109.21
X25.87Y-111.75
X25.87Y-114.29
X25.87Y-116.83
X25.87Y-119.37
X25.87Y-121.91
X25.87Y-124.45
X25.87Y-126.99
X25.87Y-129.53
X25.87Y-132.07
X25.87Y-134.61
X25.87Y-137.15
X25.87Y-139.69
X28.41Y-5.07
X28.41Y-7.61
X28.41Y-10.15
X28.41Y-12.69
X28.41Y-15.23
X28.41Y-17.77
X28.41Y-20.31
X28.41Y-22.85
X28.41Y-25.39
X28.41Y-27.93
X28.41Y-30.47
X28.41Y-33.01
X28.41Y-35.55
X28.41Y-38.09
X28.41Y-40.63
X28.41Y-43.17
X28.41Y-45.71
X28.41Y-48.25
X28.41Y-50.79
X28.41Y-53.33
X28.41Y-55.87
X28.41Y-58.41
X28.41Y-60.95
X28.41Y-63.49
X28.41Y-66.03
X28.41Y-68.57
X28.41Y-71.11
X28.41Y-73.65
X28.41Y-76.19
X28.41Y-78.73
X28.41Y-81.27
X28.41Y-83.81
X28.41Y-86.35
X28.41Y-88.89
X28.41Y-91.43
X28.41Y-93.97
X28.41Y-96.51
X28.41Y-99.05
X28.41Y-101.59
X28.41Y-104.13
X28.41Y-106.67
X28.41Y-109.21
X28.41Y-111.75
X28.41Y-114.29
X28.41Y-116.83
X28.41Y-119.37
X28.41Y-121.91
X28.41Y-124.45
X28.41Y-126.99
X28.41Y-129.53
X28.41Y-132.07
X28.41Y-134.61
X28.41Y-137.15
X28.41Y-139.69
X30.95Y-5.07
X30.95Y-7.61
X30.95Y-10.15
X30.95Y-12.69
X30.95Y-15.23
X30.95Y-17.77
X30.95Y-20.31
X30.95Y-22.85
X30.95Y-25.39
X30.95Y-27.93
X30.95Y-30.47
X30.95Y-33.01
X30.95Y-35.55
X30.95Y-38.09
X30.95Y-40.63
X30.95Y-43.17
X30.95Y-45.71
X30.95Y-48.25
X30.95Y-50.79
X30.95Y-53.33
X30.95Y-55.87
X30.95Y-58.41
X30.95Y-60.95
X30.95Y-63.49
X30.95Y-66.03
X30.95Y-68.57
X30.95Y-71.11
X30.95Y-73.65
X30.95Y-76.19
X30.95Y-78.73
X30.95Y-81.27
X30.95Y-83.81
X30.95Y-86.35
X30.95Y-88.89
X30.95Y-91.43
X30.95Y-93.97
X30.95Y-96.51
X30.95Y-99.05
X30.95Y-101.59
X30.95Y-104.13
X30.95Y-106.67
X30.95Y-109.21
X30.95Y-111.75
X30.95Y-114.29
X30.95Y-116.83
X30.95Y-119.37
X30.95Y-121.91
X30.95Y-124.45
X30.95Y-126.99
X30.95Y-129.53
X30.95Y-132.07
X30.95Y-134.61
X30.95Y-137.15
X30.95Y-139.69
X33.49Y-5.07
X33.49Y-7.61
X33.49Y-10.15
X33.49Y-12.69
X33.49Y-15.23
X33.49Y-17.77
X33.49Y-20.31
X33.49Y-22.85
X33.49Y-25.39
X33.49Y-27.93
X33.49Y-30.47
X33.49Y-33.01
X33.49Y-35.55
X33.49Y-38.09
X33.49Y-40.63
X33.49Y-43.17
X33.49Y-45.71
X33.49Y-48.25
X33.49Y-50.79
X33.49Y-53.33
X33.49Y-55.87
X33.49Y-58.41
X33.49Y-60.95
X33.49Y-63.49
X33.49Y-66.03
X33.49Y-68.57
X33.49Y-71.11
X33.49Y-73.65
X33.49Y-76.19
X33.49Y-78.73
X33.49Y-81.27
X33.49Y-83.81
X33.49Y-86.35
X33.49Y-88.89
X33.49Y-91.43
X33.49Y-93.97
X33.49Y-96.51
X33.49Y-99.05
X33.49Y-101.59
X33.49Y-104.13
X33.49Y-106.67
X33.49Y-109.21
X33.49Y-111.75
X33.49Y-114.29
X33.49Y-116.83
X33.49Y-119.37
X33.49Y-121.91
X33.49Y-124.45
X33.49Y-126.99
X33.49Y-129.53
X33.49Y-132.07
X33.49Y-134.61
X33.49Y-137.15
X33.49Y-139.69
X36.03Y-5.07
X36.03Y-7.61
X36.03Y-10.15
X36.03Y-12.69
X36.03Y-15.23
X36.03Y-17.77
X36.03Y-20.31
X36.03Y-22.85
X36.03Y-25.39
X36.03Y-27.93
X36.03Y-30.47
X36.03Y-33.01
X36.03Y-35.55
X36.03Y-38.09
X36.03Y-40.63
X36.03Y-43.17
X36.03Y-45.71
X36.03Y-48.25
X36.03Y-50.79
X36.03Y-53.33
X36.03Y-55.87
X36.03Y-58.41
X36.03Y-60.95
X36.03Y-63.49
X36.03Y-66.03
X36.03Y-68.57
X36.03Y-71.11
X36.03Y-73.65
X36.03Y-76.19
X36.03Y-78.73
X36.03Y-81.27
X36.03Y-83.81
X36.03Y-86.35
X36.03Y-88.89
X36.03Y-91.43
X36.03Y-93.97
X36.03Y-96.51
X36.03Y-99.05
X36.03Y-101.59
X36.03Y-104.13
X36.03Y-106.67
X36.03Y-109.21
X36.03Y-111.75
X36.03Y-114.29
X36.03Y-116.83
X36.03Y-119.37
X36.03Y-121.91
X36.03Y-124.45
X36.03Y-126.99
X36.03Y-129.53
X36.03Y-132.07
X36.03Y-134.61
X36.03Y-137.15
X36.03Y-139.69
X38.57Y-5.07
X38.57Y-7.61
X38.57Y-10.15
X38.57Y-12.69
X38.57Y-15.23
X38.57Y-17.77
X38.57Y-20.31
X38.57Y-22.85
X38.57Y-25.39
X38.57Y-27.93
X38.57Y-30.47
X38.57Y-33.01
X38.57Y-35.55
X38.57Y-38.09
X38.57Y-40.63
X38.57Y-43.17
X38.57Y-45.71
X38.57Y-48.25
X38.57Y-50.79
X38.57Y-53.33
X38.57Y-55.87
X38.57Y-58.41
X38.57Y-60.95
X38.57Y-63.49
X38.57Y-66.03
X38.57Y-68.57
X38.57Y-71.11
X38.57Y-73.65
X38.57Y-76.19
X38.57Y-78.73
X38.57Y-81.27
X38.57Y-83.81
X38.57Y-86.35
X38.57Y-88.89
X38.57Y-91.43
X38.57Y-93.97
X38.57Y-96.51
X38.57Y-99.05
X38.57Y-101.59
X38.57Y-104.13
X38.57Y-106.67
X38.57Y-109.21
X38.57Y-111.75
X38.57Y-114.29
X38.57Y-116.83
X38.57Y-119.37
X38.57Y-121.91
X38.57Y-124.45
X38.57Y-126.99
X38.57Y-129.53
X38.57Y-132.07
X38.57Y-134.61
X38.57Y-137.15
X38.57Y-139.69
X41.11Y-5.07
X41.11Y-7.61
X41.11Y-10.15
X41.11Y-12.69
X41.11Y-15.23
X41.11Y-17.77
X41.11Y-20.31
X41.11Y-22.85
X41.11Y-25.39
X41.11Y-27.93
X41.11Y-30.47
X41.11Y-33.01
X41.11Y-35.55
X41.11Y-38.09
X41.11Y-40.63
X41.11Y-43.17
X41.11Y-45.71
X41.11Y-48.25
X41.11Y-50.79
X41.11Y-53.33
X41.11Y-55.87
X41.11Y-58.41
X41.11Y-60.95
X41.11Y-63.49
X41.11Y-66.03
X41.11Y-68.57
X41.11Y-71.11
X41.11Y-73.65
X41.11Y-76.19
X41.11Y-78.73
X41.11Y-81.27
X41.11Y-83.81
X41.11Y-86.35
X41.11Y-88.89
X41.11Y-91.43
X41.11Y-93.97
X41.11Y-96.51
X41.11Y-99.05
X41.11Y-101.59
X41.11Y-104.13
X41.11Y-106.67
X41.11Y-109.21
X41.11Y-111.75
X41.11Y-114.29
X41.11Y-116.83
X41.11Y-119.37
X41.11Y-121.91
X41.11Y-124.45
X41.11Y-126.99
X41.11Y-129.53
X41.11Y-132.07
X41.11Y-134.61
X41.11Y-137.15
X41.11Y-139.69
X43.65Y-5.07
X43.65Y-7.61
X43.65Y-10.15
X43.65Y-12.69
X43.65Y-15.23
X43.65Y-17.77
X43.65Y-20.31
X43.65Y-22.85
X43.65Y-25.39
X43.65Y-27.93
X43.65Y-30.47
X43.65Y-33.01
X43.65Y-35.55
X43.65Y-38.09
X43.65Y-40.63
X43.65Y-43.17
X43.65Y-45.71
X43.65Y-48.25
X43.65Y-50.79
X43.65Y-53.33
X43.65Y-55.87
X43.65Y-58.41
X43.65Y-60.95
X43.65Y-63.49
X43.65Y-66.03
X43.65Y-68.57
X43.65Y-71.11
X43.65Y-73.65
X43.65Y-76.19
X43.65Y-78.73
X43.65Y-81.27
X43.65Y-83.81
X43.65Y-86.35
X43.65Y-88.89
X43.65Y-91.43
X43.65Y-93.97
X43.65Y-96.51
X43.65Y-99.05
X43.65Y-101.59
X43.65Y-104.13
X43.65Y-106.67
X43.65Y-109.21
X43.65Y-111.75
X43.65Y-114.29
X43.65Y-116.83
X43.65Y-119.37
X43.65Y-121.91
X43.65Y-124.45
X43.65Y-126.99
X43.65Y-129.53
X43.65Y-132.07
X43.65Y-134.61
X43.65Y-137.15
X43.65Y-139.69
X46.19Y-5.07
X46.19Y-7.61
X46.19Y-10.15
X46.19Y-12.69
X46.19Y-15.23
X46.19Y-17.77
X46.19Y-20.31
X46.19Y-22.85
X46.19Y-25.39
X46.19Y-27.93
X46.19Y-30.47
X46.19Y-33.01
X46.19Y-35.55
X46.19Y-38.09
X46.19Y-40.63
X46.19Y-43.17
X46.19Y-45.71
X46.19Y-48.25
X46.19Y-50.79
X46.19Y-53.33
X46.19Y-55.87
X46.19Y-58.41
X46.19Y-60.95
X46.19Y-63.49
X46.19Y-66.03
X46.19Y-68.57
X46.19Y-71.11
X46.19Y-73.65
X46.19Y-76.19
X46.19Y-78.73
X46.19Y-81.27
X46.19Y-83.81
X46.19Y-86.35
X46.19Y-88.89
X46.19Y-91.43
X46.19Y-93.97
X46.19Y-96.51
X46.19Y-99.05
X46.19Y-101.59
X46.19Y-104.13
X46.19Y-106.67
X46.19Y-109.21
X46.19Y-111.75
X46.19Y-114.29
X46.19Y-116.83
X46.19Y-119.37
X46.19Y-121.91
X46.19Y-124.45
X46.19Y-126.99
X46.19Y-129.53
X46.19Y-132.07
X46.19Y-134.61
X46.19Y-137.15
X46.19Y-139.69
X48.73Y-5.07
X48.73Y-7.61
X48.73Y-10.15
X48.73Y-12.69
X48.73Y-15.23
X48.73Y-17.77
X48.73Y-20.31
X48.73Y-22.85
X48.73Y-25.39
X48.73Y-27.93
X48.73Y-30.47
X48.73Y-33.01
X48.73Y-35.55
X48.73Y-38.09
X48.73Y-40.63
X48.73Y-43.17
X48.73Y-45.71
X48.73Y-48.25
X48.73Y-50.79
X48.73Y-53.33
X48.73Y-55.87
X48.73Y-58.41
X48.73Y-60.95
X48.73Y-63.49
X48.73Y-66.03
X48.73Y-68.57
X48.73Y-71.11
X48.73Y-73.65
X48.73Y-76.19
X48.73Y-78.73
X48.73Y-81.27
X48.73Y-83.81
X48.73Y-86.35
X48.73Y-88.89
X48.73Y-91.43
X48.73Y-93.97
X48.73Y-96.51
X48.73Y-99.05
X48.73Y-101.59
X48.73Y-104.13
X48.73Y-106.67
X48.73Y-109.21
X48.73Y-111.75
X48.73Y-114.29
X48.73Y-116.83
X48.73Y-119.37
X48.73Y-121.91
X48.73Y-124.45
X48.73Y-126.99
X48.73Y-129.53
X48.73Y-132.07
X48.73Y-134.61
X48.73Y-137.15
X48.73Y-139.69
X51.27Y-5.07
X51.27Y-7.61
X51.27Y-10.15
X51.27Y-12.69
X51.27Y-15.23
X51.27Y-17.77
X51.27Y-20.31
X51.27Y-22.85
X51.27Y-25.39
X51.27Y-27.93
X51.27Y-30.47
X51.27Y-33.01
X51.27Y-35.55
X51.27Y-38.09
X51.27Y-40.63
X51.27Y-43.17
X51.27Y-45.71
X51.27Y-48.25
X51.27Y-50.79
X51.27Y-53.33
X51.27Y-55.87
X51.27Y-58.41
X51.27Y-60.95
X51.27Y-63.49
X51.27Y-66.03
X51.27Y-68.57
X51.27Y-71.11
X51.27Y-73.65
X51.27Y-76.19
X51.27Y-78.73
X51.27Y-81.27
X51.27Y-83.81
X51.27Y-86.35
X51.27Y-88.89
X51.27Y-91.43
X51.27Y-93.97
X51.27Y-96.51
X51.27Y-99.05
X51.27Y-101.59
X51.27Y-104.13
X51.27Y-106.67
X51.27Y-109.21
X51.27Y-111.75
X51.27Y-114.29
X51.27Y-116.83
X51.27Y-119.37
X51.27Y-121.91
X51.27Y-124.45
X51.27Y-126.99
X51.27Y-129.53
X51.27Y-132.07
X51.27Y-134.61
X51.27Y-137.15
X51.27Y-139.69
X53.81Y-5.07
X53.81Y-7.61
X53.81Y-10.15
X53.81Y-12.69
X53.81Y-15.23
X53.81Y-17.77
X53.81Y-20.31
X53.81Y-22.85
X53.81Y-25.39
X53.81Y-27.93
X53.81Y-30.47
X53.81Y-33.01
X53.81Y-35.55
X53.81Y-38.09
X53.81Y-40.63
X53.81Y-43.17
X53.81Y-45.71
X53.81Y-48.25
X53.81Y-50.79
X53.81Y-53.33
X53.81Y-55.87
X53.81Y-58.41
X53.81Y-60.95
X53.81Y-63.49
X53.81Y-66.03
X53.81Y-68.57
X53.81Y-71.11
X53.81Y-73.65
X53.81Y-76.19
X53.81Y-78.73
X53.81Y-81.27
X53.81Y-83.81
X53.81Y-86.35
X53.81Y-88.89
X53.81Y-91.43
X53.81Y-93.97
X53.81Y-96.51
X53.81Y-99.05
X53.81Y-101.59
X53.81Y-104.13
X53.81Y-106.67
X53.81Y-109.21
X53.81Y-111.75
X53.81Y-114.29
X53.81Y-116.83
X53.81Y-119.37
X53.81Y-121.91
X53.81Y-124.45
X53.81Y-126.99
X53.81Y-129.53
X53.81Y-132.07
X53.81Y-134.61
X53.81Y-137.15
X53.81Y-139.69
X56.35Y-5.07
X56.35Y-7.61
X56.35Y-10.15
X56.35Y-12.69
X56.35Y-15.23
X56.35Y-17.77
X56.35Y-20.31
X56.35Y-22.85
X56.35Y-25.39
X56.35Y-27.93
X56.35Y-30.47
X56.35Y-33.01
X56.35Y-35.55
X56.35Y-38.09
X56.35Y-40.63
X56.35Y-43.17
X56.35Y-45.71
X56.35Y-48.25
X56.35Y-50.79
X56.35Y-53.33
X56.35Y-55.87
X56.35Y-58.41
X56.35Y-60.95
X56.35Y-63.49
X56.35Y-66.03
X56.35Y-68.57
X56.35Y-71.11
X56.35Y-73.65
X56.35Y-76.19
X56.35Y-78.73
X56.35Y-81.27
X56.35Y-83.81
X56.35Y-86.35
X56.35Y-88.89
X56.35Y-91.43
X56.35Y-93.97
X56.35Y-96.51
X56.35Y-99.05
X56.35Y-101.59
X56.35Y-104.13
X56.35Y-106.67
X56.35Y-109.21
X56.35Y-111.75
X56.35Y-114.29
X56.35Y-116.83
X56.35Y-119.37
X56.35Y-121.91
X56.35Y-124.45
X56.35Y-126.99
X56.35Y-129.53
X56.35Y-132.07
X56.35Y-134.61
X56.35Y-137.15
X56.35Y-139.69
X58.89Y-5.07
X58.89Y-7.61
X58.89Y-10.15
X58.89Y-12.69
X58.89Y-15.23
X58.89Y-17.77
X58.89Y-20.31
X58.89Y-22.85
X58.89Y-25.39
X58.89Y-27.93
X58.89Y-30.47
X58.89Y-33.01
X58.89Y-35.55
X58.89Y-38.09
X58.89Y-40.63
X58.89Y-43.17
X58.89Y-45.71
X58.89Y-48.25
X58.89Y-50.79
X58.89Y-53.33
X58.89Y-55.87
X58.89Y-58.41
X58.89Y-60.95
X58.89Y-63.49
X58.89Y-66.03
X58.89Y-68.57
X58.89Y-71.11
X58.89Y-73.65
X58.89Y-76.19
X58.89Y-78.73
X58.89Y-81.27
X58.89Y-83.81
X58.89Y-86.35
X58.89Y-88.89
X58.89Y-91.43
X58.89Y-93.97
X58.89Y-96.51
X58.89Y-99.05
X58.89Y-101.59
X58.89Y-104.13
X58.89Y-106.67
X58.89Y-109.21
X58.89Y-111.75
X58.89Y-114.29
X58.89Y-116.83
X58.89Y-119.37
X58.89Y-121.91
X58.89Y-124.45
X58.89Y-126.99
X58.89Y-129.53
X58.89Y-132.07
X58.89Y-134.61
X58.89Y-137.15
X58.89Y-139.69
X61.43Y-5.07
X61.43Y-7.61
X61.43Y-10.15
X61.43Y-12.69
X61.43Y-15.23
X61.43Y-17.77
X61.43Y-20.31
X61.43Y-22.85
X61.43Y-25.39
X61.43Y-27.93
X61.43Y-30.47
X61.43Y-33.01
X61.43Y-35.55
X61.43Y-38.09
X61.43Y-40.63
X61.43Y-43.17
X61.43Y-45.71
X61.43Y-48.25
X61.43Y-50.79
X61.43Y-53.33
X61.43Y-55.87
X61.43Y-58.41
X61.43Y-60.95
X61.43Y-63.49
X61.43Y-66.03
X61.43Y-68.57
X61.43Y-71.11
X61.43Y-73.65
X61.43Y-76.19
X61.43Y-78.73
X61.43Y-81.27
X61.43Y-83.81
X61.43Y-86.35
X61.43Y-88.89
X61.43Y-91.43
X61.43Y-93.97
X61.43Y-96.51
X61.43Y-99.05
X61.43Y-101.59
X61.43Y-104.13
X61.43Y-106.67
X61.43Y-109.21
X61.43Y-111.75
X61.43Y-114.29
X61.43Y-116.83
X61.43Y-119.37
X61.43Y-121.91
X61.43Y-124.45
X61.43Y-126.99
X61.43Y-129.53
X61.43Y-132.07
X61.43Y-134.61
X61.43Y-137.15
X61.43Y-139.69
X63.97Y-5.07
X63.97Y-7.61
X63.97Y-10.15
X63.97Y-12.69
X63.97Y-15.23
X63.97Y-17.77
X63.97Y-20.31
X63.97Y-22.85
X63.97Y-25.39
X63.97Y-27.93
X63.97Y-30.47
X63.97Y-33.01
X63.97Y-35.55
X63.97Y-38.09
X63.97Y-40.63
X63.97Y-43.17
X63.97Y-45.71
X63.97Y-48.25
X63.97Y-50.79
X63.97Y-53.33
X63.97Y-55.87
X63.97Y-58.41
X63.97Y-60.95
X63.97Y-63.49
X63.97Y-66.03
X63.97Y-68.57
X63.97Y-71.11
X63.97Y-73.65
X63.97Y-76.19
X63.97Y-78.73
X63.97Y-81.27
X63.97Y-83.81
X63.97Y-86.35
X63.97Y-88.89
X63.97Y-91.43
X63.97Y-93.97
X63.97Y-96.51
X63.97Y-99.05
X63.97Y-101.59
X63.97Y-104.13
X63.97Y-106.67
X63.97Y-109.21
X63.97Y-111.75
X63.97Y-114.29
X63.97Y-116.83
X63.97Y-119.37
X63.97Y-121.91
X63.97Y-124.45
X63.97Y-126.99
X63.97Y-129.53
X63.97Y-132.07
X63.97Y-134.61
X63.97Y-137.15
X63.97Y-139.69
X66.51Y-5.07
X66.51Y-7.61
X66.51Y-10.15
X66.51Y-12.69
X66.51Y-15.23
X66.51Y-17.77
X66.51Y-20.31
X66.51Y-22.85
X66.51Y-25.39
X66.51Y-27.93
X66.51Y-30.47
X66.51Y-33.01
X66.51Y-35.55
X66.51Y-38.09
X66.51Y-40.63
X66.51Y-43.17
X66.51Y-45.71
X66.51Y-48.25
X66.51Y-50.79
X66.51Y-53.33
X66.51Y-55.87
X66.51Y-58.41
X66.51Y-60.95
X66.51Y-63.49
X66.51Y-66.03
X66.51Y-68.57
X66.51Y-71.11
X66.51Y-73.65
X66.51Y-76.19
X66.51Y-78.73
X66.51Y-81.27
X66.51Y-83.81
X66.51Y-86.35
X66.51Y-88.89
X66.51Y-91.43
X66.51Y-93.97
X66.51Y-96.51
X66.51Y-99.05
X66.51Y-101.59
X66.51Y-104.13
X66.51Y-106.67
X66.51Y-109.21
X66.51Y-111.75
X66.51Y-114.29
X66.51Y-116.83
X66.51Y-119.37
X66.51Y-121.91
X66.51Y-124.45
X66.51Y-126.99
X66.51Y-129.53
X66.51Y-132.07
X66.51Y-134.61
X66.51Y-137.15
X66.51Y-139.69
X69.05Y-5.07
X69.05Y-7.61
X69.05Y-10.15
X69.05Y-12.69
X69.05Y-15.23
X69.05Y-17.77
X69.05Y-20.31
X69.05Y-22.85
X69.05Y-25.39
X69.05Y-27.93
X69.05Y-30.47
X69.05Y-33.01
X69.05Y-35.55
X69.05Y-38.09
X69.05Y-40.63
X69.05Y-43.17
X69.05Y-45.71
X69.05Y-48.25
X69.05Y-50.79
X69.05Y-53.33
X69.05Y-55.87
X69.05Y-58.41
X69.05Y-60.95
X69.05Y-63.49
X69.05Y-66.03
X69.05Y-68.57
X69.05Y-71.11
X69.05Y-73.65
X69.05Y-76.19
X69.05Y-78.73
X69.05Y-81.27
X69.05Y-83.81
X69.05Y-86.35
X69.05Y-88.89
X69.05Y-91.43
X69.05Y-93.97
X69.05Y-96.51
X69.05Y-99.05
X69.05Y-101.59
X69.05Y-104.13
X69.05Y-106.67
X69.05Y-109.21
X69.05Y-111.75
X69.05Y-114.29
X69.05Y-116.83
X69.05Y-119.37
X69.05Y-121.91
X69.05Y-124.45
X69.05Y-126.99
X69.05Y-129.53
X69.05Y-132.07
X69.05Y-134.61
X69.05Y-137.15
X69.05Y-139.69
X71.59Y-5.07
X71.59Y-7.61
X71.59Y-10.15
X71.59Y-12.69
X71.59Y-15.23
X71.59Y-17.77
X71.59Y-20.31
X71.59Y-22.85
X71.59Y-25.39
X71.59Y-27.93
X71.59Y-30.47
X71.59Y-33.01
X71.59Y-35.55
X71.59Y-38.09
X71.59Y-40.63
X71.59Y-43.17
X71.59Y-45.71
X71.59Y-48.25
X71.59Y-50.79
X71.59Y-53.33
X71.59Y-55.87
X71.59Y-58.41
X71.59Y-60.95
X71.59Y-63.49
X71.59Y-66.03
X71.59Y-68.57
X71.59Y-71.11
X71.59Y-73.65
X71.59Y-76.19
X71.59Y-78.73
X71.59Y-81.27
X71.59Y-83.81
X71.59Y-86.35
X71.59Y-88.89
X71.59Y-91.43
X71.59Y-93.97
X71.59Y-96.51
X71.59Y-99.05
X71.59Y-101.59
X71.59Y-104.13
X71.59Y-106.67
X71.59Y-109.21
X71.59Y-111.75
X71.59Y-114.29
X71.59Y-116.83
X71.59Y-119.37
X71.59Y-121.91
X71.59Y-124.45
X71.59Y-126.99
X71.59Y-129.53
X71.59Y-132.07
X71.59Y-134.61
X71.59Y-137.15
X71.59Y-139.69
X74.13Y-5.07
X74.13Y-7.61
X74.13Y-10.15
X74.13Y-12.69
X74.13Y-15.23
X74.13Y-17.77
X74.13Y-20.31
X74.13Y-22.85
X74.13Y-25.39
X74.13Y-27.93
X74.13Y-30.47
X74.13Y-33.01
X74.13Y-35.55
X74.13Y-38.09
X74.13Y-40.63
X74.13Y-43.17
X74.13Y-45.71
X74.13Y-48.25
X74.13Y-50.79
X74.13Y-53.33
X74.13Y-55.87
X74.13Y-58.41
X74.13Y-60.95
X74.13Y-63.49
X74.13Y-66.03
X74.13Y-68.57
X74.13Y-71.11
X74.13Y-73.65
X74.13Y-76.19
X74.13Y-78.73
X74.13Y-81.27
X74.13Y-83.81
X74.13Y-86.35
X74.13Y-88.89
X74.13Y-91.43
X74.13Y-93.97
X74.13Y-96.51
X74.13Y-99.05
X74.13Y-101.59
X74.13Y-104.13
X74.13Y-106.67
X74.13Y-109.21
X74.13Y-111.75
X74.13Y-114.29
X74.13Y-116.83
X74.13Y-119.37
X74.13Y-121.91
X74.13Y-124.45
X74.13Y-126.99
X74.13Y-129.53
X74.13Y-132.07
X74.13Y-134.61
X74.13Y-137.15
X74.13Y-139.69
X76.67Y-5.07
X76.67Y-7.61
X76.67Y-10.15
X76.67Y-12.69
X76.67Y-15.23
X76.67Y-17.77
X76.67Y-20.31
X76.67Y-22.85
X76.67Y-25.39
X76.67Y-27.93
X76.67Y-30.47
X76.67Y-33.01
X76.67Y-35.55
X76.67Y-38.09
X76.67Y-40.63
X76.67Y-43.17
X76.67Y-45.71
X76.67Y-48.25
X76.67Y-50.79
X76.67Y-53.33
X76.67Y-55.87
X76.67Y-58.41
X76.67Y-60.95
X76.67Y-63.49
X76.67Y-66.03
X76.67Y-68.57
X76.67Y-71.11
X76.67Y-73.65
X76.67Y-76.19
X76.67Y-78.73
X76.67Y-81.27
X76.67Y-83.81
X76.67Y-86.35
X76.67Y-88.89
X76.67Y-91.43
X76.67Y-93.97
X76.67Y-96.51
X76.67Y-99.05
X76.67Y-101.59
X76.67Y-104.13
X76.67Y-106.67
X76.67Y-109.21
X76.67Y-111.75
X76.67Y-114.29
X76.67Y-116.83
X76.67Y-119.37
X76.67Y-121.91
X76.67Y-124.45
X76.67Y-126.99
X76.67Y-129.53
X76.67Y-132.07
X76.67Y-134.61
X76.67Y-137.15
X76.67Y-139.69
X79.21Y-5.07
X79.21Y-7.61
X79.21Y-10.15
X79.21Y-12.69
X79.21Y-15.23
X79.21Y-17.77
X79.21Y-20.31
X79.21Y-22.85
X79.21Y-25.39
X79.21Y-27.93
X79.21Y-30.47
X79.21Y-33.01
X79.21Y-35.55
X79.21Y-38.09
X79.21Y-40.63
X79.21Y-43.17
X79.21Y-45.71
X79.21Y-48.25
X79.21Y-50.79
X79.21Y-53.33
X79.21Y-55.87
X79.21Y-58.41
X79.21Y-60.95
X79.21Y-63.49
X79.21Y-66.03
X79.21Y-68.57
X79.21Y-71.11
X79.21Y-73.65
X79.21Y-76.19
X79.21Y-78.73
X79.21Y-81.27
X79.21Y-83.81
X79.21Y-86.35
X79.21Y-88.89
X79.21Y-91.43
X79.21Y-93.97
X79.21Y-96.51
X79.21Y-99.05
X79.21Y-101.59
X79.21Y-104.13
X79.21Y-106.67
X79.21Y-109.21
X79.21Y-111.75
X79.21Y-114.29
X79.21Y-116.83
X79.21Y-119.37
X79.21Y-121.91
X79.21Y-124.45
X79.21Y-126.99
X79.21Y-129.53
X79.21Y-132.07
X79.21Y-134.61
X79.21Y-137.15
X79.21Y-139.69
X81.75Y-5.07
X81.75Y-7.61
X81.75Y-10.15
X81.75Y-12.69
X81.75Y-15.23
X81.75Y-17.77
X81.75Y-20.31
X81.75Y-22.85
X81.75Y-25.39
X81.75Y-27.93
X81.75Y-30.47
X81.75Y-33.01
X81.75Y-35.55
X81.75Y-38.09
X81.75Y-40.63
X81.75Y-43.17
X81.75Y-45.71
X81.75Y-48.25
X81.75Y-50.79
X81.75Y-53.33
X81.75Y-55.87
X81.75Y-58.41
X81.75Y-60.95
X81.75Y-63.49
X81.75Y-66.03
X81.75Y-68.57
X81.75Y-71.11
X81.75Y-73.65
X81.75Y-76.19
X81.75Y-78.73
X81.75Y-81.27
X81.75Y-83.81
X81.75Y-86.35
X81.75Y-88.89
X81.75Y-91.43
X81.75Y-93.97
X81.75Y-96.51
X81.75Y-99.05
X81.75Y-101.59
X81.75Y-104.13
X81.75Y-106.67
X81.75Y-109.21
X81.75Y-111.75
X81.75Y-114.29
X81.75Y-116.83
X81.75Y-119.37
X81.75Y-121.91
X81.75Y-124.45
X81.75Y-126.99
X81.75Y-129.53
X81.75Y-132.07
X81.75Y-134.61
X81.75Y-137.15
X81.75Y-139.69
X84.29Y-5.07
X84.29Y-7.61
X84.29Y-10.15
X84.29Y-12.69
X84.29Y-15.23
X84.29Y-17.77
X84.29Y-20.31
X84.29Y-22.85
X84.29Y-25.39
X84.29Y-27.93
X84.29Y-30.47
X84.29Y-33.01
X84.29Y-35.55
X84.29Y-38.09
X84.29Y-40.63
X84.29Y-43.17
X84.29Y-45.71
X84.29Y-48.25
X84.29Y-50.79
X84.29Y-53.33
X84.29Y-55.87
X84.29Y-58.41
X84.29Y-60.95
X84.29Y-63.49
X84.29Y-66.03
X84.29Y-68.57
X84.29Y-71.11
X84.29Y-73.65
X84.29Y-76.19
X84.29Y-78.73
X84.29Y-81.27
X84.29Y-83.81
X84.29Y-86.35
X84.29Y-88.89
X84.29Y-91.43
X84.29Y-93.97
X84.29Y-96.51
X84.29Y-99.05
X84.29Y-101.59
X84.29Y-104.13
X84.29Y-106.67
X84.29Y-109.21
X84.29Y-111.75
X84.29Y-114.29
X84.29Y-116.83
X84.29Y-119.37
X84.29Y-121.91
X84.29Y-124.45
X84.29Y-126.99
X84.29Y-129.53
X84.29Y-132.07
X84.29Y-134.61
X84.29Y-137.15
X84.29Y-139.69
X86.83Y-5.07
X86.83Y-7.61
X86.83Y-10.15
X86.83Y-12.69
X86.83Y-15.23
X86.83Y-17.77
X86.83Y-20.31
X86.83Y-22.85
X86.83Y-25.39
X86.83Y-27.93
X86.83Y-30.47
X86.83Y-33.01
X86.83Y-35.55
X86.83Y-38.09
X86.83Y-40.63
X86.83Y-43.17
X86.83Y-45.71
X86.83Y-48.25
X86.83Y-50.79
X86.83Y-53.33
X86.83Y-55.87
X86.83Y-58.41
X86.83Y-60.95
X86.83Y-63.49
X86.83Y-66.03
X86.83Y-68.57
X86.83Y-71.11
X86.83Y-73.65
X86.83Y-76.19
X86.83Y-78.73
X86.83Y-81.27
X86.83Y-83.81
X86.83Y-86.35
X86.83Y-88.89
X86.83Y-91.43
X86.83Y-93.97
X86.83Y-96.51
X86.83Y-99.05
X86.83Y-101.59
X86.83Y-104.13
X86.83Y-106.67
X86.83Y-109.21
X86.83Y-111.75
X86.83Y-114.29
X86.83Y-116.83
X86.83Y-119.37
X86.83Y-121.91
X86.83Y-124.45
X86.83Y-126.99
X86.83Y-129.53
X86.83Y-132.07
X86.83Y-134.61
X86.83Y-137.15
X86.83Y-139.69
X89.37Y-5.07
X89.37Y-7.61
X89.37Y-10.15
X89.37Y-12.69
X89.37Y-15.23
X89.37Y-17.77
X89.37Y-20.31
X89.37Y-22.85
X89.37Y-25.39
X89.37Y-27.93
X89.37Y-30.47
X89.37Y-33.01
X89.37Y-35.55
X89.37Y-38.09
X89.37Y-40.63
X89.37Y-43.17
X89.37Y-45.71
X89.37Y-48.25
X89.37Y-50.79
X89.37Y-53.33
X89.37Y-55.87
X89.37Y-58.41
X89.37Y-60.95
X89.37Y-63.49
X89.37Y-66.03
X89.37Y-68.57
X89.37Y-71.11
X89.37Y-73.65
X89.37Y-76.19
X89.37Y-78.73
X89.37Y-81.27
X89.37Y-83.81
X89.37Y-86.35
X89.37Y-88.89
X89.37Y-91.43
X89.37Y-93.97
X89.37Y-96.51
X89.37Y-99.05
X89.37Y-101.59
X89.37Y-104.13
X89.37Y-106.67
X89.37Y-109.21
X89.37Y-111.75
X89.37Y-114.29
X89.37Y-116.83
X89.37Y-119.37
X89.37Y-121.91
X89.37Y-124.45
X89.37Y-126.99
X89.37Y-129.53
X89.37Y-132.07
X89.37Y-134.61
X89.37Y-137.15
X89.37Y-139.69
X89.37Y-142.96
X89.37Y-145.5
X91.91Y-5.07
X91.91Y-7.61
X91.91Y-10.15
X91.91Y-12.69
X91.91Y-15.23
X91.91Y-17.77
X91.91Y-20.31
X91.91Y-22.85
X91.91Y-25.39
X91.91Y-27.93
X91.91Y-30.47
X91.91Y-33.01
X91.91Y-35.55
X91.91Y-38.09
X91.91Y-40.63
X91.91Y-43.17
X91.91Y-45.71
X91.91Y-48.25
X91.91Y-50.79
X91.91Y-53.33
X91.91Y-55.87
X91.91Y-58.41
X91.91Y-60.95
X91.91Y-63.49
X91.91Y-66.03
X91.91Y-68.57
X91.91Y-71.11
X91.91Y-73.65
X91.91Y-76.19
X91.91Y-78.73
X91.91Y-81.27
X91.91Y-83.81
X91.91Y-86.35
X91.91Y-88.89
X91.91Y-91.43
X91.91Y-93.97
X91.91Y-96.51
X91.91Y-99.05
X91.91Y-101.59
X91.91Y-104.13
X91.91Y-106.67
X91.91Y-109.21
X91.91Y-111.75
X91.91Y-114.29
X91.91Y-116.83
X91.91Y-119.37
X91.91Y-121.91
X91.91Y-124.45
X91.91Y-126.99
X91.91Y-129.53
X91.91Y-132.07
X91.91Y-134.61
X91.91Y-137.15
X91.91Y-139.69
X91.91Y-142.96
X91.91Y-145.5
X94.45Y-5.07
X94.45Y-7.61
X94.45Y-10.15
X94.45Y-12.69
X94.45Y-15.23
X94.45Y-17.77
X94.45Y-20.31
X94.45Y-22.85
X94.45Y-25.39
X94.45Y-27.93
X94.45Y-30.47
X94.45Y-33.01
X94.45Y-35.55
X94.45Y-38.09
X94.45Y-40.63
X94.45Y-43.17
X94.45Y-45.71
X94.45Y-48.25
X94.45Y-50.79
X94.45Y-53.33
X94.45Y-55.87
X94.45Y-58.41
X94.45Y-60.95
X94.45Y-63.49
X94.45Y-66.03
X94.45Y-68.57
X94.45Y-71.11
X94.45Y-73.65
X94.45Y-76.19
X94.45Y-78.73
X94.45Y-81.27
X94.45Y-83.81
X94.45Y-86.35
X94.45Y-88.89
X94.45Y-91.43
X94.45Y-93.97
X94.45Y-96.51
X94.45Y-99.05
X94.45Y-101.59
X94.45Y-104.13
X94.45Y-106.67
X94.45Y-109.21
X94.45Y-111.75
X94.45Y-114.29
X94.45Y-116.83
X94.45Y-119.37
X94.45Y-121.91
X94.45Y-124.45
X94.45Y-126.99
X94.45Y-129.53
X94.45Y-132.07
X94.45Y-134.61
X94.45Y-137.15
X94.45Y-139.69
X94.45Y-142.96
X94.45Y-145.5
T4
X8.09Y-150.5G85X8.09Y-153.5
G05
X91.91Y-150.5G85X91.91Y-153.5
G05
M30
