M48
; DRILL file {KiCad 9.0.6} date 2026-03-04T14:49:04+0100
; FORMAT={-:-/ absolute / metric / decimal}
; #@! TF.CreationDate,2026-03-04T14:49:04+01:00
; #@! TF.GenerationSoftware,Kicad,Pcbnew,9.0.6
; #@! TF.FileFunction,Plated,1,2,PTH
FMAT,2
METRIC
; #@! TA.AperFunction,Plated,PTH,ViaDrill
T1C0.300
; #@! TA.AperFunction,Plated,PTH,ViaDrill
T2C0.400
; #@! TA.AperFunction,Plated,PTH,ComponentDrill
T3C1.000
; #@! TA.AperFunction,Plated,PTH,ComponentDrill
T4C2.000
%
G90
G05
T1
X4.0Y-142.16
X4.0Y-144.7
X6.0Y-142.16
X6.0Y-144.7
X6.54Y-142.16
X6.54Y-144.7
X8.54Y-142.16
X8.54Y-144.7
X9.08Y-142.16
X9.08Y-144.7
X11.08Y-142.16
X11.08Y-144.7
X87.82Y-142.16
X87.82Y-144.7
X89.82Y-142.16
X89.82Y-144.7
X90.36Y-142.16
X90.36Y-144.7
X92.36Y-142.16
X92.36Y-144.7
X92.9Y-142.16
X92.9Y-144.7
X94.9Y-142.16
X94.9Y-144.7
T2
X3.74Y-152.0
X4.853Y-149.313
X4.853Y-154.687
X7.54Y-148.2
X7.54Y-155.8
X10.227Y-149.313
X10.227Y-154.687
X11.34Y-152.0
X87.56Y-152.0
X88.673Y-149.313
X88.673Y-154.687
X91.36Y-148.2
X91.36Y-155.8
X94.047Y-149.313
X94.047Y-154.687
X95.16Y-152.0
T3
X5.0Y-5.0
X5.0Y-7.54
X5.0Y-10.08
X5.0Y-12.62
X5.0Y-15.16
X5.0Y-17.7
X5.0Y-20.24
X5.0Y-22.78
X5.0Y-25.32
X5.0Y-27.86
X5.0Y-30.4
X5.0Y-32.94
X5.0Y-35.48
X5.0Y-38.02
X5.0Y-40.56
X5.0Y-43.1
X5.0Y-45.64
X5.0Y-48.18
X5.0Y-50.72
X5.0Y-53.26
X5.0Y-55.8
X5.0Y-58.34
X5.0Y-60.88
X5.0Y-63.42
X5.0Y-65.96
X5.0Y-68.5
X5.0Y-71.04
X5.0Y-73.58
X5.0Y-76.12
X5.0Y-78.66
X5.0Y-81.2
X5.0Y-83.74
X5.0Y-86.28
X5.0Y-88.82
X5.0Y-91.36
X5.0Y-93.9
X5.0Y-96.44
X5.0Y-98.98
X5.0Y-101.52
X5.0Y-104.06
X5.0Y-106.6
X5.0Y-109.14
X5.0Y-111.68
X5.0Y-114.22
X5.0Y-116.76
X5.0Y-119.3
X5.0Y-121.84
X5.0Y-124.38
X5.0Y-126.92
X5.0Y-129.46
X5.0Y-132.0
X5.0Y-134.54
X5.0Y-137.08
X5.0Y-139.62
X5.0Y-142.16
X5.0Y-144.7
X7.54Y-5.0
X7.54Y-7.54
X7.54Y-10.08
X7.54Y-12.62
X7.54Y-15.16
X7.54Y-17.7
X7.54Y-20.24
X7.54Y-22.78
X7.54Y-25.32
X7.54Y-27.86
X7.54Y-30.4
X7.54Y-32.94
X7.54Y-35.48
X7.54Y-38.02
X7.54Y-40.56
X7.54Y-43.1
X7.54Y-45.64
X7.54Y-48.18
X7.54Y-50.72
X7.54Y-53.26
X7.54Y-55.8
X7.54Y-58.34
X7.54Y-60.88
X7.54Y-63.42
X7.54Y-65.96
X7.54Y-68.5
X7.54Y-71.04
X7.54Y-73.58
X7.54Y-76.12
X7.54Y-78.66
X7.54Y-81.2
X7.54Y-83.74
X7.54Y-86.28
X7.54Y-88.82
X7.54Y-91.36
X7.54Y-93.9
X7.54Y-96.44
X7.54Y-98.98
X7.54Y-101.52
X7.54Y-104.06
X7.54Y-106.6
X7.54Y-109.14
X7.54Y-111.68
X7.54Y-114.22
X7.54Y-116.76
X7.54Y-119.3
X7.54Y-121.84
X7.54Y-124.38
X7.54Y-126.92
X7.54Y-129.46
X7.54Y-132.0
X7.54Y-134.54
X7.54Y-137.08
X7.54Y-139.62
X7.54Y-142.16
X7.54Y-144.7
X10.08Y-5.0
X10.08Y-7.54
X10.08Y-10.08
X10.08Y-12.62
X10.08Y-15.16
X10.08Y-17.7
X10.08Y-20.24
X10.08Y-22.78
X10.08Y-25.32
X10.08Y-27.86
X10.08Y-30.4
X10.08Y-32.94
X10.08Y-35.48
X10.08Y-38.02
X10.08Y-40.56
X10.08Y-43.1
X10.08Y-45.64
X10.08Y-48.18
X10.08Y-50.72
X10.08Y-53.26
X10.08Y-55.8
X10.08Y-58.34
X10.08Y-60.88
X10.08Y-63.42
X10.08Y-65.96
X10.08Y-68.5
X10.08Y-71.04
X10.08Y-73.58
X10.08Y-76.12
X10.08Y-78.66
X10.08Y-81.2
X10.08Y-83.74
X10.08Y-86.28
X10.08Y-88.82
X10.08Y-91.36
X10.08Y-93.9
X10.08Y-96.44
X10.08Y-98.98
X10.08Y-101.52
X10.08Y-104.06
X10.08Y-106.6
X10.08Y-109.14
X10.08Y-111.68
X10.08Y-114.22
X10.08Y-116.76
X10.08Y-119.3
X10.08Y-121.84
X10.08Y-124.38
X10.08Y-126.92
X10.08Y-129.46
X10.08Y-132.0
X10.08Y-134.54
X10.08Y-137.08
X10.08Y-139.62
X10.08Y-142.16
X10.08Y-144.7
X12.62Y-5.0
X12.62Y-7.54
X12.62Y-10.08
X12.62Y-12.62
X12.62Y-15.16
X12.62Y-17.7
X12.62Y-20.24
X12.62Y-22.78
X12.62Y-25.32
X12.62Y-27.86
X12.62Y-30.4
X12.62Y-32.94
X12.62Y-35.48
X12.62Y-38.02
X12.62Y-40.56
X12.62Y-43.1
X12.62Y-45.64
X12.62Y-48.18
X12.62Y-50.72
X12.62Y-53.26
X12.62Y-55.8
X12.62Y-58.34
X12.62Y-60.88
X12.62Y-63.42
X12.62Y-65.96
X12.62Y-68.5
X12.62Y-71.04
X12.62Y-73.58
X12.62Y-76.12
X12.62Y-78.66
X12.62Y-81.2
X12.62Y-83.74
X12.62Y-86.28
X12.62Y-88.82
X12.62Y-91.36
X12.62Y-93.9
X12.62Y-96.44
X12.62Y-98.98
X12.62Y-101.52
X12.62Y-104.06
X12.62Y-106.6
X12.62Y-109.14
X12.62Y-111.68
X12.62Y-114.22
X12.62Y-116.76
X12.62Y-119.3
X12.62Y-121.84
X12.62Y-124.38
X12.62Y-126.92
X12.62Y-129.46
X12.62Y-132.0
X12.62Y-134.54
X12.62Y-137.08
X12.62Y-139.62
X15.16Y-5.0
X15.16Y-7.54
X15.16Y-10.08
X15.16Y-12.62
X15.16Y-15.16
X15.16Y-17.7
X15.16Y-20.24
X15.16Y-22.78
X15.16Y-25.32
X15.16Y-27.86
X15.16Y-30.4
X15.16Y-32.94
X15.16Y-35.48
X15.16Y-38.02
X15.16Y-40.56
X15.16Y-43.1
X15.16Y-45.64
X15.16Y-48.18
X15.16Y-50.72
X15.16Y-53.26
X15.16Y-55.8
X15.16Y-58.34
X15.16Y-60.88
X15.16Y-63.42
X15.16Y-65.96
X15.16Y-68.5
X15.16Y-71.04
X15.16Y-73.58
X15.16Y-76.12
X15.16Y-78.66
X15.16Y-81.2
X15.16Y-83.74
X15.16Y-86.28
X15.16Y-88.82
X15.16Y-91.36
X15.16Y-93.9
X15.16Y-96.44
X15.16Y-98.98
X15.16Y-101.52
X15.16Y-104.06
X15.16Y-106.6
X15.16Y-109.14
X15.16Y-111.68
X15.16Y-114.22
X15.16Y-116.76
X15.16Y-119.3
X15.16Y-121.84
X15.16Y-124.38
X15.16Y-126.92
X15.16Y-129.46
X15.16Y-132.0
X15.16Y-134.54
X15.16Y-137.08
X15.16Y-139.62
X17.7Y-5.0
X17.7Y-7.54
X17.7Y-10.08
X17.7Y-12.62
X17.7Y-15.16
X17.7Y-17.7
X17.7Y-20.24
X17.7Y-22.78
X17.7Y-25.32
X17.7Y-27.86
X17.7Y-30.4
X17.7Y-32.94
X17.7Y-35.48
X17.7Y-38.02
X17.7Y-40.56
X17.7Y-43.1
X17.7Y-45.64
X17.7Y-48.18
X17.7Y-50.72
X17.7Y-53.26
X17.7Y-55.8
X17.7Y-58.34
X17.7Y-60.88
X17.7Y-63.42
X17.7Y-65.96
X17.7Y-68.5
X17.7Y-71.04
X17.7Y-73.58
X17.7Y-76.12
X17.7Y-78.66
X17.7Y-81.2
X17.7Y-83.74
X17.7Y-86.28
X17.7Y-88.82
X17.7Y-91.36
X17.7Y-93.9
X17.7Y-96.44
X17.7Y-98.98
X17.7Y-101.52
X17.7Y-104.06
X17.7Y-106.6
X17.7Y-109.14
X17.7Y-111.68
X17.7Y-114.22
X17.7Y-116.76
X17.7Y-119.3
X17.7Y-121.84
X17.7Y-124.38
X17.7Y-126.92
X17.7Y-129.46
X17.7Y-132.0
X17.7Y-134.54
X17.7Y-137.08
X17.7Y-139.62
X20.24Y-5.0
X20.24Y-7.54
X20.24Y-10.08
X20.24Y-12.62
X20.24Y-15.16
X20.24Y-17.7
X20.24Y-20.24
X20.24Y-22.78
X20.24Y-25.32
X20.24Y-27.86
X20.24Y-30.4
X20.24Y-32.94
X20.24Y-35.48
X20.24Y-38.02
X20.24Y-40.56
X20.24Y-43.1
X20.24Y-45.64
X20.24Y-48.18
X20.24Y-50.72
X20.24Y-53.26
X20.24Y-55.8
X20.24Y-58.34
X20.24Y-60.88
X20.24Y-63.42
X20.24Y-65.96
X20.24Y-68.5
X20.24Y-71.04
X20.24Y-73.58
X20.24Y-76.12
X20.24Y-78.66
X20.24Y-81.2
X20.24Y-83.74
X20.24Y-86.28
X20.24Y-88.82
X20.24Y-91.36
X20.24Y-93.9
X20.24Y-96.44
X20.24Y-98.98
X20.24Y-101.52
X20.24Y-104.06
X20.24Y-106.6
X20.24Y-109.14
X20.24Y-111.68
X20.24Y-114.22
X20.24Y-116.76
X20.24Y-119.3
X20.24Y-121.84
X20.24Y-124.38
X20.24Y-126.92
X20.24Y-129.46
X20.24Y-132.0
X20.24Y-134.54
X20.24Y-137.08
X20.24Y-139.62
X22.78Y-5.0
X22.78Y-7.54
X22.78Y-10.08
X22.78Y-12.62
X22.78Y-15.16
X22.78Y-17.7
X22.78Y-20.24
X22.78Y-22.78
X22.78Y-25.32
X22.78Y-27.86
X22.78Y-30.4
X22.78Y-32.94
X22.78Y-35.48
X22.78Y-38.02
X22.78Y-40.56
X22.78Y-43.1
X22.78Y-45.64
X22.78Y-48.18
X22.78Y-50.72
X22.78Y-53.26
X22.78Y-55.8
X22.78Y-58.34
X22.78Y-60.88
X22.78Y-63.42
X22.78Y-65.96
X22.78Y-68.5
X22.78Y-71.04
X22.78Y-73.58
X22.78Y-76.12
X22.78Y-78.66
X22.78Y-81.2
X22.78Y-83.74
X22.78Y-86.28
X22.78Y-88.82
X22.78Y-91.36
X22.78Y-93.9
X22.78Y-96.44
X22.78Y-98.98
X22.78Y-101.52
X22.78Y-104.06
X22.78Y-106.6
X22.78Y-109.14
X22.78Y-111.68
X22.78Y-114.22
X22.78Y-116.76
X22.78Y-119.3
X22.78Y-121.84
X22.78Y-124.38
X22.78Y-126.92
X22.78Y-129.46
X22.78Y-132.0
X22.78Y-134.54
X22.78Y-137.08
X22.78Y-139.62
X25.32Y-5.0
X25.32Y-7.54
X25.32Y-10.08
X25.32Y-12.62
X25.32Y-15.16
X25.32Y-17.7
X25.32Y-20.24
X25.32Y-22.78
X25.32Y-25.32
X25.32Y-27.86
X25.32Y-30.4
X25.32Y-32.94
X25.32Y-35.48
X25.32Y-38.02
X25.32Y-40.56
X25.32Y-43.1
X25.32Y-45.64
X25.32Y-48.18
X25.32Y-50.72
X25.32Y-53.26
X25.32Y-55.8
X25.32Y-58.34
X25.32Y-60.88
X25.32Y-63.42
X25.32Y-65.96
X25.32Y-68.5
X25.32Y-71.04
X25.32Y-73.58
X25.32Y-76.12
X25.32Y-78.66
X25.32Y-81.2
X25.32Y-83.74
X25.32Y-86.28
X25.32Y-88.82
X25.32Y-91.36
X25.32Y-93.9
X25.32Y-96.44
X25.32Y-98.98
X25.32Y-101.52
X25.32Y-104.06
X25.32Y-106.6
X25.32Y-109.14
X25.32Y-111.68
X25.32Y-114.22
X25.32Y-116.76
X25.32Y-119.3
X25.32Y-121.84
X25.32Y-124.38
X25.32Y-126.92
X25.32Y-129.46
X25.32Y-132.0
X25.32Y-134.54
X25.32Y-137.08
X25.32Y-139.62
X27.86Y-5.0
X27.86Y-7.54
X27.86Y-10.08
X27.86Y-12.62
X27.86Y-15.16
X27.86Y-17.7
X27.86Y-20.24
X27.86Y-22.78
X27.86Y-25.32
X27.86Y-27.86
X27.86Y-30.4
X27.86Y-32.94
X27.86Y-35.48
X27.86Y-38.02
X27.86Y-40.56
X27.86Y-43.1
X27.86Y-45.64
X27.86Y-48.18
X27.86Y-50.72
X27.86Y-53.26
X27.86Y-55.8
X27.86Y-58.34
X27.86Y-60.88
X27.86Y-63.42
X27.86Y-65.96
X27.86Y-68.5
X27.86Y-71.04
X27.86Y-73.58
X27.86Y-76.12
X27.86Y-78.66
X27.86Y-81.2
X27.86Y-83.74
X27.86Y-86.28
X27.86Y-88.82
X27.86Y-91.36
X27.86Y-93.9
X27.86Y-96.44
X27.86Y-98.98
X27.86Y-101.52
X27.86Y-104.06
X27.86Y-106.6
X27.86Y-109.14
X27.86Y-111.68
X27.86Y-114.22
X27.86Y-116.76
X27.86Y-119.3
X27.86Y-121.84
X27.86Y-124.38
X27.86Y-126.92
X27.86Y-129.46
X27.86Y-132.0
X27.86Y-134.54
X27.86Y-137.08
X27.86Y-139.62
X30.4Y-5.0
X30.4Y-7.54
X30.4Y-10.08
X30.4Y-12.62
X30.4Y-15.16
X30.4Y-17.7
X30.4Y-20.24
X30.4Y-22.78
X30.4Y-25.32
X30.4Y-27.86
X30.4Y-30.4
X30.4Y-32.94
X30.4Y-35.48
X30.4Y-38.02
X30.4Y-40.56
X30.4Y-43.1
X30.4Y-45.64
X30.4Y-48.18
X30.4Y-50.72
X30.4Y-53.26
X30.4Y-55.8
X30.4Y-58.34
X30.4Y-60.88
X30.4Y-63.42
X30.4Y-65.96
X30.4Y-68.5
X30.4Y-71.04
X30.4Y-73.58
X30.4Y-76.12
X30.4Y-78.66
X30.4Y-81.2
X30.4Y-83.74
X30.4Y-86.28
X30.4Y-88.82
X30.4Y-91.36
X30.4Y-93.9
X30.4Y-96.44
X30.4Y-98.98
X30.4Y-101.52
X30.4Y-104.06
X30.4Y-106.6
X30.4Y-109.14
X30.4Y-111.68
X30.4Y-114.22
X30.4Y-116.76
X30.4Y-119.3
X30.4Y-121.84
X30.4Y-124.38
X30.4Y-126.92
X30.4Y-129.46
X30.4Y-132.0
X30.4Y-134.54
X30.4Y-137.08
X30.4Y-139.62
X32.94Y-5.0
X32.94Y-7.54
X32.94Y-10.08
X32.94Y-12.62
X32.94Y-15.16
X32.94Y-17.7
X32.94Y-20.24
X32.94Y-22.78
X32.94Y-25.32
X32.94Y-27.86
X32.94Y-30.4
X32.94Y-32.94
X32.94Y-35.48
X32.94Y-38.02
X32.94Y-40.56
X32.94Y-43.1
X32.94Y-45.64
X32.94Y-48.18
X32.94Y-50.72
X32.94Y-53.26
X32.94Y-55.8
X32.94Y-58.34
X32.94Y-60.88
X32.94Y-63.42
X32.94Y-65.96
X32.94Y-68.5
X32.94Y-71.04
X32.94Y-73.58
X32.94Y-76.12
X32.94Y-78.66
X32.94Y-81.2
X32.94Y-83.74
X32.94Y-86.28
X32.94Y-88.82
X32.94Y-91.36
X32.94Y-93.9
X32.94Y-96.44
X32.94Y-98.98
X32.94Y-101.52
X32.94Y-104.06
X32.94Y-106.6
X32.94Y-109.14
X32.94Y-111.68
X32.94Y-114.22
X32.94Y-116.76
X32.94Y-119.3
X32.94Y-121.84
X32.94Y-124.38
X32.94Y-126.92
X32.94Y-129.46
X32.94Y-132.0
X32.94Y-134.54
X32.94Y-137.08
X32.94Y-139.62
X35.48Y-5.0
X35.48Y-7.54
X35.48Y-10.08
X35.48Y-12.62
X35.48Y-15.16
X35.48Y-17.7
X35.48Y-20.24
X35.48Y-22.78
X35.48Y-25.32
X35.48Y-27.86
X35.48Y-30.4
X35.48Y-32.94
X35.48Y-35.48
X35.48Y-38.02
X35.48Y-40.56
X35.48Y-43.1
X35.48Y-45.64
X35.48Y-48.18
X35.48Y-50.72
X35.48Y-53.26
X35.48Y-55.8
X35.48Y-58.34
X35.48Y-60.88
X35.48Y-63.42
X35.48Y-65.96
X35.48Y-68.5
X35.48Y-71.04
X35.48Y-73.58
X35.48Y-76.12
X35.48Y-78.66
X35.48Y-81.2
X35.48Y-83.74
X35.48Y-86.28
X35.48Y-88.82
X35.48Y-91.36
X35.48Y-93.9
X35.48Y-96.44
X35.48Y-98.98
X35.48Y-101.52
X35.48Y-104.06
X35.48Y-106.6
X35.48Y-109.14
X35.48Y-111.68
X35.48Y-114.22
X35.48Y-116.76
X35.48Y-119.3
X35.48Y-121.84
X35.48Y-124.38
X35.48Y-126.92
X35.48Y-129.46
X35.48Y-132.0
X35.48Y-134.54
X35.48Y-137.08
X35.48Y-139.62
X38.02Y-5.0
X38.02Y-7.54
X38.02Y-10.08
X38.02Y-12.62
X38.02Y-15.16
X38.02Y-17.7
X38.02Y-20.24
X38.02Y-22.78
X38.02Y-25.32
X38.02Y-27.86
X38.02Y-30.4
X38.02Y-32.94
X38.02Y-35.48
X38.02Y-38.02
X38.02Y-40.56
X38.02Y-43.1
X38.02Y-45.64
X38.02Y-48.18
X38.02Y-50.72
X38.02Y-53.26
X38.02Y-55.8
X38.02Y-58.34
X38.02Y-60.88
X38.02Y-63.42
X38.02Y-65.96
X38.02Y-68.5
X38.02Y-71.04
X38.02Y-73.58
X38.02Y-76.12
X38.02Y-78.66
X38.02Y-81.2
X38.02Y-83.74
X38.02Y-86.28
X38.02Y-88.82
X38.02Y-91.36
X38.02Y-93.9
X38.02Y-96.44
X38.02Y-98.98
X38.02Y-101.52
X38.02Y-104.06
X38.02Y-106.6
X38.02Y-109.14
X38.02Y-111.68
X38.02Y-114.22
X38.02Y-116.76
X38.02Y-119.3
X38.02Y-121.84
X38.02Y-124.38
X38.02Y-126.92
X38.02Y-129.46
X38.02Y-132.0
X38.02Y-134.54
X38.02Y-137.08
X38.02Y-139.62
X40.56Y-5.0
X40.56Y-7.54
X40.56Y-10.08
X40.56Y-12.62
X40.56Y-15.16
X40.56Y-17.7
X40.56Y-20.24
X40.56Y-22.78
X40.56Y-25.32
X40.56Y-27.86
X40.56Y-30.4
X40.56Y-32.94
X40.56Y-35.48
X40.56Y-38.02
X40.56Y-40.56
X40.56Y-43.1
X40.56Y-45.64
X40.56Y-48.18
X40.56Y-50.72
X40.56Y-53.26
X40.56Y-55.8
X40.56Y-58.34
X40.56Y-60.88
X40.56Y-63.42
X40.56Y-65.96
X40.56Y-68.5
X40.56Y-71.04
X40.56Y-73.58
X40.56Y-76.12
X40.56Y-78.66
X40.56Y-81.2
X40.56Y-83.74
X40.56Y-86.28
X40.56Y-88.82
X40.56Y-91.36
X40.56Y-93.9
X40.56Y-96.44
X40.56Y-98.98
X40.56Y-101.52
X40.56Y-104.06
X40.56Y-106.6
X40.56Y-109.14
X40.56Y-111.68
X40.56Y-114.22
X40.56Y-116.76
X40.56Y-119.3
X40.56Y-121.84
X40.56Y-124.38
X40.56Y-126.92
X40.56Y-129.46
X40.56Y-132.0
X40.56Y-134.54
X40.56Y-137.08
X40.56Y-139.62
X43.1Y-5.0
X43.1Y-7.54
X43.1Y-10.08
X43.1Y-12.62
X43.1Y-15.16
X43.1Y-17.7
X43.1Y-20.24
X43.1Y-22.78
X43.1Y-25.32
X43.1Y-27.86
X43.1Y-30.4
X43.1Y-32.94
X43.1Y-35.48
X43.1Y-38.02
X43.1Y-40.56
X43.1Y-43.1
X43.1Y-45.64
X43.1Y-48.18
X43.1Y-50.72
X43.1Y-53.26
X43.1Y-55.8
X43.1Y-58.34
X43.1Y-60.88
X43.1Y-63.42
X43.1Y-65.96
X43.1Y-68.5
X43.1Y-71.04
X43.1Y-73.58
X43.1Y-76.12
X43.1Y-78.66
X43.1Y-81.2
X43.1Y-83.74
X43.1Y-86.28
X43.1Y-88.82
X43.1Y-91.36
X43.1Y-93.9
X43.1Y-96.44
X43.1Y-98.98
X43.1Y-101.52
X43.1Y-104.06
X43.1Y-106.6
X43.1Y-109.14
X43.1Y-111.68
X43.1Y-114.22
X43.1Y-116.76
X43.1Y-119.3
X43.1Y-121.84
X43.1Y-124.38
X43.1Y-126.92
X43.1Y-129.46
X43.1Y-132.0
X43.1Y-134.54
X43.1Y-137.08
X43.1Y-139.62
X45.64Y-5.0
X45.64Y-7.54
X45.64Y-10.08
X45.64Y-12.62
X45.64Y-15.16
X45.64Y-17.7
X45.64Y-20.24
X45.64Y-22.78
X45.64Y-25.32
X45.64Y-27.86
X45.64Y-30.4
X45.64Y-32.94
X45.64Y-35.48
X45.64Y-38.02
X45.64Y-40.56
X45.64Y-43.1
X45.64Y-45.64
X45.64Y-48.18
X45.64Y-50.72
X45.64Y-53.26
X45.64Y-55.8
X45.64Y-58.34
X45.64Y-60.88
X45.64Y-63.42
X45.64Y-65.96
X45.64Y-68.5
X45.64Y-71.04
X45.64Y-73.58
X45.64Y-76.12
X45.64Y-78.66
X45.64Y-81.2
X45.64Y-83.74
X45.64Y-86.28
X45.64Y-88.82
X45.64Y-91.36
X45.64Y-93.9
X45.64Y-96.44
X45.64Y-98.98
X45.64Y-101.52
X45.64Y-104.06
X45.64Y-106.6
X45.64Y-109.14
X45.64Y-111.68
X45.64Y-114.22
X45.64Y-116.76
X45.64Y-119.3
X45.64Y-121.84
X45.64Y-124.38
X45.64Y-126.92
X45.64Y-129.46
X45.64Y-132.0
X45.64Y-134.54
X45.64Y-137.08
X45.64Y-139.62
X48.18Y-5.0
X48.18Y-7.54
X48.18Y-10.08
X48.18Y-12.62
X48.18Y-15.16
X48.18Y-17.7
X48.18Y-20.24
X48.18Y-22.78
X48.18Y-25.32
X48.18Y-27.86
X48.18Y-30.4
X48.18Y-32.94
X48.18Y-35.48
X48.18Y-38.02
X48.18Y-40.56
X48.18Y-43.1
X48.18Y-45.64
X48.18Y-48.18
X48.18Y-50.72
X48.18Y-53.26
X48.18Y-55.8
X48.18Y-58.34
X48.18Y-60.88
X48.18Y-63.42
X48.18Y-65.96
X48.18Y-68.5
X48.18Y-71.04
X48.18Y-73.58
X48.18Y-76.12
X48.18Y-78.66
X48.18Y-81.2
X48.18Y-83.74
X48.18Y-86.28
X48.18Y-88.82
X48.18Y-91.36
X48.18Y-93.9
X48.18Y-96.44
X48.18Y-98.98
X48.18Y-101.52
X48.18Y-104.06
X48.18Y-106.6
X48.18Y-109.14
X48.18Y-111.68
X48.18Y-114.22
X48.18Y-116.76
X48.18Y-119.3
X48.18Y-121.84
X48.18Y-124.38
X48.18Y-126.92
X48.18Y-129.46
X48.18Y-132.0
X48.18Y-134.54
X48.18Y-137.08
X48.18Y-139.62
X50.72Y-5.0
X50.72Y-7.54
X50.72Y-10.08
X50.72Y-12.62
X50.72Y-15.16
X50.72Y-17.7
X50.72Y-20.24
X50.72Y-22.78
X50.72Y-25.32
X50.72Y-27.86
X50.72Y-30.4
X50.72Y-32.94
X50.72Y-35.48
X50.72Y-38.02
X50.72Y-40.56
X50.72Y-43.1
X50.72Y-45.64
X50.72Y-48.18
X50.72Y-50.72
X50.72Y-53.26
X50.72Y-55.8
X50.72Y-58.34
X50.72Y-60.88
X50.72Y-63.42
X50.72Y-65.96
X50.72Y-68.5
X50.72Y-71.04
X50.72Y-73.58
X50.72Y-76.12
X50.72Y-78.66
X50.72Y-81.2
X50.72Y-83.74
X50.72Y-86.28
X50.72Y-88.82
X50.72Y-91.36
X50.72Y-93.9
X50.72Y-96.44
X50.72Y-98.98
X50.72Y-101.52
X50.72Y-104.06
X50.72Y-106.6
X50.72Y-109.14
X50.72Y-111.68
X50.72Y-114.22
X50.72Y-116.76
X50.72Y-119.3
X50.72Y-121.84
X50.72Y-124.38
X50.72Y-126.92
X50.72Y-129.46
X50.72Y-132.0
X50.72Y-134.54
X50.72Y-137.08
X50.72Y-139.62
X53.26Y-5.0
X53.26Y-7.54
X53.26Y-10.08
X53.26Y-12.62
X53.26Y-15.16
X53.26Y-17.7
X53.26Y-20.24
X53.26Y-22.78
X53.26Y-25.32
X53.26Y-27.86
X53.26Y-30.4
X53.26Y-32.94
X53.26Y-35.48
X53.26Y-38.02
X53.26Y-40.56
X53.26Y-43.1
X53.26Y-45.64
X53.26Y-48.18
X53.26Y-50.72
X53.26Y-53.26
X53.26Y-55.8
X53.26Y-58.34
X53.26Y-60.88
X53.26Y-63.42
X53.26Y-65.96
X53.26Y-68.5
X53.26Y-71.04
X53.26Y-73.58
X53.26Y-76.12
X53.26Y-78.66
X53.26Y-81.2
X53.26Y-83.74
X53.26Y-86.28
X53.26Y-88.82
X53.26Y-91.36
X53.26Y-93.9
X53.26Y-96.44
X53.26Y-98.98
X53.26Y-101.52
X53.26Y-104.06
X53.26Y-106.6
X53.26Y-109.14
X53.26Y-111.68
X53.26Y-114.22
X53.26Y-116.76
X53.26Y-119.3
X53.26Y-121.84
X53.26Y-124.38
X53.26Y-126.92
X53.26Y-129.46
X53.26Y-132.0
X53.26Y-134.54
X53.26Y-137.08
X53.26Y-139.62
X55.8Y-5.0
X55.8Y-7.54
X55.8Y-10.08
X55.8Y-12.62
X55.8Y-15.16
X55.8Y-17.7
X55.8Y-20.24
X55.8Y-22.78
X55.8Y-25.32
X55.8Y-27.86
X55.8Y-30.4
X55.8Y-32.94
X55.8Y-35.48
X55.8Y-38.02
X55.8Y-40.56
X55.8Y-43.1
X55.8Y-45.64
X55.8Y-48.18
X55.8Y-50.72
X55.8Y-53.26
X55.8Y-55.8
X55.8Y-58.34
X55.8Y-60.88
X55.8Y-63.42
X55.8Y-65.96
X55.8Y-68.5
X55.8Y-71.04
X55.8Y-73.58
X55.8Y-76.12
X55.8Y-78.66
X55.8Y-81.2
X55.8Y-83.74
X55.8Y-86.28
X55.8Y-88.82
X55.8Y-91.36
X55.8Y-93.9
X55.8Y-96.44
X55.8Y-98.98
X55.8Y-101.52
X55.8Y-104.06
X55.8Y-106.6
X55.8Y-109.14
X55.8Y-111.68
X55.8Y-114.22
X55.8Y-116.76
X55.8Y-119.3
X55.8Y-121.84
X55.8Y-124.38
X55.8Y-126.92
X55.8Y-129.46
X55.8Y-132.0
X55.8Y-134.54
X55.8Y-137.08
X55.8Y-139.62
X58.34Y-5.0
X58.34Y-7.54
X58.34Y-10.08
X58.34Y-12.62
X58.34Y-15.16
X58.34Y-17.7
X58.34Y-20.24
X58.34Y-22.78
X58.34Y-25.32
X58.34Y-27.86
X58.34Y-30.4
X58.34Y-32.94
X58.34Y-35.48
X58.34Y-38.02
X58.34Y-40.56
X58.34Y-43.1
X58.34Y-45.64
X58.34Y-48.18
X58.34Y-50.72
X58.34Y-53.26
X58.34Y-55.8
X58.34Y-58.34
X58.34Y-60.88
X58.34Y-63.42
X58.34Y-65.96
X58.34Y-68.5
X58.34Y-71.04
X58.34Y-73.58
X58.34Y-76.12
X58.34Y-78.66
X58.34Y-81.2
X58.34Y-83.74
X58.34Y-86.28
X58.34Y-88.82
X58.34Y-91.36
X58.34Y-93.9
X58.34Y-96.44
X58.34Y-98.98
X58.34Y-101.52
X58.34Y-104.06
X58.34Y-106.6
X58.34Y-109.14
X58.34Y-111.68
X58.34Y-114.22
X58.34Y-116.76
X58.34Y-119.3
X58.34Y-121.84
X58.34Y-124.38
X58.34Y-126.92
X58.34Y-129.46
X58.34Y-132.0
X58.34Y-134.54
X58.34Y-137.08
X58.34Y-139.62
X60.88Y-5.0
X60.88Y-7.54
X60.88Y-10.08
X60.88Y-12.62
X60.88Y-15.16
X60.88Y-17.7
X60.88Y-20.24
X60.88Y-22.78
X60.88Y-25.32
X60.88Y-27.86
X60.88Y-30.4
X60.88Y-32.94
X60.88Y-35.48
X60.88Y-38.02
X60.88Y-40.56
X60.88Y-43.1
X60.88Y-45.64
X60.88Y-48.18
X60.88Y-50.72
X60.88Y-53.26
X60.88Y-55.8
X60.88Y-58.34
X60.88Y-60.88
X60.88Y-63.42
X60.88Y-65.96
X60.88Y-68.5
X60.88Y-71.04
X60.88Y-73.58
X60.88Y-76.12
X60.88Y-78.66
X60.88Y-81.2
X60.88Y-83.74
X60.88Y-86.28
X60.88Y-88.82
X60.88Y-91.36
X60.88Y-93.9
X60.88Y-96.44
X60.88Y-98.98
X60.88Y-101.52
X60.88Y-104.06
X60.88Y-106.6
X60.88Y-109.14
X60.88Y-111.68
X60.88Y-114.22
X60.88Y-116.76
X60.88Y-119.3
X60.88Y-121.84
X60.88Y-124.38
X60.88Y-126.92
X60.88Y-129.46
X60.88Y-132.0
X60.88Y-134.54
X60.88Y-137.08
X60.88Y-139.62
X63.42Y-5.0
X63.42Y-7.54
X63.42Y-10.08
X63.42Y-12.62
X63.42Y-15.16
X63.42Y-17.7
X63.42Y-20.24
X63.42Y-22.78
X63.42Y-25.32
X63.42Y-27.86
X63.42Y-30.4
X63.42Y-32.94
X63.42Y-35.48
X63.42Y-38.02
X63.42Y-40.56
X63.42Y-43.1
X63.42Y-45.64
X63.42Y-48.18
X63.42Y-50.72
X63.42Y-53.26
X63.42Y-55.8
X63.42Y-58.34
X63.42Y-60.88
X63.42Y-63.42
X63.42Y-65.96
X63.42Y-68.5
X63.42Y-71.04
X63.42Y-73.58
X63.42Y-76.12
X63.42Y-78.66
X63.42Y-81.2
X63.42Y-83.74
X63.42Y-86.28
X63.42Y-88.82
X63.42Y-91.36
X63.42Y-93.9
X63.42Y-96.44
X63.42Y-98.98
X63.42Y-101.52
X63.42Y-104.06
X63.42Y-106.6
X63.42Y-109.14
X63.42Y-111.68
X63.42Y-114.22
X63.42Y-116.76
X63.42Y-119.3
X63.42Y-121.84
X63.42Y-124.38
X63.42Y-126.92
X63.42Y-129.46
X63.42Y-132.0
X63.42Y-134.54
X63.42Y-137.08
X63.42Y-139.62
X65.96Y-5.0
X65.96Y-7.54
X65.96Y-10.08
X65.96Y-12.62
X65.96Y-15.16
X65.96Y-17.7
X65.96Y-20.24
X65.96Y-22.78
X65.96Y-25.32
X65.96Y-27.86
X65.96Y-30.4
X65.96Y-32.94
X65.96Y-35.48
X65.96Y-38.02
X65.96Y-40.56
X65.96Y-43.1
X65.96Y-45.64
X65.96Y-48.18
X65.96Y-50.72
X65.96Y-53.26
X65.96Y-55.8
X65.96Y-58.34
X65.96Y-60.88
X65.96Y-63.42
X65.96Y-65.96
X65.96Y-68.5
X65.96Y-71.04
X65.96Y-73.58
X65.96Y-76.12
X65.96Y-78.66
X65.96Y-81.2
X65.96Y-83.74
X65.96Y-86.28
X65.96Y-88.82
X65.96Y-91.36
X65.96Y-93.9
X65.96Y-96.44
X65.96Y-98.98
X65.96Y-101.52
X65.96Y-104.06
X65.96Y-106.6
X65.96Y-109.14
X65.96Y-111.68
X65.96Y-114.22
X65.96Y-116.76
X65.96Y-119.3
X65.96Y-121.84
X65.96Y-124.38
X65.96Y-126.92
X65.96Y-129.46
X65.96Y-132.0
X65.96Y-134.54
X65.96Y-137.08
X65.96Y-139.62
X68.5Y-5.0
X68.5Y-7.54
X68.5Y-10.08
X68.5Y-12.62
X68.5Y-15.16
X68.5Y-17.7
X68.5Y-20.24
X68.5Y-22.78
X68.5Y-25.32
X68.5Y-27.86
X68.5Y-30.4
X68.5Y-32.94
X68.5Y-35.48
X68.5Y-38.02
X68.5Y-40.56
X68.5Y-43.1
X68.5Y-45.64
X68.5Y-48.18
X68.5Y-50.72
X68.5Y-53.26
X68.5Y-55.8
X68.5Y-58.34
X68.5Y-60.88
X68.5Y-63.42
X68.5Y-65.96
X68.5Y-68.5
X68.5Y-71.04
X68.5Y-73.58
X68.5Y-76.12
X68.5Y-78.66
X68.5Y-81.2
X68.5Y-83.74
X68.5Y-86.28
X68.5Y-88.82
X68.5Y-91.36
X68.5Y-93.9
X68.5Y-96.44
X68.5Y-98.98
X68.5Y-101.52
X68.5Y-104.06
X68.5Y-106.6
X68.5Y-109.14
X68.5Y-111.68
X68.5Y-114.22
X68.5Y-116.76
X68.5Y-119.3
X68.5Y-121.84
X68.5Y-124.38
X68.5Y-126.92
X68.5Y-129.46
X68.5Y-132.0
X68.5Y-134.54
X68.5Y-137.08
X68.5Y-139.62
X71.04Y-5.0
X71.04Y-7.54
X71.04Y-10.08
X71.04Y-12.62
X71.04Y-15.16
X71.04Y-17.7
X71.04Y-20.24
X71.04Y-22.78
X71.04Y-25.32
X71.04Y-27.86
X71.04Y-30.4
X71.04Y-32.94
X71.04Y-35.48
X71.04Y-38.02
X71.04Y-40.56
X71.04Y-43.1
X71.04Y-45.64
X71.04Y-48.18
X71.04Y-50.72
X71.04Y-53.26
X71.04Y-55.8
X71.04Y-58.34
X71.04Y-60.88
X71.04Y-63.42
X71.04Y-65.96
X71.04Y-68.5
X71.04Y-71.04
X71.04Y-73.58
X71.04Y-76.12
X71.04Y-78.66
X71.04Y-81.2
X71.04Y-83.74
X71.04Y-86.28
X71.04Y-88.82
X71.04Y-91.36
X71.04Y-93.9
X71.04Y-96.44
X71.04Y-98.98
X71.04Y-101.52
X71.04Y-104.06
X71.04Y-106.6
X71.04Y-109.14
X71.04Y-111.68
X71.04Y-114.22
X71.04Y-116.76
X71.04Y-119.3
X71.04Y-121.84
X71.04Y-124.38
X71.04Y-126.92
X71.04Y-129.46
X71.04Y-132.0
X71.04Y-134.54
X71.04Y-137.08
X71.04Y-139.62
X73.58Y-5.0
X73.58Y-7.54
X73.58Y-10.08
X73.58Y-12.62
X73.58Y-15.16
X73.58Y-17.7
X73.58Y-20.24
X73.58Y-22.78
X73.58Y-25.32
X73.58Y-27.86
X73.58Y-30.4
X73.58Y-32.94
X73.58Y-35.48
X73.58Y-38.02
X73.58Y-40.56
X73.58Y-43.1
X73.58Y-45.64
X73.58Y-48.18
X73.58Y-50.72
X73.58Y-53.26
X73.58Y-55.8
X73.58Y-58.34
X73.58Y-60.88
X73.58Y-63.42
X73.58Y-65.96
X73.58Y-68.5
X73.58Y-71.04
X73.58Y-73.58
X73.58Y-76.12
X73.58Y-78.66
X73.58Y-81.2
X73.58Y-83.74
X73.58Y-86.28
X73.58Y-88.82
X73.58Y-91.36
X73.58Y-93.9
X73.58Y-96.44
X73.58Y-98.98
X73.58Y-101.52
X73.58Y-104.06
X73.58Y-106.6
X73.58Y-109.14
X73.58Y-111.68
X73.58Y-114.22
X73.58Y-116.76
X73.58Y-119.3
X73.58Y-121.84
X73.58Y-124.38
X73.58Y-126.92
X73.58Y-129.46
X73.58Y-132.0
X73.58Y-134.54
X73.58Y-137.08
X73.58Y-139.62
X76.12Y-5.0
X76.12Y-7.54
X76.12Y-10.08
X76.12Y-12.62
X76.12Y-15.16
X76.12Y-17.7
X76.12Y-20.24
X76.12Y-22.78
X76.12Y-25.32
X76.12Y-27.86
X76.12Y-30.4
X76.12Y-32.94
X76.12Y-35.48
X76.12Y-38.02
X76.12Y-40.56
X76.12Y-43.1
X76.12Y-45.64
X76.12Y-48.18
X76.12Y-50.72
X76.12Y-53.26
X76.12Y-55.8
X76.12Y-58.34
X76.12Y-60.88
X76.12Y-63.42
X76.12Y-65.96
X76.12Y-68.5
X76.12Y-71.04
X76.12Y-73.58
X76.12Y-76.12
X76.12Y-78.66
X76.12Y-81.2
X76.12Y-83.74
X76.12Y-86.28
X76.12Y-88.82
X76.12Y-91.36
X76.12Y-93.9
X76.12Y-96.44
X76.12Y-98.98
X76.12Y-101.52
X76.12Y-104.06
X76.12Y-106.6
X76.12Y-109.14
X76.12Y-111.68
X76.12Y-114.22
X76.12Y-116.76
X76.12Y-119.3
X76.12Y-121.84
X76.12Y-124.38
X76.12Y-126.92
X76.12Y-129.46
X76.12Y-132.0
X76.12Y-134.54
X76.12Y-137.08
X76.12Y-139.62
X78.66Y-5.0
X78.66Y-7.54
X78.66Y-10.08
X78.66Y-12.62
X78.66Y-15.16
X78.66Y-17.7
X78.66Y-20.24
X78.66Y-22.78
X78.66Y-25.32
X78.66Y-27.86
X78.66Y-30.4
X78.66Y-32.94
X78.66Y-35.48
X78.66Y-38.02
X78.66Y-40.56
X78.66Y-43.1
X78.66Y-45.64
X78.66Y-48.18
X78.66Y-50.72
X78.66Y-53.26
X78.66Y-55.8
X78.66Y-58.34
X78.66Y-60.88
X78.66Y-63.42
X78.66Y-65.96
X78.66Y-68.5
X78.66Y-71.04
X78.66Y-73.58
X78.66Y-76.12
X78.66Y-78.66
X78.66Y-81.2
X78.66Y-83.74
X78.66Y-86.28
X78.66Y-88.82
X78.66Y-91.36
X78.66Y-93.9
X78.66Y-96.44
X78.66Y-98.98
X78.66Y-101.52
X78.66Y-104.06
X78.66Y-106.6
X78.66Y-109.14
X78.66Y-111.68
X78.66Y-114.22
X78.66Y-116.76
X78.66Y-119.3
X78.66Y-121.84
X78.66Y-124.38
X78.66Y-126.92
X78.66Y-129.46
X78.66Y-132.0
X78.66Y-134.54
X78.66Y-137.08
X78.66Y-139.62
X81.2Y-5.0
X81.2Y-7.54
X81.2Y-10.08
X81.2Y-12.62
X81.2Y-15.16
X81.2Y-17.7
X81.2Y-20.24
X81.2Y-22.78
X81.2Y-25.32
X81.2Y-27.86
X81.2Y-30.4
X81.2Y-32.94
X81.2Y-35.48
X81.2Y-38.02
X81.2Y-40.56
X81.2Y-43.1
X81.2Y-45.64
X81.2Y-48.18
X81.2Y-50.72
X81.2Y-53.26
X81.2Y-55.8
X81.2Y-58.34
X81.2Y-60.88
X81.2Y-63.42
X81.2Y-65.96
X81.2Y-68.5
X81.2Y-71.04
X81.2Y-73.58
X81.2Y-76.12
X81.2Y-78.66
X81.2Y-81.2
X81.2Y-83.74
X81.2Y-86.28
X81.2Y-88.82
X81.2Y-91.36
X81.2Y-93.9
X81.2Y-96.44
X81.2Y-98.98
X81.2Y-101.52
X81.2Y-104.06
X81.2Y-106.6
X81.2Y-109.14
X81.2Y-111.68
X81.2Y-114.22
X81.2Y-116.76
X81.2Y-119.3
X81.2Y-121.84
X81.2Y-124.38
X81.2Y-126.92
X81.2Y-129.46
X81.2Y-132.0
X81.2Y-134.54
X81.2Y-137.08
X81.2Y-139.62
X83.74Y-5.0
X83.74Y-7.54
X83.74Y-10.08
X83.74Y-12.62
X83.74Y-15.16
X83.74Y-17.7
X83.74Y-20.24
X83.74Y-22.78
X83.74Y-25.32
X83.74Y-27.86
X83.74Y-30.4
X83.74Y-32.94
X83.74Y-35.48
X83.74Y-38.02
X83.74Y-40.56
X83.74Y-43.1
X83.74Y-45.64
X83.74Y-48.18
X83.74Y-50.72
X83.74Y-53.26
X83.74Y-55.8
X83.74Y-58.34
X83.74Y-60.88
X83.74Y-63.42
X83.74Y-65.96
X83.74Y-68.5
X83.74Y-71.04
X83.74Y-73.58
X83.74Y-76.12
X83.74Y-78.66
X83.74Y-81.2
X83.74Y-83.74
X83.74Y-86.28
X83.74Y-88.82
X83.74Y-91.36
X83.74Y-93.9
X83.74Y-96.44
X83.74Y-98.98
X83.74Y-101.52
X83.74Y-104.06
X83.74Y-106.6
X83.74Y-109.14
X83.74Y-111.68
X83.74Y-114.22
X83.74Y-116.76
X83.74Y-119.3
X83.74Y-121.84
X83.74Y-124.38
X83.74Y-126.92
X83.74Y-129.46
X83.74Y-132.0
X83.74Y-134.54
X83.74Y-137.08
X83.74Y-139.62
X86.28Y-5.0
X86.28Y-7.54
X86.28Y-10.08
X86.28Y-12.62
X86.28Y-15.16
X86.28Y-17.7
X86.28Y-20.24
X86.28Y-22.78
X86.28Y-25.32
X86.28Y-27.86
X86.28Y-30.4
X86.28Y-32.94
X86.28Y-35.48
X86.28Y-38.02
X86.28Y-40.56
X86.28Y-43.1
X86.28Y-45.64
X86.28Y-48.18
X86.28Y-50.72
X86.28Y-53.26
X86.28Y-55.8
X86.28Y-58.34
X86.28Y-60.88
X86.28Y-63.42
X86.28Y-65.96
X86.28Y-68.5
X86.28Y-71.04
X86.28Y-73.58
X86.28Y-76.12
X86.28Y-78.66
X86.28Y-81.2
X86.28Y-83.74
X86.28Y-86.28
X86.28Y-88.82
X86.28Y-91.36
X86.28Y-93.9
X86.28Y-96.44
X86.28Y-98.98
X86.28Y-101.52
X86.28Y-104.06
X86.28Y-106.6
X86.28Y-109.14
X86.28Y-111.68
X86.28Y-114.22
X86.28Y-116.76
X86.28Y-119.3
X86.28Y-121.84
X86.28Y-124.38
X86.28Y-126.92
X86.28Y-129.46
X86.28Y-132.0
X86.28Y-134.54
X86.28Y-137.08
X86.28Y-139.62
X88.82Y-5.0
X88.82Y-7.54
X88.82Y-10.08
X88.82Y-12.62
X88.82Y-15.16
X88.82Y-17.7
X88.82Y-20.24
X88.82Y-22.78
X88.82Y-25.32
X88.82Y-27.86
X88.82Y-30.4
X88.82Y-32.94
X88.82Y-35.48
X88.82Y-38.02
X88.82Y-40.56
X88.82Y-43.1
X88.82Y-45.64
X88.82Y-48.18
X88.82Y-50.72
X88.82Y-53.26
X88.82Y-55.8
X88.82Y-58.34
X88.82Y-60.88
X88.82Y-63.42
X88.82Y-65.96
X88.82Y-68.5
X88.82Y-71.04
X88.82Y-73.58
X88.82Y-76.12
X88.82Y-78.66
X88.82Y-81.2
X88.82Y-83.74
X88.82Y-86.28
X88.82Y-88.82
X88.82Y-91.36
X88.82Y-93.9
X88.82Y-96.44
X88.82Y-98.98
X88.82Y-101.52
X88.82Y-104.06
X88.82Y-106.6
X88.82Y-109.14
X88.82Y-111.68
X88.82Y-114.22
X88.82Y-116.76
X88.82Y-119.3
X88.82Y-121.84
X88.82Y-124.38
X88.82Y-126.92
X88.82Y-129.46
X88.82Y-132.0
X88.82Y-134.54
X88.82Y-137.08
X88.82Y-139.62
X88.82Y-142.16
X88.82Y-144.7
X91.36Y-5.0
X91.36Y-7.54
X91.36Y-10.08
X91.36Y-12.62
X91.36Y-15.16
X91.36Y-17.7
X91.36Y-20.24
X91.36Y-22.78
X91.36Y-25.32
X91.36Y-27.86
X91.36Y-30.4
X91.36Y-32.94
X91.36Y-35.48
X91.36Y-38.02
X91.36Y-40.56
X91.36Y-43.1
X91.36Y-45.64
X91.36Y-48.18
X91.36Y-50.72
X91.36Y-53.26
X91.36Y-55.8
X91.36Y-58.34
X91.36Y-60.88
X91.36Y-63.42
X91.36Y-65.96
X91.36Y-68.5
X91.36Y-71.04
X91.36Y-73.58
X91.36Y-76.12
X91.36Y-78.66
X91.36Y-81.2
X91.36Y-83.74
X91.36Y-86.28
X91.36Y-88.82
X91.36Y-91.36
X91.36Y-93.9
X91.36Y-96.44
X91.36Y-98.98
X91.36Y-101.52
X91.36Y-104.06
X91.36Y-106.6
X91.36Y-109.14
X91.36Y-111.68
X91.36Y-114.22
X91.36Y-116.76
X91.36Y-119.3
X91.36Y-121.84
X91.36Y-124.38
X91.36Y-126.92
X91.36Y-129.46
X91.36Y-132.0
X91.36Y-134.54
X91.36Y-137.08
X91.36Y-139.62
X91.36Y-142.16
X91.36Y-144.7
X93.9Y-5.0
X93.9Y-7.54
X93.9Y-10.08
X93.9Y-12.62
X93.9Y-15.16
X93.9Y-17.7
X93.9Y-20.24
X93.9Y-22.78
X93.9Y-25.32
X93.9Y-27.86
X93.9Y-30.4
X93.9Y-32.94
X93.9Y-35.48
X93.9Y-38.02
X93.9Y-40.56
X93.9Y-43.1
X93.9Y-45.64
X93.9Y-48.18
X93.9Y-50.72
X93.9Y-53.26
X93.9Y-55.8
X93.9Y-58.34
X93.9Y-60.88
X93.9Y-63.42
X93.9Y-65.96
X93.9Y-68.5
X93.9Y-71.04
X93.9Y-73.58
X93.9Y-76.12
X93.9Y-78.66
X93.9Y-81.2
X93.9Y-83.74
X93.9Y-86.28
X93.9Y-88.82
X93.9Y-91.36
X93.9Y-93.9
X93.9Y-96.44
X93.9Y-98.98
X93.9Y-101.52
X93.9Y-104.06
X93.9Y-106.6
X93.9Y-109.14
X93.9Y-111.68
X93.9Y-114.22
X93.9Y-116.76
X93.9Y-119.3
X93.9Y-121.84
X93.9Y-124.38
X93.9Y-126.92
X93.9Y-129.46
X93.9Y-132.0
X93.9Y-134.54
X93.9Y-137.08
X93.9Y-139.62
X93.9Y-142.16
X93.9Y-144.7
T4
X7.54Y-150.5G85X7.54Y-153.5
G05
X91.36Y-150.5G85X91.36Y-153.5
G05
M30
