M48
; DRILL file {KiCad 9.0.6} date 2026-03-04T14:49:11+0100
; FORMAT={-:-/ absolute / metric / decimal}
; #@! TF.CreationDate,2026-03-04T14:49:11+01:00
; #@! TF.GenerationSoftware,Kicad,Pcbnew,9.0.6
; #@! TF.FileFunction,Plated,1,2,PTH
FMAT,2
METRIC
; #@! TA.AperFunction,Plated,PTH,ViaDrill
T1C0.300
; #@! TA.AperFunction,Plated,PTH,ViaDrill
T2C0.400
; #@! TA.AperFunction,Plated,PTH,ComponentDrill
T3C1.000
; #@! TA.AperFunction,Plated,PTH,ComponentDrill
T4C2.000
%
G90
G05
T1
X4.0Y-50.72
X4.0Y-53.26
X6.0Y-50.72
X6.0Y-53.26
X6.54Y-50.72
X6.54Y-53.26
X8.54Y-50.72
X8.54Y-53.26
X9.08Y-50.72
X9.08Y-53.26
X11.08Y-50.72
X11.08Y-53.26
X37.02Y-50.72
X37.02Y-53.26
X39.02Y-50.72
X39.02Y-53.26
X39.56Y-50.72
X39.56Y-53.26
X41.56Y-50.72
X41.56Y-53.26
X42.1Y-50.72
X42.1Y-53.26
X44.1Y-50.72
X44.1Y-53.26
T2
X3.74Y-62.0
X4.853Y-59.313
X4.853Y-64.687
X7.54Y-58.2
X7.54Y-65.8
X10.227Y-59.313
X10.227Y-64.687
X11.34Y-62.0
X36.76Y-62.0
X37.873Y-59.313
X37.873Y-64.687
X40.56Y-58.2
X40.56Y-65.8
X43.247Y-59.313
X43.247Y-64.687
X44.36Y-62.0
T3
X5.0Y-5.0
X5.0Y-7.54
X5.0Y-10.08
X5.0Y-12.62
X5.0Y-15.16
X5.0Y-17.7
X5.0Y-20.24
X5.0Y-22.78
X5.0Y-25.32
X5.0Y-27.86
X5.0Y-30.4
X5.0Y-32.94
X5.0Y-35.48
X5.0Y-38.02
X5.0Y-40.56
X5.0Y-43.1
X5.0Y-45.64
X5.0Y-48.18
X5.0Y-50.72
X5.0Y-53.26
X7.54Y-5.0
X7.54Y-7.54
X7.54Y-10.08
X7.54Y-12.62
X7.54Y-15.16
X7.54Y-17.7
X7.54Y-20.24
X7.54Y-22.78
X7.54Y-25.32
X7.54Y-27.86
X7.54Y-30.4
X7.54Y-32.94
X7.54Y-35.48
X7.54Y-38.02
X7.54Y-40.56
X7.54Y-43.1
X7.54Y-45.64
X7.54Y-48.18
X7.54Y-50.72
X7.54Y-53.26
X10.08Y-5.0
X10.08Y-7.54
X10.08Y-10.08
X10.08Y-12.62
X10.08Y-15.16
X10.08Y-17.7
X10.08Y-20.24
X10.08Y-22.78
X10.08Y-25.32
X10.08Y-27.86
X10.08Y-30.4
X10.08Y-32.94
X10.08Y-35.48
X10.08Y-38.02
X10.08Y-40.56
X10.08Y-43.1
X10.08Y-45.64
X10.08Y-48.18
X10.08Y-50.72
X10.08Y-53.26
X12.62Y-5.0
X12.62Y-7.54
X12.62Y-10.08
X12.62Y-12.62
X12.62Y-15.16
X12.62Y-17.7
X12.62Y-20.24
X12.62Y-22.78
X12.62Y-25.32
X12.62Y-27.86
X12.62Y-30.4
X12.62Y-32.94
X12.62Y-35.48
X12.62Y-38.02
X12.62Y-40.56
X12.62Y-43.1
X12.62Y-45.64
X12.62Y-48.18
X15.16Y-5.0
X15.16Y-7.54
X15.16Y-10.08
X15.16Y-12.62
X15.16Y-15.16
X15.16Y-17.7
X15.16Y-20.24
X15.16Y-22.78
X15.16Y-25.32
X15.16Y-27.86
X15.16Y-30.4
X15.16Y-32.94
X15.16Y-35.48
X15.16Y-38.02
X15.16Y-40.56
X15.16Y-43.1
X15.16Y-45.64
X15.16Y-48.18
X17.7Y-5.0
X17.7Y-7.54
X17.7Y-10.08
X17.7Y-12.62
X17.7Y-15.16
X17.7Y-17.7
X17.7Y-20.24
X17.7Y-22.78
X17.7Y-25.32
X17.7Y-27.86
X17.7Y-30.4
X17.7Y-32.94
X17.7Y-35.48
X17.7Y-38.02
X17.7Y-40.56
X17.7Y-43.1
X17.7Y-45.64
X17.7Y-48.18
X20.24Y-5.0
X20.24Y-7.54
X20.24Y-10.08
X20.24Y-12.62
X20.24Y-15.16
X20.24Y-17.7
X20.24Y-20.24
X20.24Y-22.78
X20.24Y-25.32
X20.24Y-27.86
X20.24Y-30.4
X20.24Y-32.94
X20.24Y-35.48
X20.24Y-38.02
X20.24Y-40.56
X20.24Y-43.1
X20.24Y-45.64
X20.24Y-48.18
X22.78Y-5.0
X22.78Y-7.54
X22.78Y-10.08
X22.78Y-12.62
X22.78Y-15.16
X22.78Y-17.7
X22.78Y-20.24
X22.78Y-22.78
X22.78Y-25.32
X22.78Y-27.86
X22.78Y-30.4
X22.78Y-32.94
X22.78Y-35.48
X22.78Y-38.02
X22.78Y-40.56
X22.78Y-43.1
X22.78Y-45.64
X22.78Y-48.18
X25.32Y-5.0
X25.32Y-7.54
X25.32Y-10.08
X25.32Y-12.62
X25.32Y-15.16
X25.32Y-17.7
X25.32Y-20.24
X25.32Y-22.78
X25.32Y-25.32
X25.32Y-27.86
X25.32Y-30.4
X25.32Y-32.94
X25.32Y-35.48
X25.32Y-38.02
X25.32Y-40.56
X25.32Y-43.1
X25.32Y-45.64
X25.32Y-48.18
X27.86Y-5.0
X27.86Y-7.54
X27.86Y-10.08
X27.86Y-12.62
X27.86Y-15.16
X27.86Y-17.7
X27.86Y-20.24
X27.86Y-22.78
X27.86Y-25.32
X27.86Y-27.86
X27.86Y-30.4
X27.86Y-32.94
X27.86Y-35.48
X27.86Y-38.02
X27.86Y-40.56
X27.86Y-43.1
X27.86Y-45.64
X27.86Y-48.18
X30.4Y-5.0
X30.4Y-7.54
X30.4Y-10.08
X30.4Y-12.62
X30.4Y-15.16
X30.4Y-17.7
X30.4Y-20.24
X30.4Y-22.78
X30.4Y-25.32
X30.4Y-27.86
X30.4Y-30.4
X30.4Y-32.94
X30.4Y-35.48
X30.4Y-38.02
X30.4Y-40.56
X30.4Y-43.1
X30.4Y-45.64
X30.4Y-48.18
X32.94Y-5.0
X32.94Y-7.54
X32.94Y-10.08
X32.94Y-12.62
X32.94Y-15.16
X32.94Y-17.7
X32.94Y-20.24
X32.94Y-22.78
X32.94Y-25.32
X32.94Y-27.86
X32.94Y-30.4
X32.94Y-32.94
X32.94Y-35.48
X32.94Y-38.02
X32.94Y-40.56
X32.94Y-43.1
X32.94Y-45.64
X32.94Y-48.18
X35.48Y-5.0
X35.48Y-7.54
X35.48Y-10.08
X35.48Y-12.62
X35.48Y-15.16
X35.48Y-17.7
X35.48Y-20.24
X35.48Y-22.78
X35.48Y-25.32
X35.48Y-27.86
X35.48Y-30.4
X35.48Y-32.94
X35.48Y-35.48
X35.48Y-38.02
X35.48Y-40.56
X35.48Y-43.1
X35.48Y-45.64
X35.48Y-48.18
X38.02Y-5.0
X38.02Y-7.54
X38.02Y-10.08
X38.02Y-12.62
X38.02Y-15.16
X38.02Y-17.7
X38.02Y-20.24
X38.02Y-22.78
X38.02Y-25.32
X38.02Y-27.86
X38.02Y-30.4
X38.02Y-32.94
X38.02Y-35.48
X38.02Y-38.02
X38.02Y-40.56
X38.02Y-43.1
X38.02Y-45.64
X38.02Y-48.18
X38.02Y-50.72
X38.02Y-53.26
X40.56Y-5.0
X40.56Y-7.54
X40.56Y-10.08
X40.56Y-12.62
X40.56Y-15.16
X40.56Y-17.7
X40.56Y-20.24
X40.56Y-22.78
X40.56Y-25.32
X40.56Y-27.86
X40.56Y-30.4
X40.56Y-32.94
X40.56Y-35.48
X40.56Y-38.02
X40.56Y-40.56
X40.56Y-43.1
X40.56Y-45.64
X40.56Y-48.18
X40.56Y-50.72
X40.56Y-53.26
X43.1Y-5.0
X43.1Y-7.54
X43.1Y-10.08
X43.1Y-12.62
X43.1Y-15.16
X43.1Y-17.7
X43.1Y-20.24
X43.1Y-22.78
X43.1Y-25.32
X43.1Y-27.86
X43.1Y-30.4
X43.1Y-32.94
X43.1Y-35.48
X43.1Y-38.02
X43.1Y-40.56
X43.1Y-43.1
X43.1Y-45.64
X43.1Y-48.18
X43.1Y-50.72
X43.1Y-53.26
T4
X7.54Y-60.5G85X7.54Y-63.5
G05
X40.56Y-60.5G85X40.56Y-63.5
G05
M30
